M48
; DRILL file {KiCad 8.0.8} date 2025-02-21T19:24:57+1100
; FORMAT={-:-/ absolute / metric / decimal}
; #@! TF.CreationDate,2025-02-21T19:24:57+11:00
; #@! TF.GenerationSoftware,Kicad,Pcbnew,8.0.8
; #@! TF.FileFunction,Plated,1,4,PTH
FMAT,2
METRIC
; #@! TA.AperFunction,Plated,PTH,ViaDrill
T1C0.300
; #@! TA.AperFunction,Plated,PTH,ComponentDrill
T2C0.300
; #@! TA.AperFunction,Plated,PTH,ComponentDrill
T3C0.650
; #@! TA.AperFunction,Plated,PTH,ComponentDrill
T4C0.700
; #@! TA.AperFunction,Plated,PTH,ComponentDrill
T5C0.800
; #@! TA.AperFunction,Plated,PTH,ComponentDrill
T6C1.000
%
G90
G05
T1
X124.65Y-93.325
X124.65Y-97.25
X124.65Y-103.45
X124.65Y-107.35
X124.65Y-113.55
X124.65Y-117.45
X126.213Y-110.465
X126.238Y-100.33
X127.787Y-92.38
X127.787Y-100.355
X127.787Y-110.465
X128.95Y-119.5
X130.2Y-92.38
X130.2Y-110.439
X130.225Y-100.355
X132.95Y-110.45
X133.0Y-100.35
X133.185Y-91.3
X133.185Y-119.5
X134.163Y-89.992
X135.591Y-127.446
X137.668Y-91.821
X138.227Y-94.615
X138.715Y-124.55
X138.989Y-88.824
X139.967Y-92.824
X140.62Y-128.843
X141.986Y-97.877
X141.992Y-128.843
X142.951Y-97.877
X143.748Y-106.415
X143.764Y-96.53
X143.95Y-113.05
X144.653Y-100.925
X145.269Y-110.2
X146.388Y-110.287
X146.85Y-103.55
X147.066Y-92.696
X147.854Y-107.535
X148.641Y-121.006
X148.754Y-107.5
X149.029Y-110.015
X149.93Y-110.033
X151.759Y-111.3
X152.298Y-121.412
X152.468Y-110.745
X153.1Y-114.6
X153.175Y-108.438
X153.25Y-110.125
X153.436Y-100.558
X153.979Y-102.245
X154.432Y-115.214
X154.559Y-111.963
X154.58Y-103.631
X154.639Y-107.237
X154.687Y-104.931
X154.728Y-102.743
X154.965Y-99.847
X155.355Y-107.783
X155.6Y-109.652
X155.9Y-108.499
X156.058Y-111.608
X156.591Y-100.051
X156.921Y-117.399
X159.995Y-113.589
X160.147Y-118.821
T2
X148.2Y-104.062
X148.2Y-105.062
X148.2Y-106.062
X149.2Y-104.062
X149.2Y-105.062
X149.2Y-106.062
X150.2Y-104.062
X150.2Y-105.062
X150.2Y-106.062
T5
X130.642Y-124.51
X130.642Y-127.01
T6
X115.95Y-91.45
X115.95Y-93.99
X115.95Y-96.53
X115.95Y-99.07
X115.95Y-101.61
X115.95Y-104.15
X115.95Y-106.69
X115.95Y-109.23
X115.95Y-111.77
X115.95Y-114.31
X115.95Y-116.85
X115.95Y-119.39
X115.95Y-121.93
X115.95Y-124.47
X115.95Y-127.01
X115.95Y-129.55
X118.49Y-91.45
X118.49Y-93.99
X118.49Y-96.53
X118.49Y-99.07
X118.49Y-101.61
X118.49Y-104.15
X118.49Y-106.69
X118.49Y-109.23
X118.49Y-111.77
X118.49Y-114.31
X118.49Y-116.85
X118.49Y-119.39
X118.49Y-121.93
X118.49Y-124.47
X118.49Y-127.01
X118.49Y-129.55
X128.875Y-87.655
X131.415Y-87.655
X140.77Y-119.38
X143.31Y-119.38
X145.85Y-119.38
X148.59Y-89.611
X148.59Y-126.41
X151.13Y-89.611
X151.13Y-126.41
X153.67Y-89.611
X153.67Y-126.41
X160.198Y-93.396
X160.198Y-95.936
X160.198Y-98.476
X160.198Y-101.016
X160.198Y-103.556
X160.198Y-106.096
T3
X136.543Y-90.128G85X136.543Y-90.528
G05
X141.383Y-90.128G85X141.383Y-90.528
G05
T4
X136.233Y-87.078G85X136.233Y-87.578
G05
X141.693Y-87.078G85X141.693Y-87.578
G05
M30
