%TF.GenerationSoftware,KiCad,Pcbnew,8.0.8*%
%TF.CreationDate,2025-02-21T19:24:58+11:00*%
%TF.ProjectId,RP2350LevelShifter,52503233-3530-44c6-9576-656c53686966,rev?*%
%TF.SameCoordinates,Original*%
%TF.FileFunction,Drillmap*%
%TF.FilePolarity,Positive*%
%FSLAX45Y45*%
G04 Gerber Fmt 4.5, Leading zero omitted, Abs format (unit mm)*
G04 Created by KiCad (PCBNEW 8.0.8) date 2025-02-21 19:24:58*
%MOMM*%
%LPD*%
G01*
G04 APERTURE LIST*
%ADD10C,0.050000*%
%ADD11C,0.200000*%
%ADD12C,0.250000*%
G04 APERTURE END LIST*
D10*
X11200000Y-13550000D02*
X16200000Y-13550000D01*
X11200000Y-8550000D02*
X16200000Y-8550000D01*
X11200000Y-8550000D02*
X11200000Y-13550000D01*
X16200000Y-13550000D02*
X16200000Y-8550000D01*
D11*
D12*
X12175000Y-8725000D02*
X12425000Y-8975000D01*
X12425000Y-8725000D02*
X12175000Y-8975000D01*
X12175000Y-13125000D02*
X12425000Y-13375000D01*
X12425000Y-13125000D02*
X12175000Y-13375000D01*
X15775000Y-8725000D02*
X16025000Y-8975000D01*
X16025000Y-8725000D02*
X15775000Y-8975000D01*
X15775000Y-13125000D02*
X16025000Y-13375000D01*
X16025000Y-13125000D02*
X15775000Y-13375000D01*
D11*
X11458277Y-13863984D02*
X11458277Y-13663984D01*
X11458277Y-13663984D02*
X11505896Y-13663984D01*
X11505896Y-13663984D02*
X11534467Y-13673508D01*
X11534467Y-13673508D02*
X11553515Y-13692555D01*
X11553515Y-13692555D02*
X11563039Y-13711603D01*
X11563039Y-13711603D02*
X11572562Y-13749698D01*
X11572562Y-13749698D02*
X11572562Y-13778269D01*
X11572562Y-13778269D02*
X11563039Y-13816365D01*
X11563039Y-13816365D02*
X11553515Y-13835412D01*
X11553515Y-13835412D02*
X11534467Y-13854460D01*
X11534467Y-13854460D02*
X11505896Y-13863984D01*
X11505896Y-13863984D02*
X11458277Y-13863984D01*
X11658277Y-13863984D02*
X11658277Y-13730650D01*
X11658277Y-13768746D02*
X11667801Y-13749698D01*
X11667801Y-13749698D02*
X11677324Y-13740174D01*
X11677324Y-13740174D02*
X11696372Y-13730650D01*
X11696372Y-13730650D02*
X11715420Y-13730650D01*
X11782086Y-13863984D02*
X11782086Y-13730650D01*
X11782086Y-13663984D02*
X11772562Y-13673508D01*
X11772562Y-13673508D02*
X11782086Y-13683031D01*
X11782086Y-13683031D02*
X11791610Y-13673508D01*
X11791610Y-13673508D02*
X11782086Y-13663984D01*
X11782086Y-13663984D02*
X11782086Y-13683031D01*
X11905896Y-13863984D02*
X11886848Y-13854460D01*
X11886848Y-13854460D02*
X11877324Y-13835412D01*
X11877324Y-13835412D02*
X11877324Y-13663984D01*
X12010658Y-13863984D02*
X11991610Y-13854460D01*
X11991610Y-13854460D02*
X11982086Y-13835412D01*
X11982086Y-13835412D02*
X11982086Y-13663984D01*
X12239229Y-13863984D02*
X12239229Y-13663984D01*
X12239229Y-13663984D02*
X12305896Y-13806841D01*
X12305896Y-13806841D02*
X12372562Y-13663984D01*
X12372562Y-13663984D02*
X12372562Y-13863984D01*
X12553515Y-13863984D02*
X12553515Y-13759222D01*
X12553515Y-13759222D02*
X12543991Y-13740174D01*
X12543991Y-13740174D02*
X12524943Y-13730650D01*
X12524943Y-13730650D02*
X12486848Y-13730650D01*
X12486848Y-13730650D02*
X12467801Y-13740174D01*
X12553515Y-13854460D02*
X12534467Y-13863984D01*
X12534467Y-13863984D02*
X12486848Y-13863984D01*
X12486848Y-13863984D02*
X12467801Y-13854460D01*
X12467801Y-13854460D02*
X12458277Y-13835412D01*
X12458277Y-13835412D02*
X12458277Y-13816365D01*
X12458277Y-13816365D02*
X12467801Y-13797317D01*
X12467801Y-13797317D02*
X12486848Y-13787793D01*
X12486848Y-13787793D02*
X12534467Y-13787793D01*
X12534467Y-13787793D02*
X12553515Y-13778269D01*
X12648753Y-13730650D02*
X12648753Y-13930650D01*
X12648753Y-13740174D02*
X12667801Y-13730650D01*
X12667801Y-13730650D02*
X12705896Y-13730650D01*
X12705896Y-13730650D02*
X12724943Y-13740174D01*
X12724943Y-13740174D02*
X12734467Y-13749698D01*
X12734467Y-13749698D02*
X12743991Y-13768746D01*
X12743991Y-13768746D02*
X12743991Y-13825888D01*
X12743991Y-13825888D02*
X12734467Y-13844936D01*
X12734467Y-13844936D02*
X12724943Y-13854460D01*
X12724943Y-13854460D02*
X12705896Y-13863984D01*
X12705896Y-13863984D02*
X12667801Y-13863984D01*
X12667801Y-13863984D02*
X12648753Y-13854460D01*
X12829705Y-13844936D02*
X12839229Y-13854460D01*
X12839229Y-13854460D02*
X12829705Y-13863984D01*
X12829705Y-13863984D02*
X12820182Y-13854460D01*
X12820182Y-13854460D02*
X12829705Y-13844936D01*
X12829705Y-13844936D02*
X12829705Y-13863984D01*
X12829705Y-13740174D02*
X12839229Y-13749698D01*
X12839229Y-13749698D02*
X12829705Y-13759222D01*
X12829705Y-13759222D02*
X12820182Y-13749698D01*
X12820182Y-13749698D02*
X12829705Y-13740174D01*
X12829705Y-13740174D02*
X12829705Y-13759222D01*
X10997500Y-14092500D02*
X11197500Y-14292500D01*
X11197500Y-14092500D02*
X10997500Y-14292500D01*
X11448753Y-14103031D02*
X11458277Y-14093508D01*
X11458277Y-14093508D02*
X11477324Y-14083984D01*
X11477324Y-14083984D02*
X11524943Y-14083984D01*
X11524943Y-14083984D02*
X11543991Y-14093508D01*
X11543991Y-14093508D02*
X11553515Y-14103031D01*
X11553515Y-14103031D02*
X11563039Y-14122079D01*
X11563039Y-14122079D02*
X11563039Y-14141127D01*
X11563039Y-14141127D02*
X11553515Y-14169698D01*
X11553515Y-14169698D02*
X11439229Y-14283984D01*
X11439229Y-14283984D02*
X11563039Y-14283984D01*
X11648753Y-14264936D02*
X11658277Y-14274460D01*
X11658277Y-14274460D02*
X11648753Y-14283984D01*
X11648753Y-14283984D02*
X11639229Y-14274460D01*
X11639229Y-14274460D02*
X11648753Y-14264936D01*
X11648753Y-14264936D02*
X11648753Y-14283984D01*
X11839229Y-14083984D02*
X11743991Y-14083984D01*
X11743991Y-14083984D02*
X11734467Y-14179222D01*
X11734467Y-14179222D02*
X11743991Y-14169698D01*
X11743991Y-14169698D02*
X11763039Y-14160174D01*
X11763039Y-14160174D02*
X11810658Y-14160174D01*
X11810658Y-14160174D02*
X11829705Y-14169698D01*
X11829705Y-14169698D02*
X11839229Y-14179222D01*
X11839229Y-14179222D02*
X11848753Y-14198269D01*
X11848753Y-14198269D02*
X11848753Y-14245888D01*
X11848753Y-14245888D02*
X11839229Y-14264936D01*
X11839229Y-14264936D02*
X11829705Y-14274460D01*
X11829705Y-14274460D02*
X11810658Y-14283984D01*
X11810658Y-14283984D02*
X11763039Y-14283984D01*
X11763039Y-14283984D02*
X11743991Y-14274460D01*
X11743991Y-14274460D02*
X11734467Y-14264936D01*
X11972562Y-14083984D02*
X11991610Y-14083984D01*
X11991610Y-14083984D02*
X12010658Y-14093508D01*
X12010658Y-14093508D02*
X12020182Y-14103031D01*
X12020182Y-14103031D02*
X12029705Y-14122079D01*
X12029705Y-14122079D02*
X12039229Y-14160174D01*
X12039229Y-14160174D02*
X12039229Y-14207793D01*
X12039229Y-14207793D02*
X12029705Y-14245888D01*
X12029705Y-14245888D02*
X12020182Y-14264936D01*
X12020182Y-14264936D02*
X12010658Y-14274460D01*
X12010658Y-14274460D02*
X11991610Y-14283984D01*
X11991610Y-14283984D02*
X11972562Y-14283984D01*
X11972562Y-14283984D02*
X11953515Y-14274460D01*
X11953515Y-14274460D02*
X11943991Y-14264936D01*
X11943991Y-14264936D02*
X11934467Y-14245888D01*
X11934467Y-14245888D02*
X11924943Y-14207793D01*
X11924943Y-14207793D02*
X11924943Y-14160174D01*
X11924943Y-14160174D02*
X11934467Y-14122079D01*
X11934467Y-14122079D02*
X11943991Y-14103031D01*
X11943991Y-14103031D02*
X11953515Y-14093508D01*
X11953515Y-14093508D02*
X11972562Y-14083984D01*
X12163039Y-14083984D02*
X12182086Y-14083984D01*
X12182086Y-14083984D02*
X12201134Y-14093508D01*
X12201134Y-14093508D02*
X12210658Y-14103031D01*
X12210658Y-14103031D02*
X12220182Y-14122079D01*
X12220182Y-14122079D02*
X12229705Y-14160174D01*
X12229705Y-14160174D02*
X12229705Y-14207793D01*
X12229705Y-14207793D02*
X12220182Y-14245888D01*
X12220182Y-14245888D02*
X12210658Y-14264936D01*
X12210658Y-14264936D02*
X12201134Y-14274460D01*
X12201134Y-14274460D02*
X12182086Y-14283984D01*
X12182086Y-14283984D02*
X12163039Y-14283984D01*
X12163039Y-14283984D02*
X12143991Y-14274460D01*
X12143991Y-14274460D02*
X12134467Y-14264936D01*
X12134467Y-14264936D02*
X12124943Y-14245888D01*
X12124943Y-14245888D02*
X12115420Y-14207793D01*
X12115420Y-14207793D02*
X12115420Y-14160174D01*
X12115420Y-14160174D02*
X12124943Y-14122079D01*
X12124943Y-14122079D02*
X12134467Y-14103031D01*
X12134467Y-14103031D02*
X12143991Y-14093508D01*
X12143991Y-14093508D02*
X12163039Y-14083984D01*
X12315420Y-14283984D02*
X12315420Y-14150650D01*
X12315420Y-14169698D02*
X12324943Y-14160174D01*
X12324943Y-14160174D02*
X12343991Y-14150650D01*
X12343991Y-14150650D02*
X12372563Y-14150650D01*
X12372563Y-14150650D02*
X12391610Y-14160174D01*
X12391610Y-14160174D02*
X12401134Y-14179222D01*
X12401134Y-14179222D02*
X12401134Y-14283984D01*
X12401134Y-14179222D02*
X12410658Y-14160174D01*
X12410658Y-14160174D02*
X12429705Y-14150650D01*
X12429705Y-14150650D02*
X12458277Y-14150650D01*
X12458277Y-14150650D02*
X12477324Y-14160174D01*
X12477324Y-14160174D02*
X12486848Y-14179222D01*
X12486848Y-14179222D02*
X12486848Y-14283984D01*
X12582086Y-14283984D02*
X12582086Y-14150650D01*
X12582086Y-14169698D02*
X12591610Y-14160174D01*
X12591610Y-14160174D02*
X12610658Y-14150650D01*
X12610658Y-14150650D02*
X12639229Y-14150650D01*
X12639229Y-14150650D02*
X12658277Y-14160174D01*
X12658277Y-14160174D02*
X12667801Y-14179222D01*
X12667801Y-14179222D02*
X12667801Y-14283984D01*
X12667801Y-14179222D02*
X12677324Y-14160174D01*
X12677324Y-14160174D02*
X12696372Y-14150650D01*
X12696372Y-14150650D02*
X12724943Y-14150650D01*
X12724943Y-14150650D02*
X12743991Y-14160174D01*
X12743991Y-14160174D02*
X12753515Y-14179222D01*
X12753515Y-14179222D02*
X12753515Y-14283984D01*
X13143991Y-14074460D02*
X12972563Y-14331603D01*
X13401134Y-14083984D02*
X13420182Y-14083984D01*
X13420182Y-14083984D02*
X13439229Y-14093508D01*
X13439229Y-14093508D02*
X13448753Y-14103031D01*
X13448753Y-14103031D02*
X13458277Y-14122079D01*
X13458277Y-14122079D02*
X13467801Y-14160174D01*
X13467801Y-14160174D02*
X13467801Y-14207793D01*
X13467801Y-14207793D02*
X13458277Y-14245888D01*
X13458277Y-14245888D02*
X13448753Y-14264936D01*
X13448753Y-14264936D02*
X13439229Y-14274460D01*
X13439229Y-14274460D02*
X13420182Y-14283984D01*
X13420182Y-14283984D02*
X13401134Y-14283984D01*
X13401134Y-14283984D02*
X13382086Y-14274460D01*
X13382086Y-14274460D02*
X13372563Y-14264936D01*
X13372563Y-14264936D02*
X13363039Y-14245888D01*
X13363039Y-14245888D02*
X13353515Y-14207793D01*
X13353515Y-14207793D02*
X13353515Y-14160174D01*
X13353515Y-14160174D02*
X13363039Y-14122079D01*
X13363039Y-14122079D02*
X13372563Y-14103031D01*
X13372563Y-14103031D02*
X13382086Y-14093508D01*
X13382086Y-14093508D02*
X13401134Y-14083984D01*
X13553515Y-14264936D02*
X13563039Y-14274460D01*
X13563039Y-14274460D02*
X13553515Y-14283984D01*
X13553515Y-14283984D02*
X13543991Y-14274460D01*
X13543991Y-14274460D02*
X13553515Y-14264936D01*
X13553515Y-14264936D02*
X13553515Y-14283984D01*
X13686848Y-14083984D02*
X13705896Y-14083984D01*
X13705896Y-14083984D02*
X13724944Y-14093508D01*
X13724944Y-14093508D02*
X13734467Y-14103031D01*
X13734467Y-14103031D02*
X13743991Y-14122079D01*
X13743991Y-14122079D02*
X13753515Y-14160174D01*
X13753515Y-14160174D02*
X13753515Y-14207793D01*
X13753515Y-14207793D02*
X13743991Y-14245888D01*
X13743991Y-14245888D02*
X13734467Y-14264936D01*
X13734467Y-14264936D02*
X13724944Y-14274460D01*
X13724944Y-14274460D02*
X13705896Y-14283984D01*
X13705896Y-14283984D02*
X13686848Y-14283984D01*
X13686848Y-14283984D02*
X13667801Y-14274460D01*
X13667801Y-14274460D02*
X13658277Y-14264936D01*
X13658277Y-14264936D02*
X13648753Y-14245888D01*
X13648753Y-14245888D02*
X13639229Y-14207793D01*
X13639229Y-14207793D02*
X13639229Y-14160174D01*
X13639229Y-14160174D02*
X13648753Y-14122079D01*
X13648753Y-14122079D02*
X13658277Y-14103031D01*
X13658277Y-14103031D02*
X13667801Y-14093508D01*
X13667801Y-14093508D02*
X13686848Y-14083984D01*
X13848753Y-14283984D02*
X13886848Y-14283984D01*
X13886848Y-14283984D02*
X13905896Y-14274460D01*
X13905896Y-14274460D02*
X13915420Y-14264936D01*
X13915420Y-14264936D02*
X13934467Y-14236365D01*
X13934467Y-14236365D02*
X13943991Y-14198269D01*
X13943991Y-14198269D02*
X13943991Y-14122079D01*
X13943991Y-14122079D02*
X13934467Y-14103031D01*
X13934467Y-14103031D02*
X13924944Y-14093508D01*
X13924944Y-14093508D02*
X13905896Y-14083984D01*
X13905896Y-14083984D02*
X13867801Y-14083984D01*
X13867801Y-14083984D02*
X13848753Y-14093508D01*
X13848753Y-14093508D02*
X13839229Y-14103031D01*
X13839229Y-14103031D02*
X13829706Y-14122079D01*
X13829706Y-14122079D02*
X13829706Y-14169698D01*
X13829706Y-14169698D02*
X13839229Y-14188746D01*
X13839229Y-14188746D02*
X13848753Y-14198269D01*
X13848753Y-14198269D02*
X13867801Y-14207793D01*
X13867801Y-14207793D02*
X13905896Y-14207793D01*
X13905896Y-14207793D02*
X13924944Y-14198269D01*
X13924944Y-14198269D02*
X13934467Y-14188746D01*
X13934467Y-14188746D02*
X13943991Y-14169698D01*
X14058277Y-14169698D02*
X14039229Y-14160174D01*
X14039229Y-14160174D02*
X14029706Y-14150650D01*
X14029706Y-14150650D02*
X14020182Y-14131603D01*
X14020182Y-14131603D02*
X14020182Y-14122079D01*
X14020182Y-14122079D02*
X14029706Y-14103031D01*
X14029706Y-14103031D02*
X14039229Y-14093508D01*
X14039229Y-14093508D02*
X14058277Y-14083984D01*
X14058277Y-14083984D02*
X14096372Y-14083984D01*
X14096372Y-14083984D02*
X14115420Y-14093508D01*
X14115420Y-14093508D02*
X14124944Y-14103031D01*
X14124944Y-14103031D02*
X14134467Y-14122079D01*
X14134467Y-14122079D02*
X14134467Y-14131603D01*
X14134467Y-14131603D02*
X14124944Y-14150650D01*
X14124944Y-14150650D02*
X14115420Y-14160174D01*
X14115420Y-14160174D02*
X14096372Y-14169698D01*
X14096372Y-14169698D02*
X14058277Y-14169698D01*
X14058277Y-14169698D02*
X14039229Y-14179222D01*
X14039229Y-14179222D02*
X14029706Y-14188746D01*
X14029706Y-14188746D02*
X14020182Y-14207793D01*
X14020182Y-14207793D02*
X14020182Y-14245888D01*
X14020182Y-14245888D02*
X14029706Y-14264936D01*
X14029706Y-14264936D02*
X14039229Y-14274460D01*
X14039229Y-14274460D02*
X14058277Y-14283984D01*
X14058277Y-14283984D02*
X14096372Y-14283984D01*
X14096372Y-14283984D02*
X14115420Y-14274460D01*
X14115420Y-14274460D02*
X14124944Y-14264936D01*
X14124944Y-14264936D02*
X14134467Y-14245888D01*
X14134467Y-14245888D02*
X14134467Y-14207793D01*
X14134467Y-14207793D02*
X14124944Y-14188746D01*
X14124944Y-14188746D02*
X14115420Y-14179222D01*
X14115420Y-14179222D02*
X14096372Y-14169698D01*
X14305896Y-14150650D02*
X14305896Y-14283984D01*
X14258277Y-14074460D02*
X14210658Y-14217317D01*
X14210658Y-14217317D02*
X14334467Y-14217317D01*
X14401134Y-14083984D02*
X14401134Y-14122079D01*
X14477325Y-14083984D02*
X14477325Y-14122079D01*
X14772563Y-14360174D02*
X14763039Y-14350650D01*
X14763039Y-14350650D02*
X14743991Y-14322079D01*
X14743991Y-14322079D02*
X14734468Y-14303031D01*
X14734468Y-14303031D02*
X14724944Y-14274460D01*
X14724944Y-14274460D02*
X14715420Y-14226841D01*
X14715420Y-14226841D02*
X14715420Y-14188746D01*
X14715420Y-14188746D02*
X14724944Y-14141127D01*
X14724944Y-14141127D02*
X14734468Y-14112555D01*
X14734468Y-14112555D02*
X14743991Y-14093508D01*
X14743991Y-14093508D02*
X14763039Y-14064936D01*
X14763039Y-14064936D02*
X14772563Y-14055412D01*
X14934468Y-14150650D02*
X14934468Y-14283984D01*
X14886848Y-14074460D02*
X14839229Y-14217317D01*
X14839229Y-14217317D02*
X14963039Y-14217317D01*
X15191610Y-14283984D02*
X15191610Y-14083984D01*
X15277325Y-14283984D02*
X15277325Y-14179222D01*
X15277325Y-14179222D02*
X15267801Y-14160174D01*
X15267801Y-14160174D02*
X15248753Y-14150650D01*
X15248753Y-14150650D02*
X15220182Y-14150650D01*
X15220182Y-14150650D02*
X15201134Y-14160174D01*
X15201134Y-14160174D02*
X15191610Y-14169698D01*
X15401134Y-14283984D02*
X15382087Y-14274460D01*
X15382087Y-14274460D02*
X15372563Y-14264936D01*
X15372563Y-14264936D02*
X15363039Y-14245888D01*
X15363039Y-14245888D02*
X15363039Y-14188746D01*
X15363039Y-14188746D02*
X15372563Y-14169698D01*
X15372563Y-14169698D02*
X15382087Y-14160174D01*
X15382087Y-14160174D02*
X15401134Y-14150650D01*
X15401134Y-14150650D02*
X15429706Y-14150650D01*
X15429706Y-14150650D02*
X15448753Y-14160174D01*
X15448753Y-14160174D02*
X15458277Y-14169698D01*
X15458277Y-14169698D02*
X15467801Y-14188746D01*
X15467801Y-14188746D02*
X15467801Y-14245888D01*
X15467801Y-14245888D02*
X15458277Y-14264936D01*
X15458277Y-14264936D02*
X15448753Y-14274460D01*
X15448753Y-14274460D02*
X15429706Y-14283984D01*
X15429706Y-14283984D02*
X15401134Y-14283984D01*
X15582087Y-14283984D02*
X15563039Y-14274460D01*
X15563039Y-14274460D02*
X15553515Y-14255412D01*
X15553515Y-14255412D02*
X15553515Y-14083984D01*
X15734468Y-14274460D02*
X15715420Y-14283984D01*
X15715420Y-14283984D02*
X15677325Y-14283984D01*
X15677325Y-14283984D02*
X15658277Y-14274460D01*
X15658277Y-14274460D02*
X15648753Y-14255412D01*
X15648753Y-14255412D02*
X15648753Y-14179222D01*
X15648753Y-14179222D02*
X15658277Y-14160174D01*
X15658277Y-14160174D02*
X15677325Y-14150650D01*
X15677325Y-14150650D02*
X15715420Y-14150650D01*
X15715420Y-14150650D02*
X15734468Y-14160174D01*
X15734468Y-14160174D02*
X15743991Y-14179222D01*
X15743991Y-14179222D02*
X15743991Y-14198269D01*
X15743991Y-14198269D02*
X15648753Y-14217317D01*
X15820182Y-14274460D02*
X15839230Y-14283984D01*
X15839230Y-14283984D02*
X15877325Y-14283984D01*
X15877325Y-14283984D02*
X15896372Y-14274460D01*
X15896372Y-14274460D02*
X15905896Y-14255412D01*
X15905896Y-14255412D02*
X15905896Y-14245888D01*
X15905896Y-14245888D02*
X15896372Y-14226841D01*
X15896372Y-14226841D02*
X15877325Y-14217317D01*
X15877325Y-14217317D02*
X15848753Y-14217317D01*
X15848753Y-14217317D02*
X15829706Y-14207793D01*
X15829706Y-14207793D02*
X15820182Y-14188746D01*
X15820182Y-14188746D02*
X15820182Y-14179222D01*
X15820182Y-14179222D02*
X15829706Y-14160174D01*
X15829706Y-14160174D02*
X15848753Y-14150650D01*
X15848753Y-14150650D02*
X15877325Y-14150650D01*
X15877325Y-14150650D02*
X15896372Y-14160174D01*
X15972563Y-14360174D02*
X15982087Y-14350650D01*
X15982087Y-14350650D02*
X16001134Y-14322079D01*
X16001134Y-14322079D02*
X16010658Y-14303031D01*
X16010658Y-14303031D02*
X16020182Y-14274460D01*
X16020182Y-14274460D02*
X16029706Y-14226841D01*
X16029706Y-14226841D02*
X16029706Y-14188746D01*
X16029706Y-14188746D02*
X16020182Y-14141127D01*
X16020182Y-14141127D02*
X16010658Y-14112555D01*
X16010658Y-14112555D02*
X16001134Y-14093508D01*
X16001134Y-14093508D02*
X15982087Y-14064936D01*
X15982087Y-14064936D02*
X15972563Y-14055412D01*
X16334468Y-14360174D02*
X16324944Y-14350650D01*
X16324944Y-14350650D02*
X16305896Y-14322079D01*
X16305896Y-14322079D02*
X16296372Y-14303031D01*
X16296372Y-14303031D02*
X16286849Y-14274460D01*
X16286849Y-14274460D02*
X16277325Y-14226841D01*
X16277325Y-14226841D02*
X16277325Y-14188746D01*
X16277325Y-14188746D02*
X16286849Y-14141127D01*
X16286849Y-14141127D02*
X16296372Y-14112555D01*
X16296372Y-14112555D02*
X16305896Y-14093508D01*
X16305896Y-14093508D02*
X16324944Y-14064936D01*
X16324944Y-14064936D02*
X16334468Y-14055412D01*
X16410658Y-14150650D02*
X16410658Y-14283984D01*
X16410658Y-14169698D02*
X16420182Y-14160174D01*
X16420182Y-14160174D02*
X16439230Y-14150650D01*
X16439230Y-14150650D02*
X16467801Y-14150650D01*
X16467801Y-14150650D02*
X16486849Y-14160174D01*
X16486849Y-14160174D02*
X16496372Y-14179222D01*
X16496372Y-14179222D02*
X16496372Y-14283984D01*
X16620182Y-14283984D02*
X16601134Y-14274460D01*
X16601134Y-14274460D02*
X16591611Y-14264936D01*
X16591611Y-14264936D02*
X16582087Y-14245888D01*
X16582087Y-14245888D02*
X16582087Y-14188746D01*
X16582087Y-14188746D02*
X16591611Y-14169698D01*
X16591611Y-14169698D02*
X16601134Y-14160174D01*
X16601134Y-14160174D02*
X16620182Y-14150650D01*
X16620182Y-14150650D02*
X16648753Y-14150650D01*
X16648753Y-14150650D02*
X16667801Y-14160174D01*
X16667801Y-14160174D02*
X16677325Y-14169698D01*
X16677325Y-14169698D02*
X16686849Y-14188746D01*
X16686849Y-14188746D02*
X16686849Y-14245888D01*
X16686849Y-14245888D02*
X16677325Y-14264936D01*
X16677325Y-14264936D02*
X16667801Y-14274460D01*
X16667801Y-14274460D02*
X16648753Y-14283984D01*
X16648753Y-14283984D02*
X16620182Y-14283984D01*
X16743992Y-14150650D02*
X16820182Y-14150650D01*
X16772563Y-14083984D02*
X16772563Y-14255412D01*
X16772563Y-14255412D02*
X16782087Y-14274460D01*
X16782087Y-14274460D02*
X16801134Y-14283984D01*
X16801134Y-14283984D02*
X16820182Y-14283984D01*
X17039230Y-14150650D02*
X17039230Y-14350650D01*
X17039230Y-14160174D02*
X17058277Y-14150650D01*
X17058277Y-14150650D02*
X17096373Y-14150650D01*
X17096373Y-14150650D02*
X17115420Y-14160174D01*
X17115420Y-14160174D02*
X17124944Y-14169698D01*
X17124944Y-14169698D02*
X17134468Y-14188746D01*
X17134468Y-14188746D02*
X17134468Y-14245888D01*
X17134468Y-14245888D02*
X17124944Y-14264936D01*
X17124944Y-14264936D02*
X17115420Y-14274460D01*
X17115420Y-14274460D02*
X17096373Y-14283984D01*
X17096373Y-14283984D02*
X17058277Y-14283984D01*
X17058277Y-14283984D02*
X17039230Y-14274460D01*
X17248754Y-14283984D02*
X17229706Y-14274460D01*
X17229706Y-14274460D02*
X17220182Y-14255412D01*
X17220182Y-14255412D02*
X17220182Y-14083984D01*
X17410658Y-14283984D02*
X17410658Y-14179222D01*
X17410658Y-14179222D02*
X17401135Y-14160174D01*
X17401135Y-14160174D02*
X17382087Y-14150650D01*
X17382087Y-14150650D02*
X17343992Y-14150650D01*
X17343992Y-14150650D02*
X17324944Y-14160174D01*
X17410658Y-14274460D02*
X17391611Y-14283984D01*
X17391611Y-14283984D02*
X17343992Y-14283984D01*
X17343992Y-14283984D02*
X17324944Y-14274460D01*
X17324944Y-14274460D02*
X17315420Y-14255412D01*
X17315420Y-14255412D02*
X17315420Y-14236365D01*
X17315420Y-14236365D02*
X17324944Y-14217317D01*
X17324944Y-14217317D02*
X17343992Y-14207793D01*
X17343992Y-14207793D02*
X17391611Y-14207793D01*
X17391611Y-14207793D02*
X17410658Y-14198269D01*
X17477325Y-14150650D02*
X17553515Y-14150650D01*
X17505896Y-14083984D02*
X17505896Y-14255412D01*
X17505896Y-14255412D02*
X17515420Y-14274460D01*
X17515420Y-14274460D02*
X17534468Y-14283984D01*
X17534468Y-14283984D02*
X17553515Y-14283984D01*
X17696373Y-14274460D02*
X17677325Y-14283984D01*
X17677325Y-14283984D02*
X17639230Y-14283984D01*
X17639230Y-14283984D02*
X17620182Y-14274460D01*
X17620182Y-14274460D02*
X17610658Y-14255412D01*
X17610658Y-14255412D02*
X17610658Y-14179222D01*
X17610658Y-14179222D02*
X17620182Y-14160174D01*
X17620182Y-14160174D02*
X17639230Y-14150650D01*
X17639230Y-14150650D02*
X17677325Y-14150650D01*
X17677325Y-14150650D02*
X17696373Y-14160174D01*
X17696373Y-14160174D02*
X17705896Y-14179222D01*
X17705896Y-14179222D02*
X17705896Y-14198269D01*
X17705896Y-14198269D02*
X17610658Y-14217317D01*
X17877325Y-14283984D02*
X17877325Y-14083984D01*
X17877325Y-14274460D02*
X17858277Y-14283984D01*
X17858277Y-14283984D02*
X17820182Y-14283984D01*
X17820182Y-14283984D02*
X17801135Y-14274460D01*
X17801135Y-14274460D02*
X17791611Y-14264936D01*
X17791611Y-14264936D02*
X17782087Y-14245888D01*
X17782087Y-14245888D02*
X17782087Y-14188746D01*
X17782087Y-14188746D02*
X17791611Y-14169698D01*
X17791611Y-14169698D02*
X17801135Y-14160174D01*
X17801135Y-14160174D02*
X17820182Y-14150650D01*
X17820182Y-14150650D02*
X17858277Y-14150650D01*
X17858277Y-14150650D02*
X17877325Y-14160174D01*
X17953516Y-14360174D02*
X17963039Y-14350650D01*
X17963039Y-14350650D02*
X17982087Y-14322079D01*
X17982087Y-14322079D02*
X17991611Y-14303031D01*
X17991611Y-14303031D02*
X18001135Y-14274460D01*
X18001135Y-14274460D02*
X18010658Y-14226841D01*
X18010658Y-14226841D02*
X18010658Y-14188746D01*
X18010658Y-14188746D02*
X18001135Y-14141127D01*
X18001135Y-14141127D02*
X17991611Y-14112555D01*
X17991611Y-14112555D02*
X17982087Y-14093508D01*
X17982087Y-14093508D02*
X17963039Y-14064936D01*
X17963039Y-14064936D02*
X17953516Y-14055412D01*
M02*
