G04 #@! TF.GenerationSoftware,KiCad,Pcbnew,8.0.8*
G04 #@! TF.CreationDate,2025-02-21T19:24:50+11:00*
G04 #@! TF.ProjectId,RP2350LevelShifter,52503233-3530-44c6-9576-656c53686966,rev?*
G04 #@! TF.SameCoordinates,Original*
G04 #@! TF.FileFunction,Copper,L4,Bot*
G04 #@! TF.FilePolarity,Positive*
%FSLAX46Y46*%
G04 Gerber Fmt 4.6, Leading zero omitted, Abs format (unit mm)*
G04 Created by KiCad (PCBNEW 8.0.8) date 2025-02-21 19:24:50*
%MOMM*%
%LPD*%
G01*
G04 APERTURE LIST*
G04 Aperture macros list*
%AMRoundRect*
0 Rectangle with rounded corners*
0 $1 Rounding radius*
0 $2 $3 $4 $5 $6 $7 $8 $9 X,Y pos of 4 corners*
0 Add a 4 corners polygon primitive as box body*
4,1,4,$2,$3,$4,$5,$6,$7,$8,$9,$2,$3,0*
0 Add four circle primitives for the rounded corners*
1,1,$1+$1,$2,$3*
1,1,$1+$1,$4,$5*
1,1,$1+$1,$6,$7*
1,1,$1+$1,$8,$9*
0 Add four rect primitives between the rounded corners*
20,1,$1+$1,$2,$3,$4,$5,0*
20,1,$1+$1,$4,$5,$6,$7,0*
20,1,$1+$1,$6,$7,$8,$9,0*
20,1,$1+$1,$8,$9,$2,$3,0*%
G04 Aperture macros list end*
G04 #@! TA.AperFunction,ComponentPad*
%ADD10R,1.700000X1.700000*%
G04 #@! TD*
G04 #@! TA.AperFunction,ComponentPad*
%ADD11O,1.700000X1.700000*%
G04 #@! TD*
G04 #@! TA.AperFunction,ComponentPad*
%ADD12R,1.600000X1.600000*%
G04 #@! TD*
G04 #@! TA.AperFunction,ComponentPad*
%ADD13C,1.600000*%
G04 #@! TD*
G04 #@! TA.AperFunction,ComponentPad*
%ADD14O,1.350000X1.700000*%
G04 #@! TD*
G04 #@! TA.AperFunction,ComponentPad*
%ADD15O,1.100000X1.500000*%
G04 #@! TD*
G04 #@! TA.AperFunction,HeatsinkPad*
%ADD16C,0.700000*%
G04 #@! TD*
G04 #@! TA.AperFunction,SMDPad,CuDef*
%ADD17R,1.475000X0.450000*%
G04 #@! TD*
G04 #@! TA.AperFunction,SMDPad,CuDef*
%ADD18RoundRect,0.225000X-0.225000X-0.250000X0.225000X-0.250000X0.225000X0.250000X-0.225000X0.250000X0*%
G04 #@! TD*
G04 #@! TA.AperFunction,SMDPad,CuDef*
%ADD19RoundRect,0.200000X-0.275000X0.200000X-0.275000X-0.200000X0.275000X-0.200000X0.275000X0.200000X0*%
G04 #@! TD*
G04 #@! TA.AperFunction,SMDPad,CuDef*
%ADD20RoundRect,0.225000X0.225000X0.250000X-0.225000X0.250000X-0.225000X-0.250000X0.225000X-0.250000X0*%
G04 #@! TD*
G04 #@! TA.AperFunction,SMDPad,CuDef*
%ADD21RoundRect,0.225000X-0.250000X0.225000X-0.250000X-0.225000X0.250000X-0.225000X0.250000X0.225000X0*%
G04 #@! TD*
G04 #@! TA.AperFunction,SMDPad,CuDef*
%ADD22RoundRect,0.200000X0.200000X0.275000X-0.200000X0.275000X-0.200000X-0.275000X0.200000X-0.275000X0*%
G04 #@! TD*
G04 #@! TA.AperFunction,SMDPad,CuDef*
%ADD23RoundRect,0.225000X0.250000X-0.225000X0.250000X0.225000X-0.250000X0.225000X-0.250000X-0.225000X0*%
G04 #@! TD*
G04 #@! TA.AperFunction,SMDPad,CuDef*
%ADD24RoundRect,0.250000X0.250000X0.475000X-0.250000X0.475000X-0.250000X-0.475000X0.250000X-0.475000X0*%
G04 #@! TD*
G04 #@! TA.AperFunction,ViaPad*
%ADD25C,0.700000*%
G04 #@! TD*
G04 #@! TA.AperFunction,Conductor*
%ADD26C,0.200000*%
G04 #@! TD*
G04 #@! TA.AperFunction,Conductor*
%ADD27C,0.500000*%
G04 #@! TD*
G04 #@! TA.AperFunction,Conductor*
%ADD28C,0.300000*%
G04 #@! TD*
G04 APERTURE END LIST*
D10*
X118490000Y-129550000D03*
D11*
X115950000Y-129550000D03*
X118490000Y-127010000D03*
X115950000Y-127010000D03*
X118490000Y-124470000D03*
X115950000Y-124470000D03*
X118490000Y-121930000D03*
X115950000Y-121930000D03*
X118490000Y-119390000D03*
X115950000Y-119390000D03*
X118490000Y-116850000D03*
X115950000Y-116850000D03*
X118490000Y-114310000D03*
X115950000Y-114310000D03*
X118490000Y-111770000D03*
X115950000Y-111770000D03*
X118490000Y-109230000D03*
X115950000Y-109230000D03*
X118490000Y-106690000D03*
X115950000Y-106690000D03*
X118490000Y-104150000D03*
X115950000Y-104150000D03*
X118490000Y-101610000D03*
X115950000Y-101610000D03*
X118490000Y-99070000D03*
X115950000Y-99070000D03*
X118490000Y-96530000D03*
X115950000Y-96530000D03*
X118490000Y-93990000D03*
X115950000Y-93990000D03*
X118490000Y-91450000D03*
X115950000Y-91450000D03*
D12*
X130641700Y-127010000D03*
D13*
X130641700Y-124510000D03*
D10*
X160197800Y-93395800D03*
D11*
X160197800Y-95935800D03*
X160197800Y-98475800D03*
X160197800Y-101015800D03*
X160197800Y-103555800D03*
X160197800Y-106095800D03*
D14*
X141693000Y-87327800D03*
D15*
X141383000Y-90327800D03*
X136543000Y-90327800D03*
D14*
X136233000Y-87327800D03*
D10*
X148590000Y-126410000D03*
D11*
X151130000Y-126410000D03*
X153670000Y-126410000D03*
D10*
X128874600Y-87655400D03*
D11*
X131414600Y-87655400D03*
D10*
X148590000Y-89611200D03*
D11*
X151130000Y-89611200D03*
X153670000Y-89611200D03*
D16*
X150200000Y-106062500D03*
X150200000Y-105062500D03*
X150200000Y-104062500D03*
X149200000Y-106062500D03*
X149200000Y-105062500D03*
X149200000Y-104062500D03*
X148200000Y-106062500D03*
X148200000Y-105062500D03*
X148200000Y-104062500D03*
D17*
X126062000Y-97250000D03*
X126062000Y-96600000D03*
X126062000Y-95950000D03*
X126062000Y-95300000D03*
X126062000Y-94650000D03*
X126062000Y-94000000D03*
X126062000Y-93350000D03*
X131938000Y-93350000D03*
X131938000Y-94000000D03*
X131938000Y-94650000D03*
X131938000Y-95300000D03*
X131938000Y-95950000D03*
X131938000Y-96600000D03*
X131938000Y-97250000D03*
D18*
X145250000Y-107450000D03*
X146800000Y-107450000D03*
D19*
X157683200Y-95911400D03*
X157683200Y-97561400D03*
D17*
X126062000Y-107350000D03*
X126062000Y-106700000D03*
X126062000Y-106050000D03*
X126062000Y-105400000D03*
X126062000Y-104750000D03*
X126062000Y-104100000D03*
X126062000Y-103450000D03*
X131938000Y-103450000D03*
X131938000Y-104100000D03*
X131938000Y-104750000D03*
X131938000Y-105400000D03*
X131938000Y-106050000D03*
X131938000Y-106700000D03*
X131938000Y-107350000D03*
D20*
X127775000Y-119500000D03*
X126225000Y-119500000D03*
X127775000Y-99300000D03*
X126225000Y-99300000D03*
X131775000Y-99300000D03*
X130225000Y-99300000D03*
D21*
X155829000Y-103136400D03*
X155829000Y-104686400D03*
D22*
X138887200Y-93370400D03*
X137237200Y-93370400D03*
D20*
X127775000Y-109400000D03*
X126225000Y-109400000D03*
D17*
X126062000Y-117450000D03*
X126062000Y-116800000D03*
X126062000Y-116150000D03*
X126062000Y-115500000D03*
X126062000Y-114850000D03*
X126062000Y-114200000D03*
X126062000Y-113550000D03*
X131938000Y-113550000D03*
X131938000Y-114200000D03*
X131938000Y-114850000D03*
X131938000Y-115500000D03*
X131938000Y-116150000D03*
X131938000Y-116800000D03*
X131938000Y-117450000D03*
D23*
X146800000Y-105950000D03*
X146800000Y-104400000D03*
D18*
X144208200Y-92710000D03*
X145758200Y-92710000D03*
D21*
X145200000Y-104400000D03*
X145200000Y-105950000D03*
D24*
X155803600Y-98602800D03*
X153903600Y-98602800D03*
D20*
X151225000Y-107450000D03*
X149675000Y-107450000D03*
X131775000Y-109400000D03*
X130225000Y-109400000D03*
X131775000Y-119500000D03*
X130225000Y-119500000D03*
D10*
X140770000Y-119380000D03*
D11*
X143310000Y-119380000D03*
X145850000Y-119380000D03*
D25*
X138988800Y-88823800D03*
X134162800Y-89992200D03*
X148753825Y-107499852D03*
X156057600Y-111607600D03*
X146850000Y-103550000D03*
X152298400Y-121412000D03*
X153436203Y-100558405D03*
X142951200Y-97876600D03*
X160147000Y-118821200D03*
X137668000Y-91821000D03*
X148640800Y-121005600D03*
X159994600Y-113588800D03*
X127787400Y-100355400D03*
X138715100Y-124550400D03*
X127787400Y-110464600D03*
X154432000Y-115214400D03*
X124650000Y-113550000D03*
X124650000Y-117450000D03*
X143950000Y-113050000D03*
X128950000Y-119500000D03*
X127787400Y-92379800D03*
X153100000Y-114600000D03*
X124650000Y-107350000D03*
X135590900Y-127446000D03*
X130200400Y-92379800D03*
X154559000Y-111963200D03*
X143764000Y-96530400D03*
X124650000Y-97250000D03*
X130225000Y-100355400D03*
X124650000Y-103450000D03*
X156591000Y-100050600D03*
X130200400Y-110439200D03*
X124650000Y-93325000D03*
X141991900Y-128842800D03*
X143747762Y-106415416D03*
X156921200Y-117398800D03*
X133185200Y-91300000D03*
X140620300Y-128842800D03*
X147066000Y-92696000D03*
X154687329Y-104930696D03*
X133185200Y-119500000D03*
X144653000Y-100924600D03*
X155600400Y-109651800D03*
X147854496Y-107534643D03*
X133000000Y-100350000D03*
X154965400Y-99847400D03*
X138226800Y-94615000D03*
X132950000Y-110450000D03*
X149929549Y-110033438D03*
X149029074Y-110014674D03*
X139966700Y-92824300D03*
X145268750Y-110200000D03*
X151758888Y-111300000D03*
X152467612Y-110744864D03*
X146387990Y-110287500D03*
X154580414Y-103630696D03*
X153978524Y-102245048D03*
X154638569Y-107237330D03*
X154728271Y-102742922D03*
X155899799Y-108498664D03*
X153250000Y-110125000D03*
X153175000Y-108437500D03*
X155354587Y-107782600D03*
X126212600Y-110464600D03*
X126238000Y-100330000D03*
X141986000Y-97876600D03*
D26*
X145389600Y-115468400D02*
X142138400Y-115468400D01*
X149029074Y-111828926D02*
X145389600Y-115468400D01*
X149029074Y-110014674D02*
X149029074Y-111828926D01*
X142138400Y-115468400D02*
X140770000Y-116836800D01*
X140770000Y-116836800D02*
X140770000Y-119380000D01*
X145850000Y-116862200D02*
X145850000Y-119380000D01*
X149929549Y-112782651D02*
X145850000Y-116862200D01*
X149929549Y-110033438D02*
X149929549Y-112782651D01*
D27*
X118490000Y-127010000D02*
X115950000Y-127010000D01*
X134162800Y-89992200D02*
X135331200Y-88823800D01*
X135331200Y-88823800D02*
X138988800Y-88823800D01*
X146800000Y-103600000D02*
X146850000Y-103550000D01*
D28*
X151180800Y-108585000D02*
X151866600Y-109270800D01*
D27*
X148803677Y-107450000D02*
X148753825Y-107499852D01*
D26*
X150698304Y-108147000D02*
X151136304Y-108585000D01*
D27*
X156057600Y-111556800D02*
X153771600Y-109270800D01*
X146800000Y-104400000D02*
X146800000Y-103600000D01*
D26*
X150133200Y-108147000D02*
X150698304Y-108147000D01*
D28*
X151866600Y-109270800D02*
X152171400Y-109270800D01*
D27*
X156057600Y-111607600D02*
X156057600Y-111556800D01*
X153771600Y-109270800D02*
X152171400Y-109270800D01*
X148753825Y-107499852D02*
X149625148Y-107499852D01*
D26*
X149675000Y-107688800D02*
X150133200Y-108147000D01*
X151136304Y-108585000D02*
X151180800Y-108585000D01*
D28*
X121869200Y-125730000D02*
X117210000Y-125730000D01*
X151104600Y-122605800D02*
X124993400Y-122605800D01*
X117210000Y-125730000D02*
X115950000Y-124470000D01*
X124993400Y-122605800D02*
X121869200Y-125730000D01*
X152298400Y-121412000D02*
X151104600Y-122605800D01*
D26*
X121413800Y-115330000D02*
X121413800Y-115882249D01*
X121653800Y-116122249D02*
X121773800Y-116122249D01*
X117144800Y-115570000D02*
X120573800Y-115570000D01*
X121053800Y-115017755D02*
X121173800Y-115017755D01*
X122013800Y-115882249D02*
X122013800Y-115810000D01*
X122253800Y-115570000D02*
X123367800Y-115570000D01*
X120813800Y-115330000D02*
X120813800Y-115257755D01*
X123946721Y-116148921D02*
X126062000Y-116148921D01*
X123367800Y-115570000D02*
X123946721Y-116148921D01*
X121413800Y-115257755D02*
X121413800Y-115330000D01*
X115950000Y-116764800D02*
X117144800Y-115570000D01*
X120813800Y-115257755D02*
G75*
G02*
X121053800Y-115017800I240000J-45D01*
G01*
X120573800Y-115570000D02*
G75*
G03*
X120813800Y-115330000I0J240000D01*
G01*
X121413800Y-115882249D02*
G75*
G03*
X121653800Y-116122300I240000J-51D01*
G01*
X121173800Y-115017755D02*
G75*
G02*
X121413845Y-115257755I0J-240045D01*
G01*
X122013800Y-115810000D02*
G75*
G02*
X122253800Y-115570000I240000J0D01*
G01*
X121773800Y-116122249D02*
G75*
G03*
X122013749Y-115882249I0J239949D01*
G01*
X116941600Y-95250000D02*
X120015000Y-95250000D01*
X120855000Y-94554723D02*
X120855000Y-95010000D01*
X120255000Y-95010000D02*
X120255000Y-94554723D01*
X122032797Y-95261197D02*
X122721600Y-95950000D01*
X121095000Y-95250000D02*
X122021600Y-95250000D01*
X115950000Y-96241600D02*
X116941600Y-95250000D01*
X122721600Y-95950000D02*
X126062000Y-95950000D01*
X120495000Y-94314723D02*
X120615000Y-94314723D01*
X122021600Y-95250000D02*
X122032797Y-95261197D01*
X120855000Y-95010000D02*
G75*
G03*
X121095000Y-95250000I240000J0D01*
G01*
X120615000Y-94314723D02*
G75*
G02*
X120854977Y-94554723I0J-239977D01*
G01*
X120015000Y-95250000D02*
G75*
G03*
X120255000Y-95010000I0J240000D01*
G01*
X120255000Y-94554723D02*
G75*
G02*
X120495000Y-94314700I240000J23D01*
G01*
X120343400Y-106062952D02*
X120343400Y-105624600D01*
X122656600Y-105384600D02*
X121183400Y-105384600D01*
X126062000Y-106050000D02*
X123322000Y-106050000D01*
X123322000Y-106050000D02*
X122656600Y-105384600D01*
X116890800Y-105384600D02*
X120103400Y-105384600D01*
X120943400Y-105624600D02*
X120943400Y-106062952D01*
X116890800Y-105384600D02*
X115950000Y-106325400D01*
X120703400Y-106302952D02*
X120583400Y-106302952D01*
X120583400Y-106302952D02*
G75*
G02*
X120343448Y-106062952I0J239952D01*
G01*
X120943400Y-106062952D02*
G75*
G02*
X120703400Y-106303000I-240000J-48D01*
G01*
X121183400Y-105384600D02*
G75*
G03*
X120943400Y-105624600I0J-240000D01*
G01*
X120343400Y-105624600D02*
G75*
G03*
X120103400Y-105384600I-240000J0D01*
G01*
X120548400Y-110490000D02*
X124907321Y-114848921D01*
X117068600Y-110490000D02*
X120548400Y-110490000D01*
X115950000Y-111608600D02*
X117068600Y-110490000D01*
X124907321Y-114848921D02*
X126062000Y-114848921D01*
X121058200Y-117580816D02*
X121058200Y-117946200D01*
X124348679Y-116798921D02*
X126062000Y-116798921D01*
X121298200Y-118186200D02*
X122961400Y-118186200D01*
X117043200Y-118186200D02*
X120218200Y-118186200D01*
X120698200Y-117340816D02*
X120818200Y-117340816D01*
X115950000Y-119279400D02*
X117043200Y-118186200D01*
X122961400Y-118186200D02*
X124348679Y-116798921D01*
X120458200Y-117946200D02*
X120458200Y-117580816D01*
X120818200Y-117340816D02*
G75*
G02*
X121058184Y-117580816I0J-239984D01*
G01*
X120218200Y-118186200D02*
G75*
G03*
X120458200Y-117946200I0J240000D01*
G01*
X120458200Y-117580816D02*
G75*
G02*
X120698200Y-117340800I240000J16D01*
G01*
X121058200Y-117946200D02*
G75*
G03*
X121298200Y-118186200I240000J0D01*
G01*
X120150485Y-102283249D02*
X120270485Y-102283249D01*
X119910485Y-102655400D02*
X119910485Y-102523249D01*
X115950000Y-104090200D02*
X117144800Y-102895400D01*
X120510485Y-102523249D02*
X120510485Y-102655400D01*
X117144800Y-102895400D02*
X119670485Y-102895400D01*
X120750485Y-102895400D02*
X121564400Y-102895400D01*
X121564400Y-102895400D02*
X124069000Y-105400000D01*
X124069000Y-105400000D02*
X126062000Y-105400000D01*
X120270485Y-102283249D02*
G75*
G02*
X120510451Y-102523249I15J-239951D01*
G01*
X120510485Y-102655400D02*
G75*
G03*
X120750485Y-102895415I240015J0D01*
G01*
X119670485Y-102895400D02*
G75*
G03*
X119910500Y-102655400I15J240000D01*
G01*
X119910485Y-102523249D02*
G75*
G02*
X120150485Y-102283185I240015J49D01*
G01*
X119888000Y-90220800D02*
X117043200Y-90220800D01*
X126062000Y-94650000D02*
X124317200Y-94650000D01*
X117043200Y-90220800D02*
X115950000Y-91314000D01*
X124317200Y-94650000D02*
X119888000Y-90220800D01*
X117179200Y-97840800D02*
X115950000Y-99070000D01*
X121383000Y-98808242D02*
X121217000Y-98808242D01*
X126062000Y-96600000D02*
X124024400Y-96600000D01*
X120885000Y-98476242D02*
X120885000Y-98172800D01*
X124024400Y-96600000D02*
X122783600Y-97840800D01*
X121715000Y-98172800D02*
X121715000Y-98476242D01*
X122783600Y-97840800D02*
X122047000Y-97840800D01*
X117179200Y-97840800D02*
X120553000Y-97840800D01*
X122047000Y-97840800D02*
G75*
G03*
X121715000Y-98172800I0J-332000D01*
G01*
X121217000Y-98808242D02*
G75*
G02*
X120884958Y-98476242I0J332042D01*
G01*
X120885000Y-98172800D02*
G75*
G03*
X120553000Y-97840800I-332000J0D01*
G01*
X121715000Y-98476242D02*
G75*
G02*
X121383000Y-98808200I-332000J42D01*
G01*
X120753400Y-112685451D02*
X120753400Y-112840800D01*
X115950000Y-114250200D02*
X117119400Y-113080800D01*
X121930800Y-113080800D02*
X124348921Y-115498921D01*
X117119400Y-113080800D02*
X119913400Y-113080800D01*
X124348921Y-115498921D02*
X126062000Y-115498921D01*
X120153400Y-112840800D02*
X120153400Y-112685451D01*
X120993400Y-113080800D02*
X121930800Y-113080800D01*
X120393400Y-112445451D02*
X120513400Y-112445451D01*
X120753400Y-112840800D02*
G75*
G03*
X120993400Y-113080800I240000J0D01*
G01*
X119913400Y-113080800D02*
G75*
G03*
X120153400Y-112840800I0J240000D01*
G01*
X120513400Y-112445451D02*
G75*
G02*
X120753349Y-112685451I0J-239949D01*
G01*
X120153400Y-112685451D02*
G75*
G02*
X120393400Y-112445400I240000J51D01*
G01*
X121687912Y-93459301D02*
X121743668Y-93403542D01*
X122112174Y-94222975D02*
X123189200Y-95300000D01*
X122167932Y-93827807D02*
X122112173Y-93883563D01*
X116865400Y-92760800D02*
X120650000Y-92760800D01*
X120650000Y-92760800D02*
X121348500Y-93459300D01*
X123189200Y-95300000D02*
X126062000Y-95300000D01*
X122083080Y-93403543D02*
X122167932Y-93488395D01*
X115950000Y-93676200D02*
X116865400Y-92760800D01*
X121348500Y-93459300D02*
G75*
G03*
X121687905Y-93459295I169700J169700D01*
G01*
X122112173Y-93883563D02*
G75*
G03*
X122112142Y-94223006I169727J-169737D01*
G01*
X121743668Y-93403542D02*
G75*
G02*
X122083106Y-93403516I169732J-169758D01*
G01*
X122167932Y-93488395D02*
G75*
G02*
X122167931Y-93827806I-169732J-169705D01*
G01*
X124739800Y-104750000D02*
X126062000Y-104750000D01*
X120319800Y-100330000D02*
X124739800Y-104750000D01*
X117119400Y-100330000D02*
X120319800Y-100330000D01*
X115950000Y-101499400D02*
X117119400Y-100330000D01*
X117043200Y-107950000D02*
X121056400Y-107950000D01*
X121896400Y-107346520D02*
X121896400Y-107710000D01*
X122136400Y-107950000D02*
X122885200Y-107950000D01*
X115950000Y-109043200D02*
X117043200Y-107950000D01*
X121536400Y-107106520D02*
X121656400Y-107106520D01*
X122885200Y-107950000D02*
X124135200Y-106700000D01*
X121296400Y-107710000D02*
X121296400Y-107346520D01*
X124135200Y-106700000D02*
X126062000Y-106700000D01*
X121056400Y-107950000D02*
G75*
G03*
X121296400Y-107710000I0J240000D01*
G01*
X121296400Y-107346520D02*
G75*
G02*
X121536400Y-107106500I240000J20D01*
G01*
X121896400Y-107710000D02*
G75*
G03*
X122136400Y-107950000I240000J0D01*
G01*
X121656400Y-107106520D02*
G75*
G02*
X121896380Y-107346520I0J-239980D01*
G01*
D27*
X153436203Y-100558405D02*
X153898600Y-100096008D01*
X153898600Y-100096008D02*
X153898600Y-98607800D01*
D26*
X157073600Y-97561400D02*
X157683200Y-97561400D01*
D27*
X158292800Y-97561400D02*
X159207200Y-98475800D01*
D28*
X148590000Y-90576400D02*
X152679400Y-94665800D01*
X160756600Y-94665800D02*
X161467800Y-95377000D01*
D26*
X153009600Y-96697800D02*
X156210000Y-96697800D01*
D28*
X152679400Y-94665800D02*
X160756600Y-94665800D01*
X148590000Y-89611200D02*
X148590000Y-90576400D01*
D27*
X157683200Y-97561400D02*
X158292800Y-97561400D01*
D28*
X161467800Y-97459800D02*
X160451800Y-98475800D01*
D27*
X159207200Y-98475800D02*
X160197800Y-98475800D01*
D26*
X151830800Y-97876600D02*
X153009600Y-96697800D01*
X156210000Y-96697800D02*
X157073600Y-97561400D01*
D28*
X161467800Y-95377000D02*
X161467800Y-97459800D01*
D26*
X142951200Y-97876600D02*
X151830800Y-97876600D01*
D27*
X127775000Y-100343000D02*
X127775000Y-99300000D01*
X130225000Y-119500000D02*
X128950000Y-119500000D01*
X146750000Y-105950000D02*
X145200000Y-104400000D01*
D28*
X126062000Y-103450000D02*
X124650000Y-103450000D01*
D27*
X142804200Y-90327800D02*
X141383000Y-90327800D01*
X156591000Y-100050600D02*
X156591000Y-99009200D01*
X144208200Y-91731800D02*
X142804200Y-90327800D01*
X156184600Y-98602800D02*
X155803600Y-98602800D01*
X148087500Y-105950000D02*
X148200000Y-106062500D01*
D28*
X126062000Y-93350000D02*
X124675000Y-93350000D01*
D27*
X151225000Y-107087500D02*
X150200000Y-106062500D01*
X127775000Y-119500000D02*
X128950000Y-119500000D01*
X155829000Y-100812600D02*
X156591000Y-100050600D01*
X130225000Y-100355400D02*
X130225000Y-99300000D01*
X130200400Y-110439200D02*
X130225000Y-110414600D01*
X130225000Y-110414600D02*
X130225000Y-109400000D01*
X127787400Y-110464600D02*
X127775000Y-110452200D01*
X145300000Y-107450000D02*
X146800000Y-105950000D01*
X151225000Y-107450000D02*
X151225000Y-107087500D01*
X146800000Y-105950000D02*
X148087500Y-105950000D01*
D28*
X126062000Y-113550000D02*
X124650000Y-113550000D01*
D27*
X127775000Y-110452200D02*
X127775000Y-109400000D01*
X156591000Y-99009200D02*
X156184600Y-98602800D01*
X127787400Y-100355400D02*
X127775000Y-100343000D01*
X144208200Y-92710000D02*
X144208200Y-91731800D01*
X155829000Y-103136400D02*
X155829000Y-100812600D01*
D28*
X124675000Y-93350000D02*
X124650000Y-93325000D01*
D27*
X147769853Y-107450000D02*
X146800000Y-107450000D01*
X133000000Y-99850000D02*
X133000000Y-100350000D01*
X147052000Y-92710000D02*
X145719800Y-92710000D01*
X131775000Y-117638000D02*
X131938000Y-117475000D01*
X145200000Y-105950000D02*
X144213178Y-105950000D01*
X131775000Y-107538000D02*
X131938000Y-107375000D01*
X131775000Y-109400000D02*
X132550000Y-109400000D01*
D28*
X130350000Y-116899500D02*
X130900500Y-117450000D01*
X130400000Y-106824500D02*
X130925500Y-107350000D01*
D27*
X131775000Y-119500000D02*
X131775000Y-117638000D01*
X131775000Y-99300000D02*
X132450000Y-99300000D01*
X144213178Y-105950000D02*
X143747762Y-106415416D01*
D28*
X130350000Y-114100500D02*
X130350000Y-116899500D01*
X130700000Y-97250000D02*
X130400000Y-96950000D01*
D27*
X147854496Y-107534643D02*
X147769853Y-107450000D01*
D28*
X130900500Y-113550000D02*
X130350000Y-114100500D01*
D27*
X147066000Y-92696000D02*
X147052000Y-92710000D01*
X131775000Y-99300000D02*
X131775000Y-97413000D01*
D28*
X130900500Y-117450000D02*
X131938000Y-117450000D01*
X131938000Y-113550000D02*
X130900500Y-113550000D01*
D27*
X131775000Y-109400000D02*
X131775000Y-107538000D01*
D28*
X130925500Y-107350000D02*
X131938000Y-107350000D01*
D27*
X131913000Y-97275000D02*
X131938000Y-97275000D01*
X131775000Y-97413000D02*
X131913000Y-97275000D01*
X132550000Y-109400000D02*
X132950000Y-109800000D01*
D28*
X131938000Y-103450000D02*
X130900500Y-103450000D01*
D27*
X132950000Y-109800000D02*
X132950000Y-110450000D01*
D28*
X130700000Y-93350000D02*
X131938000Y-93350000D01*
D27*
X155829000Y-104686400D02*
X154931625Y-104686400D01*
X132450000Y-99300000D02*
X133000000Y-99850000D01*
D28*
X130400000Y-103950500D02*
X130400000Y-106824500D01*
D27*
X154931625Y-104686400D02*
X154687329Y-104930696D01*
D28*
X130400000Y-93650000D02*
X130700000Y-93350000D01*
X130900500Y-103450000D02*
X130400000Y-103950500D01*
X130400000Y-96950000D02*
X130400000Y-93650000D01*
X131938000Y-97250000D02*
X130700000Y-97250000D01*
D27*
X133185200Y-119500000D02*
X131775000Y-119500000D01*
D28*
X132969000Y-90068400D02*
X136271000Y-93370400D01*
X128874600Y-87655400D02*
X128874600Y-88920400D01*
X128874600Y-88920400D02*
X130022600Y-90068400D01*
X136271000Y-93370400D02*
X137237200Y-93370400D01*
X130022600Y-90068400D02*
X132969000Y-90068400D01*
D27*
X138887200Y-93370400D02*
X139420600Y-93370400D01*
X139420600Y-93370400D02*
X139966700Y-92824300D01*
D26*
X143728325Y-111271375D02*
X144060250Y-111603300D01*
X139617196Y-115094004D02*
X139486734Y-114963542D01*
X142257125Y-113406427D02*
X141780951Y-112930253D01*
X140453984Y-115498040D02*
X140381857Y-115570168D01*
X140605103Y-113918156D02*
X140699072Y-114012125D01*
X142832008Y-111357270D02*
X142732344Y-111456933D01*
X140093359Y-115570167D02*
X139617198Y-115094006D01*
X140699072Y-114012125D02*
X140699073Y-114012127D01*
X140777790Y-113557532D02*
X140605103Y-113730218D01*
X139256572Y-115454628D02*
X139732718Y-115930774D01*
X143223449Y-111487751D02*
X143092968Y-111357270D01*
X144511200Y-110200000D02*
X143728325Y-110982875D01*
X140699073Y-114012127D02*
X141175246Y-114488300D01*
X142141575Y-112569625D02*
X142617750Y-113045800D01*
X141420323Y-113290874D02*
X141420324Y-113290876D01*
X139372093Y-116291401D02*
X139040197Y-115959505D01*
X139617198Y-115094006D02*
X139617196Y-115094004D01*
X137911200Y-116800000D02*
X138679571Y-116031630D01*
X140814621Y-114848927D02*
X140338449Y-114372755D01*
X138751697Y-115959506D02*
X138679571Y-116031630D01*
X137911200Y-116800000D02*
X131938000Y-116800000D01*
X142978346Y-112685148D02*
X142502201Y-112209003D01*
X141059698Y-113651502D02*
X140965728Y-113557532D01*
X141780949Y-112930251D02*
X141669320Y-112818622D01*
X141780951Y-112930253D02*
X141780949Y-112930251D01*
X143223450Y-111487753D02*
X143699624Y-111963927D01*
X139225812Y-114963542D02*
X139126109Y-115063244D01*
X142617750Y-113334300D02*
X142545623Y-113406428D01*
X141896486Y-114055538D02*
X141824359Y-114127666D01*
X142732344Y-111717894D02*
X142862824Y-111848374D01*
X145268750Y-110200000D02*
X144511200Y-110200000D01*
X139732718Y-116219274D02*
X139660591Y-116291402D01*
X142011112Y-112439163D02*
X142141573Y-112569624D01*
X139977822Y-114733378D02*
X140453984Y-115209540D01*
X142141573Y-112569624D02*
X142141575Y-112569625D01*
X139256570Y-115454627D02*
X139256572Y-115454628D01*
X144060249Y-111891800D02*
X143988124Y-111963926D01*
X142502201Y-112209003D02*
X142502199Y-112209001D01*
X141175246Y-114776800D02*
X141103119Y-114848928D01*
X142502199Y-112209001D02*
X142371737Y-112078539D01*
X141446064Y-112818622D02*
X141308695Y-112955990D01*
X139977822Y-114733376D02*
X139977822Y-114733378D01*
X142862825Y-111848375D02*
X143338971Y-112324521D01*
X142110815Y-112078539D02*
X142011112Y-112178241D01*
X143338971Y-112613021D02*
X143266844Y-112685149D01*
X140338449Y-114372755D02*
X140338447Y-114372753D01*
X139901529Y-114657083D02*
X139977822Y-114733376D01*
X141308695Y-113179246D02*
X141420323Y-113290874D01*
X141059700Y-113651504D02*
X141059698Y-113651502D01*
X139126109Y-115324166D02*
X139256570Y-115454627D01*
X142862824Y-111848374D02*
X142862825Y-111848375D01*
X141420324Y-113290876D02*
X141896486Y-113767038D01*
X143223450Y-111487753D02*
X143223449Y-111487751D01*
X140109567Y-114296459D02*
X139901529Y-114504496D01*
X141535861Y-114127665D02*
X141059700Y-113651504D01*
X140338447Y-114372753D02*
X140262153Y-114296459D01*
X141669320Y-112818622D02*
G75*
G03*
X141446064Y-112818622I-111628J-111627D01*
G01*
X142732344Y-111456933D02*
G75*
G03*
X142732357Y-111717880I130456J-130467D01*
G01*
X143728325Y-110982875D02*
G75*
G03*
X143728350Y-111271350I144275J-144225D01*
G01*
X143988124Y-111963926D02*
G75*
G02*
X143699651Y-111963901I-144224J144226D01*
G01*
X139660591Y-116291402D02*
G75*
G02*
X139372050Y-116291444I-144291J144202D01*
G01*
X139901529Y-114504496D02*
G75*
G03*
X139901518Y-114657094I76271J-76304D01*
G01*
X143338971Y-112324521D02*
G75*
G02*
X143339000Y-112613050I-144271J-144279D01*
G01*
X142371737Y-112078539D02*
G75*
G03*
X142110815Y-112078539I-130461J-130460D01*
G01*
X141103119Y-114848928D02*
G75*
G02*
X140814651Y-114848898I-144219J144228D01*
G01*
X140262153Y-114296459D02*
G75*
G03*
X140109567Y-114296459I-76293J-76292D01*
G01*
X139732718Y-115930774D02*
G75*
G02*
X139732694Y-116219250I-144218J-144226D01*
G01*
X143266844Y-112685149D02*
G75*
G02*
X142978351Y-112685144I-144244J144249D01*
G01*
X140381857Y-115570168D02*
G75*
G02*
X140093351Y-115570176I-144257J144268D01*
G01*
X139040197Y-115959505D02*
G75*
G03*
X138751650Y-115959458I-144297J-144295D01*
G01*
X140453984Y-115209540D02*
G75*
G02*
X140453994Y-115498050I-144284J-144260D01*
G01*
X141175246Y-114488300D02*
G75*
G02*
X141175296Y-114776850I-144246J-144300D01*
G01*
X139126109Y-115063244D02*
G75*
G03*
X139126114Y-115324161I130491J-130456D01*
G01*
X142011112Y-112178241D02*
G75*
G03*
X142011114Y-112439161I130488J-130459D01*
G01*
X141308695Y-112955990D02*
G75*
G03*
X141308713Y-113179228I111605J-111610D01*
G01*
X140965728Y-113557532D02*
G75*
G03*
X140777790Y-113557532I-93969J-93970D01*
G01*
X143092968Y-111357270D02*
G75*
G03*
X142832008Y-111357270I-130480J-130479D01*
G01*
X139486734Y-114963542D02*
G75*
G03*
X139225812Y-114963542I-130461J-130460D01*
G01*
X141896486Y-113767038D02*
G75*
G02*
X141896498Y-114055550I-144286J-144262D01*
G01*
X142545623Y-113406428D02*
G75*
G02*
X142257151Y-113406402I-144223J144228D01*
G01*
X142617750Y-113045800D02*
G75*
G02*
X142617700Y-113334250I-144250J-144200D01*
G01*
X140605103Y-113730218D02*
G75*
G03*
X140605090Y-113918169I93997J-93982D01*
G01*
X141824359Y-114127666D02*
G75*
G02*
X141535851Y-114127676I-144259J144266D01*
G01*
X144060250Y-111603300D02*
G75*
G02*
X144060200Y-111891750I-144250J-144200D01*
G01*
X138912833Y-111988367D02*
X139015502Y-112091036D01*
X139994707Y-110906490D02*
X139994709Y-110906491D01*
X135926283Y-114771827D02*
X136027830Y-114873374D01*
X139376126Y-111730411D02*
X139273456Y-111627741D01*
X138552207Y-112348993D02*
X138449556Y-112246342D01*
X140355335Y-110545865D02*
X140456908Y-110647438D01*
X136388452Y-114512745D02*
X136388454Y-114512746D01*
X139273456Y-111627741D02*
X139273458Y-111627742D01*
X140817532Y-110083666D02*
X141751200Y-109150000D01*
X138654861Y-112451648D02*
X138552205Y-112348992D01*
X137830954Y-113070243D02*
X137830956Y-113070244D01*
X135401200Y-115500000D02*
X135557603Y-115343597D01*
X138088904Y-112606939D02*
X138191584Y-112709619D01*
X137470331Y-113430869D02*
X137573000Y-113533538D01*
X137830956Y-113070244D02*
X137728277Y-112967565D01*
X137057046Y-114254775D02*
X137212359Y-114099461D01*
X139634084Y-111267116D02*
X139736739Y-111369771D01*
X140097363Y-111009146D02*
X139994707Y-110906490D01*
X136027830Y-114873374D02*
X136027829Y-114873371D01*
X139942050Y-111369771D02*
X140097363Y-111214457D01*
X138191584Y-112709619D02*
X138191582Y-112709618D01*
X141751200Y-109150000D02*
X146538800Y-109150000D01*
X138499548Y-112812273D02*
X138654861Y-112656959D01*
X139220842Y-112091036D02*
X139376126Y-111935751D01*
X139634086Y-111267117D02*
X139634084Y-111267116D01*
X131938000Y-115500000D02*
X135401200Y-115500000D01*
X139531406Y-111164437D02*
X139634086Y-111267117D01*
X138449557Y-112041040D02*
X138604881Y-111885717D01*
X136285775Y-114204709D02*
X136441044Y-114049441D01*
X139170779Y-111319705D02*
X139326048Y-111164437D01*
X146538800Y-109150000D02*
X146735800Y-109347000D01*
X136749080Y-114152120D02*
X136851735Y-114254775D01*
X137007045Y-113483515D02*
X137162353Y-113328208D01*
X135557603Y-114937413D02*
X135723191Y-114771826D01*
X137728277Y-112762207D02*
X137883546Y-112606939D01*
X139994709Y-110906491D02*
X139892058Y-110803840D01*
X136027829Y-114873371D02*
X136130498Y-114976040D01*
X136749082Y-114152121D02*
X136749080Y-114152120D01*
X136335838Y-114976040D02*
X136491122Y-114820755D01*
X137109703Y-113791494D02*
X137109705Y-113791495D01*
X140252685Y-110443214D02*
X140355337Y-110545866D01*
X138912835Y-111988368D02*
X138912833Y-111988367D01*
X137109705Y-113791495D02*
X137007045Y-113688835D01*
X137367671Y-113328209D02*
X137470332Y-113430870D01*
X138191582Y-112709618D02*
X138294237Y-112812273D01*
X137470332Y-113430870D02*
X137470331Y-113430869D01*
X139892059Y-110598538D02*
X140047383Y-110443215D01*
X140355337Y-110545866D02*
X140355335Y-110545865D01*
X136646402Y-114049441D02*
X136749082Y-114152121D01*
X138810183Y-111885716D02*
X138912835Y-111988368D01*
X137778340Y-113533538D02*
X137933624Y-113378253D01*
X151758888Y-110943538D02*
X151758888Y-111300000D01*
X146735800Y-109347000D02*
X150162350Y-109347000D01*
X140660054Y-110647438D02*
X140817532Y-110489959D01*
X137212359Y-113894150D02*
X137109703Y-113791494D01*
X136491122Y-114615415D02*
X136388452Y-114512745D01*
X150162350Y-109347000D02*
X151758888Y-110943538D01*
X138552205Y-112348992D02*
X138552207Y-112348993D01*
X139273458Y-111627742D02*
X139170779Y-111525063D01*
X136388454Y-114512746D02*
X136285775Y-114410067D01*
X137933624Y-113172913D02*
X137830954Y-113070243D01*
X140817532Y-110286813D02*
G75*
G02*
X140817492Y-110083627I101568J101613D01*
G01*
X138654861Y-112656959D02*
G75*
G03*
X138654865Y-112451645I-102661J102659D01*
G01*
X139892058Y-110803840D02*
G75*
G02*
X139892069Y-110598549I102642J102640D01*
G01*
X140047383Y-110443215D02*
G75*
G02*
X140252651Y-110443248I102617J-102685D01*
G01*
X137933624Y-113378253D02*
G75*
G03*
X137933607Y-113172930I-102624J102653D01*
G01*
X136441044Y-114049441D02*
G75*
G02*
X136646402Y-114049441I102679J-102679D01*
G01*
X137573000Y-113533538D02*
G75*
G03*
X137778340Y-113533538I102670J102671D01*
G01*
X140097363Y-111214457D02*
G75*
G03*
X140097365Y-111009145I-102663J102657D01*
G01*
X138449556Y-112246342D02*
G75*
G02*
X138449565Y-112041049I102644J102642D01*
G01*
X139736739Y-111369771D02*
G75*
G03*
X139942050Y-111369772I102656J102657D01*
G01*
X140456908Y-110647438D02*
G75*
G03*
X140660054Y-110647438I101573J101573D01*
G01*
X135557603Y-115140505D02*
G75*
G02*
X135557644Y-114937454I101497J101505D01*
G01*
X136285775Y-114410067D02*
G75*
G02*
X136285787Y-114204721I102725J102667D01*
G01*
X136851735Y-114254775D02*
G75*
G03*
X137057046Y-114254776I102656J102657D01*
G01*
X139376126Y-111935751D02*
G75*
G03*
X139376107Y-111730430I-102626J102651D01*
G01*
X136491122Y-114820755D02*
G75*
G03*
X136491107Y-114615430I-102622J102655D01*
G01*
X139015502Y-112091036D02*
G75*
G03*
X139220842Y-112091036I102670J102671D01*
G01*
X137728277Y-112967565D02*
G75*
G02*
X137728291Y-112762221I102723J102665D01*
G01*
X137007045Y-113688835D02*
G75*
G02*
X137007070Y-113483540I102655J102635D01*
G01*
X136130498Y-114976040D02*
G75*
G03*
X136335838Y-114976040I102670J102671D01*
G01*
X137883546Y-112606939D02*
G75*
G02*
X138088904Y-112606939I102679J-102679D01*
G01*
X137162353Y-113328208D02*
G75*
G02*
X137367660Y-113328220I102647J-102692D01*
G01*
X140817532Y-110489959D02*
G75*
G03*
X140817518Y-110286827I-101532J101559D01*
G01*
X138294237Y-112812273D02*
G75*
G03*
X138499548Y-112812274I102656J102657D01*
G01*
X135723191Y-114771826D02*
G75*
G02*
X135926247Y-114771863I101509J-101574D01*
G01*
X135557603Y-115343597D02*
G75*
G03*
X135557554Y-115140554I-101503J101497D01*
G01*
X139170779Y-111525063D02*
G75*
G02*
X139170795Y-111319721I102721J102663D01*
G01*
X139326048Y-111164437D02*
G75*
G02*
X139531406Y-111164437I102679J-102679D01*
G01*
X138604881Y-111885717D02*
G75*
G02*
X138810151Y-111885748I102619J-102683D01*
G01*
X137212359Y-114099461D02*
G75*
G03*
X137212365Y-113894145I-102659J102661D01*
G01*
X136824749Y-112266149D02*
X137183892Y-111907005D01*
X133587400Y-114850000D02*
X134103700Y-114333700D01*
X138914813Y-109195807D02*
X139078204Y-109359198D01*
X138196528Y-110894358D02*
X138555678Y-110535207D01*
X139078204Y-109359198D02*
X139078203Y-109359197D01*
X138392308Y-110045092D02*
X138228918Y-109881702D01*
X134801020Y-113312750D02*
X134962837Y-113474567D01*
X135648730Y-112788670D02*
X135485352Y-112625292D01*
X131938000Y-114850000D02*
X133587400Y-114850000D01*
X137020519Y-111416881D02*
X136857141Y-111253503D01*
X138392305Y-110045091D02*
X138392308Y-110045092D01*
X137020517Y-111416880D02*
X137020519Y-111416881D01*
X143141600Y-108750000D02*
X146704486Y-108750000D01*
X137706416Y-110730987D02*
X137706414Y-110730986D01*
X136857142Y-110926747D02*
X137216281Y-110567609D01*
X134962836Y-113474564D02*
X135126208Y-113637936D01*
X146901485Y-108947000D02*
X150328036Y-108947000D01*
X142265400Y-107873800D02*
X143141600Y-108750000D01*
X136171248Y-111939397D02*
X136334627Y-112102776D01*
X137543037Y-110567608D02*
X137706416Y-110730987D01*
X135812100Y-112952042D02*
X135648727Y-112788669D01*
X138555678Y-110208464D02*
X138392305Y-110045091D01*
X137183892Y-111580255D02*
X137020517Y-111416880D01*
X150328036Y-108947000D02*
X152125900Y-110744864D01*
X139563718Y-109521035D02*
X139925934Y-109158818D01*
X135485353Y-112298536D02*
X135844492Y-111939398D01*
X139078203Y-109359197D02*
X139240041Y-109521035D01*
X134962837Y-113474567D02*
X134962836Y-113474564D01*
X137706414Y-110730986D02*
X137869786Y-110894358D01*
X136334627Y-112102776D02*
X136334625Y-112102775D01*
X140563600Y-107873800D02*
X142265400Y-107873800D01*
X135648727Y-112788669D02*
X135648730Y-112788670D01*
X139925934Y-108511464D02*
X140563600Y-107873800D01*
X134103700Y-113686436D02*
X134477388Y-113312749D01*
X135452950Y-113637936D02*
X135812100Y-113278785D01*
X136334625Y-112102775D02*
X136497999Y-112266149D01*
X146704486Y-108750000D02*
X146901485Y-108947000D01*
X138228919Y-109554920D02*
X138588033Y-109195807D01*
X152125900Y-110744864D02*
X152467612Y-110744864D01*
X136857141Y-111253503D02*
G75*
G02*
X136857116Y-110926721I163359J163403D01*
G01*
X134477388Y-113312749D02*
G75*
G02*
X134801017Y-113312753I161812J-161851D01*
G01*
X135812100Y-113278785D02*
G75*
G03*
X135812114Y-112952029I-163400J163385D01*
G01*
X138228918Y-109881702D02*
G75*
G02*
X138228907Y-109554908I163382J163402D01*
G01*
X134103700Y-114010068D02*
G75*
G02*
X134103748Y-113686484I161800J161768D01*
G01*
X137183892Y-111907005D02*
G75*
G03*
X137183922Y-111580225I-163392J163405D01*
G01*
X134103700Y-114333700D02*
G75*
G03*
X134103684Y-114010084I-161800J161800D01*
G01*
X135844492Y-111939398D02*
G75*
G02*
X136171277Y-111939367I163408J-163402D01*
G01*
X138555678Y-110535207D02*
G75*
G03*
X138555714Y-110208429I-163378J163407D01*
G01*
X137216281Y-110567609D02*
G75*
G02*
X137543077Y-110567567I163419J-163391D01*
G01*
X139240041Y-109521035D02*
G75*
G03*
X139563718Y-109521036I161839J161841D01*
G01*
X138588033Y-109195807D02*
G75*
G02*
X138914813Y-109195807I163390J-163391D01*
G01*
X137869786Y-110894358D02*
G75*
G03*
X138196528Y-110894358I163371J163373D01*
G01*
X136497999Y-112266149D02*
G75*
G03*
X136824749Y-112266149I163375J163375D01*
G01*
X135485352Y-112625292D02*
G75*
G02*
X135485338Y-112298521I163348J163392D01*
G01*
X135126208Y-113637936D02*
G75*
G03*
X135452950Y-113637936I163371J163373D01*
G01*
X139925934Y-109158818D02*
G75*
G03*
X139925914Y-108835162I-161834J161818D01*
G01*
X139925934Y-108835141D02*
G75*
G02*
X139925931Y-108511462I161866J161841D01*
G01*
X137833791Y-114725859D02*
X138061811Y-114953879D01*
X139742981Y-112816669D02*
X139971001Y-113044689D01*
X139334603Y-113681083D02*
X139562628Y-113909108D01*
X138061811Y-114953879D02*
X138061809Y-114953877D01*
X140061176Y-112243908D02*
X140124817Y-112180268D01*
X137907964Y-115818266D02*
X137971603Y-115754626D01*
X139652801Y-113362885D02*
X139424782Y-113134866D01*
X141015772Y-111543872D02*
X141243795Y-111771895D01*
X138380007Y-114635677D02*
X138380008Y-114635678D01*
X139971001Y-113044689D02*
X139970999Y-113044687D01*
X139334605Y-113681085D02*
X139334603Y-113681083D01*
X142643867Y-110371822D02*
X142707506Y-110308181D01*
X131938000Y-116150000D02*
X136865686Y-116150000D01*
X142198385Y-110817297D02*
X142198387Y-110817299D01*
X141019258Y-112565594D02*
X141082898Y-112501953D01*
X137197374Y-115362231D02*
X137425416Y-115590273D01*
X137971603Y-115500067D02*
X137743609Y-115272073D01*
X139110077Y-114474792D02*
X139173717Y-114411151D01*
X138698206Y-114317480D02*
X138855518Y-114474792D01*
X139016404Y-113999280D02*
X139016405Y-113999281D01*
X140418193Y-113237323D02*
X140481833Y-113173682D01*
X140697573Y-111607511D02*
X140761214Y-111543871D01*
X142251833Y-111259378D02*
X142322267Y-111188943D01*
X141561989Y-111453693D02*
X141561991Y-111453695D01*
X141615437Y-111895774D02*
X141685871Y-111825339D01*
X145706739Y-109550000D02*
X146387990Y-110231251D01*
X141243793Y-111771893D02*
X141367674Y-111895774D01*
X139424782Y-112880308D02*
X139488423Y-112816668D01*
X139880826Y-113590909D02*
X139652800Y-113362883D01*
X142707506Y-110308181D02*
X143465686Y-109550000D01*
X140925595Y-112090091D02*
X140697573Y-111862069D01*
X140481833Y-112919124D02*
X140289196Y-112726487D01*
X141561991Y-111453695D02*
X141333972Y-111225676D01*
X138151989Y-114153101D02*
X138215630Y-114089461D01*
X141880189Y-111135497D02*
X142004070Y-111259378D01*
X141652171Y-110907479D02*
X141880191Y-111135499D01*
X140289196Y-112726487D02*
X140289198Y-112726488D01*
X139173717Y-114156593D02*
X139016404Y-113999280D01*
X139016405Y-113999281D02*
X138788386Y-113771262D01*
X136865686Y-116150000D02*
X136979936Y-116035750D01*
X138788386Y-113516704D02*
X138852027Y-113453064D01*
X141082898Y-112247395D02*
X140925593Y-112090090D01*
X141970368Y-110589280D02*
X142198387Y-110817299D01*
X140607396Y-112408290D02*
X140764700Y-112565594D01*
X142322267Y-110941179D02*
X142198385Y-110817297D01*
X139817187Y-113909108D02*
X139880826Y-113845468D01*
X137743609Y-115272073D02*
X137743611Y-115272075D01*
X137425413Y-115590273D02*
X137653406Y-115818266D01*
X137743611Y-115272075D02*
X137515592Y-115044056D01*
X138473680Y-115111189D02*
X138537320Y-115047548D01*
X142288568Y-110271081D02*
X142389309Y-110371822D01*
X139652800Y-113362883D02*
X139652801Y-113362885D01*
X141243795Y-111771895D02*
X141243793Y-111771893D01*
X141970368Y-110334722D02*
X142034010Y-110271081D01*
X141333972Y-110971118D02*
X141397613Y-110907478D01*
X146387990Y-110231251D02*
X146387990Y-110287500D01*
X141880191Y-111135499D02*
X141880189Y-111135497D01*
X138061809Y-114953877D02*
X138219121Y-115111189D01*
X138380008Y-114635678D02*
X138151989Y-114407659D01*
X136979936Y-115781192D02*
X136879174Y-115680430D01*
X141685871Y-111577575D02*
X141561989Y-111453693D01*
X136879175Y-115425870D02*
X136942814Y-115362232D01*
X137425416Y-115590273D02*
X137425413Y-115590273D01*
X138537320Y-114792990D02*
X138380007Y-114635677D01*
X140607398Y-112408292D02*
X140607396Y-112408290D01*
X139106585Y-113453065D02*
X139334605Y-113681085D01*
X140289198Y-112726488D02*
X140061176Y-112498466D01*
X139970999Y-113044687D02*
X140163635Y-113237323D01*
X140379375Y-112180269D02*
X140607398Y-112408292D01*
X140925593Y-112090090D02*
X140925595Y-112090091D01*
X138698208Y-114317482D02*
X138698206Y-114317480D01*
X143465686Y-109550000D02*
X145706739Y-109550000D01*
X138470188Y-114089462D02*
X138698208Y-114317482D01*
X137515592Y-114789498D02*
X137579233Y-114725858D01*
X140163635Y-113237323D02*
G75*
G03*
X140418193Y-113237323I127279J127278D01*
G01*
X138788386Y-113771262D02*
G75*
G02*
X138788403Y-113516721I127314J127262D01*
G01*
X142004070Y-111259378D02*
G75*
G03*
X142251833Y-111259379I123882J123883D01*
G01*
X140481833Y-113173682D02*
G75*
G03*
X140481836Y-112919121I-127233J127282D01*
G01*
X139424782Y-113134866D02*
G75*
G02*
X139424795Y-112880321I127318J127266D01*
G01*
X137515592Y-115044056D02*
G75*
G02*
X137515615Y-114789521I127308J127256D01*
G01*
X140764700Y-112565594D02*
G75*
G03*
X141019258Y-112565594I127279J127278D01*
G01*
X139880826Y-113845468D02*
G75*
G03*
X139880815Y-113590920I-127326J127268D01*
G01*
X139173717Y-114411151D02*
G75*
G03*
X139173689Y-114156621I-127317J127251D01*
G01*
X137653406Y-115818266D02*
G75*
G03*
X137907964Y-115818266I127279J127278D01*
G01*
X142322267Y-111188943D02*
G75*
G03*
X142322228Y-110941218I-123867J123843D01*
G01*
X142389309Y-110371822D02*
G75*
G03*
X142643867Y-110371822I127279J127278D01*
G01*
X138219121Y-115111189D02*
G75*
G03*
X138473680Y-115111190I127280J127283D01*
G01*
X138215630Y-114089461D02*
G75*
G02*
X138470179Y-114089470I127270J-127239D01*
G01*
X141970368Y-110589280D02*
G75*
G02*
X141970367Y-110334721I127232J127280D01*
G01*
X137971603Y-115754626D02*
G75*
G03*
X137971650Y-115500021I-127303J127326D01*
G01*
X136879174Y-115680430D02*
G75*
G02*
X136879224Y-115425919I127326J127230D01*
G01*
X141685871Y-111825339D02*
G75*
G03*
X141685828Y-111577618I-123871J123839D01*
G01*
X138852027Y-113453064D02*
G75*
G02*
X139106579Y-113453071I127273J-127236D01*
G01*
X140697573Y-111862069D02*
G75*
G02*
X140697583Y-111607521I127327J127269D01*
G01*
X141082898Y-112501953D02*
G75*
G03*
X141082872Y-112247421I-127298J127253D01*
G01*
X141367674Y-111895774D02*
G75*
G03*
X141615437Y-111895775I123882J123883D01*
G01*
X136979936Y-116035750D02*
G75*
G03*
X136979907Y-115781221I-127236J127250D01*
G01*
X136942814Y-115362232D02*
G75*
G02*
X137197380Y-115362225I127286J-127268D01*
G01*
X138151989Y-114407659D02*
G75*
G02*
X138152009Y-114153121I127311J127259D01*
G01*
X142034010Y-110271081D02*
G75*
G02*
X142288568Y-110271081I127279J-127278D01*
G01*
X138855518Y-114474792D02*
G75*
G03*
X139110077Y-114474793I127280J127283D01*
G01*
X139488423Y-112816668D02*
G75*
G02*
X139742979Y-112816671I127277J-127232D01*
G01*
X141397613Y-110907478D02*
G75*
G02*
X141652179Y-110907470I127287J-127322D01*
G01*
X141333972Y-111225676D02*
G75*
G02*
X141333975Y-110971121I127228J127276D01*
G01*
X139562628Y-113909108D02*
G75*
G03*
X139817187Y-113909109I127280J127283D01*
G01*
X137579233Y-114725858D02*
G75*
G02*
X137833779Y-114725870I127267J-127242D01*
G01*
X140124817Y-112180268D02*
G75*
G02*
X140379380Y-112180265I127283J-127232D01*
G01*
X140061176Y-112498466D02*
G75*
G02*
X140061189Y-112243921I127324J127266D01*
G01*
X138537320Y-115047548D02*
G75*
G03*
X138537289Y-114793021I-127320J127248D01*
G01*
X140761214Y-111543871D02*
G75*
G02*
X141015779Y-111543864I127286J-127329D01*
G01*
X137642600Y-99542600D02*
X137662240Y-99542600D01*
X135522499Y-97899886D02*
X135579067Y-97956454D01*
X135207926Y-96856825D02*
X135195511Y-96869237D01*
X136848422Y-98271011D02*
X136904990Y-98327579D01*
X136653881Y-99031232D02*
X136710449Y-99087800D01*
X134912670Y-96586396D02*
X134925084Y-96573983D01*
X133769185Y-95950000D02*
X134050000Y-95950000D01*
X135648056Y-97548056D02*
X135522499Y-97673612D01*
X136088163Y-98465586D02*
X136144731Y-98522154D01*
X137514808Y-99414808D02*
X137642600Y-99542600D01*
X136936723Y-99087800D02*
X137062261Y-98962261D01*
X153770296Y-103630696D02*
X154580414Y-103630696D01*
X137062261Y-98962261D02*
X137175397Y-98849122D01*
X136496579Y-98396579D02*
X136622146Y-98271009D01*
X135773562Y-97422553D02*
X135648056Y-97548056D01*
X134956830Y-97334192D02*
X135013398Y-97390760D01*
X133369185Y-95714298D02*
X133533483Y-95714298D01*
X135151358Y-96573983D02*
X135207926Y-96630551D01*
X137470666Y-99119541D02*
X137458239Y-99131965D01*
X135930897Y-97830897D02*
X136056413Y-97705378D01*
X137662240Y-99542600D02*
X137713040Y-99593400D01*
X134050000Y-95950000D02*
X134686396Y-96586396D01*
X136282689Y-97705380D02*
X136339257Y-97761948D01*
X149733000Y-99593400D02*
X153770296Y-103630696D01*
X134956830Y-97107917D02*
X135195511Y-96869237D01*
X135805341Y-97956454D02*
X135930897Y-97830897D01*
X137175397Y-98849122D02*
X137187822Y-98836697D01*
X135716994Y-97139711D02*
X135773562Y-97196279D01*
X135365215Y-97265216D02*
X135365215Y-97265215D01*
X137458239Y-99358239D02*
X137514808Y-99414808D01*
X135365215Y-97265215D02*
X135490718Y-97139709D01*
X136779420Y-98679420D02*
X136653881Y-98804958D01*
X135239672Y-97390760D02*
X135365215Y-97265216D01*
X137713040Y-99593400D02*
X149733000Y-99593400D01*
X137414098Y-98836699D02*
X137470666Y-98893267D01*
X131938000Y-95950000D02*
X133133483Y-95950000D01*
X136339257Y-97988222D02*
X136213738Y-98113738D01*
X136213738Y-98113738D02*
X136088163Y-98239312D01*
X136371005Y-98522154D02*
X136496579Y-98396579D01*
X136904990Y-98553853D02*
X136779420Y-98679420D01*
X136339257Y-97761948D02*
G75*
G02*
X136339272Y-97988237I-113157J-113152D01*
G01*
X136088163Y-98239312D02*
G75*
G03*
X136088212Y-98465537I113137J-113088D01*
G01*
X133533483Y-95714298D02*
G75*
G02*
X133651302Y-95832149I17J-117802D01*
G01*
X135013398Y-97390760D02*
G75*
G03*
X135239672Y-97390760I113137J113137D01*
G01*
X135207926Y-96630551D02*
G75*
G02*
X135207938Y-96856837I-113126J-113149D01*
G01*
X136653881Y-98804958D02*
G75*
G03*
X136653876Y-99031237I113119J-113142D01*
G01*
X136056413Y-97705378D02*
G75*
G02*
X136282639Y-97705430I113087J-113122D01*
G01*
X136622146Y-98271009D02*
G75*
G02*
X136848439Y-98270994I113154J-113191D01*
G01*
X134956830Y-97107917D02*
G75*
G03*
X134956784Y-97334237I113170J-113183D01*
G01*
X135773562Y-97196279D02*
G75*
G02*
X135773546Y-97422537I-113162J-113121D01*
G01*
X134925084Y-96573983D02*
G75*
G02*
X135151358Y-96573983I113137J-113137D01*
G01*
X137470666Y-98893267D02*
G75*
G02*
X137470662Y-99119537I-113166J-113133D01*
G01*
X133251334Y-95832149D02*
G75*
G02*
X133369185Y-95714234I117866J49D01*
G01*
X135579067Y-97956454D02*
G75*
G03*
X135805341Y-97956454I113137J113137D01*
G01*
X135522499Y-97673612D02*
G75*
G03*
X135522548Y-97899837I113101J-113088D01*
G01*
X136904990Y-98327579D02*
G75*
G02*
X136904974Y-98553837I-113090J-113121D01*
G01*
X134686396Y-96586396D02*
G75*
G03*
X134912670Y-96586396I113137J113137D01*
G01*
X137187822Y-98836697D02*
G75*
G02*
X137414139Y-98836658I113178J-113103D01*
G01*
X136710449Y-99087800D02*
G75*
G03*
X136936723Y-99087800I113137J113137D01*
G01*
X136144731Y-98522154D02*
G75*
G03*
X136371005Y-98522154I113137J113137D01*
G01*
X135490718Y-97139709D02*
G75*
G02*
X135717039Y-97139666I113182J-113191D01*
G01*
X133133483Y-95950000D02*
G75*
G03*
X133251400Y-95832149I17J117900D01*
G01*
X137458239Y-99131965D02*
G75*
G03*
X137458241Y-99358237I113161J-113135D01*
G01*
X133651334Y-95832149D02*
G75*
G03*
X133769185Y-95949966I117866J49D01*
G01*
X139179345Y-97370945D02*
X139034595Y-97515694D01*
X137708563Y-95900163D02*
X137563819Y-96044906D01*
X136973169Y-95164771D02*
X136973172Y-95164772D01*
X139245903Y-96858498D02*
X139324096Y-96936691D01*
X137340866Y-95532465D02*
X137340867Y-95532467D01*
X137340867Y-95532467D02*
X137485594Y-95387737D01*
X138666900Y-97147997D02*
X138811648Y-97003248D01*
X137853291Y-95755434D02*
X137708561Y-95900161D01*
X138076258Y-96267858D02*
X138220985Y-96123128D01*
X140335000Y-98526600D02*
X140413193Y-98526600D01*
X137708561Y-95900161D02*
X137708563Y-95900163D01*
X138811648Y-97003248D02*
X138811649Y-97003249D01*
X138443954Y-96635554D02*
X138299205Y-96780302D01*
X136828432Y-95598987D02*
X136906650Y-95677205D01*
X139179343Y-97370943D02*
X139179345Y-97370945D01*
X138076257Y-96267857D02*
X138076258Y-96267858D01*
X140413193Y-98526600D02*
X150260076Y-98526600D01*
X139547040Y-97738640D02*
X139691415Y-97594262D01*
X131938000Y-94650000D02*
X136458400Y-94650000D01*
X138299205Y-97069797D02*
X138377405Y-97147997D01*
X137196127Y-95677205D02*
X137340866Y-95532465D01*
X137775052Y-95387738D02*
X137853290Y-95465976D01*
X137035760Y-94650000D02*
X137117510Y-94731750D01*
X137117511Y-95020432D02*
X136973169Y-95164771D01*
X139402290Y-97883389D02*
X139547039Y-97738639D01*
X139324096Y-97226193D02*
X139179343Y-97370943D01*
X140059112Y-98250711D02*
X140335000Y-98526600D01*
X138510443Y-96123129D02*
X138588681Y-96201367D01*
X137931514Y-96412601D02*
X138076257Y-96267857D01*
X138811649Y-97003249D02*
X138956399Y-96858496D01*
X150260076Y-98526600D02*
X153978524Y-102245048D01*
X139980169Y-97594263D02*
X140059111Y-97673205D01*
X139034595Y-97805192D02*
X139112792Y-97883389D01*
X138588682Y-96490825D02*
X138443952Y-96635552D01*
X138443952Y-96635552D02*
X138443954Y-96635554D01*
X136973172Y-95164772D02*
X136828432Y-95309511D01*
X137563819Y-96334393D02*
X137642027Y-96412601D01*
X139547039Y-97738639D02*
X139547040Y-97738640D01*
X137117510Y-94731750D02*
G75*
G02*
X137117520Y-95020441I-144310J-144350D01*
G01*
X138377405Y-97147997D02*
G75*
G03*
X138666900Y-97147998I144748J144749D01*
G01*
X138220985Y-96123128D02*
G75*
G02*
X138510430Y-96123142I144715J-144772D01*
G01*
X136828432Y-95309511D02*
G75*
G03*
X136828481Y-95598938I144768J-144689D01*
G01*
X138299205Y-96780302D02*
G75*
G03*
X138299254Y-97069748I144795J-144698D01*
G01*
X139691415Y-97594262D02*
G75*
G02*
X139980178Y-97594254I144385J-144338D01*
G01*
X139112792Y-97883389D02*
G75*
G03*
X139402290Y-97883389I144749J144749D01*
G01*
X136747080Y-94650000D02*
G75*
G02*
X137035760Y-94650000I144340J-144339D01*
G01*
X138588681Y-96201367D02*
G75*
G02*
X138588686Y-96490829I-144681J-144733D01*
G01*
X139034595Y-97515694D02*
G75*
G03*
X139034638Y-97805149I144705J-144706D01*
G01*
X137642027Y-96412601D02*
G75*
G03*
X137931514Y-96412602I144744J144746D01*
G01*
X137853290Y-95465976D02*
G75*
G02*
X137853286Y-95755428I-144690J-144724D01*
G01*
X137485594Y-95387737D02*
G75*
G02*
X137775030Y-95387760I144706J-144763D01*
G01*
X138956399Y-96858496D02*
G75*
G02*
X139245853Y-96858548I144701J-144704D01*
G01*
X139324096Y-96936691D02*
G75*
G02*
X139324054Y-97226151I-144796J-144709D01*
G01*
X140059111Y-97673205D02*
G75*
G02*
X140059130Y-97961976I-144411J-144395D01*
G01*
X136906650Y-95677205D02*
G75*
G03*
X137196127Y-95677206I144739J144741D01*
G01*
X140059112Y-97961959D02*
G75*
G03*
X140059147Y-98250676I144388J-144341D01*
G01*
X136458400Y-94650000D02*
G75*
G03*
X136747080Y-94650000I144340J144339D01*
G01*
X137563819Y-96044906D02*
G75*
G03*
X137563868Y-96334344I144781J-144694D01*
G01*
X134751440Y-98500940D02*
X134870885Y-98381492D01*
X135929730Y-99201831D02*
X136101152Y-99373253D01*
X144383761Y-100274600D02*
X149626800Y-100274600D01*
X134632006Y-98620375D02*
X134751440Y-98500940D01*
X134460657Y-97971482D02*
X134341318Y-98090818D01*
X144379161Y-100279200D02*
X144383761Y-100274600D01*
X136529700Y-100279200D02*
X144379161Y-100279200D01*
X134341318Y-98090818D02*
X134341320Y-98090820D01*
X135452235Y-99440626D02*
X135571680Y-99321180D01*
X134341320Y-98090820D02*
X134221885Y-98210254D01*
X153009600Y-105079800D02*
X154638569Y-106708769D01*
X154638569Y-106708769D02*
X154638569Y-107237330D01*
X134288340Y-97560490D02*
X134460656Y-97732806D01*
X136101152Y-99850651D02*
X136529700Y-100279200D01*
X132850500Y-96600000D02*
X133810990Y-97560490D01*
X135571680Y-99321180D02*
X135691028Y-99201829D01*
X153009600Y-103657400D02*
X153009600Y-105079800D01*
X135281008Y-98791615D02*
X135161560Y-98911060D01*
X135161560Y-98911060D02*
X135042114Y-99030505D01*
X134221885Y-98449123D02*
X134393137Y-98620375D01*
X149626800Y-100274600D02*
X153009600Y-103657400D01*
X131938000Y-96600000D02*
X132850500Y-96600000D01*
X135042114Y-99269394D02*
X135213346Y-99440626D01*
X135109779Y-98381493D02*
X135281007Y-98552721D01*
X134460656Y-97732806D02*
G75*
G02*
X134460613Y-97971437I-119356J-119294D01*
G01*
X135691028Y-99201829D02*
G75*
G02*
X135929752Y-99201809I119372J-119371D01*
G01*
X134049666Y-97560491D02*
G75*
G02*
X134288336Y-97560493I119334J-119309D01*
G01*
X134221885Y-98210254D02*
G75*
G03*
X134221873Y-98449135I119415J-119446D01*
G01*
X134870885Y-98381492D02*
G75*
G02*
X135109747Y-98381524I119415J-119408D01*
G01*
X136101151Y-99611951D02*
G75*
G03*
X136101153Y-99850650I119349J-119349D01*
G01*
X135213346Y-99440626D02*
G75*
G03*
X135452235Y-99440627I119445J119446D01*
G01*
X136101152Y-99373253D02*
G75*
G02*
X136101150Y-99611950I-119352J-119347D01*
G01*
X135281007Y-98552721D02*
G75*
G02*
X135281040Y-98791647I-119407J-119479D01*
G01*
X133810990Y-97560490D02*
G75*
G03*
X134049637Y-97560463I119310J119290D01*
G01*
X135042114Y-99030505D02*
G75*
G03*
X135042163Y-99269345I119486J-119395D01*
G01*
X134393137Y-98620375D02*
G75*
G03*
X134632006Y-98620376I119435J119436D01*
G01*
X137968882Y-97938483D02*
X137968883Y-97938483D01*
X137833555Y-98073811D02*
X137968882Y-97938483D01*
X136895059Y-96594003D02*
X136759732Y-96729331D01*
X153035000Y-102108000D02*
X149961600Y-99034600D01*
X154557689Y-102742922D02*
X154188398Y-103112213D01*
X154728271Y-102742922D02*
X154557689Y-102742922D01*
X153035000Y-102220763D02*
X153035000Y-102108000D01*
X135818303Y-96329212D02*
X135950700Y-96461609D01*
X153926450Y-103112213D02*
X153035000Y-102220763D01*
X135953628Y-95923230D02*
X135953631Y-95923231D01*
X136759732Y-96729331D02*
X136759732Y-96729332D01*
X136762663Y-96190954D02*
X136895060Y-96323351D01*
X138506294Y-98475893D02*
X139065000Y-99034600D01*
X136087990Y-95788871D02*
X135953628Y-95923230D01*
X136221353Y-96461609D02*
X136356680Y-96326281D01*
X135953631Y-95923231D02*
X135818303Y-96058558D01*
X137968883Y-97938483D02*
X138103242Y-97804121D01*
X135330400Y-95300000D02*
X135409159Y-95378759D01*
X136356680Y-96326281D02*
X136356681Y-96326281D01*
X135946599Y-95378759D02*
X136087989Y-95520149D01*
X137430505Y-97941414D02*
X137562902Y-98073811D01*
X154188398Y-103112213D02*
X153926450Y-103112213D01*
X136759732Y-96729332D02*
X136624404Y-96864659D01*
X137701151Y-97400114D02*
X137565831Y-97535431D01*
X137565831Y-97535431D02*
X137565833Y-97535433D01*
X137162781Y-97132382D02*
X137162782Y-97132382D01*
X139065000Y-99034600D02*
X149961600Y-99034600D01*
X137162782Y-97132382D02*
X137298099Y-96997062D01*
X137027454Y-97267710D02*
X137162781Y-97132382D01*
X131938000Y-95300000D02*
X135330400Y-95300000D01*
X137568737Y-96997064D02*
X137701151Y-97129478D01*
X136356681Y-96326281D02*
X136492007Y-96190952D01*
X137565833Y-97535433D02*
X137430505Y-97670760D01*
X138371964Y-97804123D02*
X138506294Y-97938453D01*
X136624404Y-97135313D02*
X136756801Y-97267710D01*
X136895060Y-96323351D02*
G75*
G02*
X136895083Y-96594026I-135360J-135349D01*
G01*
X137430505Y-97670760D02*
G75*
G03*
X137430492Y-97941427I135295J-135340D01*
G01*
X138506294Y-97938453D02*
G75*
G02*
X138506281Y-98207160I-134394J-134347D01*
G01*
X136756801Y-97267710D02*
G75*
G03*
X137027454Y-97267711I135327J135327D01*
G01*
X136087989Y-95520149D02*
G75*
G02*
X136087980Y-95788861I-134389J-134351D01*
G01*
X138506294Y-98207173D02*
G75*
G03*
X138506327Y-98475860I134406J-134327D01*
G01*
X138103242Y-97804121D02*
G75*
G02*
X138371962Y-97804125I134358J-134379D01*
G01*
X135950700Y-96461609D02*
G75*
G03*
X136221353Y-96461610I135327J135327D01*
G01*
X137298099Y-96997062D02*
G75*
G02*
X137568720Y-96997081I135301J-135338D01*
G01*
X135677879Y-95378759D02*
G75*
G02*
X135946599Y-95378759I134360J-134359D01*
G01*
X137701151Y-97129478D02*
G75*
G02*
X137701155Y-97400118I-135351J-135322D01*
G01*
X136624404Y-96864659D02*
G75*
G03*
X136624390Y-97135327I135296J-135341D01*
G01*
X137562902Y-98073811D02*
G75*
G03*
X137833555Y-98073812I135327J135327D01*
G01*
X136492007Y-96190952D02*
G75*
G02*
X136762629Y-96190988I135293J-135348D01*
G01*
X135409159Y-95378759D02*
G75*
G03*
X135677879Y-95378759I134360J134359D01*
G01*
X135818303Y-96058558D02*
G75*
G03*
X135818288Y-96329227I135297J-135342D01*
G01*
X141986000Y-103327200D02*
X142214600Y-103098600D01*
X135813800Y-103327200D02*
X141986000Y-103327200D01*
X151917400Y-106139714D02*
X154296980Y-108519294D01*
X131938000Y-105400000D02*
X133741000Y-105400000D01*
X142671800Y-102260400D02*
X150114000Y-102260400D01*
X150114000Y-102260400D02*
X151917400Y-104063800D01*
X155879169Y-108519294D02*
X155899799Y-108498664D01*
X142214600Y-103098600D02*
X142214600Y-102717600D01*
X133741000Y-105400000D02*
X135813800Y-103327200D01*
X151917400Y-104063800D02*
X151917400Y-106139714D01*
X154296980Y-108519294D02*
X155879169Y-108519294D01*
X142214600Y-102717600D02*
X142671800Y-102260400D01*
X135270400Y-106456000D02*
X135270400Y-106404456D01*
X138320400Y-106404456D02*
X138320400Y-106995544D01*
X141004400Y-106700000D02*
X142590200Y-106700000D01*
X135880400Y-106456000D02*
X135880400Y-106995544D01*
X138564400Y-107239544D02*
X138686400Y-107239544D01*
X152736851Y-110094864D02*
X152766987Y-110125000D01*
X140150400Y-106456000D02*
X140150400Y-106404447D01*
X139784400Y-107239550D02*
X139906400Y-107239550D01*
X146870171Y-108350000D02*
X147067171Y-108547000D01*
X144240200Y-108350000D02*
X146870171Y-108350000D01*
X150493721Y-108547000D02*
X152041584Y-110094864D01*
X137710400Y-106995544D02*
X137710400Y-106404456D01*
X139540400Y-106404456D02*
X139540400Y-106995550D01*
X137100400Y-106404456D02*
X137100400Y-106995544D01*
X140394400Y-106160447D02*
X140516400Y-106160447D01*
X131938000Y-106700000D02*
X135026400Y-106700000D01*
X152766987Y-110125000D02*
X153250000Y-110125000D01*
X137344400Y-107239544D02*
X137466400Y-107239544D01*
X138930400Y-106995544D02*
X138930400Y-106404456D01*
X136734400Y-106160456D02*
X136856400Y-106160456D01*
X140150400Y-106995550D02*
X140150400Y-106456000D01*
X140760400Y-106404447D02*
X140760400Y-106456000D01*
X136124400Y-107239544D02*
X136246400Y-107239544D01*
X139174400Y-106160456D02*
X139296400Y-106160456D01*
X136490400Y-106995544D02*
X136490400Y-106404456D01*
X147067171Y-108547000D02*
X150493721Y-108547000D01*
X135880400Y-106404456D02*
X135880400Y-106456000D01*
X135514400Y-106160456D02*
X135636400Y-106160456D01*
X142590200Y-106700000D02*
X144240200Y-108350000D01*
X137954400Y-106160456D02*
X138076400Y-106160456D01*
X152041584Y-110094864D02*
X152736851Y-110094864D01*
X137100400Y-106995544D02*
G75*
G03*
X137344400Y-107239500I244000J44D01*
G01*
X139296400Y-106160456D02*
G75*
G02*
X139540444Y-106404456I0J-244044D01*
G01*
X136246400Y-107239544D02*
G75*
G03*
X136490444Y-106995544I0J244044D01*
G01*
X135270400Y-106404456D02*
G75*
G02*
X135514400Y-106160500I244000J-44D01*
G01*
X140516400Y-106160447D02*
G75*
G02*
X140760353Y-106404447I0J-243953D01*
G01*
X137710400Y-106404456D02*
G75*
G02*
X137954400Y-106160500I244000J-44D01*
G01*
X138930400Y-106404456D02*
G75*
G02*
X139174400Y-106160500I244000J-44D01*
G01*
X136856400Y-106160456D02*
G75*
G02*
X137100444Y-106404456I0J-244044D01*
G01*
X140150400Y-106404447D02*
G75*
G02*
X140394400Y-106160400I244000J47D01*
G01*
X135880400Y-106995544D02*
G75*
G03*
X136124400Y-107239500I244000J44D01*
G01*
X137466400Y-107239544D02*
G75*
G03*
X137710444Y-106995544I0J244044D01*
G01*
X139906400Y-107239550D02*
G75*
G03*
X140150450Y-106995550I0J244050D01*
G01*
X135026400Y-106700000D02*
G75*
G03*
X135270400Y-106456000I0J244000D01*
G01*
X136490400Y-106404456D02*
G75*
G02*
X136734400Y-106160500I244000J-44D01*
G01*
X140760400Y-106456000D02*
G75*
G03*
X141004400Y-106700000I244000J0D01*
G01*
X138076400Y-106160456D02*
G75*
G02*
X138320444Y-106404456I0J-244044D01*
G01*
X139540400Y-106995550D02*
G75*
G03*
X139784400Y-107239500I244000J50D01*
G01*
X135636400Y-106160456D02*
G75*
G02*
X135880444Y-106404456I0J-244044D01*
G01*
X138686400Y-107239544D02*
G75*
G03*
X138930444Y-106995544I0J244044D01*
G01*
X138320400Y-106995544D02*
G75*
G03*
X138564400Y-107239500I244000J44D01*
G01*
X137173448Y-105131304D02*
X136992952Y-105131304D01*
X144165800Y-102900000D02*
X142494000Y-104571800D01*
X151400000Y-106264200D02*
X151400000Y-104232200D01*
X139673200Y-104853757D02*
X139673200Y-104289843D01*
X135763000Y-104571800D02*
X136433448Y-104571800D01*
X135763000Y-104571800D02*
X134284800Y-106050000D01*
X151400000Y-104232200D02*
X150067800Y-102900000D01*
X140871244Y-104007887D02*
X140695156Y-104007887D01*
X138933200Y-104289843D02*
X138933200Y-104853757D01*
X140413200Y-104289843D02*
X140413200Y-104853757D01*
X150067800Y-102900000D02*
X144165800Y-102900000D01*
X138193200Y-104853757D02*
X138193200Y-104289843D01*
X142494000Y-104571800D02*
X142189200Y-104571800D01*
X139391244Y-104007887D02*
X139215156Y-104007887D01*
X141629748Y-105131252D02*
X141432926Y-105131252D01*
X134284800Y-106050000D02*
X131938000Y-106050000D01*
X138651244Y-105135713D02*
X138475156Y-105135713D01*
X141153200Y-104851526D02*
X141153200Y-104289843D01*
X153166900Y-108437500D02*
X152196800Y-107467400D01*
X137911244Y-104007887D02*
X137735156Y-104007887D01*
X152196800Y-107061000D02*
X151400000Y-106264200D01*
X137453200Y-104289843D02*
X137453200Y-104851552D01*
X152196800Y-107467400D02*
X152196800Y-107061000D01*
X153175000Y-108437500D02*
X153166900Y-108437500D01*
X140131244Y-105135713D02*
X139955156Y-105135713D01*
X140413200Y-104853757D02*
G75*
G02*
X140131244Y-105135800I-282000J-43D01*
G01*
X138933200Y-104853757D02*
G75*
G02*
X138651244Y-105135800I-282000J-43D01*
G01*
X137453200Y-104851552D02*
G75*
G02*
X137173448Y-105131400I-279800J-48D01*
G01*
X138193200Y-104289843D02*
G75*
G03*
X137911244Y-104007800I-282000J43D01*
G01*
X138475156Y-105135713D02*
G75*
G02*
X138193287Y-104853757I44J281913D01*
G01*
X142189200Y-104571800D02*
G75*
G03*
X141909500Y-104851526I0J-279700D01*
G01*
X140695156Y-104007887D02*
G75*
G03*
X140413287Y-104289843I44J-281913D01*
G01*
X136713200Y-104851552D02*
G75*
G03*
X136433448Y-104571800I-279800J-48D01*
G01*
X141432926Y-105131252D02*
G75*
G02*
X141153148Y-104851526I-26J279752D01*
G01*
X137735156Y-104007887D02*
G75*
G03*
X137453287Y-104289843I44J-281913D01*
G01*
X136992952Y-105131304D02*
G75*
G02*
X136713296Y-104851552I48J279704D01*
G01*
X139215156Y-104007887D02*
G75*
G03*
X138933287Y-104289843I44J-281913D01*
G01*
X141909474Y-104851526D02*
G75*
G02*
X141629748Y-105131274I-279774J26D01*
G01*
X141153200Y-104289843D02*
G75*
G03*
X140871244Y-104007800I-282000J43D01*
G01*
X139955156Y-105135713D02*
G75*
G02*
X139673287Y-104853757I44J281913D01*
G01*
X139673200Y-104289843D02*
G75*
G03*
X139391244Y-104007800I-282000J43D01*
G01*
X155249857Y-107887330D02*
X155354587Y-107782600D01*
X139575705Y-101777932D02*
X140132373Y-101777932D01*
X137954039Y-101472947D02*
X137954039Y-101680829D01*
X140335705Y-101574600D02*
X150190200Y-101574600D01*
X136093200Y-101574600D02*
X137059039Y-101574600D01*
X152450800Y-103835200D02*
X152450800Y-106035456D01*
X137262345Y-101371294D02*
X137852386Y-101371294D01*
X139474039Y-101468371D02*
X139474039Y-101676266D01*
X152450800Y-106035456D02*
X154302674Y-107887330D01*
X154302674Y-107887330D02*
X155249857Y-107887330D01*
X138714039Y-101680829D02*
X138714039Y-101468371D01*
X138820268Y-101362142D02*
X139367810Y-101362142D01*
X138060268Y-101787058D02*
X138607810Y-101787058D01*
X132917800Y-104750000D02*
X136093200Y-101574600D01*
X131938000Y-104750000D02*
X132917800Y-104750000D01*
X150190200Y-101574600D02*
X152450800Y-103835200D01*
X137059039Y-101574600D02*
G75*
G03*
X137160700Y-101472947I-39J101700D01*
G01*
X138714039Y-101468371D02*
G75*
G02*
X138820268Y-101362139I106261J-29D01*
G01*
X137160692Y-101472947D02*
G75*
G02*
X137262345Y-101371292I101608J47D01*
G01*
X137954039Y-101680829D02*
G75*
G03*
X138060268Y-101787061I106261J29D01*
G01*
X139367810Y-101362142D02*
G75*
G02*
X139474058Y-101468371I-10J-106258D01*
G01*
X140132373Y-101777932D02*
G75*
G03*
X140234032Y-101676266I27J101632D01*
G01*
X140234039Y-101676266D02*
G75*
G02*
X140335705Y-101574639I101661J-34D01*
G01*
X137852386Y-101371294D02*
G75*
G02*
X137954006Y-101472947I14J-101606D01*
G01*
X138607810Y-101787058D02*
G75*
G03*
X138714058Y-101680829I-10J106258D01*
G01*
X139474039Y-101676266D02*
G75*
G03*
X139575705Y-101777961I101661J-34D01*
G01*
D27*
X126212600Y-111125000D02*
X127550000Y-112462400D01*
X126225000Y-117638000D02*
X126225000Y-119500000D01*
X127550000Y-116950000D02*
X127025000Y-117475000D01*
X126225000Y-99300000D02*
X126225000Y-100317000D01*
X126225000Y-107375000D02*
X126225000Y-109400000D01*
X126062000Y-117475000D02*
X126225000Y-117638000D01*
X126225000Y-109400000D02*
X126225000Y-110452200D01*
X126225000Y-99300000D02*
X126225000Y-97438000D01*
X126225000Y-110452200D02*
X126212600Y-110464600D01*
X127550000Y-112462400D02*
X127550000Y-116950000D01*
X118490000Y-124470000D02*
X123460000Y-119500000D01*
X126212600Y-110464600D02*
X126212600Y-111125000D01*
X126225000Y-100317000D02*
X126238000Y-100330000D01*
X126225000Y-97438000D02*
X126062000Y-97275000D01*
X123460000Y-119500000D02*
X126225000Y-119500000D01*
X127025000Y-117475000D02*
X126062000Y-117475000D01*
X160197800Y-95935800D02*
X157707600Y-95935800D01*
D26*
X142682200Y-97180400D02*
X150926800Y-97180400D01*
X150926800Y-97180400D02*
X152171400Y-95935800D01*
X141986000Y-97876600D02*
X142682200Y-97180400D01*
X152171400Y-95935800D02*
X157658800Y-95935800D01*
G04 #@! TA.AperFunction,Conductor*
G36*
X149033552Y-110015542D02*
G01*
X149341843Y-110144194D01*
X149348158Y-110150543D01*
X149348220Y-110159286D01*
X149131996Y-110707268D01*
X149125772Y-110713706D01*
X149121113Y-110714674D01*
X148937035Y-110714674D01*
X148928762Y-110711247D01*
X148926152Y-110707268D01*
X148709927Y-110159286D01*
X148710078Y-110150333D01*
X148716302Y-110144194D01*
X149024568Y-110015553D01*
X149033523Y-110015531D01*
X149033552Y-110015542D01*
G37*
G04 #@! TD.AperFunction*
G04 #@! TA.AperFunction,Conductor*
G36*
X140872993Y-117683427D02*
G01*
X140873493Y-117683959D01*
X141612732Y-118521763D01*
X141615636Y-118530234D01*
X141612237Y-118537772D01*
X140778278Y-119372712D01*
X140770007Y-119376144D01*
X140761732Y-119372722D01*
X140761722Y-119372712D01*
X140568868Y-119179632D01*
X139927761Y-118537770D01*
X139924340Y-118529497D01*
X139927266Y-118521764D01*
X140666507Y-117683959D01*
X140674550Y-117680023D01*
X140675280Y-117680000D01*
X140864720Y-117680000D01*
X140872993Y-117683427D01*
G37*
G04 #@! TD.AperFunction*
G04 #@! TA.AperFunction,Conductor*
G36*
X145951032Y-117683427D02*
G01*
X145953230Y-117686480D01*
X146629706Y-119043502D01*
X146630330Y-119052435D01*
X146624455Y-119059193D01*
X146623724Y-119059527D01*
X145854489Y-119379134D01*
X145845534Y-119379143D01*
X145845511Y-119379134D01*
X145076275Y-119059527D01*
X145069950Y-119053188D01*
X145069959Y-119044233D01*
X145070285Y-119043518D01*
X145746770Y-117686480D01*
X145753528Y-117680605D01*
X145757241Y-117680000D01*
X145942759Y-117680000D01*
X145951032Y-117683427D01*
G37*
G04 #@! TD.AperFunction*
G04 #@! TA.AperFunction,Conductor*
G36*
X149934027Y-110034306D02*
G01*
X150242318Y-110162958D01*
X150248633Y-110169307D01*
X150248695Y-110178050D01*
X150032471Y-110726032D01*
X150026247Y-110732470D01*
X150021588Y-110733438D01*
X149837510Y-110733438D01*
X149829237Y-110730011D01*
X149826627Y-110726032D01*
X149610402Y-110178050D01*
X149610553Y-110169097D01*
X149616777Y-110162958D01*
X149925043Y-110034317D01*
X149933998Y-110034295D01*
X149934027Y-110034306D01*
G37*
G04 #@! TD.AperFunction*
G04 #@! TA.AperFunction,Conductor*
G36*
X117642545Y-126757097D02*
G01*
X117649011Y-126763293D01*
X117650000Y-126768000D01*
X117650000Y-127251999D01*
X117646573Y-127260272D01*
X117642545Y-127262902D01*
X116285941Y-127791146D01*
X116276989Y-127790954D01*
X116270891Y-127784732D01*
X115950865Y-127014489D01*
X115950856Y-127005534D01*
X115950865Y-127005511D01*
X116049548Y-126768000D01*
X116270891Y-126235266D01*
X116277230Y-126228942D01*
X116285941Y-126228853D01*
X117642545Y-126757097D01*
G37*
G04 #@! TD.AperFunction*
G04 #@! TA.AperFunction,Conductor*
G36*
X118163010Y-126229045D02*
G01*
X118169108Y-126235267D01*
X118489134Y-127005511D01*
X118489143Y-127014466D01*
X118489134Y-127014489D01*
X118169108Y-127784732D01*
X118162769Y-127791057D01*
X118154058Y-127791146D01*
X116797455Y-127262902D01*
X116790989Y-127256706D01*
X116790000Y-127251999D01*
X116790000Y-126768000D01*
X116793427Y-126759727D01*
X116797455Y-126757097D01*
X118154058Y-126228853D01*
X118163010Y-126229045D01*
G37*
G04 #@! TD.AperFunction*
G04 #@! TA.AperFunction,Conductor*
G36*
X134488172Y-89327624D02*
G01*
X134827375Y-89666827D01*
X134830802Y-89675100D01*
X134828462Y-89682120D01*
X134418357Y-90228926D01*
X134410652Y-90233488D01*
X134401977Y-90231266D01*
X134400753Y-90230207D01*
X134162093Y-89992907D01*
X133924795Y-89754249D01*
X133921393Y-89745969D01*
X133924844Y-89737705D01*
X133926064Y-89736649D01*
X134472880Y-89326536D01*
X134481554Y-89324315D01*
X134488172Y-89327624D01*
G37*
G04 #@! TD.AperFunction*
G04 #@! TA.AperFunction,Conductor*
G36*
X138984158Y-88477924D02*
G01*
X138988720Y-88485629D01*
X138988838Y-88487251D01*
X138989800Y-88823800D01*
X138989800Y-88823866D01*
X138988838Y-89160348D01*
X138985387Y-89168612D01*
X138977105Y-89172015D01*
X138975483Y-89171897D01*
X138298845Y-89075235D01*
X138291140Y-89070673D01*
X138288800Y-89063653D01*
X138288800Y-88583947D01*
X138292227Y-88575674D01*
X138298845Y-88572365D01*
X138975484Y-88475702D01*
X138984158Y-88477924D01*
G37*
G04 #@! TD.AperFunction*
G04 #@! TA.AperFunction,Conductor*
G36*
X155778060Y-110922317D02*
G01*
X156295244Y-111351937D01*
X156299418Y-111359860D01*
X156296768Y-111368413D01*
X156296065Y-111369186D01*
X156058355Y-111608259D01*
X156058307Y-111608307D01*
X155820165Y-111845091D01*
X155811883Y-111848494D01*
X155803619Y-111845043D01*
X155802208Y-111843324D01*
X155421669Y-111277044D01*
X155419900Y-111268268D01*
X155423106Y-111262249D01*
X155762312Y-110923043D01*
X155770584Y-110919617D01*
X155778060Y-110922317D01*
G37*
G04 #@! TD.AperFunction*
G04 #@! TA.AperFunction,Conductor*
G36*
X146681737Y-103382812D02*
G01*
X146685207Y-103385208D01*
X147025872Y-103725873D01*
X147027462Y-103727852D01*
X147251759Y-104079316D01*
X147253321Y-104088133D01*
X147248475Y-104095285D01*
X146806531Y-104395785D01*
X146797762Y-104397603D01*
X146792528Y-104395153D01*
X146427251Y-104095285D01*
X146376442Y-104053574D01*
X146372223Y-104045677D01*
X146373198Y-104039729D01*
X146666267Y-103388675D01*
X146672786Y-103382541D01*
X146681737Y-103382812D01*
G37*
G04 #@! TD.AperFunction*
G04 #@! TA.AperFunction,Conductor*
G36*
X146852174Y-103549907D02*
G01*
X147164322Y-103680168D01*
X147170636Y-103686516D01*
X147171237Y-103693499D01*
X147052033Y-104230888D01*
X147046896Y-104238222D01*
X147040611Y-104240054D01*
X146560883Y-104240054D01*
X146552610Y-104236627D01*
X146549214Y-104229200D01*
X146524811Y-103892418D01*
X146500906Y-103562508D01*
X146503726Y-103554010D01*
X146511729Y-103549995D01*
X146512537Y-103549964D01*
X146847641Y-103549006D01*
X146852174Y-103549907D01*
G37*
G04 #@! TD.AperFunction*
G04 #@! TA.AperFunction,Conductor*
G36*
X149329530Y-107025567D02*
G01*
X149670474Y-107443231D01*
X149673051Y-107451807D01*
X149671078Y-107457220D01*
X149368573Y-107901010D01*
X149361081Y-107905916D01*
X149355873Y-107905720D01*
X148783668Y-107752177D01*
X148776565Y-107746723D01*
X148775000Y-107740877D01*
X148775000Y-107257622D01*
X148778427Y-107249349D01*
X148782161Y-107246838D01*
X149315928Y-107022181D01*
X149324882Y-107022131D01*
X149329530Y-107025567D01*
G37*
G04 #@! TD.AperFunction*
G04 #@! TA.AperFunction,Conductor*
G36*
X148767136Y-107151753D02*
G01*
X149443780Y-107248417D01*
X149451485Y-107252979D01*
X149453825Y-107259999D01*
X149453825Y-107739705D01*
X149450398Y-107747978D01*
X149443780Y-107751287D01*
X148767141Y-107847949D01*
X148758466Y-107845727D01*
X148753904Y-107838022D01*
X148753786Y-107836408D01*
X148752825Y-107499852D01*
X148753786Y-107163301D01*
X148757237Y-107155039D01*
X148765519Y-107151636D01*
X148767136Y-107151753D01*
G37*
G04 #@! TD.AperFunction*
G04 #@! TA.AperFunction,Conductor*
G36*
X150120965Y-107290846D02*
G01*
X150127016Y-107297447D01*
X150127526Y-107299311D01*
X150266420Y-108045941D01*
X150266617Y-108048081D01*
X150266617Y-108229506D01*
X150263190Y-108237779D01*
X150254917Y-108241206D01*
X150250450Y-108240320D01*
X149497826Y-107929391D01*
X149491488Y-107923064D01*
X149491405Y-107914297D01*
X149672071Y-107454904D01*
X149678287Y-107448461D01*
X149678936Y-107448201D01*
X150112021Y-107290458D01*
X150120965Y-107290846D01*
G37*
G04 #@! TD.AperFunction*
G04 #@! TA.AperFunction,Conductor*
G36*
X116733006Y-124149372D02*
G01*
X116739331Y-124155711D01*
X116739498Y-124156138D01*
X117255564Y-125558993D01*
X117255204Y-125567940D01*
X117252856Y-125571305D01*
X117051305Y-125772856D01*
X117043032Y-125776283D01*
X117038993Y-125775564D01*
X115636138Y-125259498D01*
X115629556Y-125253425D01*
X115629196Y-125244478D01*
X115629363Y-125244051D01*
X115947438Y-124473783D01*
X115953759Y-124467448D01*
X116724051Y-124149363D01*
X116733006Y-124149372D01*
G37*
G04 #@! TD.AperFunction*
G04 #@! TA.AperFunction,Conductor*
G36*
X151984849Y-121282092D02*
G01*
X152294591Y-121409436D01*
X152300940Y-121415751D01*
X152300963Y-121415808D01*
X152428306Y-121725549D01*
X152428283Y-121734504D01*
X152422973Y-121740331D01*
X151917134Y-122008981D01*
X151908220Y-122009835D01*
X151903373Y-122006921D01*
X151703478Y-121807026D01*
X151700051Y-121798753D01*
X151701416Y-121793269D01*
X151970068Y-121287425D01*
X151976975Y-121281727D01*
X151984849Y-121282092D01*
G37*
G04 #@! TD.AperFunction*
G04 #@! TA.AperFunction,Conductor*
G36*
X125329152Y-115926417D02*
G01*
X126026197Y-116138787D01*
X126033112Y-116144476D01*
X126033979Y-116153389D01*
X126028290Y-116160304D01*
X126026185Y-116161175D01*
X125329250Y-116372730D01*
X125320339Y-116371854D01*
X125320161Y-116371757D01*
X125105509Y-116252266D01*
X125099947Y-116245248D01*
X125099500Y-116242043D01*
X125099500Y-116055833D01*
X125102927Y-116047560D01*
X125105553Y-116045587D01*
X125320173Y-115927382D01*
X125329070Y-115926393D01*
X125329152Y-115926417D01*
G37*
G04 #@! TD.AperFunction*
G04 #@! TA.AperFunction,Conductor*
G36*
X117032209Y-115546027D02*
G01*
X117035604Y-115548389D01*
X117166813Y-115679598D01*
X117170240Y-115687871D01*
X117169769Y-115691158D01*
X116738956Y-117162783D01*
X116733343Y-117169760D01*
X116724440Y-117170725D01*
X116723261Y-117170310D01*
X115953785Y-116852562D01*
X115947447Y-116846238D01*
X115629349Y-116075914D01*
X115629358Y-116066961D01*
X115635697Y-116060636D01*
X115636073Y-116060488D01*
X117023261Y-115545693D01*
X117032209Y-115546027D01*
G37*
G04 #@! TD.AperFunction*
G04 #@! TA.AperFunction,Conductor*
G36*
X116993806Y-95163174D02*
G01*
X116994773Y-95167833D01*
X116994773Y-95349040D01*
X116994617Y-95350945D01*
X116801617Y-96520205D01*
X116796888Y-96527810D01*
X116790073Y-96530000D01*
X115956827Y-96530000D01*
X115948554Y-96526573D01*
X115946013Y-96522766D01*
X115870164Y-96339086D01*
X115629105Y-95755323D01*
X115629114Y-95746370D01*
X115635259Y-95740126D01*
X116978416Y-95157099D01*
X116987368Y-95156950D01*
X116993806Y-95163174D01*
G37*
G04 #@! TD.AperFunction*
G04 #@! TA.AperFunction,Conductor*
G36*
X125330637Y-95726869D02*
G01*
X125607880Y-95811338D01*
X126026265Y-95938808D01*
X126033180Y-95944497D01*
X126034047Y-95953410D01*
X126028358Y-95960325D01*
X126026265Y-95961192D01*
X125329251Y-96173552D01*
X125320338Y-96172685D01*
X125320159Y-96172588D01*
X125105518Y-96053343D01*
X125099950Y-96046329D01*
X125099500Y-96043115D01*
X125099500Y-95856884D01*
X125102927Y-95848611D01*
X125105514Y-95846658D01*
X125318932Y-95728092D01*
X125323444Y-95726682D01*
X125326070Y-95726420D01*
X125330637Y-95726869D01*
G37*
G04 #@! TD.AperFunction*
G04 #@! TA.AperFunction,Conductor*
G36*
X125329194Y-105826430D02*
G01*
X126026266Y-106038808D01*
X126033180Y-106044496D01*
X126034047Y-106053409D01*
X126028358Y-106060324D01*
X126026265Y-106061191D01*
X125329572Y-106273454D01*
X125325154Y-106273919D01*
X125324564Y-106273868D01*
X125319890Y-106272439D01*
X125105518Y-106153343D01*
X125099950Y-106146329D01*
X125099500Y-106143115D01*
X125099500Y-105956884D01*
X125102927Y-105948611D01*
X125105514Y-105946658D01*
X125320160Y-105827410D01*
X125329055Y-105826389D01*
X125329194Y-105826430D01*
G37*
G04 #@! TD.AperFunction*
G04 #@! TA.AperFunction,Conductor*
G36*
X116950114Y-105298029D02*
G01*
X116951215Y-105302984D01*
X116951215Y-105483869D01*
X116951124Y-105485325D01*
X116801285Y-106679756D01*
X116796855Y-106687539D01*
X116789676Y-106690000D01*
X115956827Y-106690000D01*
X115948554Y-106686573D01*
X115946013Y-106682766D01*
X115628985Y-105915033D01*
X115628994Y-105906078D01*
X115634842Y-105899969D01*
X116934561Y-105292384D01*
X116943506Y-105291986D01*
X116950114Y-105298029D01*
G37*
G04 #@! TD.AperFunction*
G04 #@! TA.AperFunction,Conductor*
G36*
X116986385Y-110435541D02*
G01*
X116990105Y-110438046D01*
X117121320Y-110569261D01*
X117124747Y-110577534D01*
X117124379Y-110580445D01*
X116738648Y-112082237D01*
X116733271Y-112089397D01*
X116724405Y-112090658D01*
X116722850Y-112090140D01*
X115953785Y-111772562D01*
X115947447Y-111766238D01*
X115629211Y-110995580D01*
X115629220Y-110986626D01*
X115635559Y-110980301D01*
X115635582Y-110980291D01*
X116977432Y-110435478D01*
X116986385Y-110435541D01*
G37*
G04 #@! TD.AperFunction*
G04 #@! TA.AperFunction,Conductor*
G36*
X125329152Y-114626417D02*
G01*
X126026197Y-114838787D01*
X126033112Y-114844476D01*
X126033979Y-114853389D01*
X126028290Y-114860304D01*
X126026185Y-114861175D01*
X125329250Y-115072730D01*
X125320339Y-115071854D01*
X125320161Y-115071757D01*
X125105509Y-114952266D01*
X125099947Y-114945248D01*
X125099500Y-114942043D01*
X125099500Y-114755833D01*
X125102927Y-114747560D01*
X125105553Y-114745587D01*
X125320173Y-114627382D01*
X125329070Y-114626393D01*
X125329152Y-114626417D01*
G37*
G04 #@! TD.AperFunction*
G04 #@! TA.AperFunction,Conductor*
G36*
X125329189Y-116576428D02*
G01*
X126026197Y-116788787D01*
X126033112Y-116794476D01*
X126033979Y-116803389D01*
X126028290Y-116810304D01*
X126026185Y-116811175D01*
X125329250Y-117022730D01*
X125320339Y-117021854D01*
X125320161Y-117021757D01*
X125105509Y-116902266D01*
X125099947Y-116895248D01*
X125099500Y-116892043D01*
X125099500Y-116705833D01*
X125102927Y-116697560D01*
X125105553Y-116695587D01*
X125320174Y-116577382D01*
X125329069Y-116576393D01*
X125329189Y-116576428D01*
G37*
G04 #@! TD.AperFunction*
G04 #@! TA.AperFunction,Conductor*
G36*
X117096790Y-118092155D02*
G01*
X117102761Y-118098829D01*
X117103420Y-118102700D01*
X117103420Y-118284717D01*
X117103050Y-118287636D01*
X116738656Y-119702241D01*
X116733274Y-119709397D01*
X116724407Y-119710652D01*
X116722857Y-119710134D01*
X116254163Y-119516242D01*
X115953487Y-119391856D01*
X115947153Y-119385527D01*
X115947146Y-119385511D01*
X115629434Y-118616121D01*
X115629443Y-118607166D01*
X115635782Y-118600841D01*
X115636377Y-118600614D01*
X117087851Y-118091659D01*
X117096790Y-118092155D01*
G37*
G04 #@! TD.AperFunction*
G04 #@! TA.AperFunction,Conductor*
G36*
X117047482Y-102856191D02*
G01*
X117050773Y-102858504D01*
X117181977Y-102989708D01*
X117185404Y-102997981D01*
X117184895Y-103001395D01*
X116739054Y-104462966D01*
X116733362Y-104469879D01*
X116724449Y-104470743D01*
X116723397Y-104470366D01*
X115953785Y-104152562D01*
X115947447Y-104146238D01*
X115629395Y-103376025D01*
X115629404Y-103367071D01*
X115635743Y-103360746D01*
X115636221Y-103360561D01*
X117038539Y-102855769D01*
X117047482Y-102856191D01*
G37*
G04 #@! TD.AperFunction*
G04 #@! TA.AperFunction,Conductor*
G36*
X125330637Y-105176869D02*
G01*
X126026266Y-105388808D01*
X126033180Y-105394496D01*
X126034047Y-105403409D01*
X126028358Y-105410324D01*
X126026265Y-105411191D01*
X125329572Y-105623454D01*
X125325154Y-105623919D01*
X125324564Y-105623868D01*
X125319890Y-105622439D01*
X125105518Y-105503343D01*
X125099950Y-105496329D01*
X125099500Y-105493115D01*
X125099500Y-105306884D01*
X125102927Y-105298611D01*
X125105514Y-105296658D01*
X125318932Y-105178092D01*
X125323444Y-105176682D01*
X125326070Y-105176420D01*
X125330637Y-105176869D01*
G37*
G04 #@! TD.AperFunction*
G04 #@! TA.AperFunction,Conductor*
G36*
X125329194Y-94426430D02*
G01*
X126026266Y-94638808D01*
X126033180Y-94644496D01*
X126034047Y-94653409D01*
X126028358Y-94660324D01*
X126026265Y-94661191D01*
X125329572Y-94873454D01*
X125325154Y-94873919D01*
X125324564Y-94873868D01*
X125319890Y-94872439D01*
X125105518Y-94753343D01*
X125099950Y-94746329D01*
X125099500Y-94743115D01*
X125099500Y-94556884D01*
X125102927Y-94548611D01*
X125105514Y-94546658D01*
X125320160Y-94427410D01*
X125329055Y-94426389D01*
X125329194Y-94426430D01*
G37*
G04 #@! TD.AperFunction*
G04 #@! TA.AperFunction,Conductor*
G36*
X117075045Y-90127011D02*
G01*
X117081148Y-90133564D01*
X117081887Y-90137655D01*
X117081887Y-90319426D01*
X117081568Y-90322138D01*
X116738477Y-91761938D01*
X116733226Y-91769192D01*
X116724384Y-91770607D01*
X116722623Y-91770037D01*
X115953487Y-91451856D01*
X115947153Y-91445527D01*
X115947146Y-91445511D01*
X115629340Y-90675892D01*
X115629349Y-90666939D01*
X115635688Y-90660614D01*
X115636023Y-90660482D01*
X117066096Y-90126694D01*
X117075045Y-90127011D01*
G37*
G04 #@! TD.AperFunction*
G04 #@! TA.AperFunction,Conductor*
G36*
X117083437Y-97800129D02*
G01*
X117086490Y-97802327D01*
X117217672Y-97933509D01*
X117221099Y-97941782D01*
X117220494Y-97945495D01*
X116739275Y-99383396D01*
X116733400Y-99390154D01*
X116724467Y-99390778D01*
X116723714Y-99390497D01*
X115953785Y-99072562D01*
X115947447Y-99066238D01*
X115629502Y-98296284D01*
X115629511Y-98287330D01*
X115635850Y-98281005D01*
X115636581Y-98280731D01*
X117074506Y-97799505D01*
X117083437Y-97800129D01*
G37*
G04 #@! TD.AperFunction*
G04 #@! TA.AperFunction,Conductor*
G36*
X125330637Y-96376869D02*
G01*
X125607880Y-96461338D01*
X126026265Y-96588808D01*
X126033180Y-96594497D01*
X126034047Y-96603410D01*
X126028358Y-96610325D01*
X126026265Y-96611192D01*
X125329251Y-96823552D01*
X125320338Y-96822685D01*
X125320159Y-96822588D01*
X125105518Y-96703343D01*
X125099950Y-96696329D01*
X125099500Y-96693115D01*
X125099500Y-96506884D01*
X125102927Y-96498611D01*
X125105514Y-96496658D01*
X125318932Y-96378092D01*
X125323444Y-96376682D01*
X125326070Y-96376420D01*
X125330637Y-96376869D01*
G37*
G04 #@! TD.AperFunction*
G04 #@! TA.AperFunction,Conductor*
G36*
X117047482Y-113016191D02*
G01*
X117050773Y-113018504D01*
X117181977Y-113149708D01*
X117185404Y-113157981D01*
X117184895Y-113161395D01*
X116739054Y-114622966D01*
X116733362Y-114629879D01*
X116724449Y-114630743D01*
X116723397Y-114630366D01*
X115953785Y-114312562D01*
X115947447Y-114306238D01*
X115629395Y-113536025D01*
X115629404Y-113527071D01*
X115635743Y-113520746D01*
X115636221Y-113520561D01*
X117038539Y-113015769D01*
X117047482Y-113016191D01*
G37*
G04 #@! TD.AperFunction*
G04 #@! TA.AperFunction,Conductor*
G36*
X125329189Y-115276428D02*
G01*
X126026197Y-115488787D01*
X126033112Y-115494476D01*
X126033979Y-115503389D01*
X126028290Y-115510304D01*
X126026185Y-115511175D01*
X125329250Y-115722730D01*
X125320339Y-115721854D01*
X125320161Y-115721757D01*
X125105509Y-115602266D01*
X125099947Y-115595248D01*
X125099500Y-115592043D01*
X125099500Y-115405833D01*
X125102927Y-115397560D01*
X125105553Y-115395587D01*
X125320174Y-115277382D01*
X125329069Y-115276393D01*
X125329189Y-115276428D01*
G37*
G04 #@! TD.AperFunction*
G04 #@! TA.AperFunction,Conductor*
G36*
X125329194Y-95076430D02*
G01*
X125730219Y-95198611D01*
X126026265Y-95288808D01*
X126033180Y-95294497D01*
X126034047Y-95303410D01*
X126028358Y-95310325D01*
X126026265Y-95311192D01*
X125329251Y-95523552D01*
X125320338Y-95522685D01*
X125320159Y-95522588D01*
X125105518Y-95403343D01*
X125099950Y-95396329D01*
X125099500Y-95393115D01*
X125099500Y-95206884D01*
X125102927Y-95198611D01*
X125105514Y-95196658D01*
X125320160Y-95077410D01*
X125329055Y-95076389D01*
X125329194Y-95076430D01*
G37*
G04 #@! TD.AperFunction*
G04 #@! TA.AperFunction,Conductor*
G36*
X116997767Y-92667256D02*
G01*
X117003988Y-92673696D01*
X117004803Y-92677986D01*
X117004803Y-92859748D01*
X117004615Y-92861836D01*
X116801743Y-93980388D01*
X116796895Y-93987917D01*
X116790231Y-93990000D01*
X115956827Y-93990000D01*
X115948554Y-93986573D01*
X115946013Y-93982766D01*
X115866734Y-93790781D01*
X115629257Y-93215691D01*
X115629266Y-93206738D01*
X115635605Y-93200413D01*
X115635740Y-93200358D01*
X116988814Y-92667101D01*
X116997767Y-92667256D01*
G37*
G04 #@! TD.AperFunction*
G04 #@! TA.AperFunction,Conductor*
G36*
X125329194Y-104526430D02*
G01*
X125730219Y-104648611D01*
X126026265Y-104738808D01*
X126033180Y-104744497D01*
X126034047Y-104753410D01*
X126028358Y-104760325D01*
X126026265Y-104761192D01*
X125329251Y-104973552D01*
X125320338Y-104972685D01*
X125320159Y-104972588D01*
X125105518Y-104853343D01*
X125099950Y-104846329D01*
X125099500Y-104843115D01*
X125099500Y-104656884D01*
X125102927Y-104648611D01*
X125105514Y-104646658D01*
X125320160Y-104527410D01*
X125329055Y-104526389D01*
X125329194Y-104526430D01*
G37*
G04 #@! TD.AperFunction*
G04 #@! TA.AperFunction,Conductor*
G36*
X117016935Y-100295863D02*
G01*
X117020436Y-100298273D01*
X117151650Y-100429487D01*
X117155077Y-100437760D01*
X117154642Y-100440921D01*
X116738856Y-101922601D01*
X116733321Y-101929641D01*
X116724430Y-101930705D01*
X116723125Y-101930254D01*
X115953785Y-101612562D01*
X115947447Y-101606238D01*
X115629303Y-100835802D01*
X115629312Y-100826849D01*
X115635651Y-100820524D01*
X115635859Y-100820440D01*
X117007985Y-100295618D01*
X117016935Y-100295863D01*
G37*
G04 #@! TD.AperFunction*
G04 #@! TA.AperFunction,Conductor*
G36*
X116974941Y-107887934D02*
G01*
X117106154Y-108019147D01*
X117109581Y-108027420D01*
X117109244Y-108030206D01*
X116738540Y-109542055D01*
X116733242Y-109549274D01*
X116724391Y-109550632D01*
X116722711Y-109550083D01*
X115953785Y-109232562D01*
X115947447Y-109226238D01*
X115629164Y-108455466D01*
X115629173Y-108446513D01*
X115635462Y-108440209D01*
X116962154Y-107885412D01*
X116971109Y-107885383D01*
X116974941Y-107887934D01*
G37*
G04 #@! TD.AperFunction*
G04 #@! TA.AperFunction,Conductor*
G36*
X125329194Y-106476430D02*
G01*
X125730219Y-106598611D01*
X126026265Y-106688808D01*
X126033180Y-106694497D01*
X126034047Y-106703410D01*
X126028358Y-106710325D01*
X126026265Y-106711192D01*
X125329251Y-106923552D01*
X125320338Y-106922685D01*
X125320159Y-106922588D01*
X125105518Y-106803343D01*
X125099950Y-106796329D01*
X125099500Y-106793115D01*
X125099500Y-106606884D01*
X125102927Y-106598611D01*
X125105514Y-106596658D01*
X125320160Y-106477410D01*
X125329055Y-106476389D01*
X125329194Y-106476430D01*
G37*
G04 #@! TD.AperFunction*
G04 #@! TA.AperFunction,Conductor*
G36*
X154136109Y-100053363D02*
G01*
X154139536Y-100061636D01*
X154137844Y-100067697D01*
X153764750Y-100683774D01*
X153757533Y-100689075D01*
X153750293Y-100688534D01*
X153440708Y-100561257D01*
X153434360Y-100554943D01*
X153306307Y-100244837D01*
X153306317Y-100235883D01*
X153311604Y-100230054D01*
X153646016Y-100051316D01*
X153651531Y-100049936D01*
X154127836Y-100049936D01*
X154136109Y-100053363D01*
G37*
G04 #@! TD.AperFunction*
G04 #@! TA.AperFunction,Conductor*
G36*
X153911132Y-98611020D02*
G01*
X153912553Y-98612441D01*
X154380229Y-99168312D01*
X154382933Y-99176848D01*
X154382282Y-99179813D01*
X154151388Y-99820069D01*
X154145358Y-99826689D01*
X154140382Y-99827800D01*
X153656937Y-99827800D01*
X153648664Y-99824373D01*
X153645878Y-99819919D01*
X153424796Y-99179743D01*
X153425334Y-99170805D01*
X153426898Y-99168398D01*
X153894647Y-98612440D01*
X153902596Y-98608316D01*
X153911132Y-98611020D01*
G37*
G04 #@! TD.AperFunction*
G04 #@! TA.AperFunction,Conductor*
G36*
X157333368Y-97179665D02*
G01*
X157336808Y-97182255D01*
X157674913Y-97552264D01*
X157677964Y-97560683D01*
X157674168Y-97568793D01*
X157672980Y-97569745D01*
X157252416Y-97863760D01*
X157243672Y-97865692D01*
X157237480Y-97862486D01*
X156823580Y-97452717D01*
X156820112Y-97444461D01*
X156823495Y-97436173D01*
X156954708Y-97304960D01*
X156959239Y-97302149D01*
X157324435Y-97179060D01*
X157333368Y-97179665D01*
G37*
G04 #@! TD.AperFunction*
G04 #@! TA.AperFunction,Conductor*
G36*
X148597587Y-89619023D02*
G01*
X148599097Y-89620297D01*
X149434420Y-90455620D01*
X149437847Y-90463893D01*
X149436917Y-90468463D01*
X149216536Y-90987821D01*
X149214039Y-90991524D01*
X149010591Y-91194972D01*
X149002318Y-91198399D01*
X148995429Y-91196156D01*
X147995955Y-90467998D01*
X147991286Y-90460356D01*
X147993296Y-90451779D01*
X148581278Y-89621806D01*
X148588856Y-89617037D01*
X148597587Y-89619023D01*
G37*
G04 #@! TD.AperFunction*
G04 #@! TA.AperFunction,Conductor*
G36*
X158128478Y-97257315D02*
G01*
X158644325Y-97564595D01*
X158649679Y-97571773D01*
X158648389Y-97580635D01*
X158646610Y-97582920D01*
X158306629Y-97922901D01*
X158299554Y-97926267D01*
X157965103Y-97960689D01*
X157956522Y-97958127D01*
X157954266Y-97955682D01*
X157696214Y-97580635D01*
X157689074Y-97570258D01*
X157687209Y-97561502D01*
X157692009Y-97554040D01*
X158115786Y-97257777D01*
X158124530Y-97255846D01*
X158128478Y-97257315D01*
G37*
G04 #@! TD.AperFunction*
G04 #@! TA.AperFunction,Conductor*
G36*
X161607864Y-97415398D02*
G01*
X161611291Y-97423671D01*
X161610233Y-97428533D01*
X160987783Y-98790825D01*
X160981228Y-98796926D01*
X160972675Y-98796777D01*
X160205034Y-98479787D01*
X160198695Y-98473462D01*
X160197800Y-98468973D01*
X160197800Y-97635477D01*
X160201227Y-97627204D01*
X160207305Y-97623985D01*
X161231051Y-97428533D01*
X161316711Y-97412179D01*
X161318905Y-97411971D01*
X161599591Y-97411971D01*
X161607864Y-97415398D01*
G37*
G04 #@! TD.AperFunction*
G04 #@! TA.AperFunction,Conductor*
G36*
X160193244Y-97629850D02*
G01*
X160197713Y-97637611D01*
X160197811Y-97639114D01*
X160198502Y-98471646D01*
X160195082Y-98479922D01*
X160195065Y-98479939D01*
X159604463Y-99069155D01*
X159596186Y-99072572D01*
X159588536Y-99069712D01*
X158538294Y-98159185D01*
X158534288Y-98151177D01*
X158537118Y-98142681D01*
X158537671Y-98142086D01*
X158879542Y-97800215D01*
X158886299Y-97796887D01*
X160184598Y-97627522D01*
X160193244Y-97629850D01*
G37*
G04 #@! TD.AperFunction*
G04 #@! TA.AperFunction,Conductor*
G36*
X143643795Y-97773678D02*
G01*
X143650232Y-97779901D01*
X143651200Y-97784560D01*
X143651200Y-97968639D01*
X143647773Y-97976912D01*
X143643794Y-97979522D01*
X143095812Y-98195746D01*
X143086859Y-98195595D01*
X143080720Y-98189369D01*
X142993150Y-97979522D01*
X142952079Y-97881105D01*
X142952057Y-97872151D01*
X142952080Y-97872094D01*
X143080720Y-97563829D01*
X143087069Y-97557515D01*
X143095811Y-97557453D01*
X143643795Y-97773678D01*
G37*
G04 #@! TD.AperFunction*
G04 #@! TA.AperFunction,Conductor*
G36*
X127782187Y-99304597D02*
G01*
X128100857Y-99552764D01*
X128201487Y-99631131D01*
X128205909Y-99638918D01*
X128205472Y-99643832D01*
X128027556Y-100216770D01*
X128021829Y-100223654D01*
X128016382Y-100225000D01*
X127533618Y-100225000D01*
X127525345Y-100221573D01*
X127522444Y-100216770D01*
X127344527Y-99643832D01*
X127345347Y-99634915D01*
X127348510Y-99631132D01*
X127767811Y-99304597D01*
X127776444Y-99302218D01*
X127782187Y-99304597D01*
G37*
G04 #@! TD.AperFunction*
G04 #@! TA.AperFunction,Conductor*
G36*
X128023307Y-99661294D02*
G01*
X128026585Y-99667706D01*
X128135221Y-100341878D01*
X128133154Y-100350591D01*
X128125531Y-100355290D01*
X128123703Y-100355439D01*
X127787433Y-100356399D01*
X127787367Y-100356399D01*
X127450623Y-100355437D01*
X127442359Y-100351986D01*
X127438956Y-100343704D01*
X127439046Y-100342292D01*
X127523714Y-99668109D01*
X127528145Y-99660327D01*
X127535323Y-99657867D01*
X128015034Y-99657867D01*
X128023307Y-99661294D01*
G37*
G04 #@! TD.AperFunction*
G04 #@! TA.AperFunction,Conductor*
G36*
X129902816Y-119053383D02*
G01*
X129907204Y-119057074D01*
X130221080Y-119493165D01*
X130223132Y-119501882D01*
X130221080Y-119506835D01*
X129907204Y-119942925D01*
X129899590Y-119947638D01*
X129893877Y-119947145D01*
X129332869Y-119752727D01*
X129326174Y-119746780D01*
X129325000Y-119741672D01*
X129325000Y-119258327D01*
X129328427Y-119250054D01*
X129332865Y-119247274D01*
X129893877Y-119052854D01*
X129902816Y-119053383D01*
G37*
G04 #@! TD.AperFunction*
G04 #@! TA.AperFunction,Conductor*
G36*
X128963311Y-119151901D02*
G01*
X129639955Y-119248565D01*
X129647660Y-119253127D01*
X129650000Y-119260147D01*
X129650000Y-119739853D01*
X129646573Y-119748126D01*
X129639955Y-119751435D01*
X128963316Y-119848097D01*
X128954641Y-119845875D01*
X128950079Y-119838170D01*
X128949961Y-119836556D01*
X128949000Y-119500000D01*
X128949961Y-119163449D01*
X128953412Y-119155187D01*
X128961694Y-119151784D01*
X128963311Y-119151901D01*
G37*
G04 #@! TD.AperFunction*
G04 #@! TA.AperFunction,Conductor*
G36*
X146247196Y-105090252D02*
G01*
X146968290Y-105495014D01*
X146973827Y-105502052D01*
X146973458Y-105509483D01*
X146802640Y-105945768D01*
X146796432Y-105952222D01*
X146795718Y-105952507D01*
X146333771Y-106119277D01*
X146324826Y-106118863D01*
X146319956Y-106114599D01*
X145891012Y-105447397D01*
X145889421Y-105438585D01*
X145892579Y-105432799D01*
X146233197Y-105092181D01*
X146241469Y-105088755D01*
X146247196Y-105090252D01*
G37*
G04 #@! TD.AperFunction*
G04 #@! TA.AperFunction,Conductor*
G36*
X145674967Y-104242230D02*
G01*
X145679833Y-104246737D01*
X146084442Y-104927716D01*
X146085721Y-104936578D01*
X146082656Y-104941964D01*
X145742033Y-105282587D01*
X145733760Y-105286014D01*
X145727680Y-105284310D01*
X145022153Y-104855200D01*
X145016865Y-104847973D01*
X145017415Y-104840747D01*
X145197265Y-104404214D01*
X145203584Y-104397872D01*
X145204316Y-104397596D01*
X145666035Y-104241631D01*
X145674967Y-104242230D01*
G37*
G04 #@! TD.AperFunction*
G04 #@! TA.AperFunction,Conductor*
G36*
X126026266Y-103438808D02*
G01*
X126033180Y-103444496D01*
X126034047Y-103453409D01*
X126028358Y-103460324D01*
X126026265Y-103461191D01*
X125328070Y-103673912D01*
X125320960Y-103673820D01*
X125107500Y-103602666D01*
X125100735Y-103596798D01*
X125099500Y-103591566D01*
X125099500Y-103308433D01*
X125102927Y-103300160D01*
X125107498Y-103297333D01*
X125320963Y-103226178D01*
X125328067Y-103226087D01*
X126026266Y-103438808D01*
G37*
G04 #@! TD.AperFunction*
G04 #@! TA.AperFunction,Conductor*
G36*
X125341726Y-103297466D02*
G01*
X125348633Y-103303165D01*
X125350000Y-103308653D01*
X125350000Y-103591346D01*
X125346573Y-103599619D01*
X125341726Y-103602533D01*
X124794079Y-103770252D01*
X124785165Y-103769398D01*
X124779855Y-103763571D01*
X124650880Y-103454506D01*
X124650857Y-103445551D01*
X124650880Y-103445494D01*
X124711596Y-103300000D01*
X124779855Y-103136427D01*
X124786204Y-103130113D01*
X124794077Y-103129747D01*
X125341726Y-103297466D01*
G37*
G04 #@! TD.AperFunction*
G04 #@! TA.AperFunction,Conductor*
G36*
X141804341Y-89781497D02*
G01*
X142475981Y-90074735D01*
X142482192Y-90081186D01*
X142483000Y-90085458D01*
X142483000Y-90570141D01*
X142479573Y-90578414D01*
X142475981Y-90580864D01*
X141804343Y-90874101D01*
X141795390Y-90874270D01*
X141790313Y-90870413D01*
X141572429Y-90580864D01*
X141387292Y-90334833D01*
X141385057Y-90326164D01*
X141387292Y-90320767D01*
X141790314Y-89785184D01*
X141798026Y-89780636D01*
X141804341Y-89781497D01*
G37*
G04 #@! TD.AperFunction*
G04 #@! TA.AperFunction,Conductor*
G36*
X156839126Y-99354027D02*
G01*
X156842435Y-99360645D01*
X156939097Y-100037283D01*
X156936875Y-100045958D01*
X156929170Y-100050520D01*
X156927548Y-100050638D01*
X156591033Y-100051599D01*
X156590967Y-100051599D01*
X156254451Y-100050638D01*
X156246187Y-100047187D01*
X156242784Y-100038905D01*
X156242902Y-100037283D01*
X156339565Y-99360645D01*
X156344127Y-99352940D01*
X156351147Y-99350600D01*
X156830853Y-99350600D01*
X156839126Y-99354027D01*
G37*
G04 #@! TD.AperFunction*
G04 #@! TA.AperFunction,Conductor*
G36*
X126026266Y-93338808D02*
G01*
X126033180Y-93344496D01*
X126034047Y-93353409D01*
X126028358Y-93360324D01*
X126026265Y-93361191D01*
X125328070Y-93573912D01*
X125320960Y-93573820D01*
X125107500Y-93502666D01*
X125100735Y-93496798D01*
X125099500Y-93491566D01*
X125099500Y-93208433D01*
X125102927Y-93200160D01*
X125107498Y-93197333D01*
X125320963Y-93126178D01*
X125328067Y-93126087D01*
X126026266Y-93338808D01*
G37*
G04 #@! TD.AperFunction*
G04 #@! TA.AperFunction,Conductor*
G36*
X125337227Y-93197242D02*
G01*
X125343885Y-93203230D01*
X125345027Y-93208273D01*
X125345027Y-93490991D01*
X125341600Y-93499264D01*
X125336318Y-93502302D01*
X124793800Y-93645750D01*
X124784926Y-93644552D01*
X124780011Y-93638945D01*
X124650880Y-93329506D01*
X124650857Y-93320551D01*
X124650880Y-93320494D01*
X124779677Y-93011854D01*
X124786025Y-93005541D01*
X124794374Y-93005331D01*
X125337227Y-93197242D01*
G37*
G04 #@! TD.AperFunction*
G04 #@! TA.AperFunction,Conductor*
G36*
X150979350Y-106488130D02*
G01*
X151476580Y-106975341D01*
X151480090Y-106983578D01*
X151478650Y-106989321D01*
X151228163Y-107446226D01*
X151221181Y-107451834D01*
X151220751Y-107451950D01*
X150786733Y-107560828D01*
X150777875Y-107559518D01*
X150772538Y-107552327D01*
X150772459Y-107551990D01*
X150618869Y-106839808D01*
X150620475Y-106831001D01*
X150622028Y-106829076D01*
X150962890Y-106488214D01*
X150971162Y-106484788D01*
X150979350Y-106488130D01*
G37*
G04 #@! TD.AperFunction*
G04 #@! TA.AperFunction,Conductor*
G36*
X150454494Y-105824543D02*
G01*
X150455557Y-105825773D01*
X150865662Y-106372579D01*
X150867884Y-106381254D01*
X150864575Y-106387872D01*
X150525372Y-106727075D01*
X150517099Y-106730502D01*
X150510079Y-106728162D01*
X149963273Y-106318057D01*
X149958711Y-106310352D01*
X149960933Y-106301677D01*
X149961978Y-106300467D01*
X150199293Y-106061793D01*
X150437951Y-105824494D01*
X150446230Y-105821093D01*
X150454494Y-105824543D01*
G37*
G04 #@! TD.AperFunction*
G04 #@! TA.AperFunction,Conductor*
G36*
X128106122Y-119052854D02*
G01*
X128667132Y-119247273D01*
X128673826Y-119253219D01*
X128675000Y-119258327D01*
X128675000Y-119741672D01*
X128671573Y-119749945D01*
X128667131Y-119752727D01*
X128106122Y-119947145D01*
X128097183Y-119946616D01*
X128092795Y-119942925D01*
X127778919Y-119506835D01*
X127776867Y-119498118D01*
X127778919Y-119493165D01*
X128092795Y-119057073D01*
X128100409Y-119052361D01*
X128106122Y-119052854D01*
G37*
G04 #@! TD.AperFunction*
G04 #@! TA.AperFunction,Conductor*
G36*
X128945358Y-119154124D02*
G01*
X128949920Y-119161829D01*
X128950038Y-119163451D01*
X128951000Y-119500000D01*
X128951000Y-119500066D01*
X128950038Y-119836548D01*
X128946587Y-119844812D01*
X128938305Y-119848215D01*
X128936683Y-119848097D01*
X128260045Y-119751435D01*
X128252340Y-119746873D01*
X128250000Y-119739853D01*
X128250000Y-119260147D01*
X128253427Y-119251874D01*
X128260045Y-119248565D01*
X128936684Y-119151902D01*
X128945358Y-119154124D01*
G37*
G04 #@! TD.AperFunction*
G04 #@! TA.AperFunction,Conductor*
G36*
X156351822Y-99811533D02*
G01*
X156353045Y-99812591D01*
X156591707Y-100049893D01*
X156829003Y-100288549D01*
X156832406Y-100296830D01*
X156828955Y-100305094D01*
X156827726Y-100306157D01*
X156280920Y-100716262D01*
X156272245Y-100718484D01*
X156265627Y-100715175D01*
X155926424Y-100375972D01*
X155922997Y-100367699D01*
X155925336Y-100360680D01*
X156335443Y-99813871D01*
X156343147Y-99809311D01*
X156351822Y-99811533D01*
G37*
G04 #@! TD.AperFunction*
G04 #@! TA.AperFunction,Conductor*
G36*
X130232187Y-99304597D02*
G01*
X130550857Y-99552764D01*
X130651487Y-99631131D01*
X130655909Y-99638918D01*
X130655472Y-99643832D01*
X130477556Y-100216770D01*
X130471829Y-100223654D01*
X130466382Y-100225000D01*
X129983618Y-100225000D01*
X129975345Y-100221573D01*
X129972444Y-100216770D01*
X129794527Y-99643832D01*
X129795347Y-99634915D01*
X129798510Y-99631132D01*
X130217811Y-99304597D01*
X130226444Y-99302218D01*
X130232187Y-99304597D01*
G37*
G04 #@! TD.AperFunction*
G04 #@! TA.AperFunction,Conductor*
G36*
X130473126Y-99658827D02*
G01*
X130476435Y-99665445D01*
X130573097Y-100342083D01*
X130570875Y-100350758D01*
X130563170Y-100355320D01*
X130561548Y-100355438D01*
X130225033Y-100356399D01*
X130224967Y-100356399D01*
X129888451Y-100355438D01*
X129880187Y-100351987D01*
X129876784Y-100343705D01*
X129876902Y-100342083D01*
X129973565Y-99665445D01*
X129978127Y-99657740D01*
X129985147Y-99655400D01*
X130464853Y-99655400D01*
X130473126Y-99658827D01*
G37*
G04 #@! TD.AperFunction*
G04 #@! TA.AperFunction,Conductor*
G36*
X130232187Y-109404597D02*
G01*
X130550857Y-109652764D01*
X130651487Y-109731131D01*
X130655909Y-109738918D01*
X130655472Y-109743832D01*
X130477556Y-110316770D01*
X130471829Y-110323654D01*
X130466382Y-110325000D01*
X129983618Y-110325000D01*
X129975345Y-110321573D01*
X129972444Y-110316770D01*
X129794527Y-109743832D01*
X129795347Y-109734915D01*
X129798510Y-109731132D01*
X130217811Y-109404597D01*
X130226444Y-109402218D01*
X130232187Y-109404597D01*
G37*
G04 #@! TD.AperFunction*
G04 #@! TA.AperFunction,Conductor*
G36*
X130472773Y-109747520D02*
G01*
X130476132Y-109754531D01*
X130548998Y-110426275D01*
X130546483Y-110434870D01*
X130538628Y-110439169D01*
X130537399Y-110439237D01*
X130200433Y-110440199D01*
X130200367Y-110440199D01*
X129864343Y-110439239D01*
X129856079Y-110435788D01*
X129852676Y-110427506D01*
X129852860Y-110425475D01*
X129973273Y-109753729D01*
X129978105Y-109746190D01*
X129984789Y-109744093D01*
X130464500Y-109744093D01*
X130472773Y-109747520D01*
G37*
G04 #@! TD.AperFunction*
G04 #@! TA.AperFunction,Conductor*
G36*
X145811745Y-106597070D02*
G01*
X146152389Y-106937714D01*
X146155816Y-106945987D01*
X146153905Y-106952395D01*
X145705395Y-107637574D01*
X145697997Y-107642619D01*
X145690958Y-107641903D01*
X145567568Y-107588487D01*
X145254201Y-107452831D01*
X145247970Y-107446400D01*
X145247688Y-107445603D01*
X145102611Y-106984182D01*
X145103398Y-106975264D01*
X145108177Y-106970399D01*
X145797880Y-106595065D01*
X145806784Y-106594122D01*
X145811745Y-106597070D01*
G37*
G04 #@! TD.AperFunction*
G04 #@! TA.AperFunction,Conductor*
G36*
X146333963Y-105791631D02*
G01*
X146795661Y-105947588D01*
X146802403Y-105953483D01*
X146802735Y-105954216D01*
X146982583Y-106390747D01*
X146982566Y-106399702D01*
X146977845Y-106405200D01*
X146272319Y-106834310D01*
X146263470Y-106835682D01*
X146257966Y-106832587D01*
X145917343Y-106491964D01*
X145913916Y-106483691D01*
X145915557Y-106477717D01*
X146320166Y-105796739D01*
X146327335Y-105791379D01*
X146333963Y-105791631D01*
G37*
G04 #@! TD.AperFunction*
G04 #@! TA.AperFunction,Conductor*
G36*
X147143832Y-105519527D02*
G01*
X147156665Y-105523512D01*
X147716770Y-105697444D01*
X147723654Y-105703171D01*
X147725000Y-105708618D01*
X147725000Y-106191381D01*
X147721573Y-106199654D01*
X147716770Y-106202555D01*
X147143832Y-106380472D01*
X147134915Y-106379652D01*
X147131131Y-106376487D01*
X146986978Y-106191381D01*
X146804597Y-105957188D01*
X146802218Y-105948556D01*
X146804597Y-105942812D01*
X147131132Y-105523511D01*
X147138918Y-105519090D01*
X147143832Y-105519527D01*
G37*
G04 #@! TD.AperFunction*
G04 #@! TA.AperFunction,Conductor*
G36*
X147534205Y-105700218D02*
G01*
X148188549Y-105712288D01*
X148196756Y-105715867D01*
X148200032Y-105723953D01*
X148200993Y-106060138D01*
X148200091Y-106064677D01*
X148070279Y-106375749D01*
X148063930Y-106382064D01*
X148055696Y-106382314D01*
X147530293Y-106202705D01*
X147523574Y-106196786D01*
X147522378Y-106191634D01*
X147522378Y-105711917D01*
X147525805Y-105703644D01*
X147534078Y-105700217D01*
X147534205Y-105700218D01*
G37*
G04 #@! TD.AperFunction*
G04 #@! TA.AperFunction,Conductor*
G36*
X126026266Y-113538808D02*
G01*
X126033180Y-113544496D01*
X126034047Y-113553409D01*
X126028358Y-113560324D01*
X126026265Y-113561191D01*
X125328070Y-113773912D01*
X125320960Y-113773820D01*
X125107500Y-113702666D01*
X125100735Y-113696798D01*
X125099500Y-113691566D01*
X125099500Y-113408433D01*
X125102927Y-113400160D01*
X125107498Y-113397333D01*
X125320963Y-113326178D01*
X125328067Y-113326087D01*
X126026266Y-113538808D01*
G37*
G04 #@! TD.AperFunction*
G04 #@! TA.AperFunction,Conductor*
G36*
X125341726Y-113397466D02*
G01*
X125348633Y-113403165D01*
X125350000Y-113408653D01*
X125350000Y-113691346D01*
X125346573Y-113699619D01*
X125341726Y-113702533D01*
X124794079Y-113870252D01*
X124785165Y-113869398D01*
X124779855Y-113863571D01*
X124650880Y-113554506D01*
X124650857Y-113545551D01*
X124650880Y-113545494D01*
X124711596Y-113400000D01*
X124779855Y-113236427D01*
X124786204Y-113230113D01*
X124794077Y-113229747D01*
X125341726Y-113397466D01*
G37*
G04 #@! TD.AperFunction*
G04 #@! TA.AperFunction,Conductor*
G36*
X127782187Y-109404597D02*
G01*
X128100857Y-109652764D01*
X128201487Y-109731131D01*
X128205909Y-109738918D01*
X128205472Y-109743832D01*
X128027556Y-110316770D01*
X128021829Y-110323654D01*
X128016382Y-110325000D01*
X127533618Y-110325000D01*
X127525345Y-110321573D01*
X127522444Y-110316770D01*
X127344527Y-109743832D01*
X127345347Y-109734915D01*
X127348510Y-109731132D01*
X127767811Y-109404597D01*
X127776444Y-109402218D01*
X127782187Y-109404597D01*
G37*
G04 #@! TD.AperFunction*
G04 #@! TA.AperFunction,Conductor*
G36*
X128023307Y-109770494D02*
G01*
X128026585Y-109776906D01*
X128135221Y-110451078D01*
X128133154Y-110459791D01*
X128125531Y-110464490D01*
X128123703Y-110464639D01*
X127787433Y-110465599D01*
X127787367Y-110465599D01*
X127450623Y-110464637D01*
X127442359Y-110461186D01*
X127438956Y-110452904D01*
X127439046Y-110451492D01*
X127523714Y-109777309D01*
X127528145Y-109769527D01*
X127535323Y-109767067D01*
X128015034Y-109767067D01*
X128023307Y-109770494D01*
G37*
G04 #@! TD.AperFunction*
G04 #@! TA.AperFunction,Conductor*
G36*
X156309605Y-98335958D02*
G01*
X156828274Y-99084392D01*
X156830169Y-99093144D01*
X156825321Y-99100673D01*
X156818657Y-99102756D01*
X156341000Y-99102756D01*
X156160868Y-99296307D01*
X156152723Y-99300028D01*
X156144332Y-99296901D01*
X156141793Y-99293477D01*
X155808500Y-98611823D01*
X155807946Y-98602887D01*
X155813379Y-98596430D01*
X156294358Y-98332365D01*
X156303259Y-98331388D01*
X156309605Y-98335958D01*
G37*
G04 #@! TD.AperFunction*
G04 #@! TA.AperFunction,Conductor*
G36*
X144457855Y-91788427D02*
G01*
X144460756Y-91793230D01*
X144638672Y-92366167D01*
X144637852Y-92375084D01*
X144634687Y-92378868D01*
X144215389Y-92705401D01*
X144206756Y-92707781D01*
X144201011Y-92705401D01*
X143781712Y-92378868D01*
X143777290Y-92371081D01*
X143777727Y-92366167D01*
X143955644Y-91793230D01*
X143961371Y-91786346D01*
X143966818Y-91785000D01*
X144449582Y-91785000D01*
X144457855Y-91788427D01*
G37*
G04 #@! TD.AperFunction*
G04 #@! TA.AperFunction,Conductor*
G36*
X156078945Y-102239827D02*
G01*
X156081727Y-102244269D01*
X156276145Y-102805277D01*
X156275616Y-102814216D01*
X156271925Y-102818604D01*
X155835835Y-103132480D01*
X155827118Y-103134532D01*
X155822165Y-103132480D01*
X155386074Y-102818604D01*
X155381361Y-102810990D01*
X155381854Y-102805277D01*
X155576273Y-102244269D01*
X155582220Y-102237574D01*
X155587328Y-102236400D01*
X156070672Y-102236400D01*
X156078945Y-102239827D01*
G37*
G04 #@! TD.AperFunction*
G04 #@! TA.AperFunction,Conductor*
G36*
X147131122Y-107002854D02*
G01*
X147692132Y-107197273D01*
X147698826Y-107203219D01*
X147700000Y-107208327D01*
X147700000Y-107691672D01*
X147696573Y-107699945D01*
X147692131Y-107702727D01*
X147131122Y-107897145D01*
X147122183Y-107896616D01*
X147117795Y-107892925D01*
X146803919Y-107456835D01*
X146801867Y-107448118D01*
X146803919Y-107443165D01*
X147117795Y-107007073D01*
X147125409Y-107002361D01*
X147131122Y-107002854D01*
G37*
G04 #@! TD.AperFunction*
G04 #@! TA.AperFunction,Conductor*
G36*
X147850915Y-107188151D02*
G01*
X147854527Y-107196345D01*
X147854530Y-107196575D01*
X147855489Y-107532281D01*
X147854587Y-107536820D01*
X147724571Y-107848380D01*
X147718222Y-107854695D01*
X147710538Y-107855118D01*
X147179797Y-107702435D01*
X147172794Y-107696854D01*
X147171332Y-107691191D01*
X147171332Y-107211439D01*
X147174759Y-107203166D01*
X147182766Y-107199742D01*
X147842567Y-107184911D01*
X147850915Y-107188151D01*
G37*
G04 #@! TD.AperFunction*
G04 #@! TA.AperFunction,Conductor*
G36*
X133039595Y-99544107D02*
G01*
X133042105Y-99547840D01*
X133182859Y-99882254D01*
X133318805Y-100205243D01*
X133318856Y-100214198D01*
X133312560Y-100220566D01*
X133312527Y-100220580D01*
X133002879Y-100349800D01*
X132998349Y-100350702D01*
X132662502Y-100350025D01*
X132654236Y-100346581D01*
X132650826Y-100338301D01*
X132650852Y-100337548D01*
X132681502Y-99889726D01*
X132684901Y-99882255D01*
X133023050Y-99544106D01*
X133031322Y-99540680D01*
X133039595Y-99544107D01*
G37*
G04 #@! TD.AperFunction*
G04 #@! TA.AperFunction,Conductor*
G36*
X146089322Y-92262854D02*
G01*
X146650332Y-92457273D01*
X146657026Y-92463219D01*
X146658200Y-92468327D01*
X146658200Y-92951672D01*
X146654773Y-92959945D01*
X146650331Y-92962727D01*
X146089322Y-93157145D01*
X146080383Y-93156616D01*
X146075995Y-93152925D01*
X145762119Y-92716835D01*
X145760067Y-92708118D01*
X145762119Y-92703165D01*
X146075995Y-92267073D01*
X146083609Y-92262361D01*
X146089322Y-92262854D01*
G37*
G04 #@! TD.AperFunction*
G04 #@! TA.AperFunction,Conductor*
G36*
X147061169Y-92350262D02*
G01*
X147065886Y-92357874D01*
X147066039Y-92359729D01*
X147067000Y-92696000D01*
X147067000Y-92696066D01*
X147066037Y-93032805D01*
X147062586Y-93041069D01*
X147054304Y-93044472D01*
X147052905Y-93044384D01*
X146379053Y-92961266D01*
X146371261Y-92956852D01*
X146368785Y-92949654D01*
X146368785Y-92469942D01*
X146372212Y-92461669D01*
X146378595Y-92458395D01*
X147052451Y-92348215D01*
X147061169Y-92350262D01*
G37*
G04 #@! TD.AperFunction*
G04 #@! TA.AperFunction,Conductor*
G36*
X144865084Y-105520347D02*
G01*
X144868868Y-105523512D01*
X145195401Y-105942811D01*
X145197781Y-105951444D01*
X145195401Y-105957189D01*
X144868868Y-106376487D01*
X144861081Y-106380909D01*
X144856167Y-106380472D01*
X144283230Y-106202555D01*
X144276346Y-106196828D01*
X144275000Y-106191381D01*
X144275000Y-105708618D01*
X144278427Y-105700345D01*
X144283228Y-105697444D01*
X144856167Y-105519527D01*
X144865084Y-105520347D01*
G37*
G04 #@! TD.AperFunction*
G04 #@! TA.AperFunction,Conductor*
G36*
X132159339Y-108989664D02*
G01*
X132800480Y-109304403D01*
X132806396Y-109311125D01*
X132805827Y-109320062D01*
X132803597Y-109323179D01*
X132462909Y-109663867D01*
X132459978Y-109666003D01*
X132095305Y-109853150D01*
X132086380Y-109853879D01*
X132080288Y-109849320D01*
X131779487Y-109406932D01*
X131777669Y-109398163D01*
X131780518Y-109392468D01*
X131843719Y-109323179D01*
X132145542Y-108992282D01*
X132153648Y-108988480D01*
X132159339Y-108989664D01*
G37*
G04 #@! TD.AperFunction*
G04 #@! TA.AperFunction,Conductor*
G36*
X132024655Y-118578427D02*
G01*
X132027556Y-118583230D01*
X132205472Y-119156167D01*
X132204652Y-119165084D01*
X132201487Y-119168868D01*
X131782189Y-119495401D01*
X131773556Y-119497781D01*
X131767811Y-119495401D01*
X131348512Y-119168868D01*
X131344090Y-119161081D01*
X131344527Y-119156167D01*
X131522444Y-118583230D01*
X131528171Y-118576346D01*
X131533618Y-118575000D01*
X132016382Y-118575000D01*
X132024655Y-118578427D01*
G37*
G04 #@! TD.AperFunction*
G04 #@! TA.AperFunction,Conductor*
G36*
X132185001Y-98922835D02*
G01*
X132772999Y-99274620D01*
X132778339Y-99281807D01*
X132777032Y-99290666D01*
X132775265Y-99292932D01*
X132434201Y-99633996D01*
X132429816Y-99636758D01*
X132094601Y-99754878D01*
X132085660Y-99754395D01*
X132081038Y-99750422D01*
X131779895Y-99307531D01*
X131778077Y-99298762D01*
X131781531Y-99292450D01*
X132170959Y-98924372D01*
X132179325Y-98921181D01*
X132185001Y-98922835D01*
G37*
G04 #@! TD.AperFunction*
G04 #@! TA.AperFunction,Conductor*
G36*
X144253262Y-105714764D02*
G01*
X144254980Y-105720868D01*
X144254980Y-106197108D01*
X144253634Y-106202557D01*
X144076085Y-106539920D01*
X144069199Y-106545645D01*
X144061265Y-106545285D01*
X143751264Y-106417275D01*
X143744926Y-106410950D01*
X143744909Y-106410910D01*
X143617616Y-106101285D01*
X143617639Y-106092330D01*
X143622333Y-106086854D01*
X144237177Y-105710885D01*
X144246022Y-105709494D01*
X144253262Y-105714764D01*
G37*
G04 #@! TD.AperFunction*
G04 #@! TA.AperFunction,Conductor*
G36*
X132024655Y-98378427D02*
G01*
X132027556Y-98383230D01*
X132205472Y-98956167D01*
X132204652Y-98965084D01*
X132201487Y-98968868D01*
X131782189Y-99295401D01*
X131773556Y-99297781D01*
X131767811Y-99295401D01*
X131348512Y-98968868D01*
X131344090Y-98961081D01*
X131344527Y-98956167D01*
X131522444Y-98383230D01*
X131528171Y-98376346D01*
X131533618Y-98375000D01*
X132016382Y-98375000D01*
X132024655Y-98378427D01*
G37*
G04 #@! TD.AperFunction*
G04 #@! TA.AperFunction,Conductor*
G36*
X131802950Y-117408549D02*
G01*
X131902265Y-117438808D01*
X131909180Y-117444497D01*
X131910047Y-117453410D01*
X131904358Y-117460325D01*
X131902265Y-117461192D01*
X131204070Y-117673912D01*
X131196960Y-117673820D01*
X130983500Y-117602666D01*
X130976735Y-117596798D01*
X130975500Y-117591566D01*
X130975500Y-117308433D01*
X130978927Y-117300160D01*
X130983498Y-117297333D01*
X131196963Y-117226178D01*
X131204067Y-117226087D01*
X131802950Y-117408549D01*
G37*
G04 #@! TD.AperFunction*
G04 #@! TA.AperFunction,Conductor*
G36*
X131902266Y-113538808D02*
G01*
X131909180Y-113544496D01*
X131910047Y-113553409D01*
X131904358Y-113560324D01*
X131902265Y-113561191D01*
X131204070Y-113773912D01*
X131196960Y-113773820D01*
X130983500Y-113702666D01*
X130976735Y-113696798D01*
X130975500Y-113691566D01*
X130975500Y-113408433D01*
X130978927Y-113400160D01*
X130983498Y-113397333D01*
X131196963Y-113326178D01*
X131204067Y-113326087D01*
X131902266Y-113538808D01*
G37*
G04 #@! TD.AperFunction*
G04 #@! TA.AperFunction,Conductor*
G36*
X132024655Y-108478427D02*
G01*
X132027556Y-108483230D01*
X132205472Y-109056167D01*
X132204652Y-109065084D01*
X132201487Y-109068868D01*
X131782189Y-109395401D01*
X131773556Y-109397781D01*
X131767811Y-109395401D01*
X131348512Y-109068868D01*
X131344090Y-109061081D01*
X131344527Y-109056167D01*
X131522444Y-108483230D01*
X131528171Y-108476346D01*
X131533618Y-108475000D01*
X132016382Y-108475000D01*
X132024655Y-108478427D01*
G37*
G04 #@! TD.AperFunction*
G04 #@! TA.AperFunction,Conductor*
G36*
X131802950Y-107308549D02*
G01*
X131902265Y-107338808D01*
X131909180Y-107344497D01*
X131910047Y-107353410D01*
X131904358Y-107360325D01*
X131902265Y-107361192D01*
X131204070Y-107573912D01*
X131196960Y-107573820D01*
X130983500Y-107502666D01*
X130976735Y-107496798D01*
X130975500Y-107491566D01*
X130975500Y-107208433D01*
X130978927Y-107200160D01*
X130983498Y-107197333D01*
X131196963Y-107126178D01*
X131204067Y-107126087D01*
X131802950Y-107308549D01*
G37*
G04 #@! TD.AperFunction*
G04 #@! TA.AperFunction,Conductor*
G36*
X131902266Y-103438808D02*
G01*
X131909180Y-103444496D01*
X131910047Y-103453409D01*
X131904358Y-103460324D01*
X131902265Y-103461191D01*
X131204070Y-103673912D01*
X131196960Y-103673820D01*
X130983500Y-103602666D01*
X130976735Y-103596798D01*
X130975500Y-103591566D01*
X130975500Y-103308433D01*
X130978927Y-103300160D01*
X130983498Y-103297333D01*
X131196963Y-103226178D01*
X131204067Y-103226087D01*
X131902266Y-103438808D01*
G37*
G04 #@! TD.AperFunction*
G04 #@! TA.AperFunction,Conductor*
G36*
X133093352Y-109602482D02*
G01*
X133096430Y-109607919D01*
X133270919Y-110306301D01*
X133269600Y-110315158D01*
X133264074Y-110319935D01*
X132955203Y-110448830D01*
X132946248Y-110448853D01*
X132946208Y-110448837D01*
X132636366Y-110320101D01*
X132630041Y-110313762D01*
X132629639Y-110305966D01*
X132737024Y-109944262D01*
X132739964Y-109939324D01*
X133076807Y-109602481D01*
X133085079Y-109599055D01*
X133093352Y-109602482D01*
G37*
G04 #@! TD.AperFunction*
G04 #@! TA.AperFunction,Conductor*
G36*
X131902266Y-93338808D02*
G01*
X131909180Y-93344496D01*
X131910047Y-93353409D01*
X131904358Y-93360324D01*
X131902265Y-93361191D01*
X131204070Y-93573912D01*
X131196960Y-93573820D01*
X130983500Y-93502666D01*
X130976735Y-93496798D01*
X130975500Y-93491566D01*
X130975500Y-93208433D01*
X130978927Y-93200160D01*
X130983498Y-93197333D01*
X131196963Y-93126178D01*
X131204067Y-93126087D01*
X131902266Y-93338808D01*
G37*
G04 #@! TD.AperFunction*
G04 #@! TA.AperFunction,Conductor*
G36*
X155493845Y-104256828D02*
G01*
X155498127Y-104260239D01*
X155824110Y-104678512D01*
X155826493Y-104687144D01*
X155824122Y-104692882D01*
X155499191Y-105111168D01*
X155491409Y-105115599D01*
X155484039Y-105114087D01*
X155090162Y-104883468D01*
X155087801Y-104881644D01*
X154748302Y-104542145D01*
X154744875Y-104533872D01*
X154748302Y-104525599D01*
X154752570Y-104522880D01*
X155484900Y-104256436D01*
X155493845Y-104256828D01*
G37*
G04 #@! TD.AperFunction*
G04 #@! TA.AperFunction,Conductor*
G36*
X155281428Y-104441205D02*
G01*
X155286643Y-104448485D01*
X155286948Y-104451140D01*
X155286948Y-104930241D01*
X155283521Y-104938514D01*
X155281871Y-104939886D01*
X154942817Y-105172688D01*
X154934057Y-105174546D01*
X154927938Y-105171333D01*
X154687998Y-104932358D01*
X154685433Y-104928517D01*
X154558620Y-104620060D01*
X154558643Y-104611105D01*
X154564992Y-104604790D01*
X154566781Y-104604217D01*
X155272593Y-104439745D01*
X155281428Y-104441205D01*
G37*
G04 #@! TD.AperFunction*
G04 #@! TA.AperFunction,Conductor*
G36*
X131802950Y-97208549D02*
G01*
X131902265Y-97238808D01*
X131909180Y-97244497D01*
X131910047Y-97253410D01*
X131904358Y-97260325D01*
X131902265Y-97261192D01*
X131204070Y-97473912D01*
X131196960Y-97473820D01*
X130983500Y-97402666D01*
X130976735Y-97396798D01*
X130975500Y-97391566D01*
X130975500Y-97108433D01*
X130978927Y-97100160D01*
X130983498Y-97097333D01*
X131196963Y-97026178D01*
X131204067Y-97026087D01*
X131802950Y-97208549D01*
G37*
G04 #@! TD.AperFunction*
G04 #@! TA.AperFunction,Conductor*
G36*
X132106122Y-119052854D02*
G01*
X132667132Y-119247273D01*
X132673826Y-119253219D01*
X132675000Y-119258327D01*
X132675000Y-119741672D01*
X132671573Y-119749945D01*
X132667131Y-119752727D01*
X132106122Y-119947145D01*
X132097183Y-119946616D01*
X132092795Y-119942925D01*
X131778919Y-119506835D01*
X131776867Y-119498118D01*
X131778919Y-119493165D01*
X132092795Y-119057073D01*
X132100409Y-119052361D01*
X132106122Y-119052854D01*
G37*
G04 #@! TD.AperFunction*
G04 #@! TA.AperFunction,Conductor*
G36*
X133180558Y-119154124D02*
G01*
X133185120Y-119161829D01*
X133185238Y-119163451D01*
X133186200Y-119500000D01*
X133186200Y-119500066D01*
X133185238Y-119836548D01*
X133181787Y-119844812D01*
X133173505Y-119848215D01*
X133171883Y-119848097D01*
X132495245Y-119751435D01*
X132487540Y-119746873D01*
X132485200Y-119739853D01*
X132485200Y-119260147D01*
X132488627Y-119251874D01*
X132495245Y-119248565D01*
X133171884Y-119151902D01*
X133180558Y-119154124D01*
G37*
G04 #@! TD.AperFunction*
G04 #@! TA.AperFunction,Conductor*
G36*
X128882170Y-87663048D02*
G01*
X128883012Y-87663812D01*
X129717622Y-88498422D01*
X129721049Y-88506695D01*
X129718899Y-88513454D01*
X129288830Y-89121114D01*
X129287553Y-89122628D01*
X129084056Y-89326125D01*
X129075783Y-89329552D01*
X129067866Y-89326467D01*
X128182581Y-88512892D01*
X128178808Y-88504770D01*
X128181460Y-88496848D01*
X128865703Y-87664653D01*
X128873603Y-87660440D01*
X128882170Y-87663048D01*
G37*
G04 #@! TD.AperFunction*
G04 #@! TA.AperFunction,Conductor*
G36*
X136891049Y-92977465D02*
G01*
X137231355Y-93362653D01*
X137234265Y-93371122D01*
X137231355Y-93378147D01*
X136891049Y-93763334D01*
X136883003Y-93767265D01*
X136876576Y-93765802D01*
X136443195Y-93523748D01*
X136437643Y-93516722D01*
X136437200Y-93513533D01*
X136437200Y-93227266D01*
X136440627Y-93218993D01*
X136443191Y-93217053D01*
X136876576Y-92974996D01*
X136885470Y-92973955D01*
X136891049Y-92977465D01*
G37*
G04 #@! TD.AperFunction*
G04 #@! TA.AperFunction,Conductor*
G36*
X139172725Y-92913785D02*
G01*
X139186945Y-92918788D01*
X139429827Y-93004226D01*
X139434218Y-93006990D01*
X139775591Y-93348363D01*
X139779018Y-93356636D01*
X139775591Y-93364909D01*
X139773613Y-93366498D01*
X139287020Y-93677073D01*
X139278202Y-93678636D01*
X139273478Y-93676397D01*
X138894588Y-93377493D01*
X138890216Y-93369678D01*
X138891812Y-93362272D01*
X138893985Y-93358663D01*
X139158822Y-92918787D01*
X139166024Y-92913468D01*
X139172725Y-92913785D01*
G37*
G04 #@! TD.AperFunction*
G04 #@! TA.AperFunction,Conductor*
G36*
X139727522Y-92585233D02*
G01*
X139728745Y-92586291D01*
X139967407Y-92823593D01*
X140204703Y-93062249D01*
X140208106Y-93070530D01*
X140204655Y-93078794D01*
X140203426Y-93079857D01*
X139656620Y-93489962D01*
X139647945Y-93492184D01*
X139641327Y-93488875D01*
X139302124Y-93149672D01*
X139298697Y-93141399D01*
X139301036Y-93134380D01*
X139711143Y-92587571D01*
X139718847Y-92583011D01*
X139727522Y-92585233D01*
G37*
G04 #@! TD.AperFunction*
G04 #@! TA.AperFunction,Conductor*
G36*
X132675420Y-116576118D02*
G01*
X132680076Y-116577542D01*
X132894482Y-116696657D01*
X132900050Y-116703670D01*
X132900500Y-116706884D01*
X132900500Y-116893115D01*
X132897073Y-116901388D01*
X132894482Y-116903343D01*
X132679840Y-117022588D01*
X132670944Y-117023610D01*
X132670748Y-117023552D01*
X131973734Y-116811191D01*
X131966819Y-116805502D01*
X131965952Y-116796589D01*
X131971641Y-116789674D01*
X131973723Y-116788811D01*
X132670467Y-116576533D01*
X132674875Y-116576070D01*
X132675420Y-116576118D01*
G37*
G04 #@! TD.AperFunction*
G04 #@! TA.AperFunction,Conductor*
G36*
X145133090Y-109881004D02*
G01*
X145139229Y-109887230D01*
X145267869Y-110195494D01*
X145267892Y-110204449D01*
X145267869Y-110204506D01*
X145139229Y-110512769D01*
X145132880Y-110519084D01*
X145124137Y-110519146D01*
X144576156Y-110302922D01*
X144569718Y-110296698D01*
X144568750Y-110292039D01*
X144568750Y-110107960D01*
X144572177Y-110099687D01*
X144576153Y-110097078D01*
X145124138Y-109880853D01*
X145133090Y-109881004D01*
G37*
G04 #@! TD.AperFunction*
G04 #@! TA.AperFunction,Conductor*
G36*
X132675420Y-115276118D02*
G01*
X132680076Y-115277542D01*
X132894482Y-115396657D01*
X132900050Y-115403670D01*
X132900500Y-115406884D01*
X132900500Y-115593115D01*
X132897073Y-115601388D01*
X132894482Y-115603343D01*
X132681072Y-115721903D01*
X132676550Y-115723317D01*
X132673930Y-115723578D01*
X132669360Y-115723128D01*
X131973734Y-115511191D01*
X131966819Y-115505502D01*
X131965952Y-115496589D01*
X131971641Y-115489674D01*
X131973723Y-115488811D01*
X132670467Y-115276533D01*
X132674875Y-115276070D01*
X132675420Y-115276118D01*
G37*
G04 #@! TD.AperFunction*
G04 #@! TA.AperFunction,Conductor*
G36*
X151594601Y-110638536D02*
G01*
X151688509Y-110732444D01*
X151688525Y-110732484D01*
X151688538Y-110732473D01*
X151998182Y-111044263D01*
X152001580Y-111052548D01*
X151998177Y-111060757D01*
X151763036Y-111297246D01*
X151754772Y-111300697D01*
X151754715Y-111300697D01*
X151421394Y-111300025D01*
X151413128Y-111296581D01*
X151409718Y-111288301D01*
X151409746Y-111287522D01*
X151425348Y-111060757D01*
X151444959Y-110775701D01*
X151448357Y-110768233D01*
X151578055Y-110638536D01*
X151586328Y-110635109D01*
X151594601Y-110638536D01*
G37*
G04 #@! TD.AperFunction*
G04 #@! TA.AperFunction,Conductor*
G36*
X132679661Y-114627314D02*
G01*
X132679831Y-114627406D01*
X132894482Y-114746657D01*
X132900050Y-114753670D01*
X132900500Y-114756884D01*
X132900500Y-114943115D01*
X132897073Y-114951388D01*
X132894482Y-114953343D01*
X132679840Y-115072588D01*
X132670944Y-115073610D01*
X132670748Y-115073552D01*
X132242624Y-114943115D01*
X131973733Y-114861191D01*
X131966819Y-114855503D01*
X131965952Y-114846590D01*
X131971641Y-114839675D01*
X131973732Y-114838808D01*
X132670749Y-114626447D01*
X132679661Y-114627314D01*
G37*
G04 #@! TD.AperFunction*
G04 #@! TA.AperFunction,Conductor*
G36*
X152463808Y-110398475D02*
G01*
X152467623Y-110406576D01*
X152467636Y-110407106D01*
X152468309Y-110740691D01*
X152464899Y-110748971D01*
X152464858Y-110749012D01*
X152228513Y-110984009D01*
X152220231Y-110987412D01*
X152211967Y-110983961D01*
X152211877Y-110983869D01*
X152204420Y-110976202D01*
X152203530Y-110975174D01*
X152151509Y-110907379D01*
X152148452Y-110905033D01*
X152145825Y-110902218D01*
X152143992Y-110899454D01*
X151994585Y-110749012D01*
X151834349Y-110587665D01*
X151834341Y-110587658D01*
X151834198Y-110587514D01*
X151834198Y-110587513D01*
X151812597Y-110565912D01*
X151809170Y-110557639D01*
X151812596Y-110549367D01*
X151939012Y-110422951D01*
X151946727Y-110419539D01*
X152455382Y-110395443D01*
X152463808Y-110398475D01*
G37*
G04 #@! TD.AperFunction*
G04 #@! TA.AperFunction,Conductor*
G36*
X132679661Y-115927314D02*
G01*
X132679831Y-115927406D01*
X132894482Y-116046657D01*
X132900050Y-116053670D01*
X132900500Y-116056884D01*
X132900500Y-116243115D01*
X132897073Y-116251388D01*
X132894482Y-116253343D01*
X132679840Y-116372588D01*
X132670944Y-116373610D01*
X132670748Y-116373552D01*
X132242624Y-116243115D01*
X131973733Y-116161191D01*
X131966819Y-116155503D01*
X131965952Y-116146590D01*
X131971641Y-116139675D01*
X131973732Y-116138808D01*
X132670749Y-115926447D01*
X132679661Y-115927314D01*
G37*
G04 #@! TD.AperFunction*
G04 #@! TA.AperFunction,Conductor*
G36*
X146005004Y-109703102D02*
G01*
X146512265Y-109959262D01*
X146518105Y-109966050D01*
X146517812Y-109974155D01*
X146390553Y-110283691D01*
X146384238Y-110290040D01*
X146384181Y-110290063D01*
X146075953Y-110416784D01*
X146066998Y-110416761D01*
X146060683Y-110410412D01*
X146060493Y-110409918D01*
X146017439Y-110290063D01*
X145858532Y-109847688D01*
X145858960Y-109838744D01*
X145861267Y-109835463D01*
X145991458Y-109705272D01*
X145999730Y-109701846D01*
X146005004Y-109703102D01*
G37*
G04 #@! TD.AperFunction*
G04 #@! TA.AperFunction,Conductor*
G36*
X154452893Y-103322719D02*
G01*
X154579533Y-103626190D01*
X154579556Y-103635145D01*
X154579533Y-103635202D01*
X154450893Y-103943465D01*
X154444544Y-103949780D01*
X154435801Y-103949842D01*
X153887820Y-103733618D01*
X153881382Y-103727394D01*
X153880414Y-103722735D01*
X153880414Y-103538656D01*
X153883841Y-103530383D01*
X153887817Y-103527774D01*
X154177350Y-103413529D01*
X154181644Y-103412713D01*
X154227962Y-103412713D01*
X154227962Y-103412712D01*
X154266173Y-103402473D01*
X154304385Y-103392235D01*
X154304387Y-103392234D01*
X154316700Y-103385123D01*
X154318898Y-103384143D01*
X154328725Y-103380928D01*
X154333482Y-103378752D01*
X154373097Y-103354911D01*
X154405208Y-103330270D01*
X154407851Y-103328746D01*
X154437620Y-103316416D01*
X154446572Y-103316416D01*
X154452893Y-103322719D01*
G37*
G04 #@! TD.AperFunction*
G04 #@! TA.AperFunction,Conductor*
G36*
X132675420Y-95726118D02*
G01*
X132680076Y-95727542D01*
X132894482Y-95846657D01*
X132900050Y-95853670D01*
X132900500Y-95856884D01*
X132900500Y-96043115D01*
X132897073Y-96051388D01*
X132894482Y-96053343D01*
X132679840Y-96172588D01*
X132670944Y-96173610D01*
X132670748Y-96173552D01*
X131973734Y-95961191D01*
X131966819Y-95955502D01*
X131965952Y-95946589D01*
X131971641Y-95939674D01*
X131973723Y-95938811D01*
X132670467Y-95726533D01*
X132674875Y-95726070D01*
X132675420Y-95726118D01*
G37*
G04 #@! TD.AperFunction*
G04 #@! TA.AperFunction,Conductor*
G36*
X132679661Y-94427314D02*
G01*
X132679831Y-94427406D01*
X132894482Y-94546657D01*
X132900050Y-94553670D01*
X132900500Y-94556884D01*
X132900500Y-94743115D01*
X132897073Y-94751388D01*
X132894482Y-94753343D01*
X132681072Y-94871903D01*
X132676550Y-94873317D01*
X132673930Y-94873578D01*
X132669360Y-94873128D01*
X131973734Y-94661191D01*
X131966819Y-94655502D01*
X131965952Y-94646589D01*
X131971641Y-94639674D01*
X131973723Y-94638811D01*
X132670749Y-94426447D01*
X132679661Y-94427314D01*
G37*
G04 #@! TD.AperFunction*
G04 #@! TA.AperFunction,Conductor*
G36*
X153561563Y-101682533D02*
G01*
X154101939Y-101917121D01*
X154108162Y-101923558D01*
X154108100Y-101932301D01*
X153981087Y-102241239D01*
X153974772Y-102247588D01*
X153974715Y-102247611D01*
X153665777Y-102374624D01*
X153656822Y-102374601D01*
X153650597Y-102368463D01*
X153416009Y-101828087D01*
X153415858Y-101819134D01*
X153418466Y-101815157D01*
X153548632Y-101684991D01*
X153556904Y-101681565D01*
X153561563Y-101682533D01*
G37*
G04 #@! TD.AperFunction*
G04 #@! TA.AperFunction,Conductor*
G36*
X154594294Y-106527138D02*
G01*
X154595887Y-106529122D01*
X154954450Y-107091660D01*
X154956007Y-107100479D01*
X154950873Y-107107815D01*
X154949090Y-107108747D01*
X154643772Y-107236160D01*
X154634817Y-107236183D01*
X154634777Y-107236167D01*
X154324920Y-107107425D01*
X154318595Y-107101086D01*
X154318188Y-107093307D01*
X154445790Y-106661108D01*
X154448736Y-106656150D01*
X154577749Y-106527137D01*
X154586021Y-106523711D01*
X154594294Y-106527138D01*
G37*
G04 #@! TD.AperFunction*
G04 #@! TA.AperFunction,Conductor*
G36*
X132679691Y-96404617D02*
G01*
X132943371Y-96557019D01*
X132948819Y-96564125D01*
X132947646Y-96573003D01*
X132945789Y-96575421D01*
X132815474Y-96705736D01*
X132814787Y-96706370D01*
X132680379Y-96820844D01*
X132671859Y-96823600D01*
X132669372Y-96823126D01*
X131976377Y-96611243D01*
X131969467Y-96605547D01*
X131968609Y-96596633D01*
X131974305Y-96589723D01*
X131976778Y-96588750D01*
X132670821Y-96403444D01*
X132679691Y-96404617D01*
G37*
G04 #@! TD.AperFunction*
G04 #@! TA.AperFunction,Conductor*
G36*
X154414095Y-102612774D02*
G01*
X154724768Y-102741062D01*
X154731106Y-102747387D01*
X154731123Y-102747427D01*
X154856843Y-103053226D01*
X154856820Y-103062181D01*
X154850471Y-103068496D01*
X154848387Y-103069133D01*
X154727295Y-103094129D01*
X154723403Y-103094271D01*
X154580414Y-103075446D01*
X154436707Y-103094365D01*
X154436698Y-103094368D01*
X154302797Y-103149830D01*
X154302783Y-103149839D01*
X154247999Y-103191875D01*
X154243242Y-103194051D01*
X154169331Y-103209309D01*
X154160536Y-103207626D01*
X154155508Y-103200216D01*
X154155266Y-103197851D01*
X154155266Y-103015542D01*
X154157018Y-103009383D01*
X154319200Y-102747427D01*
X154399683Y-102617429D01*
X154406952Y-102612200D01*
X154414095Y-102612774D01*
G37*
G04 #@! TD.AperFunction*
G04 #@! TA.AperFunction,Conductor*
G36*
X132679661Y-95077314D02*
G01*
X132679831Y-95077406D01*
X132894482Y-95196657D01*
X132900050Y-95203670D01*
X132900500Y-95206884D01*
X132900500Y-95393115D01*
X132897073Y-95401388D01*
X132894482Y-95403343D01*
X132679840Y-95522588D01*
X132670944Y-95523610D01*
X132670748Y-95523552D01*
X132242624Y-95393115D01*
X131973733Y-95311191D01*
X131966819Y-95305503D01*
X131965952Y-95296590D01*
X131971641Y-95289675D01*
X131973732Y-95288808D01*
X132670749Y-95076447D01*
X132679661Y-95077314D01*
G37*
G04 #@! TD.AperFunction*
G04 #@! TA.AperFunction,Conductor*
G36*
X132675420Y-105176118D02*
G01*
X132680076Y-105177542D01*
X132894482Y-105296657D01*
X132900050Y-105303670D01*
X132900500Y-105306884D01*
X132900500Y-105493115D01*
X132897073Y-105501388D01*
X132894482Y-105503343D01*
X132679840Y-105622588D01*
X132670944Y-105623610D01*
X132670748Y-105623552D01*
X131973734Y-105411191D01*
X131966819Y-105405502D01*
X131965952Y-105396589D01*
X131971641Y-105389674D01*
X131973723Y-105388811D01*
X132670467Y-105176533D01*
X132674875Y-105176070D01*
X132675420Y-105176118D01*
G37*
G04 #@! TD.AperFunction*
G04 #@! TA.AperFunction,Conductor*
G36*
X155770364Y-108186105D02*
G01*
X155770430Y-108186258D01*
X155898918Y-108494158D01*
X155898941Y-108503113D01*
X155898918Y-108503170D01*
X155770149Y-108811741D01*
X155763800Y-108818056D01*
X155755381Y-108818241D01*
X155211633Y-108622082D01*
X155205013Y-108616051D01*
X155203903Y-108611076D01*
X155203903Y-108426969D01*
X155207330Y-108418696D01*
X155210941Y-108416238D01*
X155406050Y-108331526D01*
X155409158Y-108330665D01*
X155498296Y-108318930D01*
X155585895Y-108282645D01*
X155632203Y-108263465D01*
X155632204Y-108263464D01*
X155632212Y-108263461D01*
X155721515Y-108194935D01*
X155723954Y-108193500D01*
X155754975Y-108180031D01*
X155763926Y-108179881D01*
X155770364Y-108186105D01*
G37*
G04 #@! TD.AperFunction*
G04 #@! TA.AperFunction,Conductor*
G36*
X132679661Y-106477314D02*
G01*
X132679831Y-106477406D01*
X132894482Y-106596657D01*
X132900050Y-106603670D01*
X132900500Y-106606884D01*
X132900500Y-106793115D01*
X132897073Y-106801388D01*
X132894482Y-106803343D01*
X132679840Y-106922588D01*
X132670944Y-106923610D01*
X132670748Y-106923552D01*
X132242624Y-106793115D01*
X131973733Y-106711191D01*
X131966819Y-106705503D01*
X131965952Y-106696590D01*
X131971641Y-106689675D01*
X131973732Y-106688808D01*
X132670749Y-106476447D01*
X132679661Y-106477314D01*
G37*
G04 #@! TD.AperFunction*
G04 #@! TA.AperFunction,Conductor*
G36*
X153009698Y-109884698D02*
G01*
X153245162Y-110120162D01*
X153248589Y-110128435D01*
X153247687Y-110132941D01*
X153121383Y-110435603D01*
X153115034Y-110441918D01*
X153106079Y-110441895D01*
X153104359Y-110441003D01*
X153039226Y-110400065D01*
X152678559Y-110173380D01*
X152673379Y-110166077D01*
X152674880Y-110157249D01*
X152676509Y-110155206D01*
X152806986Y-110024729D01*
X152808212Y-110023665D01*
X152994393Y-109883620D01*
X153003063Y-109881386D01*
X153009698Y-109884698D01*
G37*
G04 #@! TD.AperFunction*
G04 #@! TA.AperFunction,Conductor*
G36*
X132675420Y-105826118D02*
G01*
X132680076Y-105827542D01*
X132894482Y-105946657D01*
X132900050Y-105953670D01*
X132900500Y-105956884D01*
X132900500Y-106143115D01*
X132897073Y-106151388D01*
X132894482Y-106153343D01*
X132681072Y-106271903D01*
X132676550Y-106273317D01*
X132673930Y-106273578D01*
X132669360Y-106273128D01*
X131973734Y-106061191D01*
X131966819Y-106055502D01*
X131965952Y-106046589D01*
X131971641Y-106039674D01*
X131973723Y-106038811D01*
X132670467Y-105826533D01*
X132674875Y-105826070D01*
X132675420Y-105826118D01*
G37*
G04 #@! TD.AperFunction*
G04 #@! TA.AperFunction,Conductor*
G36*
X152754747Y-107879739D02*
G01*
X153099207Y-108025433D01*
X153298271Y-108109630D01*
X153304555Y-108116009D01*
X153304534Y-108124855D01*
X153177563Y-108433691D01*
X153171248Y-108440040D01*
X153171191Y-108440063D01*
X152862168Y-108567111D01*
X152853213Y-108567088D01*
X152847025Y-108561036D01*
X152793328Y-108440040D01*
X152609327Y-108025431D01*
X152609104Y-108016481D01*
X152611747Y-108012416D01*
X152741921Y-107882242D01*
X152750193Y-107878816D01*
X152754747Y-107879739D01*
G37*
G04 #@! TD.AperFunction*
G04 #@! TA.AperFunction,Conductor*
G36*
X155225093Y-107470221D02*
G01*
X155225866Y-107471747D01*
X155353706Y-107778094D01*
X155353729Y-107787049D01*
X155353706Y-107787106D01*
X155224403Y-108096957D01*
X155218054Y-108103272D01*
X155211118Y-108103884D01*
X154684632Y-107989334D01*
X154677276Y-107984226D01*
X154675419Y-107977901D01*
X154675419Y-107797988D01*
X154678846Y-107789715D01*
X154685588Y-107786389D01*
X154782278Y-107773660D01*
X154869877Y-107737375D01*
X154916185Y-107718195D01*
X154916186Y-107718194D01*
X154916194Y-107718191D01*
X155031190Y-107629951D01*
X155110676Y-107526362D01*
X155113922Y-107523463D01*
X155209039Y-107466227D01*
X155217891Y-107464899D01*
X155225093Y-107470221D01*
G37*
G04 #@! TD.AperFunction*
G04 #@! TA.AperFunction,Conductor*
G36*
X132679661Y-104527314D02*
G01*
X132679831Y-104527406D01*
X132894482Y-104646657D01*
X132900050Y-104653670D01*
X132900500Y-104656884D01*
X132900500Y-104843115D01*
X132897073Y-104851388D01*
X132894482Y-104853343D01*
X132679840Y-104972588D01*
X132670944Y-104973610D01*
X132670748Y-104973552D01*
X132242624Y-104843115D01*
X131973733Y-104761191D01*
X131966819Y-104755503D01*
X131965952Y-104746590D01*
X131971641Y-104739675D01*
X131973732Y-104738808D01*
X132670749Y-104526447D01*
X132679661Y-104527314D01*
G37*
G04 #@! TD.AperFunction*
G04 #@! TA.AperFunction,Conductor*
G36*
X126474655Y-118578427D02*
G01*
X126477556Y-118583230D01*
X126655472Y-119156167D01*
X126654652Y-119165084D01*
X126651487Y-119168868D01*
X126232189Y-119495401D01*
X126223556Y-119497781D01*
X126217811Y-119495401D01*
X125798512Y-119168868D01*
X125794090Y-119161081D01*
X125794527Y-119156167D01*
X125972444Y-118583230D01*
X125978171Y-118576346D01*
X125983618Y-118575000D01*
X126466382Y-118575000D01*
X126474655Y-118578427D01*
G37*
G04 #@! TD.AperFunction*
G04 #@! TA.AperFunction,Conductor*
G36*
X126232187Y-99304597D02*
G01*
X126550857Y-99552764D01*
X126651487Y-99631131D01*
X126655909Y-99638918D01*
X126655472Y-99643832D01*
X126477556Y-100216770D01*
X126471829Y-100223654D01*
X126466382Y-100225000D01*
X125983618Y-100225000D01*
X125975345Y-100221573D01*
X125972444Y-100216770D01*
X125794527Y-99643832D01*
X125795347Y-99634915D01*
X125798510Y-99631132D01*
X126217811Y-99304597D01*
X126226444Y-99302218D01*
X126232187Y-99304597D01*
G37*
G04 #@! TD.AperFunction*
G04 #@! TA.AperFunction,Conductor*
G36*
X126473317Y-99636013D02*
G01*
X126476592Y-99642413D01*
X126530367Y-99974301D01*
X126585807Y-100316468D01*
X126583748Y-100325182D01*
X126576129Y-100329888D01*
X126574291Y-100330039D01*
X126238033Y-100330999D01*
X126237967Y-100330999D01*
X125901212Y-100330037D01*
X125892948Y-100326586D01*
X125889545Y-100318304D01*
X125889634Y-100316898D01*
X125973721Y-99642837D01*
X125978146Y-99635052D01*
X125985331Y-99632586D01*
X126465044Y-99632586D01*
X126473317Y-99636013D01*
G37*
G04 #@! TD.AperFunction*
G04 #@! TA.AperFunction,Conductor*
G36*
X126474655Y-108478427D02*
G01*
X126477556Y-108483230D01*
X126655472Y-109056167D01*
X126654652Y-109065084D01*
X126651487Y-109068868D01*
X126232189Y-109395401D01*
X126223556Y-109397781D01*
X126217811Y-109395401D01*
X125798512Y-109068868D01*
X125794090Y-109061081D01*
X125794527Y-109056167D01*
X125972444Y-108483230D01*
X125978171Y-108476346D01*
X125983618Y-108475000D01*
X126466382Y-108475000D01*
X126474655Y-108478427D01*
G37*
G04 #@! TD.AperFunction*
G04 #@! TA.AperFunction,Conductor*
G36*
X126232187Y-109404597D02*
G01*
X126550857Y-109652764D01*
X126651487Y-109731131D01*
X126655909Y-109738918D01*
X126655472Y-109743832D01*
X126477556Y-110316770D01*
X126471829Y-110323654D01*
X126466382Y-110325000D01*
X125983618Y-110325000D01*
X125975345Y-110321573D01*
X125972444Y-110316770D01*
X125794527Y-109743832D01*
X125795347Y-109734915D01*
X125798510Y-109731132D01*
X126217811Y-109404597D01*
X126226444Y-109402218D01*
X126232187Y-109404597D01*
G37*
G04 #@! TD.AperFunction*
G04 #@! TA.AperFunction,Conductor*
G36*
X126472950Y-109770494D02*
G01*
X126476286Y-109777309D01*
X126560952Y-110451479D01*
X126558583Y-110460115D01*
X126550801Y-110464546D01*
X126549376Y-110464637D01*
X126212633Y-110465599D01*
X126212567Y-110465599D01*
X125876296Y-110464639D01*
X125868032Y-110461188D01*
X125864629Y-110452906D01*
X125864777Y-110451089D01*
X125973415Y-109776906D01*
X125978114Y-109769283D01*
X125984966Y-109767067D01*
X126464677Y-109767067D01*
X126472950Y-109770494D01*
G37*
G04 #@! TD.AperFunction*
G04 #@! TA.AperFunction,Conductor*
G36*
X126474655Y-98378427D02*
G01*
X126477556Y-98383230D01*
X126655472Y-98956167D01*
X126654652Y-98965084D01*
X126651487Y-98968868D01*
X126232189Y-99295401D01*
X126223556Y-99297781D01*
X126217811Y-99295401D01*
X125798512Y-98968868D01*
X125794090Y-98961081D01*
X125794527Y-98956167D01*
X125972444Y-98383230D01*
X125978171Y-98376346D01*
X125983618Y-98375000D01*
X126466382Y-98375000D01*
X126474655Y-98378427D01*
G37*
G04 #@! TD.AperFunction*
G04 #@! TA.AperFunction,Conductor*
G36*
X119520961Y-123096798D02*
G01*
X119863201Y-123439038D01*
X119866628Y-123447311D01*
X119865639Y-123452018D01*
X119279900Y-124784807D01*
X119273434Y-124791003D01*
X119264723Y-124790914D01*
X118493785Y-124472562D01*
X118487447Y-124466238D01*
X118169085Y-123695274D01*
X118169094Y-123686321D01*
X118175191Y-123680099D01*
X119507982Y-123094359D01*
X119516933Y-123094168D01*
X119520961Y-123096798D01*
G37*
G04 #@! TD.AperFunction*
G04 #@! TA.AperFunction,Conductor*
G36*
X126216391Y-110465762D02*
G01*
X126526079Y-110594434D01*
X126532404Y-110600773D01*
X126532753Y-110608744D01*
X126418237Y-110973487D01*
X126415347Y-110978255D01*
X126078619Y-111314983D01*
X126070346Y-111318410D01*
X126062073Y-111314983D01*
X126058966Y-111309427D01*
X125979414Y-110976225D01*
X125891553Y-110608219D01*
X125892965Y-110599377D01*
X125898424Y-110594706D01*
X126207397Y-110465768D01*
X126216351Y-110465746D01*
X126216391Y-110465762D01*
G37*
G04 #@! TD.AperFunction*
G04 #@! TA.AperFunction,Conductor*
G36*
X125902816Y-119053383D02*
G01*
X125907204Y-119057074D01*
X126221080Y-119493165D01*
X126223132Y-119501882D01*
X126221080Y-119506835D01*
X125907204Y-119942925D01*
X125899590Y-119947638D01*
X125893877Y-119947145D01*
X125332869Y-119752727D01*
X125326174Y-119746780D01*
X125325000Y-119741672D01*
X125325000Y-119258327D01*
X125328427Y-119250054D01*
X125332865Y-119247274D01*
X125893877Y-119052854D01*
X125902816Y-119053383D01*
G37*
G04 #@! TD.AperFunction*
G04 #@! TA.AperFunction,Conductor*
G36*
X159870810Y-95154845D02*
G01*
X159876908Y-95161067D01*
X160196934Y-95931311D01*
X160196943Y-95940266D01*
X160196934Y-95940289D01*
X159876908Y-96710532D01*
X159870569Y-96716857D01*
X159861858Y-96716946D01*
X158505255Y-96188702D01*
X158498789Y-96182506D01*
X158497800Y-96177799D01*
X158497800Y-95693800D01*
X158501227Y-95685527D01*
X158505255Y-95682897D01*
X159861858Y-95154653D01*
X159870810Y-95154845D01*
G37*
G04 #@! TD.AperFunction*
G04 #@! TA.AperFunction,Conductor*
G36*
X158041787Y-95528767D02*
G01*
X158549904Y-95683277D01*
X158556822Y-95688963D01*
X158558200Y-95694471D01*
X158558200Y-96176310D01*
X158554773Y-96184583D01*
X158548914Y-96187758D01*
X158041269Y-96294798D01*
X158032467Y-96293152D01*
X158030228Y-96291254D01*
X157878554Y-96125711D01*
X157689440Y-95919302D01*
X157686379Y-95910889D01*
X157689440Y-95903497D01*
X158029759Y-95532056D01*
X158037873Y-95528273D01*
X158041787Y-95528767D01*
G37*
G04 #@! TD.AperFunction*
G04 #@! TA.AperFunction,Conductor*
G36*
X142415892Y-97316544D02*
G01*
X142546055Y-97446707D01*
X142549482Y-97454980D01*
X142548514Y-97459639D01*
X142511643Y-97544572D01*
X142510193Y-97547035D01*
X142470343Y-97598969D01*
X142470334Y-97598983D01*
X142414870Y-97732888D01*
X142414869Y-97732889D01*
X142408545Y-97780925D01*
X142407677Y-97784057D01*
X142313927Y-98000014D01*
X142307489Y-98006238D01*
X142298746Y-98006176D01*
X141989808Y-97879163D01*
X141983460Y-97872849D01*
X141856423Y-97563851D01*
X141856446Y-97554898D01*
X141862582Y-97548674D01*
X142402960Y-97314084D01*
X142411913Y-97313934D01*
X142415892Y-97316544D01*
G37*
G04 #@! TD.AperFunction*
G04 #@! TA.AperFunction,Conductor*
G36*
X157338071Y-95533618D02*
G01*
X157676958Y-95903496D01*
X157680020Y-95911911D01*
X157676958Y-95919304D01*
X157337613Y-96289680D01*
X157329497Y-96293465D01*
X157323775Y-96292252D01*
X156814689Y-96039027D01*
X156808808Y-96032274D01*
X156808200Y-96028551D01*
X156808200Y-95842477D01*
X156811627Y-95834204D01*
X156813945Y-95832406D01*
X157323496Y-95531447D01*
X157332360Y-95530191D01*
X157338071Y-95533618D01*
G37*
G04 #@! TD.AperFunction*
M02*
