G04 #@! TF.GenerationSoftware,KiCad,Pcbnew,8.0.8*
G04 #@! TF.CreationDate,2025-02-21T19:24:50+11:00*
G04 #@! TF.ProjectId,RP2350LevelShifter,52503233-3530-44c6-9576-656c53686966,rev?*
G04 #@! TF.SameCoordinates,Original*
G04 #@! TF.FileFunction,Legend,Bot*
G04 #@! TF.FilePolarity,Positive*
%FSLAX46Y46*%
G04 Gerber Fmt 4.6, Leading zero omitted, Abs format (unit mm)*
G04 Created by KiCad (PCBNEW 8.0.8) date 2025-02-21 19:24:50*
%MOMM*%
%LPD*%
G01*
G04 APERTURE LIST*
G04 Aperture macros list*
%AMRoundRect*
0 Rectangle with rounded corners*
0 $1 Rounding radius*
0 $2 $3 $4 $5 $6 $7 $8 $9 X,Y pos of 4 corners*
0 Add a 4 corners polygon primitive as box body*
4,1,4,$2,$3,$4,$5,$6,$7,$8,$9,$2,$3,0*
0 Add four circle primitives for the rounded corners*
1,1,$1+$1,$2,$3*
1,1,$1+$1,$4,$5*
1,1,$1+$1,$6,$7*
1,1,$1+$1,$8,$9*
0 Add four rect primitives between the rounded corners*
20,1,$1+$1,$2,$3,$4,$5,0*
20,1,$1+$1,$4,$5,$6,$7,0*
20,1,$1+$1,$6,$7,$8,$9,0*
20,1,$1+$1,$8,$9,$2,$3,0*%
G04 Aperture macros list end*
%ADD10C,0.254000*%
%ADD11C,0.150000*%
%ADD12C,0.200000*%
%ADD13C,0.120000*%
%ADD14R,1.700000X1.700000*%
%ADD15O,1.700000X1.700000*%
%ADD16C,2.500000*%
%ADD17R,1.600000X1.600000*%
%ADD18C,1.600000*%
%ADD19O,1.350000X1.700000*%
%ADD20O,1.100000X1.500000*%
%ADD21C,0.700000*%
%ADD22R,1.475000X0.450000*%
%ADD23RoundRect,0.225000X-0.225000X-0.250000X0.225000X-0.250000X0.225000X0.250000X-0.225000X0.250000X0*%
%ADD24RoundRect,0.200000X-0.275000X0.200000X-0.275000X-0.200000X0.275000X-0.200000X0.275000X0.200000X0*%
%ADD25RoundRect,0.225000X0.225000X0.250000X-0.225000X0.250000X-0.225000X-0.250000X0.225000X-0.250000X0*%
%ADD26RoundRect,0.225000X-0.250000X0.225000X-0.250000X-0.225000X0.250000X-0.225000X0.250000X0.225000X0*%
%ADD27RoundRect,0.200000X0.200000X0.275000X-0.200000X0.275000X-0.200000X-0.275000X0.200000X-0.275000X0*%
%ADD28RoundRect,0.225000X0.250000X-0.225000X0.250000X0.225000X-0.250000X0.225000X-0.250000X-0.225000X0*%
%ADD29RoundRect,0.250000X0.250000X0.475000X-0.250000X0.475000X-0.250000X-0.475000X0.250000X-0.475000X0*%
G04 APERTURE END LIST*
D10*
X129967619Y-94604318D02*
X129967619Y-95632413D01*
X129967619Y-95632413D02*
X129907142Y-95753365D01*
X129907142Y-95753365D02*
X129846666Y-95813842D01*
X129846666Y-95813842D02*
X129725714Y-95874318D01*
X129725714Y-95874318D02*
X129483809Y-95874318D01*
X129483809Y-95874318D02*
X129362857Y-95813842D01*
X129362857Y-95813842D02*
X129302380Y-95753365D01*
X129302380Y-95753365D02*
X129241904Y-95632413D01*
X129241904Y-95632413D02*
X129241904Y-94604318D01*
X127971904Y-95874318D02*
X128697619Y-95874318D01*
X128334762Y-95874318D02*
X128334762Y-94604318D01*
X128334762Y-94604318D02*
X128455714Y-94785746D01*
X128455714Y-94785746D02*
X128576666Y-94906699D01*
X128576666Y-94906699D02*
X128697619Y-94967175D01*
D11*
X146565857Y-109249380D02*
X146613476Y-109297000D01*
X146613476Y-109297000D02*
X146756333Y-109344619D01*
X146756333Y-109344619D02*
X146851571Y-109344619D01*
X146851571Y-109344619D02*
X146994428Y-109297000D01*
X146994428Y-109297000D02*
X147089666Y-109201761D01*
X147089666Y-109201761D02*
X147137285Y-109106523D01*
X147137285Y-109106523D02*
X147184904Y-108916047D01*
X147184904Y-108916047D02*
X147184904Y-108773190D01*
X147184904Y-108773190D02*
X147137285Y-108582714D01*
X147137285Y-108582714D02*
X147089666Y-108487476D01*
X147089666Y-108487476D02*
X146994428Y-108392238D01*
X146994428Y-108392238D02*
X146851571Y-108344619D01*
X146851571Y-108344619D02*
X146756333Y-108344619D01*
X146756333Y-108344619D02*
X146613476Y-108392238D01*
X146613476Y-108392238D02*
X146565857Y-108439857D01*
X146184904Y-108439857D02*
X146137285Y-108392238D01*
X146137285Y-108392238D02*
X146042047Y-108344619D01*
X146042047Y-108344619D02*
X145803952Y-108344619D01*
X145803952Y-108344619D02*
X145708714Y-108392238D01*
X145708714Y-108392238D02*
X145661095Y-108439857D01*
X145661095Y-108439857D02*
X145613476Y-108535095D01*
X145613476Y-108535095D02*
X145613476Y-108630333D01*
X145613476Y-108630333D02*
X145661095Y-108773190D01*
X145661095Y-108773190D02*
X146232523Y-109344619D01*
X146232523Y-109344619D02*
X145613476Y-109344619D01*
X144661095Y-109344619D02*
X145232523Y-109344619D01*
X144946809Y-109344619D02*
X144946809Y-108344619D01*
X144946809Y-108344619D02*
X145042047Y-108487476D01*
X145042047Y-108487476D02*
X145137285Y-108582714D01*
X145137285Y-108582714D02*
X145232523Y-108630333D01*
X158122857Y-95069819D02*
X158456190Y-94593628D01*
X158694285Y-95069819D02*
X158694285Y-94069819D01*
X158694285Y-94069819D02*
X158313333Y-94069819D01*
X158313333Y-94069819D02*
X158218095Y-94117438D01*
X158218095Y-94117438D02*
X158170476Y-94165057D01*
X158170476Y-94165057D02*
X158122857Y-94260295D01*
X158122857Y-94260295D02*
X158122857Y-94403152D01*
X158122857Y-94403152D02*
X158170476Y-94498390D01*
X158170476Y-94498390D02*
X158218095Y-94546009D01*
X158218095Y-94546009D02*
X158313333Y-94593628D01*
X158313333Y-94593628D02*
X158694285Y-94593628D01*
X157170476Y-95069819D02*
X157741904Y-95069819D01*
X157456190Y-95069819D02*
X157456190Y-94069819D01*
X157456190Y-94069819D02*
X157551428Y-94212676D01*
X157551428Y-94212676D02*
X157646666Y-94307914D01*
X157646666Y-94307914D02*
X157741904Y-94355533D01*
X156551428Y-94069819D02*
X156456190Y-94069819D01*
X156456190Y-94069819D02*
X156360952Y-94117438D01*
X156360952Y-94117438D02*
X156313333Y-94165057D01*
X156313333Y-94165057D02*
X156265714Y-94260295D01*
X156265714Y-94260295D02*
X156218095Y-94450771D01*
X156218095Y-94450771D02*
X156218095Y-94688866D01*
X156218095Y-94688866D02*
X156265714Y-94879342D01*
X156265714Y-94879342D02*
X156313333Y-94974580D01*
X156313333Y-94974580D02*
X156360952Y-95022200D01*
X156360952Y-95022200D02*
X156456190Y-95069819D01*
X156456190Y-95069819D02*
X156551428Y-95069819D01*
X156551428Y-95069819D02*
X156646666Y-95022200D01*
X156646666Y-95022200D02*
X156694285Y-94974580D01*
X156694285Y-94974580D02*
X156741904Y-94879342D01*
X156741904Y-94879342D02*
X156789523Y-94688866D01*
X156789523Y-94688866D02*
X156789523Y-94450771D01*
X156789523Y-94450771D02*
X156741904Y-94260295D01*
X156741904Y-94260295D02*
X156694285Y-94165057D01*
X156694285Y-94165057D02*
X156646666Y-94117438D01*
X156646666Y-94117438D02*
X156551428Y-94069819D01*
X158091142Y-98387819D02*
X157995904Y-98387819D01*
X157995904Y-98387819D02*
X157900666Y-98435438D01*
X157900666Y-98435438D02*
X157853047Y-98483057D01*
X157853047Y-98483057D02*
X157805428Y-98578295D01*
X157805428Y-98578295D02*
X157757809Y-98768771D01*
X157757809Y-98768771D02*
X157757809Y-99006866D01*
X157757809Y-99006866D02*
X157805428Y-99197342D01*
X157805428Y-99197342D02*
X157853047Y-99292580D01*
X157853047Y-99292580D02*
X157900666Y-99340200D01*
X157900666Y-99340200D02*
X157995904Y-99387819D01*
X157995904Y-99387819D02*
X158091142Y-99387819D01*
X158091142Y-99387819D02*
X158186380Y-99340200D01*
X158186380Y-99340200D02*
X158233999Y-99292580D01*
X158233999Y-99292580D02*
X158281618Y-99197342D01*
X158281618Y-99197342D02*
X158329237Y-99006866D01*
X158329237Y-99006866D02*
X158329237Y-98768771D01*
X158329237Y-98768771D02*
X158281618Y-98578295D01*
X158281618Y-98578295D02*
X158233999Y-98483057D01*
X158233999Y-98483057D02*
X158186380Y-98435438D01*
X158186380Y-98435438D02*
X158091142Y-98387819D01*
X157329237Y-99387819D02*
X157329237Y-98721152D01*
X157329237Y-98911628D02*
X157281618Y-98816390D01*
X157281618Y-98816390D02*
X157233999Y-98768771D01*
X157233999Y-98768771D02*
X157138761Y-98721152D01*
X157138761Y-98721152D02*
X157043523Y-98721152D01*
D10*
X129967619Y-104704318D02*
X129967619Y-105732413D01*
X129967619Y-105732413D02*
X129907142Y-105853365D01*
X129907142Y-105853365D02*
X129846666Y-105913842D01*
X129846666Y-105913842D02*
X129725714Y-105974318D01*
X129725714Y-105974318D02*
X129483809Y-105974318D01*
X129483809Y-105974318D02*
X129362857Y-105913842D01*
X129362857Y-105913842D02*
X129302380Y-105853365D01*
X129302380Y-105853365D02*
X129241904Y-105732413D01*
X129241904Y-105732413D02*
X129241904Y-104704318D01*
X128092857Y-104704318D02*
X128334762Y-104704318D01*
X128334762Y-104704318D02*
X128455714Y-104764794D01*
X128455714Y-104764794D02*
X128516190Y-104825270D01*
X128516190Y-104825270D02*
X128637143Y-105006699D01*
X128637143Y-105006699D02*
X128697619Y-105248603D01*
X128697619Y-105248603D02*
X128697619Y-105732413D01*
X128697619Y-105732413D02*
X128637143Y-105853365D01*
X128637143Y-105853365D02*
X128576666Y-105913842D01*
X128576666Y-105913842D02*
X128455714Y-105974318D01*
X128455714Y-105974318D02*
X128213809Y-105974318D01*
X128213809Y-105974318D02*
X128092857Y-105913842D01*
X128092857Y-105913842D02*
X128032381Y-105853365D01*
X128032381Y-105853365D02*
X127971904Y-105732413D01*
X127971904Y-105732413D02*
X127971904Y-105430032D01*
X127971904Y-105430032D02*
X128032381Y-105309080D01*
X128032381Y-105309080D02*
X128092857Y-105248603D01*
X128092857Y-105248603D02*
X128213809Y-105188127D01*
X128213809Y-105188127D02*
X128455714Y-105188127D01*
X128455714Y-105188127D02*
X128576666Y-105248603D01*
X128576666Y-105248603D02*
X128637143Y-105309080D01*
X128637143Y-105309080D02*
X128697619Y-105430032D01*
D11*
X127166666Y-121309580D02*
X127214285Y-121357200D01*
X127214285Y-121357200D02*
X127357142Y-121404819D01*
X127357142Y-121404819D02*
X127452380Y-121404819D01*
X127452380Y-121404819D02*
X127595237Y-121357200D01*
X127595237Y-121357200D02*
X127690475Y-121261961D01*
X127690475Y-121261961D02*
X127738094Y-121166723D01*
X127738094Y-121166723D02*
X127785713Y-120976247D01*
X127785713Y-120976247D02*
X127785713Y-120833390D01*
X127785713Y-120833390D02*
X127738094Y-120642914D01*
X127738094Y-120642914D02*
X127690475Y-120547676D01*
X127690475Y-120547676D02*
X127595237Y-120452438D01*
X127595237Y-120452438D02*
X127452380Y-120404819D01*
X127452380Y-120404819D02*
X127357142Y-120404819D01*
X127357142Y-120404819D02*
X127214285Y-120452438D01*
X127214285Y-120452438D02*
X127166666Y-120500057D01*
X126785713Y-120500057D02*
X126738094Y-120452438D01*
X126738094Y-120452438D02*
X126642856Y-120404819D01*
X126642856Y-120404819D02*
X126404761Y-120404819D01*
X126404761Y-120404819D02*
X126309523Y-120452438D01*
X126309523Y-120452438D02*
X126261904Y-120500057D01*
X126261904Y-120500057D02*
X126214285Y-120595295D01*
X126214285Y-120595295D02*
X126214285Y-120690533D01*
X126214285Y-120690533D02*
X126261904Y-120833390D01*
X126261904Y-120833390D02*
X126833332Y-121404819D01*
X126833332Y-121404819D02*
X126214285Y-121404819D01*
X127116666Y-101109580D02*
X127164285Y-101157200D01*
X127164285Y-101157200D02*
X127307142Y-101204819D01*
X127307142Y-101204819D02*
X127402380Y-101204819D01*
X127402380Y-101204819D02*
X127545237Y-101157200D01*
X127545237Y-101157200D02*
X127640475Y-101061961D01*
X127640475Y-101061961D02*
X127688094Y-100966723D01*
X127688094Y-100966723D02*
X127735713Y-100776247D01*
X127735713Y-100776247D02*
X127735713Y-100633390D01*
X127735713Y-100633390D02*
X127688094Y-100442914D01*
X127688094Y-100442914D02*
X127640475Y-100347676D01*
X127640475Y-100347676D02*
X127545237Y-100252438D01*
X127545237Y-100252438D02*
X127402380Y-100204819D01*
X127402380Y-100204819D02*
X127307142Y-100204819D01*
X127307142Y-100204819D02*
X127164285Y-100252438D01*
X127164285Y-100252438D02*
X127116666Y-100300057D01*
X126164285Y-101204819D02*
X126735713Y-101204819D01*
X126449999Y-101204819D02*
X126449999Y-100204819D01*
X126449999Y-100204819D02*
X126545237Y-100347676D01*
X126545237Y-100347676D02*
X126640475Y-100442914D01*
X126640475Y-100442914D02*
X126735713Y-100490533D01*
X131216666Y-101159580D02*
X131264285Y-101207200D01*
X131264285Y-101207200D02*
X131407142Y-101254819D01*
X131407142Y-101254819D02*
X131502380Y-101254819D01*
X131502380Y-101254819D02*
X131645237Y-101207200D01*
X131645237Y-101207200D02*
X131740475Y-101111961D01*
X131740475Y-101111961D02*
X131788094Y-101016723D01*
X131788094Y-101016723D02*
X131835713Y-100826247D01*
X131835713Y-100826247D02*
X131835713Y-100683390D01*
X131835713Y-100683390D02*
X131788094Y-100492914D01*
X131788094Y-100492914D02*
X131740475Y-100397676D01*
X131740475Y-100397676D02*
X131645237Y-100302438D01*
X131645237Y-100302438D02*
X131502380Y-100254819D01*
X131502380Y-100254819D02*
X131407142Y-100254819D01*
X131407142Y-100254819D02*
X131264285Y-100302438D01*
X131264285Y-100302438D02*
X131216666Y-100350057D01*
X130883332Y-100254819D02*
X130216666Y-100254819D01*
X130216666Y-100254819D02*
X130645237Y-101254819D01*
X157661780Y-103166942D02*
X157709400Y-103119323D01*
X157709400Y-103119323D02*
X157757019Y-102976466D01*
X157757019Y-102976466D02*
X157757019Y-102881228D01*
X157757019Y-102881228D02*
X157709400Y-102738371D01*
X157709400Y-102738371D02*
X157614161Y-102643133D01*
X157614161Y-102643133D02*
X157518923Y-102595514D01*
X157518923Y-102595514D02*
X157328447Y-102547895D01*
X157328447Y-102547895D02*
X157185590Y-102547895D01*
X157185590Y-102547895D02*
X156995114Y-102595514D01*
X156995114Y-102595514D02*
X156899876Y-102643133D01*
X156899876Y-102643133D02*
X156804638Y-102738371D01*
X156804638Y-102738371D02*
X156757019Y-102881228D01*
X156757019Y-102881228D02*
X156757019Y-102976466D01*
X156757019Y-102976466D02*
X156804638Y-103119323D01*
X156804638Y-103119323D02*
X156852257Y-103166942D01*
X157757019Y-104119323D02*
X157757019Y-103547895D01*
X157757019Y-103833609D02*
X156757019Y-103833609D01*
X156757019Y-103833609D02*
X156899876Y-103738371D01*
X156899876Y-103738371D02*
X156995114Y-103643133D01*
X156995114Y-103643133D02*
X157042733Y-103547895D01*
X157757019Y-104595514D02*
X157757019Y-104785990D01*
X157757019Y-104785990D02*
X157709400Y-104881228D01*
X157709400Y-104881228D02*
X157661780Y-104928847D01*
X157661780Y-104928847D02*
X157518923Y-105024085D01*
X157518923Y-105024085D02*
X157328447Y-105071704D01*
X157328447Y-105071704D02*
X156947495Y-105071704D01*
X156947495Y-105071704D02*
X156852257Y-105024085D01*
X156852257Y-105024085D02*
X156804638Y-104976466D01*
X156804638Y-104976466D02*
X156757019Y-104881228D01*
X156757019Y-104881228D02*
X156757019Y-104690752D01*
X156757019Y-104690752D02*
X156804638Y-104595514D01*
X156804638Y-104595514D02*
X156852257Y-104547895D01*
X156852257Y-104547895D02*
X156947495Y-104500276D01*
X156947495Y-104500276D02*
X157185590Y-104500276D01*
X157185590Y-104500276D02*
X157280828Y-104547895D01*
X157280828Y-104547895D02*
X157328447Y-104595514D01*
X157328447Y-104595514D02*
X157376066Y-104690752D01*
X157376066Y-104690752D02*
X157376066Y-104881228D01*
X157376066Y-104881228D02*
X157328447Y-104976466D01*
X157328447Y-104976466D02*
X157280828Y-105024085D01*
X157280828Y-105024085D02*
X157185590Y-105071704D01*
X139079266Y-92453619D02*
X139412599Y-91977428D01*
X139650694Y-92453619D02*
X139650694Y-91453619D01*
X139650694Y-91453619D02*
X139269742Y-91453619D01*
X139269742Y-91453619D02*
X139174504Y-91501238D01*
X139174504Y-91501238D02*
X139126885Y-91548857D01*
X139126885Y-91548857D02*
X139079266Y-91644095D01*
X139079266Y-91644095D02*
X139079266Y-91786952D01*
X139079266Y-91786952D02*
X139126885Y-91882190D01*
X139126885Y-91882190D02*
X139174504Y-91929809D01*
X139174504Y-91929809D02*
X139269742Y-91977428D01*
X139269742Y-91977428D02*
X139650694Y-91977428D01*
X138222123Y-91786952D02*
X138222123Y-92453619D01*
X138460218Y-91406000D02*
X138698313Y-92120285D01*
X138698313Y-92120285D02*
X138079266Y-92120285D01*
X135856647Y-93774419D02*
X136428075Y-93774419D01*
X136142361Y-93774419D02*
X136142361Y-92774419D01*
X136142361Y-92774419D02*
X136237599Y-92917276D01*
X136237599Y-92917276D02*
X136332837Y-93012514D01*
X136332837Y-93012514D02*
X136428075Y-93060133D01*
X135428075Y-93774419D02*
X135428075Y-92774419D01*
X135332837Y-93393466D02*
X135047123Y-93774419D01*
X135047123Y-93107752D02*
X135428075Y-93488704D01*
X127216666Y-111309580D02*
X127264285Y-111357200D01*
X127264285Y-111357200D02*
X127407142Y-111404819D01*
X127407142Y-111404819D02*
X127502380Y-111404819D01*
X127502380Y-111404819D02*
X127645237Y-111357200D01*
X127645237Y-111357200D02*
X127740475Y-111261961D01*
X127740475Y-111261961D02*
X127788094Y-111166723D01*
X127788094Y-111166723D02*
X127835713Y-110976247D01*
X127835713Y-110976247D02*
X127835713Y-110833390D01*
X127835713Y-110833390D02*
X127788094Y-110642914D01*
X127788094Y-110642914D02*
X127740475Y-110547676D01*
X127740475Y-110547676D02*
X127645237Y-110452438D01*
X127645237Y-110452438D02*
X127502380Y-110404819D01*
X127502380Y-110404819D02*
X127407142Y-110404819D01*
X127407142Y-110404819D02*
X127264285Y-110452438D01*
X127264285Y-110452438D02*
X127216666Y-110500057D01*
X126359523Y-110404819D02*
X126549999Y-110404819D01*
X126549999Y-110404819D02*
X126645237Y-110452438D01*
X126645237Y-110452438D02*
X126692856Y-110500057D01*
X126692856Y-110500057D02*
X126788094Y-110642914D01*
X126788094Y-110642914D02*
X126835713Y-110833390D01*
X126835713Y-110833390D02*
X126835713Y-111214342D01*
X126835713Y-111214342D02*
X126788094Y-111309580D01*
X126788094Y-111309580D02*
X126740475Y-111357200D01*
X126740475Y-111357200D02*
X126645237Y-111404819D01*
X126645237Y-111404819D02*
X126454761Y-111404819D01*
X126454761Y-111404819D02*
X126359523Y-111357200D01*
X126359523Y-111357200D02*
X126311904Y-111309580D01*
X126311904Y-111309580D02*
X126264285Y-111214342D01*
X126264285Y-111214342D02*
X126264285Y-110976247D01*
X126264285Y-110976247D02*
X126311904Y-110881009D01*
X126311904Y-110881009D02*
X126359523Y-110833390D01*
X126359523Y-110833390D02*
X126454761Y-110785771D01*
X126454761Y-110785771D02*
X126645237Y-110785771D01*
X126645237Y-110785771D02*
X126740475Y-110833390D01*
X126740475Y-110833390D02*
X126788094Y-110881009D01*
X126788094Y-110881009D02*
X126835713Y-110976247D01*
D10*
X129967619Y-114804318D02*
X129967619Y-115832413D01*
X129967619Y-115832413D02*
X129907142Y-115953365D01*
X129907142Y-115953365D02*
X129846666Y-116013842D01*
X129846666Y-116013842D02*
X129725714Y-116074318D01*
X129725714Y-116074318D02*
X129483809Y-116074318D01*
X129483809Y-116074318D02*
X129362857Y-116013842D01*
X129362857Y-116013842D02*
X129302380Y-115953365D01*
X129302380Y-115953365D02*
X129241904Y-115832413D01*
X129241904Y-115832413D02*
X129241904Y-114804318D01*
X128697619Y-114925270D02*
X128637143Y-114864794D01*
X128637143Y-114864794D02*
X128516190Y-114804318D01*
X128516190Y-114804318D02*
X128213809Y-114804318D01*
X128213809Y-114804318D02*
X128092857Y-114864794D01*
X128092857Y-114864794D02*
X128032381Y-114925270D01*
X128032381Y-114925270D02*
X127971904Y-115046222D01*
X127971904Y-115046222D02*
X127971904Y-115167175D01*
X127971904Y-115167175D02*
X128032381Y-115348603D01*
X128032381Y-115348603D02*
X128758095Y-116074318D01*
X128758095Y-116074318D02*
X127971904Y-116074318D01*
D11*
X147209580Y-101307142D02*
X147257200Y-101259523D01*
X147257200Y-101259523D02*
X147304819Y-101116666D01*
X147304819Y-101116666D02*
X147304819Y-101021428D01*
X147304819Y-101021428D02*
X147257200Y-100878571D01*
X147257200Y-100878571D02*
X147161961Y-100783333D01*
X147161961Y-100783333D02*
X147066723Y-100735714D01*
X147066723Y-100735714D02*
X146876247Y-100688095D01*
X146876247Y-100688095D02*
X146733390Y-100688095D01*
X146733390Y-100688095D02*
X146542914Y-100735714D01*
X146542914Y-100735714D02*
X146447676Y-100783333D01*
X146447676Y-100783333D02*
X146352438Y-100878571D01*
X146352438Y-100878571D02*
X146304819Y-101021428D01*
X146304819Y-101021428D02*
X146304819Y-101116666D01*
X146304819Y-101116666D02*
X146352438Y-101259523D01*
X146352438Y-101259523D02*
X146400057Y-101307142D01*
X147304819Y-102259523D02*
X147304819Y-101688095D01*
X147304819Y-101973809D02*
X146304819Y-101973809D01*
X146304819Y-101973809D02*
X146447676Y-101878571D01*
X146447676Y-101878571D02*
X146542914Y-101783333D01*
X146542914Y-101783333D02*
X146590533Y-101688095D01*
X146304819Y-102592857D02*
X146304819Y-103259523D01*
X146304819Y-103259523D02*
X147304819Y-102830952D01*
X145600657Y-91647180D02*
X145648276Y-91694800D01*
X145648276Y-91694800D02*
X145791133Y-91742419D01*
X145791133Y-91742419D02*
X145886371Y-91742419D01*
X145886371Y-91742419D02*
X146029228Y-91694800D01*
X146029228Y-91694800D02*
X146124466Y-91599561D01*
X146124466Y-91599561D02*
X146172085Y-91504323D01*
X146172085Y-91504323D02*
X146219704Y-91313847D01*
X146219704Y-91313847D02*
X146219704Y-91170990D01*
X146219704Y-91170990D02*
X146172085Y-90980514D01*
X146172085Y-90980514D02*
X146124466Y-90885276D01*
X146124466Y-90885276D02*
X146029228Y-90790038D01*
X146029228Y-90790038D02*
X145886371Y-90742419D01*
X145886371Y-90742419D02*
X145791133Y-90742419D01*
X145791133Y-90742419D02*
X145648276Y-90790038D01*
X145648276Y-90790038D02*
X145600657Y-90837657D01*
X145219704Y-90837657D02*
X145172085Y-90790038D01*
X145172085Y-90790038D02*
X145076847Y-90742419D01*
X145076847Y-90742419D02*
X144838752Y-90742419D01*
X144838752Y-90742419D02*
X144743514Y-90790038D01*
X144743514Y-90790038D02*
X144695895Y-90837657D01*
X144695895Y-90837657D02*
X144648276Y-90932895D01*
X144648276Y-90932895D02*
X144648276Y-91028133D01*
X144648276Y-91028133D02*
X144695895Y-91170990D01*
X144695895Y-91170990D02*
X145267323Y-91742419D01*
X145267323Y-91742419D02*
X144648276Y-91742419D01*
X143743514Y-90742419D02*
X144219704Y-90742419D01*
X144219704Y-90742419D02*
X144267323Y-91218609D01*
X144267323Y-91218609D02*
X144219704Y-91170990D01*
X144219704Y-91170990D02*
X144124466Y-91123371D01*
X144124466Y-91123371D02*
X143886371Y-91123371D01*
X143886371Y-91123371D02*
X143791133Y-91170990D01*
X143791133Y-91170990D02*
X143743514Y-91218609D01*
X143743514Y-91218609D02*
X143695895Y-91313847D01*
X143695895Y-91313847D02*
X143695895Y-91551942D01*
X143695895Y-91551942D02*
X143743514Y-91647180D01*
X143743514Y-91647180D02*
X143791133Y-91694800D01*
X143791133Y-91694800D02*
X143886371Y-91742419D01*
X143886371Y-91742419D02*
X144124466Y-91742419D01*
X144124466Y-91742419D02*
X144219704Y-91694800D01*
X144219704Y-91694800D02*
X144267323Y-91647180D01*
X145559580Y-101407142D02*
X145607200Y-101359523D01*
X145607200Y-101359523D02*
X145654819Y-101216666D01*
X145654819Y-101216666D02*
X145654819Y-101121428D01*
X145654819Y-101121428D02*
X145607200Y-100978571D01*
X145607200Y-100978571D02*
X145511961Y-100883333D01*
X145511961Y-100883333D02*
X145416723Y-100835714D01*
X145416723Y-100835714D02*
X145226247Y-100788095D01*
X145226247Y-100788095D02*
X145083390Y-100788095D01*
X145083390Y-100788095D02*
X144892914Y-100835714D01*
X144892914Y-100835714D02*
X144797676Y-100883333D01*
X144797676Y-100883333D02*
X144702438Y-100978571D01*
X144702438Y-100978571D02*
X144654819Y-101121428D01*
X144654819Y-101121428D02*
X144654819Y-101216666D01*
X144654819Y-101216666D02*
X144702438Y-101359523D01*
X144702438Y-101359523D02*
X144750057Y-101407142D01*
X144750057Y-101788095D02*
X144702438Y-101835714D01*
X144702438Y-101835714D02*
X144654819Y-101930952D01*
X144654819Y-101930952D02*
X144654819Y-102169047D01*
X144654819Y-102169047D02*
X144702438Y-102264285D01*
X144702438Y-102264285D02*
X144750057Y-102311904D01*
X144750057Y-102311904D02*
X144845295Y-102359523D01*
X144845295Y-102359523D02*
X144940533Y-102359523D01*
X144940533Y-102359523D02*
X145083390Y-102311904D01*
X145083390Y-102311904D02*
X145654819Y-101740476D01*
X145654819Y-101740476D02*
X145654819Y-102359523D01*
X144750057Y-102740476D02*
X144702438Y-102788095D01*
X144702438Y-102788095D02*
X144654819Y-102883333D01*
X144654819Y-102883333D02*
X144654819Y-103121428D01*
X144654819Y-103121428D02*
X144702438Y-103216666D01*
X144702438Y-103216666D02*
X144750057Y-103264285D01*
X144750057Y-103264285D02*
X144845295Y-103311904D01*
X144845295Y-103311904D02*
X144940533Y-103311904D01*
X144940533Y-103311904D02*
X145083390Y-103264285D01*
X145083390Y-103264285D02*
X145654819Y-102692857D01*
X145654819Y-102692857D02*
X145654819Y-103311904D01*
X155446457Y-97412380D02*
X155494076Y-97460000D01*
X155494076Y-97460000D02*
X155636933Y-97507619D01*
X155636933Y-97507619D02*
X155732171Y-97507619D01*
X155732171Y-97507619D02*
X155875028Y-97460000D01*
X155875028Y-97460000D02*
X155970266Y-97364761D01*
X155970266Y-97364761D02*
X156017885Y-97269523D01*
X156017885Y-97269523D02*
X156065504Y-97079047D01*
X156065504Y-97079047D02*
X156065504Y-96936190D01*
X156065504Y-96936190D02*
X156017885Y-96745714D01*
X156017885Y-96745714D02*
X155970266Y-96650476D01*
X155970266Y-96650476D02*
X155875028Y-96555238D01*
X155875028Y-96555238D02*
X155732171Y-96507619D01*
X155732171Y-96507619D02*
X155636933Y-96507619D01*
X155636933Y-96507619D02*
X155494076Y-96555238D01*
X155494076Y-96555238D02*
X155446457Y-96602857D01*
X155065504Y-96602857D02*
X155017885Y-96555238D01*
X155017885Y-96555238D02*
X154922647Y-96507619D01*
X154922647Y-96507619D02*
X154684552Y-96507619D01*
X154684552Y-96507619D02*
X154589314Y-96555238D01*
X154589314Y-96555238D02*
X154541695Y-96602857D01*
X154541695Y-96602857D02*
X154494076Y-96698095D01*
X154494076Y-96698095D02*
X154494076Y-96793333D01*
X154494076Y-96793333D02*
X154541695Y-96936190D01*
X154541695Y-96936190D02*
X155113123Y-97507619D01*
X155113123Y-97507619D02*
X154494076Y-97507619D01*
X153636933Y-96840952D02*
X153636933Y-97507619D01*
X153875028Y-96460000D02*
X154113123Y-97174285D01*
X154113123Y-97174285D02*
X153494076Y-97174285D01*
X152366504Y-98492552D02*
X152366504Y-99159219D01*
X152604599Y-98111600D02*
X152842694Y-98825885D01*
X152842694Y-98825885D02*
X152223647Y-98825885D01*
X151842694Y-99063980D02*
X151795075Y-99111600D01*
X151795075Y-99111600D02*
X151842694Y-99159219D01*
X151842694Y-99159219D02*
X151890313Y-99111600D01*
X151890313Y-99111600D02*
X151842694Y-99063980D01*
X151842694Y-99063980D02*
X151842694Y-99159219D01*
X151461742Y-98159219D02*
X150795076Y-98159219D01*
X150795076Y-98159219D02*
X151223647Y-99159219D01*
X149985552Y-98492552D02*
X149985552Y-99159219D01*
X150414123Y-98492552D02*
X150414123Y-99016361D01*
X150414123Y-99016361D02*
X150366504Y-99111600D01*
X150366504Y-99111600D02*
X150271266Y-99159219D01*
X150271266Y-99159219D02*
X150128409Y-99159219D01*
X150128409Y-99159219D02*
X150033171Y-99111600D01*
X150033171Y-99111600D02*
X149985552Y-99063980D01*
X149652218Y-98492552D02*
X149271266Y-98492552D01*
X149509361Y-99159219D02*
X149509361Y-98302076D01*
X149509361Y-98302076D02*
X149461742Y-98206838D01*
X149461742Y-98206838D02*
X149366504Y-98159219D01*
X149366504Y-98159219D02*
X149271266Y-98159219D01*
X151061657Y-109300180D02*
X151109276Y-109347800D01*
X151109276Y-109347800D02*
X151252133Y-109395419D01*
X151252133Y-109395419D02*
X151347371Y-109395419D01*
X151347371Y-109395419D02*
X151490228Y-109347800D01*
X151490228Y-109347800D02*
X151585466Y-109252561D01*
X151585466Y-109252561D02*
X151633085Y-109157323D01*
X151633085Y-109157323D02*
X151680704Y-108966847D01*
X151680704Y-108966847D02*
X151680704Y-108823990D01*
X151680704Y-108823990D02*
X151633085Y-108633514D01*
X151633085Y-108633514D02*
X151585466Y-108538276D01*
X151585466Y-108538276D02*
X151490228Y-108443038D01*
X151490228Y-108443038D02*
X151347371Y-108395419D01*
X151347371Y-108395419D02*
X151252133Y-108395419D01*
X151252133Y-108395419D02*
X151109276Y-108443038D01*
X151109276Y-108443038D02*
X151061657Y-108490657D01*
X150109276Y-109395419D02*
X150680704Y-109395419D01*
X150394990Y-109395419D02*
X150394990Y-108395419D01*
X150394990Y-108395419D02*
X150490228Y-108538276D01*
X150490228Y-108538276D02*
X150585466Y-108633514D01*
X150585466Y-108633514D02*
X150680704Y-108681133D01*
X149252133Y-108395419D02*
X149442609Y-108395419D01*
X149442609Y-108395419D02*
X149537847Y-108443038D01*
X149537847Y-108443038D02*
X149585466Y-108490657D01*
X149585466Y-108490657D02*
X149680704Y-108633514D01*
X149680704Y-108633514D02*
X149728323Y-108823990D01*
X149728323Y-108823990D02*
X149728323Y-109204942D01*
X149728323Y-109204942D02*
X149680704Y-109300180D01*
X149680704Y-109300180D02*
X149633085Y-109347800D01*
X149633085Y-109347800D02*
X149537847Y-109395419D01*
X149537847Y-109395419D02*
X149347371Y-109395419D01*
X149347371Y-109395419D02*
X149252133Y-109347800D01*
X149252133Y-109347800D02*
X149204514Y-109300180D01*
X149204514Y-109300180D02*
X149156895Y-109204942D01*
X149156895Y-109204942D02*
X149156895Y-108966847D01*
X149156895Y-108966847D02*
X149204514Y-108871609D01*
X149204514Y-108871609D02*
X149252133Y-108823990D01*
X149252133Y-108823990D02*
X149347371Y-108776371D01*
X149347371Y-108776371D02*
X149537847Y-108776371D01*
X149537847Y-108776371D02*
X149633085Y-108823990D01*
X149633085Y-108823990D02*
X149680704Y-108871609D01*
X149680704Y-108871609D02*
X149728323Y-108966847D01*
X131642857Y-111309580D02*
X131690476Y-111357200D01*
X131690476Y-111357200D02*
X131833333Y-111404819D01*
X131833333Y-111404819D02*
X131928571Y-111404819D01*
X131928571Y-111404819D02*
X132071428Y-111357200D01*
X132071428Y-111357200D02*
X132166666Y-111261961D01*
X132166666Y-111261961D02*
X132214285Y-111166723D01*
X132214285Y-111166723D02*
X132261904Y-110976247D01*
X132261904Y-110976247D02*
X132261904Y-110833390D01*
X132261904Y-110833390D02*
X132214285Y-110642914D01*
X132214285Y-110642914D02*
X132166666Y-110547676D01*
X132166666Y-110547676D02*
X132071428Y-110452438D01*
X132071428Y-110452438D02*
X131928571Y-110404819D01*
X131928571Y-110404819D02*
X131833333Y-110404819D01*
X131833333Y-110404819D02*
X131690476Y-110452438D01*
X131690476Y-110452438D02*
X131642857Y-110500057D01*
X130690476Y-111404819D02*
X131261904Y-111404819D01*
X130976190Y-111404819D02*
X130976190Y-110404819D01*
X130976190Y-110404819D02*
X131071428Y-110547676D01*
X131071428Y-110547676D02*
X131166666Y-110642914D01*
X131166666Y-110642914D02*
X131261904Y-110690533D01*
X130309523Y-110500057D02*
X130261904Y-110452438D01*
X130261904Y-110452438D02*
X130166666Y-110404819D01*
X130166666Y-110404819D02*
X129928571Y-110404819D01*
X129928571Y-110404819D02*
X129833333Y-110452438D01*
X129833333Y-110452438D02*
X129785714Y-110500057D01*
X129785714Y-110500057D02*
X129738095Y-110595295D01*
X129738095Y-110595295D02*
X129738095Y-110690533D01*
X129738095Y-110690533D02*
X129785714Y-110833390D01*
X129785714Y-110833390D02*
X130357142Y-111404819D01*
X130357142Y-111404819D02*
X129738095Y-111404819D01*
X131166666Y-121359580D02*
X131214285Y-121407200D01*
X131214285Y-121407200D02*
X131357142Y-121454819D01*
X131357142Y-121454819D02*
X131452380Y-121454819D01*
X131452380Y-121454819D02*
X131595237Y-121407200D01*
X131595237Y-121407200D02*
X131690475Y-121311961D01*
X131690475Y-121311961D02*
X131738094Y-121216723D01*
X131738094Y-121216723D02*
X131785713Y-121026247D01*
X131785713Y-121026247D02*
X131785713Y-120883390D01*
X131785713Y-120883390D02*
X131738094Y-120692914D01*
X131738094Y-120692914D02*
X131690475Y-120597676D01*
X131690475Y-120597676D02*
X131595237Y-120502438D01*
X131595237Y-120502438D02*
X131452380Y-120454819D01*
X131452380Y-120454819D02*
X131357142Y-120454819D01*
X131357142Y-120454819D02*
X131214285Y-120502438D01*
X131214285Y-120502438D02*
X131166666Y-120550057D01*
X130595237Y-120883390D02*
X130690475Y-120835771D01*
X130690475Y-120835771D02*
X130738094Y-120788152D01*
X130738094Y-120788152D02*
X130785713Y-120692914D01*
X130785713Y-120692914D02*
X130785713Y-120645295D01*
X130785713Y-120645295D02*
X130738094Y-120550057D01*
X130738094Y-120550057D02*
X130690475Y-120502438D01*
X130690475Y-120502438D02*
X130595237Y-120454819D01*
X130595237Y-120454819D02*
X130404761Y-120454819D01*
X130404761Y-120454819D02*
X130309523Y-120502438D01*
X130309523Y-120502438D02*
X130261904Y-120550057D01*
X130261904Y-120550057D02*
X130214285Y-120645295D01*
X130214285Y-120645295D02*
X130214285Y-120692914D01*
X130214285Y-120692914D02*
X130261904Y-120788152D01*
X130261904Y-120788152D02*
X130309523Y-120835771D01*
X130309523Y-120835771D02*
X130404761Y-120883390D01*
X130404761Y-120883390D02*
X130595237Y-120883390D01*
X130595237Y-120883390D02*
X130690475Y-120931009D01*
X130690475Y-120931009D02*
X130738094Y-120978628D01*
X130738094Y-120978628D02*
X130785713Y-121073866D01*
X130785713Y-121073866D02*
X130785713Y-121264342D01*
X130785713Y-121264342D02*
X130738094Y-121359580D01*
X130738094Y-121359580D02*
X130690475Y-121407200D01*
X130690475Y-121407200D02*
X130595237Y-121454819D01*
X130595237Y-121454819D02*
X130404761Y-121454819D01*
X130404761Y-121454819D02*
X130309523Y-121407200D01*
X130309523Y-121407200D02*
X130261904Y-121359580D01*
X130261904Y-121359580D02*
X130214285Y-121264342D01*
X130214285Y-121264342D02*
X130214285Y-121073866D01*
X130214285Y-121073866D02*
X130261904Y-120978628D01*
X130261904Y-120978628D02*
X130309523Y-120931009D01*
X130309523Y-120931009D02*
X130404761Y-120883390D01*
D12*
X126800000Y-97825000D02*
X125325000Y-97825000D01*
X127150000Y-92800000D02*
X130850000Y-92800000D01*
X127150000Y-97800000D02*
X127150000Y-92800000D01*
X130850000Y-92800000D02*
X130850000Y-97800000D01*
X130850000Y-97800000D02*
X127150000Y-97800000D01*
D13*
X146165580Y-106940000D02*
X145884420Y-106940000D01*
X146165580Y-107960000D02*
X145884420Y-107960000D01*
X157160700Y-96973658D02*
X157160700Y-96499142D01*
X158205700Y-96973658D02*
X158205700Y-96499142D01*
D12*
X126800000Y-107925000D02*
X125325000Y-107925000D01*
X127150000Y-102900000D02*
X130850000Y-102900000D01*
X127150000Y-107900000D02*
X127150000Y-102900000D01*
X130850000Y-102900000D02*
X130850000Y-107900000D01*
X130850000Y-107900000D02*
X127150000Y-107900000D01*
D13*
X126859420Y-118990000D02*
X127140580Y-118990000D01*
X126859420Y-120010000D02*
X127140580Y-120010000D01*
X126859420Y-98790000D02*
X127140580Y-98790000D01*
X126859420Y-99810000D02*
X127140580Y-99810000D01*
X130859420Y-98790000D02*
X131140580Y-98790000D01*
X130859420Y-99810000D02*
X131140580Y-99810000D01*
X155319000Y-104051980D02*
X155319000Y-103770820D01*
X156339000Y-104051980D02*
X156339000Y-103770820D01*
X137824942Y-92847900D02*
X138299458Y-92847900D01*
X137824942Y-93892900D02*
X138299458Y-93892900D01*
X126859420Y-108890000D02*
X127140580Y-108890000D01*
X126859420Y-109910000D02*
X127140580Y-109910000D01*
D12*
X126800000Y-118025000D02*
X125325000Y-118025000D01*
X127150000Y-113000000D02*
X130850000Y-113000000D01*
X127150000Y-118000000D02*
X127150000Y-113000000D01*
X130850000Y-113000000D02*
X130850000Y-118000000D01*
X130850000Y-118000000D02*
X127150000Y-118000000D01*
D13*
X146290000Y-105034419D02*
X146290000Y-105315581D01*
X147310000Y-105034419D02*
X147310000Y-105315581D01*
X145123780Y-92200000D02*
X144842620Y-92200000D01*
X145123780Y-93220000D02*
X144842620Y-93220000D01*
X144690000Y-105315580D02*
X144690000Y-105034420D01*
X145710000Y-105315580D02*
X145710000Y-105034420D01*
X154592348Y-97867800D02*
X155114852Y-97867800D01*
X154592348Y-99337800D02*
X155114852Y-99337800D01*
X150309420Y-106940000D02*
X150590580Y-106940000D01*
X150309420Y-107960000D02*
X150590580Y-107960000D01*
X130859420Y-108890000D02*
X131140580Y-108890000D01*
X130859420Y-109910000D02*
X131140580Y-109910000D01*
X130859420Y-118990000D02*
X131140580Y-118990000D01*
X130859420Y-120010000D02*
X131140580Y-120010000D01*
%LPC*%
D14*
X118490000Y-129550000D03*
D15*
X115950000Y-129550000D03*
X118490000Y-127010000D03*
X115950000Y-127010000D03*
X118490000Y-124470000D03*
X115950000Y-124470000D03*
X118490000Y-121930000D03*
X115950000Y-121930000D03*
X118490000Y-119390000D03*
X115950000Y-119390000D03*
X118490000Y-116850000D03*
X115950000Y-116850000D03*
X118490000Y-114310000D03*
X115950000Y-114310000D03*
X118490000Y-111770000D03*
X115950000Y-111770000D03*
X118490000Y-109230000D03*
X115950000Y-109230000D03*
X118490000Y-106690000D03*
X115950000Y-106690000D03*
X118490000Y-104150000D03*
X115950000Y-104150000D03*
X118490000Y-101610000D03*
X115950000Y-101610000D03*
X118490000Y-99070000D03*
X115950000Y-99070000D03*
X118490000Y-96530000D03*
X115950000Y-96530000D03*
X118490000Y-93990000D03*
X115950000Y-93990000D03*
X118490000Y-91450000D03*
X115950000Y-91450000D03*
D16*
X123000000Y-88500000D03*
D17*
X130641700Y-127010000D03*
D18*
X130641700Y-124510000D03*
D14*
X160197800Y-93395800D03*
D15*
X160197800Y-95935800D03*
X160197800Y-98475800D03*
X160197800Y-101015800D03*
X160197800Y-103555800D03*
X160197800Y-106095800D03*
D16*
X159000000Y-88500000D03*
D19*
X141693000Y-87327800D03*
D20*
X141383000Y-90327800D03*
X136543000Y-90327800D03*
D19*
X136233000Y-87327800D03*
D16*
X159000000Y-132500000D03*
D14*
X148590000Y-126410000D03*
D15*
X151130000Y-126410000D03*
X153670000Y-126410000D03*
D14*
X128874600Y-87655400D03*
D15*
X131414600Y-87655400D03*
D14*
X148590000Y-89611200D03*
D15*
X151130000Y-89611200D03*
X153670000Y-89611200D03*
D21*
X150200000Y-106062500D03*
X150200000Y-105062500D03*
X150200000Y-104062500D03*
X149200000Y-106062500D03*
X149200000Y-105062500D03*
X149200000Y-104062500D03*
X148200000Y-106062500D03*
X148200000Y-105062500D03*
X148200000Y-104062500D03*
D16*
X123000000Y-132500000D03*
D22*
X126062000Y-97250000D03*
X126062000Y-96600000D03*
X126062000Y-95950000D03*
X126062000Y-95300000D03*
X126062000Y-94650000D03*
X126062000Y-94000000D03*
X126062000Y-93350000D03*
X131938000Y-93350000D03*
X131938000Y-94000000D03*
X131938000Y-94650000D03*
X131938000Y-95300000D03*
X131938000Y-95950000D03*
X131938000Y-96600000D03*
X131938000Y-97250000D03*
D23*
X145250000Y-107450000D03*
X146800000Y-107450000D03*
D24*
X157683200Y-95911400D03*
X157683200Y-97561400D03*
D22*
X126062000Y-107350000D03*
X126062000Y-106700000D03*
X126062000Y-106050000D03*
X126062000Y-105400000D03*
X126062000Y-104750000D03*
X126062000Y-104100000D03*
X126062000Y-103450000D03*
X131938000Y-103450000D03*
X131938000Y-104100000D03*
X131938000Y-104750000D03*
X131938000Y-105400000D03*
X131938000Y-106050000D03*
X131938000Y-106700000D03*
X131938000Y-107350000D03*
D25*
X127775000Y-119500000D03*
X126225000Y-119500000D03*
X127775000Y-99300000D03*
X126225000Y-99300000D03*
X131775000Y-99300000D03*
X130225000Y-99300000D03*
D26*
X155829000Y-103136400D03*
X155829000Y-104686400D03*
D27*
X138887200Y-93370400D03*
X137237200Y-93370400D03*
D25*
X127775000Y-109400000D03*
X126225000Y-109400000D03*
D22*
X126062000Y-117450000D03*
X126062000Y-116800000D03*
X126062000Y-116150000D03*
X126062000Y-115500000D03*
X126062000Y-114850000D03*
X126062000Y-114200000D03*
X126062000Y-113550000D03*
X131938000Y-113550000D03*
X131938000Y-114200000D03*
X131938000Y-114850000D03*
X131938000Y-115500000D03*
X131938000Y-116150000D03*
X131938000Y-116800000D03*
X131938000Y-117450000D03*
D28*
X146800000Y-105950000D03*
X146800000Y-104400000D03*
D23*
X144208200Y-92710000D03*
X145758200Y-92710000D03*
D26*
X145200000Y-104400000D03*
X145200000Y-105950000D03*
D29*
X155803600Y-98602800D03*
X153903600Y-98602800D03*
D25*
X151225000Y-107450000D03*
X149675000Y-107450000D03*
X131775000Y-109400000D03*
X130225000Y-109400000D03*
X131775000Y-119500000D03*
X130225000Y-119500000D03*
D14*
X140770000Y-119380000D03*
D15*
X143310000Y-119380000D03*
X145850000Y-119380000D03*
%LPD*%
M02*
