G04 #@! TF.GenerationSoftware,KiCad,Pcbnew,8.0.8*
G04 #@! TF.CreationDate,2025-02-21T19:24:50+11:00*
G04 #@! TF.ProjectId,RP2350LevelShifter,52503233-3530-44c6-9576-656c53686966,rev?*
G04 #@! TF.SameCoordinates,Original*
G04 #@! TF.FileFunction,Legend,Top*
G04 #@! TF.FilePolarity,Positive*
%FSLAX46Y46*%
G04 Gerber Fmt 4.6, Leading zero omitted, Abs format (unit mm)*
G04 Created by KiCad (PCBNEW 8.0.8) date 2025-02-21 19:24:50*
%MOMM*%
%LPD*%
G01*
G04 APERTURE LIST*
G04 Aperture macros list*
%AMRoundRect*
0 Rectangle with rounded corners*
0 $1 Rounding radius*
0 $2 $3 $4 $5 $6 $7 $8 $9 X,Y pos of 4 corners*
0 Add a 4 corners polygon primitive as box body*
4,1,4,$2,$3,$4,$5,$6,$7,$8,$9,$2,$3,0*
0 Add four circle primitives for the rounded corners*
1,1,$1+$1,$2,$3*
1,1,$1+$1,$4,$5*
1,1,$1+$1,$6,$7*
1,1,$1+$1,$8,$9*
0 Add four rect primitives between the rounded corners*
20,1,$1+$1,$2,$3,$4,$5,0*
20,1,$1+$1,$4,$5,$6,$7,0*
20,1,$1+$1,$6,$7,$8,$9,0*
20,1,$1+$1,$8,$9,$2,$3,0*%
%AMOutline5P*
0 Free polygon, 5 corners , with rotation*
0 The origin of the aperture is its center*
0 number of corners: always 5*
0 $1 to $10 corner X, Y*
0 $11 Rotation angle, in degrees counterclockwise*
0 create outline with 5 corners*
4,1,5,$1,$2,$3,$4,$5,$6,$7,$8,$9,$10,$1,$2,$11*%
%AMOutline6P*
0 Free polygon, 6 corners , with rotation*
0 The origin of the aperture is its center*
0 number of corners: always 6*
0 $1 to $12 corner X, Y*
0 $13 Rotation angle, in degrees counterclockwise*
0 create outline with 6 corners*
4,1,6,$1,$2,$3,$4,$5,$6,$7,$8,$9,$10,$11,$12,$1,$2,$13*%
%AMOutline7P*
0 Free polygon, 7 corners , with rotation*
0 The origin of the aperture is its center*
0 number of corners: always 7*
0 $1 to $14 corner X, Y*
0 $15 Rotation angle, in degrees counterclockwise*
0 create outline with 7 corners*
4,1,7,$1,$2,$3,$4,$5,$6,$7,$8,$9,$10,$11,$12,$13,$14,$1,$2,$15*%
%AMOutline8P*
0 Free polygon, 8 corners , with rotation*
0 The origin of the aperture is its center*
0 number of corners: always 8*
0 $1 to $16 corner X, Y*
0 $17 Rotation angle, in degrees counterclockwise*
0 create outline with 8 corners*
4,1,8,$1,$2,$3,$4,$5,$6,$7,$8,$9,$10,$11,$12,$13,$14,$15,$16,$1,$2,$17*%
G04 Aperture macros list end*
%ADD10C,0.120000*%
%ADD11C,0.150000*%
%ADD12C,0.300000*%
%ADD13C,0.254000*%
%ADD14C,0.200000*%
%ADD15C,0.375000*%
%ADD16RoundRect,0.250000X0.250000X0.475000X-0.250000X0.475000X-0.250000X-0.475000X0.250000X-0.475000X0*%
%ADD17R,1.700000X1.700000*%
%ADD18O,1.700000X1.700000*%
%ADD19C,2.500000*%
%ADD20R,1.600000X1.600000*%
%ADD21C,1.600000*%
%ADD22RoundRect,0.225000X0.250000X-0.225000X0.250000X0.225000X-0.250000X0.225000X-0.250000X-0.225000X0*%
%ADD23RoundRect,0.375000X-0.625000X-0.375000X0.625000X-0.375000X0.625000X0.375000X-0.625000X0.375000X0*%
%ADD24RoundRect,0.500000X-0.500000X-1.400000X0.500000X-1.400000X0.500000X1.400000X-0.500000X1.400000X0*%
%ADD25RoundRect,0.200000X0.275000X-0.200000X0.275000X0.200000X-0.275000X0.200000X-0.275000X-0.200000X0*%
%ADD26RoundRect,0.225000X0.225000X0.250000X-0.225000X0.250000X-0.225000X-0.250000X0.225000X-0.250000X0*%
%ADD27R,1.475000X0.450000*%
%ADD28RoundRect,0.200000X0.200000X0.275000X-0.200000X0.275000X-0.200000X-0.275000X0.200000X-0.275000X0*%
%ADD29R,0.400000X1.650000*%
%ADD30R,1.825000X0.700000*%
%ADD31R,2.000000X1.500000*%
%ADD32R,1.350000X2.000000*%
%ADD33O,1.350000X1.700000*%
%ADD34O,1.100000X1.500000*%
%ADD35R,1.430000X2.500000*%
%ADD36RoundRect,0.200000X-0.200000X-0.275000X0.200000X-0.275000X0.200000X0.275000X-0.200000X0.275000X0*%
%ADD37RoundRect,0.150000X-0.512500X-0.150000X0.512500X-0.150000X0.512500X0.150000X-0.512500X0.150000X0*%
%ADD38RoundRect,0.250000X-0.250000X-0.475000X0.250000X-0.475000X0.250000X0.475000X-0.250000X0.475000X0*%
%ADD39R,0.600000X1.250000*%
%ADD40RoundRect,0.225000X0.225000X0.375000X-0.225000X0.375000X-0.225000X-0.375000X0.225000X-0.375000X0*%
%ADD41R,0.950000X1.400000*%
%ADD42RoundRect,0.225000X-0.250000X0.225000X-0.250000X-0.225000X0.250000X-0.225000X0.250000X0.225000X0*%
%ADD43RoundRect,0.200000X-0.275000X0.200000X-0.275000X-0.200000X0.275000X-0.200000X0.275000X0.200000X0*%
%ADD44RoundRect,0.150000X-0.650000X-0.150000X0.650000X-0.150000X0.650000X0.150000X-0.650000X0.150000X0*%
%ADD45C,0.700000*%
%ADD46R,3.400000X3.400000*%
%ADD47Outline5P,-0.100000X0.437500X0.100000X0.437500X0.100000X-0.437500X-0.050000X-0.437500X-0.100000X-0.387500X0.000000*%
%ADD48R,0.200000X0.875000*%
%ADD49Outline5P,-0.100000X0.437500X0.100000X0.437500X0.100000X-0.387500X0.050000X-0.437500X-0.100000X-0.437500X0.000000*%
%ADD50Outline5P,-0.100000X0.437500X0.050000X0.437500X0.100000X0.387500X0.100000X-0.437500X-0.100000X-0.437500X90.000000*%
%ADD51R,0.875000X0.200000*%
%ADD52Outline5P,-0.100000X0.387500X-0.050000X0.437500X0.100000X0.437500X0.100000X-0.437500X-0.100000X-0.437500X90.000000*%
%ADD53Outline5P,-0.100000X0.437500X0.050000X0.437500X0.100000X0.387500X0.100000X-0.437500X-0.100000X-0.437500X0.000000*%
%ADD54Outline5P,-0.100000X0.387500X-0.050000X0.437500X0.100000X0.437500X0.100000X-0.437500X-0.100000X-0.437500X0.000000*%
%ADD55Outline5P,-0.100000X0.437500X0.100000X0.437500X0.100000X-0.437500X-0.050000X-0.437500X-0.100000X-0.387500X90.000000*%
%ADD56Outline5P,-0.100000X0.437500X0.100000X0.437500X0.100000X-0.387500X0.050000X-0.437500X-0.100000X-0.437500X90.000000*%
%ADD57R,1.400000X1.200000*%
G04 APERTURE END LIST*
D10*
X119954029Y-110456000D02*
X124954029Y-110456000D01*
X119954029Y-120456000D02*
X124954029Y-120456000D01*
X119954029Y-127956000D02*
X124954029Y-127956000D01*
X119954029Y-107956000D02*
X124954029Y-107956000D01*
X119954029Y-105456000D02*
X124954029Y-105456000D01*
X119954029Y-95456000D02*
X124954029Y-95456000D01*
X119954029Y-112956000D02*
X124954029Y-112956000D01*
X119954029Y-92956000D02*
X124954029Y-92956000D01*
X119954029Y-117956000D02*
X124954029Y-117956000D01*
X119954029Y-125456000D02*
X124954029Y-125456000D01*
X119954029Y-97956000D02*
X124954029Y-97956000D01*
X119954029Y-122956000D02*
X124954029Y-122956000D01*
X122428000Y-90586949D02*
X122427999Y-130456000D01*
X119901970Y-90586949D02*
X124954029Y-90586949D01*
X124954029Y-130456000D01*
X119901970Y-130456000D01*
X119901970Y-90586949D01*
X119954029Y-115456000D02*
X124954029Y-115456000D01*
X119954029Y-100456000D02*
X124954029Y-100456000D01*
X119954029Y-102956000D02*
X124954029Y-102956000D01*
D11*
X121064617Y-114825819D02*
X120493189Y-114825819D01*
X120778903Y-114825819D02*
X120778903Y-113825819D01*
X120778903Y-113825819D02*
X120683665Y-113968676D01*
X120683665Y-113968676D02*
X120588427Y-114063914D01*
X120588427Y-114063914D02*
X120493189Y-114111533D01*
X121969379Y-113825819D02*
X121493189Y-113825819D01*
X121493189Y-113825819D02*
X121445570Y-114302009D01*
X121445570Y-114302009D02*
X121493189Y-114254390D01*
X121493189Y-114254390D02*
X121588427Y-114206771D01*
X121588427Y-114206771D02*
X121826522Y-114206771D01*
X121826522Y-114206771D02*
X121921760Y-114254390D01*
X121921760Y-114254390D02*
X121969379Y-114302009D01*
X121969379Y-114302009D02*
X122016998Y-114397247D01*
X122016998Y-114397247D02*
X122016998Y-114635342D01*
X122016998Y-114635342D02*
X121969379Y-114730580D01*
X121969379Y-114730580D02*
X121921760Y-114778200D01*
X121921760Y-114778200D02*
X121826522Y-114825819D01*
X121826522Y-114825819D02*
X121588427Y-114825819D01*
X121588427Y-114825819D02*
X121493189Y-114778200D01*
X121493189Y-114778200D02*
X121445570Y-114730580D01*
X120805570Y-128873438D02*
X120742713Y-128825819D01*
X120742713Y-128825819D02*
X120648427Y-128825819D01*
X120648427Y-128825819D02*
X120554141Y-128873438D01*
X120554141Y-128873438D02*
X120491284Y-128968676D01*
X120491284Y-128968676D02*
X120459855Y-129063914D01*
X120459855Y-129063914D02*
X120428427Y-129254390D01*
X120428427Y-129254390D02*
X120428427Y-129397247D01*
X120428427Y-129397247D02*
X120459855Y-129587723D01*
X120459855Y-129587723D02*
X120491284Y-129682961D01*
X120491284Y-129682961D02*
X120554141Y-129778200D01*
X120554141Y-129778200D02*
X120648427Y-129825819D01*
X120648427Y-129825819D02*
X120711284Y-129825819D01*
X120711284Y-129825819D02*
X120805570Y-129778200D01*
X120805570Y-129778200D02*
X120836998Y-129730580D01*
X120836998Y-129730580D02*
X120836998Y-129397247D01*
X120836998Y-129397247D02*
X120711284Y-129397247D01*
X121119855Y-129825819D02*
X121119855Y-128825819D01*
X121119855Y-128825819D02*
X121496998Y-129825819D01*
X121496998Y-129825819D02*
X121496998Y-128825819D01*
X121811284Y-129825819D02*
X121811284Y-128825819D01*
X121811284Y-128825819D02*
X121968427Y-128825819D01*
X121968427Y-128825819D02*
X122062713Y-128873438D01*
X122062713Y-128873438D02*
X122125570Y-128968676D01*
X122125570Y-128968676D02*
X122156999Y-129063914D01*
X122156999Y-129063914D02*
X122188427Y-129254390D01*
X122188427Y-129254390D02*
X122188427Y-129397247D01*
X122188427Y-129397247D02*
X122156999Y-129587723D01*
X122156999Y-129587723D02*
X122125570Y-129682961D01*
X122125570Y-129682961D02*
X122062713Y-129778200D01*
X122062713Y-129778200D02*
X121968427Y-129825819D01*
X121968427Y-129825819D02*
X121811284Y-129825819D01*
D12*
X134585769Y-121132117D02*
X134514341Y-121060689D01*
X134514341Y-121060689D02*
X134442912Y-120917832D01*
X134442912Y-120917832D02*
X134442912Y-120560689D01*
X134442912Y-120560689D02*
X134514341Y-120417832D01*
X134514341Y-120417832D02*
X134585769Y-120346403D01*
X134585769Y-120346403D02*
X134728626Y-120274974D01*
X134728626Y-120274974D02*
X134871484Y-120274974D01*
X134871484Y-120274974D02*
X135085769Y-120346403D01*
X135085769Y-120346403D02*
X135942912Y-121203546D01*
X135942912Y-121203546D02*
X135942912Y-120274974D01*
X134442912Y-119774975D02*
X134442912Y-118846403D01*
X134442912Y-118846403D02*
X135014341Y-119346403D01*
X135014341Y-119346403D02*
X135014341Y-119132118D01*
X135014341Y-119132118D02*
X135085769Y-118989261D01*
X135085769Y-118989261D02*
X135157198Y-118917832D01*
X135157198Y-118917832D02*
X135300055Y-118846403D01*
X135300055Y-118846403D02*
X135657198Y-118846403D01*
X135657198Y-118846403D02*
X135800055Y-118917832D01*
X135800055Y-118917832D02*
X135871484Y-118989261D01*
X135871484Y-118989261D02*
X135942912Y-119132118D01*
X135942912Y-119132118D02*
X135942912Y-119560689D01*
X135942912Y-119560689D02*
X135871484Y-119703546D01*
X135871484Y-119703546D02*
X135800055Y-119774975D01*
X134442912Y-117489261D02*
X134442912Y-118203547D01*
X134442912Y-118203547D02*
X135157198Y-118274975D01*
X135157198Y-118274975D02*
X135085769Y-118203547D01*
X135085769Y-118203547D02*
X135014341Y-118060690D01*
X135014341Y-118060690D02*
X135014341Y-117703547D01*
X135014341Y-117703547D02*
X135085769Y-117560690D01*
X135085769Y-117560690D02*
X135157198Y-117489261D01*
X135157198Y-117489261D02*
X135300055Y-117417832D01*
X135300055Y-117417832D02*
X135657198Y-117417832D01*
X135657198Y-117417832D02*
X135800055Y-117489261D01*
X135800055Y-117489261D02*
X135871484Y-117560690D01*
X135871484Y-117560690D02*
X135942912Y-117703547D01*
X135942912Y-117703547D02*
X135942912Y-118060690D01*
X135942912Y-118060690D02*
X135871484Y-118203547D01*
X135871484Y-118203547D02*
X135800055Y-118274975D01*
X134442912Y-116489261D02*
X134442912Y-116346404D01*
X134442912Y-116346404D02*
X134514341Y-116203547D01*
X134514341Y-116203547D02*
X134585769Y-116132119D01*
X134585769Y-116132119D02*
X134728626Y-116060690D01*
X134728626Y-116060690D02*
X135014341Y-115989261D01*
X135014341Y-115989261D02*
X135371484Y-115989261D01*
X135371484Y-115989261D02*
X135657198Y-116060690D01*
X135657198Y-116060690D02*
X135800055Y-116132119D01*
X135800055Y-116132119D02*
X135871484Y-116203547D01*
X135871484Y-116203547D02*
X135942912Y-116346404D01*
X135942912Y-116346404D02*
X135942912Y-116489261D01*
X135942912Y-116489261D02*
X135871484Y-116632119D01*
X135871484Y-116632119D02*
X135800055Y-116703547D01*
X135800055Y-116703547D02*
X135657198Y-116774976D01*
X135657198Y-116774976D02*
X135371484Y-116846404D01*
X135371484Y-116846404D02*
X135014341Y-116846404D01*
X135014341Y-116846404D02*
X134728626Y-116774976D01*
X134728626Y-116774976D02*
X134585769Y-116703547D01*
X134585769Y-116703547D02*
X134514341Y-116632119D01*
X134514341Y-116632119D02*
X134442912Y-116489261D01*
X135942912Y-113489262D02*
X135942912Y-114203548D01*
X135942912Y-114203548D02*
X134442912Y-114203548D01*
X135871484Y-112417833D02*
X135942912Y-112560690D01*
X135942912Y-112560690D02*
X135942912Y-112846405D01*
X135942912Y-112846405D02*
X135871484Y-112989262D01*
X135871484Y-112989262D02*
X135728626Y-113060690D01*
X135728626Y-113060690D02*
X135157198Y-113060690D01*
X135157198Y-113060690D02*
X135014341Y-112989262D01*
X135014341Y-112989262D02*
X134942912Y-112846405D01*
X134942912Y-112846405D02*
X134942912Y-112560690D01*
X134942912Y-112560690D02*
X135014341Y-112417833D01*
X135014341Y-112417833D02*
X135157198Y-112346405D01*
X135157198Y-112346405D02*
X135300055Y-112346405D01*
X135300055Y-112346405D02*
X135442912Y-113060690D01*
X134942912Y-111846405D02*
X135942912Y-111489262D01*
X135942912Y-111489262D02*
X134942912Y-111132119D01*
X135871484Y-109989262D02*
X135942912Y-110132119D01*
X135942912Y-110132119D02*
X135942912Y-110417834D01*
X135942912Y-110417834D02*
X135871484Y-110560691D01*
X135871484Y-110560691D02*
X135728626Y-110632119D01*
X135728626Y-110632119D02*
X135157198Y-110632119D01*
X135157198Y-110632119D02*
X135014341Y-110560691D01*
X135014341Y-110560691D02*
X134942912Y-110417834D01*
X134942912Y-110417834D02*
X134942912Y-110132119D01*
X134942912Y-110132119D02*
X135014341Y-109989262D01*
X135014341Y-109989262D02*
X135157198Y-109917834D01*
X135157198Y-109917834D02*
X135300055Y-109917834D01*
X135300055Y-109917834D02*
X135442912Y-110632119D01*
X135942912Y-109060691D02*
X135871484Y-109203548D01*
X135871484Y-109203548D02*
X135728626Y-109274977D01*
X135728626Y-109274977D02*
X134442912Y-109274977D01*
X135871484Y-107417834D02*
X135942912Y-107203549D01*
X135942912Y-107203549D02*
X135942912Y-106846406D01*
X135942912Y-106846406D02*
X135871484Y-106703549D01*
X135871484Y-106703549D02*
X135800055Y-106632120D01*
X135800055Y-106632120D02*
X135657198Y-106560691D01*
X135657198Y-106560691D02*
X135514341Y-106560691D01*
X135514341Y-106560691D02*
X135371484Y-106632120D01*
X135371484Y-106632120D02*
X135300055Y-106703549D01*
X135300055Y-106703549D02*
X135228626Y-106846406D01*
X135228626Y-106846406D02*
X135157198Y-107132120D01*
X135157198Y-107132120D02*
X135085769Y-107274977D01*
X135085769Y-107274977D02*
X135014341Y-107346406D01*
X135014341Y-107346406D02*
X134871484Y-107417834D01*
X134871484Y-107417834D02*
X134728626Y-107417834D01*
X134728626Y-107417834D02*
X134585769Y-107346406D01*
X134585769Y-107346406D02*
X134514341Y-107274977D01*
X134514341Y-107274977D02*
X134442912Y-107132120D01*
X134442912Y-107132120D02*
X134442912Y-106774977D01*
X134442912Y-106774977D02*
X134514341Y-106560691D01*
X135942912Y-105917835D02*
X134442912Y-105917835D01*
X135942912Y-105274978D02*
X135157198Y-105274978D01*
X135157198Y-105274978D02*
X135014341Y-105346406D01*
X135014341Y-105346406D02*
X134942912Y-105489263D01*
X134942912Y-105489263D02*
X134942912Y-105703549D01*
X134942912Y-105703549D02*
X135014341Y-105846406D01*
X135014341Y-105846406D02*
X135085769Y-105917835D01*
X135942912Y-104560692D02*
X134942912Y-104560692D01*
X134442912Y-104560692D02*
X134514341Y-104632120D01*
X134514341Y-104632120D02*
X134585769Y-104560692D01*
X134585769Y-104560692D02*
X134514341Y-104489263D01*
X134514341Y-104489263D02*
X134442912Y-104560692D01*
X134442912Y-104560692D02*
X134585769Y-104560692D01*
X134942912Y-104060691D02*
X134942912Y-103489263D01*
X135942912Y-103846406D02*
X134657198Y-103846406D01*
X134657198Y-103846406D02*
X134514341Y-103774977D01*
X134514341Y-103774977D02*
X134442912Y-103632120D01*
X134442912Y-103632120D02*
X134442912Y-103489263D01*
X134942912Y-103203548D02*
X134942912Y-102632120D01*
X134442912Y-102989263D02*
X135728626Y-102989263D01*
X135728626Y-102989263D02*
X135871484Y-102917834D01*
X135871484Y-102917834D02*
X135942912Y-102774977D01*
X135942912Y-102774977D02*
X135942912Y-102632120D01*
X135157198Y-100489263D02*
X135228626Y-100274977D01*
X135228626Y-100274977D02*
X135300055Y-100203548D01*
X135300055Y-100203548D02*
X135442912Y-100132120D01*
X135442912Y-100132120D02*
X135657198Y-100132120D01*
X135657198Y-100132120D02*
X135800055Y-100203548D01*
X135800055Y-100203548D02*
X135871484Y-100274977D01*
X135871484Y-100274977D02*
X135942912Y-100417834D01*
X135942912Y-100417834D02*
X135942912Y-100989263D01*
X135942912Y-100989263D02*
X134442912Y-100989263D01*
X134442912Y-100989263D02*
X134442912Y-100489263D01*
X134442912Y-100489263D02*
X134514341Y-100346406D01*
X134514341Y-100346406D02*
X134585769Y-100274977D01*
X134585769Y-100274977D02*
X134728626Y-100203548D01*
X134728626Y-100203548D02*
X134871484Y-100203548D01*
X134871484Y-100203548D02*
X135014341Y-100274977D01*
X135014341Y-100274977D02*
X135085769Y-100346406D01*
X135085769Y-100346406D02*
X135157198Y-100489263D01*
X135157198Y-100489263D02*
X135157198Y-100989263D01*
X135942912Y-99274977D02*
X135871484Y-99417834D01*
X135871484Y-99417834D02*
X135800055Y-99489263D01*
X135800055Y-99489263D02*
X135657198Y-99560691D01*
X135657198Y-99560691D02*
X135228626Y-99560691D01*
X135228626Y-99560691D02*
X135085769Y-99489263D01*
X135085769Y-99489263D02*
X135014341Y-99417834D01*
X135014341Y-99417834D02*
X134942912Y-99274977D01*
X134942912Y-99274977D02*
X134942912Y-99060691D01*
X134942912Y-99060691D02*
X135014341Y-98917834D01*
X135014341Y-98917834D02*
X135085769Y-98846406D01*
X135085769Y-98846406D02*
X135228626Y-98774977D01*
X135228626Y-98774977D02*
X135657198Y-98774977D01*
X135657198Y-98774977D02*
X135800055Y-98846406D01*
X135800055Y-98846406D02*
X135871484Y-98917834D01*
X135871484Y-98917834D02*
X135942912Y-99060691D01*
X135942912Y-99060691D02*
X135942912Y-99274977D01*
X135942912Y-97489263D02*
X135157198Y-97489263D01*
X135157198Y-97489263D02*
X135014341Y-97560691D01*
X135014341Y-97560691D02*
X134942912Y-97703548D01*
X134942912Y-97703548D02*
X134942912Y-97989263D01*
X134942912Y-97989263D02*
X135014341Y-98132120D01*
X135871484Y-97489263D02*
X135942912Y-97632120D01*
X135942912Y-97632120D02*
X135942912Y-97989263D01*
X135942912Y-97989263D02*
X135871484Y-98132120D01*
X135871484Y-98132120D02*
X135728626Y-98203548D01*
X135728626Y-98203548D02*
X135585769Y-98203548D01*
X135585769Y-98203548D02*
X135442912Y-98132120D01*
X135442912Y-98132120D02*
X135371484Y-97989263D01*
X135371484Y-97989263D02*
X135371484Y-97632120D01*
X135371484Y-97632120D02*
X135300055Y-97489263D01*
X135942912Y-96774977D02*
X134942912Y-96774977D01*
X135228626Y-96774977D02*
X135085769Y-96703548D01*
X135085769Y-96703548D02*
X135014341Y-96632120D01*
X135014341Y-96632120D02*
X134942912Y-96489262D01*
X134942912Y-96489262D02*
X134942912Y-96346405D01*
X135942912Y-95203549D02*
X134442912Y-95203549D01*
X135871484Y-95203549D02*
X135942912Y-95346406D01*
X135942912Y-95346406D02*
X135942912Y-95632120D01*
X135942912Y-95632120D02*
X135871484Y-95774977D01*
X135871484Y-95774977D02*
X135800055Y-95846406D01*
X135800055Y-95846406D02*
X135657198Y-95917834D01*
X135657198Y-95917834D02*
X135228626Y-95917834D01*
X135228626Y-95917834D02*
X135085769Y-95846406D01*
X135085769Y-95846406D02*
X135014341Y-95774977D01*
X135014341Y-95774977D02*
X134942912Y-95632120D01*
X134942912Y-95632120D02*
X134942912Y-95346406D01*
X134942912Y-95346406D02*
X135014341Y-95203549D01*
X137000685Y-118846403D02*
X136929257Y-118774975D01*
X136929257Y-118774975D02*
X136857828Y-118632118D01*
X136857828Y-118632118D02*
X136857828Y-118274975D01*
X136857828Y-118274975D02*
X136929257Y-118132118D01*
X136929257Y-118132118D02*
X137000685Y-118060689D01*
X137000685Y-118060689D02*
X137143542Y-117989260D01*
X137143542Y-117989260D02*
X137286400Y-117989260D01*
X137286400Y-117989260D02*
X137500685Y-118060689D01*
X137500685Y-118060689D02*
X138357828Y-118917832D01*
X138357828Y-118917832D02*
X138357828Y-117989260D01*
X136857828Y-117060689D02*
X136857828Y-116917832D01*
X136857828Y-116917832D02*
X136929257Y-116774975D01*
X136929257Y-116774975D02*
X137000685Y-116703547D01*
X137000685Y-116703547D02*
X137143542Y-116632118D01*
X137143542Y-116632118D02*
X137429257Y-116560689D01*
X137429257Y-116560689D02*
X137786400Y-116560689D01*
X137786400Y-116560689D02*
X138072114Y-116632118D01*
X138072114Y-116632118D02*
X138214971Y-116703547D01*
X138214971Y-116703547D02*
X138286400Y-116774975D01*
X138286400Y-116774975D02*
X138357828Y-116917832D01*
X138357828Y-116917832D02*
X138357828Y-117060689D01*
X138357828Y-117060689D02*
X138286400Y-117203547D01*
X138286400Y-117203547D02*
X138214971Y-117274975D01*
X138214971Y-117274975D02*
X138072114Y-117346404D01*
X138072114Y-117346404D02*
X137786400Y-117417832D01*
X137786400Y-117417832D02*
X137429257Y-117417832D01*
X137429257Y-117417832D02*
X137143542Y-117346404D01*
X137143542Y-117346404D02*
X137000685Y-117274975D01*
X137000685Y-117274975D02*
X136929257Y-117203547D01*
X136929257Y-117203547D02*
X136857828Y-117060689D01*
X137000685Y-115989261D02*
X136929257Y-115917833D01*
X136929257Y-115917833D02*
X136857828Y-115774976D01*
X136857828Y-115774976D02*
X136857828Y-115417833D01*
X136857828Y-115417833D02*
X136929257Y-115274976D01*
X136929257Y-115274976D02*
X137000685Y-115203547D01*
X137000685Y-115203547D02*
X137143542Y-115132118D01*
X137143542Y-115132118D02*
X137286400Y-115132118D01*
X137286400Y-115132118D02*
X137500685Y-115203547D01*
X137500685Y-115203547D02*
X138357828Y-116060690D01*
X138357828Y-116060690D02*
X138357828Y-115132118D01*
X136857828Y-113774976D02*
X136857828Y-114489262D01*
X136857828Y-114489262D02*
X137572114Y-114560690D01*
X137572114Y-114560690D02*
X137500685Y-114489262D01*
X137500685Y-114489262D02*
X137429257Y-114346405D01*
X137429257Y-114346405D02*
X137429257Y-113989262D01*
X137429257Y-113989262D02*
X137500685Y-113846405D01*
X137500685Y-113846405D02*
X137572114Y-113774976D01*
X137572114Y-113774976D02*
X137714971Y-113703547D01*
X137714971Y-113703547D02*
X138072114Y-113703547D01*
X138072114Y-113703547D02*
X138214971Y-113774976D01*
X138214971Y-113774976D02*
X138286400Y-113846405D01*
X138286400Y-113846405D02*
X138357828Y-113989262D01*
X138357828Y-113989262D02*
X138357828Y-114346405D01*
X138357828Y-114346405D02*
X138286400Y-114489262D01*
X138286400Y-114489262D02*
X138214971Y-114560690D01*
X138357828Y-111917834D02*
X136857828Y-111917834D01*
X136857828Y-111917834D02*
X136857828Y-111560691D01*
X136857828Y-111560691D02*
X136929257Y-111346405D01*
X136929257Y-111346405D02*
X137072114Y-111203548D01*
X137072114Y-111203548D02*
X137214971Y-111132119D01*
X137214971Y-111132119D02*
X137500685Y-111060691D01*
X137500685Y-111060691D02*
X137714971Y-111060691D01*
X137714971Y-111060691D02*
X138000685Y-111132119D01*
X138000685Y-111132119D02*
X138143542Y-111203548D01*
X138143542Y-111203548D02*
X138286400Y-111346405D01*
X138286400Y-111346405D02*
X138357828Y-111560691D01*
X138357828Y-111560691D02*
X138357828Y-111917834D01*
X138357828Y-109774977D02*
X137572114Y-109774977D01*
X137572114Y-109774977D02*
X137429257Y-109846405D01*
X137429257Y-109846405D02*
X137357828Y-109989262D01*
X137357828Y-109989262D02*
X137357828Y-110274977D01*
X137357828Y-110274977D02*
X137429257Y-110417834D01*
X138286400Y-109774977D02*
X138357828Y-109917834D01*
X138357828Y-109917834D02*
X138357828Y-110274977D01*
X138357828Y-110274977D02*
X138286400Y-110417834D01*
X138286400Y-110417834D02*
X138143542Y-110489262D01*
X138143542Y-110489262D02*
X138000685Y-110489262D01*
X138000685Y-110489262D02*
X137857828Y-110417834D01*
X137857828Y-110417834D02*
X137786400Y-110274977D01*
X137786400Y-110274977D02*
X137786400Y-109917834D01*
X137786400Y-109917834D02*
X137714971Y-109774977D01*
X137357828Y-109203548D02*
X138357828Y-108846405D01*
X138357828Y-108846405D02*
X137357828Y-108489262D01*
X138286400Y-107346405D02*
X138357828Y-107489262D01*
X138357828Y-107489262D02*
X138357828Y-107774977D01*
X138357828Y-107774977D02*
X138286400Y-107917834D01*
X138286400Y-107917834D02*
X138143542Y-107989262D01*
X138143542Y-107989262D02*
X137572114Y-107989262D01*
X137572114Y-107989262D02*
X137429257Y-107917834D01*
X137429257Y-107917834D02*
X137357828Y-107774977D01*
X137357828Y-107774977D02*
X137357828Y-107489262D01*
X137357828Y-107489262D02*
X137429257Y-107346405D01*
X137429257Y-107346405D02*
X137572114Y-107274977D01*
X137572114Y-107274977D02*
X137714971Y-107274977D01*
X137714971Y-107274977D02*
X137857828Y-107989262D01*
X136929257Y-104703548D02*
X136857828Y-104846406D01*
X136857828Y-104846406D02*
X136857828Y-105060691D01*
X136857828Y-105060691D02*
X136929257Y-105274977D01*
X136929257Y-105274977D02*
X137072114Y-105417834D01*
X137072114Y-105417834D02*
X137214971Y-105489263D01*
X137214971Y-105489263D02*
X137500685Y-105560691D01*
X137500685Y-105560691D02*
X137714971Y-105560691D01*
X137714971Y-105560691D02*
X138000685Y-105489263D01*
X138000685Y-105489263D02*
X138143542Y-105417834D01*
X138143542Y-105417834D02*
X138286400Y-105274977D01*
X138286400Y-105274977D02*
X138357828Y-105060691D01*
X138357828Y-105060691D02*
X138357828Y-104917834D01*
X138357828Y-104917834D02*
X138286400Y-104703548D01*
X138286400Y-104703548D02*
X138214971Y-104632120D01*
X138214971Y-104632120D02*
X137714971Y-104632120D01*
X137714971Y-104632120D02*
X137714971Y-104917834D01*
X138357828Y-103346406D02*
X137572114Y-103346406D01*
X137572114Y-103346406D02*
X137429257Y-103417834D01*
X137429257Y-103417834D02*
X137357828Y-103560691D01*
X137357828Y-103560691D02*
X137357828Y-103846406D01*
X137357828Y-103846406D02*
X137429257Y-103989263D01*
X138286400Y-103346406D02*
X138357828Y-103489263D01*
X138357828Y-103489263D02*
X138357828Y-103846406D01*
X138357828Y-103846406D02*
X138286400Y-103989263D01*
X138286400Y-103989263D02*
X138143542Y-104060691D01*
X138143542Y-104060691D02*
X138000685Y-104060691D01*
X138000685Y-104060691D02*
X137857828Y-103989263D01*
X137857828Y-103989263D02*
X137786400Y-103846406D01*
X137786400Y-103846406D02*
X137786400Y-103489263D01*
X137786400Y-103489263D02*
X137714971Y-103346406D01*
X137357828Y-101989263D02*
X138357828Y-101989263D01*
X137357828Y-102632120D02*
X138143542Y-102632120D01*
X138143542Y-102632120D02*
X138286400Y-102560691D01*
X138286400Y-102560691D02*
X138357828Y-102417834D01*
X138357828Y-102417834D02*
X138357828Y-102203548D01*
X138357828Y-102203548D02*
X138286400Y-102060691D01*
X138286400Y-102060691D02*
X138214971Y-101989263D01*
X137357828Y-101274977D02*
X138357828Y-101274977D01*
X137500685Y-101274977D02*
X137429257Y-101203548D01*
X137429257Y-101203548D02*
X137357828Y-101060691D01*
X137357828Y-101060691D02*
X137357828Y-100846405D01*
X137357828Y-100846405D02*
X137429257Y-100703548D01*
X137429257Y-100703548D02*
X137572114Y-100632120D01*
X137572114Y-100632120D02*
X138357828Y-100632120D01*
X137357828Y-100132119D02*
X137357828Y-99560691D01*
X136857828Y-99917834D02*
X138143542Y-99917834D01*
X138143542Y-99917834D02*
X138286400Y-99846405D01*
X138286400Y-99846405D02*
X138357828Y-99703548D01*
X138357828Y-99703548D02*
X138357828Y-99560691D01*
X138214971Y-99060691D02*
X138286400Y-98989262D01*
X138286400Y-98989262D02*
X138357828Y-99060691D01*
X138357828Y-99060691D02*
X138286400Y-99132119D01*
X138286400Y-99132119D02*
X138214971Y-99060691D01*
X138214971Y-99060691D02*
X138357828Y-99060691D01*
D11*
X120493189Y-98921057D02*
X120540808Y-98873438D01*
X120540808Y-98873438D02*
X120636046Y-98825819D01*
X120636046Y-98825819D02*
X120874141Y-98825819D01*
X120874141Y-98825819D02*
X120969379Y-98873438D01*
X120969379Y-98873438D02*
X121016998Y-98921057D01*
X121016998Y-98921057D02*
X121064617Y-99016295D01*
X121064617Y-99016295D02*
X121064617Y-99111533D01*
X121064617Y-99111533D02*
X121016998Y-99254390D01*
X121016998Y-99254390D02*
X120445570Y-99825819D01*
X120445570Y-99825819D02*
X121064617Y-99825819D01*
X122016998Y-99825819D02*
X121445570Y-99825819D01*
X121731284Y-99825819D02*
X121731284Y-98825819D01*
X121731284Y-98825819D02*
X121636046Y-98968676D01*
X121636046Y-98968676D02*
X121540808Y-99063914D01*
X121540808Y-99063914D02*
X121445570Y-99111533D01*
X120493189Y-101421057D02*
X120540808Y-101373438D01*
X120540808Y-101373438D02*
X120636046Y-101325819D01*
X120636046Y-101325819D02*
X120874141Y-101325819D01*
X120874141Y-101325819D02*
X120969379Y-101373438D01*
X120969379Y-101373438D02*
X121016998Y-101421057D01*
X121016998Y-101421057D02*
X121064617Y-101516295D01*
X121064617Y-101516295D02*
X121064617Y-101611533D01*
X121064617Y-101611533D02*
X121016998Y-101754390D01*
X121016998Y-101754390D02*
X120445570Y-102325819D01*
X120445570Y-102325819D02*
X121064617Y-102325819D01*
X121683665Y-101325819D02*
X121778903Y-101325819D01*
X121778903Y-101325819D02*
X121874141Y-101373438D01*
X121874141Y-101373438D02*
X121921760Y-101421057D01*
X121921760Y-101421057D02*
X121969379Y-101516295D01*
X121969379Y-101516295D02*
X122016998Y-101706771D01*
X122016998Y-101706771D02*
X122016998Y-101944866D01*
X122016998Y-101944866D02*
X121969379Y-102135342D01*
X121969379Y-102135342D02*
X121921760Y-102230580D01*
X121921760Y-102230580D02*
X121874141Y-102278200D01*
X121874141Y-102278200D02*
X121778903Y-102325819D01*
X121778903Y-102325819D02*
X121683665Y-102325819D01*
X121683665Y-102325819D02*
X121588427Y-102278200D01*
X121588427Y-102278200D02*
X121540808Y-102230580D01*
X121540808Y-102230580D02*
X121493189Y-102135342D01*
X121493189Y-102135342D02*
X121445570Y-101944866D01*
X121445570Y-101944866D02*
X121445570Y-101706771D01*
X121445570Y-101706771D02*
X121493189Y-101516295D01*
X121493189Y-101516295D02*
X121540808Y-101421057D01*
X121540808Y-101421057D02*
X121588427Y-101373438D01*
X121588427Y-101373438D02*
X121683665Y-101325819D01*
X120365570Y-123825819D02*
X120742713Y-123825819D01*
X120554141Y-124825819D02*
X120554141Y-123825819D01*
X121339855Y-124825819D02*
X121119855Y-124349628D01*
X120962712Y-124825819D02*
X120962712Y-123825819D01*
X120962712Y-123825819D02*
X121214141Y-123825819D01*
X121214141Y-123825819D02*
X121276998Y-123873438D01*
X121276998Y-123873438D02*
X121308427Y-123921057D01*
X121308427Y-123921057D02*
X121339855Y-124016295D01*
X121339855Y-124016295D02*
X121339855Y-124159152D01*
X121339855Y-124159152D02*
X121308427Y-124254390D01*
X121308427Y-124254390D02*
X121276998Y-124302009D01*
X121276998Y-124302009D02*
X121214141Y-124349628D01*
X121214141Y-124349628D02*
X120962712Y-124349628D01*
X121968427Y-123873438D02*
X121905570Y-123825819D01*
X121905570Y-123825819D02*
X121811284Y-123825819D01*
X121811284Y-123825819D02*
X121716998Y-123873438D01*
X121716998Y-123873438D02*
X121654141Y-123968676D01*
X121654141Y-123968676D02*
X121622712Y-124063914D01*
X121622712Y-124063914D02*
X121591284Y-124254390D01*
X121591284Y-124254390D02*
X121591284Y-124397247D01*
X121591284Y-124397247D02*
X121622712Y-124587723D01*
X121622712Y-124587723D02*
X121654141Y-124682961D01*
X121654141Y-124682961D02*
X121716998Y-124778200D01*
X121716998Y-124778200D02*
X121811284Y-124825819D01*
X121811284Y-124825819D02*
X121874141Y-124825819D01*
X121874141Y-124825819D02*
X121968427Y-124778200D01*
X121968427Y-124778200D02*
X121999855Y-124730580D01*
X121999855Y-124730580D02*
X121999855Y-124397247D01*
X121999855Y-124397247D02*
X121874141Y-124397247D01*
X123564617Y-117325819D02*
X122993189Y-117325819D01*
X123278903Y-117325819D02*
X123278903Y-116325819D01*
X123278903Y-116325819D02*
X123183665Y-116468676D01*
X123183665Y-116468676D02*
X123088427Y-116563914D01*
X123088427Y-116563914D02*
X122993189Y-116611533D01*
X124516998Y-117325819D02*
X123945570Y-117325819D01*
X124231284Y-117325819D02*
X124231284Y-116325819D01*
X124231284Y-116325819D02*
X124136046Y-116468676D01*
X124136046Y-116468676D02*
X124040808Y-116563914D01*
X124040808Y-116563914D02*
X123945570Y-116611533D01*
X120493189Y-93921057D02*
X120540808Y-93873438D01*
X120540808Y-93873438D02*
X120636046Y-93825819D01*
X120636046Y-93825819D02*
X120874141Y-93825819D01*
X120874141Y-93825819D02*
X120969379Y-93873438D01*
X120969379Y-93873438D02*
X121016998Y-93921057D01*
X121016998Y-93921057D02*
X121064617Y-94016295D01*
X121064617Y-94016295D02*
X121064617Y-94111533D01*
X121064617Y-94111533D02*
X121016998Y-94254390D01*
X121016998Y-94254390D02*
X120445570Y-94825819D01*
X120445570Y-94825819D02*
X121064617Y-94825819D01*
X121397951Y-93825819D02*
X122016998Y-93825819D01*
X122016998Y-93825819D02*
X121683665Y-94206771D01*
X121683665Y-94206771D02*
X121826522Y-94206771D01*
X121826522Y-94206771D02*
X121921760Y-94254390D01*
X121921760Y-94254390D02*
X121969379Y-94302009D01*
X121969379Y-94302009D02*
X122016998Y-94397247D01*
X122016998Y-94397247D02*
X122016998Y-94635342D01*
X122016998Y-94635342D02*
X121969379Y-94730580D01*
X121969379Y-94730580D02*
X121921760Y-94778200D01*
X121921760Y-94778200D02*
X121826522Y-94825819D01*
X121826522Y-94825819D02*
X121540808Y-94825819D01*
X121540808Y-94825819D02*
X121445570Y-94778200D01*
X121445570Y-94778200D02*
X121397951Y-94730580D01*
X121064617Y-107325819D02*
X120493189Y-107325819D01*
X120778903Y-107325819D02*
X120778903Y-106325819D01*
X120778903Y-106325819D02*
X120683665Y-106468676D01*
X120683665Y-106468676D02*
X120588427Y-106563914D01*
X120588427Y-106563914D02*
X120493189Y-106611533D01*
X121636046Y-106754390D02*
X121540808Y-106706771D01*
X121540808Y-106706771D02*
X121493189Y-106659152D01*
X121493189Y-106659152D02*
X121445570Y-106563914D01*
X121445570Y-106563914D02*
X121445570Y-106516295D01*
X121445570Y-106516295D02*
X121493189Y-106421057D01*
X121493189Y-106421057D02*
X121540808Y-106373438D01*
X121540808Y-106373438D02*
X121636046Y-106325819D01*
X121636046Y-106325819D02*
X121826522Y-106325819D01*
X121826522Y-106325819D02*
X121921760Y-106373438D01*
X121921760Y-106373438D02*
X121969379Y-106421057D01*
X121969379Y-106421057D02*
X122016998Y-106516295D01*
X122016998Y-106516295D02*
X122016998Y-106563914D01*
X122016998Y-106563914D02*
X121969379Y-106659152D01*
X121969379Y-106659152D02*
X121921760Y-106706771D01*
X121921760Y-106706771D02*
X121826522Y-106754390D01*
X121826522Y-106754390D02*
X121636046Y-106754390D01*
X121636046Y-106754390D02*
X121540808Y-106802009D01*
X121540808Y-106802009D02*
X121493189Y-106849628D01*
X121493189Y-106849628D02*
X121445570Y-106944866D01*
X121445570Y-106944866D02*
X121445570Y-107135342D01*
X121445570Y-107135342D02*
X121493189Y-107230580D01*
X121493189Y-107230580D02*
X121540808Y-107278200D01*
X121540808Y-107278200D02*
X121636046Y-107325819D01*
X121636046Y-107325819D02*
X121826522Y-107325819D01*
X121826522Y-107325819D02*
X121921760Y-107278200D01*
X121921760Y-107278200D02*
X121969379Y-107230580D01*
X121969379Y-107230580D02*
X122016998Y-107135342D01*
X122016998Y-107135342D02*
X122016998Y-106944866D01*
X122016998Y-106944866D02*
X121969379Y-106849628D01*
X121969379Y-106849628D02*
X121921760Y-106802009D01*
X121921760Y-106802009D02*
X121826522Y-106754390D01*
X123445570Y-106325819D02*
X124112236Y-106325819D01*
X124112236Y-106325819D02*
X123683665Y-107325819D01*
X120396998Y-121325819D02*
X120805570Y-121325819D01*
X120805570Y-121325819D02*
X120585570Y-121706771D01*
X120585570Y-121706771D02*
X120679855Y-121706771D01*
X120679855Y-121706771D02*
X120742713Y-121754390D01*
X120742713Y-121754390D02*
X120774141Y-121802009D01*
X120774141Y-121802009D02*
X120805570Y-121897247D01*
X120805570Y-121897247D02*
X120805570Y-122135342D01*
X120805570Y-122135342D02*
X120774141Y-122230580D01*
X120774141Y-122230580D02*
X120742713Y-122278200D01*
X120742713Y-122278200D02*
X120679855Y-122325819D01*
X120679855Y-122325819D02*
X120491284Y-122325819D01*
X120491284Y-122325819D02*
X120428427Y-122278200D01*
X120428427Y-122278200D02*
X120396998Y-122230580D01*
X120994141Y-121325819D02*
X121214141Y-122325819D01*
X121214141Y-122325819D02*
X121434141Y-121325819D01*
X121591283Y-121325819D02*
X121999855Y-121325819D01*
X121999855Y-121325819D02*
X121779855Y-121706771D01*
X121779855Y-121706771D02*
X121874140Y-121706771D01*
X121874140Y-121706771D02*
X121936998Y-121754390D01*
X121936998Y-121754390D02*
X121968426Y-121802009D01*
X121968426Y-121802009D02*
X121999855Y-121897247D01*
X121999855Y-121897247D02*
X121999855Y-122135342D01*
X121999855Y-122135342D02*
X121968426Y-122230580D01*
X121968426Y-122230580D02*
X121936998Y-122278200D01*
X121936998Y-122278200D02*
X121874140Y-122325819D01*
X121874140Y-122325819D02*
X121685569Y-122325819D01*
X121685569Y-122325819D02*
X121622712Y-122278200D01*
X121622712Y-122278200D02*
X121591283Y-122230580D01*
X123564617Y-119825819D02*
X122993189Y-119825819D01*
X123278903Y-119825819D02*
X123278903Y-118825819D01*
X123278903Y-118825819D02*
X123183665Y-118968676D01*
X123183665Y-118968676D02*
X123088427Y-119063914D01*
X123088427Y-119063914D02*
X122993189Y-119111533D01*
X123945570Y-118921057D02*
X123993189Y-118873438D01*
X123993189Y-118873438D02*
X124088427Y-118825819D01*
X124088427Y-118825819D02*
X124326522Y-118825819D01*
X124326522Y-118825819D02*
X124421760Y-118873438D01*
X124421760Y-118873438D02*
X124469379Y-118921057D01*
X124469379Y-118921057D02*
X124516998Y-119016295D01*
X124516998Y-119016295D02*
X124516998Y-119111533D01*
X124516998Y-119111533D02*
X124469379Y-119254390D01*
X124469379Y-119254390D02*
X123897951Y-119825819D01*
X123897951Y-119825819D02*
X124516998Y-119825819D01*
X123305570Y-128873438D02*
X123242713Y-128825819D01*
X123242713Y-128825819D02*
X123148427Y-128825819D01*
X123148427Y-128825819D02*
X123054141Y-128873438D01*
X123054141Y-128873438D02*
X122991284Y-128968676D01*
X122991284Y-128968676D02*
X122959855Y-129063914D01*
X122959855Y-129063914D02*
X122928427Y-129254390D01*
X122928427Y-129254390D02*
X122928427Y-129397247D01*
X122928427Y-129397247D02*
X122959855Y-129587723D01*
X122959855Y-129587723D02*
X122991284Y-129682961D01*
X122991284Y-129682961D02*
X123054141Y-129778200D01*
X123054141Y-129778200D02*
X123148427Y-129825819D01*
X123148427Y-129825819D02*
X123211284Y-129825819D01*
X123211284Y-129825819D02*
X123305570Y-129778200D01*
X123305570Y-129778200D02*
X123336998Y-129730580D01*
X123336998Y-129730580D02*
X123336998Y-129397247D01*
X123336998Y-129397247D02*
X123211284Y-129397247D01*
X123619855Y-129825819D02*
X123619855Y-128825819D01*
X123619855Y-128825819D02*
X123996998Y-129825819D01*
X123996998Y-129825819D02*
X123996998Y-128825819D01*
X124311284Y-129825819D02*
X124311284Y-128825819D01*
X124311284Y-128825819D02*
X124468427Y-128825819D01*
X124468427Y-128825819D02*
X124562713Y-128873438D01*
X124562713Y-128873438D02*
X124625570Y-128968676D01*
X124625570Y-128968676D02*
X124656999Y-129063914D01*
X124656999Y-129063914D02*
X124688427Y-129254390D01*
X124688427Y-129254390D02*
X124688427Y-129397247D01*
X124688427Y-129397247D02*
X124656999Y-129587723D01*
X124656999Y-129587723D02*
X124625570Y-129682961D01*
X124625570Y-129682961D02*
X124562713Y-129778200D01*
X124562713Y-129778200D02*
X124468427Y-129825819D01*
X124468427Y-129825819D02*
X124311284Y-129825819D01*
X124016998Y-101325819D02*
X123540808Y-101325819D01*
X123540808Y-101325819D02*
X123493189Y-101802009D01*
X123493189Y-101802009D02*
X123540808Y-101754390D01*
X123540808Y-101754390D02*
X123636046Y-101706771D01*
X123636046Y-101706771D02*
X123874141Y-101706771D01*
X123874141Y-101706771D02*
X123969379Y-101754390D01*
X123969379Y-101754390D02*
X124016998Y-101802009D01*
X124016998Y-101802009D02*
X124064617Y-101897247D01*
X124064617Y-101897247D02*
X124064617Y-102135342D01*
X124064617Y-102135342D02*
X124016998Y-102230580D01*
X124016998Y-102230580D02*
X123969379Y-102278200D01*
X123969379Y-102278200D02*
X123874141Y-102325819D01*
X123874141Y-102325819D02*
X123636046Y-102325819D01*
X123636046Y-102325819D02*
X123540808Y-102278200D01*
X123540808Y-102278200D02*
X123493189Y-102230580D01*
X123564617Y-114825819D02*
X122993189Y-114825819D01*
X123278903Y-114825819D02*
X123278903Y-113825819D01*
X123278903Y-113825819D02*
X123183665Y-113968676D01*
X123183665Y-113968676D02*
X123088427Y-114063914D01*
X123088427Y-114063914D02*
X122993189Y-114111533D01*
X124183665Y-113825819D02*
X124278903Y-113825819D01*
X124278903Y-113825819D02*
X124374141Y-113873438D01*
X124374141Y-113873438D02*
X124421760Y-113921057D01*
X124421760Y-113921057D02*
X124469379Y-114016295D01*
X124469379Y-114016295D02*
X124516998Y-114206771D01*
X124516998Y-114206771D02*
X124516998Y-114444866D01*
X124516998Y-114444866D02*
X124469379Y-114635342D01*
X124469379Y-114635342D02*
X124421760Y-114730580D01*
X124421760Y-114730580D02*
X124374141Y-114778200D01*
X124374141Y-114778200D02*
X124278903Y-114825819D01*
X124278903Y-114825819D02*
X124183665Y-114825819D01*
X124183665Y-114825819D02*
X124088427Y-114778200D01*
X124088427Y-114778200D02*
X124040808Y-114730580D01*
X124040808Y-114730580D02*
X123993189Y-114635342D01*
X123993189Y-114635342D02*
X123945570Y-114444866D01*
X123945570Y-114444866D02*
X123945570Y-114206771D01*
X123945570Y-114206771D02*
X123993189Y-114016295D01*
X123993189Y-114016295D02*
X124040808Y-113921057D01*
X124040808Y-113921057D02*
X124088427Y-113873438D01*
X124088427Y-113873438D02*
X124183665Y-113825819D01*
X156029188Y-92313238D02*
X155933950Y-92265619D01*
X155933950Y-92265619D02*
X155791093Y-92265619D01*
X155791093Y-92265619D02*
X155648236Y-92313238D01*
X155648236Y-92313238D02*
X155552998Y-92408476D01*
X155552998Y-92408476D02*
X155505379Y-92503714D01*
X155505379Y-92503714D02*
X155457760Y-92694190D01*
X155457760Y-92694190D02*
X155457760Y-92837047D01*
X155457760Y-92837047D02*
X155505379Y-93027523D01*
X155505379Y-93027523D02*
X155552998Y-93122761D01*
X155552998Y-93122761D02*
X155648236Y-93218000D01*
X155648236Y-93218000D02*
X155791093Y-93265619D01*
X155791093Y-93265619D02*
X155886331Y-93265619D01*
X155886331Y-93265619D02*
X156029188Y-93218000D01*
X156029188Y-93218000D02*
X156076807Y-93170380D01*
X156076807Y-93170380D02*
X156076807Y-92837047D01*
X156076807Y-92837047D02*
X155886331Y-92837047D01*
X156505379Y-93265619D02*
X156505379Y-92265619D01*
X156505379Y-92265619D02*
X157076807Y-93265619D01*
X157076807Y-93265619D02*
X157076807Y-92265619D01*
X157552998Y-93265619D02*
X157552998Y-92265619D01*
X157552998Y-92265619D02*
X157791093Y-92265619D01*
X157791093Y-92265619D02*
X157933950Y-92313238D01*
X157933950Y-92313238D02*
X158029188Y-92408476D01*
X158029188Y-92408476D02*
X158076807Y-92503714D01*
X158076807Y-92503714D02*
X158124426Y-92694190D01*
X158124426Y-92694190D02*
X158124426Y-92837047D01*
X158124426Y-92837047D02*
X158076807Y-93027523D01*
X158076807Y-93027523D02*
X158029188Y-93122761D01*
X158029188Y-93122761D02*
X157933950Y-93218000D01*
X157933950Y-93218000D02*
X157791093Y-93265619D01*
X157791093Y-93265619D02*
X157552998Y-93265619D01*
X120493189Y-91421057D02*
X120540808Y-91373438D01*
X120540808Y-91373438D02*
X120636046Y-91325819D01*
X120636046Y-91325819D02*
X120874141Y-91325819D01*
X120874141Y-91325819D02*
X120969379Y-91373438D01*
X120969379Y-91373438D02*
X121016998Y-91421057D01*
X121016998Y-91421057D02*
X121064617Y-91516295D01*
X121064617Y-91516295D02*
X121064617Y-91611533D01*
X121064617Y-91611533D02*
X121016998Y-91754390D01*
X121016998Y-91754390D02*
X120445570Y-92325819D01*
X120445570Y-92325819D02*
X121064617Y-92325819D01*
X121921760Y-91659152D02*
X121921760Y-92325819D01*
X121683665Y-91278200D02*
X121445570Y-91992485D01*
X121445570Y-91992485D02*
X122064617Y-91992485D01*
X120493189Y-96421057D02*
X120540808Y-96373438D01*
X120540808Y-96373438D02*
X120636046Y-96325819D01*
X120636046Y-96325819D02*
X120874141Y-96325819D01*
X120874141Y-96325819D02*
X120969379Y-96373438D01*
X120969379Y-96373438D02*
X121016998Y-96421057D01*
X121016998Y-96421057D02*
X121064617Y-96516295D01*
X121064617Y-96516295D02*
X121064617Y-96611533D01*
X121064617Y-96611533D02*
X121016998Y-96754390D01*
X121016998Y-96754390D02*
X120445570Y-97325819D01*
X120445570Y-97325819D02*
X121064617Y-97325819D01*
X121445570Y-96421057D02*
X121493189Y-96373438D01*
X121493189Y-96373438D02*
X121588427Y-96325819D01*
X121588427Y-96325819D02*
X121826522Y-96325819D01*
X121826522Y-96325819D02*
X121921760Y-96373438D01*
X121921760Y-96373438D02*
X121969379Y-96421057D01*
X121969379Y-96421057D02*
X122016998Y-96516295D01*
X122016998Y-96516295D02*
X122016998Y-96611533D01*
X122016998Y-96611533D02*
X121969379Y-96754390D01*
X121969379Y-96754390D02*
X121397951Y-97325819D01*
X121397951Y-97325819D02*
X122016998Y-97325819D01*
X123274141Y-126325819D02*
X122959855Y-126325819D01*
X122959855Y-126325819D02*
X122928427Y-126802009D01*
X122928427Y-126802009D02*
X122959855Y-126754390D01*
X122959855Y-126754390D02*
X123022713Y-126706771D01*
X123022713Y-126706771D02*
X123179855Y-126706771D01*
X123179855Y-126706771D02*
X123242713Y-126754390D01*
X123242713Y-126754390D02*
X123274141Y-126802009D01*
X123274141Y-126802009D02*
X123305570Y-126897247D01*
X123305570Y-126897247D02*
X123305570Y-127135342D01*
X123305570Y-127135342D02*
X123274141Y-127230580D01*
X123274141Y-127230580D02*
X123242713Y-127278200D01*
X123242713Y-127278200D02*
X123179855Y-127325819D01*
X123179855Y-127325819D02*
X123022713Y-127325819D01*
X123022713Y-127325819D02*
X122959855Y-127278200D01*
X122959855Y-127278200D02*
X122928427Y-127230580D01*
X123494141Y-126325819D02*
X123714141Y-127325819D01*
X123714141Y-127325819D02*
X123934141Y-126325819D01*
X124279855Y-126325819D02*
X124342712Y-126325819D01*
X124342712Y-126325819D02*
X124405569Y-126373438D01*
X124405569Y-126373438D02*
X124436998Y-126421057D01*
X124436998Y-126421057D02*
X124468426Y-126516295D01*
X124468426Y-126516295D02*
X124499855Y-126706771D01*
X124499855Y-126706771D02*
X124499855Y-126944866D01*
X124499855Y-126944866D02*
X124468426Y-127135342D01*
X124468426Y-127135342D02*
X124436998Y-127230580D01*
X124436998Y-127230580D02*
X124405569Y-127278200D01*
X124405569Y-127278200D02*
X124342712Y-127325819D01*
X124342712Y-127325819D02*
X124279855Y-127325819D01*
X124279855Y-127325819D02*
X124216998Y-127278200D01*
X124216998Y-127278200D02*
X124185569Y-127230580D01*
X124185569Y-127230580D02*
X124154140Y-127135342D01*
X124154140Y-127135342D02*
X124122712Y-126944866D01*
X124122712Y-126944866D02*
X124122712Y-126706771D01*
X124122712Y-126706771D02*
X124154140Y-126516295D01*
X124154140Y-126516295D02*
X124185569Y-126421057D01*
X124185569Y-126421057D02*
X124216998Y-126373438D01*
X124216998Y-126373438D02*
X124279855Y-126325819D01*
X123493189Y-93921057D02*
X123540808Y-93873438D01*
X123540808Y-93873438D02*
X123636046Y-93825819D01*
X123636046Y-93825819D02*
X123874141Y-93825819D01*
X123874141Y-93825819D02*
X123969379Y-93873438D01*
X123969379Y-93873438D02*
X124016998Y-93921057D01*
X124016998Y-93921057D02*
X124064617Y-94016295D01*
X124064617Y-94016295D02*
X124064617Y-94111533D01*
X124064617Y-94111533D02*
X124016998Y-94254390D01*
X124016998Y-94254390D02*
X123445570Y-94825819D01*
X123445570Y-94825819D02*
X124064617Y-94825819D01*
X123445570Y-96325819D02*
X124064617Y-96325819D01*
X124064617Y-96325819D02*
X123731284Y-96706771D01*
X123731284Y-96706771D02*
X123874141Y-96706771D01*
X123874141Y-96706771D02*
X123969379Y-96754390D01*
X123969379Y-96754390D02*
X124016998Y-96802009D01*
X124016998Y-96802009D02*
X124064617Y-96897247D01*
X124064617Y-96897247D02*
X124064617Y-97135342D01*
X124064617Y-97135342D02*
X124016998Y-97230580D01*
X124016998Y-97230580D02*
X123969379Y-97278200D01*
X123969379Y-97278200D02*
X123874141Y-97325819D01*
X123874141Y-97325819D02*
X123588427Y-97325819D01*
X123588427Y-97325819D02*
X123493189Y-97278200D01*
X123493189Y-97278200D02*
X123445570Y-97230580D01*
X120774141Y-126325819D02*
X120459855Y-126325819D01*
X120459855Y-126325819D02*
X120428427Y-126802009D01*
X120428427Y-126802009D02*
X120459855Y-126754390D01*
X120459855Y-126754390D02*
X120522713Y-126706771D01*
X120522713Y-126706771D02*
X120679855Y-126706771D01*
X120679855Y-126706771D02*
X120742713Y-126754390D01*
X120742713Y-126754390D02*
X120774141Y-126802009D01*
X120774141Y-126802009D02*
X120805570Y-126897247D01*
X120805570Y-126897247D02*
X120805570Y-127135342D01*
X120805570Y-127135342D02*
X120774141Y-127230580D01*
X120774141Y-127230580D02*
X120742713Y-127278200D01*
X120742713Y-127278200D02*
X120679855Y-127325819D01*
X120679855Y-127325819D02*
X120522713Y-127325819D01*
X120522713Y-127325819D02*
X120459855Y-127278200D01*
X120459855Y-127278200D02*
X120428427Y-127230580D01*
X120994141Y-126325819D02*
X121214141Y-127325819D01*
X121214141Y-127325819D02*
X121434141Y-126325819D01*
X121779855Y-126325819D02*
X121842712Y-126325819D01*
X121842712Y-126325819D02*
X121905569Y-126373438D01*
X121905569Y-126373438D02*
X121936998Y-126421057D01*
X121936998Y-126421057D02*
X121968426Y-126516295D01*
X121968426Y-126516295D02*
X121999855Y-126706771D01*
X121999855Y-126706771D02*
X121999855Y-126944866D01*
X121999855Y-126944866D02*
X121968426Y-127135342D01*
X121968426Y-127135342D02*
X121936998Y-127230580D01*
X121936998Y-127230580D02*
X121905569Y-127278200D01*
X121905569Y-127278200D02*
X121842712Y-127325819D01*
X121842712Y-127325819D02*
X121779855Y-127325819D01*
X121779855Y-127325819D02*
X121716998Y-127278200D01*
X121716998Y-127278200D02*
X121685569Y-127230580D01*
X121685569Y-127230580D02*
X121654140Y-127135342D01*
X121654140Y-127135342D02*
X121622712Y-126944866D01*
X121622712Y-126944866D02*
X121622712Y-126706771D01*
X121622712Y-126706771D02*
X121654140Y-126516295D01*
X121654140Y-126516295D02*
X121685569Y-126421057D01*
X121685569Y-126421057D02*
X121716998Y-126373438D01*
X121716998Y-126373438D02*
X121779855Y-126325819D01*
X122896998Y-121325819D02*
X123305570Y-121325819D01*
X123305570Y-121325819D02*
X123085570Y-121706771D01*
X123085570Y-121706771D02*
X123179855Y-121706771D01*
X123179855Y-121706771D02*
X123242713Y-121754390D01*
X123242713Y-121754390D02*
X123274141Y-121802009D01*
X123274141Y-121802009D02*
X123305570Y-121897247D01*
X123305570Y-121897247D02*
X123305570Y-122135342D01*
X123305570Y-122135342D02*
X123274141Y-122230580D01*
X123274141Y-122230580D02*
X123242713Y-122278200D01*
X123242713Y-122278200D02*
X123179855Y-122325819D01*
X123179855Y-122325819D02*
X122991284Y-122325819D01*
X122991284Y-122325819D02*
X122928427Y-122278200D01*
X122928427Y-122278200D02*
X122896998Y-122230580D01*
X123494141Y-121325819D02*
X123714141Y-122325819D01*
X123714141Y-122325819D02*
X123934141Y-121325819D01*
X124091283Y-121325819D02*
X124499855Y-121325819D01*
X124499855Y-121325819D02*
X124279855Y-121706771D01*
X124279855Y-121706771D02*
X124374140Y-121706771D01*
X124374140Y-121706771D02*
X124436998Y-121754390D01*
X124436998Y-121754390D02*
X124468426Y-121802009D01*
X124468426Y-121802009D02*
X124499855Y-121897247D01*
X124499855Y-121897247D02*
X124499855Y-122135342D01*
X124499855Y-122135342D02*
X124468426Y-122230580D01*
X124468426Y-122230580D02*
X124436998Y-122278200D01*
X124436998Y-122278200D02*
X124374140Y-122325819D01*
X124374140Y-122325819D02*
X124185569Y-122325819D01*
X124185569Y-122325819D02*
X124122712Y-122278200D01*
X124122712Y-122278200D02*
X124091283Y-122230580D01*
X123683665Y-109254390D02*
X123588427Y-109206771D01*
X123588427Y-109206771D02*
X123540808Y-109159152D01*
X123540808Y-109159152D02*
X123493189Y-109063914D01*
X123493189Y-109063914D02*
X123493189Y-109016295D01*
X123493189Y-109016295D02*
X123540808Y-108921057D01*
X123540808Y-108921057D02*
X123588427Y-108873438D01*
X123588427Y-108873438D02*
X123683665Y-108825819D01*
X123683665Y-108825819D02*
X123874141Y-108825819D01*
X123874141Y-108825819D02*
X123969379Y-108873438D01*
X123969379Y-108873438D02*
X124016998Y-108921057D01*
X124016998Y-108921057D02*
X124064617Y-109016295D01*
X124064617Y-109016295D02*
X124064617Y-109063914D01*
X124064617Y-109063914D02*
X124016998Y-109159152D01*
X124016998Y-109159152D02*
X123969379Y-109206771D01*
X123969379Y-109206771D02*
X123874141Y-109254390D01*
X123874141Y-109254390D02*
X123683665Y-109254390D01*
X123683665Y-109254390D02*
X123588427Y-109302009D01*
X123588427Y-109302009D02*
X123540808Y-109349628D01*
X123540808Y-109349628D02*
X123493189Y-109444866D01*
X123493189Y-109444866D02*
X123493189Y-109635342D01*
X123493189Y-109635342D02*
X123540808Y-109730580D01*
X123540808Y-109730580D02*
X123588427Y-109778200D01*
X123588427Y-109778200D02*
X123683665Y-109825819D01*
X123683665Y-109825819D02*
X123874141Y-109825819D01*
X123874141Y-109825819D02*
X123969379Y-109778200D01*
X123969379Y-109778200D02*
X124016998Y-109730580D01*
X124016998Y-109730580D02*
X124064617Y-109635342D01*
X124064617Y-109635342D02*
X124064617Y-109444866D01*
X124064617Y-109444866D02*
X124016998Y-109349628D01*
X124016998Y-109349628D02*
X123969379Y-109302009D01*
X123969379Y-109302009D02*
X123874141Y-109254390D01*
X123588427Y-112325819D02*
X123778903Y-112325819D01*
X123778903Y-112325819D02*
X123874141Y-112278200D01*
X123874141Y-112278200D02*
X123921760Y-112230580D01*
X123921760Y-112230580D02*
X124016998Y-112087723D01*
X124016998Y-112087723D02*
X124064617Y-111897247D01*
X124064617Y-111897247D02*
X124064617Y-111516295D01*
X124064617Y-111516295D02*
X124016998Y-111421057D01*
X124016998Y-111421057D02*
X123969379Y-111373438D01*
X123969379Y-111373438D02*
X123874141Y-111325819D01*
X123874141Y-111325819D02*
X123683665Y-111325819D01*
X123683665Y-111325819D02*
X123588427Y-111373438D01*
X123588427Y-111373438D02*
X123540808Y-111421057D01*
X123540808Y-111421057D02*
X123493189Y-111516295D01*
X123493189Y-111516295D02*
X123493189Y-111754390D01*
X123493189Y-111754390D02*
X123540808Y-111849628D01*
X123540808Y-111849628D02*
X123588427Y-111897247D01*
X123588427Y-111897247D02*
X123683665Y-111944866D01*
X123683665Y-111944866D02*
X123874141Y-111944866D01*
X123874141Y-111944866D02*
X123969379Y-111897247D01*
X123969379Y-111897247D02*
X124016998Y-111849628D01*
X124016998Y-111849628D02*
X124064617Y-111754390D01*
X121064617Y-109825819D02*
X120493189Y-109825819D01*
X120778903Y-109825819D02*
X120778903Y-108825819D01*
X120778903Y-108825819D02*
X120683665Y-108968676D01*
X120683665Y-108968676D02*
X120588427Y-109063914D01*
X120588427Y-109063914D02*
X120493189Y-109111533D01*
X121397951Y-108825819D02*
X122064617Y-108825819D01*
X122064617Y-108825819D02*
X121636046Y-109825819D01*
X123969379Y-103825819D02*
X123778903Y-103825819D01*
X123778903Y-103825819D02*
X123683665Y-103873438D01*
X123683665Y-103873438D02*
X123636046Y-103921057D01*
X123636046Y-103921057D02*
X123540808Y-104063914D01*
X123540808Y-104063914D02*
X123493189Y-104254390D01*
X123493189Y-104254390D02*
X123493189Y-104635342D01*
X123493189Y-104635342D02*
X123540808Y-104730580D01*
X123540808Y-104730580D02*
X123588427Y-104778200D01*
X123588427Y-104778200D02*
X123683665Y-104825819D01*
X123683665Y-104825819D02*
X123874141Y-104825819D01*
X123874141Y-104825819D02*
X123969379Y-104778200D01*
X123969379Y-104778200D02*
X124016998Y-104730580D01*
X124016998Y-104730580D02*
X124064617Y-104635342D01*
X124064617Y-104635342D02*
X124064617Y-104397247D01*
X124064617Y-104397247D02*
X124016998Y-104302009D01*
X124016998Y-104302009D02*
X123969379Y-104254390D01*
X123969379Y-104254390D02*
X123874141Y-104206771D01*
X123874141Y-104206771D02*
X123683665Y-104206771D01*
X123683665Y-104206771D02*
X123588427Y-104254390D01*
X123588427Y-104254390D02*
X123540808Y-104302009D01*
X123540808Y-104302009D02*
X123493189Y-104397247D01*
X121064617Y-119825819D02*
X120493189Y-119825819D01*
X120778903Y-119825819D02*
X120778903Y-118825819D01*
X120778903Y-118825819D02*
X120683665Y-118968676D01*
X120683665Y-118968676D02*
X120588427Y-119063914D01*
X120588427Y-119063914D02*
X120493189Y-119111533D01*
X121397951Y-118825819D02*
X122016998Y-118825819D01*
X122016998Y-118825819D02*
X121683665Y-119206771D01*
X121683665Y-119206771D02*
X121826522Y-119206771D01*
X121826522Y-119206771D02*
X121921760Y-119254390D01*
X121921760Y-119254390D02*
X121969379Y-119302009D01*
X121969379Y-119302009D02*
X122016998Y-119397247D01*
X122016998Y-119397247D02*
X122016998Y-119635342D01*
X122016998Y-119635342D02*
X121969379Y-119730580D01*
X121969379Y-119730580D02*
X121921760Y-119778200D01*
X121921760Y-119778200D02*
X121826522Y-119825819D01*
X121826522Y-119825819D02*
X121540808Y-119825819D01*
X121540808Y-119825819D02*
X121445570Y-119778200D01*
X121445570Y-119778200D02*
X121397951Y-119730580D01*
X121064617Y-117325819D02*
X120493189Y-117325819D01*
X120778903Y-117325819D02*
X120778903Y-116325819D01*
X120778903Y-116325819D02*
X120683665Y-116468676D01*
X120683665Y-116468676D02*
X120588427Y-116563914D01*
X120588427Y-116563914D02*
X120493189Y-116611533D01*
X121921760Y-116659152D02*
X121921760Y-117325819D01*
X121683665Y-116278200D02*
X121445570Y-116992485D01*
X121445570Y-116992485D02*
X122064617Y-116992485D01*
X123969379Y-99159152D02*
X123969379Y-99825819D01*
X123731284Y-98778200D02*
X123493189Y-99492485D01*
X123493189Y-99492485D02*
X124112236Y-99492485D01*
X121064617Y-112325819D02*
X120493189Y-112325819D01*
X120778903Y-112325819D02*
X120778903Y-111325819D01*
X120778903Y-111325819D02*
X120683665Y-111468676D01*
X120683665Y-111468676D02*
X120588427Y-111563914D01*
X120588427Y-111563914D02*
X120493189Y-111611533D01*
X121921760Y-111325819D02*
X121731284Y-111325819D01*
X121731284Y-111325819D02*
X121636046Y-111373438D01*
X121636046Y-111373438D02*
X121588427Y-111421057D01*
X121588427Y-111421057D02*
X121493189Y-111563914D01*
X121493189Y-111563914D02*
X121445570Y-111754390D01*
X121445570Y-111754390D02*
X121445570Y-112135342D01*
X121445570Y-112135342D02*
X121493189Y-112230580D01*
X121493189Y-112230580D02*
X121540808Y-112278200D01*
X121540808Y-112278200D02*
X121636046Y-112325819D01*
X121636046Y-112325819D02*
X121826522Y-112325819D01*
X121826522Y-112325819D02*
X121921760Y-112278200D01*
X121921760Y-112278200D02*
X121969379Y-112230580D01*
X121969379Y-112230580D02*
X122016998Y-112135342D01*
X122016998Y-112135342D02*
X122016998Y-111897247D01*
X122016998Y-111897247D02*
X121969379Y-111802009D01*
X121969379Y-111802009D02*
X121921760Y-111754390D01*
X121921760Y-111754390D02*
X121826522Y-111706771D01*
X121826522Y-111706771D02*
X121636046Y-111706771D01*
X121636046Y-111706771D02*
X121540808Y-111754390D01*
X121540808Y-111754390D02*
X121493189Y-111802009D01*
X121493189Y-111802009D02*
X121445570Y-111897247D01*
X122865570Y-123825819D02*
X123085570Y-124825819D01*
X123085570Y-124825819D02*
X123305570Y-123825819D01*
X123902712Y-124825819D02*
X123682712Y-124349628D01*
X123525569Y-124825819D02*
X123525569Y-123825819D01*
X123525569Y-123825819D02*
X123776998Y-123825819D01*
X123776998Y-123825819D02*
X123839855Y-123873438D01*
X123839855Y-123873438D02*
X123871284Y-123921057D01*
X123871284Y-123921057D02*
X123902712Y-124016295D01*
X123902712Y-124016295D02*
X123902712Y-124159152D01*
X123902712Y-124159152D02*
X123871284Y-124254390D01*
X123871284Y-124254390D02*
X123839855Y-124302009D01*
X123839855Y-124302009D02*
X123776998Y-124349628D01*
X123776998Y-124349628D02*
X123525569Y-124349628D01*
X124405569Y-124302009D02*
X124185569Y-124302009D01*
X124185569Y-124825819D02*
X124185569Y-123825819D01*
X124185569Y-123825819D02*
X124499855Y-123825819D01*
X121064617Y-104825819D02*
X120493189Y-104825819D01*
X120778903Y-104825819D02*
X120778903Y-103825819D01*
X120778903Y-103825819D02*
X120683665Y-103968676D01*
X120683665Y-103968676D02*
X120588427Y-104063914D01*
X120588427Y-104063914D02*
X120493189Y-104111533D01*
X121540808Y-104825819D02*
X121731284Y-104825819D01*
X121731284Y-104825819D02*
X121826522Y-104778200D01*
X121826522Y-104778200D02*
X121874141Y-104730580D01*
X121874141Y-104730580D02*
X121969379Y-104587723D01*
X121969379Y-104587723D02*
X122016998Y-104397247D01*
X122016998Y-104397247D02*
X122016998Y-104016295D01*
X122016998Y-104016295D02*
X121969379Y-103921057D01*
X121969379Y-103921057D02*
X121921760Y-103873438D01*
X121921760Y-103873438D02*
X121826522Y-103825819D01*
X121826522Y-103825819D02*
X121636046Y-103825819D01*
X121636046Y-103825819D02*
X121540808Y-103873438D01*
X121540808Y-103873438D02*
X121493189Y-103921057D01*
X121493189Y-103921057D02*
X121445570Y-104016295D01*
X121445570Y-104016295D02*
X121445570Y-104254390D01*
X121445570Y-104254390D02*
X121493189Y-104349628D01*
X121493189Y-104349628D02*
X121540808Y-104397247D01*
X121540808Y-104397247D02*
X121636046Y-104444866D01*
X121636046Y-104444866D02*
X121826522Y-104444866D01*
X121826522Y-104444866D02*
X121921760Y-104397247D01*
X121921760Y-104397247D02*
X121969379Y-104349628D01*
X121969379Y-104349628D02*
X122016998Y-104254390D01*
X124064617Y-92325819D02*
X123493189Y-92325819D01*
X123778903Y-92325819D02*
X123778903Y-91325819D01*
X123778903Y-91325819D02*
X123683665Y-91468676D01*
X123683665Y-91468676D02*
X123588427Y-91563914D01*
X123588427Y-91563914D02*
X123493189Y-91611533D01*
X157767495Y-110227352D02*
X157767495Y-110894019D01*
X157529400Y-109846400D02*
X157291305Y-110560685D01*
X157291305Y-110560685D02*
X157910352Y-110560685D01*
X158291305Y-110798780D02*
X158338924Y-110846400D01*
X158338924Y-110846400D02*
X158291305Y-110894019D01*
X158291305Y-110894019D02*
X158243686Y-110846400D01*
X158243686Y-110846400D02*
X158291305Y-110798780D01*
X158291305Y-110798780D02*
X158291305Y-110894019D01*
X158672257Y-109894019D02*
X159338923Y-109894019D01*
X159338923Y-109894019D02*
X158910352Y-110894019D01*
X160148447Y-110227352D02*
X160148447Y-110894019D01*
X159719876Y-110227352D02*
X159719876Y-110751161D01*
X159719876Y-110751161D02*
X159767495Y-110846400D01*
X159767495Y-110846400D02*
X159862733Y-110894019D01*
X159862733Y-110894019D02*
X160005590Y-110894019D01*
X160005590Y-110894019D02*
X160100828Y-110846400D01*
X160100828Y-110846400D02*
X160148447Y-110798780D01*
X160481781Y-110227352D02*
X160862733Y-110227352D01*
X160624638Y-110894019D02*
X160624638Y-110036876D01*
X160624638Y-110036876D02*
X160672257Y-109941638D01*
X160672257Y-109941638D02*
X160767495Y-109894019D01*
X160767495Y-109894019D02*
X160862733Y-109894019D01*
X129265099Y-122063752D02*
X129265099Y-122730419D01*
X129027004Y-121682800D02*
X128788909Y-122397085D01*
X128788909Y-122397085D02*
X129407956Y-122397085D01*
X129693671Y-121730419D02*
X130360337Y-121730419D01*
X130360337Y-121730419D02*
X129931766Y-122730419D01*
X130931766Y-121730419D02*
X131027004Y-121730419D01*
X131027004Y-121730419D02*
X131122242Y-121778038D01*
X131122242Y-121778038D02*
X131169861Y-121825657D01*
X131169861Y-121825657D02*
X131217480Y-121920895D01*
X131217480Y-121920895D02*
X131265099Y-122111371D01*
X131265099Y-122111371D02*
X131265099Y-122349466D01*
X131265099Y-122349466D02*
X131217480Y-122539942D01*
X131217480Y-122539942D02*
X131169861Y-122635180D01*
X131169861Y-122635180D02*
X131122242Y-122682800D01*
X131122242Y-122682800D02*
X131027004Y-122730419D01*
X131027004Y-122730419D02*
X130931766Y-122730419D01*
X130931766Y-122730419D02*
X130836528Y-122682800D01*
X130836528Y-122682800D02*
X130788909Y-122635180D01*
X130788909Y-122635180D02*
X130741290Y-122539942D01*
X130741290Y-122539942D02*
X130693671Y-122349466D01*
X130693671Y-122349466D02*
X130693671Y-122111371D01*
X130693671Y-122111371D02*
X130741290Y-121920895D01*
X130741290Y-121920895D02*
X130788909Y-121825657D01*
X130788909Y-121825657D02*
X130836528Y-121778038D01*
X130836528Y-121778038D02*
X130931766Y-121730419D01*
X132122242Y-122063752D02*
X132122242Y-122730419D01*
X131693671Y-122063752D02*
X131693671Y-122587561D01*
X131693671Y-122587561D02*
X131741290Y-122682800D01*
X131741290Y-122682800D02*
X131836528Y-122730419D01*
X131836528Y-122730419D02*
X131979385Y-122730419D01*
X131979385Y-122730419D02*
X132074623Y-122682800D01*
X132074623Y-122682800D02*
X132122242Y-122635180D01*
X132455576Y-122063752D02*
X132836528Y-122063752D01*
X132598433Y-122730419D02*
X132598433Y-121873276D01*
X132598433Y-121873276D02*
X132646052Y-121778038D01*
X132646052Y-121778038D02*
X132741290Y-121730419D01*
X132741290Y-121730419D02*
X132836528Y-121730419D01*
X151851590Y-117444733D02*
X151803971Y-117539971D01*
X151803971Y-117539971D02*
X151756352Y-117587590D01*
X151756352Y-117587590D02*
X151661114Y-117635209D01*
X151661114Y-117635209D02*
X151613495Y-117635209D01*
X151613495Y-117635209D02*
X151518257Y-117587590D01*
X151518257Y-117587590D02*
X151470638Y-117539971D01*
X151470638Y-117539971D02*
X151423019Y-117444733D01*
X151423019Y-117444733D02*
X151423019Y-117254257D01*
X151423019Y-117254257D02*
X151470638Y-117159019D01*
X151470638Y-117159019D02*
X151518257Y-117111400D01*
X151518257Y-117111400D02*
X151613495Y-117063781D01*
X151613495Y-117063781D02*
X151661114Y-117063781D01*
X151661114Y-117063781D02*
X151756352Y-117111400D01*
X151756352Y-117111400D02*
X151803971Y-117159019D01*
X151803971Y-117159019D02*
X151851590Y-117254257D01*
X151851590Y-117254257D02*
X151851590Y-117444733D01*
X151851590Y-117444733D02*
X151899209Y-117539971D01*
X151899209Y-117539971D02*
X151946828Y-117587590D01*
X151946828Y-117587590D02*
X152042066Y-117635209D01*
X152042066Y-117635209D02*
X152232542Y-117635209D01*
X152232542Y-117635209D02*
X152327780Y-117587590D01*
X152327780Y-117587590D02*
X152375400Y-117539971D01*
X152375400Y-117539971D02*
X152423019Y-117444733D01*
X152423019Y-117444733D02*
X152423019Y-117254257D01*
X152423019Y-117254257D02*
X152375400Y-117159019D01*
X152375400Y-117159019D02*
X152327780Y-117111400D01*
X152327780Y-117111400D02*
X152232542Y-117063781D01*
X152232542Y-117063781D02*
X152042066Y-117063781D01*
X152042066Y-117063781D02*
X151946828Y-117111400D01*
X151946828Y-117111400D02*
X151899209Y-117159019D01*
X151899209Y-117159019D02*
X151851590Y-117254257D01*
X151756352Y-116635209D02*
X152756352Y-116635209D01*
X151803971Y-116635209D02*
X151756352Y-116539971D01*
X151756352Y-116539971D02*
X151756352Y-116349495D01*
X151756352Y-116349495D02*
X151803971Y-116254257D01*
X151803971Y-116254257D02*
X151851590Y-116206638D01*
X151851590Y-116206638D02*
X151946828Y-116159019D01*
X151946828Y-116159019D02*
X152232542Y-116159019D01*
X152232542Y-116159019D02*
X152327780Y-116206638D01*
X152327780Y-116206638D02*
X152375400Y-116254257D01*
X152375400Y-116254257D02*
X152423019Y-116349495D01*
X152423019Y-116349495D02*
X152423019Y-116539971D01*
X152423019Y-116539971D02*
X152375400Y-116635209D01*
X151756352Y-115873304D02*
X151756352Y-115492352D01*
X152423019Y-115730447D02*
X151565876Y-115730447D01*
X151565876Y-115730447D02*
X151470638Y-115682828D01*
X151470638Y-115682828D02*
X151423019Y-115587590D01*
X151423019Y-115587590D02*
X151423019Y-115492352D01*
X137191395Y-123751019D02*
X137191395Y-124560542D01*
X137191395Y-124560542D02*
X137239014Y-124655780D01*
X137239014Y-124655780D02*
X137286633Y-124703400D01*
X137286633Y-124703400D02*
X137381871Y-124751019D01*
X137381871Y-124751019D02*
X137572347Y-124751019D01*
X137572347Y-124751019D02*
X137667585Y-124703400D01*
X137667585Y-124703400D02*
X137715204Y-124655780D01*
X137715204Y-124655780D02*
X137762823Y-124560542D01*
X137762823Y-124560542D02*
X137762823Y-123751019D01*
X138143776Y-123751019D02*
X138810442Y-123751019D01*
X138810442Y-123751019D02*
X138381871Y-124751019D01*
X147101790Y-123898990D02*
X147054171Y-123994228D01*
X147054171Y-123994228D02*
X147006552Y-124041847D01*
X147006552Y-124041847D02*
X146911314Y-124089466D01*
X146911314Y-124089466D02*
X146863695Y-124089466D01*
X146863695Y-124089466D02*
X146768457Y-124041847D01*
X146768457Y-124041847D02*
X146720838Y-123994228D01*
X146720838Y-123994228D02*
X146673219Y-123898990D01*
X146673219Y-123898990D02*
X146673219Y-123708514D01*
X146673219Y-123708514D02*
X146720838Y-123613276D01*
X146720838Y-123613276D02*
X146768457Y-123565657D01*
X146768457Y-123565657D02*
X146863695Y-123518038D01*
X146863695Y-123518038D02*
X146911314Y-123518038D01*
X146911314Y-123518038D02*
X147006552Y-123565657D01*
X147006552Y-123565657D02*
X147054171Y-123613276D01*
X147054171Y-123613276D02*
X147101790Y-123708514D01*
X147101790Y-123708514D02*
X147101790Y-123898990D01*
X147101790Y-123898990D02*
X147149409Y-123994228D01*
X147149409Y-123994228D02*
X147197028Y-124041847D01*
X147197028Y-124041847D02*
X147292266Y-124089466D01*
X147292266Y-124089466D02*
X147482742Y-124089466D01*
X147482742Y-124089466D02*
X147577980Y-124041847D01*
X147577980Y-124041847D02*
X147625600Y-123994228D01*
X147625600Y-123994228D02*
X147673219Y-123898990D01*
X147673219Y-123898990D02*
X147673219Y-123708514D01*
X147673219Y-123708514D02*
X147625600Y-123613276D01*
X147625600Y-123613276D02*
X147577980Y-123565657D01*
X147577980Y-123565657D02*
X147482742Y-123518038D01*
X147482742Y-123518038D02*
X147292266Y-123518038D01*
X147292266Y-123518038D02*
X147197028Y-123565657D01*
X147197028Y-123565657D02*
X147149409Y-123613276D01*
X147149409Y-123613276D02*
X147101790Y-123708514D01*
X147673219Y-123089466D02*
X146673219Y-123089466D01*
X147292266Y-122994228D02*
X147673219Y-122708514D01*
X147006552Y-122708514D02*
X147387504Y-123089466D01*
X146768457Y-122327561D02*
X146720838Y-122279942D01*
X146720838Y-122279942D02*
X146673219Y-122184704D01*
X146673219Y-122184704D02*
X146673219Y-121946609D01*
X146673219Y-121946609D02*
X146720838Y-121851371D01*
X146720838Y-121851371D02*
X146768457Y-121803752D01*
X146768457Y-121803752D02*
X146863695Y-121756133D01*
X146863695Y-121756133D02*
X146958933Y-121756133D01*
X146958933Y-121756133D02*
X147101790Y-121803752D01*
X147101790Y-121803752D02*
X147673219Y-122375180D01*
X147673219Y-122375180D02*
X147673219Y-121756133D01*
X130828062Y-110359580D02*
X130780443Y-110407200D01*
X130780443Y-110407200D02*
X130637586Y-110454819D01*
X130637586Y-110454819D02*
X130542348Y-110454819D01*
X130542348Y-110454819D02*
X130399491Y-110407200D01*
X130399491Y-110407200D02*
X130304253Y-110311961D01*
X130304253Y-110311961D02*
X130256634Y-110216723D01*
X130256634Y-110216723D02*
X130209015Y-110026247D01*
X130209015Y-110026247D02*
X130209015Y-109883390D01*
X130209015Y-109883390D02*
X130256634Y-109692914D01*
X130256634Y-109692914D02*
X130304253Y-109597676D01*
X130304253Y-109597676D02*
X130399491Y-109502438D01*
X130399491Y-109502438D02*
X130542348Y-109454819D01*
X130542348Y-109454819D02*
X130637586Y-109454819D01*
X130637586Y-109454819D02*
X130780443Y-109502438D01*
X130780443Y-109502438D02*
X130828062Y-109550057D01*
X131304253Y-110454819D02*
X131494729Y-110454819D01*
X131494729Y-110454819D02*
X131589967Y-110407200D01*
X131589967Y-110407200D02*
X131637586Y-110359580D01*
X131637586Y-110359580D02*
X131732824Y-110216723D01*
X131732824Y-110216723D02*
X131780443Y-110026247D01*
X131780443Y-110026247D02*
X131780443Y-109645295D01*
X131780443Y-109645295D02*
X131732824Y-109550057D01*
X131732824Y-109550057D02*
X131685205Y-109502438D01*
X131685205Y-109502438D02*
X131589967Y-109454819D01*
X131589967Y-109454819D02*
X131399491Y-109454819D01*
X131399491Y-109454819D02*
X131304253Y-109502438D01*
X131304253Y-109502438D02*
X131256634Y-109550057D01*
X131256634Y-109550057D02*
X131209015Y-109645295D01*
X131209015Y-109645295D02*
X131209015Y-109883390D01*
X131209015Y-109883390D02*
X131256634Y-109978628D01*
X131256634Y-109978628D02*
X131304253Y-110026247D01*
X131304253Y-110026247D02*
X131399491Y-110073866D01*
X131399491Y-110073866D02*
X131589967Y-110073866D01*
X131589967Y-110073866D02*
X131685205Y-110026247D01*
X131685205Y-110026247D02*
X131732824Y-109978628D01*
X131732824Y-109978628D02*
X131780443Y-109883390D01*
D13*
X128032380Y-104704318D02*
X128032380Y-105732413D01*
X128032380Y-105732413D02*
X128092857Y-105853365D01*
X128092857Y-105853365D02*
X128153333Y-105913842D01*
X128153333Y-105913842D02*
X128274285Y-105974318D01*
X128274285Y-105974318D02*
X128516190Y-105974318D01*
X128516190Y-105974318D02*
X128637142Y-105913842D01*
X128637142Y-105913842D02*
X128697619Y-105853365D01*
X128697619Y-105853365D02*
X128758095Y-105732413D01*
X128758095Y-105732413D02*
X128758095Y-104704318D01*
X129967618Y-104704318D02*
X129362856Y-104704318D01*
X129362856Y-104704318D02*
X129302380Y-105309080D01*
X129302380Y-105309080D02*
X129362856Y-105248603D01*
X129362856Y-105248603D02*
X129483809Y-105188127D01*
X129483809Y-105188127D02*
X129786190Y-105188127D01*
X129786190Y-105188127D02*
X129907142Y-105248603D01*
X129907142Y-105248603D02*
X129967618Y-105309080D01*
X129967618Y-105309080D02*
X130028095Y-105430032D01*
X130028095Y-105430032D02*
X130028095Y-105732413D01*
X130028095Y-105732413D02*
X129967618Y-105853365D01*
X129967618Y-105853365D02*
X129907142Y-105913842D01*
X129907142Y-105913842D02*
X129786190Y-105974318D01*
X129786190Y-105974318D02*
X129483809Y-105974318D01*
X129483809Y-105974318D02*
X129362856Y-105913842D01*
X129362856Y-105913842D02*
X129302380Y-105853365D01*
X128032380Y-94604318D02*
X128032380Y-95632413D01*
X128032380Y-95632413D02*
X128092857Y-95753365D01*
X128092857Y-95753365D02*
X128153333Y-95813842D01*
X128153333Y-95813842D02*
X128274285Y-95874318D01*
X128274285Y-95874318D02*
X128516190Y-95874318D01*
X128516190Y-95874318D02*
X128637142Y-95813842D01*
X128637142Y-95813842D02*
X128697619Y-95753365D01*
X128697619Y-95753365D02*
X128758095Y-95632413D01*
X128758095Y-95632413D02*
X128758095Y-94604318D01*
X129907142Y-95027651D02*
X129907142Y-95874318D01*
X129604761Y-94543842D02*
X129302380Y-95450984D01*
X129302380Y-95450984D02*
X130088571Y-95450984D01*
D11*
X146794552Y-111529019D02*
X146223124Y-111529019D01*
X146508838Y-111529019D02*
X146508838Y-110529019D01*
X146508838Y-110529019D02*
X146413600Y-110671876D01*
X146413600Y-110671876D02*
X146318362Y-110767114D01*
X146318362Y-110767114D02*
X146223124Y-110814733D01*
X147223124Y-111529019D02*
X147223124Y-110529019D01*
X147318362Y-111148066D02*
X147604076Y-111529019D01*
X147604076Y-110862352D02*
X147223124Y-111243304D01*
X135443933Y-93926819D02*
X135110600Y-93450628D01*
X134872505Y-93926819D02*
X134872505Y-92926819D01*
X134872505Y-92926819D02*
X135253457Y-92926819D01*
X135253457Y-92926819D02*
X135348695Y-92974438D01*
X135348695Y-92974438D02*
X135396314Y-93022057D01*
X135396314Y-93022057D02*
X135443933Y-93117295D01*
X135443933Y-93117295D02*
X135443933Y-93260152D01*
X135443933Y-93260152D02*
X135396314Y-93355390D01*
X135396314Y-93355390D02*
X135348695Y-93403009D01*
X135348695Y-93403009D02*
X135253457Y-93450628D01*
X135253457Y-93450628D02*
X134872505Y-93450628D01*
X135777267Y-92926819D02*
X136396314Y-92926819D01*
X136396314Y-92926819D02*
X136062981Y-93307771D01*
X136062981Y-93307771D02*
X136205838Y-93307771D01*
X136205838Y-93307771D02*
X136301076Y-93355390D01*
X136301076Y-93355390D02*
X136348695Y-93403009D01*
X136348695Y-93403009D02*
X136396314Y-93498247D01*
X136396314Y-93498247D02*
X136396314Y-93736342D01*
X136396314Y-93736342D02*
X136348695Y-93831580D01*
X136348695Y-93831580D02*
X136301076Y-93879200D01*
X136301076Y-93879200D02*
X136205838Y-93926819D01*
X136205838Y-93926819D02*
X135920124Y-93926819D01*
X135920124Y-93926819D02*
X135824886Y-93879200D01*
X135824886Y-93879200D02*
X135777267Y-93831580D01*
D13*
X128032380Y-114804318D02*
X128032380Y-115832413D01*
X128032380Y-115832413D02*
X128092857Y-115953365D01*
X128092857Y-115953365D02*
X128153333Y-116013842D01*
X128153333Y-116013842D02*
X128274285Y-116074318D01*
X128274285Y-116074318D02*
X128516190Y-116074318D01*
X128516190Y-116074318D02*
X128637142Y-116013842D01*
X128637142Y-116013842D02*
X128697619Y-115953365D01*
X128697619Y-115953365D02*
X128758095Y-115832413D01*
X128758095Y-115832413D02*
X128758095Y-114804318D01*
X129241904Y-114804318D02*
X130028095Y-114804318D01*
X130028095Y-114804318D02*
X129604761Y-115288127D01*
X129604761Y-115288127D02*
X129786190Y-115288127D01*
X129786190Y-115288127D02*
X129907142Y-115348603D01*
X129907142Y-115348603D02*
X129967618Y-115409080D01*
X129967618Y-115409080D02*
X130028095Y-115530032D01*
X130028095Y-115530032D02*
X130028095Y-115832413D01*
X130028095Y-115832413D02*
X129967618Y-115953365D01*
X129967618Y-115953365D02*
X129907142Y-116013842D01*
X129907142Y-116013842D02*
X129786190Y-116074318D01*
X129786190Y-116074318D02*
X129423333Y-116074318D01*
X129423333Y-116074318D02*
X129302380Y-116013842D01*
X129302380Y-116013842D02*
X129241904Y-115953365D01*
D11*
X153492295Y-112789619D02*
X153492295Y-113599142D01*
X153492295Y-113599142D02*
X153539914Y-113694380D01*
X153539914Y-113694380D02*
X153587533Y-113742000D01*
X153587533Y-113742000D02*
X153682771Y-113789619D01*
X153682771Y-113789619D02*
X153873247Y-113789619D01*
X153873247Y-113789619D02*
X153968485Y-113742000D01*
X153968485Y-113742000D02*
X154016104Y-113694380D01*
X154016104Y-113694380D02*
X154063723Y-113599142D01*
X154063723Y-113599142D02*
X154063723Y-112789619D01*
X154682771Y-113218190D02*
X154587533Y-113170571D01*
X154587533Y-113170571D02*
X154539914Y-113122952D01*
X154539914Y-113122952D02*
X154492295Y-113027714D01*
X154492295Y-113027714D02*
X154492295Y-112980095D01*
X154492295Y-112980095D02*
X154539914Y-112884857D01*
X154539914Y-112884857D02*
X154587533Y-112837238D01*
X154587533Y-112837238D02*
X154682771Y-112789619D01*
X154682771Y-112789619D02*
X154873247Y-112789619D01*
X154873247Y-112789619D02*
X154968485Y-112837238D01*
X154968485Y-112837238D02*
X155016104Y-112884857D01*
X155016104Y-112884857D02*
X155063723Y-112980095D01*
X155063723Y-112980095D02*
X155063723Y-113027714D01*
X155063723Y-113027714D02*
X155016104Y-113122952D01*
X155016104Y-113122952D02*
X154968485Y-113170571D01*
X154968485Y-113170571D02*
X154873247Y-113218190D01*
X154873247Y-113218190D02*
X154682771Y-113218190D01*
X154682771Y-113218190D02*
X154587533Y-113265809D01*
X154587533Y-113265809D02*
X154539914Y-113313428D01*
X154539914Y-113313428D02*
X154492295Y-113408666D01*
X154492295Y-113408666D02*
X154492295Y-113599142D01*
X154492295Y-113599142D02*
X154539914Y-113694380D01*
X154539914Y-113694380D02*
X154587533Y-113742000D01*
X154587533Y-113742000D02*
X154682771Y-113789619D01*
X154682771Y-113789619D02*
X154873247Y-113789619D01*
X154873247Y-113789619D02*
X154968485Y-113742000D01*
X154968485Y-113742000D02*
X155016104Y-113694380D01*
X155016104Y-113694380D02*
X155063723Y-113599142D01*
X155063723Y-113599142D02*
X155063723Y-113408666D01*
X155063723Y-113408666D02*
X155016104Y-113313428D01*
X155016104Y-113313428D02*
X154968485Y-113265809D01*
X154968485Y-113265809D02*
X154873247Y-113218190D01*
X130332142Y-90265180D02*
X130284523Y-90312800D01*
X130284523Y-90312800D02*
X130141666Y-90360419D01*
X130141666Y-90360419D02*
X130046428Y-90360419D01*
X130046428Y-90360419D02*
X129903571Y-90312800D01*
X129903571Y-90312800D02*
X129808333Y-90217561D01*
X129808333Y-90217561D02*
X129760714Y-90122323D01*
X129760714Y-90122323D02*
X129713095Y-89931847D01*
X129713095Y-89931847D02*
X129713095Y-89788990D01*
X129713095Y-89788990D02*
X129760714Y-89598514D01*
X129760714Y-89598514D02*
X129808333Y-89503276D01*
X129808333Y-89503276D02*
X129903571Y-89408038D01*
X129903571Y-89408038D02*
X130046428Y-89360419D01*
X130046428Y-89360419D02*
X130141666Y-89360419D01*
X130141666Y-89360419D02*
X130284523Y-89408038D01*
X130284523Y-89408038D02*
X130332142Y-89455657D01*
X131284523Y-90360419D02*
X130713095Y-90360419D01*
X130998809Y-90360419D02*
X130998809Y-89360419D01*
X130998809Y-89360419D02*
X130903571Y-89503276D01*
X130903571Y-89503276D02*
X130808333Y-89598514D01*
X130808333Y-89598514D02*
X130713095Y-89646133D01*
X131903571Y-89360419D02*
X131998809Y-89360419D01*
X131998809Y-89360419D02*
X132094047Y-89408038D01*
X132094047Y-89408038D02*
X132141666Y-89455657D01*
X132141666Y-89455657D02*
X132189285Y-89550895D01*
X132189285Y-89550895D02*
X132236904Y-89741371D01*
X132236904Y-89741371D02*
X132236904Y-89979466D01*
X132236904Y-89979466D02*
X132189285Y-90169942D01*
X132189285Y-90169942D02*
X132141666Y-90265180D01*
X132141666Y-90265180D02*
X132094047Y-90312800D01*
X132094047Y-90312800D02*
X131998809Y-90360419D01*
X131998809Y-90360419D02*
X131903571Y-90360419D01*
X131903571Y-90360419D02*
X131808333Y-90312800D01*
X131808333Y-90312800D02*
X131760714Y-90265180D01*
X131760714Y-90265180D02*
X131713095Y-90169942D01*
X131713095Y-90169942D02*
X131665476Y-89979466D01*
X131665476Y-89979466D02*
X131665476Y-89741371D01*
X131665476Y-89741371D02*
X131713095Y-89550895D01*
X131713095Y-89550895D02*
X131760714Y-89455657D01*
X131760714Y-89455657D02*
X131808333Y-89408038D01*
X131808333Y-89408038D02*
X131903571Y-89360419D01*
X142028528Y-122719019D02*
X141457100Y-122719019D01*
X141742814Y-122719019D02*
X141742814Y-121719019D01*
X141742814Y-121719019D02*
X141647576Y-121861876D01*
X141647576Y-121861876D02*
X141552338Y-121957114D01*
X141552338Y-121957114D02*
X141457100Y-122004733D01*
X142647576Y-121719019D02*
X142742814Y-121719019D01*
X142742814Y-121719019D02*
X142838052Y-121766638D01*
X142838052Y-121766638D02*
X142885671Y-121814257D01*
X142885671Y-121814257D02*
X142933290Y-121909495D01*
X142933290Y-121909495D02*
X142980909Y-122099971D01*
X142980909Y-122099971D02*
X142980909Y-122338066D01*
X142980909Y-122338066D02*
X142933290Y-122528542D01*
X142933290Y-122528542D02*
X142885671Y-122623780D01*
X142885671Y-122623780D02*
X142838052Y-122671400D01*
X142838052Y-122671400D02*
X142742814Y-122719019D01*
X142742814Y-122719019D02*
X142647576Y-122719019D01*
X142647576Y-122719019D02*
X142552338Y-122671400D01*
X142552338Y-122671400D02*
X142504719Y-122623780D01*
X142504719Y-122623780D02*
X142457100Y-122528542D01*
X142457100Y-122528542D02*
X142409481Y-122338066D01*
X142409481Y-122338066D02*
X142409481Y-122099971D01*
X142409481Y-122099971D02*
X142457100Y-121909495D01*
X142457100Y-121909495D02*
X142504719Y-121814257D01*
X142504719Y-121814257D02*
X142552338Y-121766638D01*
X142552338Y-121766638D02*
X142647576Y-121719019D01*
X143838052Y-122052352D02*
X143838052Y-122719019D01*
X143409481Y-122052352D02*
X143409481Y-122576161D01*
X143409481Y-122576161D02*
X143457100Y-122671400D01*
X143457100Y-122671400D02*
X143552338Y-122719019D01*
X143552338Y-122719019D02*
X143695195Y-122719019D01*
X143695195Y-122719019D02*
X143790433Y-122671400D01*
X143790433Y-122671400D02*
X143838052Y-122623780D01*
X144171386Y-122052352D02*
X144552338Y-122052352D01*
X144314243Y-122719019D02*
X144314243Y-121861876D01*
X144314243Y-121861876D02*
X144361862Y-121766638D01*
X144361862Y-121766638D02*
X144457100Y-121719019D01*
X144457100Y-121719019D02*
X144552338Y-121719019D01*
X156188580Y-110726457D02*
X156236200Y-110774076D01*
X156236200Y-110774076D02*
X156283819Y-110916933D01*
X156283819Y-110916933D02*
X156283819Y-111012171D01*
X156283819Y-111012171D02*
X156236200Y-111155028D01*
X156236200Y-111155028D02*
X156140961Y-111250266D01*
X156140961Y-111250266D02*
X156045723Y-111297885D01*
X156045723Y-111297885D02*
X155855247Y-111345504D01*
X155855247Y-111345504D02*
X155712390Y-111345504D01*
X155712390Y-111345504D02*
X155521914Y-111297885D01*
X155521914Y-111297885D02*
X155426676Y-111250266D01*
X155426676Y-111250266D02*
X155331438Y-111155028D01*
X155331438Y-111155028D02*
X155283819Y-111012171D01*
X155283819Y-111012171D02*
X155283819Y-110916933D01*
X155283819Y-110916933D02*
X155331438Y-110774076D01*
X155331438Y-110774076D02*
X155379057Y-110726457D01*
X155379057Y-110345504D02*
X155331438Y-110297885D01*
X155331438Y-110297885D02*
X155283819Y-110202647D01*
X155283819Y-110202647D02*
X155283819Y-109964552D01*
X155283819Y-109964552D02*
X155331438Y-109869314D01*
X155331438Y-109869314D02*
X155379057Y-109821695D01*
X155379057Y-109821695D02*
X155474295Y-109774076D01*
X155474295Y-109774076D02*
X155569533Y-109774076D01*
X155569533Y-109774076D02*
X155712390Y-109821695D01*
X155712390Y-109821695D02*
X156283819Y-110393123D01*
X156283819Y-110393123D02*
X156283819Y-109774076D01*
X155283819Y-109155028D02*
X155283819Y-109059790D01*
X155283819Y-109059790D02*
X155331438Y-108964552D01*
X155331438Y-108964552D02*
X155379057Y-108916933D01*
X155379057Y-108916933D02*
X155474295Y-108869314D01*
X155474295Y-108869314D02*
X155664771Y-108821695D01*
X155664771Y-108821695D02*
X155902866Y-108821695D01*
X155902866Y-108821695D02*
X156093342Y-108869314D01*
X156093342Y-108869314D02*
X156188580Y-108916933D01*
X156188580Y-108916933D02*
X156236200Y-108964552D01*
X156236200Y-108964552D02*
X156283819Y-109059790D01*
X156283819Y-109059790D02*
X156283819Y-109155028D01*
X156283819Y-109155028D02*
X156236200Y-109250266D01*
X156236200Y-109250266D02*
X156188580Y-109297885D01*
X156188580Y-109297885D02*
X156093342Y-109345504D01*
X156093342Y-109345504D02*
X155902866Y-109393123D01*
X155902866Y-109393123D02*
X155664771Y-109393123D01*
X155664771Y-109393123D02*
X155474295Y-109345504D01*
X155474295Y-109345504D02*
X155379057Y-109297885D01*
X155379057Y-109297885D02*
X155331438Y-109250266D01*
X155331438Y-109250266D02*
X155283819Y-109155028D01*
X126868062Y-110359580D02*
X126820443Y-110407200D01*
X126820443Y-110407200D02*
X126677586Y-110454819D01*
X126677586Y-110454819D02*
X126582348Y-110454819D01*
X126582348Y-110454819D02*
X126439491Y-110407200D01*
X126439491Y-110407200D02*
X126344253Y-110311961D01*
X126344253Y-110311961D02*
X126296634Y-110216723D01*
X126296634Y-110216723D02*
X126249015Y-110026247D01*
X126249015Y-110026247D02*
X126249015Y-109883390D01*
X126249015Y-109883390D02*
X126296634Y-109692914D01*
X126296634Y-109692914D02*
X126344253Y-109597676D01*
X126344253Y-109597676D02*
X126439491Y-109502438D01*
X126439491Y-109502438D02*
X126582348Y-109454819D01*
X126582348Y-109454819D02*
X126677586Y-109454819D01*
X126677586Y-109454819D02*
X126820443Y-109502438D01*
X126820443Y-109502438D02*
X126868062Y-109550057D01*
X127201396Y-109454819D02*
X127820443Y-109454819D01*
X127820443Y-109454819D02*
X127487110Y-109835771D01*
X127487110Y-109835771D02*
X127629967Y-109835771D01*
X127629967Y-109835771D02*
X127725205Y-109883390D01*
X127725205Y-109883390D02*
X127772824Y-109931009D01*
X127772824Y-109931009D02*
X127820443Y-110026247D01*
X127820443Y-110026247D02*
X127820443Y-110264342D01*
X127820443Y-110264342D02*
X127772824Y-110359580D01*
X127772824Y-110359580D02*
X127725205Y-110407200D01*
X127725205Y-110407200D02*
X127629967Y-110454819D01*
X127629967Y-110454819D02*
X127344253Y-110454819D01*
X127344253Y-110454819D02*
X127249015Y-110407200D01*
X127249015Y-110407200D02*
X127201396Y-110359580D01*
X150569705Y-120139619D02*
X150569705Y-119139619D01*
X150569705Y-119139619D02*
X150807800Y-119139619D01*
X150807800Y-119139619D02*
X150950657Y-119187238D01*
X150950657Y-119187238D02*
X151045895Y-119282476D01*
X151045895Y-119282476D02*
X151093514Y-119377714D01*
X151093514Y-119377714D02*
X151141133Y-119568190D01*
X151141133Y-119568190D02*
X151141133Y-119711047D01*
X151141133Y-119711047D02*
X151093514Y-119901523D01*
X151093514Y-119901523D02*
X151045895Y-119996761D01*
X151045895Y-119996761D02*
X150950657Y-120092000D01*
X150950657Y-120092000D02*
X150807800Y-120139619D01*
X150807800Y-120139619D02*
X150569705Y-120139619D01*
X152093514Y-120139619D02*
X151522086Y-120139619D01*
X151807800Y-120139619D02*
X151807800Y-119139619D01*
X151807800Y-119139619D02*
X151712562Y-119282476D01*
X151712562Y-119282476D02*
X151617324Y-119377714D01*
X151617324Y-119377714D02*
X151522086Y-119425333D01*
X129513105Y-133666419D02*
X129513105Y-132666419D01*
X129513105Y-132666419D02*
X129751200Y-132666419D01*
X129751200Y-132666419D02*
X129894057Y-132714038D01*
X129894057Y-132714038D02*
X129989295Y-132809276D01*
X129989295Y-132809276D02*
X130036914Y-132904514D01*
X130036914Y-132904514D02*
X130084533Y-133094990D01*
X130084533Y-133094990D02*
X130084533Y-133237847D01*
X130084533Y-133237847D02*
X130036914Y-133428323D01*
X130036914Y-133428323D02*
X129989295Y-133523561D01*
X129989295Y-133523561D02*
X129894057Y-133618800D01*
X129894057Y-133618800D02*
X129751200Y-133666419D01*
X129751200Y-133666419D02*
X129513105Y-133666419D01*
X130465486Y-132761657D02*
X130513105Y-132714038D01*
X130513105Y-132714038D02*
X130608343Y-132666419D01*
X130608343Y-132666419D02*
X130846438Y-132666419D01*
X130846438Y-132666419D02*
X130941676Y-132714038D01*
X130941676Y-132714038D02*
X130989295Y-132761657D01*
X130989295Y-132761657D02*
X131036914Y-132856895D01*
X131036914Y-132856895D02*
X131036914Y-132952133D01*
X131036914Y-132952133D02*
X130989295Y-133094990D01*
X130989295Y-133094990D02*
X130417867Y-133666419D01*
X130417867Y-133666419D02*
X131036914Y-133666419D01*
X143666380Y-100185457D02*
X143714000Y-100233076D01*
X143714000Y-100233076D02*
X143761619Y-100375933D01*
X143761619Y-100375933D02*
X143761619Y-100471171D01*
X143761619Y-100471171D02*
X143714000Y-100614028D01*
X143714000Y-100614028D02*
X143618761Y-100709266D01*
X143618761Y-100709266D02*
X143523523Y-100756885D01*
X143523523Y-100756885D02*
X143333047Y-100804504D01*
X143333047Y-100804504D02*
X143190190Y-100804504D01*
X143190190Y-100804504D02*
X142999714Y-100756885D01*
X142999714Y-100756885D02*
X142904476Y-100709266D01*
X142904476Y-100709266D02*
X142809238Y-100614028D01*
X142809238Y-100614028D02*
X142761619Y-100471171D01*
X142761619Y-100471171D02*
X142761619Y-100375933D01*
X142761619Y-100375933D02*
X142809238Y-100233076D01*
X142809238Y-100233076D02*
X142856857Y-100185457D01*
X142856857Y-99804504D02*
X142809238Y-99756885D01*
X142809238Y-99756885D02*
X142761619Y-99661647D01*
X142761619Y-99661647D02*
X142761619Y-99423552D01*
X142761619Y-99423552D02*
X142809238Y-99328314D01*
X142809238Y-99328314D02*
X142856857Y-99280695D01*
X142856857Y-99280695D02*
X142952095Y-99233076D01*
X142952095Y-99233076D02*
X143047333Y-99233076D01*
X143047333Y-99233076D02*
X143190190Y-99280695D01*
X143190190Y-99280695D02*
X143761619Y-99852123D01*
X143761619Y-99852123D02*
X143761619Y-99233076D01*
X142761619Y-98899742D02*
X142761619Y-98280695D01*
X142761619Y-98280695D02*
X143142571Y-98614028D01*
X143142571Y-98614028D02*
X143142571Y-98471171D01*
X143142571Y-98471171D02*
X143190190Y-98375933D01*
X143190190Y-98375933D02*
X143237809Y-98328314D01*
X143237809Y-98328314D02*
X143333047Y-98280695D01*
X143333047Y-98280695D02*
X143571142Y-98280695D01*
X143571142Y-98280695D02*
X143666380Y-98328314D01*
X143666380Y-98328314D02*
X143714000Y-98375933D01*
X143714000Y-98375933D02*
X143761619Y-98471171D01*
X143761619Y-98471171D02*
X143761619Y-98756885D01*
X143761619Y-98756885D02*
X143714000Y-98852123D01*
X143714000Y-98852123D02*
X143666380Y-98899742D01*
X151900057Y-97160839D02*
X151852438Y-97113220D01*
X151852438Y-97113220D02*
X151804819Y-97017982D01*
X151804819Y-97017982D02*
X151804819Y-96779887D01*
X151804819Y-96779887D02*
X151852438Y-96684649D01*
X151852438Y-96684649D02*
X151900057Y-96637030D01*
X151900057Y-96637030D02*
X151995295Y-96589411D01*
X151995295Y-96589411D02*
X152090533Y-96589411D01*
X152090533Y-96589411D02*
X152233390Y-96637030D01*
X152233390Y-96637030D02*
X152804819Y-97208458D01*
X152804819Y-97208458D02*
X152804819Y-96589411D01*
X151804819Y-96256077D02*
X151804819Y-95589411D01*
X151804819Y-95589411D02*
X152804819Y-96017982D01*
X152804819Y-95208458D02*
X152138152Y-95208458D01*
X152328628Y-95208458D02*
X152233390Y-95160839D01*
X152233390Y-95160839D02*
X152185771Y-95113220D01*
X152185771Y-95113220D02*
X152138152Y-95017982D01*
X152138152Y-95017982D02*
X152138152Y-94922744D01*
X144388095Y-94054819D02*
X144388095Y-94864342D01*
X144388095Y-94864342D02*
X144435714Y-94959580D01*
X144435714Y-94959580D02*
X144483333Y-95007200D01*
X144483333Y-95007200D02*
X144578571Y-95054819D01*
X144578571Y-95054819D02*
X144769047Y-95054819D01*
X144769047Y-95054819D02*
X144864285Y-95007200D01*
X144864285Y-95007200D02*
X144911904Y-94959580D01*
X144911904Y-94959580D02*
X144959523Y-94864342D01*
X144959523Y-94864342D02*
X144959523Y-94054819D01*
X145483333Y-95054819D02*
X145673809Y-95054819D01*
X145673809Y-95054819D02*
X145769047Y-95007200D01*
X145769047Y-95007200D02*
X145816666Y-94959580D01*
X145816666Y-94959580D02*
X145911904Y-94816723D01*
X145911904Y-94816723D02*
X145959523Y-94626247D01*
X145959523Y-94626247D02*
X145959523Y-94245295D01*
X145959523Y-94245295D02*
X145911904Y-94150057D01*
X145911904Y-94150057D02*
X145864285Y-94102438D01*
X145864285Y-94102438D02*
X145769047Y-94054819D01*
X145769047Y-94054819D02*
X145578571Y-94054819D01*
X145578571Y-94054819D02*
X145483333Y-94102438D01*
X145483333Y-94102438D02*
X145435714Y-94150057D01*
X145435714Y-94150057D02*
X145388095Y-94245295D01*
X145388095Y-94245295D02*
X145388095Y-94483390D01*
X145388095Y-94483390D02*
X145435714Y-94578628D01*
X145435714Y-94578628D02*
X145483333Y-94626247D01*
X145483333Y-94626247D02*
X145578571Y-94673866D01*
X145578571Y-94673866D02*
X145769047Y-94673866D01*
X145769047Y-94673866D02*
X145864285Y-94626247D01*
X145864285Y-94626247D02*
X145911904Y-94578628D01*
X145911904Y-94578628D02*
X145959523Y-94483390D01*
X115496104Y-85884657D02*
X115543723Y-85837038D01*
X115543723Y-85837038D02*
X115638961Y-85789419D01*
X115638961Y-85789419D02*
X115877056Y-85789419D01*
X115877056Y-85789419D02*
X115972294Y-85837038D01*
X115972294Y-85837038D02*
X116019913Y-85884657D01*
X116019913Y-85884657D02*
X116067532Y-85979895D01*
X116067532Y-85979895D02*
X116067532Y-86075133D01*
X116067532Y-86075133D02*
X116019913Y-86217990D01*
X116019913Y-86217990D02*
X115448485Y-86789419D01*
X115448485Y-86789419D02*
X116067532Y-86789419D01*
X116400866Y-85789419D02*
X117019913Y-85789419D01*
X117019913Y-85789419D02*
X116686580Y-86170371D01*
X116686580Y-86170371D02*
X116829437Y-86170371D01*
X116829437Y-86170371D02*
X116924675Y-86217990D01*
X116924675Y-86217990D02*
X116972294Y-86265609D01*
X116972294Y-86265609D02*
X117019913Y-86360847D01*
X117019913Y-86360847D02*
X117019913Y-86598942D01*
X117019913Y-86598942D02*
X116972294Y-86694180D01*
X116972294Y-86694180D02*
X116924675Y-86741800D01*
X116924675Y-86741800D02*
X116829437Y-86789419D01*
X116829437Y-86789419D02*
X116543723Y-86789419D01*
X116543723Y-86789419D02*
X116448485Y-86741800D01*
X116448485Y-86741800D02*
X116400866Y-86694180D01*
X117924675Y-85789419D02*
X117448485Y-85789419D01*
X117448485Y-85789419D02*
X117400866Y-86265609D01*
X117400866Y-86265609D02*
X117448485Y-86217990D01*
X117448485Y-86217990D02*
X117543723Y-86170371D01*
X117543723Y-86170371D02*
X117781818Y-86170371D01*
X117781818Y-86170371D02*
X117877056Y-86217990D01*
X117877056Y-86217990D02*
X117924675Y-86265609D01*
X117924675Y-86265609D02*
X117972294Y-86360847D01*
X117972294Y-86360847D02*
X117972294Y-86598942D01*
X117972294Y-86598942D02*
X117924675Y-86694180D01*
X117924675Y-86694180D02*
X117877056Y-86741800D01*
X117877056Y-86741800D02*
X117781818Y-86789419D01*
X117781818Y-86789419D02*
X117543723Y-86789419D01*
X117543723Y-86789419D02*
X117448485Y-86741800D01*
X117448485Y-86741800D02*
X117400866Y-86694180D01*
X118591342Y-85789419D02*
X118686580Y-85789419D01*
X118686580Y-85789419D02*
X118781818Y-85837038D01*
X118781818Y-85837038D02*
X118829437Y-85884657D01*
X118829437Y-85884657D02*
X118877056Y-85979895D01*
X118877056Y-85979895D02*
X118924675Y-86170371D01*
X118924675Y-86170371D02*
X118924675Y-86408466D01*
X118924675Y-86408466D02*
X118877056Y-86598942D01*
X118877056Y-86598942D02*
X118829437Y-86694180D01*
X118829437Y-86694180D02*
X118781818Y-86741800D01*
X118781818Y-86741800D02*
X118686580Y-86789419D01*
X118686580Y-86789419D02*
X118591342Y-86789419D01*
X118591342Y-86789419D02*
X118496104Y-86741800D01*
X118496104Y-86741800D02*
X118448485Y-86694180D01*
X118448485Y-86694180D02*
X118400866Y-86598942D01*
X118400866Y-86598942D02*
X118353247Y-86408466D01*
X118353247Y-86408466D02*
X118353247Y-86170371D01*
X118353247Y-86170371D02*
X118400866Y-85979895D01*
X118400866Y-85979895D02*
X118448485Y-85884657D01*
X118448485Y-85884657D02*
X118496104Y-85837038D01*
X118496104Y-85837038D02*
X118591342Y-85789419D01*
X120448485Y-86265609D02*
X120591342Y-86313228D01*
X120591342Y-86313228D02*
X120638961Y-86360847D01*
X120638961Y-86360847D02*
X120686580Y-86456085D01*
X120686580Y-86456085D02*
X120686580Y-86598942D01*
X120686580Y-86598942D02*
X120638961Y-86694180D01*
X120638961Y-86694180D02*
X120591342Y-86741800D01*
X120591342Y-86741800D02*
X120496104Y-86789419D01*
X120496104Y-86789419D02*
X120115152Y-86789419D01*
X120115152Y-86789419D02*
X120115152Y-85789419D01*
X120115152Y-85789419D02*
X120448485Y-85789419D01*
X120448485Y-85789419D02*
X120543723Y-85837038D01*
X120543723Y-85837038D02*
X120591342Y-85884657D01*
X120591342Y-85884657D02*
X120638961Y-85979895D01*
X120638961Y-85979895D02*
X120638961Y-86075133D01*
X120638961Y-86075133D02*
X120591342Y-86170371D01*
X120591342Y-86170371D02*
X120543723Y-86217990D01*
X120543723Y-86217990D02*
X120448485Y-86265609D01*
X120448485Y-86265609D02*
X120115152Y-86265609D01*
X121305628Y-85789419D02*
X121496104Y-85789419D01*
X121496104Y-85789419D02*
X121591342Y-85837038D01*
X121591342Y-85837038D02*
X121686580Y-85932276D01*
X121686580Y-85932276D02*
X121734199Y-86122752D01*
X121734199Y-86122752D02*
X121734199Y-86456085D01*
X121734199Y-86456085D02*
X121686580Y-86646561D01*
X121686580Y-86646561D02*
X121591342Y-86741800D01*
X121591342Y-86741800D02*
X121496104Y-86789419D01*
X121496104Y-86789419D02*
X121305628Y-86789419D01*
X121305628Y-86789419D02*
X121210390Y-86741800D01*
X121210390Y-86741800D02*
X121115152Y-86646561D01*
X121115152Y-86646561D02*
X121067533Y-86456085D01*
X121067533Y-86456085D02*
X121067533Y-86122752D01*
X121067533Y-86122752D02*
X121115152Y-85932276D01*
X121115152Y-85932276D02*
X121210390Y-85837038D01*
X121210390Y-85837038D02*
X121305628Y-85789419D01*
X122353247Y-85789419D02*
X122543723Y-85789419D01*
X122543723Y-85789419D02*
X122638961Y-85837038D01*
X122638961Y-85837038D02*
X122734199Y-85932276D01*
X122734199Y-85932276D02*
X122781818Y-86122752D01*
X122781818Y-86122752D02*
X122781818Y-86456085D01*
X122781818Y-86456085D02*
X122734199Y-86646561D01*
X122734199Y-86646561D02*
X122638961Y-86741800D01*
X122638961Y-86741800D02*
X122543723Y-86789419D01*
X122543723Y-86789419D02*
X122353247Y-86789419D01*
X122353247Y-86789419D02*
X122258009Y-86741800D01*
X122258009Y-86741800D02*
X122162771Y-86646561D01*
X122162771Y-86646561D02*
X122115152Y-86456085D01*
X122115152Y-86456085D02*
X122115152Y-86122752D01*
X122115152Y-86122752D02*
X122162771Y-85932276D01*
X122162771Y-85932276D02*
X122258009Y-85837038D01*
X122258009Y-85837038D02*
X122353247Y-85789419D01*
X123067533Y-85789419D02*
X123638961Y-85789419D01*
X123353247Y-86789419D02*
X123353247Y-85789419D01*
X124686581Y-86741800D02*
X124829438Y-86789419D01*
X124829438Y-86789419D02*
X125067533Y-86789419D01*
X125067533Y-86789419D02*
X125162771Y-86741800D01*
X125162771Y-86741800D02*
X125210390Y-86694180D01*
X125210390Y-86694180D02*
X125258009Y-86598942D01*
X125258009Y-86598942D02*
X125258009Y-86503704D01*
X125258009Y-86503704D02*
X125210390Y-86408466D01*
X125210390Y-86408466D02*
X125162771Y-86360847D01*
X125162771Y-86360847D02*
X125067533Y-86313228D01*
X125067533Y-86313228D02*
X124877057Y-86265609D01*
X124877057Y-86265609D02*
X124781819Y-86217990D01*
X124781819Y-86217990D02*
X124734200Y-86170371D01*
X124734200Y-86170371D02*
X124686581Y-86075133D01*
X124686581Y-86075133D02*
X124686581Y-85979895D01*
X124686581Y-85979895D02*
X124734200Y-85884657D01*
X124734200Y-85884657D02*
X124781819Y-85837038D01*
X124781819Y-85837038D02*
X124877057Y-85789419D01*
X124877057Y-85789419D02*
X125115152Y-85789419D01*
X125115152Y-85789419D02*
X125258009Y-85837038D01*
X125686581Y-86265609D02*
X126019914Y-86265609D01*
X126162771Y-86789419D02*
X125686581Y-86789419D01*
X125686581Y-86789419D02*
X125686581Y-85789419D01*
X125686581Y-85789419D02*
X126162771Y-85789419D01*
X127067533Y-86789419D02*
X126591343Y-86789419D01*
X126591343Y-86789419D02*
X126591343Y-85789419D01*
X153450057Y-97160839D02*
X153402438Y-97113220D01*
X153402438Y-97113220D02*
X153354819Y-97017982D01*
X153354819Y-97017982D02*
X153354819Y-96779887D01*
X153354819Y-96779887D02*
X153402438Y-96684649D01*
X153402438Y-96684649D02*
X153450057Y-96637030D01*
X153450057Y-96637030D02*
X153545295Y-96589411D01*
X153545295Y-96589411D02*
X153640533Y-96589411D01*
X153640533Y-96589411D02*
X153783390Y-96637030D01*
X153783390Y-96637030D02*
X154354819Y-97208458D01*
X154354819Y-97208458D02*
X154354819Y-96589411D01*
X153354819Y-96256077D02*
X153354819Y-95589411D01*
X153354819Y-95589411D02*
X154354819Y-96017982D01*
X154354819Y-95208458D02*
X153688152Y-95208458D01*
X153878628Y-95208458D02*
X153783390Y-95160839D01*
X153783390Y-95160839D02*
X153735771Y-95113220D01*
X153735771Y-95113220D02*
X153688152Y-95017982D01*
X153688152Y-95017982D02*
X153688152Y-94922744D01*
X153814542Y-117980619D02*
X153481209Y-117504428D01*
X153243114Y-117980619D02*
X153243114Y-116980619D01*
X153243114Y-116980619D02*
X153624066Y-116980619D01*
X153624066Y-116980619D02*
X153719304Y-117028238D01*
X153719304Y-117028238D02*
X153766923Y-117075857D01*
X153766923Y-117075857D02*
X153814542Y-117171095D01*
X153814542Y-117171095D02*
X153814542Y-117313952D01*
X153814542Y-117313952D02*
X153766923Y-117409190D01*
X153766923Y-117409190D02*
X153719304Y-117456809D01*
X153719304Y-117456809D02*
X153624066Y-117504428D01*
X153624066Y-117504428D02*
X153243114Y-117504428D01*
X154766923Y-117980619D02*
X154195495Y-117980619D01*
X154481209Y-117980619D02*
X154481209Y-116980619D01*
X154481209Y-116980619D02*
X154385971Y-117123476D01*
X154385971Y-117123476D02*
X154290733Y-117218714D01*
X154290733Y-117218714D02*
X154195495Y-117266333D01*
X155671685Y-116980619D02*
X155195495Y-116980619D01*
X155195495Y-116980619D02*
X155147876Y-117456809D01*
X155147876Y-117456809D02*
X155195495Y-117409190D01*
X155195495Y-117409190D02*
X155290733Y-117361571D01*
X155290733Y-117361571D02*
X155528828Y-117361571D01*
X155528828Y-117361571D02*
X155624066Y-117409190D01*
X155624066Y-117409190D02*
X155671685Y-117456809D01*
X155671685Y-117456809D02*
X155719304Y-117552047D01*
X155719304Y-117552047D02*
X155719304Y-117790142D01*
X155719304Y-117790142D02*
X155671685Y-117885380D01*
X155671685Y-117885380D02*
X155624066Y-117933000D01*
X155624066Y-117933000D02*
X155528828Y-117980619D01*
X155528828Y-117980619D02*
X155290733Y-117980619D01*
X155290733Y-117980619D02*
X155195495Y-117933000D01*
X155195495Y-117933000D02*
X155147876Y-117885380D01*
X155547219Y-124045028D02*
X155547219Y-124616456D01*
X155547219Y-124330742D02*
X154547219Y-124330742D01*
X154547219Y-124330742D02*
X154690076Y-124425980D01*
X154690076Y-124425980D02*
X154785314Y-124521218D01*
X154785314Y-124521218D02*
X154832933Y-124616456D01*
X154547219Y-123425980D02*
X154547219Y-123330742D01*
X154547219Y-123330742D02*
X154594838Y-123235504D01*
X154594838Y-123235504D02*
X154642457Y-123187885D01*
X154642457Y-123187885D02*
X154737695Y-123140266D01*
X154737695Y-123140266D02*
X154928171Y-123092647D01*
X154928171Y-123092647D02*
X155166266Y-123092647D01*
X155166266Y-123092647D02*
X155356742Y-123140266D01*
X155356742Y-123140266D02*
X155451980Y-123187885D01*
X155451980Y-123187885D02*
X155499600Y-123235504D01*
X155499600Y-123235504D02*
X155547219Y-123330742D01*
X155547219Y-123330742D02*
X155547219Y-123425980D01*
X155547219Y-123425980D02*
X155499600Y-123521218D01*
X155499600Y-123521218D02*
X155451980Y-123568837D01*
X155451980Y-123568837D02*
X155356742Y-123616456D01*
X155356742Y-123616456D02*
X155166266Y-123664075D01*
X155166266Y-123664075D02*
X154928171Y-123664075D01*
X154928171Y-123664075D02*
X154737695Y-123616456D01*
X154737695Y-123616456D02*
X154642457Y-123568837D01*
X154642457Y-123568837D02*
X154594838Y-123521218D01*
X154594838Y-123521218D02*
X154547219Y-123425980D01*
X154547219Y-122473599D02*
X154547219Y-122378361D01*
X154547219Y-122378361D02*
X154594838Y-122283123D01*
X154594838Y-122283123D02*
X154642457Y-122235504D01*
X154642457Y-122235504D02*
X154737695Y-122187885D01*
X154737695Y-122187885D02*
X154928171Y-122140266D01*
X154928171Y-122140266D02*
X155166266Y-122140266D01*
X155166266Y-122140266D02*
X155356742Y-122187885D01*
X155356742Y-122187885D02*
X155451980Y-122235504D01*
X155451980Y-122235504D02*
X155499600Y-122283123D01*
X155499600Y-122283123D02*
X155547219Y-122378361D01*
X155547219Y-122378361D02*
X155547219Y-122473599D01*
X155547219Y-122473599D02*
X155499600Y-122568837D01*
X155499600Y-122568837D02*
X155451980Y-122616456D01*
X155451980Y-122616456D02*
X155356742Y-122664075D01*
X155356742Y-122664075D02*
X155166266Y-122711694D01*
X155166266Y-122711694D02*
X154928171Y-122711694D01*
X154928171Y-122711694D02*
X154737695Y-122664075D01*
X154737695Y-122664075D02*
X154642457Y-122616456D01*
X154642457Y-122616456D02*
X154594838Y-122568837D01*
X154594838Y-122568837D02*
X154547219Y-122473599D01*
X155547219Y-121711694D02*
X154547219Y-121711694D01*
X155166266Y-121616456D02*
X155547219Y-121330742D01*
X154880552Y-121330742D02*
X155261504Y-121711694D01*
X134516480Y-131021057D02*
X134564100Y-131068676D01*
X134564100Y-131068676D02*
X134611719Y-131211533D01*
X134611719Y-131211533D02*
X134611719Y-131306771D01*
X134611719Y-131306771D02*
X134564100Y-131449628D01*
X134564100Y-131449628D02*
X134468861Y-131544866D01*
X134468861Y-131544866D02*
X134373623Y-131592485D01*
X134373623Y-131592485D02*
X134183147Y-131640104D01*
X134183147Y-131640104D02*
X134040290Y-131640104D01*
X134040290Y-131640104D02*
X133849814Y-131592485D01*
X133849814Y-131592485D02*
X133754576Y-131544866D01*
X133754576Y-131544866D02*
X133659338Y-131449628D01*
X133659338Y-131449628D02*
X133611719Y-131306771D01*
X133611719Y-131306771D02*
X133611719Y-131211533D01*
X133611719Y-131211533D02*
X133659338Y-131068676D01*
X133659338Y-131068676D02*
X133706957Y-131021057D01*
X133706957Y-130640104D02*
X133659338Y-130592485D01*
X133659338Y-130592485D02*
X133611719Y-130497247D01*
X133611719Y-130497247D02*
X133611719Y-130259152D01*
X133611719Y-130259152D02*
X133659338Y-130163914D01*
X133659338Y-130163914D02*
X133706957Y-130116295D01*
X133706957Y-130116295D02*
X133802195Y-130068676D01*
X133802195Y-130068676D02*
X133897433Y-130068676D01*
X133897433Y-130068676D02*
X134040290Y-130116295D01*
X134040290Y-130116295D02*
X134611719Y-130687723D01*
X134611719Y-130687723D02*
X134611719Y-130068676D01*
X134611719Y-129592485D02*
X134611719Y-129402009D01*
X134611719Y-129402009D02*
X134564100Y-129306771D01*
X134564100Y-129306771D02*
X134516480Y-129259152D01*
X134516480Y-129259152D02*
X134373623Y-129163914D01*
X134373623Y-129163914D02*
X134183147Y-129116295D01*
X134183147Y-129116295D02*
X133802195Y-129116295D01*
X133802195Y-129116295D02*
X133706957Y-129163914D01*
X133706957Y-129163914D02*
X133659338Y-129211533D01*
X133659338Y-129211533D02*
X133611719Y-129306771D01*
X133611719Y-129306771D02*
X133611719Y-129497247D01*
X133611719Y-129497247D02*
X133659338Y-129592485D01*
X133659338Y-129592485D02*
X133706957Y-129640104D01*
X133706957Y-129640104D02*
X133802195Y-129687723D01*
X133802195Y-129687723D02*
X134040290Y-129687723D01*
X134040290Y-129687723D02*
X134135528Y-129640104D01*
X134135528Y-129640104D02*
X134183147Y-129592485D01*
X134183147Y-129592485D02*
X134230766Y-129497247D01*
X134230766Y-129497247D02*
X134230766Y-129306771D01*
X134230766Y-129306771D02*
X134183147Y-129211533D01*
X134183147Y-129211533D02*
X134135528Y-129163914D01*
X134135528Y-129163914D02*
X134040290Y-129116295D01*
X158996142Y-117783780D02*
X158948523Y-117831400D01*
X158948523Y-117831400D02*
X158805666Y-117879019D01*
X158805666Y-117879019D02*
X158710428Y-117879019D01*
X158710428Y-117879019D02*
X158567571Y-117831400D01*
X158567571Y-117831400D02*
X158472333Y-117736161D01*
X158472333Y-117736161D02*
X158424714Y-117640923D01*
X158424714Y-117640923D02*
X158377095Y-117450447D01*
X158377095Y-117450447D02*
X158377095Y-117307590D01*
X158377095Y-117307590D02*
X158424714Y-117117114D01*
X158424714Y-117117114D02*
X158472333Y-117021876D01*
X158472333Y-117021876D02*
X158567571Y-116926638D01*
X158567571Y-116926638D02*
X158710428Y-116879019D01*
X158710428Y-116879019D02*
X158805666Y-116879019D01*
X158805666Y-116879019D02*
X158948523Y-116926638D01*
X158948523Y-116926638D02*
X158996142Y-116974257D01*
X159948523Y-117879019D02*
X159377095Y-117879019D01*
X159662809Y-117879019D02*
X159662809Y-116879019D01*
X159662809Y-116879019D02*
X159567571Y-117021876D01*
X159567571Y-117021876D02*
X159472333Y-117117114D01*
X159472333Y-117117114D02*
X159377095Y-117164733D01*
X160281857Y-116879019D02*
X160900904Y-116879019D01*
X160900904Y-116879019D02*
X160567571Y-117259971D01*
X160567571Y-117259971D02*
X160710428Y-117259971D01*
X160710428Y-117259971D02*
X160805666Y-117307590D01*
X160805666Y-117307590D02*
X160853285Y-117355209D01*
X160853285Y-117355209D02*
X160900904Y-117450447D01*
X160900904Y-117450447D02*
X160900904Y-117688542D01*
X160900904Y-117688542D02*
X160853285Y-117783780D01*
X160853285Y-117783780D02*
X160805666Y-117831400D01*
X160805666Y-117831400D02*
X160710428Y-117879019D01*
X160710428Y-117879019D02*
X160424714Y-117879019D01*
X160424714Y-117879019D02*
X160329476Y-117831400D01*
X160329476Y-117831400D02*
X160281857Y-117783780D01*
X156929295Y-120311152D02*
X156929295Y-120977819D01*
X156691200Y-119930200D02*
X156453105Y-120644485D01*
X156453105Y-120644485D02*
X157072152Y-120644485D01*
X157453105Y-120882580D02*
X157500724Y-120930200D01*
X157500724Y-120930200D02*
X157453105Y-120977819D01*
X157453105Y-120977819D02*
X157405486Y-120930200D01*
X157405486Y-120930200D02*
X157453105Y-120882580D01*
X157453105Y-120882580D02*
X157453105Y-120977819D01*
X157834057Y-119977819D02*
X158500723Y-119977819D01*
X158500723Y-119977819D02*
X158072152Y-120977819D01*
X159310247Y-120311152D02*
X159310247Y-120977819D01*
X158881676Y-120311152D02*
X158881676Y-120834961D01*
X158881676Y-120834961D02*
X158929295Y-120930200D01*
X158929295Y-120930200D02*
X159024533Y-120977819D01*
X159024533Y-120977819D02*
X159167390Y-120977819D01*
X159167390Y-120977819D02*
X159262628Y-120930200D01*
X159262628Y-120930200D02*
X159310247Y-120882580D01*
X159643581Y-120311152D02*
X160024533Y-120311152D01*
X159786438Y-120977819D02*
X159786438Y-120120676D01*
X159786438Y-120120676D02*
X159834057Y-120025438D01*
X159834057Y-120025438D02*
X159929295Y-119977819D01*
X159929295Y-119977819D02*
X160024533Y-119977819D01*
X156188580Y-99194857D02*
X156236200Y-99242476D01*
X156236200Y-99242476D02*
X156283819Y-99385333D01*
X156283819Y-99385333D02*
X156283819Y-99480571D01*
X156283819Y-99480571D02*
X156236200Y-99623428D01*
X156236200Y-99623428D02*
X156140961Y-99718666D01*
X156140961Y-99718666D02*
X156045723Y-99766285D01*
X156045723Y-99766285D02*
X155855247Y-99813904D01*
X155855247Y-99813904D02*
X155712390Y-99813904D01*
X155712390Y-99813904D02*
X155521914Y-99766285D01*
X155521914Y-99766285D02*
X155426676Y-99718666D01*
X155426676Y-99718666D02*
X155331438Y-99623428D01*
X155331438Y-99623428D02*
X155283819Y-99480571D01*
X155283819Y-99480571D02*
X155283819Y-99385333D01*
X155283819Y-99385333D02*
X155331438Y-99242476D01*
X155331438Y-99242476D02*
X155379057Y-99194857D01*
X156283819Y-98242476D02*
X156283819Y-98813904D01*
X156283819Y-98528190D02*
X155283819Y-98528190D01*
X155283819Y-98528190D02*
X155426676Y-98623428D01*
X155426676Y-98623428D02*
X155521914Y-98718666D01*
X155521914Y-98718666D02*
X155569533Y-98813904D01*
X155712390Y-97671047D02*
X155664771Y-97766285D01*
X155664771Y-97766285D02*
X155617152Y-97813904D01*
X155617152Y-97813904D02*
X155521914Y-97861523D01*
X155521914Y-97861523D02*
X155474295Y-97861523D01*
X155474295Y-97861523D02*
X155379057Y-97813904D01*
X155379057Y-97813904D02*
X155331438Y-97766285D01*
X155331438Y-97766285D02*
X155283819Y-97671047D01*
X155283819Y-97671047D02*
X155283819Y-97480571D01*
X155283819Y-97480571D02*
X155331438Y-97385333D01*
X155331438Y-97385333D02*
X155379057Y-97337714D01*
X155379057Y-97337714D02*
X155474295Y-97290095D01*
X155474295Y-97290095D02*
X155521914Y-97290095D01*
X155521914Y-97290095D02*
X155617152Y-97337714D01*
X155617152Y-97337714D02*
X155664771Y-97385333D01*
X155664771Y-97385333D02*
X155712390Y-97480571D01*
X155712390Y-97480571D02*
X155712390Y-97671047D01*
X155712390Y-97671047D02*
X155760009Y-97766285D01*
X155760009Y-97766285D02*
X155807628Y-97813904D01*
X155807628Y-97813904D02*
X155902866Y-97861523D01*
X155902866Y-97861523D02*
X156093342Y-97861523D01*
X156093342Y-97861523D02*
X156188580Y-97813904D01*
X156188580Y-97813904D02*
X156236200Y-97766285D01*
X156236200Y-97766285D02*
X156283819Y-97671047D01*
X156283819Y-97671047D02*
X156283819Y-97480571D01*
X156283819Y-97480571D02*
X156236200Y-97385333D01*
X156236200Y-97385333D02*
X156188580Y-97337714D01*
X156188580Y-97337714D02*
X156093342Y-97290095D01*
X156093342Y-97290095D02*
X155902866Y-97290095D01*
X155902866Y-97290095D02*
X155807628Y-97337714D01*
X155807628Y-97337714D02*
X155760009Y-97385333D01*
X155760009Y-97385333D02*
X155712390Y-97480571D01*
X126998333Y-90265180D02*
X126950714Y-90312800D01*
X126950714Y-90312800D02*
X126807857Y-90360419D01*
X126807857Y-90360419D02*
X126712619Y-90360419D01*
X126712619Y-90360419D02*
X126569762Y-90312800D01*
X126569762Y-90312800D02*
X126474524Y-90217561D01*
X126474524Y-90217561D02*
X126426905Y-90122323D01*
X126426905Y-90122323D02*
X126379286Y-89931847D01*
X126379286Y-89931847D02*
X126379286Y-89788990D01*
X126379286Y-89788990D02*
X126426905Y-89598514D01*
X126426905Y-89598514D02*
X126474524Y-89503276D01*
X126474524Y-89503276D02*
X126569762Y-89408038D01*
X126569762Y-89408038D02*
X126712619Y-89360419D01*
X126712619Y-89360419D02*
X126807857Y-89360419D01*
X126807857Y-89360419D02*
X126950714Y-89408038D01*
X126950714Y-89408038D02*
X126998333Y-89455657D01*
X127855476Y-89693752D02*
X127855476Y-90360419D01*
X127617381Y-89312800D02*
X127379286Y-90027085D01*
X127379286Y-90027085D02*
X127998333Y-90027085D01*
X155300562Y-107100019D02*
X155919609Y-107100019D01*
X155919609Y-107100019D02*
X155586276Y-107480971D01*
X155586276Y-107480971D02*
X155729133Y-107480971D01*
X155729133Y-107480971D02*
X155824371Y-107528590D01*
X155824371Y-107528590D02*
X155871990Y-107576209D01*
X155871990Y-107576209D02*
X155919609Y-107671447D01*
X155919609Y-107671447D02*
X155919609Y-107909542D01*
X155919609Y-107909542D02*
X155871990Y-108004780D01*
X155871990Y-108004780D02*
X155824371Y-108052400D01*
X155824371Y-108052400D02*
X155729133Y-108100019D01*
X155729133Y-108100019D02*
X155443419Y-108100019D01*
X155443419Y-108100019D02*
X155348181Y-108052400D01*
X155348181Y-108052400D02*
X155300562Y-108004780D01*
X156776752Y-107433352D02*
X156776752Y-108100019D01*
X156538657Y-107052400D02*
X156300562Y-107766685D01*
X156300562Y-107766685D02*
X156919609Y-107766685D01*
X157491038Y-107100019D02*
X157586276Y-107100019D01*
X157586276Y-107100019D02*
X157681514Y-107147638D01*
X157681514Y-107147638D02*
X157729133Y-107195257D01*
X157729133Y-107195257D02*
X157776752Y-107290495D01*
X157776752Y-107290495D02*
X157824371Y-107480971D01*
X157824371Y-107480971D02*
X157824371Y-107719066D01*
X157824371Y-107719066D02*
X157776752Y-107909542D01*
X157776752Y-107909542D02*
X157729133Y-108004780D01*
X157729133Y-108004780D02*
X157681514Y-108052400D01*
X157681514Y-108052400D02*
X157586276Y-108100019D01*
X157586276Y-108100019D02*
X157491038Y-108100019D01*
X157491038Y-108100019D02*
X157395800Y-108052400D01*
X157395800Y-108052400D02*
X157348181Y-108004780D01*
X157348181Y-108004780D02*
X157300562Y-107909542D01*
X157300562Y-107909542D02*
X157252943Y-107719066D01*
X157252943Y-107719066D02*
X157252943Y-107480971D01*
X157252943Y-107480971D02*
X157300562Y-107290495D01*
X157300562Y-107290495D02*
X157348181Y-107195257D01*
X157348181Y-107195257D02*
X157395800Y-107147638D01*
X157395800Y-107147638D02*
X157491038Y-107100019D01*
X158252943Y-108100019D02*
X158252943Y-107433352D01*
X158252943Y-107623828D02*
X158300562Y-107528590D01*
X158300562Y-107528590D02*
X158348181Y-107480971D01*
X158348181Y-107480971D02*
X158443419Y-107433352D01*
X158443419Y-107433352D02*
X158538657Y-107433352D01*
X146158105Y-99556219D02*
X146158105Y-100365742D01*
X146158105Y-100365742D02*
X146205724Y-100460980D01*
X146205724Y-100460980D02*
X146253343Y-100508600D01*
X146253343Y-100508600D02*
X146348581Y-100556219D01*
X146348581Y-100556219D02*
X146539057Y-100556219D01*
X146539057Y-100556219D02*
X146634295Y-100508600D01*
X146634295Y-100508600D02*
X146681914Y-100460980D01*
X146681914Y-100460980D02*
X146729533Y-100365742D01*
X146729533Y-100365742D02*
X146729533Y-99556219D01*
X147729533Y-100556219D02*
X147158105Y-100556219D01*
X147443819Y-100556219D02*
X147443819Y-99556219D01*
X147443819Y-99556219D02*
X147348581Y-99699076D01*
X147348581Y-99699076D02*
X147253343Y-99794314D01*
X147253343Y-99794314D02*
X147158105Y-99841933D01*
X148348581Y-99556219D02*
X148443819Y-99556219D01*
X148443819Y-99556219D02*
X148539057Y-99603838D01*
X148539057Y-99603838D02*
X148586676Y-99651457D01*
X148586676Y-99651457D02*
X148634295Y-99746695D01*
X148634295Y-99746695D02*
X148681914Y-99937171D01*
X148681914Y-99937171D02*
X148681914Y-100175266D01*
X148681914Y-100175266D02*
X148634295Y-100365742D01*
X148634295Y-100365742D02*
X148586676Y-100460980D01*
X148586676Y-100460980D02*
X148539057Y-100508600D01*
X148539057Y-100508600D02*
X148443819Y-100556219D01*
X148443819Y-100556219D02*
X148348581Y-100556219D01*
X148348581Y-100556219D02*
X148253343Y-100508600D01*
X148253343Y-100508600D02*
X148205724Y-100460980D01*
X148205724Y-100460980D02*
X148158105Y-100365742D01*
X148158105Y-100365742D02*
X148110486Y-100175266D01*
X148110486Y-100175266D02*
X148110486Y-99937171D01*
X148110486Y-99937171D02*
X148158105Y-99746695D01*
X148158105Y-99746695D02*
X148205724Y-99651457D01*
X148205724Y-99651457D02*
X148253343Y-99603838D01*
X148253343Y-99603838D02*
X148348581Y-99556219D01*
X126904909Y-100209580D02*
X126857290Y-100257200D01*
X126857290Y-100257200D02*
X126714433Y-100304819D01*
X126714433Y-100304819D02*
X126619195Y-100304819D01*
X126619195Y-100304819D02*
X126476338Y-100257200D01*
X126476338Y-100257200D02*
X126381100Y-100161961D01*
X126381100Y-100161961D02*
X126333481Y-100066723D01*
X126333481Y-100066723D02*
X126285862Y-99876247D01*
X126285862Y-99876247D02*
X126285862Y-99733390D01*
X126285862Y-99733390D02*
X126333481Y-99542914D01*
X126333481Y-99542914D02*
X126381100Y-99447676D01*
X126381100Y-99447676D02*
X126476338Y-99352438D01*
X126476338Y-99352438D02*
X126619195Y-99304819D01*
X126619195Y-99304819D02*
X126714433Y-99304819D01*
X126714433Y-99304819D02*
X126857290Y-99352438D01*
X126857290Y-99352438D02*
X126904909Y-99400057D01*
X127809671Y-99304819D02*
X127333481Y-99304819D01*
X127333481Y-99304819D02*
X127285862Y-99781009D01*
X127285862Y-99781009D02*
X127333481Y-99733390D01*
X127333481Y-99733390D02*
X127428719Y-99685771D01*
X127428719Y-99685771D02*
X127666814Y-99685771D01*
X127666814Y-99685771D02*
X127762052Y-99733390D01*
X127762052Y-99733390D02*
X127809671Y-99781009D01*
X127809671Y-99781009D02*
X127857290Y-99876247D01*
X127857290Y-99876247D02*
X127857290Y-100114342D01*
X127857290Y-100114342D02*
X127809671Y-100209580D01*
X127809671Y-100209580D02*
X127762052Y-100257200D01*
X127762052Y-100257200D02*
X127666814Y-100304819D01*
X127666814Y-100304819D02*
X127428719Y-100304819D01*
X127428719Y-100304819D02*
X127333481Y-100257200D01*
X127333481Y-100257200D02*
X127285862Y-100209580D01*
X130438718Y-100209580D02*
X130391099Y-100257200D01*
X130391099Y-100257200D02*
X130248242Y-100304819D01*
X130248242Y-100304819D02*
X130153004Y-100304819D01*
X130153004Y-100304819D02*
X130010147Y-100257200D01*
X130010147Y-100257200D02*
X129914909Y-100161961D01*
X129914909Y-100161961D02*
X129867290Y-100066723D01*
X129867290Y-100066723D02*
X129819671Y-99876247D01*
X129819671Y-99876247D02*
X129819671Y-99733390D01*
X129819671Y-99733390D02*
X129867290Y-99542914D01*
X129867290Y-99542914D02*
X129914909Y-99447676D01*
X129914909Y-99447676D02*
X130010147Y-99352438D01*
X130010147Y-99352438D02*
X130153004Y-99304819D01*
X130153004Y-99304819D02*
X130248242Y-99304819D01*
X130248242Y-99304819D02*
X130391099Y-99352438D01*
X130391099Y-99352438D02*
X130438718Y-99400057D01*
X131391099Y-100304819D02*
X130819671Y-100304819D01*
X131105385Y-100304819D02*
X131105385Y-99304819D01*
X131105385Y-99304819D02*
X131010147Y-99447676D01*
X131010147Y-99447676D02*
X130914909Y-99542914D01*
X130914909Y-99542914D02*
X130819671Y-99590533D01*
X132343480Y-100304819D02*
X131772052Y-100304819D01*
X132057766Y-100304819D02*
X132057766Y-99304819D01*
X132057766Y-99304819D02*
X131962528Y-99447676D01*
X131962528Y-99447676D02*
X131867290Y-99542914D01*
X131867290Y-99542914D02*
X131772052Y-99590533D01*
X154867780Y-104757457D02*
X154915400Y-104805076D01*
X154915400Y-104805076D02*
X154963019Y-104947933D01*
X154963019Y-104947933D02*
X154963019Y-105043171D01*
X154963019Y-105043171D02*
X154915400Y-105186028D01*
X154915400Y-105186028D02*
X154820161Y-105281266D01*
X154820161Y-105281266D02*
X154724923Y-105328885D01*
X154724923Y-105328885D02*
X154534447Y-105376504D01*
X154534447Y-105376504D02*
X154391590Y-105376504D01*
X154391590Y-105376504D02*
X154201114Y-105328885D01*
X154201114Y-105328885D02*
X154105876Y-105281266D01*
X154105876Y-105281266D02*
X154010638Y-105186028D01*
X154010638Y-105186028D02*
X153963019Y-105043171D01*
X153963019Y-105043171D02*
X153963019Y-104947933D01*
X153963019Y-104947933D02*
X154010638Y-104805076D01*
X154010638Y-104805076D02*
X154058257Y-104757457D01*
X154963019Y-103805076D02*
X154963019Y-104376504D01*
X154963019Y-104090790D02*
X153963019Y-104090790D01*
X153963019Y-104090790D02*
X154105876Y-104186028D01*
X154105876Y-104186028D02*
X154201114Y-104281266D01*
X154201114Y-104281266D02*
X154248733Y-104376504D01*
X153963019Y-102900314D02*
X153963019Y-103376504D01*
X153963019Y-103376504D02*
X154439209Y-103424123D01*
X154439209Y-103424123D02*
X154391590Y-103376504D01*
X154391590Y-103376504D02*
X154343971Y-103281266D01*
X154343971Y-103281266D02*
X154343971Y-103043171D01*
X154343971Y-103043171D02*
X154391590Y-102947933D01*
X154391590Y-102947933D02*
X154439209Y-102900314D01*
X154439209Y-102900314D02*
X154534447Y-102852695D01*
X154534447Y-102852695D02*
X154772542Y-102852695D01*
X154772542Y-102852695D02*
X154867780Y-102900314D01*
X154867780Y-102900314D02*
X154915400Y-102947933D01*
X154915400Y-102947933D02*
X154963019Y-103043171D01*
X154963019Y-103043171D02*
X154963019Y-103281266D01*
X154963019Y-103281266D02*
X154915400Y-103376504D01*
X154915400Y-103376504D02*
X154867780Y-103424123D01*
X157112619Y-100960037D02*
X157112619Y-100340990D01*
X157112619Y-100340990D02*
X157493571Y-100674323D01*
X157493571Y-100674323D02*
X157493571Y-100531466D01*
X157493571Y-100531466D02*
X157541190Y-100436228D01*
X157541190Y-100436228D02*
X157588809Y-100388609D01*
X157588809Y-100388609D02*
X157684047Y-100340990D01*
X157684047Y-100340990D02*
X157922142Y-100340990D01*
X157922142Y-100340990D02*
X158017380Y-100388609D01*
X158017380Y-100388609D02*
X158065000Y-100436228D01*
X158065000Y-100436228D02*
X158112619Y-100531466D01*
X158112619Y-100531466D02*
X158112619Y-100817180D01*
X158112619Y-100817180D02*
X158065000Y-100912418D01*
X158065000Y-100912418D02*
X158017380Y-100960037D01*
X157445952Y-99483847D02*
X158112619Y-99483847D01*
X157065000Y-99721942D02*
X157779285Y-99960037D01*
X157779285Y-99960037D02*
X157779285Y-99340990D01*
X157112619Y-98769561D02*
X157112619Y-98674323D01*
X157112619Y-98674323D02*
X157160238Y-98579085D01*
X157160238Y-98579085D02*
X157207857Y-98531466D01*
X157207857Y-98531466D02*
X157303095Y-98483847D01*
X157303095Y-98483847D02*
X157493571Y-98436228D01*
X157493571Y-98436228D02*
X157731666Y-98436228D01*
X157731666Y-98436228D02*
X157922142Y-98483847D01*
X157922142Y-98483847D02*
X158017380Y-98531466D01*
X158017380Y-98531466D02*
X158065000Y-98579085D01*
X158065000Y-98579085D02*
X158112619Y-98674323D01*
X158112619Y-98674323D02*
X158112619Y-98769561D01*
X158112619Y-98769561D02*
X158065000Y-98864799D01*
X158065000Y-98864799D02*
X158017380Y-98912418D01*
X158017380Y-98912418D02*
X157922142Y-98960037D01*
X157922142Y-98960037D02*
X157731666Y-99007656D01*
X157731666Y-99007656D02*
X157493571Y-99007656D01*
X157493571Y-99007656D02*
X157303095Y-98960037D01*
X157303095Y-98960037D02*
X157207857Y-98912418D01*
X157207857Y-98912418D02*
X157160238Y-98864799D01*
X157160238Y-98864799D02*
X157112619Y-98769561D01*
X158112619Y-98007656D02*
X157445952Y-98007656D01*
X157636428Y-98007656D02*
X157541190Y-97960037D01*
X157541190Y-97960037D02*
X157493571Y-97912418D01*
X157493571Y-97912418D02*
X157445952Y-97817180D01*
X157445952Y-97817180D02*
X157445952Y-97721942D01*
X119867819Y-133367447D02*
X119867819Y-133938875D01*
X119867819Y-133653161D02*
X118867819Y-133653161D01*
X118867819Y-133653161D02*
X119010676Y-133748399D01*
X119010676Y-133748399D02*
X119105914Y-133843637D01*
X119105914Y-133843637D02*
X119153533Y-133938875D01*
X119867819Y-132938875D02*
X118867819Y-132938875D01*
X119486866Y-132843637D02*
X119867819Y-132557923D01*
X119201152Y-132557923D02*
X119582104Y-132938875D01*
X150350057Y-97110839D02*
X150302438Y-97063220D01*
X150302438Y-97063220D02*
X150254819Y-96967982D01*
X150254819Y-96967982D02*
X150254819Y-96729887D01*
X150254819Y-96729887D02*
X150302438Y-96634649D01*
X150302438Y-96634649D02*
X150350057Y-96587030D01*
X150350057Y-96587030D02*
X150445295Y-96539411D01*
X150445295Y-96539411D02*
X150540533Y-96539411D01*
X150540533Y-96539411D02*
X150683390Y-96587030D01*
X150683390Y-96587030D02*
X151254819Y-97158458D01*
X151254819Y-97158458D02*
X151254819Y-96539411D01*
X150254819Y-96206077D02*
X150254819Y-95539411D01*
X150254819Y-95539411D02*
X151254819Y-95967982D01*
X151254819Y-95158458D02*
X150588152Y-95158458D01*
X150778628Y-95158458D02*
X150683390Y-95110839D01*
X150683390Y-95110839D02*
X150635771Y-95063220D01*
X150635771Y-95063220D02*
X150588152Y-94967982D01*
X150588152Y-94967982D02*
X150588152Y-94872744D01*
X143291790Y-115565133D02*
X143244171Y-115660371D01*
X143244171Y-115660371D02*
X143196552Y-115707990D01*
X143196552Y-115707990D02*
X143101314Y-115755609D01*
X143101314Y-115755609D02*
X143053695Y-115755609D01*
X143053695Y-115755609D02*
X142958457Y-115707990D01*
X142958457Y-115707990D02*
X142910838Y-115660371D01*
X142910838Y-115660371D02*
X142863219Y-115565133D01*
X142863219Y-115565133D02*
X142863219Y-115374657D01*
X142863219Y-115374657D02*
X142910838Y-115279419D01*
X142910838Y-115279419D02*
X142958457Y-115231800D01*
X142958457Y-115231800D02*
X143053695Y-115184181D01*
X143053695Y-115184181D02*
X143101314Y-115184181D01*
X143101314Y-115184181D02*
X143196552Y-115231800D01*
X143196552Y-115231800D02*
X143244171Y-115279419D01*
X143244171Y-115279419D02*
X143291790Y-115374657D01*
X143291790Y-115374657D02*
X143291790Y-115565133D01*
X143291790Y-115565133D02*
X143339409Y-115660371D01*
X143339409Y-115660371D02*
X143387028Y-115707990D01*
X143387028Y-115707990D02*
X143482266Y-115755609D01*
X143482266Y-115755609D02*
X143672742Y-115755609D01*
X143672742Y-115755609D02*
X143767980Y-115707990D01*
X143767980Y-115707990D02*
X143815600Y-115660371D01*
X143815600Y-115660371D02*
X143863219Y-115565133D01*
X143863219Y-115565133D02*
X143863219Y-115374657D01*
X143863219Y-115374657D02*
X143815600Y-115279419D01*
X143815600Y-115279419D02*
X143767980Y-115231800D01*
X143767980Y-115231800D02*
X143672742Y-115184181D01*
X143672742Y-115184181D02*
X143482266Y-115184181D01*
X143482266Y-115184181D02*
X143387028Y-115231800D01*
X143387028Y-115231800D02*
X143339409Y-115279419D01*
X143339409Y-115279419D02*
X143291790Y-115374657D01*
X143196552Y-114755609D02*
X144196552Y-114755609D01*
X143244171Y-114755609D02*
X143196552Y-114660371D01*
X143196552Y-114660371D02*
X143196552Y-114469895D01*
X143196552Y-114469895D02*
X143244171Y-114374657D01*
X143244171Y-114374657D02*
X143291790Y-114327038D01*
X143291790Y-114327038D02*
X143387028Y-114279419D01*
X143387028Y-114279419D02*
X143672742Y-114279419D01*
X143672742Y-114279419D02*
X143767980Y-114327038D01*
X143767980Y-114327038D02*
X143815600Y-114374657D01*
X143815600Y-114374657D02*
X143863219Y-114469895D01*
X143863219Y-114469895D02*
X143863219Y-114660371D01*
X143863219Y-114660371D02*
X143815600Y-114755609D01*
X143196552Y-113993704D02*
X143196552Y-113612752D01*
X143863219Y-113850847D02*
X143006076Y-113850847D01*
X143006076Y-113850847D02*
X142910838Y-113803228D01*
X142910838Y-113803228D02*
X142863219Y-113707990D01*
X142863219Y-113707990D02*
X142863219Y-113612752D01*
X146759523Y-117104819D02*
X146188095Y-117104819D01*
X146473809Y-117104819D02*
X146473809Y-116104819D01*
X146473809Y-116104819D02*
X146378571Y-116247676D01*
X146378571Y-116247676D02*
X146283333Y-116342914D01*
X146283333Y-116342914D02*
X146188095Y-116390533D01*
X147140476Y-116200057D02*
X147188095Y-116152438D01*
X147188095Y-116152438D02*
X147283333Y-116104819D01*
X147283333Y-116104819D02*
X147521428Y-116104819D01*
X147521428Y-116104819D02*
X147616666Y-116152438D01*
X147616666Y-116152438D02*
X147664285Y-116200057D01*
X147664285Y-116200057D02*
X147711904Y-116295295D01*
X147711904Y-116295295D02*
X147711904Y-116390533D01*
X147711904Y-116390533D02*
X147664285Y-116533390D01*
X147664285Y-116533390D02*
X147092857Y-117104819D01*
X147092857Y-117104819D02*
X147711904Y-117104819D01*
X148140476Y-117104819D02*
X148140476Y-116104819D01*
X148140476Y-116104819D02*
X148473809Y-116819104D01*
X148473809Y-116819104D02*
X148807142Y-116104819D01*
X148807142Y-116104819D02*
X148807142Y-117104819D01*
X149283333Y-117104819D02*
X149283333Y-116104819D01*
X149283333Y-116581009D02*
X149854761Y-116581009D01*
X149854761Y-117104819D02*
X149854761Y-116104819D01*
X150235714Y-116438152D02*
X150759523Y-116438152D01*
X150759523Y-116438152D02*
X150235714Y-117104819D01*
X150235714Y-117104819D02*
X150759523Y-117104819D01*
X141848057Y-117501200D02*
X141990914Y-117548819D01*
X141990914Y-117548819D02*
X142229009Y-117548819D01*
X142229009Y-117548819D02*
X142324247Y-117501200D01*
X142324247Y-117501200D02*
X142371866Y-117453580D01*
X142371866Y-117453580D02*
X142419485Y-117358342D01*
X142419485Y-117358342D02*
X142419485Y-117263104D01*
X142419485Y-117263104D02*
X142371866Y-117167866D01*
X142371866Y-117167866D02*
X142324247Y-117120247D01*
X142324247Y-117120247D02*
X142229009Y-117072628D01*
X142229009Y-117072628D02*
X142038533Y-117025009D01*
X142038533Y-117025009D02*
X141943295Y-116977390D01*
X141943295Y-116977390D02*
X141895676Y-116929771D01*
X141895676Y-116929771D02*
X141848057Y-116834533D01*
X141848057Y-116834533D02*
X141848057Y-116739295D01*
X141848057Y-116739295D02*
X141895676Y-116644057D01*
X141895676Y-116644057D02*
X141943295Y-116596438D01*
X141943295Y-116596438D02*
X142038533Y-116548819D01*
X142038533Y-116548819D02*
X142276628Y-116548819D01*
X142276628Y-116548819D02*
X142419485Y-116596438D01*
X142752819Y-116548819D02*
X142990914Y-117548819D01*
X142990914Y-117548819D02*
X143181390Y-116834533D01*
X143181390Y-116834533D02*
X143371866Y-117548819D01*
X143371866Y-117548819D02*
X143609962Y-116548819D01*
X143990914Y-117548819D02*
X143990914Y-116548819D01*
X143990914Y-116548819D02*
X144229009Y-116548819D01*
X144229009Y-116548819D02*
X144371866Y-116596438D01*
X144371866Y-116596438D02*
X144467104Y-116691676D01*
X144467104Y-116691676D02*
X144514723Y-116786914D01*
X144514723Y-116786914D02*
X144562342Y-116977390D01*
X144562342Y-116977390D02*
X144562342Y-117120247D01*
X144562342Y-117120247D02*
X144514723Y-117310723D01*
X144514723Y-117310723D02*
X144467104Y-117405961D01*
X144467104Y-117405961D02*
X144371866Y-117501200D01*
X144371866Y-117501200D02*
X144229009Y-117548819D01*
X144229009Y-117548819D02*
X143990914Y-117548819D01*
D10*
X159293551Y-111304400D02*
X158771047Y-111304400D01*
X159293551Y-112774400D02*
X158771047Y-112774400D01*
X105850000Y-91070000D02*
X111850000Y-91070000D01*
X105850000Y-91830000D02*
X105850000Y-91070000D01*
X105850000Y-93610000D02*
X111850000Y-93610000D01*
X105850000Y-94370000D02*
X105850000Y-93610000D01*
X105850000Y-96150000D02*
X111850000Y-96150000D01*
X105850000Y-96910000D02*
X105850000Y-96150000D01*
X105850000Y-98690000D02*
X111850000Y-98690000D01*
X105850000Y-99450000D02*
X105850000Y-98690000D01*
X105850000Y-101230000D02*
X111850000Y-101230000D01*
X105850000Y-101990000D02*
X105850000Y-101230000D01*
X105850000Y-103770000D02*
X111850000Y-103770000D01*
X105850000Y-104530000D02*
X105850000Y-103770000D01*
X105850000Y-106310000D02*
X111850000Y-106310000D01*
X105850000Y-107070000D02*
X105850000Y-106310000D01*
X105850000Y-108850000D02*
X111850000Y-108850000D01*
X105850000Y-109610000D02*
X105850000Y-108850000D01*
X105850000Y-111390000D02*
X111850000Y-111390000D01*
X105850000Y-112150000D02*
X105850000Y-111390000D01*
X105850000Y-113930000D02*
X111850000Y-113930000D01*
X105850000Y-114690000D02*
X105850000Y-113930000D01*
X105850000Y-116470000D02*
X111850000Y-116470000D01*
X105850000Y-117230000D02*
X105850000Y-116470000D01*
X105850000Y-119010000D02*
X111850000Y-119010000D01*
X105850000Y-119770000D02*
X105850000Y-119010000D01*
X105850000Y-121550000D02*
X111850000Y-121550000D01*
X105850000Y-122310000D02*
X105850000Y-121550000D01*
X105850000Y-124090000D02*
X111850000Y-124090000D01*
X105850000Y-124850000D02*
X105850000Y-124090000D01*
X105850000Y-126630000D02*
X111850000Y-126630000D01*
X105850000Y-127390000D02*
X105850000Y-126630000D01*
X105850000Y-129170000D02*
X111850000Y-129170000D01*
X105850000Y-129930000D02*
X105850000Y-129170000D01*
X111850000Y-90120000D02*
X111850000Y-130880000D01*
X111850000Y-91830000D02*
X105850000Y-91830000D01*
X111850000Y-94370000D02*
X105850000Y-94370000D01*
X111850000Y-96910000D02*
X105850000Y-96910000D01*
X111850000Y-99450000D02*
X105850000Y-99450000D01*
X111850000Y-101990000D02*
X105850000Y-101990000D01*
X111850000Y-104530000D02*
X105850000Y-104530000D01*
X111850000Y-107070000D02*
X105850000Y-107070000D01*
X111850000Y-109610000D02*
X105850000Y-109610000D01*
X111850000Y-112150000D02*
X105850000Y-112150000D01*
X111850000Y-114690000D02*
X105850000Y-114690000D01*
X111850000Y-117230000D02*
X105850000Y-117230000D01*
X111850000Y-119770000D02*
X105850000Y-119770000D01*
X111850000Y-122310000D02*
X105850000Y-122310000D01*
X111850000Y-124850000D02*
X105850000Y-124850000D01*
X111850000Y-127390000D02*
X105850000Y-127390000D01*
X111850000Y-129270000D02*
X105850000Y-129270000D01*
X111850000Y-129390000D02*
X105850000Y-129390000D01*
X111850000Y-129510000D02*
X105850000Y-129510000D01*
X111850000Y-129630000D02*
X105850000Y-129630000D01*
X111850000Y-129750000D02*
X105850000Y-129750000D01*
X111850000Y-129870000D02*
X105850000Y-129870000D01*
X111850000Y-129930000D02*
X105850000Y-129930000D01*
X111850000Y-130880000D02*
X114510000Y-130880000D01*
X114510000Y-90120000D02*
X111850000Y-90120000D01*
X114510000Y-92720000D02*
X111850000Y-92720000D01*
X114510000Y-95260000D02*
X111850000Y-95260000D01*
X114510000Y-97800000D02*
X111850000Y-97800000D01*
X114510000Y-100340000D02*
X111850000Y-100340000D01*
X114510000Y-102880000D02*
X111850000Y-102880000D01*
X114510000Y-105420000D02*
X111850000Y-105420000D01*
X114510000Y-107960000D02*
X111850000Y-107960000D01*
X114510000Y-110500000D02*
X111850000Y-110500000D01*
X114510000Y-113040000D02*
X111850000Y-113040000D01*
X114510000Y-115580000D02*
X111850000Y-115580000D01*
X114510000Y-118120000D02*
X111850000Y-118120000D01*
X114510000Y-120660000D02*
X111850000Y-120660000D01*
X114510000Y-123200000D02*
X111850000Y-123200000D01*
X114510000Y-125740000D02*
X111850000Y-125740000D01*
X114510000Y-128280000D02*
X111850000Y-128280000D01*
X114510000Y-130880000D02*
X114510000Y-90120000D01*
X114907071Y-91070000D02*
X114510000Y-91070000D01*
X114907071Y-91830000D02*
X114510000Y-91830000D01*
X114907071Y-93610000D02*
X114510000Y-93610000D01*
X114907071Y-94370000D02*
X114510000Y-94370000D01*
X114907071Y-96150000D02*
X114510000Y-96150000D01*
X114907071Y-96910000D02*
X114510000Y-96910000D01*
X114907071Y-98690000D02*
X114510000Y-98690000D01*
X114907071Y-99450000D02*
X114510000Y-99450000D01*
X114907071Y-101230000D02*
X114510000Y-101230000D01*
X114907071Y-101990000D02*
X114510000Y-101990000D01*
X114907071Y-103770000D02*
X114510000Y-103770000D01*
X114907071Y-104530000D02*
X114510000Y-104530000D01*
X114907071Y-106310000D02*
X114510000Y-106310000D01*
X114907071Y-107070000D02*
X114510000Y-107070000D01*
X114907071Y-108850000D02*
X114510000Y-108850000D01*
X114907071Y-109610000D02*
X114510000Y-109610000D01*
X114907071Y-111390000D02*
X114510000Y-111390000D01*
X114907071Y-112150000D02*
X114510000Y-112150000D01*
X114907071Y-113930000D02*
X114510000Y-113930000D01*
X114907071Y-114690000D02*
X114510000Y-114690000D01*
X114907071Y-116470000D02*
X114510000Y-116470000D01*
X114907071Y-117230000D02*
X114510000Y-117230000D01*
X114907071Y-119010000D02*
X114510000Y-119010000D01*
X114907071Y-119770000D02*
X114510000Y-119770000D01*
X114907071Y-121550000D02*
X114510000Y-121550000D01*
X114907071Y-122310000D02*
X114510000Y-122310000D01*
X114907071Y-124090000D02*
X114510000Y-124090000D01*
X114907071Y-124850000D02*
X114510000Y-124850000D01*
X114907071Y-126630000D02*
X114510000Y-126630000D01*
X114907071Y-127390000D02*
X114510000Y-127390000D01*
X114907071Y-129170000D02*
X114510000Y-129170000D01*
X114907071Y-129930000D02*
X114510000Y-129930000D01*
X117380000Y-129170000D02*
X116992929Y-129170000D01*
X117380000Y-129930000D02*
X116992929Y-129930000D01*
X117447071Y-91070000D02*
X116992929Y-91070000D01*
X117447071Y-91830000D02*
X116992929Y-91830000D01*
X117447071Y-93610000D02*
X116992929Y-93610000D01*
X117447071Y-94370000D02*
X116992929Y-94370000D01*
X117447071Y-96150000D02*
X116992929Y-96150000D01*
X117447071Y-96910000D02*
X116992929Y-96910000D01*
X117447071Y-98690000D02*
X116992929Y-98690000D01*
X117447071Y-99450000D02*
X116992929Y-99450000D01*
X117447071Y-101230000D02*
X116992929Y-101230000D01*
X117447071Y-101990000D02*
X116992929Y-101990000D01*
X117447071Y-103770000D02*
X116992929Y-103770000D01*
X117447071Y-104530000D02*
X116992929Y-104530000D01*
X117447071Y-106310000D02*
X116992929Y-106310000D01*
X117447071Y-107070000D02*
X116992929Y-107070000D01*
X117447071Y-108850000D02*
X116992929Y-108850000D01*
X117447071Y-109610000D02*
X116992929Y-109610000D01*
X117447071Y-111390000D02*
X116992929Y-111390000D01*
X117447071Y-112150000D02*
X116992929Y-112150000D01*
X117447071Y-113930000D02*
X116992929Y-113930000D01*
X117447071Y-114690000D02*
X116992929Y-114690000D01*
X117447071Y-116470000D02*
X116992929Y-116470000D01*
X117447071Y-117230000D02*
X116992929Y-117230000D01*
X117447071Y-119010000D02*
X116992929Y-119010000D01*
X117447071Y-119770000D02*
X116992929Y-119770000D01*
X117447071Y-121550000D02*
X116992929Y-121550000D01*
X117447071Y-122310000D02*
X116992929Y-122310000D01*
X117447071Y-124090000D02*
X116992929Y-124090000D01*
X117447071Y-124850000D02*
X116992929Y-124850000D01*
X117447071Y-126630000D02*
X116992929Y-126630000D01*
X117447071Y-127390000D02*
X116992929Y-127390000D01*
X119760000Y-129550000D02*
X119760000Y-130820000D01*
X119760000Y-130820000D02*
X118490000Y-130820000D01*
X128061700Y-125720000D02*
X133221700Y-125720000D01*
X128061700Y-125760000D02*
X133221700Y-125760000D01*
X128062700Y-125680000D02*
X133220700Y-125680000D01*
X128063700Y-125640000D02*
X133219700Y-125640000D01*
X128065700Y-125600000D02*
X133217700Y-125600000D01*
X128068700Y-125560000D02*
X133214700Y-125560000D01*
X128072700Y-125520000D02*
X129601700Y-125520000D01*
X128076700Y-125480000D02*
X129601700Y-125480000D01*
X128080700Y-125440000D02*
X129601700Y-125440000D01*
X128085700Y-125400000D02*
X129601700Y-125400000D01*
X128091700Y-125360000D02*
X129601700Y-125360000D01*
X128098700Y-125320000D02*
X129601700Y-125320000D01*
X128105700Y-125280000D02*
X129601700Y-125280000D01*
X128113700Y-125240000D02*
X129601700Y-125240000D01*
X128121700Y-125200000D02*
X129601700Y-125200000D01*
X128130700Y-125160000D02*
X129601700Y-125160000D01*
X128140700Y-125120000D02*
X129601700Y-125120000D01*
X128150700Y-125080000D02*
X129601700Y-125080000D01*
X128161700Y-125039000D02*
X129601700Y-125039000D01*
X128173700Y-124999000D02*
X129601700Y-124999000D01*
X128186700Y-124959000D02*
X129601700Y-124959000D01*
X128199700Y-124919000D02*
X129601700Y-124919000D01*
X128213700Y-124879000D02*
X129601700Y-124879000D01*
X128227700Y-124839000D02*
X129601700Y-124839000D01*
X128243700Y-124799000D02*
X129601700Y-124799000D01*
X128259700Y-124759000D02*
X129601700Y-124759000D01*
X128276700Y-124719000D02*
X129601700Y-124719000D01*
X128293700Y-124679000D02*
X129601700Y-124679000D01*
X128312700Y-124639000D02*
X129601700Y-124639000D01*
X128331700Y-124599000D02*
X129601700Y-124599000D01*
X128351700Y-124559000D02*
X129601700Y-124559000D01*
X128373700Y-124519000D02*
X129601700Y-124519000D01*
X128394700Y-124479000D02*
X129601700Y-124479000D01*
X128417700Y-124439000D02*
X129601700Y-124439000D01*
X128441700Y-124399000D02*
X129601700Y-124399000D01*
X128466700Y-124359000D02*
X129601700Y-124359000D01*
X128492700Y-124319000D02*
X129601700Y-124319000D01*
X128519700Y-124279000D02*
X129601700Y-124279000D01*
X128546700Y-124239000D02*
X129601700Y-124239000D01*
X128576700Y-124199000D02*
X129601700Y-124199000D01*
X128606700Y-124159000D02*
X129601700Y-124159000D01*
X128637700Y-124119000D02*
X129601700Y-124119000D01*
X128670700Y-124079000D02*
X129601700Y-124079000D01*
X128704700Y-124039000D02*
X129601700Y-124039000D01*
X128740700Y-123999000D02*
X129601700Y-123999000D01*
X128777700Y-123959000D02*
X129601700Y-123959000D01*
X128815700Y-123919000D02*
X129601700Y-123919000D01*
X128856700Y-123879000D02*
X129601700Y-123879000D01*
X128898700Y-123839000D02*
X129601700Y-123839000D01*
X128916700Y-128314775D02*
X129416700Y-128314775D01*
X128942700Y-123799000D02*
X129601700Y-123799000D01*
X128988700Y-123759000D02*
X129601700Y-123759000D01*
X129036700Y-123719000D02*
X129601700Y-123719000D01*
X129087700Y-123679000D02*
X129601700Y-123679000D01*
X129141700Y-123639000D02*
X129601700Y-123639000D01*
X129166700Y-128564775D02*
X129166700Y-128064775D01*
X129198700Y-123599000D02*
X129601700Y-123599000D01*
X129258700Y-123559000D02*
X129601700Y-123559000D01*
X129322700Y-123519000D02*
X129601700Y-123519000D01*
X129390700Y-123479000D02*
X129601700Y-123479000D01*
X129463700Y-123439000D02*
X131819700Y-123439000D01*
X129543700Y-123399000D02*
X131739700Y-123399000D01*
X129630700Y-123359000D02*
X131652700Y-123359000D01*
X129726700Y-123319000D02*
X131556700Y-123319000D01*
X129836700Y-123279000D02*
X131446700Y-123279000D01*
X129964700Y-123239000D02*
X131318700Y-123239000D01*
X130123700Y-123199000D02*
X131159700Y-123199000D01*
X130357700Y-123159000D02*
X130925700Y-123159000D01*
X131681700Y-123479000D02*
X131892700Y-123479000D01*
X131681700Y-123519000D02*
X131960700Y-123519000D01*
X131681700Y-123559000D02*
X132024700Y-123559000D01*
X131681700Y-123599000D02*
X132084700Y-123599000D01*
X131681700Y-123639000D02*
X132141700Y-123639000D01*
X131681700Y-123679000D02*
X132195700Y-123679000D01*
X131681700Y-123719000D02*
X132246700Y-123719000D01*
X131681700Y-123759000D02*
X132294700Y-123759000D01*
X131681700Y-123799000D02*
X132340700Y-123799000D01*
X131681700Y-123839000D02*
X132384700Y-123839000D01*
X131681700Y-123879000D02*
X132426700Y-123879000D01*
X131681700Y-123919000D02*
X132467700Y-123919000D01*
X131681700Y-123959000D02*
X132505700Y-123959000D01*
X131681700Y-123999000D02*
X132542700Y-123999000D01*
X131681700Y-124039000D02*
X132578700Y-124039000D01*
X131681700Y-124079000D02*
X132612700Y-124079000D01*
X131681700Y-124119000D02*
X132645700Y-124119000D01*
X131681700Y-124159000D02*
X132676700Y-124159000D01*
X131681700Y-124199000D02*
X132706700Y-124199000D01*
X131681700Y-124239000D02*
X132736700Y-124239000D01*
X131681700Y-124279000D02*
X132763700Y-124279000D01*
X131681700Y-124319000D02*
X132790700Y-124319000D01*
X131681700Y-124359000D02*
X132816700Y-124359000D01*
X131681700Y-124399000D02*
X132841700Y-124399000D01*
X131681700Y-124439000D02*
X132865700Y-124439000D01*
X131681700Y-124479000D02*
X132888700Y-124479000D01*
X131681700Y-124519000D02*
X132909700Y-124519000D01*
X131681700Y-124559000D02*
X132931700Y-124559000D01*
X131681700Y-124599000D02*
X132951700Y-124599000D01*
X131681700Y-124639000D02*
X132970700Y-124639000D01*
X131681700Y-124679000D02*
X132989700Y-124679000D01*
X131681700Y-124719000D02*
X133006700Y-124719000D01*
X131681700Y-124759000D02*
X133023700Y-124759000D01*
X131681700Y-124799000D02*
X133039700Y-124799000D01*
X131681700Y-124839000D02*
X133055700Y-124839000D01*
X131681700Y-124879000D02*
X133069700Y-124879000D01*
X131681700Y-124919000D02*
X133083700Y-124919000D01*
X131681700Y-124959000D02*
X133096700Y-124959000D01*
X131681700Y-124999000D02*
X133109700Y-124999000D01*
X131681700Y-125039000D02*
X133121700Y-125039000D01*
X131681700Y-125080000D02*
X133132700Y-125080000D01*
X131681700Y-125120000D02*
X133142700Y-125120000D01*
X131681700Y-125160000D02*
X133152700Y-125160000D01*
X131681700Y-125200000D02*
X133161700Y-125200000D01*
X131681700Y-125240000D02*
X133169700Y-125240000D01*
X131681700Y-125280000D02*
X133177700Y-125280000D01*
X131681700Y-125320000D02*
X133184700Y-125320000D01*
X131681700Y-125360000D02*
X133191700Y-125360000D01*
X131681700Y-125400000D02*
X133197700Y-125400000D01*
X131681700Y-125440000D02*
X133202700Y-125440000D01*
X131681700Y-125480000D02*
X133206700Y-125480000D01*
X131681700Y-125520000D02*
X133210700Y-125520000D01*
X133261700Y-125760000D02*
G75*
G02*
X128021700Y-125760000I-2620000J0D01*
G01*
X128021700Y-125760000D02*
G75*
G02*
X133261700Y-125760000I2620000J0D01*
G01*
X151440000Y-113990580D02*
X151440000Y-113709420D01*
X152460000Y-113990580D02*
X152460000Y-113709420D01*
X139379900Y-125432800D02*
X143139900Y-125432800D01*
X139379900Y-132252800D02*
X143139900Y-132252800D01*
X143139900Y-125432800D02*
X143139900Y-126692800D01*
X143139900Y-132252800D02*
X143139900Y-130992800D01*
X138099900Y-125532800D02*
X137859900Y-125202800D01*
X138339900Y-125202800D01*
X138099900Y-125532800D01*
G36*
X138099900Y-125532800D02*
G01*
X137859900Y-125202800D01*
X138339900Y-125202800D01*
X138099900Y-125532800D01*
G37*
X148067500Y-123198658D02*
X148067500Y-122724142D01*
X149112500Y-123198658D02*
X149112500Y-122724142D01*
X131140580Y-110990000D02*
X130859420Y-110990000D01*
X131140580Y-112010000D02*
X130859420Y-112010000D01*
D14*
X125325000Y-102875000D02*
X126800000Y-102875000D01*
X127150000Y-102900000D02*
X130850000Y-102900000D01*
X127150000Y-107900000D02*
X127150000Y-102900000D01*
X130850000Y-102900000D02*
X130850000Y-107900000D01*
X130850000Y-107900000D02*
X127150000Y-107900000D01*
D10*
X158867800Y-92065800D02*
X160197800Y-92065800D01*
X158867800Y-93395800D02*
X158867800Y-92065800D01*
X158867800Y-94665800D02*
X158867800Y-107425800D01*
X158867800Y-94665800D02*
X161527800Y-94665800D01*
X158867800Y-107425800D02*
X161527800Y-107425800D01*
X161527800Y-94665800D02*
X161527800Y-107425800D01*
D14*
X125325000Y-92775000D02*
X126800000Y-92775000D01*
X127150000Y-92800000D02*
X130850000Y-92800000D01*
X127150000Y-97800000D02*
X127150000Y-92800000D01*
X130850000Y-92800000D02*
X130850000Y-97800000D01*
X130850000Y-97800000D02*
X127150000Y-97800000D01*
D10*
X159610058Y-108367300D02*
X159135542Y-108367300D01*
X159610058Y-109412300D02*
X159135542Y-109412300D01*
X134813000Y-88507800D02*
X134813000Y-90057800D01*
X135113000Y-85707800D02*
X135113000Y-88507800D01*
X135113000Y-88507800D02*
X134813000Y-88507800D01*
X139863000Y-91757800D02*
X140263000Y-91307800D01*
X140263000Y-91307800D02*
X140663000Y-91757800D01*
X140663000Y-91757800D02*
X139863000Y-91757800D01*
X142813000Y-85707800D02*
X142813000Y-88507800D01*
X143113000Y-88507800D02*
X142813000Y-88507800D01*
X143113000Y-88507800D02*
X143113000Y-90057800D01*
X149412258Y-110577500D02*
X148937742Y-110577500D01*
X149412258Y-111622500D02*
X148937742Y-111622500D01*
X137824942Y-92847900D02*
X138299458Y-92847900D01*
X137824942Y-93892900D02*
X138299458Y-93892900D01*
D14*
X125325000Y-112975000D02*
X126800000Y-112975000D01*
X127150000Y-113000000D02*
X130850000Y-113000000D01*
X127150000Y-118000000D02*
X127150000Y-113000000D01*
X130850000Y-113000000D02*
X130850000Y-118000000D01*
X130850000Y-118000000D02*
X127150000Y-118000000D01*
D10*
X156901300Y-113664600D02*
X156101300Y-113664600D01*
X156901300Y-113664600D02*
X157701300Y-113664600D01*
X156901300Y-116784600D02*
X156101300Y-116784600D01*
X156901300Y-116784600D02*
X157701300Y-116784600D01*
X155601300Y-113714600D02*
X155361300Y-113384600D01*
X155841300Y-113384600D01*
X155601300Y-113714600D01*
G36*
X155601300Y-113714600D02*
G01*
X155361300Y-113384600D01*
X155841300Y-113384600D01*
X155601300Y-113714600D01*
G37*
X131140580Y-90790000D02*
X130859420Y-90790000D01*
X131140580Y-91810000D02*
X130859420Y-91810000D01*
X141019448Y-123129400D02*
X141541952Y-123129400D01*
X141019448Y-124599400D02*
X141541952Y-124599400D01*
X154040000Y-110165580D02*
X154040000Y-109884420D01*
X155060000Y-110165580D02*
X155060000Y-109884420D01*
X127140580Y-110990000D02*
X126859420Y-110990000D01*
X127140580Y-112010000D02*
X126859420Y-112010000D01*
D14*
X149650400Y-124191400D02*
X149650400Y-122941400D01*
X149695400Y-122441400D02*
X152615400Y-122441400D01*
X149695400Y-122591400D02*
X149695400Y-122441400D01*
X152615400Y-122441400D02*
X152615400Y-122591400D01*
X152615400Y-122591400D02*
X149695400Y-122591400D01*
D10*
X132515500Y-130142800D02*
X128505500Y-130142800D01*
X132515500Y-132142800D02*
X128505500Y-132142800D01*
X132515500Y-132142800D02*
X132515500Y-130142800D01*
D14*
X112982200Y-132223800D02*
X112982200Y-134323800D01*
X112982200Y-134323800D02*
X115707200Y-134323800D01*
X115707200Y-132223800D02*
X112982200Y-132223800D01*
D10*
X144143000Y-98830220D02*
X144143000Y-99111380D01*
X145163000Y-98830220D02*
X145163000Y-99111380D01*
X153377500Y-98687742D02*
X153377500Y-99162258D01*
X154422500Y-98687742D02*
X154422500Y-99162258D01*
X142425000Y-91875000D02*
X142425000Y-92135000D01*
X142425000Y-97325000D02*
X142425000Y-97065000D01*
X145150000Y-91875000D02*
X142425000Y-91875000D01*
X145150000Y-91875000D02*
X147875000Y-91875000D01*
X145150000Y-97325000D02*
X142425000Y-97325000D01*
X145150000Y-97325000D02*
X147875000Y-97325000D01*
X147875000Y-91875000D02*
X147875000Y-92135000D01*
X147875000Y-97325000D02*
X147875000Y-97065000D01*
X141642500Y-92135000D02*
X141402500Y-91805000D01*
X141882500Y-91805000D01*
X141642500Y-92135000D01*
G36*
X141642500Y-92135000D02*
G01*
X141402500Y-91805000D01*
X141882500Y-91805000D01*
X141642500Y-92135000D01*
G37*
X147260000Y-125300000D02*
X148590000Y-125300000D01*
X147260000Y-126410000D02*
X147260000Y-125300000D01*
X147260000Y-127870000D02*
X155000000Y-127870000D01*
X147260000Y-136500000D02*
X147260000Y-127870000D01*
X147260000Y-136500000D02*
X155000000Y-136500000D01*
X147380000Y-136500000D02*
X147380000Y-127870000D01*
X147498095Y-136500000D02*
X147498095Y-127870000D01*
X147616190Y-136500000D02*
X147616190Y-127870000D01*
X147734285Y-136500000D02*
X147734285Y-127870000D01*
X147852380Y-136500000D02*
X147852380Y-127870000D01*
X147970475Y-136500000D02*
X147970475Y-127870000D01*
X148088570Y-136500000D02*
X148088570Y-127870000D01*
X148206665Y-136500000D02*
X148206665Y-127870000D01*
X148230000Y-127870000D02*
X148230000Y-127520000D01*
X148324760Y-136500000D02*
X148324760Y-127870000D01*
X148442855Y-136500000D02*
X148442855Y-127870000D01*
X148560950Y-136500000D02*
X148560950Y-127870000D01*
X148679045Y-136500000D02*
X148679045Y-127870000D01*
X148797140Y-136500000D02*
X148797140Y-127870000D01*
X148915235Y-136500000D02*
X148915235Y-127870000D01*
X148950000Y-127870000D02*
X148950000Y-127520000D01*
X149033330Y-136500000D02*
X149033330Y-127870000D01*
X149151425Y-136500000D02*
X149151425Y-127870000D01*
X149269520Y-136500000D02*
X149269520Y-127870000D01*
X149387615Y-136500000D02*
X149387615Y-127870000D01*
X149505710Y-136500000D02*
X149505710Y-127870000D01*
X149623805Y-136500000D02*
X149623805Y-127870000D01*
X149741900Y-136500000D02*
X149741900Y-127870000D01*
X149860000Y-136500000D02*
X149860000Y-127870000D01*
X150770000Y-127870000D02*
X150770000Y-127460000D01*
X151490000Y-127870000D02*
X151490000Y-127460000D01*
X152400000Y-136500000D02*
X152400000Y-127870000D01*
X153310000Y-127870000D02*
X153310000Y-127460000D01*
X154030000Y-127870000D02*
X154030000Y-127460000D01*
X155000000Y-136500000D02*
X155000000Y-127870000D01*
X127544600Y-88985400D02*
X127544600Y-87655400D01*
X128874600Y-88985400D02*
X127544600Y-88985400D01*
X130144600Y-86325400D02*
X132744600Y-86325400D01*
X130144600Y-88985400D02*
X130144600Y-86325400D01*
X130144600Y-88985400D02*
X132744600Y-88985400D01*
X132744600Y-88985400D02*
X132744600Y-86325400D01*
X151827500Y-99162258D02*
X151827500Y-98687742D01*
X152872500Y-99162258D02*
X152872500Y-98687742D01*
X147260000Y-85511200D02*
X147260000Y-88171200D01*
X147260000Y-88171200D02*
X155000000Y-88171200D01*
X147320000Y-90881200D02*
X147320000Y-89611200D01*
X148210000Y-79511200D02*
X148970000Y-79511200D01*
X148210000Y-85511200D02*
X148210000Y-79511200D01*
X148210000Y-88501200D02*
X148210000Y-88171200D01*
X148270000Y-85511200D02*
X148270000Y-79511200D01*
X148390000Y-85511200D02*
X148390000Y-79511200D01*
X148510000Y-85511200D02*
X148510000Y-79511200D01*
X148590000Y-90881200D02*
X147320000Y-90881200D01*
X148630000Y-85511200D02*
X148630000Y-79511200D01*
X148750000Y-85511200D02*
X148750000Y-79511200D01*
X148870000Y-85511200D02*
X148870000Y-79511200D01*
X148970000Y-79511200D02*
X148970000Y-85511200D01*
X148970000Y-88501200D02*
X148970000Y-88171200D01*
X149860000Y-88171200D02*
X149860000Y-85511200D01*
X150750000Y-79511200D02*
X151510000Y-79511200D01*
X150750000Y-85511200D02*
X150750000Y-79511200D01*
X150750000Y-88568271D02*
X150750000Y-88171200D01*
X151510000Y-79511200D02*
X151510000Y-85511200D01*
X151510000Y-88568271D02*
X151510000Y-88171200D01*
X152400000Y-88171200D02*
X152400000Y-85511200D01*
X153290000Y-79511200D02*
X154050000Y-79511200D01*
X153290000Y-85511200D02*
X153290000Y-79511200D01*
X153290000Y-88568271D02*
X153290000Y-88171200D01*
X154050000Y-79511200D02*
X154050000Y-85511200D01*
X154050000Y-88568271D02*
X154050000Y-88171200D01*
X155000000Y-85511200D02*
X147260000Y-85511200D01*
X155000000Y-88171200D02*
X155000000Y-85511200D01*
X154821658Y-118298700D02*
X154347142Y-118298700D01*
X154821658Y-119343700D02*
X154347142Y-119343700D01*
X153198300Y-122724142D02*
X153198300Y-123198658D01*
X154243300Y-122724142D02*
X154243300Y-123198658D01*
X134948200Y-130227220D02*
X134948200Y-130508380D01*
X135968200Y-130227220D02*
X135968200Y-130508380D01*
X158173052Y-119556200D02*
X157650548Y-119556200D01*
X158173052Y-118086200D02*
X157650548Y-118086200D01*
X155461580Y-100734400D02*
X155180420Y-100734400D01*
X155461580Y-101754400D02*
X155180420Y-101754400D01*
X127140580Y-90790000D02*
X126859420Y-90790000D01*
X127140580Y-91810000D02*
X126859420Y-91810000D01*
X157109900Y-105311942D02*
X157109900Y-105786458D01*
X158154900Y-105311942D02*
X158154900Y-105786458D01*
D15*
X145387500Y-101062500D02*
G75*
G02*
X145012500Y-101062500I-187500J0D01*
G01*
X145012500Y-101062500D02*
G75*
G02*
X145387500Y-101062500I187500J0D01*
G01*
D14*
X152700000Y-108062500D02*
X152700000Y-108562500D01*
X152700000Y-101562500D02*
X152700000Y-102062500D01*
X152700000Y-101562500D02*
X152200000Y-101562500D01*
X152200000Y-108562500D02*
X152700000Y-108562500D01*
X145700000Y-108562500D02*
X146200000Y-108562500D01*
X145700000Y-108062500D02*
X145700000Y-108562500D01*
X145700000Y-101562500D02*
X146200000Y-101562500D01*
X145700000Y-101562500D02*
X145700000Y-102062500D01*
D10*
X127140580Y-100890000D02*
X126859420Y-100890000D01*
X127140580Y-101910000D02*
X126859420Y-101910000D01*
X131140580Y-100890000D02*
X130859420Y-100890000D01*
X131140580Y-101910000D02*
X130859420Y-101910000D01*
X155319000Y-103770820D02*
X155319000Y-104051980D01*
X156339000Y-103770820D02*
X156339000Y-104051980D01*
X157109900Y-102315742D02*
X157109900Y-102790258D01*
X158154900Y-102315742D02*
X158154900Y-102790258D01*
X117460500Y-133485658D02*
X117460500Y-133011142D01*
X118505500Y-133485658D02*
X118505500Y-133011142D01*
X150277500Y-99162258D02*
X150277500Y-98687742D01*
X151322500Y-99162258D02*
X151322500Y-98687742D01*
X144590000Y-113709420D02*
X144590000Y-113990580D01*
X145610000Y-113709420D02*
X145610000Y-113990580D01*
X146450000Y-112100000D02*
X146450000Y-115600000D01*
X146450000Y-115600000D02*
X150650000Y-115600000D01*
X139440000Y-120710000D02*
X139440000Y-119380000D01*
X140770000Y-120710000D02*
X139440000Y-120710000D01*
X142040000Y-118050000D02*
X147180000Y-118050000D01*
X142040000Y-120710000D02*
X142040000Y-118050000D01*
X142040000Y-120710000D02*
X147180000Y-120710000D01*
X147180000Y-120710000D02*
X147180000Y-118050000D01*
%LPC*%
D16*
X159982299Y-112039400D03*
X158082299Y-112039400D03*
D17*
X118490000Y-129550000D03*
D18*
X115950000Y-129550000D03*
X118490000Y-127010000D03*
X115950000Y-127010000D03*
X118490000Y-124470000D03*
X115950000Y-124470000D03*
X118490000Y-121930000D03*
X115950000Y-121930000D03*
X118490000Y-119390000D03*
X115950000Y-119390000D03*
X118490000Y-116850000D03*
X115950000Y-116850000D03*
X118490000Y-114310000D03*
X115950000Y-114310000D03*
X118490000Y-111770000D03*
X115950000Y-111770000D03*
X118490000Y-109230000D03*
X115950000Y-109230000D03*
X118490000Y-106690000D03*
X115950000Y-106690000D03*
X118490000Y-104150000D03*
X115950000Y-104150000D03*
X118490000Y-101610000D03*
X115950000Y-101610000D03*
X118490000Y-99070000D03*
X115950000Y-99070000D03*
X118490000Y-96530000D03*
X115950000Y-96530000D03*
X118490000Y-93990000D03*
X115950000Y-93990000D03*
X118490000Y-91450000D03*
X115950000Y-91450000D03*
D19*
X123000000Y-88500000D03*
D20*
X130641700Y-127010000D03*
D21*
X130641700Y-124510000D03*
D22*
X151950000Y-114625000D03*
X151950000Y-113075000D03*
D23*
X138079900Y-126542800D03*
X138079900Y-128842800D03*
D24*
X144379900Y-128842800D03*
D23*
X138079900Y-131142800D03*
D25*
X148590000Y-123786400D03*
X148590000Y-122136400D03*
D26*
X131775000Y-111500000D03*
X130225000Y-111500000D03*
D27*
X126062000Y-103450000D03*
X126062000Y-104100000D03*
X126062000Y-104750000D03*
X126062000Y-105400000D03*
X126062000Y-106050000D03*
X126062000Y-106700000D03*
X126062000Y-107350000D03*
X131938000Y-107350000D03*
X131938000Y-106700000D03*
X131938000Y-106050000D03*
X131938000Y-105400000D03*
X131938000Y-104750000D03*
X131938000Y-104100000D03*
X131938000Y-103450000D03*
D17*
X160197800Y-93395800D03*
D18*
X160197800Y-95935800D03*
X160197800Y-98475800D03*
X160197800Y-101015800D03*
X160197800Y-103555800D03*
X160197800Y-106095800D03*
D27*
X126062000Y-93350000D03*
X126062000Y-94000000D03*
X126062000Y-94650000D03*
X126062000Y-95300000D03*
X126062000Y-95950000D03*
X126062000Y-96600000D03*
X126062000Y-97250000D03*
X131938000Y-97250000D03*
X131938000Y-96600000D03*
X131938000Y-95950000D03*
X131938000Y-95300000D03*
X131938000Y-94650000D03*
X131938000Y-94000000D03*
X131938000Y-93350000D03*
D19*
X159000000Y-88500000D03*
D28*
X160197800Y-108889800D03*
X158547800Y-108889800D03*
D29*
X140263000Y-90207800D03*
X139613000Y-90207800D03*
X138963000Y-90207800D03*
X138313000Y-90207800D03*
X137663000Y-90207800D03*
D30*
X141913000Y-89007800D03*
D31*
X141813000Y-90307800D03*
D32*
X141693000Y-88257800D03*
D33*
X141693000Y-87327800D03*
D34*
X141383000Y-90327800D03*
D35*
X139923000Y-87057800D03*
X138003000Y-87057800D03*
D34*
X136543000Y-90327800D03*
D33*
X136233000Y-87327800D03*
D32*
X136213000Y-88257800D03*
D31*
X136063000Y-90327800D03*
D30*
X135963000Y-89007800D03*
D28*
X150000000Y-111100000D03*
X148350000Y-111100000D03*
D36*
X137237200Y-93370400D03*
X138887200Y-93370400D03*
D19*
X159000000Y-132500000D03*
D27*
X126062000Y-113550000D03*
X126062000Y-114200000D03*
X126062000Y-114850000D03*
X126062000Y-115500000D03*
X126062000Y-116150000D03*
X126062000Y-116800000D03*
X126062000Y-117450000D03*
X131938000Y-117450000D03*
X131938000Y-116800000D03*
X131938000Y-116150000D03*
X131938000Y-115500000D03*
X131938000Y-114850000D03*
X131938000Y-114200000D03*
X131938000Y-113550000D03*
D37*
X155763800Y-114274600D03*
X155763800Y-115224600D03*
X155763800Y-116174600D03*
X158038800Y-116174600D03*
X158038800Y-114274600D03*
D26*
X131775000Y-91300000D03*
X130225000Y-91300000D03*
D38*
X140330700Y-123864400D03*
X142230700Y-123864400D03*
D22*
X154550000Y-110800000D03*
X154550000Y-109250000D03*
D26*
X127775000Y-111500000D03*
X126225000Y-111500000D03*
D39*
X150200400Y-123566400D03*
X152110400Y-123566400D03*
X151155400Y-121466400D03*
D40*
X131805500Y-131142800D03*
X128505500Y-131142800D03*
D41*
X113807200Y-133273800D03*
X115707200Y-133273800D03*
D42*
X144653000Y-98195800D03*
X144653000Y-99745800D03*
D43*
X153900000Y-98100000D03*
X153900000Y-99750000D03*
D44*
X141550000Y-92695000D03*
X141550000Y-93965000D03*
X141550000Y-95235000D03*
X141550000Y-96505000D03*
X148750000Y-96505000D03*
X148750000Y-95235000D03*
X148750000Y-93965000D03*
X148750000Y-92695000D03*
D17*
X148590000Y-126410000D03*
D18*
X151130000Y-126410000D03*
X153670000Y-126410000D03*
D17*
X128874600Y-87655400D03*
D18*
X131414600Y-87655400D03*
D25*
X152350000Y-99750000D03*
X152350000Y-98100000D03*
D17*
X148590000Y-89611200D03*
D18*
X151130000Y-89611200D03*
X153670000Y-89611200D03*
D28*
X155409400Y-118821200D03*
X153759400Y-118821200D03*
D43*
X153720800Y-122136400D03*
X153720800Y-123786400D03*
D42*
X135458200Y-129592800D03*
X135458200Y-131142800D03*
D16*
X156961800Y-118821200D03*
X158861800Y-118821200D03*
D26*
X156096000Y-101244400D03*
X154546000Y-101244400D03*
X127775000Y-91300000D03*
X126225000Y-91300000D03*
D43*
X157632400Y-104724200D03*
X157632400Y-106374200D03*
D45*
X150200000Y-106062500D03*
X150200000Y-105062500D03*
X150200000Y-104062500D03*
X149200000Y-106062500D03*
D46*
X149200000Y-105062500D03*
D45*
X149200000Y-105062500D03*
X149200000Y-104062500D03*
X148200000Y-106062500D03*
X148200000Y-105062500D03*
X148200000Y-104062500D03*
D47*
X146400000Y-101625000D03*
D48*
X146800000Y-101625000D03*
X147200000Y-101625000D03*
X147600000Y-101625000D03*
X148000000Y-101625000D03*
X148400000Y-101625000D03*
X148800000Y-101625000D03*
X149200000Y-101625000D03*
X149600000Y-101625000D03*
X150000000Y-101625000D03*
X150400000Y-101625000D03*
X150800000Y-101625000D03*
X151200000Y-101625000D03*
X151600000Y-101625000D03*
D49*
X152000000Y-101625000D03*
D50*
X152637500Y-102262500D03*
D51*
X152637500Y-102662500D03*
X152637500Y-103062500D03*
X152637500Y-103462500D03*
X152637500Y-103862500D03*
X152637500Y-104262500D03*
X152637500Y-104662500D03*
X152637500Y-105062500D03*
X152637500Y-105462500D03*
X152637500Y-105862500D03*
X152637500Y-106262500D03*
X152637500Y-106662500D03*
X152637500Y-107062500D03*
X152637500Y-107462500D03*
D52*
X152637500Y-107862500D03*
D53*
X152000000Y-108500000D03*
D48*
X151600000Y-108500000D03*
X151200000Y-108500000D03*
X150800000Y-108500000D03*
X150400000Y-108500000D03*
X150000000Y-108500000D03*
X149600000Y-108500000D03*
X149200000Y-108500000D03*
X148800000Y-108500000D03*
X148400000Y-108500000D03*
X148000000Y-108500000D03*
X147600000Y-108500000D03*
X147200000Y-108500000D03*
X146800000Y-108500000D03*
D54*
X146400000Y-108500000D03*
D55*
X145762500Y-107862500D03*
D51*
X145762500Y-107462500D03*
X145762500Y-107062500D03*
X145762500Y-106662500D03*
X145762500Y-106262500D03*
X145762500Y-105862500D03*
X145762500Y-105462500D03*
X145762500Y-105062500D03*
X145762500Y-104662500D03*
X145762500Y-104262500D03*
X145762500Y-103862500D03*
X145762500Y-103462500D03*
X145762500Y-103062500D03*
X145762500Y-102662500D03*
D56*
X145762500Y-102262500D03*
D26*
X127775000Y-101400000D03*
X126225000Y-101400000D03*
X131775000Y-101400000D03*
X130225000Y-101400000D03*
D42*
X155829000Y-103136400D03*
X155829000Y-104686400D03*
D43*
X157632400Y-101728000D03*
X157632400Y-103378000D03*
D25*
X117983000Y-134073400D03*
X117983000Y-132423400D03*
D19*
X123000000Y-132500000D03*
D25*
X150800000Y-99750000D03*
X150800000Y-98100000D03*
D42*
X145100000Y-113075000D03*
X145100000Y-114625000D03*
D57*
X147350000Y-114800000D03*
X149750000Y-114800000D03*
X149750000Y-112900000D03*
X147350000Y-112900000D03*
D17*
X140770000Y-119380000D03*
D18*
X143310000Y-119380000D03*
X145850000Y-119380000D03*
%LPD*%
M02*
