G04 #@! TF.GenerationSoftware,KiCad,Pcbnew,8.0.8*
G04 #@! TF.CreationDate,2025-02-21T19:24:50+11:00*
G04 #@! TF.ProjectId,RP2350LevelShifter,52503233-3530-44c6-9576-656c53686966,rev?*
G04 #@! TF.SameCoordinates,Original*
G04 #@! TF.FileFunction,Soldermask,Top*
G04 #@! TF.FilePolarity,Negative*
%FSLAX46Y46*%
G04 Gerber Fmt 4.6, Leading zero omitted, Abs format (unit mm)*
G04 Created by KiCad (PCBNEW 8.0.8) date 2025-02-21 19:24:50*
%MOMM*%
%LPD*%
G01*
G04 APERTURE LIST*
G04 Aperture macros list*
%AMRoundRect*
0 Rectangle with rounded corners*
0 $1 Rounding radius*
0 $2 $3 $4 $5 $6 $7 $8 $9 X,Y pos of 4 corners*
0 Add a 4 corners polygon primitive as box body*
4,1,4,$2,$3,$4,$5,$6,$7,$8,$9,$2,$3,0*
0 Add four circle primitives for the rounded corners*
1,1,$1+$1,$2,$3*
1,1,$1+$1,$4,$5*
1,1,$1+$1,$6,$7*
1,1,$1+$1,$8,$9*
0 Add four rect primitives between the rounded corners*
20,1,$1+$1,$2,$3,$4,$5,0*
20,1,$1+$1,$4,$5,$6,$7,0*
20,1,$1+$1,$6,$7,$8,$9,0*
20,1,$1+$1,$8,$9,$2,$3,0*%
%AMOutline5P*
0 Free polygon, 5 corners , with rotation*
0 The origin of the aperture is its center*
0 number of corners: always 5*
0 $1 to $10 corner X, Y*
0 $11 Rotation angle, in degrees counterclockwise*
0 create outline with 5 corners*
4,1,5,$1,$2,$3,$4,$5,$6,$7,$8,$9,$10,$1,$2,$11*%
%AMOutline6P*
0 Free polygon, 6 corners , with rotation*
0 The origin of the aperture is its center*
0 number of corners: always 6*
0 $1 to $12 corner X, Y*
0 $13 Rotation angle, in degrees counterclockwise*
0 create outline with 6 corners*
4,1,6,$1,$2,$3,$4,$5,$6,$7,$8,$9,$10,$11,$12,$1,$2,$13*%
%AMOutline7P*
0 Free polygon, 7 corners , with rotation*
0 The origin of the aperture is its center*
0 number of corners: always 7*
0 $1 to $14 corner X, Y*
0 $15 Rotation angle, in degrees counterclockwise*
0 create outline with 7 corners*
4,1,7,$1,$2,$3,$4,$5,$6,$7,$8,$9,$10,$11,$12,$13,$14,$1,$2,$15*%
%AMOutline8P*
0 Free polygon, 8 corners , with rotation*
0 The origin of the aperture is its center*
0 number of corners: always 8*
0 $1 to $16 corner X, Y*
0 $17 Rotation angle, in degrees counterclockwise*
0 create outline with 8 corners*
4,1,8,$1,$2,$3,$4,$5,$6,$7,$8,$9,$10,$11,$12,$13,$14,$15,$16,$1,$2,$17*%
G04 Aperture macros list end*
%ADD10RoundRect,0.250000X0.250000X0.475000X-0.250000X0.475000X-0.250000X-0.475000X0.250000X-0.475000X0*%
%ADD11R,1.700000X1.700000*%
%ADD12O,1.700000X1.700000*%
%ADD13C,2.500000*%
%ADD14R,1.600000X1.600000*%
%ADD15C,1.600000*%
%ADD16RoundRect,0.225000X0.250000X-0.225000X0.250000X0.225000X-0.250000X0.225000X-0.250000X-0.225000X0*%
%ADD17RoundRect,0.375000X-0.625000X-0.375000X0.625000X-0.375000X0.625000X0.375000X-0.625000X0.375000X0*%
%ADD18RoundRect,0.500000X-0.500000X-1.400000X0.500000X-1.400000X0.500000X1.400000X-0.500000X1.400000X0*%
%ADD19RoundRect,0.200000X0.275000X-0.200000X0.275000X0.200000X-0.275000X0.200000X-0.275000X-0.200000X0*%
%ADD20RoundRect,0.225000X0.225000X0.250000X-0.225000X0.250000X-0.225000X-0.250000X0.225000X-0.250000X0*%
%ADD21R,1.475000X0.450000*%
%ADD22RoundRect,0.200000X0.200000X0.275000X-0.200000X0.275000X-0.200000X-0.275000X0.200000X-0.275000X0*%
%ADD23R,0.400000X1.650000*%
%ADD24R,1.825000X0.700000*%
%ADD25R,2.000000X1.500000*%
%ADD26R,1.350000X2.000000*%
%ADD27O,1.350000X1.700000*%
%ADD28O,1.100000X1.500000*%
%ADD29R,1.430000X2.500000*%
%ADD30RoundRect,0.200000X-0.200000X-0.275000X0.200000X-0.275000X0.200000X0.275000X-0.200000X0.275000X0*%
%ADD31RoundRect,0.150000X-0.512500X-0.150000X0.512500X-0.150000X0.512500X0.150000X-0.512500X0.150000X0*%
%ADD32RoundRect,0.250000X-0.250000X-0.475000X0.250000X-0.475000X0.250000X0.475000X-0.250000X0.475000X0*%
%ADD33R,0.600000X1.250000*%
%ADD34RoundRect,0.225000X0.225000X0.375000X-0.225000X0.375000X-0.225000X-0.375000X0.225000X-0.375000X0*%
%ADD35R,0.950000X1.400000*%
%ADD36RoundRect,0.225000X-0.250000X0.225000X-0.250000X-0.225000X0.250000X-0.225000X0.250000X0.225000X0*%
%ADD37RoundRect,0.200000X-0.275000X0.200000X-0.275000X-0.200000X0.275000X-0.200000X0.275000X0.200000X0*%
%ADD38RoundRect,0.150000X-0.650000X-0.150000X0.650000X-0.150000X0.650000X0.150000X-0.650000X0.150000X0*%
%ADD39C,0.700000*%
%ADD40R,3.400000X3.400000*%
%ADD41Outline5P,-0.100000X0.437500X0.100000X0.437500X0.100000X-0.437500X-0.050000X-0.437500X-0.100000X-0.387500X0.000000*%
%ADD42R,0.200000X0.875000*%
%ADD43Outline5P,-0.100000X0.437500X0.100000X0.437500X0.100000X-0.387500X0.050000X-0.437500X-0.100000X-0.437500X0.000000*%
%ADD44Outline5P,-0.100000X0.437500X0.050000X0.437500X0.100000X0.387500X0.100000X-0.437500X-0.100000X-0.437500X90.000000*%
%ADD45R,0.875000X0.200000*%
%ADD46Outline5P,-0.100000X0.387500X-0.050000X0.437500X0.100000X0.437500X0.100000X-0.437500X-0.100000X-0.437500X90.000000*%
%ADD47Outline5P,-0.100000X0.437500X0.050000X0.437500X0.100000X0.387500X0.100000X-0.437500X-0.100000X-0.437500X0.000000*%
%ADD48Outline5P,-0.100000X0.387500X-0.050000X0.437500X0.100000X0.437500X0.100000X-0.437500X-0.100000X-0.437500X0.000000*%
%ADD49Outline5P,-0.100000X0.437500X0.100000X0.437500X0.100000X-0.437500X-0.050000X-0.437500X-0.100000X-0.387500X90.000000*%
%ADD50Outline5P,-0.100000X0.437500X0.100000X0.437500X0.100000X-0.387500X0.050000X-0.437500X-0.100000X-0.437500X90.000000*%
%ADD51R,1.400000X1.200000*%
G04 APERTURE END LIST*
D10*
X159982299Y-112039400D03*
X158082299Y-112039400D03*
D11*
X118490000Y-129550000D03*
D12*
X115950000Y-129550000D03*
X118490000Y-127010000D03*
X115950000Y-127010000D03*
X118490000Y-124470000D03*
X115950000Y-124470000D03*
X118490000Y-121930000D03*
X115950000Y-121930000D03*
X118490000Y-119390000D03*
X115950000Y-119390000D03*
X118490000Y-116850000D03*
X115950000Y-116850000D03*
X118490000Y-114310000D03*
X115950000Y-114310000D03*
X118490000Y-111770000D03*
X115950000Y-111770000D03*
X118490000Y-109230000D03*
X115950000Y-109230000D03*
X118490000Y-106690000D03*
X115950000Y-106690000D03*
X118490000Y-104150000D03*
X115950000Y-104150000D03*
X118490000Y-101610000D03*
X115950000Y-101610000D03*
X118490000Y-99070000D03*
X115950000Y-99070000D03*
X118490000Y-96530000D03*
X115950000Y-96530000D03*
X118490000Y-93990000D03*
X115950000Y-93990000D03*
X118490000Y-91450000D03*
X115950000Y-91450000D03*
D13*
X123000000Y-88500000D03*
D14*
X130641700Y-127010000D03*
D15*
X130641700Y-124510000D03*
D16*
X151950000Y-114625000D03*
X151950000Y-113075000D03*
D17*
X138079900Y-126542800D03*
X138079900Y-128842800D03*
D18*
X144379900Y-128842800D03*
D17*
X138079900Y-131142800D03*
D19*
X148590000Y-123786400D03*
X148590000Y-122136400D03*
D20*
X131775000Y-111500000D03*
X130225000Y-111500000D03*
D21*
X126062000Y-103450000D03*
X126062000Y-104100000D03*
X126062000Y-104750000D03*
X126062000Y-105400000D03*
X126062000Y-106050000D03*
X126062000Y-106700000D03*
X126062000Y-107350000D03*
X131938000Y-107350000D03*
X131938000Y-106700000D03*
X131938000Y-106050000D03*
X131938000Y-105400000D03*
X131938000Y-104750000D03*
X131938000Y-104100000D03*
X131938000Y-103450000D03*
D11*
X160197800Y-93395800D03*
D12*
X160197800Y-95935800D03*
X160197800Y-98475800D03*
X160197800Y-101015800D03*
X160197800Y-103555800D03*
X160197800Y-106095800D03*
D21*
X126062000Y-93350000D03*
X126062000Y-94000000D03*
X126062000Y-94650000D03*
X126062000Y-95300000D03*
X126062000Y-95950000D03*
X126062000Y-96600000D03*
X126062000Y-97250000D03*
X131938000Y-97250000D03*
X131938000Y-96600000D03*
X131938000Y-95950000D03*
X131938000Y-95300000D03*
X131938000Y-94650000D03*
X131938000Y-94000000D03*
X131938000Y-93350000D03*
D13*
X159000000Y-88500000D03*
D22*
X160197800Y-108889800D03*
X158547800Y-108889800D03*
D23*
X140263000Y-90207800D03*
X139613000Y-90207800D03*
X138963000Y-90207800D03*
X138313000Y-90207800D03*
X137663000Y-90207800D03*
D24*
X141913000Y-89007800D03*
D25*
X141813000Y-90307800D03*
D26*
X141693000Y-88257800D03*
D27*
X141693000Y-87327800D03*
D28*
X141383000Y-90327800D03*
D29*
X139923000Y-87057800D03*
X138003000Y-87057800D03*
D28*
X136543000Y-90327800D03*
D27*
X136233000Y-87327800D03*
D26*
X136213000Y-88257800D03*
D25*
X136063000Y-90327800D03*
D24*
X135963000Y-89007800D03*
D22*
X150000000Y-111100000D03*
X148350000Y-111100000D03*
D30*
X137237200Y-93370400D03*
X138887200Y-93370400D03*
D13*
X159000000Y-132500000D03*
D21*
X126062000Y-113550000D03*
X126062000Y-114200000D03*
X126062000Y-114850000D03*
X126062000Y-115500000D03*
X126062000Y-116150000D03*
X126062000Y-116800000D03*
X126062000Y-117450000D03*
X131938000Y-117450000D03*
X131938000Y-116800000D03*
X131938000Y-116150000D03*
X131938000Y-115500000D03*
X131938000Y-114850000D03*
X131938000Y-114200000D03*
X131938000Y-113550000D03*
D31*
X155763800Y-114274600D03*
X155763800Y-115224600D03*
X155763800Y-116174600D03*
X158038800Y-116174600D03*
X158038800Y-114274600D03*
D20*
X131775000Y-91300000D03*
X130225000Y-91300000D03*
D32*
X140330700Y-123864400D03*
X142230700Y-123864400D03*
D16*
X154550000Y-110800000D03*
X154550000Y-109250000D03*
D20*
X127775000Y-111500000D03*
X126225000Y-111500000D03*
D33*
X150200400Y-123566400D03*
X152110400Y-123566400D03*
X151155400Y-121466400D03*
D34*
X131805500Y-131142800D03*
X128505500Y-131142800D03*
D35*
X113807200Y-133273800D03*
X115707200Y-133273800D03*
D36*
X144653000Y-98195800D03*
X144653000Y-99745800D03*
D37*
X153900000Y-98100000D03*
X153900000Y-99750000D03*
D38*
X141550000Y-92695000D03*
X141550000Y-93965000D03*
X141550000Y-95235000D03*
X141550000Y-96505000D03*
X148750000Y-96505000D03*
X148750000Y-95235000D03*
X148750000Y-93965000D03*
X148750000Y-92695000D03*
D11*
X148590000Y-126410000D03*
D12*
X151130000Y-126410000D03*
X153670000Y-126410000D03*
D11*
X128874600Y-87655400D03*
D12*
X131414600Y-87655400D03*
D19*
X152350000Y-99750000D03*
X152350000Y-98100000D03*
D11*
X148590000Y-89611200D03*
D12*
X151130000Y-89611200D03*
X153670000Y-89611200D03*
D22*
X155409400Y-118821200D03*
X153759400Y-118821200D03*
D37*
X153720800Y-122136400D03*
X153720800Y-123786400D03*
D36*
X135458200Y-129592800D03*
X135458200Y-131142800D03*
D10*
X156961800Y-118821200D03*
X158861800Y-118821200D03*
D20*
X156096000Y-101244400D03*
X154546000Y-101244400D03*
X127775000Y-91300000D03*
X126225000Y-91300000D03*
D37*
X157632400Y-104724200D03*
X157632400Y-106374200D03*
D39*
X150200000Y-106062500D03*
X150200000Y-105062500D03*
X150200000Y-104062500D03*
X149200000Y-106062500D03*
D40*
X149200000Y-105062500D03*
D39*
X149200000Y-105062500D03*
X149200000Y-104062500D03*
X148200000Y-106062500D03*
X148200000Y-105062500D03*
X148200000Y-104062500D03*
D41*
X146400000Y-101625000D03*
D42*
X146800000Y-101625000D03*
X147200000Y-101625000D03*
X147600000Y-101625000D03*
X148000000Y-101625000D03*
X148400000Y-101625000D03*
X148800000Y-101625000D03*
X149200000Y-101625000D03*
X149600000Y-101625000D03*
X150000000Y-101625000D03*
X150400000Y-101625000D03*
X150800000Y-101625000D03*
X151200000Y-101625000D03*
X151600000Y-101625000D03*
D43*
X152000000Y-101625000D03*
D44*
X152637500Y-102262500D03*
D45*
X152637500Y-102662500D03*
X152637500Y-103062500D03*
X152637500Y-103462500D03*
X152637500Y-103862500D03*
X152637500Y-104262500D03*
X152637500Y-104662500D03*
X152637500Y-105062500D03*
X152637500Y-105462500D03*
X152637500Y-105862500D03*
X152637500Y-106262500D03*
X152637500Y-106662500D03*
X152637500Y-107062500D03*
X152637500Y-107462500D03*
D46*
X152637500Y-107862500D03*
D47*
X152000000Y-108500000D03*
D42*
X151600000Y-108500000D03*
X151200000Y-108500000D03*
X150800000Y-108500000D03*
X150400000Y-108500000D03*
X150000000Y-108500000D03*
X149600000Y-108500000D03*
X149200000Y-108500000D03*
X148800000Y-108500000D03*
X148400000Y-108500000D03*
X148000000Y-108500000D03*
X147600000Y-108500000D03*
X147200000Y-108500000D03*
X146800000Y-108500000D03*
D48*
X146400000Y-108500000D03*
D49*
X145762500Y-107862500D03*
D45*
X145762500Y-107462500D03*
X145762500Y-107062500D03*
X145762500Y-106662500D03*
X145762500Y-106262500D03*
X145762500Y-105862500D03*
X145762500Y-105462500D03*
X145762500Y-105062500D03*
X145762500Y-104662500D03*
X145762500Y-104262500D03*
X145762500Y-103862500D03*
X145762500Y-103462500D03*
X145762500Y-103062500D03*
X145762500Y-102662500D03*
D50*
X145762500Y-102262500D03*
D20*
X127775000Y-101400000D03*
X126225000Y-101400000D03*
X131775000Y-101400000D03*
X130225000Y-101400000D03*
D36*
X155829000Y-103136400D03*
X155829000Y-104686400D03*
D37*
X157632400Y-101728000D03*
X157632400Y-103378000D03*
D19*
X117983000Y-134073400D03*
X117983000Y-132423400D03*
D13*
X123000000Y-132500000D03*
D19*
X150800000Y-99750000D03*
X150800000Y-98100000D03*
D36*
X145100000Y-113075000D03*
X145100000Y-114625000D03*
D51*
X147350000Y-114800000D03*
X149750000Y-114800000D03*
X149750000Y-112900000D03*
X147350000Y-112900000D03*
D11*
X140770000Y-119380000D03*
D12*
X143310000Y-119380000D03*
X145850000Y-119380000D03*
M02*
