G04 #@! TF.GenerationSoftware,KiCad,Pcbnew,8.0.8*
G04 #@! TF.CreationDate,2025-02-21T19:24:50+11:00*
G04 #@! TF.ProjectId,RP2350LevelShifter,52503233-3530-44c6-9576-656c53686966,rev?*
G04 #@! TF.SameCoordinates,Original*
G04 #@! TF.FileFunction,Copper,L3,Inr*
G04 #@! TF.FilePolarity,Positive*
%FSLAX46Y46*%
G04 Gerber Fmt 4.6, Leading zero omitted, Abs format (unit mm)*
G04 Created by KiCad (PCBNEW 8.0.8) date 2025-02-21 19:24:50*
%MOMM*%
%LPD*%
G01*
G04 APERTURE LIST*
G04 #@! TA.AperFunction,ComponentPad*
%ADD10R,1.700000X1.700000*%
G04 #@! TD*
G04 #@! TA.AperFunction,ComponentPad*
%ADD11O,1.700000X1.700000*%
G04 #@! TD*
G04 #@! TA.AperFunction,ComponentPad*
%ADD12R,1.600000X1.600000*%
G04 #@! TD*
G04 #@! TA.AperFunction,ComponentPad*
%ADD13C,1.600000*%
G04 #@! TD*
G04 #@! TA.AperFunction,ComponentPad*
%ADD14O,1.350000X1.700000*%
G04 #@! TD*
G04 #@! TA.AperFunction,ComponentPad*
%ADD15O,1.100000X1.500000*%
G04 #@! TD*
G04 #@! TA.AperFunction,HeatsinkPad*
%ADD16C,0.700000*%
G04 #@! TD*
G04 #@! TA.AperFunction,ViaPad*
%ADD17C,0.700000*%
G04 #@! TD*
G04 APERTURE END LIST*
D10*
X118490000Y-129550000D03*
D11*
X115950000Y-129550000D03*
X118490000Y-127010000D03*
X115950000Y-127010000D03*
X118490000Y-124470000D03*
X115950000Y-124470000D03*
X118490000Y-121930000D03*
X115950000Y-121930000D03*
X118490000Y-119390000D03*
X115950000Y-119390000D03*
X118490000Y-116850000D03*
X115950000Y-116850000D03*
X118490000Y-114310000D03*
X115950000Y-114310000D03*
X118490000Y-111770000D03*
X115950000Y-111770000D03*
X118490000Y-109230000D03*
X115950000Y-109230000D03*
X118490000Y-106690000D03*
X115950000Y-106690000D03*
X118490000Y-104150000D03*
X115950000Y-104150000D03*
X118490000Y-101610000D03*
X115950000Y-101610000D03*
X118490000Y-99070000D03*
X115950000Y-99070000D03*
X118490000Y-96530000D03*
X115950000Y-96530000D03*
X118490000Y-93990000D03*
X115950000Y-93990000D03*
X118490000Y-91450000D03*
X115950000Y-91450000D03*
D12*
X130641700Y-127010000D03*
D13*
X130641700Y-124510000D03*
D10*
X160197800Y-93395800D03*
D11*
X160197800Y-95935800D03*
X160197800Y-98475800D03*
X160197800Y-101015800D03*
X160197800Y-103555800D03*
X160197800Y-106095800D03*
D14*
X141693000Y-87327800D03*
D15*
X141383000Y-90327800D03*
X136543000Y-90327800D03*
D14*
X136233000Y-87327800D03*
D10*
X148590000Y-126410000D03*
D11*
X151130000Y-126410000D03*
X153670000Y-126410000D03*
D10*
X128874600Y-87655400D03*
D11*
X131414600Y-87655400D03*
D10*
X148590000Y-89611200D03*
D11*
X151130000Y-89611200D03*
X153670000Y-89611200D03*
D16*
X150200000Y-106062500D03*
X150200000Y-105062500D03*
X150200000Y-104062500D03*
X149200000Y-106062500D03*
X149200000Y-105062500D03*
X149200000Y-104062500D03*
X148200000Y-106062500D03*
X148200000Y-105062500D03*
X148200000Y-104062500D03*
D10*
X140770000Y-119380000D03*
D11*
X143310000Y-119380000D03*
X145850000Y-119380000D03*
D17*
X138988800Y-88823800D03*
X134162800Y-89992200D03*
X148753825Y-107499852D03*
X156057600Y-111607600D03*
X146850000Y-103550000D03*
X152298400Y-121412000D03*
X153436203Y-100558405D03*
X142951200Y-97876600D03*
X160147000Y-118821200D03*
X137668000Y-91821000D03*
X148640800Y-121005600D03*
X159994600Y-113588800D03*
X127787400Y-100355400D03*
X138715100Y-124550400D03*
X127787400Y-110464600D03*
X154432000Y-115214400D03*
X124650000Y-113550000D03*
X124650000Y-117450000D03*
X143950000Y-113050000D03*
X128950000Y-119500000D03*
X127787400Y-92379800D03*
X153100000Y-114600000D03*
X124650000Y-107350000D03*
X135590900Y-127446000D03*
X130200400Y-92379800D03*
X154559000Y-111963200D03*
X143764000Y-96530400D03*
X124650000Y-97250000D03*
X130225000Y-100355400D03*
X124650000Y-103450000D03*
X156591000Y-100050600D03*
X130200400Y-110439200D03*
X124650000Y-93325000D03*
X141991900Y-128842800D03*
X143747762Y-106415416D03*
X156921200Y-117398800D03*
X133185200Y-91300000D03*
X140620300Y-128842800D03*
X147066000Y-92696000D03*
X154687329Y-104930696D03*
X133185200Y-119500000D03*
X144653000Y-100924600D03*
X155600400Y-109651800D03*
X147854496Y-107534643D03*
X133000000Y-100350000D03*
X154965400Y-99847400D03*
X138226800Y-94615000D03*
X132950000Y-110450000D03*
X149929549Y-110033438D03*
X149029074Y-110014674D03*
X139966700Y-92824300D03*
X145268750Y-110200000D03*
X151758888Y-111300000D03*
X152467612Y-110744864D03*
X146387990Y-110287500D03*
X154580414Y-103630696D03*
X153978524Y-102245048D03*
X154638569Y-107237330D03*
X154728271Y-102742922D03*
X155899799Y-108498664D03*
X153250000Y-110125000D03*
X153175000Y-108437500D03*
X155354587Y-107782600D03*
X126212600Y-110464600D03*
X126238000Y-100330000D03*
X141986000Y-97876600D03*
G04 #@! TA.AperFunction,Conductor*
G36*
X118024075Y-121737007D02*
G01*
X117990000Y-121864174D01*
X117990000Y-121995826D01*
X118024075Y-122122993D01*
X118056988Y-122180000D01*
X116383012Y-122180000D01*
X116415925Y-122122993D01*
X116450000Y-121995826D01*
X116450000Y-121864174D01*
X116415925Y-121737007D01*
X116383012Y-121680000D01*
X118056988Y-121680000D01*
X118024075Y-121737007D01*
G37*
G04 #@! TD.AperFunction*
G04 #@! TA.AperFunction,Conductor*
G36*
X135849198Y-85820185D02*
G01*
X135894953Y-85872989D01*
X135904897Y-85942147D01*
X135875872Y-86005703D01*
X135820479Y-86042429D01*
X135801575Y-86048572D01*
X135778689Y-86056008D01*
X135612714Y-86140578D01*
X135461998Y-86250078D01*
X135330278Y-86381798D01*
X135220778Y-86532514D01*
X135136208Y-86698489D01*
X135078640Y-86875662D01*
X135049500Y-87059650D01*
X135049500Y-87595949D01*
X135078640Y-87779937D01*
X135136208Y-87957110D01*
X135215897Y-88113506D01*
X135220780Y-88123089D01*
X135330276Y-88273799D01*
X135462001Y-88405524D01*
X135612711Y-88515020D01*
X135681243Y-88549939D01*
X135778689Y-88599591D01*
X135778691Y-88599591D01*
X135778694Y-88599593D01*
X135824884Y-88614601D01*
X135955862Y-88657159D01*
X136139851Y-88686300D01*
X136139856Y-88686300D01*
X136326149Y-88686300D01*
X136510137Y-88657159D01*
X136526030Y-88651995D01*
X136687306Y-88599593D01*
X136853289Y-88515020D01*
X137003999Y-88405524D01*
X137135724Y-88273799D01*
X137245220Y-88123089D01*
X137329793Y-87957106D01*
X137387359Y-87779937D01*
X137407083Y-87655405D01*
X137416500Y-87595949D01*
X137416500Y-87059650D01*
X137387359Y-86875662D01*
X137360649Y-86793459D01*
X137329793Y-86698494D01*
X137329791Y-86698491D01*
X137329791Y-86698489D01*
X137286757Y-86614032D01*
X137245220Y-86532511D01*
X137135724Y-86381801D01*
X137003999Y-86250076D01*
X136853289Y-86140580D01*
X136847407Y-86137583D01*
X136687310Y-86056008D01*
X136671954Y-86051019D01*
X136645520Y-86042430D01*
X136587847Y-86002993D01*
X136560649Y-85938634D01*
X136572564Y-85869788D01*
X136619808Y-85818312D01*
X136683841Y-85800500D01*
X141242159Y-85800500D01*
X141309198Y-85820185D01*
X141354953Y-85872989D01*
X141364897Y-85942147D01*
X141335872Y-86005703D01*
X141280479Y-86042429D01*
X141261575Y-86048572D01*
X141238689Y-86056008D01*
X141072714Y-86140578D01*
X140921998Y-86250078D01*
X140790278Y-86381798D01*
X140680778Y-86532514D01*
X140596208Y-86698489D01*
X140538640Y-86875662D01*
X140509500Y-87059650D01*
X140509500Y-87595949D01*
X140538640Y-87779937D01*
X140596208Y-87957110D01*
X140675897Y-88113506D01*
X140680780Y-88123089D01*
X140790276Y-88273799D01*
X140922001Y-88405524D01*
X141072711Y-88515020D01*
X141141243Y-88549939D01*
X141238689Y-88599591D01*
X141238691Y-88599591D01*
X141238694Y-88599593D01*
X141284884Y-88614601D01*
X141415862Y-88657159D01*
X141599851Y-88686300D01*
X141599856Y-88686300D01*
X141786149Y-88686300D01*
X141970137Y-88657159D01*
X141986030Y-88651995D01*
X142147306Y-88599593D01*
X142313289Y-88515020D01*
X142463999Y-88405524D01*
X142595724Y-88273799D01*
X142705220Y-88123089D01*
X142789793Y-87957106D01*
X142847359Y-87779937D01*
X142867083Y-87655405D01*
X142876500Y-87595949D01*
X142876500Y-87059650D01*
X142847359Y-86875662D01*
X142820649Y-86793459D01*
X142789793Y-86698494D01*
X142789791Y-86698491D01*
X142789791Y-86698489D01*
X142746757Y-86614032D01*
X142705220Y-86532511D01*
X142595724Y-86381801D01*
X142463999Y-86250076D01*
X142313289Y-86140580D01*
X142307407Y-86137583D01*
X142147310Y-86056008D01*
X142131954Y-86051019D01*
X142105520Y-86042430D01*
X142047847Y-86002993D01*
X142020649Y-85938634D01*
X142032564Y-85869788D01*
X142079808Y-85818312D01*
X142143841Y-85800500D01*
X161575500Y-85800500D01*
X161642539Y-85820185D01*
X161688294Y-85872989D01*
X161699500Y-85924500D01*
X161699500Y-92195287D01*
X161679815Y-92262326D01*
X161627011Y-92308081D01*
X161557853Y-92318025D01*
X161494297Y-92289000D01*
X161476233Y-92269598D01*
X161424375Y-92200325D01*
X161411061Y-92182539D01*
X161294004Y-92094911D01*
X161291596Y-92094013D01*
X161157003Y-92043811D01*
X161096454Y-92037300D01*
X161096438Y-92037300D01*
X159299162Y-92037300D01*
X159299145Y-92037300D01*
X159238597Y-92043811D01*
X159238595Y-92043811D01*
X159101595Y-92094911D01*
X158984539Y-92182539D01*
X158896911Y-92299595D01*
X158845811Y-92436595D01*
X158845811Y-92436597D01*
X158839300Y-92497145D01*
X158839300Y-94294454D01*
X158845811Y-94355002D01*
X158845811Y-94355004D01*
X158874759Y-94432614D01*
X158896911Y-94492004D01*
X158984539Y-94609061D01*
X159101596Y-94696689D01*
X159153537Y-94716062D01*
X159219395Y-94740627D01*
X159275328Y-94782499D01*
X159299744Y-94847963D01*
X159284892Y-94916236D01*
X159267290Y-94940791D01*
X159122079Y-95098530D01*
X159122076Y-95098534D01*
X158998940Y-95287007D01*
X158908503Y-95493185D01*
X158853236Y-95711428D01*
X158853236Y-95711430D01*
X158834644Y-95935794D01*
X158834644Y-95935805D01*
X158853234Y-96160159D01*
X158853236Y-96160171D01*
X158908503Y-96378414D01*
X158998940Y-96584592D01*
X159122076Y-96773065D01*
X159122084Y-96773076D01*
X159274556Y-96938702D01*
X159274561Y-96938707D01*
X159318127Y-96972616D01*
X159452224Y-97076989D01*
X159452229Y-97076991D01*
X159452231Y-97076993D01*
X159488730Y-97096746D01*
X159538320Y-97145965D01*
X159553428Y-97214182D01*
X159529257Y-97279737D01*
X159488730Y-97314854D01*
X159452231Y-97334606D01*
X159452222Y-97334612D01*
X159274561Y-97472892D01*
X159274556Y-97472897D01*
X159122084Y-97638523D01*
X159122076Y-97638534D01*
X158998940Y-97827007D01*
X158908503Y-98033185D01*
X158853236Y-98251428D01*
X158853234Y-98251440D01*
X158834644Y-98475794D01*
X158834644Y-98475805D01*
X158853234Y-98700159D01*
X158853236Y-98700171D01*
X158908503Y-98918414D01*
X158998940Y-99124592D01*
X159122076Y-99313065D01*
X159122084Y-99313076D01*
X159274556Y-99478702D01*
X159274561Y-99478707D01*
X159318127Y-99512616D01*
X159452224Y-99616989D01*
X159452229Y-99616991D01*
X159452231Y-99616993D01*
X159488730Y-99636746D01*
X159538320Y-99685965D01*
X159553428Y-99754182D01*
X159529257Y-99819737D01*
X159488730Y-99854854D01*
X159452231Y-99874606D01*
X159452222Y-99874612D01*
X159274561Y-100012892D01*
X159274556Y-100012897D01*
X159122084Y-100178523D01*
X159122076Y-100178534D01*
X158998940Y-100367007D01*
X158908503Y-100573185D01*
X158853236Y-100791428D01*
X158853234Y-100791440D01*
X158834644Y-101015794D01*
X158834644Y-101015805D01*
X158853234Y-101240159D01*
X158853236Y-101240171D01*
X158908503Y-101458414D01*
X158998940Y-101664592D01*
X159122076Y-101853065D01*
X159122084Y-101853076D01*
X159274556Y-102018702D01*
X159274561Y-102018707D01*
X159318127Y-102052616D01*
X159452224Y-102156989D01*
X159452229Y-102156991D01*
X159452231Y-102156993D01*
X159488730Y-102176746D01*
X159538320Y-102225965D01*
X159553428Y-102294182D01*
X159529257Y-102359737D01*
X159488730Y-102394854D01*
X159452231Y-102414606D01*
X159452222Y-102414612D01*
X159274561Y-102552892D01*
X159274556Y-102552897D01*
X159122084Y-102718523D01*
X159122076Y-102718534D01*
X158998940Y-102907007D01*
X158908503Y-103113185D01*
X158853236Y-103331428D01*
X158853234Y-103331440D01*
X158834644Y-103555794D01*
X158834644Y-103555805D01*
X158853234Y-103780159D01*
X158853236Y-103780171D01*
X158908503Y-103998414D01*
X158998940Y-104204592D01*
X159122076Y-104393065D01*
X159122084Y-104393076D01*
X159274556Y-104558702D01*
X159274561Y-104558707D01*
X159318127Y-104592616D01*
X159452224Y-104696989D01*
X159452229Y-104696991D01*
X159452231Y-104696993D01*
X159488730Y-104716746D01*
X159538320Y-104765965D01*
X159553428Y-104834182D01*
X159529257Y-104899737D01*
X159488730Y-104934854D01*
X159452231Y-104954606D01*
X159452222Y-104954612D01*
X159274561Y-105092892D01*
X159274556Y-105092897D01*
X159122084Y-105258523D01*
X159122076Y-105258534D01*
X158998940Y-105447007D01*
X158908503Y-105653185D01*
X158853236Y-105871428D01*
X158853234Y-105871440D01*
X158834644Y-106095794D01*
X158834644Y-106095805D01*
X158853234Y-106320159D01*
X158853236Y-106320171D01*
X158908503Y-106538414D01*
X158998940Y-106744592D01*
X159122076Y-106933065D01*
X159122084Y-106933076D01*
X159274556Y-107098702D01*
X159274561Y-107098707D01*
X159318127Y-107132616D01*
X159452224Y-107236989D01*
X159452225Y-107236989D01*
X159452227Y-107236991D01*
X159578935Y-107305561D01*
X159650226Y-107344142D01*
X159863165Y-107417244D01*
X160085231Y-107454300D01*
X160310369Y-107454300D01*
X160532435Y-107417244D01*
X160745374Y-107344142D01*
X160943376Y-107236989D01*
X161121040Y-107098706D01*
X161273522Y-106933068D01*
X161396660Y-106744591D01*
X161461944Y-106595756D01*
X161506899Y-106542271D01*
X161573635Y-106521580D01*
X161640963Y-106540254D01*
X161687507Y-106592364D01*
X161699500Y-106645566D01*
X161699500Y-135075500D01*
X161679815Y-135142539D01*
X161627011Y-135188294D01*
X161575500Y-135199500D01*
X112424500Y-135199500D01*
X112357461Y-135179815D01*
X112311706Y-135127011D01*
X112300500Y-135075500D01*
X112300500Y-132370097D01*
X121349500Y-132370097D01*
X121349500Y-132629902D01*
X121390140Y-132886493D01*
X121470422Y-133133576D01*
X121551534Y-133292764D01*
X121588366Y-133365051D01*
X121741069Y-133575229D01*
X121924771Y-133758931D01*
X122134949Y-133911634D01*
X122282445Y-133986787D01*
X122366423Y-134029577D01*
X122366425Y-134029577D01*
X122366428Y-134029579D01*
X122613507Y-134109860D01*
X122745706Y-134130797D01*
X122870098Y-134150500D01*
X122870103Y-134150500D01*
X123129902Y-134150500D01*
X123243298Y-134132539D01*
X123386493Y-134109860D01*
X123633572Y-134029579D01*
X123865051Y-133911634D01*
X124075229Y-133758931D01*
X124258931Y-133575229D01*
X124411634Y-133365051D01*
X124529579Y-133133572D01*
X124609860Y-132886493D01*
X124632539Y-132743298D01*
X124650500Y-132629902D01*
X124650500Y-132370097D01*
X157349500Y-132370097D01*
X157349500Y-132629902D01*
X157390140Y-132886493D01*
X157470422Y-133133576D01*
X157551534Y-133292764D01*
X157588366Y-133365051D01*
X157741069Y-133575229D01*
X157924771Y-133758931D01*
X158134949Y-133911634D01*
X158282445Y-133986787D01*
X158366423Y-134029577D01*
X158366425Y-134029577D01*
X158366428Y-134029579D01*
X158613507Y-134109860D01*
X158745706Y-134130797D01*
X158870098Y-134150500D01*
X158870103Y-134150500D01*
X159129902Y-134150500D01*
X159243298Y-134132539D01*
X159386493Y-134109860D01*
X159633572Y-134029579D01*
X159865051Y-133911634D01*
X160075229Y-133758931D01*
X160258931Y-133575229D01*
X160411634Y-133365051D01*
X160529579Y-133133572D01*
X160609860Y-132886493D01*
X160632539Y-132743298D01*
X160650500Y-132629902D01*
X160650500Y-132370097D01*
X160628947Y-132234021D01*
X160609860Y-132113507D01*
X160529579Y-131866428D01*
X160529577Y-131866425D01*
X160529577Y-131866423D01*
X160486787Y-131782445D01*
X160411634Y-131634949D01*
X160258931Y-131424771D01*
X160075229Y-131241069D01*
X159865051Y-131088366D01*
X159792764Y-131051534D01*
X159633576Y-130970422D01*
X159386493Y-130890140D01*
X159129902Y-130849500D01*
X159129897Y-130849500D01*
X158870103Y-130849500D01*
X158870098Y-130849500D01*
X158613506Y-130890140D01*
X158366423Y-130970422D01*
X158134945Y-131088368D01*
X157924774Y-131241066D01*
X157924768Y-131241071D01*
X157741071Y-131424768D01*
X157741066Y-131424774D01*
X157588368Y-131634945D01*
X157470422Y-131866423D01*
X157390140Y-132113506D01*
X157349500Y-132370097D01*
X124650500Y-132370097D01*
X124628947Y-132234021D01*
X124609860Y-132113507D01*
X124529579Y-131866428D01*
X124529577Y-131866425D01*
X124529577Y-131866423D01*
X124486787Y-131782445D01*
X124411634Y-131634949D01*
X124258931Y-131424771D01*
X124075229Y-131241069D01*
X123865051Y-131088366D01*
X123792764Y-131051534D01*
X123633576Y-130970422D01*
X123386493Y-130890140D01*
X123129902Y-130849500D01*
X123129897Y-130849500D01*
X122870103Y-130849500D01*
X122870098Y-130849500D01*
X122613506Y-130890140D01*
X122366423Y-130970422D01*
X122134945Y-131088368D01*
X121924774Y-131241066D01*
X121924768Y-131241071D01*
X121741071Y-131424768D01*
X121741066Y-131424774D01*
X121588368Y-131634945D01*
X121470422Y-131866423D01*
X121390140Y-132113506D01*
X121349500Y-132370097D01*
X112300500Y-132370097D01*
X112300500Y-91449994D01*
X114586844Y-91449994D01*
X114586844Y-91450005D01*
X114605434Y-91674359D01*
X114605436Y-91674371D01*
X114660703Y-91892614D01*
X114751140Y-92098792D01*
X114874276Y-92287265D01*
X114874284Y-92287276D01*
X115026756Y-92452902D01*
X115026761Y-92452907D01*
X115039091Y-92462504D01*
X115204424Y-92591189D01*
X115204429Y-92591191D01*
X115204431Y-92591193D01*
X115240930Y-92610946D01*
X115290520Y-92660165D01*
X115305628Y-92728382D01*
X115281457Y-92793937D01*
X115240930Y-92829054D01*
X115204431Y-92848806D01*
X115204422Y-92848812D01*
X115026761Y-92987092D01*
X115026756Y-92987097D01*
X114874284Y-93152723D01*
X114874276Y-93152734D01*
X114751140Y-93341207D01*
X114660703Y-93547385D01*
X114605436Y-93765628D01*
X114605434Y-93765640D01*
X114586844Y-93989994D01*
X114586844Y-93990005D01*
X114605434Y-94214359D01*
X114605436Y-94214371D01*
X114660703Y-94432614D01*
X114751140Y-94638792D01*
X114874276Y-94827265D01*
X114874284Y-94827276D01*
X114978784Y-94940791D01*
X115026760Y-94992906D01*
X115204424Y-95131189D01*
X115204429Y-95131191D01*
X115204431Y-95131193D01*
X115240930Y-95150946D01*
X115290520Y-95200165D01*
X115305628Y-95268382D01*
X115281457Y-95333937D01*
X115240930Y-95369054D01*
X115204431Y-95388806D01*
X115204422Y-95388812D01*
X115026761Y-95527092D01*
X115026756Y-95527097D01*
X114874284Y-95692723D01*
X114874276Y-95692734D01*
X114751140Y-95881207D01*
X114660703Y-96087385D01*
X114605436Y-96305628D01*
X114605434Y-96305640D01*
X114586844Y-96529994D01*
X114586844Y-96530005D01*
X114605434Y-96754359D01*
X114605436Y-96754371D01*
X114660703Y-96972614D01*
X114751140Y-97178792D01*
X114874276Y-97367265D01*
X114874284Y-97367276D01*
X115026756Y-97532902D01*
X115026760Y-97532906D01*
X115204424Y-97671189D01*
X115204429Y-97671191D01*
X115204431Y-97671193D01*
X115240930Y-97690946D01*
X115290520Y-97740165D01*
X115305628Y-97808382D01*
X115281457Y-97873937D01*
X115240930Y-97909054D01*
X115204431Y-97928806D01*
X115204422Y-97928812D01*
X115026761Y-98067092D01*
X115026756Y-98067097D01*
X114874284Y-98232723D01*
X114874276Y-98232734D01*
X114751140Y-98421207D01*
X114660703Y-98627385D01*
X114605436Y-98845628D01*
X114605434Y-98845640D01*
X114586844Y-99069994D01*
X114586844Y-99070005D01*
X114605434Y-99294359D01*
X114605436Y-99294371D01*
X114660703Y-99512614D01*
X114751140Y-99718792D01*
X114874276Y-99907265D01*
X114874284Y-99907276D01*
X115026756Y-100072902D01*
X115026760Y-100072906D01*
X115204424Y-100211189D01*
X115204429Y-100211191D01*
X115204431Y-100211193D01*
X115240930Y-100230946D01*
X115290520Y-100280165D01*
X115305628Y-100348382D01*
X115281457Y-100413937D01*
X115240930Y-100449054D01*
X115204431Y-100468806D01*
X115204422Y-100468812D01*
X115026761Y-100607092D01*
X115026756Y-100607097D01*
X114874284Y-100772723D01*
X114874276Y-100772734D01*
X114751140Y-100961207D01*
X114660703Y-101167385D01*
X114605436Y-101385628D01*
X114605434Y-101385640D01*
X114586844Y-101609994D01*
X114586844Y-101610005D01*
X114605434Y-101834359D01*
X114605436Y-101834371D01*
X114660703Y-102052614D01*
X114751140Y-102258792D01*
X114874276Y-102447265D01*
X114874284Y-102447276D01*
X115011339Y-102596155D01*
X115026760Y-102612906D01*
X115204424Y-102751189D01*
X115204429Y-102751191D01*
X115204431Y-102751193D01*
X115240930Y-102770946D01*
X115290520Y-102820165D01*
X115305628Y-102888382D01*
X115281457Y-102953937D01*
X115240930Y-102989054D01*
X115204431Y-103008806D01*
X115204422Y-103008812D01*
X115026761Y-103147092D01*
X115026756Y-103147097D01*
X114874284Y-103312723D01*
X114874276Y-103312734D01*
X114751140Y-103501207D01*
X114660703Y-103707385D01*
X114605436Y-103925628D01*
X114605434Y-103925640D01*
X114586844Y-104149994D01*
X114586844Y-104150005D01*
X114605434Y-104374359D01*
X114605436Y-104374371D01*
X114660703Y-104592614D01*
X114751140Y-104798792D01*
X114874276Y-104987265D01*
X114874284Y-104987276D01*
X114971517Y-105092897D01*
X115026760Y-105152906D01*
X115204424Y-105291189D01*
X115204429Y-105291191D01*
X115204431Y-105291193D01*
X115240930Y-105310946D01*
X115290520Y-105360165D01*
X115305628Y-105428382D01*
X115281457Y-105493937D01*
X115240930Y-105529054D01*
X115204431Y-105548806D01*
X115204422Y-105548812D01*
X115026761Y-105687092D01*
X115026756Y-105687097D01*
X114874284Y-105852723D01*
X114874276Y-105852734D01*
X114751140Y-106041207D01*
X114660703Y-106247385D01*
X114605436Y-106465628D01*
X114605434Y-106465640D01*
X114586844Y-106689994D01*
X114586844Y-106690005D01*
X114605434Y-106914359D01*
X114605436Y-106914371D01*
X114660703Y-107132614D01*
X114751140Y-107338792D01*
X114874276Y-107527265D01*
X114874284Y-107527276D01*
X115026756Y-107692902D01*
X115026761Y-107692907D01*
X115060858Y-107719446D01*
X115204424Y-107831189D01*
X115204429Y-107831191D01*
X115204431Y-107831193D01*
X115240930Y-107850946D01*
X115290520Y-107900165D01*
X115305628Y-107968382D01*
X115281457Y-108033937D01*
X115240930Y-108069054D01*
X115204431Y-108088806D01*
X115204422Y-108088812D01*
X115026761Y-108227092D01*
X115026756Y-108227097D01*
X114874284Y-108392723D01*
X114874276Y-108392734D01*
X114751140Y-108581207D01*
X114660703Y-108787385D01*
X114605436Y-109005628D01*
X114605434Y-109005640D01*
X114586844Y-109229994D01*
X114586844Y-109230005D01*
X114605434Y-109454359D01*
X114605436Y-109454371D01*
X114660703Y-109672614D01*
X114751140Y-109878792D01*
X114874276Y-110067265D01*
X114874284Y-110067276D01*
X115026756Y-110232902D01*
X115026760Y-110232906D01*
X115204424Y-110371189D01*
X115204429Y-110371191D01*
X115204431Y-110371193D01*
X115240930Y-110390946D01*
X115290520Y-110440165D01*
X115305628Y-110508382D01*
X115281457Y-110573937D01*
X115240930Y-110609054D01*
X115204431Y-110628806D01*
X115204422Y-110628812D01*
X115026761Y-110767092D01*
X115026756Y-110767097D01*
X114874284Y-110932723D01*
X114874276Y-110932734D01*
X114751140Y-111121207D01*
X114660703Y-111327385D01*
X114605436Y-111545628D01*
X114605434Y-111545640D01*
X114586844Y-111769994D01*
X114586844Y-111770005D01*
X114605434Y-111994359D01*
X114605436Y-111994371D01*
X114660703Y-112212614D01*
X114751140Y-112418792D01*
X114874276Y-112607265D01*
X114874284Y-112607276D01*
X115026756Y-112772902D01*
X115026761Y-112772907D01*
X115064680Y-112802421D01*
X115204424Y-112911189D01*
X115204429Y-112911191D01*
X115204431Y-112911193D01*
X115240930Y-112930946D01*
X115290520Y-112980165D01*
X115305628Y-113048382D01*
X115281457Y-113113937D01*
X115240930Y-113149054D01*
X115204431Y-113168806D01*
X115204422Y-113168812D01*
X115026761Y-113307092D01*
X115026756Y-113307097D01*
X114874284Y-113472723D01*
X114874276Y-113472734D01*
X114751140Y-113661207D01*
X114660703Y-113867385D01*
X114605436Y-114085628D01*
X114605434Y-114085640D01*
X114586844Y-114309994D01*
X114586844Y-114310005D01*
X114605434Y-114534359D01*
X114605436Y-114534371D01*
X114660703Y-114752614D01*
X114751140Y-114958792D01*
X114874276Y-115147265D01*
X114874284Y-115147276D01*
X115026756Y-115312902D01*
X115026761Y-115312907D01*
X115071306Y-115347578D01*
X115204424Y-115451189D01*
X115204429Y-115451191D01*
X115204431Y-115451193D01*
X115240930Y-115470946D01*
X115290520Y-115520165D01*
X115305628Y-115588382D01*
X115281457Y-115653937D01*
X115240930Y-115689054D01*
X115204431Y-115708806D01*
X115204422Y-115708812D01*
X115026761Y-115847092D01*
X115026756Y-115847097D01*
X114874284Y-116012723D01*
X114874276Y-116012734D01*
X114751140Y-116201207D01*
X114660703Y-116407385D01*
X114605436Y-116625628D01*
X114605434Y-116625640D01*
X114586844Y-116849994D01*
X114586844Y-116850005D01*
X114605434Y-117074359D01*
X114605436Y-117074371D01*
X114660703Y-117292614D01*
X114751140Y-117498792D01*
X114874276Y-117687265D01*
X114874284Y-117687276D01*
X114979073Y-117801105D01*
X115026760Y-117852906D01*
X115204424Y-117991189D01*
X115204429Y-117991191D01*
X115204431Y-117991193D01*
X115240930Y-118010946D01*
X115290520Y-118060165D01*
X115305628Y-118128382D01*
X115281457Y-118193937D01*
X115240930Y-118229054D01*
X115204431Y-118248806D01*
X115204422Y-118248812D01*
X115026761Y-118387092D01*
X115026756Y-118387097D01*
X114874284Y-118552723D01*
X114874276Y-118552734D01*
X114751140Y-118741207D01*
X114660703Y-118947385D01*
X114605436Y-119165628D01*
X114605434Y-119165640D01*
X114586844Y-119389994D01*
X114586844Y-119390005D01*
X114605434Y-119614359D01*
X114605436Y-119614371D01*
X114660703Y-119832614D01*
X114751140Y-120038792D01*
X114874276Y-120227265D01*
X114874284Y-120227276D01*
X115017554Y-120382906D01*
X115026760Y-120392906D01*
X115204424Y-120531189D01*
X115245651Y-120553500D01*
X115247695Y-120554606D01*
X115297286Y-120603825D01*
X115312394Y-120672042D01*
X115288224Y-120737597D01*
X115259802Y-120765236D01*
X115078922Y-120891890D01*
X115078920Y-120891891D01*
X114911891Y-121058920D01*
X114911886Y-121058926D01*
X114776400Y-121252420D01*
X114776399Y-121252422D01*
X114676570Y-121466507D01*
X114676567Y-121466513D01*
X114619364Y-121679999D01*
X114619364Y-121680000D01*
X115516988Y-121680000D01*
X115484075Y-121737007D01*
X115450000Y-121864174D01*
X115450000Y-121995826D01*
X115484075Y-122122993D01*
X115516988Y-122180000D01*
X114619364Y-122180000D01*
X114676567Y-122393486D01*
X114676570Y-122393492D01*
X114776399Y-122607578D01*
X114911894Y-122801082D01*
X115078917Y-122968105D01*
X115259802Y-123094763D01*
X115303427Y-123149340D01*
X115310619Y-123218839D01*
X115279097Y-123281193D01*
X115247697Y-123305392D01*
X115204427Y-123328809D01*
X115204422Y-123328812D01*
X115026761Y-123467092D01*
X115026756Y-123467097D01*
X114874284Y-123632723D01*
X114874276Y-123632734D01*
X114751140Y-123821207D01*
X114660703Y-124027385D01*
X114605436Y-124245628D01*
X114605434Y-124245640D01*
X114586844Y-124469994D01*
X114586844Y-124470005D01*
X114605434Y-124694359D01*
X114605436Y-124694371D01*
X114660703Y-124912614D01*
X114751140Y-125118792D01*
X114874276Y-125307265D01*
X114874284Y-125307276D01*
X115024199Y-125470124D01*
X115026760Y-125472906D01*
X115204424Y-125611189D01*
X115204429Y-125611191D01*
X115204431Y-125611193D01*
X115240930Y-125630946D01*
X115290520Y-125680165D01*
X115305628Y-125748382D01*
X115281457Y-125813937D01*
X115240930Y-125849054D01*
X115204431Y-125868806D01*
X115204422Y-125868812D01*
X115026761Y-126007092D01*
X115026756Y-126007097D01*
X114874284Y-126172723D01*
X114874276Y-126172734D01*
X114751140Y-126361207D01*
X114660703Y-126567385D01*
X114605436Y-126785628D01*
X114605434Y-126785640D01*
X114586844Y-127009994D01*
X114586844Y-127010005D01*
X114605434Y-127234359D01*
X114605436Y-127234371D01*
X114660703Y-127452614D01*
X114751140Y-127658792D01*
X114874276Y-127847265D01*
X114874284Y-127847276D01*
X115019488Y-128005007D01*
X115026760Y-128012906D01*
X115204424Y-128151189D01*
X115204429Y-128151191D01*
X115204431Y-128151193D01*
X115240930Y-128170946D01*
X115290520Y-128220165D01*
X115305628Y-128288382D01*
X115281457Y-128353937D01*
X115240930Y-128389054D01*
X115204431Y-128408806D01*
X115204422Y-128408812D01*
X115026761Y-128547092D01*
X115026756Y-128547097D01*
X114874284Y-128712723D01*
X114874276Y-128712734D01*
X114751140Y-128901207D01*
X114660703Y-129107385D01*
X114605436Y-129325628D01*
X114605434Y-129325640D01*
X114586844Y-129549994D01*
X114586844Y-129550005D01*
X114605434Y-129774359D01*
X114605436Y-129774371D01*
X114660703Y-129992614D01*
X114751140Y-130198792D01*
X114874276Y-130387265D01*
X114874284Y-130387276D01*
X115000967Y-130524888D01*
X115026760Y-130552906D01*
X115204424Y-130691189D01*
X115204425Y-130691189D01*
X115204427Y-130691191D01*
X115331135Y-130759761D01*
X115402426Y-130798342D01*
X115615365Y-130871444D01*
X115837431Y-130908500D01*
X116062569Y-130908500D01*
X116284635Y-130871444D01*
X116497574Y-130798342D01*
X116695576Y-130691189D01*
X116873240Y-130552906D01*
X116936452Y-130484239D01*
X116996337Y-130448250D01*
X117066175Y-130450349D01*
X117123791Y-130489873D01*
X117143861Y-130524888D01*
X117189111Y-130646204D01*
X117276739Y-130763261D01*
X117393796Y-130850889D01*
X117530799Y-130901989D01*
X117558050Y-130904918D01*
X117591345Y-130908499D01*
X117591362Y-130908500D01*
X119388638Y-130908500D01*
X119388654Y-130908499D01*
X119415692Y-130905591D01*
X119449201Y-130901989D01*
X119586204Y-130850889D01*
X119703261Y-130763261D01*
X119790889Y-130646204D01*
X119841989Y-130509201D01*
X119845591Y-130475692D01*
X119848499Y-130448654D01*
X119848500Y-130448637D01*
X119848500Y-128651362D01*
X119848499Y-128651345D01*
X119844672Y-128615759D01*
X119841989Y-128590799D01*
X119790889Y-128453796D01*
X119703261Y-128336739D01*
X119586204Y-128249111D01*
X119468404Y-128205172D01*
X119412471Y-128163300D01*
X119388055Y-128097835D01*
X119402908Y-128029562D01*
X119420504Y-128005014D01*
X119565722Y-127847268D01*
X119688860Y-127658791D01*
X119779296Y-127452616D01*
X119834564Y-127234368D01*
X119844970Y-127108793D01*
X119853156Y-127010005D01*
X119853156Y-127009994D01*
X119834565Y-126785640D01*
X119834563Y-126785628D01*
X119779296Y-126567385D01*
X119710261Y-126410000D01*
X119688860Y-126361209D01*
X119672706Y-126336484D01*
X119565723Y-126172734D01*
X119565715Y-126172723D01*
X119413243Y-126007097D01*
X119413238Y-126007092D01*
X119235577Y-125868812D01*
X119235578Y-125868812D01*
X119235576Y-125868811D01*
X119199070Y-125849055D01*
X119149479Y-125799836D01*
X119134371Y-125731619D01*
X119158541Y-125666064D01*
X119199070Y-125630945D01*
X119199084Y-125630936D01*
X119235576Y-125611189D01*
X119413240Y-125472906D01*
X119522426Y-125354300D01*
X119565715Y-125307276D01*
X119565717Y-125307273D01*
X119565722Y-125307268D01*
X119688860Y-125118791D01*
X119779296Y-124912616D01*
X119834564Y-124694368D01*
X119846494Y-124550400D01*
X119849842Y-124509998D01*
X129328202Y-124509998D01*
X129328202Y-124510001D01*
X129348156Y-124738081D01*
X129348157Y-124738089D01*
X129407414Y-124959238D01*
X129407418Y-124959249D01*
X129467715Y-125088556D01*
X129504177Y-125166749D01*
X129635502Y-125354300D01*
X129635506Y-125354304D01*
X129783039Y-125501837D01*
X129816524Y-125563160D01*
X129811540Y-125632852D01*
X129769668Y-125688785D01*
X129738693Y-125705699D01*
X129595495Y-125759111D01*
X129478439Y-125846739D01*
X129390811Y-125963795D01*
X129339711Y-126100795D01*
X129339711Y-126100797D01*
X129333200Y-126161345D01*
X129333200Y-127858654D01*
X129339711Y-127919202D01*
X129339711Y-127919204D01*
X129374662Y-128012907D01*
X129390811Y-128056204D01*
X129478439Y-128173261D01*
X129595496Y-128260889D01*
X129732499Y-128311989D01*
X129759750Y-128314918D01*
X129793045Y-128318499D01*
X129793062Y-128318500D01*
X131490338Y-128318500D01*
X131490354Y-128318499D01*
X131517392Y-128315591D01*
X131550901Y-128311989D01*
X131687904Y-128260889D01*
X131804961Y-128173261D01*
X131892589Y-128056204D01*
X131943689Y-127919201D01*
X131947291Y-127885692D01*
X131950199Y-127858654D01*
X131950200Y-127858637D01*
X131950200Y-127446000D01*
X134727671Y-127446000D01*
X134746535Y-127625476D01*
X134793005Y-127768499D01*
X134802301Y-127797107D01*
X134892533Y-127953393D01*
X134934596Y-128000108D01*
X135013281Y-128087499D01*
X135013284Y-128087501D01*
X135013287Y-128087504D01*
X135128135Y-128170946D01*
X135159285Y-128193578D01*
X135324142Y-128266978D01*
X135324148Y-128266980D01*
X135500668Y-128304500D01*
X135500669Y-128304500D01*
X135681131Y-128304500D01*
X135681132Y-128304500D01*
X135857652Y-128266980D01*
X135857654Y-128266978D01*
X135857657Y-128266978D01*
X135913188Y-128242253D01*
X136022515Y-128193578D01*
X136168513Y-128087504D01*
X136289267Y-127953393D01*
X136379499Y-127797107D01*
X136435265Y-127625475D01*
X136454129Y-127446000D01*
X136435265Y-127266525D01*
X136379499Y-127094893D01*
X136289267Y-126938607D01*
X136241971Y-126886079D01*
X136168518Y-126804500D01*
X136168515Y-126804498D01*
X136168514Y-126804497D01*
X136168513Y-126804496D01*
X136022515Y-126698422D01*
X136022514Y-126698421D01*
X135857657Y-126625021D01*
X135857651Y-126625019D01*
X135718651Y-126595474D01*
X135681132Y-126587500D01*
X135500668Y-126587500D01*
X135469725Y-126594076D01*
X135324148Y-126625019D01*
X135324142Y-126625021D01*
X135159286Y-126698421D01*
X135159281Y-126698424D01*
X135013288Y-126804494D01*
X135013281Y-126804500D01*
X134892532Y-126938608D01*
X134802300Y-127094894D01*
X134746535Y-127266523D01*
X134727671Y-127446000D01*
X131950200Y-127446000D01*
X131950200Y-126161362D01*
X131950199Y-126161345D01*
X131946857Y-126130270D01*
X131943689Y-126100799D01*
X131892589Y-125963796D01*
X131804961Y-125846739D01*
X131687904Y-125759111D01*
X131659139Y-125748382D01*
X131544706Y-125705699D01*
X131488773Y-125663827D01*
X131464357Y-125598362D01*
X131479210Y-125530090D01*
X131493241Y-125511345D01*
X147231500Y-125511345D01*
X147231500Y-127308654D01*
X147238011Y-127369202D01*
X147238011Y-127369204D01*
X147285531Y-127496606D01*
X147289111Y-127506204D01*
X147376739Y-127623261D01*
X147493796Y-127710889D01*
X147630799Y-127761989D01*
X147658050Y-127764918D01*
X147691345Y-127768499D01*
X147691362Y-127768500D01*
X149488638Y-127768500D01*
X149488654Y-127768499D01*
X149515692Y-127765591D01*
X149549201Y-127761989D01*
X149686204Y-127710889D01*
X149803261Y-127623261D01*
X149890889Y-127506204D01*
X149936138Y-127384887D01*
X149978009Y-127328956D01*
X150043474Y-127304539D01*
X150111746Y-127319391D01*
X150143545Y-127344236D01*
X150206760Y-127412906D01*
X150384424Y-127551189D01*
X150384425Y-127551189D01*
X150384427Y-127551191D01*
X150511135Y-127619761D01*
X150582426Y-127658342D01*
X150795365Y-127731444D01*
X151017431Y-127768500D01*
X151242569Y-127768500D01*
X151464635Y-127731444D01*
X151677574Y-127658342D01*
X151875576Y-127551189D01*
X152053240Y-127412906D01*
X152187995Y-127266525D01*
X152205715Y-127247276D01*
X152205715Y-127247275D01*
X152205722Y-127247268D01*
X152296193Y-127108790D01*
X152349338Y-127063437D01*
X152418569Y-127054013D01*
X152481905Y-127083515D01*
X152503804Y-127108787D01*
X152594278Y-127247268D01*
X152594283Y-127247273D01*
X152594284Y-127247276D01*
X152720968Y-127384889D01*
X152746760Y-127412906D01*
X152924424Y-127551189D01*
X152924425Y-127551189D01*
X152924427Y-127551191D01*
X153051135Y-127619761D01*
X153122426Y-127658342D01*
X153335365Y-127731444D01*
X153557431Y-127768500D01*
X153782569Y-127768500D01*
X154004635Y-127731444D01*
X154217574Y-127658342D01*
X154415576Y-127551189D01*
X154593240Y-127412906D01*
X154727995Y-127266525D01*
X154745715Y-127247276D01*
X154745717Y-127247273D01*
X154745722Y-127247268D01*
X154868860Y-127058791D01*
X154959296Y-126852616D01*
X155014564Y-126634368D01*
X155018448Y-126587500D01*
X155033156Y-126410005D01*
X155033156Y-126409994D01*
X155014565Y-126185640D01*
X155014563Y-126185628D01*
X154959296Y-125967385D01*
X154957721Y-125963795D01*
X154868860Y-125761209D01*
X154867489Y-125759111D01*
X154745723Y-125572734D01*
X154745715Y-125572723D01*
X154593243Y-125407097D01*
X154593238Y-125407092D01*
X154415577Y-125268812D01*
X154415572Y-125268808D01*
X154217580Y-125161661D01*
X154217577Y-125161659D01*
X154217574Y-125161658D01*
X154217571Y-125161657D01*
X154217569Y-125161656D01*
X154004637Y-125088556D01*
X153782569Y-125051500D01*
X153557431Y-125051500D01*
X153335362Y-125088556D01*
X153122430Y-125161656D01*
X153122419Y-125161661D01*
X152924427Y-125268808D01*
X152924422Y-125268812D01*
X152746761Y-125407092D01*
X152746756Y-125407097D01*
X152594284Y-125572723D01*
X152594276Y-125572734D01*
X152503808Y-125711206D01*
X152450662Y-125756562D01*
X152381431Y-125765986D01*
X152318095Y-125736484D01*
X152296192Y-125711206D01*
X152205723Y-125572734D01*
X152205715Y-125572723D01*
X152053243Y-125407097D01*
X152053238Y-125407092D01*
X151875577Y-125268812D01*
X151875572Y-125268808D01*
X151677580Y-125161661D01*
X151677577Y-125161659D01*
X151677574Y-125161658D01*
X151677571Y-125161657D01*
X151677569Y-125161656D01*
X151464637Y-125088556D01*
X151242569Y-125051500D01*
X151017431Y-125051500D01*
X150795362Y-125088556D01*
X150582430Y-125161656D01*
X150582419Y-125161661D01*
X150384427Y-125268808D01*
X150384422Y-125268812D01*
X150206761Y-125407092D01*
X150143548Y-125475760D01*
X150083661Y-125511750D01*
X150013823Y-125509649D01*
X149956207Y-125470124D01*
X149936138Y-125435110D01*
X149890889Y-125313796D01*
X149857214Y-125268812D01*
X149803261Y-125196739D01*
X149686204Y-125109111D01*
X149549203Y-125058011D01*
X149488654Y-125051500D01*
X149488638Y-125051500D01*
X147691362Y-125051500D01*
X147691345Y-125051500D01*
X147630797Y-125058011D01*
X147630795Y-125058011D01*
X147493795Y-125109111D01*
X147376739Y-125196739D01*
X147289111Y-125313795D01*
X147238011Y-125450795D01*
X147238011Y-125450797D01*
X147231500Y-125511345D01*
X131493241Y-125511345D01*
X131500354Y-125501843D01*
X131647898Y-125354300D01*
X131779223Y-125166749D01*
X131875984Y-124959243D01*
X131935243Y-124738087D01*
X131951663Y-124550400D01*
X137851871Y-124550400D01*
X137870735Y-124729875D01*
X137926501Y-124901507D01*
X138016733Y-125057793D01*
X138044432Y-125088556D01*
X138137481Y-125191899D01*
X138137484Y-125191901D01*
X138137487Y-125191904D01*
X138243336Y-125268808D01*
X138283485Y-125297978D01*
X138448342Y-125371378D01*
X138448348Y-125371380D01*
X138624868Y-125408900D01*
X138624869Y-125408900D01*
X138805331Y-125408900D01*
X138805332Y-125408900D01*
X138981852Y-125371380D01*
X138981854Y-125371378D01*
X138981857Y-125371378D01*
X139111187Y-125313796D01*
X139146715Y-125297978D01*
X139292713Y-125191904D01*
X139315365Y-125166747D01*
X139319948Y-125161656D01*
X139413467Y-125057793D01*
X139503699Y-124901507D01*
X139559465Y-124729875D01*
X139578329Y-124550400D01*
X139559465Y-124370925D01*
X139503699Y-124199293D01*
X139413467Y-124043007D01*
X139359790Y-123983393D01*
X139292718Y-123908900D01*
X139292715Y-123908898D01*
X139292714Y-123908897D01*
X139292713Y-123908896D01*
X139195381Y-123838180D01*
X139146714Y-123802821D01*
X138981857Y-123729421D01*
X138981851Y-123729419D01*
X138842851Y-123699874D01*
X138805332Y-123691900D01*
X138624868Y-123691900D01*
X138593925Y-123698476D01*
X138448348Y-123729419D01*
X138448342Y-123729421D01*
X138283486Y-123802821D01*
X138283481Y-123802824D01*
X138137488Y-123908894D01*
X138137481Y-123908900D01*
X138016732Y-124043008D01*
X137926500Y-124199294D01*
X137870735Y-124370923D01*
X137856117Y-124510000D01*
X137851871Y-124550400D01*
X131951663Y-124550400D01*
X131955198Y-124510000D01*
X131951698Y-124470000D01*
X131949496Y-124444832D01*
X131935243Y-124281913D01*
X131875984Y-124060757D01*
X131860422Y-124027385D01*
X131805171Y-123908898D01*
X131779223Y-123853251D01*
X131647898Y-123665700D01*
X131486000Y-123503802D01*
X131298449Y-123372477D01*
X131298445Y-123372475D01*
X131090949Y-123275718D01*
X131090938Y-123275714D01*
X130869789Y-123216457D01*
X130869781Y-123216456D01*
X130641702Y-123196502D01*
X130641698Y-123196502D01*
X130413618Y-123216456D01*
X130413610Y-123216457D01*
X130192461Y-123275714D01*
X130192450Y-123275718D01*
X129984954Y-123372475D01*
X129984952Y-123372476D01*
X129984951Y-123372477D01*
X129797400Y-123503802D01*
X129797398Y-123503803D01*
X129797395Y-123503806D01*
X129635506Y-123665695D01*
X129635503Y-123665698D01*
X129635502Y-123665700D01*
X129590885Y-123729420D01*
X129504176Y-123853252D01*
X129504175Y-123853254D01*
X129407418Y-124060750D01*
X129407414Y-124060761D01*
X129348157Y-124281910D01*
X129348156Y-124281918D01*
X129328202Y-124509998D01*
X119849842Y-124509998D01*
X119853156Y-124470005D01*
X119853156Y-124469994D01*
X119834565Y-124245640D01*
X119834563Y-124245628D01*
X119787745Y-124060750D01*
X119779296Y-124027384D01*
X119688860Y-123821209D01*
X119676848Y-123802824D01*
X119565723Y-123632734D01*
X119565715Y-123632723D01*
X119413243Y-123467097D01*
X119413238Y-123467092D01*
X119235577Y-123328812D01*
X119235577Y-123328811D01*
X119192303Y-123305393D01*
X119142713Y-123256173D01*
X119127605Y-123187957D01*
X119151775Y-123122401D01*
X119180198Y-123094763D01*
X119361079Y-122968108D01*
X119528105Y-122801082D01*
X119663600Y-122607578D01*
X119763429Y-122393492D01*
X119763432Y-122393486D01*
X119820636Y-122180000D01*
X118923012Y-122180000D01*
X118955925Y-122122993D01*
X118990000Y-121995826D01*
X118990000Y-121864174D01*
X118955925Y-121737007D01*
X118923012Y-121680000D01*
X119820636Y-121680000D01*
X119820635Y-121679999D01*
X119763432Y-121466513D01*
X119763429Y-121466507D01*
X119663600Y-121252422D01*
X119663599Y-121252420D01*
X119528113Y-121058926D01*
X119528108Y-121058920D01*
X119474788Y-121005600D01*
X147777571Y-121005600D01*
X147796435Y-121185076D01*
X147830089Y-121288655D01*
X147852201Y-121356707D01*
X147942433Y-121512993D01*
X147984496Y-121559708D01*
X148063181Y-121647099D01*
X148063184Y-121647101D01*
X148063187Y-121647104D01*
X148186928Y-121737007D01*
X148209185Y-121753178D01*
X148374042Y-121826578D01*
X148374048Y-121826580D01*
X148550568Y-121864100D01*
X148550569Y-121864100D01*
X148731031Y-121864100D01*
X148731032Y-121864100D01*
X148907552Y-121826580D01*
X148907554Y-121826578D01*
X148907557Y-121826578D01*
X148963088Y-121801853D01*
X149072415Y-121753178D01*
X149218413Y-121647104D01*
X149339167Y-121512993D01*
X149397475Y-121412000D01*
X151435171Y-121412000D01*
X151454035Y-121591476D01*
X151501320Y-121737007D01*
X151509801Y-121763107D01*
X151600033Y-121919393D01*
X151642096Y-121966108D01*
X151720781Y-122053499D01*
X151720784Y-122053501D01*
X151720787Y-122053504D01*
X151866785Y-122159578D01*
X152031642Y-122232978D01*
X152031648Y-122232980D01*
X152208168Y-122270500D01*
X152208169Y-122270500D01*
X152388631Y-122270500D01*
X152388632Y-122270500D01*
X152565152Y-122232980D01*
X152565154Y-122232978D01*
X152565157Y-122232978D01*
X152620688Y-122208253D01*
X152730015Y-122159578D01*
X152876013Y-122053504D01*
X152996767Y-121919393D01*
X153086999Y-121763107D01*
X153142765Y-121591475D01*
X153161629Y-121412000D01*
X153142765Y-121232525D01*
X153086999Y-121060893D01*
X152996767Y-120904607D01*
X152926100Y-120826123D01*
X152876018Y-120770500D01*
X152876015Y-120770498D01*
X152876014Y-120770497D01*
X152876013Y-120770496D01*
X152752680Y-120680889D01*
X152730014Y-120664421D01*
X152565157Y-120591021D01*
X152565151Y-120591019D01*
X152393835Y-120554606D01*
X152388632Y-120553500D01*
X152208168Y-120553500D01*
X152202965Y-120554606D01*
X152031648Y-120591019D01*
X152031642Y-120591021D01*
X151866786Y-120664421D01*
X151866781Y-120664424D01*
X151720788Y-120770494D01*
X151720781Y-120770500D01*
X151600032Y-120904608D01*
X151509800Y-121060894D01*
X151454035Y-121232523D01*
X151435171Y-121412000D01*
X149397475Y-121412000D01*
X149429399Y-121356707D01*
X149485165Y-121185075D01*
X149504029Y-121005600D01*
X149485165Y-120826125D01*
X149429399Y-120654493D01*
X149339167Y-120498207D01*
X149244355Y-120392907D01*
X149218418Y-120364100D01*
X149218415Y-120364098D01*
X149218414Y-120364097D01*
X149218413Y-120364096D01*
X149115591Y-120289391D01*
X149072414Y-120258021D01*
X148907557Y-120184621D01*
X148907551Y-120184619D01*
X148768551Y-120155074D01*
X148731032Y-120147100D01*
X148550568Y-120147100D01*
X148519625Y-120153676D01*
X148374048Y-120184619D01*
X148374042Y-120184621D01*
X148209186Y-120258021D01*
X148209181Y-120258024D01*
X148063188Y-120364094D01*
X148063181Y-120364100D01*
X147942432Y-120498208D01*
X147852200Y-120654494D01*
X147796435Y-120826123D01*
X147777571Y-121005600D01*
X119474788Y-121005600D01*
X119361082Y-120891894D01*
X119180197Y-120765236D01*
X119136572Y-120710659D01*
X119129380Y-120641160D01*
X119160902Y-120578806D01*
X119192300Y-120554608D01*
X119235576Y-120531189D01*
X119413240Y-120392906D01*
X119565722Y-120227268D01*
X119688860Y-120038791D01*
X119779296Y-119832616D01*
X119834564Y-119614368D01*
X119834565Y-119614359D01*
X119844041Y-119500000D01*
X128086771Y-119500000D01*
X128105635Y-119679476D01*
X128152143Y-119822616D01*
X128161401Y-119851107D01*
X128251633Y-120007393D01*
X128266598Y-120024013D01*
X128372381Y-120141499D01*
X128372384Y-120141501D01*
X128372387Y-120141504D01*
X128476663Y-120217265D01*
X128518385Y-120247578D01*
X128683242Y-120320978D01*
X128683248Y-120320980D01*
X128859768Y-120358500D01*
X128859769Y-120358500D01*
X129040231Y-120358500D01*
X129040232Y-120358500D01*
X129216752Y-120320980D01*
X129216754Y-120320978D01*
X129216757Y-120320978D01*
X129311853Y-120278638D01*
X129381615Y-120247578D01*
X129527613Y-120141504D01*
X129648367Y-120007393D01*
X129738599Y-119851107D01*
X129794365Y-119679475D01*
X129813229Y-119500000D01*
X129794365Y-119320525D01*
X129738599Y-119148893D01*
X129648367Y-118992607D01*
X129598644Y-118937384D01*
X129527618Y-118858500D01*
X129527615Y-118858498D01*
X129527614Y-118858497D01*
X129527613Y-118858496D01*
X129381615Y-118752422D01*
X129381614Y-118752421D01*
X129216757Y-118679021D01*
X129216751Y-118679019D01*
X129077751Y-118649474D01*
X129040232Y-118641500D01*
X128859768Y-118641500D01*
X128828825Y-118648076D01*
X128683248Y-118679019D01*
X128683242Y-118679021D01*
X128518386Y-118752421D01*
X128518381Y-118752424D01*
X128372388Y-118858494D01*
X128372381Y-118858500D01*
X128251632Y-118992608D01*
X128161400Y-119148894D01*
X128105635Y-119320523D01*
X128086771Y-119500000D01*
X119844041Y-119500000D01*
X119853156Y-119390005D01*
X119853156Y-119389994D01*
X119834565Y-119165640D01*
X119834563Y-119165628D01*
X119779296Y-118947385D01*
X119774909Y-118937384D01*
X119688860Y-118741209D01*
X119682325Y-118731207D01*
X119565723Y-118552734D01*
X119565715Y-118552723D01*
X119500006Y-118481345D01*
X139411500Y-118481345D01*
X139411500Y-120278654D01*
X139418011Y-120339202D01*
X139418011Y-120339204D01*
X139469111Y-120476204D01*
X139556739Y-120593261D01*
X139673796Y-120680889D01*
X139810799Y-120731989D01*
X139838050Y-120734918D01*
X139871345Y-120738499D01*
X139871362Y-120738500D01*
X141668638Y-120738500D01*
X141668654Y-120738499D01*
X141695692Y-120735591D01*
X141729201Y-120731989D01*
X141866204Y-120680889D01*
X141983261Y-120593261D01*
X142070889Y-120476204D01*
X142116138Y-120354887D01*
X142158009Y-120298956D01*
X142223474Y-120274539D01*
X142291746Y-120289391D01*
X142323545Y-120314236D01*
X142386760Y-120382906D01*
X142564424Y-120521189D01*
X142564425Y-120521189D01*
X142564427Y-120521191D01*
X142626173Y-120554606D01*
X142762426Y-120628342D01*
X142975365Y-120701444D01*
X143197431Y-120738500D01*
X143422569Y-120738500D01*
X143644635Y-120701444D01*
X143857574Y-120628342D01*
X144055576Y-120521189D01*
X144233240Y-120382906D01*
X144348206Y-120258021D01*
X144385715Y-120217276D01*
X144385715Y-120217275D01*
X144385722Y-120217268D01*
X144476193Y-120078790D01*
X144529338Y-120033437D01*
X144598569Y-120024013D01*
X144661905Y-120053515D01*
X144683804Y-120078787D01*
X144774278Y-120217268D01*
X144774283Y-120217273D01*
X144774284Y-120217276D01*
X144926756Y-120382902D01*
X144926761Y-120382907D01*
X144939608Y-120392906D01*
X145104424Y-120521189D01*
X145104425Y-120521189D01*
X145104427Y-120521191D01*
X145166173Y-120554606D01*
X145302426Y-120628342D01*
X145515365Y-120701444D01*
X145737431Y-120738500D01*
X145962569Y-120738500D01*
X146184635Y-120701444D01*
X146397574Y-120628342D01*
X146595576Y-120521189D01*
X146773240Y-120382906D01*
X146888206Y-120258021D01*
X146925715Y-120217276D01*
X146925717Y-120217273D01*
X146925722Y-120217268D01*
X147048860Y-120028791D01*
X147139296Y-119822616D01*
X147194564Y-119604368D01*
X147197513Y-119568778D01*
X147213156Y-119380005D01*
X147213156Y-119379994D01*
X147194565Y-119155640D01*
X147194563Y-119155628D01*
X147155323Y-119000675D01*
X147139296Y-118937384D01*
X147088333Y-118821200D01*
X159283771Y-118821200D01*
X159302635Y-119000676D01*
X159356234Y-119165640D01*
X159358401Y-119172307D01*
X159448633Y-119328593D01*
X159490696Y-119375308D01*
X159569381Y-119462699D01*
X159569384Y-119462701D01*
X159569387Y-119462704D01*
X159715385Y-119568778D01*
X159880242Y-119642178D01*
X159880248Y-119642180D01*
X160056768Y-119679700D01*
X160056769Y-119679700D01*
X160237231Y-119679700D01*
X160237232Y-119679700D01*
X160413752Y-119642180D01*
X160413754Y-119642178D01*
X160413757Y-119642178D01*
X160476212Y-119614371D01*
X160578615Y-119568778D01*
X160724613Y-119462704D01*
X160845367Y-119328593D01*
X160935599Y-119172307D01*
X160991365Y-119000675D01*
X161010229Y-118821200D01*
X160991365Y-118641725D01*
X160935599Y-118470093D01*
X160845367Y-118313807D01*
X160786845Y-118248812D01*
X160724618Y-118179700D01*
X160724615Y-118179698D01*
X160724614Y-118179697D01*
X160724613Y-118179696D01*
X160612639Y-118098342D01*
X160578614Y-118073621D01*
X160413757Y-118000221D01*
X160413751Y-118000219D01*
X160274751Y-117970674D01*
X160237232Y-117962700D01*
X160056768Y-117962700D01*
X160025825Y-117969276D01*
X159880248Y-118000219D01*
X159880242Y-118000221D01*
X159715386Y-118073621D01*
X159715381Y-118073624D01*
X159569388Y-118179694D01*
X159569381Y-118179700D01*
X159448632Y-118313808D01*
X159358400Y-118470094D01*
X159302635Y-118641723D01*
X159283771Y-118821200D01*
X147088333Y-118821200D01*
X147048860Y-118731209D01*
X147032706Y-118706484D01*
X146987291Y-118636970D01*
X146925722Y-118542732D01*
X146925719Y-118542729D01*
X146925715Y-118542723D01*
X146773243Y-118377097D01*
X146773238Y-118377092D01*
X146595577Y-118238812D01*
X146595572Y-118238808D01*
X146397580Y-118131661D01*
X146397577Y-118131659D01*
X146397574Y-118131658D01*
X146397571Y-118131657D01*
X146397569Y-118131656D01*
X146184637Y-118058556D01*
X145962569Y-118021500D01*
X145737431Y-118021500D01*
X145515362Y-118058556D01*
X145302430Y-118131656D01*
X145302419Y-118131661D01*
X145104427Y-118238808D01*
X145104422Y-118238812D01*
X144926761Y-118377092D01*
X144926756Y-118377097D01*
X144774284Y-118542723D01*
X144774276Y-118542734D01*
X144683808Y-118681206D01*
X144630662Y-118726562D01*
X144561431Y-118735986D01*
X144498095Y-118706484D01*
X144476192Y-118681206D01*
X144418286Y-118592576D01*
X144385722Y-118542732D01*
X144385719Y-118542729D01*
X144385715Y-118542723D01*
X144233243Y-118377097D01*
X144233238Y-118377092D01*
X144055577Y-118238812D01*
X144055572Y-118238808D01*
X143857580Y-118131661D01*
X143857577Y-118131659D01*
X143857574Y-118131658D01*
X143857571Y-118131657D01*
X143857569Y-118131656D01*
X143644637Y-118058556D01*
X143422569Y-118021500D01*
X143197431Y-118021500D01*
X142975362Y-118058556D01*
X142762430Y-118131656D01*
X142762419Y-118131661D01*
X142564427Y-118238808D01*
X142564422Y-118238812D01*
X142386761Y-118377092D01*
X142323548Y-118445760D01*
X142263661Y-118481750D01*
X142193823Y-118479649D01*
X142136207Y-118440124D01*
X142116138Y-118405110D01*
X142070889Y-118283796D01*
X142061295Y-118270980D01*
X141983261Y-118166739D01*
X141866204Y-118079111D01*
X141851485Y-118073621D01*
X141729203Y-118028011D01*
X141668654Y-118021500D01*
X141668638Y-118021500D01*
X139871362Y-118021500D01*
X139871345Y-118021500D01*
X139810797Y-118028011D01*
X139810795Y-118028011D01*
X139673795Y-118079111D01*
X139556739Y-118166739D01*
X139469111Y-118283795D01*
X139418011Y-118420795D01*
X139418011Y-118420797D01*
X139411500Y-118481345D01*
X119500006Y-118481345D01*
X119413243Y-118387097D01*
X119413238Y-118387092D01*
X119235577Y-118248812D01*
X119235578Y-118248812D01*
X119235576Y-118248811D01*
X119199070Y-118229055D01*
X119149479Y-118179836D01*
X119134371Y-118111619D01*
X119158541Y-118046064D01*
X119199070Y-118010945D01*
X119199084Y-118010936D01*
X119235576Y-117991189D01*
X119413240Y-117852906D01*
X119565722Y-117687268D01*
X119688860Y-117498791D01*
X119710262Y-117450000D01*
X123786771Y-117450000D01*
X123805635Y-117629476D01*
X123824414Y-117687273D01*
X123861401Y-117801107D01*
X123951633Y-117957393D01*
X123993696Y-118004108D01*
X124072381Y-118091499D01*
X124072384Y-118091501D01*
X124072387Y-118091504D01*
X124193778Y-118179700D01*
X124218385Y-118197578D01*
X124383242Y-118270978D01*
X124383248Y-118270980D01*
X124559768Y-118308500D01*
X124559769Y-118308500D01*
X124740231Y-118308500D01*
X124740232Y-118308500D01*
X124916752Y-118270980D01*
X124916754Y-118270978D01*
X124916757Y-118270978D01*
X124989011Y-118238808D01*
X125081615Y-118197578D01*
X125227613Y-118091504D01*
X125348367Y-117957393D01*
X125438599Y-117801107D01*
X125494365Y-117629475D01*
X125513229Y-117450000D01*
X125494365Y-117270525D01*
X125438599Y-117098893D01*
X125348367Y-116942607D01*
X125301071Y-116890079D01*
X125227618Y-116808500D01*
X125227615Y-116808498D01*
X125227614Y-116808497D01*
X125227613Y-116808496D01*
X125081615Y-116702422D01*
X125081614Y-116702421D01*
X124916757Y-116629021D01*
X124916751Y-116629019D01*
X124777751Y-116599474D01*
X124740232Y-116591500D01*
X124559768Y-116591500D01*
X124528825Y-116598076D01*
X124383248Y-116629019D01*
X124383242Y-116629021D01*
X124218386Y-116702421D01*
X124218381Y-116702424D01*
X124072388Y-116808494D01*
X124072381Y-116808500D01*
X123951632Y-116942608D01*
X123861400Y-117098894D01*
X123805635Y-117270523D01*
X123786771Y-117450000D01*
X119710262Y-117450000D01*
X119779296Y-117292616D01*
X119834564Y-117074368D01*
X119845482Y-116942608D01*
X119853156Y-116850005D01*
X119853156Y-116849994D01*
X119834565Y-116625640D01*
X119834563Y-116625628D01*
X119779296Y-116407385D01*
X119688859Y-116201207D01*
X119605032Y-116072900D01*
X119565722Y-116012732D01*
X119565719Y-116012729D01*
X119565715Y-116012723D01*
X119413243Y-115847097D01*
X119413238Y-115847092D01*
X119252255Y-115721793D01*
X119235576Y-115708811D01*
X119199070Y-115689055D01*
X119149479Y-115639836D01*
X119134371Y-115571619D01*
X119158541Y-115506064D01*
X119199070Y-115470945D01*
X119199084Y-115470936D01*
X119235576Y-115451189D01*
X119413240Y-115312906D01*
X119565722Y-115147268D01*
X119688860Y-114958791D01*
X119779296Y-114752616D01*
X119817944Y-114600000D01*
X152236771Y-114600000D01*
X152255635Y-114779476D01*
X152282868Y-114863293D01*
X152311401Y-114951107D01*
X152401633Y-115107393D01*
X152437534Y-115147265D01*
X152522381Y-115241499D01*
X152522384Y-115241501D01*
X152522387Y-115241504D01*
X152620665Y-115312907D01*
X152668385Y-115347578D01*
X152833242Y-115420978D01*
X152833248Y-115420980D01*
X153009768Y-115458500D01*
X153009769Y-115458500D01*
X153190231Y-115458500D01*
X153190232Y-115458500D01*
X153366752Y-115420980D01*
X153441604Y-115387653D01*
X153510851Y-115378368D01*
X153574128Y-115407996D01*
X153609969Y-115462615D01*
X153641073Y-115558342D01*
X153643401Y-115565507D01*
X153733633Y-115721793D01*
X153775696Y-115768508D01*
X153854381Y-115855899D01*
X153854384Y-115855901D01*
X153854387Y-115855904D01*
X154000385Y-115961978D01*
X154165242Y-116035378D01*
X154165248Y-116035380D01*
X154341768Y-116072900D01*
X154341769Y-116072900D01*
X154522231Y-116072900D01*
X154522232Y-116072900D01*
X154698752Y-116035380D01*
X154698754Y-116035378D01*
X154698757Y-116035378D01*
X154754288Y-116010653D01*
X154863615Y-115961978D01*
X155009613Y-115855904D01*
X155017548Y-115847092D01*
X155035775Y-115826847D01*
X155130367Y-115721793D01*
X155220599Y-115565507D01*
X155276365Y-115393875D01*
X155295229Y-115214400D01*
X155276365Y-115034925D01*
X155220599Y-114863293D01*
X155130367Y-114707007D01*
X155034018Y-114600000D01*
X155009618Y-114572900D01*
X155009615Y-114572898D01*
X155009614Y-114572897D01*
X155009613Y-114572896D01*
X154863615Y-114466822D01*
X154863614Y-114466821D01*
X154698757Y-114393421D01*
X154698751Y-114393419D01*
X154559751Y-114363874D01*
X154522232Y-114355900D01*
X154341768Y-114355900D01*
X154310825Y-114362476D01*
X154165248Y-114393419D01*
X154165246Y-114393420D01*
X154090396Y-114426746D01*
X154021146Y-114436030D01*
X153957870Y-114406402D01*
X153922030Y-114351784D01*
X153908452Y-114309994D01*
X153888599Y-114248893D01*
X153798367Y-114092607D01*
X153751071Y-114040079D01*
X153677618Y-113958500D01*
X153677615Y-113958498D01*
X153677614Y-113958497D01*
X153677613Y-113958496D01*
X153552210Y-113867385D01*
X153531614Y-113852421D01*
X153366757Y-113779021D01*
X153366751Y-113779019D01*
X153227751Y-113749474D01*
X153190232Y-113741500D01*
X153009768Y-113741500D01*
X152978825Y-113748076D01*
X152833248Y-113779019D01*
X152833242Y-113779021D01*
X152668386Y-113852421D01*
X152668381Y-113852424D01*
X152522388Y-113958494D01*
X152522381Y-113958500D01*
X152401632Y-114092608D01*
X152311400Y-114248894D01*
X152255635Y-114420523D01*
X152236771Y-114600000D01*
X119817944Y-114600000D01*
X119834564Y-114534368D01*
X119840161Y-114466822D01*
X119853156Y-114310005D01*
X119853156Y-114309994D01*
X119834565Y-114085640D01*
X119834563Y-114085628D01*
X119787835Y-113901105D01*
X119779296Y-113867384D01*
X119688860Y-113661209D01*
X119672706Y-113636484D01*
X119616203Y-113550000D01*
X123786771Y-113550000D01*
X123805635Y-113729476D01*
X123851611Y-113870978D01*
X123861401Y-113901107D01*
X123951633Y-114057393D01*
X123977067Y-114085640D01*
X124072381Y-114191499D01*
X124072384Y-114191501D01*
X124072387Y-114191504D01*
X124218385Y-114297578D01*
X124383242Y-114370978D01*
X124383248Y-114370980D01*
X124559768Y-114408500D01*
X124559769Y-114408500D01*
X124740231Y-114408500D01*
X124740232Y-114408500D01*
X124916752Y-114370980D01*
X124916754Y-114370978D01*
X124916757Y-114370978D01*
X124994469Y-114336378D01*
X125081615Y-114297578D01*
X125227613Y-114191504D01*
X125348367Y-114057393D01*
X125438599Y-113901107D01*
X125494365Y-113729475D01*
X125513229Y-113550000D01*
X125494365Y-113370525D01*
X125438599Y-113198893D01*
X125352635Y-113050000D01*
X143086771Y-113050000D01*
X143105635Y-113229476D01*
X143151463Y-113370523D01*
X143161401Y-113401107D01*
X143251633Y-113557393D01*
X143279912Y-113588800D01*
X143372381Y-113691499D01*
X143372384Y-113691501D01*
X143372387Y-113691504D01*
X143492841Y-113779019D01*
X143518385Y-113797578D01*
X143683242Y-113870978D01*
X143683248Y-113870980D01*
X143859768Y-113908500D01*
X143859769Y-113908500D01*
X144040231Y-113908500D01*
X144040232Y-113908500D01*
X144216752Y-113870980D01*
X144216754Y-113870978D01*
X144216757Y-113870978D01*
X144272288Y-113846253D01*
X144381615Y-113797578D01*
X144527613Y-113691504D01*
X144550590Y-113665986D01*
X144577153Y-113636484D01*
X144620088Y-113588800D01*
X159131371Y-113588800D01*
X159150235Y-113768276D01*
X159193393Y-113901105D01*
X159206001Y-113939907D01*
X159296233Y-114096193D01*
X159338296Y-114142908D01*
X159416981Y-114230299D01*
X159416984Y-114230301D01*
X159416987Y-114230304D01*
X159509582Y-114297578D01*
X159562985Y-114336378D01*
X159727842Y-114409778D01*
X159727848Y-114409780D01*
X159904368Y-114447300D01*
X159904369Y-114447300D01*
X160084831Y-114447300D01*
X160084832Y-114447300D01*
X160261352Y-114409780D01*
X160261354Y-114409778D01*
X160261357Y-114409778D01*
X160348502Y-114370978D01*
X160426215Y-114336378D01*
X160572213Y-114230304D01*
X160692967Y-114096193D01*
X160783199Y-113939907D01*
X160838965Y-113768275D01*
X160857829Y-113588800D01*
X160838965Y-113409325D01*
X160783199Y-113237693D01*
X160692967Y-113081407D01*
X160636183Y-113018342D01*
X160572218Y-112947300D01*
X160572215Y-112947298D01*
X160572214Y-112947297D01*
X160572213Y-112947296D01*
X160426215Y-112841222D01*
X160426214Y-112841221D01*
X160261357Y-112767821D01*
X160261351Y-112767819D01*
X160122351Y-112738274D01*
X160084832Y-112730300D01*
X159904368Y-112730300D01*
X159873425Y-112736876D01*
X159727848Y-112767819D01*
X159727842Y-112767821D01*
X159562986Y-112841221D01*
X159562981Y-112841224D01*
X159416988Y-112947294D01*
X159416981Y-112947300D01*
X159296232Y-113081408D01*
X159206000Y-113237694D01*
X159150235Y-113409323D01*
X159131371Y-113588800D01*
X144620088Y-113588800D01*
X144648367Y-113557393D01*
X144738599Y-113401107D01*
X144794365Y-113229475D01*
X144813229Y-113050000D01*
X144794365Y-112870525D01*
X144738599Y-112698893D01*
X144648367Y-112542607D01*
X144601071Y-112490079D01*
X144527618Y-112408500D01*
X144527615Y-112408498D01*
X144527614Y-112408497D01*
X144527613Y-112408496D01*
X144430281Y-112337780D01*
X144381614Y-112302421D01*
X144216757Y-112229021D01*
X144216751Y-112229019D01*
X144077751Y-112199474D01*
X144040232Y-112191500D01*
X143859768Y-112191500D01*
X143828825Y-112198076D01*
X143683248Y-112229019D01*
X143683242Y-112229021D01*
X143518386Y-112302421D01*
X143518381Y-112302424D01*
X143372388Y-112408494D01*
X143372381Y-112408500D01*
X143251632Y-112542608D01*
X143161400Y-112698894D01*
X143105635Y-112870523D01*
X143086771Y-113050000D01*
X125352635Y-113050000D01*
X125348367Y-113042607D01*
X125292144Y-112980165D01*
X125227618Y-112908500D01*
X125227615Y-112908498D01*
X125227614Y-112908497D01*
X125227613Y-112908496D01*
X125081615Y-112802422D01*
X125081614Y-112802421D01*
X124916757Y-112729021D01*
X124916751Y-112729019D01*
X124775014Y-112698893D01*
X124740232Y-112691500D01*
X124559768Y-112691500D01*
X124528825Y-112698076D01*
X124383248Y-112729019D01*
X124383242Y-112729021D01*
X124218386Y-112802421D01*
X124218381Y-112802424D01*
X124072388Y-112908494D01*
X124072381Y-112908500D01*
X123951632Y-113042608D01*
X123861400Y-113198894D01*
X123805635Y-113370523D01*
X123786771Y-113550000D01*
X119616203Y-113550000D01*
X119565723Y-113472734D01*
X119565715Y-113472723D01*
X119413243Y-113307097D01*
X119413238Y-113307092D01*
X119235577Y-113168812D01*
X119235578Y-113168812D01*
X119235576Y-113168811D01*
X119199070Y-113149055D01*
X119149479Y-113099836D01*
X119134371Y-113031619D01*
X119158541Y-112966064D01*
X119199070Y-112930945D01*
X119199084Y-112930936D01*
X119235576Y-112911189D01*
X119413240Y-112772906D01*
X119565722Y-112607268D01*
X119688860Y-112418791D01*
X119779296Y-112212616D01*
X119834564Y-111994368D01*
X119838945Y-111941499D01*
X119853156Y-111770005D01*
X119853156Y-111769994D01*
X119834565Y-111545640D01*
X119834563Y-111545628D01*
X119804807Y-111428125D01*
X119779296Y-111327384D01*
X119688860Y-111121209D01*
X119680542Y-111108478D01*
X119598890Y-110983500D01*
X119565722Y-110932732D01*
X119565719Y-110932729D01*
X119565715Y-110932723D01*
X119413243Y-110767097D01*
X119413238Y-110767092D01*
X119240178Y-110632393D01*
X119235576Y-110628811D01*
X119199070Y-110609055D01*
X119149479Y-110559836D01*
X119134371Y-110491619D01*
X119144333Y-110464600D01*
X125349371Y-110464600D01*
X125368235Y-110644076D01*
X125417237Y-110794891D01*
X125424001Y-110815707D01*
X125514233Y-110971993D01*
X125556296Y-111018708D01*
X125634981Y-111106099D01*
X125634984Y-111106101D01*
X125634987Y-111106104D01*
X125746025Y-111186778D01*
X125780985Y-111212178D01*
X125945842Y-111285578D01*
X125945848Y-111285580D01*
X126122368Y-111323100D01*
X126122369Y-111323100D01*
X126302831Y-111323100D01*
X126302832Y-111323100D01*
X126479352Y-111285580D01*
X126479354Y-111285578D01*
X126479357Y-111285578D01*
X126557190Y-111250924D01*
X126644215Y-111212178D01*
X126790213Y-111106104D01*
X126907852Y-110975451D01*
X126967336Y-110938806D01*
X127037193Y-110940135D01*
X127092146Y-110975451D01*
X127209787Y-111106104D01*
X127259498Y-111142221D01*
X127355785Y-111212178D01*
X127520642Y-111285578D01*
X127520648Y-111285580D01*
X127697168Y-111323100D01*
X127697169Y-111323100D01*
X127877631Y-111323100D01*
X127877632Y-111323100D01*
X127986310Y-111300000D01*
X150895659Y-111300000D01*
X150914523Y-111479476D01*
X150968956Y-111647006D01*
X150970289Y-111651107D01*
X151060521Y-111807393D01*
X151102584Y-111854108D01*
X151181269Y-111941499D01*
X151181272Y-111941501D01*
X151181275Y-111941504D01*
X151327273Y-112047578D01*
X151492130Y-112120978D01*
X151492136Y-112120980D01*
X151668656Y-112158500D01*
X151668657Y-112158500D01*
X151849119Y-112158500D01*
X151849120Y-112158500D01*
X152025640Y-112120980D01*
X152025642Y-112120978D01*
X152025645Y-112120978D01*
X152081176Y-112096253D01*
X152190503Y-112047578D01*
X152306639Y-111963200D01*
X153695771Y-111963200D01*
X153714635Y-112142676D01*
X153749214Y-112249101D01*
X153770401Y-112314307D01*
X153860633Y-112470593D01*
X153902696Y-112517308D01*
X153981381Y-112604699D01*
X153981384Y-112604701D01*
X153981387Y-112604704D01*
X154100851Y-112691500D01*
X154127385Y-112710778D01*
X154292242Y-112784178D01*
X154292248Y-112784180D01*
X154468768Y-112821700D01*
X154468769Y-112821700D01*
X154649231Y-112821700D01*
X154649232Y-112821700D01*
X154825752Y-112784180D01*
X154825754Y-112784178D01*
X154825757Y-112784178D01*
X154881288Y-112759453D01*
X154990615Y-112710778D01*
X155136613Y-112604704D01*
X155257367Y-112470593D01*
X155344384Y-112319876D01*
X155394951Y-112271660D01*
X155463558Y-112258437D01*
X155524654Y-112281557D01*
X155625985Y-112355178D01*
X155790842Y-112428578D01*
X155790848Y-112428580D01*
X155967368Y-112466100D01*
X155967369Y-112466100D01*
X156147831Y-112466100D01*
X156147832Y-112466100D01*
X156324352Y-112428580D01*
X156324354Y-112428578D01*
X156324357Y-112428578D01*
X156379888Y-112403853D01*
X156489215Y-112355178D01*
X156635213Y-112249104D01*
X156755967Y-112114993D01*
X156846199Y-111958707D01*
X156901965Y-111787075D01*
X156920829Y-111607600D01*
X156901965Y-111428125D01*
X156846199Y-111256493D01*
X156755967Y-111100207D01*
X156684629Y-111020978D01*
X156635218Y-110966100D01*
X156635215Y-110966098D01*
X156635214Y-110966097D01*
X156635213Y-110966096D01*
X156489215Y-110860022D01*
X156489214Y-110860021D01*
X156324357Y-110786621D01*
X156324351Y-110786619D01*
X156185351Y-110757074D01*
X156147832Y-110749100D01*
X155967368Y-110749100D01*
X155936425Y-110755676D01*
X155790848Y-110786619D01*
X155790842Y-110786621D01*
X155625986Y-110860021D01*
X155625981Y-110860024D01*
X155479988Y-110966094D01*
X155479981Y-110966100D01*
X155359232Y-111100208D01*
X155272216Y-111250924D01*
X155221649Y-111299140D01*
X155153042Y-111312363D01*
X155091945Y-111289242D01*
X154990615Y-111215622D01*
X154990614Y-111215621D01*
X154825757Y-111142221D01*
X154825751Y-111142219D01*
X154686751Y-111112674D01*
X154649232Y-111104700D01*
X154468768Y-111104700D01*
X154437825Y-111111276D01*
X154292248Y-111142219D01*
X154292242Y-111142221D01*
X154127386Y-111215621D01*
X154127381Y-111215624D01*
X153981388Y-111321694D01*
X153981381Y-111321700D01*
X153860632Y-111455808D01*
X153770400Y-111612094D01*
X153714635Y-111783723D01*
X153695771Y-111963200D01*
X152306639Y-111963200D01*
X152336501Y-111941504D01*
X152457255Y-111807393D01*
X152547487Y-111651107D01*
X152547487Y-111651104D01*
X152549854Y-111647006D01*
X152600421Y-111598791D01*
X152631455Y-111587716D01*
X152734364Y-111565844D01*
X152899227Y-111492442D01*
X153045225Y-111386368D01*
X153165979Y-111252257D01*
X153256211Y-111095971D01*
X153267110Y-111062428D01*
X153306547Y-111004752D01*
X153359259Y-110979455D01*
X153516752Y-110945980D01*
X153516755Y-110945978D01*
X153516757Y-110945978D01*
X153572288Y-110921253D01*
X153681615Y-110872578D01*
X153827613Y-110766504D01*
X153835178Y-110758103D01*
X153853775Y-110737447D01*
X153948367Y-110632393D01*
X154038599Y-110476107D01*
X154094365Y-110304475D01*
X154113229Y-110125000D01*
X154094365Y-109945525D01*
X154038599Y-109773893D01*
X153948367Y-109617607D01*
X153895143Y-109558496D01*
X153827618Y-109483500D01*
X153827615Y-109483498D01*
X153827614Y-109483497D01*
X153827613Y-109483496D01*
X153701595Y-109391938D01*
X153681616Y-109377422D01*
X153672060Y-109373168D01*
X153667167Y-109370989D01*
X153613932Y-109325739D01*
X153593611Y-109258890D01*
X153612657Y-109191666D01*
X153644720Y-109157393D01*
X153668435Y-109140163D01*
X153752613Y-109079004D01*
X153873367Y-108944893D01*
X153963599Y-108788607D01*
X154019365Y-108616975D01*
X154038229Y-108437500D01*
X154019365Y-108258025D01*
X153963599Y-108086393D01*
X153963596Y-108086389D01*
X153963164Y-108085057D01*
X153961169Y-108015216D01*
X153997249Y-107955383D01*
X154059950Y-107924555D01*
X154129365Y-107932520D01*
X154153980Y-107946421D01*
X154206949Y-107984905D01*
X154206954Y-107984908D01*
X154317074Y-108033937D01*
X154371817Y-108058310D01*
X154489532Y-108083330D01*
X154551009Y-108116521D01*
X154571131Y-108142615D01*
X154587508Y-108170980D01*
X154656219Y-108289992D01*
X154776968Y-108424099D01*
X154776971Y-108424101D01*
X154776974Y-108424104D01*
X154922972Y-108530178D01*
X154980221Y-108555667D01*
X155033456Y-108600915D01*
X155053104Y-108655979D01*
X155055433Y-108678133D01*
X155055435Y-108678143D01*
X155091326Y-108788607D01*
X155111200Y-108849771D01*
X155201432Y-109006057D01*
X155243495Y-109052772D01*
X155322180Y-109140163D01*
X155322183Y-109140165D01*
X155322186Y-109140168D01*
X155421686Y-109212459D01*
X155468184Y-109246242D01*
X155633041Y-109319642D01*
X155633047Y-109319644D01*
X155809567Y-109357164D01*
X155809568Y-109357164D01*
X155990030Y-109357164D01*
X155990031Y-109357164D01*
X156166551Y-109319644D01*
X156166553Y-109319642D01*
X156166556Y-109319642D01*
X156270688Y-109273279D01*
X156331414Y-109246242D01*
X156477412Y-109140168D01*
X156598166Y-109006057D01*
X156688398Y-108849771D01*
X156744164Y-108678139D01*
X156763028Y-108498664D01*
X156744164Y-108319189D01*
X156688398Y-108147557D01*
X156598166Y-107991271D01*
X156550509Y-107938342D01*
X156477417Y-107857164D01*
X156477414Y-107857162D01*
X156477413Y-107857161D01*
X156477412Y-107857160D01*
X156331414Y-107751086D01*
X156331413Y-107751085D01*
X156274164Y-107725596D01*
X156220928Y-107680345D01*
X156201280Y-107625282D01*
X156198952Y-107603125D01*
X156143186Y-107431493D01*
X156052954Y-107275207D01*
X156005658Y-107222679D01*
X155932205Y-107141100D01*
X155932202Y-107141098D01*
X155932201Y-107141097D01*
X155932200Y-107141096D01*
X155786202Y-107035022D01*
X155786201Y-107035021D01*
X155621344Y-106961621D01*
X155621338Y-106961619D01*
X155520860Y-106940262D01*
X155503626Y-106936599D01*
X155442145Y-106903408D01*
X155422025Y-106877316D01*
X155336936Y-106729937D01*
X155317632Y-106708498D01*
X155216187Y-106595830D01*
X155216184Y-106595828D01*
X155216183Y-106595827D01*
X155216182Y-106595826D01*
X155070184Y-106489752D01*
X155070183Y-106489751D01*
X154905326Y-106416351D01*
X154905320Y-106416349D01*
X154766320Y-106386804D01*
X154728801Y-106378830D01*
X154548337Y-106378830D01*
X154517394Y-106385406D01*
X154371817Y-106416349D01*
X154371811Y-106416351D01*
X154206955Y-106489751D01*
X154206950Y-106489754D01*
X154060957Y-106595824D01*
X154060950Y-106595830D01*
X153940201Y-106729938D01*
X153849969Y-106886224D01*
X153794204Y-107057853D01*
X153775340Y-107237330D01*
X153794204Y-107416806D01*
X153850404Y-107589772D01*
X153852399Y-107659614D01*
X153816318Y-107719446D01*
X153753617Y-107750274D01*
X153684203Y-107742309D01*
X153659588Y-107728409D01*
X153641964Y-107715605D01*
X153606615Y-107689922D01*
X153606613Y-107689921D01*
X153606614Y-107689921D01*
X153441757Y-107616521D01*
X153441751Y-107616519D01*
X153302751Y-107586974D01*
X153265232Y-107579000D01*
X153084768Y-107579000D01*
X153053825Y-107585576D01*
X152908248Y-107616519D01*
X152908242Y-107616521D01*
X152743386Y-107689921D01*
X152743381Y-107689924D01*
X152597388Y-107795994D01*
X152597381Y-107796000D01*
X152476632Y-107930108D01*
X152386400Y-108086394D01*
X152330635Y-108258023D01*
X152311771Y-108437500D01*
X152330635Y-108616976D01*
X152386003Y-108787384D01*
X152386401Y-108788607D01*
X152476633Y-108944893D01*
X152518696Y-108991608D01*
X152597381Y-109078999D01*
X152597384Y-109079001D01*
X152597387Y-109079004D01*
X152743385Y-109185078D01*
X152757829Y-109191509D01*
X152811066Y-109236756D01*
X152831389Y-109303604D01*
X152812346Y-109370829D01*
X152780281Y-109405106D01*
X152672384Y-109483498D01*
X152672381Y-109483500D01*
X152551632Y-109617608D01*
X152461401Y-109773892D01*
X152461396Y-109773903D01*
X152450500Y-109807438D01*
X152411062Y-109865113D01*
X152358351Y-109890408D01*
X152200860Y-109923883D01*
X152200854Y-109923885D01*
X152035998Y-109997285D01*
X152035993Y-109997288D01*
X151890000Y-110103358D01*
X151889993Y-110103364D01*
X151769244Y-110237472D01*
X151676646Y-110397857D01*
X151626079Y-110446073D01*
X151595040Y-110457147D01*
X151492136Y-110479019D01*
X151492131Y-110479021D01*
X151327274Y-110552421D01*
X151327269Y-110552424D01*
X151181276Y-110658494D01*
X151181269Y-110658500D01*
X151060520Y-110792608D01*
X150970288Y-110948894D01*
X150914523Y-111120523D01*
X150895659Y-111300000D01*
X127986310Y-111300000D01*
X128054152Y-111285580D01*
X128054154Y-111285578D01*
X128054157Y-111285578D01*
X128131990Y-111250924D01*
X128219015Y-111212178D01*
X128365013Y-111106104D01*
X128366278Y-111104700D01*
X128404339Y-111062428D01*
X128485767Y-110971993D01*
X128575999Y-110815707D01*
X128631765Y-110644075D01*
X128650629Y-110464600D01*
X128647959Y-110439200D01*
X129337171Y-110439200D01*
X129356035Y-110618676D01*
X129410602Y-110786619D01*
X129411801Y-110790307D01*
X129502033Y-110946593D01*
X129528020Y-110975454D01*
X129622781Y-111080699D01*
X129622784Y-111080701D01*
X129622787Y-111080704D01*
X129707458Y-111142221D01*
X129768785Y-111186778D01*
X129933642Y-111260178D01*
X129933648Y-111260180D01*
X130110168Y-111297700D01*
X130110169Y-111297700D01*
X130290631Y-111297700D01*
X130290632Y-111297700D01*
X130467152Y-111260180D01*
X130467154Y-111260178D01*
X130467157Y-111260178D01*
X130567226Y-111215624D01*
X130632015Y-111186778D01*
X130778013Y-111080704D01*
X130898767Y-110946593D01*
X130988999Y-110790307D01*
X131044765Y-110618675D01*
X131063629Y-110439200D01*
X131044765Y-110259725D01*
X131025359Y-110200000D01*
X144405521Y-110200000D01*
X144424385Y-110379476D01*
X144476811Y-110540829D01*
X144480151Y-110551107D01*
X144570383Y-110707393D01*
X144607936Y-110749100D01*
X144691131Y-110841499D01*
X144691134Y-110841501D01*
X144691137Y-110841504D01*
X144809934Y-110927815D01*
X144837135Y-110947578D01*
X145001992Y-111020978D01*
X145001998Y-111020980D01*
X145178518Y-111058500D01*
X145178519Y-111058500D01*
X145358981Y-111058500D01*
X145358982Y-111058500D01*
X145535502Y-111020980D01*
X145535504Y-111020978D01*
X145535507Y-111020978D01*
X145565913Y-111007439D01*
X145700365Y-110947578D01*
X145700371Y-110947573D01*
X145705996Y-110944327D01*
X145707514Y-110946957D01*
X145760830Y-110927815D01*
X145828915Y-110943506D01*
X145841035Y-110951278D01*
X145869546Y-110971993D01*
X145956375Y-111035078D01*
X146121232Y-111108478D01*
X146121238Y-111108480D01*
X146297758Y-111146000D01*
X146297759Y-111146000D01*
X146478221Y-111146000D01*
X146478222Y-111146000D01*
X146654742Y-111108480D01*
X146654744Y-111108478D01*
X146654747Y-111108478D01*
X146758176Y-111062428D01*
X146819605Y-111035078D01*
X146965603Y-110929004D01*
X147086357Y-110794893D01*
X147176589Y-110638607D01*
X147232355Y-110466975D01*
X147251219Y-110287500D01*
X147232355Y-110108025D01*
X147202024Y-110014674D01*
X148165845Y-110014674D01*
X148184709Y-110194150D01*
X148220555Y-110304475D01*
X148240475Y-110365781D01*
X148330707Y-110522067D01*
X148356853Y-110551105D01*
X148451455Y-110656173D01*
X148451458Y-110656175D01*
X148451461Y-110656178D01*
X148579357Y-110749100D01*
X148597459Y-110762252D01*
X148762316Y-110835652D01*
X148762322Y-110835654D01*
X148938842Y-110873174D01*
X148938843Y-110873174D01*
X149119305Y-110873174D01*
X149119306Y-110873174D01*
X149295826Y-110835654D01*
X149295828Y-110835652D01*
X149295831Y-110835652D01*
X149335965Y-110817783D01*
X149407804Y-110785797D01*
X149477053Y-110776513D01*
X149508673Y-110785797D01*
X149518802Y-110790307D01*
X149662791Y-110854416D01*
X149662797Y-110854418D01*
X149839317Y-110891938D01*
X149839318Y-110891938D01*
X150019780Y-110891938D01*
X150019781Y-110891938D01*
X150196301Y-110854418D01*
X150196303Y-110854416D01*
X150196306Y-110854416D01*
X150283247Y-110815707D01*
X150361164Y-110781016D01*
X150507162Y-110674942D01*
X150521967Y-110658500D01*
X150545475Y-110632391D01*
X150627916Y-110540831D01*
X150718148Y-110384545D01*
X150773914Y-110212913D01*
X150792778Y-110033438D01*
X150773914Y-109853963D01*
X150718148Y-109682331D01*
X150627916Y-109526045D01*
X150580620Y-109473517D01*
X150507167Y-109391938D01*
X150507164Y-109391936D01*
X150507163Y-109391935D01*
X150507162Y-109391934D01*
X150386159Y-109304020D01*
X150361163Y-109285859D01*
X150196306Y-109212459D01*
X150196300Y-109212457D01*
X150057300Y-109182912D01*
X150019781Y-109174938D01*
X149839317Y-109174938D01*
X149808374Y-109181514D01*
X149662797Y-109212457D01*
X149662795Y-109212458D01*
X149550818Y-109262314D01*
X149481568Y-109271598D01*
X149449947Y-109262313D01*
X149295831Y-109193695D01*
X149295825Y-109193693D01*
X149156825Y-109164148D01*
X149119306Y-109156174D01*
X148938842Y-109156174D01*
X148907899Y-109162750D01*
X148762322Y-109193693D01*
X148762316Y-109193695D01*
X148597460Y-109267095D01*
X148597455Y-109267098D01*
X148451462Y-109373168D01*
X148451455Y-109373174D01*
X148330706Y-109507282D01*
X148240474Y-109663568D01*
X148184709Y-109835197D01*
X148165845Y-110014674D01*
X147202024Y-110014674D01*
X147176589Y-109936393D01*
X147086357Y-109780107D01*
X147029554Y-109717021D01*
X146965608Y-109646000D01*
X146965605Y-109645998D01*
X146965604Y-109645997D01*
X146965603Y-109645996D01*
X146846852Y-109559718D01*
X146819604Y-109539921D01*
X146654747Y-109466521D01*
X146654741Y-109466519D01*
X146515741Y-109436974D01*
X146478222Y-109429000D01*
X146297758Y-109429000D01*
X146266815Y-109435576D01*
X146121238Y-109466519D01*
X146121232Y-109466521D01*
X145956373Y-109539923D01*
X145950748Y-109543171D01*
X145949283Y-109540634D01*
X145895315Y-109559718D01*
X145827306Y-109543700D01*
X145815701Y-109536219D01*
X145801699Y-109526046D01*
X145703048Y-109454371D01*
X145700364Y-109452421D01*
X145535507Y-109379021D01*
X145535501Y-109379019D01*
X145396501Y-109349474D01*
X145358982Y-109341500D01*
X145178518Y-109341500D01*
X145147575Y-109348076D01*
X145001998Y-109379019D01*
X145001992Y-109379021D01*
X144837136Y-109452421D01*
X144837131Y-109452424D01*
X144691138Y-109558494D01*
X144691131Y-109558500D01*
X144570382Y-109692608D01*
X144480150Y-109848894D01*
X144424385Y-110020523D01*
X144405521Y-110200000D01*
X131025359Y-110200000D01*
X130988999Y-110088093D01*
X130898767Y-109931807D01*
X130846729Y-109874013D01*
X130778018Y-109797700D01*
X130778015Y-109797698D01*
X130778014Y-109797697D01*
X130778013Y-109797696D01*
X130666974Y-109717021D01*
X130632014Y-109691621D01*
X130467157Y-109618221D01*
X130467151Y-109618219D01*
X130328151Y-109588674D01*
X130290632Y-109580700D01*
X130110168Y-109580700D01*
X130079225Y-109587276D01*
X129933648Y-109618219D01*
X129933642Y-109618221D01*
X129768786Y-109691621D01*
X129768781Y-109691624D01*
X129622788Y-109797694D01*
X129622781Y-109797700D01*
X129502032Y-109931808D01*
X129411800Y-110088094D01*
X129356035Y-110259723D01*
X129337171Y-110439200D01*
X128647959Y-110439200D01*
X128631765Y-110285125D01*
X128575999Y-110113493D01*
X128485767Y-109957207D01*
X128421980Y-109886364D01*
X128365018Y-109823100D01*
X128365015Y-109823098D01*
X128365014Y-109823097D01*
X128365013Y-109823096D01*
X128219015Y-109717022D01*
X128219014Y-109717021D01*
X128054157Y-109643621D01*
X128054151Y-109643619D01*
X127915151Y-109614074D01*
X127877632Y-109606100D01*
X127697168Y-109606100D01*
X127666225Y-109612676D01*
X127520648Y-109643619D01*
X127520642Y-109643621D01*
X127355786Y-109717021D01*
X127355781Y-109717024D01*
X127209788Y-109823094D01*
X127209781Y-109823100D01*
X127092150Y-109953745D01*
X127032664Y-109990394D01*
X126962807Y-109989064D01*
X126907850Y-109953745D01*
X126790218Y-109823100D01*
X126790215Y-109823098D01*
X126790214Y-109823097D01*
X126790213Y-109823096D01*
X126644215Y-109717022D01*
X126644214Y-109717021D01*
X126479357Y-109643621D01*
X126479351Y-109643619D01*
X126340351Y-109614074D01*
X126302832Y-109606100D01*
X126122368Y-109606100D01*
X126091425Y-109612676D01*
X125945848Y-109643619D01*
X125945842Y-109643621D01*
X125780986Y-109717021D01*
X125780981Y-109717024D01*
X125634988Y-109823094D01*
X125634981Y-109823100D01*
X125514232Y-109957208D01*
X125424000Y-110113494D01*
X125368235Y-110285123D01*
X125349371Y-110464600D01*
X119144333Y-110464600D01*
X119158541Y-110426064D01*
X119199070Y-110390945D01*
X119210896Y-110384545D01*
X119235576Y-110371189D01*
X119413240Y-110232906D01*
X119523168Y-110113494D01*
X119565715Y-110067276D01*
X119565717Y-110067273D01*
X119565722Y-110067268D01*
X119688860Y-109878791D01*
X119779296Y-109672616D01*
X119834564Y-109454368D01*
X119834725Y-109452424D01*
X119853156Y-109230005D01*
X119853156Y-109229994D01*
X119834565Y-109005640D01*
X119834563Y-109005628D01*
X119819182Y-108944891D01*
X119779296Y-108787384D01*
X119688860Y-108581209D01*
X119672706Y-108556484D01*
X119565723Y-108392734D01*
X119565715Y-108392723D01*
X119413243Y-108227097D01*
X119413238Y-108227092D01*
X119271177Y-108116521D01*
X119235576Y-108088811D01*
X119199070Y-108069055D01*
X119149479Y-108019836D01*
X119134371Y-107951619D01*
X119158541Y-107886064D01*
X119199070Y-107850945D01*
X119199084Y-107850936D01*
X119235576Y-107831189D01*
X119413240Y-107692906D01*
X119518099Y-107579000D01*
X119565715Y-107527276D01*
X119565717Y-107527273D01*
X119565722Y-107527268D01*
X119681537Y-107350000D01*
X123786771Y-107350000D01*
X123805635Y-107529476D01*
X123858736Y-107692907D01*
X123861401Y-107701107D01*
X123951633Y-107857393D01*
X123990145Y-107900165D01*
X124072381Y-107991499D01*
X124072384Y-107991501D01*
X124072387Y-107991504D01*
X124179125Y-108069054D01*
X124218385Y-108097578D01*
X124383242Y-108170978D01*
X124383248Y-108170980D01*
X124559768Y-108208500D01*
X124559769Y-108208500D01*
X124740231Y-108208500D01*
X124740232Y-108208500D01*
X124916752Y-108170980D01*
X124916754Y-108170978D01*
X124916757Y-108170978D01*
X124983295Y-108141353D01*
X125081615Y-108097578D01*
X125227613Y-107991504D01*
X125236479Y-107981658D01*
X125260136Y-107955383D01*
X125348367Y-107857393D01*
X125438599Y-107701107D01*
X125494365Y-107529475D01*
X125513229Y-107350000D01*
X125494365Y-107170525D01*
X125438599Y-106998893D01*
X125348367Y-106842607D01*
X125300881Y-106789868D01*
X125227618Y-106708500D01*
X125227615Y-106708498D01*
X125227614Y-106708497D01*
X125227613Y-106708496D01*
X125081615Y-106602422D01*
X125081614Y-106602421D01*
X124916757Y-106529021D01*
X124916751Y-106529019D01*
X124777751Y-106499474D01*
X124740232Y-106491500D01*
X124559768Y-106491500D01*
X124528825Y-106498076D01*
X124383248Y-106529019D01*
X124383242Y-106529021D01*
X124218386Y-106602421D01*
X124218381Y-106602424D01*
X124072388Y-106708494D01*
X124072381Y-106708500D01*
X123951632Y-106842608D01*
X123861400Y-106998894D01*
X123805635Y-107170523D01*
X123786771Y-107350000D01*
X119681537Y-107350000D01*
X119688860Y-107338791D01*
X119779296Y-107132616D01*
X119834564Y-106914368D01*
X119835472Y-106903408D01*
X119853156Y-106690005D01*
X119853156Y-106689994D01*
X119834565Y-106465640D01*
X119834563Y-106465628D01*
X119779296Y-106247385D01*
X119776923Y-106241976D01*
X119688860Y-106041209D01*
X119672706Y-106016484D01*
X119585512Y-105883023D01*
X119565722Y-105852732D01*
X119565719Y-105852729D01*
X119565715Y-105852723D01*
X119413243Y-105687097D01*
X119413238Y-105687092D01*
X119235577Y-105548812D01*
X119235578Y-105548812D01*
X119235576Y-105548811D01*
X119199070Y-105529055D01*
X119149479Y-105479836D01*
X119134371Y-105411619D01*
X119158541Y-105346064D01*
X119199070Y-105310945D01*
X119199084Y-105310936D01*
X119235576Y-105291189D01*
X119413240Y-105152906D01*
X119565722Y-104987268D01*
X119688860Y-104798791D01*
X119779296Y-104592616D01*
X119834564Y-104374368D01*
X119843030Y-104272200D01*
X119853156Y-104150005D01*
X119853156Y-104149994D01*
X119834565Y-103925640D01*
X119834563Y-103925628D01*
X119823774Y-103883023D01*
X119779296Y-103707384D01*
X119688860Y-103501209D01*
X119672706Y-103476484D01*
X119655403Y-103450000D01*
X123786771Y-103450000D01*
X123805635Y-103629476D01*
X123854598Y-103780171D01*
X123861401Y-103801107D01*
X123951633Y-103957393D01*
X123988570Y-103998416D01*
X124072381Y-104091499D01*
X124072384Y-104091501D01*
X124072387Y-104091504D01*
X124152900Y-104150000D01*
X124218385Y-104197578D01*
X124383242Y-104270978D01*
X124383248Y-104270980D01*
X124559768Y-104308500D01*
X124559769Y-104308500D01*
X124740231Y-104308500D01*
X124740232Y-104308500D01*
X124916752Y-104270980D01*
X124916754Y-104270978D01*
X124916757Y-104270978D01*
X124981898Y-104241975D01*
X125081615Y-104197578D01*
X125227613Y-104091504D01*
X125348367Y-103957393D01*
X125438599Y-103801107D01*
X125494365Y-103629475D01*
X125502718Y-103550000D01*
X145986771Y-103550000D01*
X146005635Y-103729476D01*
X146031854Y-103810172D01*
X146061401Y-103901107D01*
X146151633Y-104057393D01*
X146182342Y-104091499D01*
X146272381Y-104191499D01*
X146272384Y-104191501D01*
X146272387Y-104191504D01*
X146418385Y-104297578D01*
X146583242Y-104370978D01*
X146583248Y-104370980D01*
X146759768Y-104408500D01*
X146759769Y-104408500D01*
X146940231Y-104408500D01*
X146940232Y-104408500D01*
X147116752Y-104370980D01*
X147116754Y-104370978D01*
X147116757Y-104370978D01*
X147236252Y-104317775D01*
X147305502Y-104308490D01*
X147368779Y-104338118D01*
X147404618Y-104392734D01*
X147411399Y-104413604D01*
X147411402Y-104413610D01*
X147461568Y-104500500D01*
X147478041Y-104568400D01*
X147461568Y-104624500D01*
X147411402Y-104711389D01*
X147411401Y-104711390D01*
X147355635Y-104883023D01*
X147336771Y-105062500D01*
X147355635Y-105241976D01*
X147411401Y-105413609D01*
X147411402Y-105413610D01*
X147461568Y-105500500D01*
X147478041Y-105568400D01*
X147461568Y-105624500D01*
X147411402Y-105711389D01*
X147411401Y-105711390D01*
X147355635Y-105883023D01*
X147336771Y-106062500D01*
X147355635Y-106241976D01*
X147357392Y-106247385D01*
X147411401Y-106413607D01*
X147501633Y-106569893D01*
X147530922Y-106602422D01*
X147622381Y-106703999D01*
X147622384Y-106704001D01*
X147622387Y-106704004D01*
X147762350Y-106805693D01*
X147768385Y-106810078D01*
X147933242Y-106883478D01*
X147939423Y-106885486D01*
X147938869Y-106887188D01*
X147992671Y-106916227D01*
X148026454Y-106977387D01*
X148021809Y-107047102D01*
X148012806Y-107066333D01*
X147965225Y-107148747D01*
X147909460Y-107320375D01*
X147890596Y-107499852D01*
X147909460Y-107679328D01*
X147965221Y-107850946D01*
X147965226Y-107850959D01*
X148055458Y-108007245D01*
X148079492Y-108033937D01*
X148176206Y-108141351D01*
X148176209Y-108141353D01*
X148176212Y-108141356D01*
X148268628Y-108208500D01*
X148322210Y-108247430D01*
X148487067Y-108320830D01*
X148487073Y-108320832D01*
X148663593Y-108358352D01*
X148663594Y-108358352D01*
X148844056Y-108358352D01*
X148844057Y-108358352D01*
X149020577Y-108320832D01*
X149020579Y-108320830D01*
X149020582Y-108320830D01*
X149089842Y-108289993D01*
X149185440Y-108247430D01*
X149331438Y-108141356D01*
X149338326Y-108133707D01*
X149370856Y-108097578D01*
X149452192Y-108007245D01*
X149542424Y-107850959D01*
X149598190Y-107679327D01*
X149617054Y-107499852D01*
X149598190Y-107320377D01*
X149542424Y-107148745D01*
X149473973Y-107030186D01*
X149457501Y-106962287D01*
X149480354Y-106896260D01*
X149530923Y-106854908D01*
X149631615Y-106810078D01*
X149631619Y-106810074D01*
X149637248Y-106806826D01*
X149638639Y-106809235D01*
X149692920Y-106789868D01*
X149760974Y-106805693D01*
X149762747Y-106806832D01*
X149762752Y-106806826D01*
X149768385Y-106810078D01*
X149933242Y-106883478D01*
X149933248Y-106883480D01*
X150109768Y-106921000D01*
X150109769Y-106921000D01*
X150290231Y-106921000D01*
X150290232Y-106921000D01*
X150466752Y-106883480D01*
X150466754Y-106883478D01*
X150466757Y-106883478D01*
X150530928Y-106854907D01*
X150631615Y-106810078D01*
X150777613Y-106704004D01*
X150790223Y-106690000D01*
X150803775Y-106674947D01*
X150898367Y-106569893D01*
X150988599Y-106413607D01*
X151044365Y-106241975D01*
X151063229Y-106062500D01*
X151044365Y-105883025D01*
X150988599Y-105711393D01*
X150938428Y-105624496D01*
X150921957Y-105556601D01*
X150938428Y-105500504D01*
X150988599Y-105413607D01*
X151044365Y-105241975D01*
X151063229Y-105062500D01*
X151044365Y-104883025D01*
X150988599Y-104711393D01*
X150938428Y-104624496D01*
X150921957Y-104556601D01*
X150938428Y-104500504D01*
X150988599Y-104413607D01*
X151044365Y-104241975D01*
X151063229Y-104062500D01*
X151044365Y-103883025D01*
X150988599Y-103711393D01*
X150898367Y-103555107D01*
X150827575Y-103476484D01*
X150777618Y-103421000D01*
X150777615Y-103420998D01*
X150777614Y-103420997D01*
X150777613Y-103420996D01*
X150636080Y-103318166D01*
X150631614Y-103314921D01*
X150466757Y-103241521D01*
X150466751Y-103241519D01*
X150327751Y-103211974D01*
X150290232Y-103204000D01*
X150109768Y-103204000D01*
X150078825Y-103210576D01*
X149933248Y-103241519D01*
X149933242Y-103241521D01*
X149768383Y-103314923D01*
X149762758Y-103318171D01*
X149761371Y-103315770D01*
X149707031Y-103335135D01*
X149638984Y-103319284D01*
X149637245Y-103318166D01*
X149637243Y-103318171D01*
X149631617Y-103314923D01*
X149466757Y-103241521D01*
X149466751Y-103241519D01*
X149327751Y-103211974D01*
X149290232Y-103204000D01*
X149109768Y-103204000D01*
X149078825Y-103210576D01*
X148933248Y-103241519D01*
X148933242Y-103241521D01*
X148768383Y-103314923D01*
X148762758Y-103318171D01*
X148761371Y-103315770D01*
X148707031Y-103335135D01*
X148638984Y-103319284D01*
X148637245Y-103318166D01*
X148637243Y-103318171D01*
X148631617Y-103314923D01*
X148466757Y-103241521D01*
X148466751Y-103241519D01*
X148327751Y-103211974D01*
X148290232Y-103204000D01*
X148109768Y-103204000D01*
X148072249Y-103211974D01*
X147933249Y-103241519D01*
X147813747Y-103294726D01*
X147744497Y-103304010D01*
X147681220Y-103274382D01*
X147645380Y-103219765D01*
X147638599Y-103198893D01*
X147548367Y-103042607D01*
X147500148Y-102989054D01*
X147427618Y-102908500D01*
X147427615Y-102908498D01*
X147427614Y-102908497D01*
X147427613Y-102908496D01*
X147289975Y-102808496D01*
X147281614Y-102802421D01*
X147116757Y-102729021D01*
X147116751Y-102729019D01*
X146977751Y-102699474D01*
X146940232Y-102691500D01*
X146759768Y-102691500D01*
X146728825Y-102698076D01*
X146583248Y-102729019D01*
X146583242Y-102729021D01*
X146418386Y-102802421D01*
X146418381Y-102802424D01*
X146272388Y-102908494D01*
X146272381Y-102908500D01*
X146151632Y-103042608D01*
X146061400Y-103198894D01*
X146005635Y-103370523D01*
X145986771Y-103550000D01*
X125502718Y-103550000D01*
X125513229Y-103450000D01*
X125494365Y-103270525D01*
X125438599Y-103098893D01*
X125348367Y-102942607D01*
X125297890Y-102886547D01*
X125227618Y-102808500D01*
X125227615Y-102808498D01*
X125227614Y-102808497D01*
X125227613Y-102808496D01*
X125103791Y-102718534D01*
X125081614Y-102702421D01*
X124916757Y-102629021D01*
X124916751Y-102629019D01*
X124762123Y-102596153D01*
X124740232Y-102591500D01*
X124559768Y-102591500D01*
X124537877Y-102596153D01*
X124383248Y-102629019D01*
X124383242Y-102629021D01*
X124218386Y-102702421D01*
X124218381Y-102702424D01*
X124072388Y-102808494D01*
X124072381Y-102808500D01*
X123951632Y-102942608D01*
X123861400Y-103098894D01*
X123805635Y-103270523D01*
X123786771Y-103450000D01*
X119655403Y-103450000D01*
X119599613Y-103364606D01*
X119565722Y-103312732D01*
X119565719Y-103312729D01*
X119565715Y-103312723D01*
X119413243Y-103147097D01*
X119413238Y-103147092D01*
X119235577Y-103008812D01*
X119235578Y-103008812D01*
X119235576Y-103008811D01*
X119199070Y-102989055D01*
X119149479Y-102939836D01*
X119134371Y-102871619D01*
X119158541Y-102806064D01*
X119199070Y-102770945D01*
X119199084Y-102770936D01*
X119235576Y-102751189D01*
X119413240Y-102612906D01*
X119565722Y-102447268D01*
X119688860Y-102258791D01*
X119779296Y-102052616D01*
X119834564Y-101834368D01*
X119842578Y-101737655D01*
X119853156Y-101610005D01*
X119853156Y-101609994D01*
X119834565Y-101385640D01*
X119834563Y-101385628D01*
X119787532Y-101199909D01*
X119779296Y-101167384D01*
X119688860Y-100961209D01*
X119672706Y-100936484D01*
X119604666Y-100832340D01*
X119565722Y-100772732D01*
X119565719Y-100772729D01*
X119565715Y-100772723D01*
X119413243Y-100607097D01*
X119413238Y-100607092D01*
X119287822Y-100509476D01*
X119235576Y-100468811D01*
X119199070Y-100449055D01*
X119149479Y-100399836D01*
X119134371Y-100331619D01*
X119134968Y-100330000D01*
X125374771Y-100330000D01*
X125393635Y-100509476D01*
X125419399Y-100588771D01*
X125449401Y-100681107D01*
X125539633Y-100837393D01*
X125570415Y-100871580D01*
X125660381Y-100971499D01*
X125660384Y-100971501D01*
X125660387Y-100971504D01*
X125790169Y-101065796D01*
X125806385Y-101077578D01*
X125971242Y-101150978D01*
X125971248Y-101150980D01*
X126147768Y-101188500D01*
X126147769Y-101188500D01*
X126328231Y-101188500D01*
X126328232Y-101188500D01*
X126504752Y-101150980D01*
X126504754Y-101150978D01*
X126504757Y-101150978D01*
X126566713Y-101123393D01*
X126669615Y-101077578D01*
X126815613Y-100971504D01*
X126820582Y-100965986D01*
X126847145Y-100936484D01*
X126909116Y-100867657D01*
X126968599Y-100831011D01*
X127038456Y-100832340D01*
X127093414Y-100867659D01*
X127209781Y-100996899D01*
X127209784Y-100996901D01*
X127209787Y-100996904D01*
X127320825Y-101077578D01*
X127355785Y-101102978D01*
X127520642Y-101176378D01*
X127520648Y-101176380D01*
X127697168Y-101213900D01*
X127697169Y-101213900D01*
X127877631Y-101213900D01*
X127877632Y-101213900D01*
X128054152Y-101176380D01*
X128054154Y-101176378D01*
X128054157Y-101176378D01*
X128173162Y-101123393D01*
X128219015Y-101102978D01*
X128365013Y-100996904D01*
X128485767Y-100862793D01*
X128575999Y-100706507D01*
X128631765Y-100534875D01*
X128650629Y-100355400D01*
X129361771Y-100355400D01*
X129380635Y-100534876D01*
X129431719Y-100692099D01*
X129436401Y-100706507D01*
X129526633Y-100862793D01*
X129534545Y-100871580D01*
X129647381Y-100996899D01*
X129647384Y-100996901D01*
X129647387Y-100996904D01*
X129758425Y-101077578D01*
X129793385Y-101102978D01*
X129958242Y-101176378D01*
X129958248Y-101176380D01*
X130134768Y-101213900D01*
X130134769Y-101213900D01*
X130315231Y-101213900D01*
X130315232Y-101213900D01*
X130491752Y-101176380D01*
X130491754Y-101176378D01*
X130491757Y-101176378D01*
X130610762Y-101123393D01*
X130656615Y-101102978D01*
X130802613Y-100996904D01*
X130923367Y-100862793D01*
X131013599Y-100706507D01*
X131061720Y-100558405D01*
X152572974Y-100558405D01*
X152591838Y-100737881D01*
X152635278Y-100871578D01*
X152647604Y-100909512D01*
X152737836Y-101065798D01*
X152748443Y-101077578D01*
X152858584Y-101199904D01*
X152858587Y-101199906D01*
X152858590Y-101199909D01*
X152914002Y-101240168D01*
X153004588Y-101305983D01*
X153169445Y-101379383D01*
X153169448Y-101379383D01*
X153169451Y-101379385D01*
X153323058Y-101412034D01*
X153384539Y-101445226D01*
X153418316Y-101506389D01*
X153413664Y-101576103D01*
X153389428Y-101616295D01*
X153280156Y-101737656D01*
X153189924Y-101893942D01*
X153134159Y-102065571D01*
X153115295Y-102245048D01*
X153134159Y-102424524D01*
X153188412Y-102591500D01*
X153189925Y-102596155D01*
X153280157Y-102752441D01*
X153296819Y-102770946D01*
X153400905Y-102886547D01*
X153400908Y-102886549D01*
X153400911Y-102886552D01*
X153541993Y-102989054D01*
X153546909Y-102992626D01*
X153711767Y-103066026D01*
X153711772Y-103066028D01*
X153725944Y-103069040D01*
X153787425Y-103102229D01*
X153821203Y-103163391D01*
X153816553Y-103233106D01*
X153807554Y-103252327D01*
X153791814Y-103279590D01*
X153736049Y-103451219D01*
X153717185Y-103630696D01*
X153736049Y-103810172D01*
X153791742Y-103981580D01*
X153791815Y-103981803D01*
X153882047Y-104138089D01*
X153924110Y-104184804D01*
X154002795Y-104272195D01*
X154002798Y-104272197D01*
X154002801Y-104272200D01*
X154143423Y-104374368D01*
X154148799Y-104378274D01*
X154313656Y-104451674D01*
X154313662Y-104451676D01*
X154490182Y-104489196D01*
X154490183Y-104489196D01*
X154670645Y-104489196D01*
X154670646Y-104489196D01*
X154847166Y-104451676D01*
X154847168Y-104451674D01*
X154847171Y-104451674D01*
X154932679Y-104413603D01*
X155012029Y-104378274D01*
X155158027Y-104272200D01*
X155159126Y-104270980D01*
X155218903Y-104204590D01*
X155278781Y-104138089D01*
X155369013Y-103981803D01*
X155424779Y-103810171D01*
X155443643Y-103630696D01*
X155424779Y-103451221D01*
X155399425Y-103373192D01*
X155397431Y-103303354D01*
X155423111Y-103255790D01*
X155422816Y-103255576D01*
X155424418Y-103253370D01*
X155425215Y-103251895D01*
X155426638Y-103250315D01*
X155516870Y-103094029D01*
X155572636Y-102922397D01*
X155591500Y-102742922D01*
X155572636Y-102563447D01*
X155516870Y-102391815D01*
X155426638Y-102235529D01*
X155355924Y-102156993D01*
X155305889Y-102101422D01*
X155305886Y-102101420D01*
X155305885Y-102101419D01*
X155305884Y-102101418D01*
X155192041Y-102018706D01*
X155159885Y-101995343D01*
X154995028Y-101921943D01*
X154995022Y-101921941D01*
X154849865Y-101891088D01*
X154818503Y-101884422D01*
X154818502Y-101884422D01*
X154812146Y-101883071D01*
X154812528Y-101881269D01*
X154756153Y-101858061D01*
X154726362Y-101823341D01*
X154716401Y-101806089D01*
X154676891Y-101737655D01*
X154611103Y-101664590D01*
X154556142Y-101603548D01*
X154556139Y-101603546D01*
X154556138Y-101603545D01*
X154556137Y-101603544D01*
X154410139Y-101497470D01*
X154410138Y-101497469D01*
X154245281Y-101424069D01*
X154245275Y-101424067D01*
X154091668Y-101391418D01*
X154030186Y-101358226D01*
X153996410Y-101297063D01*
X154001062Y-101227348D01*
X154025299Y-101187156D01*
X154043101Y-101167385D01*
X154134570Y-101065798D01*
X154224802Y-100909512D01*
X154280568Y-100737880D01*
X154299432Y-100558405D01*
X154280568Y-100378930D01*
X154224802Y-100207298D01*
X154134570Y-100051012D01*
X154134199Y-100050600D01*
X155727771Y-100050600D01*
X155746635Y-100230076D01*
X155794999Y-100378928D01*
X155802401Y-100401707D01*
X155892633Y-100557993D01*
X155906312Y-100573185D01*
X156013381Y-100692099D01*
X156013384Y-100692101D01*
X156013387Y-100692104D01*
X156150100Y-100791432D01*
X156159385Y-100798178D01*
X156324242Y-100871578D01*
X156324248Y-100871580D01*
X156500768Y-100909100D01*
X156500769Y-100909100D01*
X156681231Y-100909100D01*
X156681232Y-100909100D01*
X156857752Y-100871580D01*
X156857754Y-100871578D01*
X156857757Y-100871578D01*
X156948871Y-100831011D01*
X157022615Y-100798178D01*
X157168613Y-100692104D01*
X157289367Y-100557993D01*
X157379599Y-100401707D01*
X157435365Y-100230075D01*
X157454229Y-100050600D01*
X157435365Y-99871125D01*
X157379599Y-99699493D01*
X157289367Y-99543207D01*
X157231290Y-99478706D01*
X157168618Y-99409100D01*
X157168615Y-99409098D01*
X157168614Y-99409097D01*
X157168613Y-99409096D01*
X157022615Y-99303022D01*
X157022614Y-99303021D01*
X156857757Y-99229621D01*
X156857751Y-99229619D01*
X156718751Y-99200074D01*
X156681232Y-99192100D01*
X156500768Y-99192100D01*
X156469825Y-99198676D01*
X156324248Y-99229619D01*
X156324242Y-99229621D01*
X156159386Y-99303021D01*
X156159381Y-99303024D01*
X156013388Y-99409094D01*
X156013381Y-99409100D01*
X155892632Y-99543208D01*
X155802400Y-99699494D01*
X155746635Y-99871123D01*
X155727771Y-100050600D01*
X154134199Y-100050600D01*
X154059393Y-99967519D01*
X154013821Y-99916905D01*
X154013818Y-99916903D01*
X154013817Y-99916902D01*
X154013816Y-99916901D01*
X153867818Y-99810827D01*
X153867817Y-99810826D01*
X153702960Y-99737426D01*
X153702954Y-99737424D01*
X153563954Y-99707879D01*
X153526435Y-99699905D01*
X153345971Y-99699905D01*
X153315028Y-99706481D01*
X153169451Y-99737424D01*
X153169445Y-99737426D01*
X153004589Y-99810826D01*
X153004584Y-99810829D01*
X152858591Y-99916899D01*
X152858584Y-99916905D01*
X152737835Y-100051013D01*
X152647603Y-100207299D01*
X152591838Y-100378928D01*
X152572974Y-100558405D01*
X131061720Y-100558405D01*
X131069365Y-100534875D01*
X131088229Y-100355400D01*
X131069365Y-100175925D01*
X131013599Y-100004293D01*
X130923367Y-99848007D01*
X130876071Y-99795479D01*
X130802618Y-99713900D01*
X130802615Y-99713898D01*
X130802614Y-99713897D01*
X130802613Y-99713896D01*
X130669234Y-99616990D01*
X130656614Y-99607821D01*
X130491757Y-99534421D01*
X130491751Y-99534419D01*
X130352751Y-99504874D01*
X130315232Y-99496900D01*
X130134768Y-99496900D01*
X130103825Y-99503476D01*
X129958248Y-99534419D01*
X129958242Y-99534421D01*
X129793386Y-99607821D01*
X129793381Y-99607824D01*
X129647388Y-99713894D01*
X129647381Y-99713900D01*
X129526632Y-99848008D01*
X129436400Y-100004294D01*
X129380635Y-100175923D01*
X129361771Y-100355400D01*
X128650629Y-100355400D01*
X128631765Y-100175925D01*
X128575999Y-100004293D01*
X128485767Y-99848007D01*
X128438471Y-99795479D01*
X128365018Y-99713900D01*
X128365015Y-99713898D01*
X128365014Y-99713897D01*
X128365013Y-99713896D01*
X128231634Y-99616990D01*
X128219014Y-99607821D01*
X128054157Y-99534421D01*
X128054151Y-99534419D01*
X127915151Y-99504874D01*
X127877632Y-99496900D01*
X127697168Y-99496900D01*
X127666225Y-99503476D01*
X127520648Y-99534419D01*
X127520642Y-99534421D01*
X127355786Y-99607821D01*
X127355781Y-99607824D01*
X127209788Y-99713894D01*
X127209781Y-99713900D01*
X127116285Y-99817740D01*
X127056799Y-99854389D01*
X126986942Y-99853059D01*
X126931985Y-99817740D01*
X126815618Y-99688500D01*
X126815615Y-99688498D01*
X126815614Y-99688497D01*
X126815613Y-99688496D01*
X126669615Y-99582422D01*
X126669614Y-99582421D01*
X126504757Y-99509021D01*
X126504751Y-99509019D01*
X126362115Y-99478702D01*
X126328232Y-99471500D01*
X126147768Y-99471500D01*
X126116825Y-99478076D01*
X125971248Y-99509019D01*
X125971242Y-99509021D01*
X125806386Y-99582421D01*
X125806381Y-99582424D01*
X125660388Y-99688494D01*
X125660381Y-99688500D01*
X125539632Y-99822608D01*
X125449400Y-99978894D01*
X125393635Y-100150523D01*
X125374771Y-100330000D01*
X119134968Y-100330000D01*
X119158541Y-100266064D01*
X119199070Y-100230945D01*
X119200678Y-100230075D01*
X119235576Y-100211189D01*
X119413240Y-100072906D01*
X119512614Y-99964957D01*
X119565715Y-99907276D01*
X119565717Y-99907273D01*
X119565722Y-99907268D01*
X119688860Y-99718791D01*
X119779296Y-99512616D01*
X119834564Y-99294368D01*
X119839929Y-99229621D01*
X119853156Y-99070005D01*
X119853156Y-99069994D01*
X119834565Y-98845640D01*
X119834563Y-98845628D01*
X119797072Y-98697580D01*
X119779296Y-98627384D01*
X119688860Y-98421209D01*
X119672706Y-98396484D01*
X119627291Y-98326970D01*
X119565722Y-98232732D01*
X119565719Y-98232729D01*
X119565715Y-98232723D01*
X119413243Y-98067097D01*
X119413238Y-98067092D01*
X119235577Y-97928812D01*
X119235578Y-97928812D01*
X119235576Y-97928811D01*
X119199070Y-97909055D01*
X119149479Y-97859836D01*
X119134371Y-97791619D01*
X119158541Y-97726064D01*
X119199070Y-97690945D01*
X119199084Y-97690936D01*
X119235576Y-97671189D01*
X119413240Y-97532906D01*
X119565722Y-97367268D01*
X119642337Y-97250000D01*
X123786771Y-97250000D01*
X123805635Y-97429476D01*
X123839241Y-97532907D01*
X123861401Y-97601107D01*
X123951633Y-97757393D01*
X123993696Y-97804108D01*
X124072381Y-97891499D01*
X124072384Y-97891501D01*
X124072387Y-97891504D01*
X124212183Y-97993072D01*
X124218385Y-97997578D01*
X124383242Y-98070978D01*
X124383248Y-98070980D01*
X124559768Y-98108500D01*
X124559769Y-98108500D01*
X124740231Y-98108500D01*
X124740232Y-98108500D01*
X124916752Y-98070980D01*
X124916754Y-98070978D01*
X124916757Y-98070978D01*
X124972288Y-98046253D01*
X125081615Y-97997578D01*
X125227613Y-97891504D01*
X125241033Y-97876600D01*
X141122771Y-97876600D01*
X141141635Y-98056076D01*
X141158668Y-98108500D01*
X141197401Y-98227707D01*
X141287633Y-98383993D01*
X141325444Y-98425986D01*
X141408381Y-98518099D01*
X141408384Y-98518101D01*
X141408387Y-98518104D01*
X141503400Y-98587135D01*
X141554385Y-98624178D01*
X141719242Y-98697578D01*
X141719248Y-98697580D01*
X141895768Y-98735100D01*
X141895769Y-98735100D01*
X142076231Y-98735100D01*
X142076232Y-98735100D01*
X142252752Y-98697580D01*
X142252754Y-98697578D01*
X142252757Y-98697578D01*
X142299826Y-98676621D01*
X142417615Y-98624178D01*
X142417617Y-98624176D01*
X142418164Y-98623933D01*
X142487414Y-98614648D01*
X142519036Y-98623933D01*
X142519582Y-98624176D01*
X142519585Y-98624178D01*
X142594881Y-98657702D01*
X142684442Y-98697578D01*
X142684448Y-98697580D01*
X142860968Y-98735100D01*
X142860969Y-98735100D01*
X143041431Y-98735100D01*
X143041432Y-98735100D01*
X143217952Y-98697580D01*
X143217954Y-98697578D01*
X143217957Y-98697578D01*
X143273488Y-98672853D01*
X143382815Y-98624178D01*
X143528813Y-98518104D01*
X143649567Y-98383993D01*
X143739799Y-98227707D01*
X143795565Y-98056075D01*
X143814429Y-97876600D01*
X143795565Y-97697125D01*
X143747979Y-97550671D01*
X143745985Y-97480832D01*
X143782066Y-97420999D01*
X143844767Y-97390171D01*
X143852950Y-97389034D01*
X143854218Y-97388900D01*
X143854232Y-97388900D01*
X144030752Y-97351380D01*
X144030754Y-97351378D01*
X144030757Y-97351378D01*
X144112790Y-97314854D01*
X144195615Y-97277978D01*
X144341613Y-97171904D01*
X144346871Y-97166065D01*
X144380225Y-97129021D01*
X144462367Y-97037793D01*
X144552599Y-96881507D01*
X144608365Y-96709875D01*
X144627229Y-96530400D01*
X144608365Y-96350925D01*
X144552599Y-96179293D01*
X144462367Y-96023007D01*
X144415071Y-95970479D01*
X144341618Y-95888900D01*
X144341615Y-95888898D01*
X144341614Y-95888897D01*
X144341613Y-95888896D01*
X144195615Y-95782822D01*
X144195614Y-95782821D01*
X144030757Y-95709421D01*
X144030751Y-95709419D01*
X143891751Y-95679874D01*
X143854232Y-95671900D01*
X143673768Y-95671900D01*
X143642825Y-95678476D01*
X143497248Y-95709419D01*
X143497242Y-95709421D01*
X143332386Y-95782821D01*
X143332381Y-95782824D01*
X143186388Y-95888894D01*
X143186381Y-95888900D01*
X143065632Y-96023008D01*
X142975400Y-96179294D01*
X142919635Y-96350923D01*
X142905483Y-96485566D01*
X142900771Y-96530400D01*
X142919635Y-96709875D01*
X142919636Y-96709878D01*
X142967219Y-96856327D01*
X142969214Y-96926168D01*
X142933133Y-96986000D01*
X142870432Y-97016828D01*
X142862266Y-97017963D01*
X142860973Y-97018099D01*
X142684449Y-97055619D01*
X142592078Y-97096746D01*
X142519589Y-97129021D01*
X142519036Y-97129267D01*
X142449786Y-97138551D01*
X142418164Y-97129267D01*
X142417617Y-97129023D01*
X142417615Y-97129022D01*
X142252752Y-97055620D01*
X142252750Y-97055619D01*
X142252751Y-97055619D01*
X142090854Y-97021208D01*
X142076232Y-97018100D01*
X141895768Y-97018100D01*
X141881146Y-97021208D01*
X141719248Y-97055619D01*
X141719242Y-97055621D01*
X141554386Y-97129021D01*
X141554381Y-97129024D01*
X141408388Y-97235094D01*
X141408381Y-97235100D01*
X141287632Y-97369208D01*
X141197400Y-97525494D01*
X141141635Y-97697123D01*
X141122771Y-97876600D01*
X125241033Y-97876600D01*
X125243431Y-97873937D01*
X125256127Y-97859836D01*
X125348367Y-97757393D01*
X125438599Y-97601107D01*
X125494365Y-97429475D01*
X125513229Y-97250000D01*
X125494365Y-97070525D01*
X125438599Y-96898893D01*
X125348367Y-96742607D01*
X125301071Y-96690079D01*
X125227618Y-96608500D01*
X125227615Y-96608498D01*
X125227614Y-96608497D01*
X125227613Y-96608496D01*
X125081615Y-96502422D01*
X125081614Y-96502421D01*
X124916757Y-96429021D01*
X124916751Y-96429019D01*
X124777751Y-96399474D01*
X124740232Y-96391500D01*
X124559768Y-96391500D01*
X124528825Y-96398076D01*
X124383248Y-96429019D01*
X124383242Y-96429021D01*
X124218386Y-96502421D01*
X124218381Y-96502424D01*
X124072388Y-96608494D01*
X124072381Y-96608500D01*
X123951632Y-96742608D01*
X123861400Y-96898894D01*
X123805635Y-97070523D01*
X123786771Y-97250000D01*
X119642337Y-97250000D01*
X119688860Y-97178791D01*
X119779296Y-96972616D01*
X119834564Y-96754368D01*
X119834565Y-96754359D01*
X119853156Y-96530005D01*
X119853156Y-96529994D01*
X119834565Y-96305640D01*
X119834563Y-96305628D01*
X119802571Y-96179294D01*
X119779296Y-96087384D01*
X119688860Y-95881209D01*
X119672706Y-95856484D01*
X119577938Y-95711430D01*
X119565722Y-95692732D01*
X119565719Y-95692729D01*
X119565715Y-95692723D01*
X119413243Y-95527097D01*
X119413238Y-95527092D01*
X119235577Y-95388812D01*
X119235578Y-95388812D01*
X119235576Y-95388811D01*
X119199070Y-95369055D01*
X119149479Y-95319836D01*
X119134371Y-95251619D01*
X119158541Y-95186064D01*
X119199070Y-95150945D01*
X119199084Y-95150936D01*
X119235576Y-95131189D01*
X119413240Y-94992906D01*
X119565722Y-94827268D01*
X119688860Y-94638791D01*
X119779296Y-94432616D01*
X119834564Y-94214368D01*
X119840231Y-94145978D01*
X119853156Y-93990005D01*
X119853156Y-93989994D01*
X119834565Y-93765640D01*
X119834563Y-93765628D01*
X119779296Y-93547385D01*
X119760474Y-93504475D01*
X119688860Y-93341209D01*
X119678270Y-93325000D01*
X123786771Y-93325000D01*
X123805635Y-93504476D01*
X123851384Y-93645280D01*
X123861401Y-93676107D01*
X123951633Y-93832393D01*
X123993696Y-93879108D01*
X124072381Y-93966499D01*
X124072384Y-93966501D01*
X124072387Y-93966504D01*
X124218385Y-94072578D01*
X124383242Y-94145978D01*
X124383248Y-94145980D01*
X124559768Y-94183500D01*
X124559769Y-94183500D01*
X124740231Y-94183500D01*
X124740232Y-94183500D01*
X124916752Y-94145980D01*
X124916754Y-94145978D01*
X124916757Y-94145978D01*
X124972288Y-94121253D01*
X125081615Y-94072578D01*
X125227613Y-93966504D01*
X125348367Y-93832393D01*
X125438599Y-93676107D01*
X125494365Y-93504475D01*
X125513229Y-93325000D01*
X125494365Y-93145525D01*
X125438599Y-92973893D01*
X125348367Y-92817607D01*
X125301071Y-92765079D01*
X125227618Y-92683500D01*
X125227615Y-92683498D01*
X125227614Y-92683497D01*
X125227613Y-92683496D01*
X125081615Y-92577422D01*
X125081614Y-92577421D01*
X124916757Y-92504021D01*
X124916751Y-92504019D01*
X124771720Y-92473193D01*
X124740232Y-92466500D01*
X124559768Y-92466500D01*
X124528825Y-92473076D01*
X124383248Y-92504019D01*
X124383242Y-92504021D01*
X124218386Y-92577421D01*
X124218381Y-92577424D01*
X124072388Y-92683494D01*
X124072381Y-92683500D01*
X123951632Y-92817608D01*
X123861400Y-92973894D01*
X123805635Y-93145523D01*
X123786771Y-93325000D01*
X119678270Y-93325000D01*
X119672706Y-93316484D01*
X119565723Y-93152734D01*
X119565715Y-93152723D01*
X119413243Y-92987097D01*
X119413238Y-92987092D01*
X119235577Y-92848812D01*
X119235578Y-92848812D01*
X119235576Y-92848811D01*
X119199070Y-92829055D01*
X119149479Y-92779836D01*
X119134371Y-92711619D01*
X119158541Y-92646064D01*
X119199070Y-92610945D01*
X119199084Y-92610936D01*
X119235576Y-92591189D01*
X119413240Y-92452906D01*
X119480539Y-92379800D01*
X126924171Y-92379800D01*
X126943035Y-92559276D01*
X126997980Y-92728382D01*
X126998801Y-92730907D01*
X127089033Y-92887193D01*
X127131096Y-92933908D01*
X127209781Y-93021299D01*
X127209784Y-93021301D01*
X127209787Y-93021304D01*
X127355785Y-93127378D01*
X127520642Y-93200778D01*
X127520648Y-93200780D01*
X127697168Y-93238300D01*
X127697169Y-93238300D01*
X127877631Y-93238300D01*
X127877632Y-93238300D01*
X128054152Y-93200780D01*
X128054154Y-93200778D01*
X128054157Y-93200778D01*
X128111145Y-93175405D01*
X128219015Y-93127378D01*
X128365013Y-93021304D01*
X128485767Y-92887193D01*
X128575999Y-92730907D01*
X128631765Y-92559275D01*
X128650629Y-92379800D01*
X129337171Y-92379800D01*
X129356035Y-92559276D01*
X129410980Y-92728382D01*
X129411801Y-92730907D01*
X129502033Y-92887193D01*
X129544096Y-92933908D01*
X129622781Y-93021299D01*
X129622784Y-93021301D01*
X129622787Y-93021304D01*
X129768785Y-93127378D01*
X129933642Y-93200778D01*
X129933648Y-93200780D01*
X130110168Y-93238300D01*
X130110169Y-93238300D01*
X130290631Y-93238300D01*
X130290632Y-93238300D01*
X130467152Y-93200780D01*
X130467154Y-93200778D01*
X130467157Y-93200778D01*
X130524145Y-93175405D01*
X130632015Y-93127378D01*
X130778013Y-93021304D01*
X130898767Y-92887193D01*
X130935078Y-92824300D01*
X139103471Y-92824300D01*
X139122335Y-93003776D01*
X139170733Y-93152732D01*
X139178101Y-93175407D01*
X139268333Y-93331693D01*
X139310396Y-93378408D01*
X139389081Y-93465799D01*
X139389084Y-93465801D01*
X139389087Y-93465804D01*
X139535085Y-93571878D01*
X139699942Y-93645278D01*
X139699948Y-93645280D01*
X139876468Y-93682800D01*
X139876469Y-93682800D01*
X140056931Y-93682800D01*
X140056932Y-93682800D01*
X140233452Y-93645280D01*
X140233454Y-93645278D01*
X140233457Y-93645278D01*
X140288988Y-93620553D01*
X140398315Y-93571878D01*
X140544313Y-93465804D01*
X140665067Y-93331693D01*
X140755299Y-93175407D01*
X140811065Y-93003775D01*
X140829929Y-92824300D01*
X140811065Y-92644825D01*
X140755299Y-92473193D01*
X140665067Y-92316907D01*
X140615922Y-92262326D01*
X140544318Y-92182800D01*
X140544315Y-92182798D01*
X140544314Y-92182797D01*
X140544313Y-92182796D01*
X140398315Y-92076722D01*
X140398314Y-92076721D01*
X140233457Y-92003321D01*
X140233451Y-92003319D01*
X140094451Y-91973774D01*
X140056932Y-91965800D01*
X139876468Y-91965800D01*
X139845525Y-91972376D01*
X139699948Y-92003319D01*
X139699942Y-92003321D01*
X139535086Y-92076721D01*
X139535081Y-92076724D01*
X139389088Y-92182794D01*
X139389081Y-92182800D01*
X139268332Y-92316908D01*
X139178100Y-92473194D01*
X139122335Y-92644823D01*
X139103471Y-92824300D01*
X130935078Y-92824300D01*
X130988999Y-92730907D01*
X131044765Y-92559275D01*
X131063629Y-92379800D01*
X131044765Y-92200325D01*
X130988999Y-92028693D01*
X130898767Y-91872407D01*
X130851471Y-91819879D01*
X130778018Y-91738300D01*
X130778015Y-91738298D01*
X130778014Y-91738297D01*
X130778013Y-91738296D01*
X130680681Y-91667580D01*
X130632014Y-91632221D01*
X130467157Y-91558821D01*
X130467151Y-91558819D01*
X130328151Y-91529274D01*
X130290632Y-91521300D01*
X130110168Y-91521300D01*
X130079225Y-91527876D01*
X129933648Y-91558819D01*
X129933642Y-91558821D01*
X129768786Y-91632221D01*
X129768781Y-91632224D01*
X129622788Y-91738294D01*
X129622781Y-91738300D01*
X129502032Y-91872408D01*
X129411800Y-92028694D01*
X129356035Y-92200323D01*
X129337171Y-92379800D01*
X128650629Y-92379800D01*
X128631765Y-92200325D01*
X128575999Y-92028693D01*
X128485767Y-91872407D01*
X128438471Y-91819879D01*
X128365018Y-91738300D01*
X128365015Y-91738298D01*
X128365014Y-91738297D01*
X128365013Y-91738296D01*
X128267681Y-91667580D01*
X128219014Y-91632221D01*
X128054157Y-91558821D01*
X128054151Y-91558819D01*
X127915151Y-91529274D01*
X127877632Y-91521300D01*
X127697168Y-91521300D01*
X127666225Y-91527876D01*
X127520648Y-91558819D01*
X127520642Y-91558821D01*
X127355786Y-91632221D01*
X127355781Y-91632224D01*
X127209788Y-91738294D01*
X127209781Y-91738300D01*
X127089032Y-91872408D01*
X126998800Y-92028694D01*
X126943035Y-92200323D01*
X126924171Y-92379800D01*
X119480539Y-92379800D01*
X119512614Y-92344957D01*
X119565715Y-92287276D01*
X119565717Y-92287273D01*
X119565722Y-92287268D01*
X119688860Y-92098791D01*
X119779296Y-91892616D01*
X119834564Y-91674368D01*
X119834565Y-91674359D01*
X119853156Y-91450005D01*
X119853156Y-91449994D01*
X119834565Y-91225640D01*
X119834563Y-91225628D01*
X119784819Y-91029194D01*
X119779296Y-91007384D01*
X119688860Y-90801209D01*
X119672706Y-90776484D01*
X119627291Y-90706970D01*
X119565722Y-90612732D01*
X119565719Y-90612729D01*
X119565715Y-90612723D01*
X119413243Y-90447097D01*
X119413238Y-90447092D01*
X119279893Y-90343305D01*
X119235576Y-90308811D01*
X119235575Y-90308810D01*
X119235572Y-90308808D01*
X119037580Y-90201661D01*
X119037577Y-90201659D01*
X119037574Y-90201658D01*
X119037571Y-90201657D01*
X119037569Y-90201656D01*
X118824637Y-90128556D01*
X118602569Y-90091500D01*
X118377431Y-90091500D01*
X118155362Y-90128556D01*
X117942430Y-90201656D01*
X117942419Y-90201661D01*
X117744427Y-90308808D01*
X117744422Y-90308812D01*
X117566761Y-90447092D01*
X117566756Y-90447097D01*
X117414284Y-90612723D01*
X117414276Y-90612734D01*
X117323808Y-90751206D01*
X117270662Y-90796562D01*
X117201431Y-90805986D01*
X117138095Y-90776484D01*
X117116192Y-90751206D01*
X117058286Y-90662576D01*
X117025722Y-90612732D01*
X117025719Y-90612729D01*
X117025715Y-90612723D01*
X116873243Y-90447097D01*
X116873238Y-90447092D01*
X116739893Y-90343305D01*
X116695576Y-90308811D01*
X116695575Y-90308810D01*
X116695572Y-90308808D01*
X116497580Y-90201661D01*
X116497577Y-90201659D01*
X116497574Y-90201658D01*
X116497571Y-90201657D01*
X116497569Y-90201656D01*
X116284637Y-90128556D01*
X116062569Y-90091500D01*
X115837431Y-90091500D01*
X115615362Y-90128556D01*
X115402430Y-90201656D01*
X115402419Y-90201661D01*
X115204427Y-90308808D01*
X115204422Y-90308812D01*
X115026761Y-90447092D01*
X115026756Y-90447097D01*
X114874284Y-90612723D01*
X114874276Y-90612734D01*
X114751140Y-90801207D01*
X114660703Y-91007385D01*
X114605436Y-91225628D01*
X114605434Y-91225640D01*
X114586844Y-91449994D01*
X112300500Y-91449994D01*
X112300500Y-88370097D01*
X121349500Y-88370097D01*
X121349500Y-88629902D01*
X121390140Y-88886493D01*
X121470422Y-89133576D01*
X121527004Y-89244622D01*
X121571114Y-89331193D01*
X121588368Y-89365054D01*
X121652294Y-89453041D01*
X121741069Y-89575229D01*
X121924771Y-89758931D01*
X122134949Y-89911634D01*
X122282445Y-89986787D01*
X122366423Y-90029577D01*
X122366425Y-90029577D01*
X122366428Y-90029579D01*
X122613507Y-90109860D01*
X122745706Y-90130797D01*
X122870098Y-90150500D01*
X122870103Y-90150500D01*
X123129902Y-90150500D01*
X123243298Y-90132539D01*
X123386493Y-90109860D01*
X123633572Y-90029579D01*
X123706932Y-89992200D01*
X133299571Y-89992200D01*
X133318435Y-90171676D01*
X133363376Y-90309993D01*
X133374201Y-90343307D01*
X133464433Y-90499593D01*
X133483340Y-90520591D01*
X133585181Y-90633699D01*
X133585184Y-90633701D01*
X133585187Y-90633704D01*
X133686626Y-90707404D01*
X133731185Y-90739778D01*
X133896042Y-90813178D01*
X133896048Y-90813180D01*
X134072568Y-90850700D01*
X134072569Y-90850700D01*
X134253031Y-90850700D01*
X134253032Y-90850700D01*
X134429552Y-90813180D01*
X134429554Y-90813178D01*
X134429557Y-90813178D01*
X134511972Y-90776484D01*
X134594415Y-90739778D01*
X134740413Y-90633704D01*
X134759295Y-90612734D01*
X134766575Y-90604647D01*
X134861167Y-90499593D01*
X134951399Y-90343307D01*
X135007165Y-90171675D01*
X135022735Y-90023542D01*
X135484500Y-90023542D01*
X135484500Y-90632057D01*
X135525175Y-90836545D01*
X135525177Y-90836553D01*
X135604967Y-91029185D01*
X135604972Y-91029194D01*
X135720808Y-91202554D01*
X135720811Y-91202558D01*
X135868241Y-91349988D01*
X135868245Y-91349991D01*
X136041605Y-91465827D01*
X136041614Y-91465832D01*
X136051421Y-91469894D01*
X136234247Y-91545623D01*
X136417778Y-91582129D01*
X136438742Y-91586299D01*
X136438746Y-91586300D01*
X136438747Y-91586300D01*
X136647252Y-91586300D01*
X136647253Y-91586300D01*
X136668220Y-91582129D01*
X136737809Y-91588355D01*
X136792988Y-91631217D01*
X136816234Y-91697106D01*
X136815733Y-91716708D01*
X136804771Y-91820999D01*
X136823635Y-92000476D01*
X136863612Y-92123515D01*
X136879401Y-92172107D01*
X136969633Y-92328393D01*
X137011696Y-92375108D01*
X137090381Y-92462499D01*
X137090384Y-92462501D01*
X137090387Y-92462504D01*
X137223581Y-92559275D01*
X137236385Y-92568578D01*
X137401242Y-92641978D01*
X137401248Y-92641980D01*
X137577768Y-92679500D01*
X137577769Y-92679500D01*
X137758231Y-92679500D01*
X137758232Y-92679500D01*
X137934752Y-92641980D01*
X137934754Y-92641978D01*
X137934757Y-92641978D01*
X138004455Y-92610946D01*
X138099615Y-92568578D01*
X138245613Y-92462504D01*
X138254255Y-92452907D01*
X138271775Y-92433447D01*
X138366367Y-92328393D01*
X138456599Y-92172107D01*
X138512365Y-92000475D01*
X138531229Y-91821000D01*
X138512365Y-91641525D01*
X138456599Y-91469893D01*
X138366367Y-91313607D01*
X138319071Y-91261079D01*
X138245618Y-91179500D01*
X138245615Y-91179498D01*
X138245614Y-91179497D01*
X138245613Y-91179496D01*
X138099615Y-91073422D01*
X138099614Y-91073421D01*
X137934757Y-91000021D01*
X137934751Y-91000019D01*
X137792101Y-90969699D01*
X137758232Y-90962500D01*
X137686865Y-90962500D01*
X137619826Y-90942815D01*
X137574071Y-90890011D01*
X137564127Y-90820853D01*
X137565248Y-90814309D01*
X137590285Y-90688433D01*
X137601500Y-90632053D01*
X137601500Y-90023547D01*
X137601499Y-90023542D01*
X140324500Y-90023542D01*
X140324500Y-90632057D01*
X140365175Y-90836545D01*
X140365177Y-90836553D01*
X140444967Y-91029185D01*
X140444972Y-91029194D01*
X140560808Y-91202554D01*
X140560811Y-91202558D01*
X140708241Y-91349988D01*
X140708245Y-91349991D01*
X140881605Y-91465827D01*
X140881614Y-91465832D01*
X140891421Y-91469894D01*
X141074247Y-91545623D01*
X141257778Y-91582129D01*
X141278742Y-91586299D01*
X141278746Y-91586300D01*
X141278747Y-91586300D01*
X141487254Y-91586300D01*
X141487255Y-91586299D01*
X141691753Y-91545623D01*
X141884388Y-91465831D01*
X142057755Y-91349991D01*
X142205191Y-91202555D01*
X142321031Y-91029188D01*
X142400823Y-90836553D01*
X142441500Y-90632053D01*
X142441500Y-90023547D01*
X142400823Y-89819047D01*
X142328639Y-89644780D01*
X142321032Y-89626414D01*
X142321027Y-89626405D01*
X142205191Y-89453045D01*
X142205188Y-89453041D01*
X142057758Y-89305611D01*
X142057754Y-89305608D01*
X141884394Y-89189772D01*
X141884385Y-89189767D01*
X141691753Y-89109977D01*
X141691745Y-89109975D01*
X141487257Y-89069300D01*
X141487253Y-89069300D01*
X141278747Y-89069300D01*
X141278742Y-89069300D01*
X141074254Y-89109975D01*
X141074246Y-89109977D01*
X140881614Y-89189767D01*
X140881605Y-89189772D01*
X140708245Y-89305608D01*
X140708241Y-89305611D01*
X140560811Y-89453041D01*
X140560808Y-89453045D01*
X140444972Y-89626405D01*
X140444967Y-89626414D01*
X140365177Y-89819046D01*
X140365175Y-89819054D01*
X140324500Y-90023542D01*
X137601499Y-90023542D01*
X137560823Y-89819047D01*
X137488639Y-89644780D01*
X137481032Y-89626414D01*
X137481027Y-89626405D01*
X137365191Y-89453045D01*
X137365188Y-89453041D01*
X137217758Y-89305611D01*
X137217754Y-89305608D01*
X137044394Y-89189772D01*
X137044385Y-89189767D01*
X136851753Y-89109977D01*
X136851745Y-89109975D01*
X136647257Y-89069300D01*
X136647253Y-89069300D01*
X136438747Y-89069300D01*
X136438742Y-89069300D01*
X136234254Y-89109975D01*
X136234246Y-89109977D01*
X136041614Y-89189767D01*
X136041605Y-89189772D01*
X135868245Y-89305608D01*
X135868241Y-89305611D01*
X135720811Y-89453041D01*
X135720808Y-89453045D01*
X135604972Y-89626405D01*
X135604967Y-89626414D01*
X135525177Y-89819046D01*
X135525175Y-89819054D01*
X135484500Y-90023542D01*
X135022735Y-90023542D01*
X135026029Y-89992200D01*
X135007165Y-89812725D01*
X134951399Y-89641093D01*
X134861167Y-89484807D01*
X134813871Y-89432279D01*
X134740418Y-89350700D01*
X134740415Y-89350698D01*
X134740414Y-89350697D01*
X134740413Y-89350696D01*
X134594415Y-89244622D01*
X134594414Y-89244621D01*
X134429557Y-89171221D01*
X134429551Y-89171219D01*
X134290551Y-89141674D01*
X134253032Y-89133700D01*
X134072568Y-89133700D01*
X134041625Y-89140276D01*
X133896048Y-89171219D01*
X133896042Y-89171221D01*
X133731186Y-89244621D01*
X133731181Y-89244624D01*
X133585188Y-89350694D01*
X133585181Y-89350700D01*
X133464432Y-89484808D01*
X133374200Y-89641094D01*
X133318435Y-89812723D01*
X133299571Y-89992200D01*
X123706932Y-89992200D01*
X123865051Y-89911634D01*
X124075229Y-89758931D01*
X124258931Y-89575229D01*
X124411634Y-89365051D01*
X124529579Y-89133572D01*
X124609860Y-88886493D01*
X124637346Y-88712950D01*
X124650500Y-88629902D01*
X124650500Y-88370097D01*
X124628947Y-88234021D01*
X124609860Y-88113507D01*
X124529579Y-87866428D01*
X124529577Y-87866425D01*
X124529577Y-87866423D01*
X124485509Y-87779937D01*
X124411634Y-87634949D01*
X124258931Y-87424771D01*
X124075229Y-87241069D01*
X123865051Y-87088366D01*
X123792764Y-87051534D01*
X123633576Y-86970422D01*
X123386493Y-86890140D01*
X123129902Y-86849500D01*
X123129897Y-86849500D01*
X122870103Y-86849500D01*
X122870098Y-86849500D01*
X122613506Y-86890140D01*
X122366423Y-86970422D01*
X122134945Y-87088368D01*
X121924774Y-87241066D01*
X121924768Y-87241071D01*
X121741071Y-87424768D01*
X121741066Y-87424774D01*
X121588368Y-87634945D01*
X121470422Y-87866423D01*
X121390140Y-88113506D01*
X121349500Y-88370097D01*
X112300500Y-88370097D01*
X112300500Y-86756745D01*
X127516100Y-86756745D01*
X127516100Y-88554054D01*
X127522611Y-88614602D01*
X127522611Y-88614604D01*
X127573711Y-88751604D01*
X127661339Y-88868661D01*
X127778396Y-88956289D01*
X127915399Y-89007389D01*
X127942650Y-89010318D01*
X127975945Y-89013899D01*
X127975962Y-89013900D01*
X129773238Y-89013900D01*
X129773254Y-89013899D01*
X129800292Y-89010991D01*
X129833801Y-89007389D01*
X129970804Y-88956289D01*
X130087861Y-88868661D01*
X130175489Y-88751604D01*
X130220738Y-88630287D01*
X130262609Y-88574356D01*
X130328074Y-88549939D01*
X130396346Y-88564791D01*
X130428145Y-88589636D01*
X130491360Y-88658306D01*
X130669024Y-88796589D01*
X130669025Y-88796589D01*
X130669027Y-88796591D01*
X130795735Y-88865161D01*
X130867026Y-88903742D01*
X131079965Y-88976844D01*
X131302031Y-89013900D01*
X131527169Y-89013900D01*
X131749235Y-88976844D01*
X131962174Y-88903742D01*
X132109894Y-88823800D01*
X138125571Y-88823800D01*
X138144435Y-89003276D01*
X138199002Y-89171219D01*
X138200201Y-89174907D01*
X138290433Y-89331193D01*
X138320919Y-89365051D01*
X138411181Y-89465299D01*
X138411184Y-89465301D01*
X138411187Y-89465304D01*
X138557185Y-89571378D01*
X138722042Y-89644778D01*
X138722048Y-89644780D01*
X138898568Y-89682300D01*
X138898569Y-89682300D01*
X139079031Y-89682300D01*
X139079032Y-89682300D01*
X139255552Y-89644780D01*
X139255554Y-89644778D01*
X139255557Y-89644778D01*
X139330962Y-89611205D01*
X139420415Y-89571378D01*
X139566413Y-89465304D01*
X139687167Y-89331193D01*
X139777399Y-89174907D01*
X139833165Y-89003275D01*
X139852029Y-88823800D01*
X139840335Y-88712545D01*
X147231500Y-88712545D01*
X147231500Y-90509854D01*
X147238011Y-90570402D01*
X147238011Y-90570404D01*
X147289111Y-90707404D01*
X147376739Y-90824461D01*
X147493796Y-90912089D01*
X147548906Y-90932644D01*
X147628951Y-90962500D01*
X147630799Y-90963189D01*
X147658050Y-90966118D01*
X147691345Y-90969699D01*
X147691362Y-90969700D01*
X149488638Y-90969700D01*
X149488654Y-90969699D01*
X149515692Y-90966791D01*
X149549201Y-90963189D01*
X149551049Y-90962500D01*
X149563768Y-90957755D01*
X149686204Y-90912089D01*
X149803261Y-90824461D01*
X149890889Y-90707404D01*
X149936138Y-90586087D01*
X149978009Y-90530156D01*
X150043474Y-90505739D01*
X150111746Y-90520591D01*
X150143545Y-90545436D01*
X150206760Y-90614106D01*
X150384424Y-90752389D01*
X150384425Y-90752389D01*
X150384427Y-90752391D01*
X150496756Y-90813180D01*
X150582426Y-90859542D01*
X150795365Y-90932644D01*
X151017431Y-90969700D01*
X151242569Y-90969700D01*
X151464635Y-90932644D01*
X151677574Y-90859542D01*
X151875576Y-90752389D01*
X152053240Y-90614106D01*
X152205722Y-90448468D01*
X152296193Y-90309990D01*
X152349338Y-90264637D01*
X152418569Y-90255213D01*
X152481905Y-90284715D01*
X152503804Y-90309987D01*
X152594278Y-90448468D01*
X152594283Y-90448473D01*
X152594284Y-90448476D01*
X152720968Y-90586089D01*
X152746760Y-90614106D01*
X152924424Y-90752389D01*
X152924425Y-90752389D01*
X152924427Y-90752391D01*
X153036756Y-90813180D01*
X153122426Y-90859542D01*
X153335365Y-90932644D01*
X153557431Y-90969700D01*
X153782569Y-90969700D01*
X154004635Y-90932644D01*
X154217574Y-90859542D01*
X154415576Y-90752389D01*
X154593240Y-90614106D01*
X154745722Y-90448468D01*
X154868860Y-90259991D01*
X154959296Y-90053816D01*
X155014564Y-89835568D01*
X155014565Y-89835559D01*
X155033156Y-89611205D01*
X155033156Y-89611194D01*
X155014565Y-89386840D01*
X155014563Y-89386828D01*
X154993996Y-89305611D01*
X154959296Y-89168584D01*
X154868860Y-88962409D01*
X154852706Y-88937684D01*
X154760526Y-88796591D01*
X154745722Y-88773932D01*
X154745719Y-88773929D01*
X154745715Y-88773923D01*
X154593243Y-88608297D01*
X154593238Y-88608292D01*
X154444685Y-88492668D01*
X154415576Y-88470011D01*
X154415575Y-88470010D01*
X154415572Y-88470008D01*
X154230951Y-88370097D01*
X157349500Y-88370097D01*
X157349500Y-88629902D01*
X157390140Y-88886493D01*
X157470422Y-89133576D01*
X157527004Y-89244622D01*
X157571114Y-89331193D01*
X157588368Y-89365054D01*
X157652294Y-89453041D01*
X157741069Y-89575229D01*
X157924771Y-89758931D01*
X158134949Y-89911634D01*
X158282445Y-89986787D01*
X158366423Y-90029577D01*
X158366425Y-90029577D01*
X158366428Y-90029579D01*
X158613507Y-90109860D01*
X158745706Y-90130797D01*
X158870098Y-90150500D01*
X158870103Y-90150500D01*
X159129902Y-90150500D01*
X159243298Y-90132539D01*
X159386493Y-90109860D01*
X159633572Y-90029579D01*
X159865051Y-89911634D01*
X160075229Y-89758931D01*
X160258931Y-89575229D01*
X160411634Y-89365051D01*
X160529579Y-89133572D01*
X160609860Y-88886493D01*
X160637346Y-88712950D01*
X160650500Y-88629902D01*
X160650500Y-88370097D01*
X160628947Y-88234021D01*
X160609860Y-88113507D01*
X160529579Y-87866428D01*
X160529577Y-87866425D01*
X160529577Y-87866423D01*
X160485509Y-87779937D01*
X160411634Y-87634949D01*
X160258931Y-87424771D01*
X160075229Y-87241069D01*
X159865051Y-87088366D01*
X159792764Y-87051534D01*
X159633576Y-86970422D01*
X159386493Y-86890140D01*
X159129902Y-86849500D01*
X159129897Y-86849500D01*
X158870103Y-86849500D01*
X158870098Y-86849500D01*
X158613506Y-86890140D01*
X158366423Y-86970422D01*
X158134945Y-87088368D01*
X157924774Y-87241066D01*
X157924768Y-87241071D01*
X157741071Y-87424768D01*
X157741066Y-87424774D01*
X157588368Y-87634945D01*
X157470422Y-87866423D01*
X157390140Y-88113506D01*
X157349500Y-88370097D01*
X154230951Y-88370097D01*
X154217580Y-88362861D01*
X154217577Y-88362859D01*
X154217574Y-88362858D01*
X154217571Y-88362857D01*
X154217569Y-88362856D01*
X154004637Y-88289756D01*
X153782569Y-88252700D01*
X153557431Y-88252700D01*
X153335362Y-88289756D01*
X153122430Y-88362856D01*
X153122419Y-88362861D01*
X152924427Y-88470008D01*
X152924422Y-88470012D01*
X152746761Y-88608292D01*
X152746756Y-88608297D01*
X152594284Y-88773923D01*
X152594276Y-88773934D01*
X152503808Y-88912406D01*
X152450662Y-88957762D01*
X152381431Y-88967186D01*
X152318095Y-88937684D01*
X152296192Y-88912406D01*
X152220526Y-88796591D01*
X152205722Y-88773932D01*
X152205719Y-88773929D01*
X152205715Y-88773923D01*
X152053243Y-88608297D01*
X152053238Y-88608292D01*
X151904685Y-88492668D01*
X151875576Y-88470011D01*
X151875575Y-88470010D01*
X151875572Y-88470008D01*
X151677580Y-88362861D01*
X151677577Y-88362859D01*
X151677574Y-88362858D01*
X151677571Y-88362857D01*
X151677569Y-88362856D01*
X151464637Y-88289756D01*
X151242569Y-88252700D01*
X151017431Y-88252700D01*
X150795362Y-88289756D01*
X150582430Y-88362856D01*
X150582419Y-88362861D01*
X150384427Y-88470008D01*
X150384422Y-88470012D01*
X150206761Y-88608292D01*
X150143548Y-88676960D01*
X150083661Y-88712950D01*
X150013823Y-88710849D01*
X149956207Y-88671324D01*
X149936138Y-88636310D01*
X149890889Y-88514996D01*
X149857214Y-88470012D01*
X149803261Y-88397939D01*
X149686204Y-88310311D01*
X149549203Y-88259211D01*
X149488654Y-88252700D01*
X149488638Y-88252700D01*
X147691362Y-88252700D01*
X147691345Y-88252700D01*
X147630797Y-88259211D01*
X147630795Y-88259211D01*
X147493795Y-88310311D01*
X147376739Y-88397939D01*
X147289111Y-88514995D01*
X147238011Y-88651995D01*
X147238011Y-88651997D01*
X147231500Y-88712545D01*
X139840335Y-88712545D01*
X139833165Y-88644325D01*
X139777399Y-88472693D01*
X139687167Y-88316407D01*
X139629805Y-88252700D01*
X139566418Y-88182300D01*
X139566415Y-88182298D01*
X139566414Y-88182297D01*
X139566413Y-88182296D01*
X139420415Y-88076222D01*
X139420414Y-88076221D01*
X139255557Y-88002821D01*
X139255551Y-88002819D01*
X139116551Y-87973274D01*
X139079032Y-87965300D01*
X138898568Y-87965300D01*
X138867625Y-87971876D01*
X138722048Y-88002819D01*
X138722042Y-88002821D01*
X138557186Y-88076221D01*
X138557181Y-88076224D01*
X138411188Y-88182294D01*
X138411181Y-88182300D01*
X138290432Y-88316408D01*
X138200200Y-88472694D01*
X138144435Y-88644323D01*
X138125571Y-88823800D01*
X132109894Y-88823800D01*
X132160176Y-88796589D01*
X132337840Y-88658306D01*
X132437600Y-88549939D01*
X132490315Y-88492676D01*
X132490316Y-88492674D01*
X132490322Y-88492668D01*
X132613460Y-88304191D01*
X132703896Y-88098016D01*
X132759164Y-87879768D01*
X132759165Y-87879759D01*
X132777756Y-87655405D01*
X132777756Y-87655394D01*
X132759165Y-87431040D01*
X132759163Y-87431028D01*
X132703896Y-87212785D01*
X132649322Y-87088368D01*
X132613460Y-87006609D01*
X132490322Y-86818132D01*
X132490319Y-86818129D01*
X132490315Y-86818123D01*
X132337843Y-86652497D01*
X132337838Y-86652492D01*
X132183691Y-86532514D01*
X132160176Y-86514211D01*
X132160175Y-86514210D01*
X132160172Y-86514208D01*
X131962180Y-86407061D01*
X131962177Y-86407059D01*
X131962174Y-86407058D01*
X131962171Y-86407057D01*
X131962169Y-86407056D01*
X131749237Y-86333956D01*
X131527169Y-86296900D01*
X131302031Y-86296900D01*
X131079962Y-86333956D01*
X130867030Y-86407056D01*
X130867019Y-86407061D01*
X130669027Y-86514208D01*
X130669022Y-86514212D01*
X130491361Y-86652492D01*
X130428148Y-86721160D01*
X130368261Y-86757150D01*
X130298423Y-86755049D01*
X130240807Y-86715524D01*
X130220738Y-86680510D01*
X130175489Y-86559196D01*
X130141814Y-86514212D01*
X130087861Y-86442139D01*
X129970804Y-86354511D01*
X129833803Y-86303411D01*
X129773254Y-86296900D01*
X129773238Y-86296900D01*
X127975962Y-86296900D01*
X127975945Y-86296900D01*
X127915397Y-86303411D01*
X127915395Y-86303411D01*
X127778395Y-86354511D01*
X127661339Y-86442139D01*
X127573711Y-86559195D01*
X127522611Y-86696195D01*
X127522611Y-86696197D01*
X127516100Y-86756745D01*
X112300500Y-86756745D01*
X112300500Y-85924500D01*
X112320185Y-85857461D01*
X112372989Y-85811706D01*
X112424500Y-85800500D01*
X135782159Y-85800500D01*
X135849198Y-85820185D01*
G37*
G04 #@! TD.AperFunction*
M02*
