G04 #@! TF.GenerationSoftware,KiCad,Pcbnew,8.0.8*
G04 #@! TF.CreationDate,2025-02-21T19:24:50+11:00*
G04 #@! TF.ProjectId,RP2350LevelShifter,52503233-3530-44c6-9576-656c53686966,rev?*
G04 #@! TF.SameCoordinates,Original*
G04 #@! TF.FileFunction,Copper,L2,Inr*
G04 #@! TF.FilePolarity,Positive*
%FSLAX46Y46*%
G04 Gerber Fmt 4.6, Leading zero omitted, Abs format (unit mm)*
G04 Created by KiCad (PCBNEW 8.0.8) date 2025-02-21 19:24:50*
%MOMM*%
%LPD*%
G01*
G04 APERTURE LIST*
G04 #@! TA.AperFunction,ComponentPad*
%ADD10R,1.700000X1.700000*%
G04 #@! TD*
G04 #@! TA.AperFunction,ComponentPad*
%ADD11O,1.700000X1.700000*%
G04 #@! TD*
G04 #@! TA.AperFunction,ComponentPad*
%ADD12R,1.600000X1.600000*%
G04 #@! TD*
G04 #@! TA.AperFunction,ComponentPad*
%ADD13C,1.600000*%
G04 #@! TD*
G04 #@! TA.AperFunction,ComponentPad*
%ADD14O,1.350000X1.700000*%
G04 #@! TD*
G04 #@! TA.AperFunction,ComponentPad*
%ADD15O,1.100000X1.500000*%
G04 #@! TD*
G04 #@! TA.AperFunction,HeatsinkPad*
%ADD16C,0.700000*%
G04 #@! TD*
G04 #@! TA.AperFunction,ViaPad*
%ADD17C,0.700000*%
G04 #@! TD*
G04 APERTURE END LIST*
D10*
X118490000Y-129550000D03*
D11*
X115950000Y-129550000D03*
X118490000Y-127010000D03*
X115950000Y-127010000D03*
X118490000Y-124470000D03*
X115950000Y-124470000D03*
X118490000Y-121930000D03*
X115950000Y-121930000D03*
X118490000Y-119390000D03*
X115950000Y-119390000D03*
X118490000Y-116850000D03*
X115950000Y-116850000D03*
X118490000Y-114310000D03*
X115950000Y-114310000D03*
X118490000Y-111770000D03*
X115950000Y-111770000D03*
X118490000Y-109230000D03*
X115950000Y-109230000D03*
X118490000Y-106690000D03*
X115950000Y-106690000D03*
X118490000Y-104150000D03*
X115950000Y-104150000D03*
X118490000Y-101610000D03*
X115950000Y-101610000D03*
X118490000Y-99070000D03*
X115950000Y-99070000D03*
X118490000Y-96530000D03*
X115950000Y-96530000D03*
X118490000Y-93990000D03*
X115950000Y-93990000D03*
X118490000Y-91450000D03*
X115950000Y-91450000D03*
D12*
X130641700Y-127010000D03*
D13*
X130641700Y-124510000D03*
D10*
X160197800Y-93395800D03*
D11*
X160197800Y-95935800D03*
X160197800Y-98475800D03*
X160197800Y-101015800D03*
X160197800Y-103555800D03*
X160197800Y-106095800D03*
D14*
X141693000Y-87327800D03*
D15*
X141383000Y-90327800D03*
X136543000Y-90327800D03*
D14*
X136233000Y-87327800D03*
D10*
X148590000Y-126410000D03*
D11*
X151130000Y-126410000D03*
X153670000Y-126410000D03*
D10*
X128874600Y-87655400D03*
D11*
X131414600Y-87655400D03*
D10*
X148590000Y-89611200D03*
D11*
X151130000Y-89611200D03*
X153670000Y-89611200D03*
D16*
X150200000Y-106062500D03*
X150200000Y-105062500D03*
X150200000Y-104062500D03*
X149200000Y-106062500D03*
X149200000Y-105062500D03*
X149200000Y-104062500D03*
X148200000Y-106062500D03*
X148200000Y-105062500D03*
X148200000Y-104062500D03*
D10*
X140770000Y-119380000D03*
D11*
X143310000Y-119380000D03*
X145850000Y-119380000D03*
D17*
X138988800Y-88823800D03*
X134162800Y-89992200D03*
X148753825Y-107499852D03*
X156057600Y-111607600D03*
X146850000Y-103550000D03*
X152298400Y-121412000D03*
X153436203Y-100558405D03*
X142951200Y-97876600D03*
X160147000Y-118821200D03*
X137668000Y-91821000D03*
X148640800Y-121005600D03*
X159994600Y-113588800D03*
X127787400Y-100355400D03*
X138715100Y-124550400D03*
X127787400Y-110464600D03*
X154432000Y-115214400D03*
X124650000Y-113550000D03*
X124650000Y-117450000D03*
X143950000Y-113050000D03*
X128950000Y-119500000D03*
X127787400Y-92379800D03*
X153100000Y-114600000D03*
X124650000Y-107350000D03*
X135590900Y-127446000D03*
X130200400Y-92379800D03*
X154559000Y-111963200D03*
X143764000Y-96530400D03*
X124650000Y-97250000D03*
X130225000Y-100355400D03*
X124650000Y-103450000D03*
X156591000Y-100050600D03*
X130200400Y-110439200D03*
X124650000Y-93325000D03*
X141991900Y-128842800D03*
X143747762Y-106415416D03*
X156921200Y-117398800D03*
X133185200Y-91300000D03*
X140620300Y-128842800D03*
X147066000Y-92696000D03*
X154687329Y-104930696D03*
X133185200Y-119500000D03*
X144653000Y-100924600D03*
X155600400Y-109651800D03*
X147854496Y-107534643D03*
X133000000Y-100350000D03*
X154965400Y-99847400D03*
X138226800Y-94615000D03*
X132950000Y-110450000D03*
X149929549Y-110033438D03*
X149029074Y-110014674D03*
X139966700Y-92824300D03*
X145268750Y-110200000D03*
X151758888Y-111300000D03*
X152467612Y-110744864D03*
X146387990Y-110287500D03*
X154580414Y-103630696D03*
X153978524Y-102245048D03*
X154638569Y-107237330D03*
X154728271Y-102742922D03*
X155899799Y-108498664D03*
X153250000Y-110125000D03*
X153175000Y-108437500D03*
X155354587Y-107782600D03*
X126212600Y-110464600D03*
X126238000Y-100330000D03*
X141986000Y-97876600D03*
G04 #@! TA.AperFunction,Conductor*
G36*
X118024075Y-129357007D02*
G01*
X117990000Y-129484174D01*
X117990000Y-129615826D01*
X118024075Y-129742993D01*
X118056988Y-129800000D01*
X116383012Y-129800000D01*
X116415925Y-129742993D01*
X116450000Y-129615826D01*
X116450000Y-129484174D01*
X116415925Y-129357007D01*
X116383012Y-129300000D01*
X118056988Y-129300000D01*
X118024075Y-129357007D01*
G37*
G04 #@! TD.AperFunction*
G04 #@! TA.AperFunction,Conductor*
G36*
X135876706Y-85820185D02*
G01*
X135922461Y-85872989D01*
X135932405Y-85942147D01*
X135903380Y-86005703D01*
X135847985Y-86042431D01*
X135781959Y-86063883D01*
X135781956Y-86063884D01*
X135617162Y-86147852D01*
X135467545Y-86256554D01*
X135467540Y-86256558D01*
X135336758Y-86387340D01*
X135336754Y-86387345D01*
X135228052Y-86536962D01*
X135144084Y-86701756D01*
X135144083Y-86701759D01*
X135086933Y-86877652D01*
X135058000Y-87060326D01*
X135058000Y-87077800D01*
X135883000Y-87077800D01*
X135883000Y-87577800D01*
X135058000Y-87577800D01*
X135058000Y-87595273D01*
X135086933Y-87777947D01*
X135144083Y-87953840D01*
X135144084Y-87953843D01*
X135228052Y-88118637D01*
X135336754Y-88268254D01*
X135336758Y-88268259D01*
X135467540Y-88399041D01*
X135467545Y-88399045D01*
X135617162Y-88507747D01*
X135781956Y-88591715D01*
X135781959Y-88591716D01*
X135957845Y-88648864D01*
X135957858Y-88648867D01*
X135983000Y-88652849D01*
X135983000Y-87822775D01*
X136018095Y-87857870D01*
X136097905Y-87903948D01*
X136186922Y-87927800D01*
X136279078Y-87927800D01*
X136368095Y-87903948D01*
X136447905Y-87857870D01*
X136483000Y-87822775D01*
X136483000Y-88652848D01*
X136508141Y-88648867D01*
X136508154Y-88648864D01*
X136684040Y-88591716D01*
X136684043Y-88591715D01*
X136848837Y-88507747D01*
X136998454Y-88399045D01*
X136998459Y-88399041D01*
X137129241Y-88268259D01*
X137129245Y-88268254D01*
X137237947Y-88118637D01*
X137321915Y-87953843D01*
X137321916Y-87953840D01*
X137379066Y-87777947D01*
X137408000Y-87595273D01*
X137408000Y-87577800D01*
X136583000Y-87577800D01*
X136583000Y-87077800D01*
X137408000Y-87077800D01*
X137408000Y-87060326D01*
X137379066Y-86877652D01*
X137321916Y-86701759D01*
X137321915Y-86701756D01*
X137237947Y-86536962D01*
X137129245Y-86387345D01*
X137129241Y-86387340D01*
X136998459Y-86256558D01*
X136998454Y-86256554D01*
X136848837Y-86147852D01*
X136684043Y-86063884D01*
X136684040Y-86063883D01*
X136618015Y-86042431D01*
X136560340Y-86002994D01*
X136533141Y-85938635D01*
X136545055Y-85869789D01*
X136592300Y-85818313D01*
X136656333Y-85800500D01*
X141269667Y-85800500D01*
X141336706Y-85820185D01*
X141382461Y-85872989D01*
X141392405Y-85942147D01*
X141363380Y-86005703D01*
X141307985Y-86042431D01*
X141241959Y-86063883D01*
X141241956Y-86063884D01*
X141077162Y-86147852D01*
X140927545Y-86256554D01*
X140927540Y-86256558D01*
X140796758Y-86387340D01*
X140796754Y-86387345D01*
X140688052Y-86536962D01*
X140604084Y-86701756D01*
X140604083Y-86701759D01*
X140546933Y-86877652D01*
X140518000Y-87060326D01*
X140518000Y-87077800D01*
X141343000Y-87077800D01*
X141343000Y-87577800D01*
X140518000Y-87577800D01*
X140518000Y-87595273D01*
X140546933Y-87777947D01*
X140604083Y-87953840D01*
X140604084Y-87953843D01*
X140688052Y-88118637D01*
X140796754Y-88268254D01*
X140796758Y-88268259D01*
X140927540Y-88399041D01*
X140927545Y-88399045D01*
X141077162Y-88507747D01*
X141241956Y-88591715D01*
X141241959Y-88591716D01*
X141417845Y-88648864D01*
X141417858Y-88648867D01*
X141443000Y-88652849D01*
X141443000Y-87822775D01*
X141478095Y-87857870D01*
X141557905Y-87903948D01*
X141646922Y-87927800D01*
X141739078Y-87927800D01*
X141828095Y-87903948D01*
X141907905Y-87857870D01*
X141943000Y-87822775D01*
X141943000Y-88652848D01*
X141968141Y-88648867D01*
X141968154Y-88648864D01*
X142144040Y-88591716D01*
X142144043Y-88591715D01*
X142308837Y-88507747D01*
X142458454Y-88399045D01*
X142458459Y-88399041D01*
X142589241Y-88268259D01*
X142589245Y-88268254D01*
X142697947Y-88118637D01*
X142781915Y-87953843D01*
X142781916Y-87953840D01*
X142839066Y-87777947D01*
X142868000Y-87595273D01*
X142868000Y-87577800D01*
X142043000Y-87577800D01*
X142043000Y-87077800D01*
X142868000Y-87077800D01*
X142868000Y-87060326D01*
X142839066Y-86877652D01*
X142781916Y-86701759D01*
X142781915Y-86701756D01*
X142697947Y-86536962D01*
X142589245Y-86387345D01*
X142589241Y-86387340D01*
X142458459Y-86256558D01*
X142458454Y-86256554D01*
X142308837Y-86147852D01*
X142144043Y-86063884D01*
X142144040Y-86063883D01*
X142078015Y-86042431D01*
X142020340Y-86002994D01*
X141993141Y-85938635D01*
X142005055Y-85869789D01*
X142052300Y-85818313D01*
X142116333Y-85800500D01*
X161575500Y-85800500D01*
X161642539Y-85820185D01*
X161688294Y-85872989D01*
X161699500Y-85924500D01*
X161699500Y-92209469D01*
X161679815Y-92276508D01*
X161627011Y-92322263D01*
X161557853Y-92332207D01*
X161494297Y-92303182D01*
X161476234Y-92283781D01*
X161404987Y-92188609D01*
X161289893Y-92102449D01*
X161289886Y-92102445D01*
X161155179Y-92052203D01*
X161155172Y-92052201D01*
X161095644Y-92045800D01*
X160447800Y-92045800D01*
X160447800Y-92962788D01*
X160390793Y-92929875D01*
X160263626Y-92895800D01*
X160131974Y-92895800D01*
X160004807Y-92929875D01*
X159947800Y-92962788D01*
X159947800Y-92045800D01*
X159299955Y-92045800D01*
X159240427Y-92052201D01*
X159240420Y-92052203D01*
X159105713Y-92102445D01*
X159105706Y-92102449D01*
X158990612Y-92188609D01*
X158990609Y-92188612D01*
X158904449Y-92303706D01*
X158904445Y-92303713D01*
X158854203Y-92438420D01*
X158854201Y-92438427D01*
X158847800Y-92497955D01*
X158847800Y-93145800D01*
X159764788Y-93145800D01*
X159731875Y-93202807D01*
X159697800Y-93329974D01*
X159697800Y-93461626D01*
X159731875Y-93588793D01*
X159764788Y-93645800D01*
X158847800Y-93645800D01*
X158847800Y-94293644D01*
X158854201Y-94353172D01*
X158854203Y-94353179D01*
X158904445Y-94487886D01*
X158904449Y-94487893D01*
X158990609Y-94602987D01*
X158990612Y-94602990D01*
X159105706Y-94689150D01*
X159105713Y-94689154D01*
X159225610Y-94733873D01*
X159281544Y-94775744D01*
X159305961Y-94841209D01*
X159291109Y-94909482D01*
X159273506Y-94934038D01*
X159122084Y-95098523D01*
X159122076Y-95098534D01*
X158998940Y-95287007D01*
X158908503Y-95493185D01*
X158853236Y-95711428D01*
X158853234Y-95711440D01*
X158834644Y-95935794D01*
X158834644Y-95935805D01*
X158853234Y-96160159D01*
X158853236Y-96160171D01*
X158908503Y-96378414D01*
X158998940Y-96584592D01*
X159122076Y-96773065D01*
X159122084Y-96773076D01*
X159274556Y-96938702D01*
X159274561Y-96938707D01*
X159318127Y-96972616D01*
X159452224Y-97076989D01*
X159452229Y-97076991D01*
X159452231Y-97076993D01*
X159488730Y-97096746D01*
X159538320Y-97145965D01*
X159553428Y-97214182D01*
X159529257Y-97279737D01*
X159488730Y-97314854D01*
X159452231Y-97334606D01*
X159452222Y-97334612D01*
X159274561Y-97472892D01*
X159274556Y-97472897D01*
X159122084Y-97638523D01*
X159122076Y-97638534D01*
X158998940Y-97827007D01*
X158908503Y-98033185D01*
X158853236Y-98251428D01*
X158853234Y-98251440D01*
X158834644Y-98475794D01*
X158834644Y-98475805D01*
X158853234Y-98700159D01*
X158853236Y-98700171D01*
X158908503Y-98918414D01*
X158998940Y-99124592D01*
X159122076Y-99313065D01*
X159122084Y-99313076D01*
X159274556Y-99478702D01*
X159274561Y-99478707D01*
X159318127Y-99512616D01*
X159452224Y-99616989D01*
X159452229Y-99616991D01*
X159452231Y-99616993D01*
X159488730Y-99636746D01*
X159538320Y-99685965D01*
X159553428Y-99754182D01*
X159529257Y-99819737D01*
X159488730Y-99854854D01*
X159452231Y-99874606D01*
X159452222Y-99874612D01*
X159274561Y-100012892D01*
X159274556Y-100012897D01*
X159122084Y-100178523D01*
X159122076Y-100178534D01*
X158998940Y-100367007D01*
X158908503Y-100573185D01*
X158853236Y-100791428D01*
X158853234Y-100791440D01*
X158834644Y-101015794D01*
X158834644Y-101015805D01*
X158853234Y-101240159D01*
X158853236Y-101240171D01*
X158908503Y-101458414D01*
X158998940Y-101664592D01*
X159122076Y-101853065D01*
X159122084Y-101853076D01*
X159274556Y-102018702D01*
X159274561Y-102018707D01*
X159318127Y-102052616D01*
X159452224Y-102156989D01*
X159452229Y-102156991D01*
X159452231Y-102156993D01*
X159488730Y-102176746D01*
X159538320Y-102225965D01*
X159553428Y-102294182D01*
X159529257Y-102359737D01*
X159488730Y-102394854D01*
X159452231Y-102414606D01*
X159452222Y-102414612D01*
X159274561Y-102552892D01*
X159274556Y-102552897D01*
X159122084Y-102718523D01*
X159122076Y-102718534D01*
X158998940Y-102907007D01*
X158908503Y-103113185D01*
X158853236Y-103331428D01*
X158853234Y-103331440D01*
X158834644Y-103555794D01*
X158834644Y-103555805D01*
X158853234Y-103780159D01*
X158853236Y-103780171D01*
X158908503Y-103998414D01*
X158998940Y-104204592D01*
X159122076Y-104393065D01*
X159122084Y-104393076D01*
X159274556Y-104558702D01*
X159274561Y-104558707D01*
X159318127Y-104592616D01*
X159452224Y-104696989D01*
X159452229Y-104696991D01*
X159452231Y-104696993D01*
X159488730Y-104716746D01*
X159538320Y-104765965D01*
X159553428Y-104834182D01*
X159529257Y-104899737D01*
X159488730Y-104934854D01*
X159452231Y-104954606D01*
X159452222Y-104954612D01*
X159274561Y-105092892D01*
X159274556Y-105092897D01*
X159122084Y-105258523D01*
X159122076Y-105258534D01*
X158998940Y-105447007D01*
X158908503Y-105653185D01*
X158853236Y-105871428D01*
X158853234Y-105871440D01*
X158834644Y-106095794D01*
X158834644Y-106095805D01*
X158853234Y-106320159D01*
X158853236Y-106320171D01*
X158908503Y-106538414D01*
X158998940Y-106744592D01*
X159122076Y-106933065D01*
X159122084Y-106933076D01*
X159274556Y-107098702D01*
X159274561Y-107098707D01*
X159318127Y-107132616D01*
X159452224Y-107236989D01*
X159452225Y-107236989D01*
X159452227Y-107236991D01*
X159578935Y-107305561D01*
X159650226Y-107344142D01*
X159863165Y-107417244D01*
X160085231Y-107454300D01*
X160310369Y-107454300D01*
X160532435Y-107417244D01*
X160745374Y-107344142D01*
X160943376Y-107236989D01*
X161121040Y-107098706D01*
X161273522Y-106933068D01*
X161396660Y-106744591D01*
X161461944Y-106595756D01*
X161506899Y-106542271D01*
X161573635Y-106521580D01*
X161640963Y-106540254D01*
X161687507Y-106592364D01*
X161699500Y-106645566D01*
X161699500Y-135075500D01*
X161679815Y-135142539D01*
X161627011Y-135188294D01*
X161575500Y-135199500D01*
X112424500Y-135199500D01*
X112357461Y-135179815D01*
X112311706Y-135127011D01*
X112300500Y-135075500D01*
X112300500Y-132370097D01*
X121349500Y-132370097D01*
X121349500Y-132629902D01*
X121390140Y-132886493D01*
X121470422Y-133133576D01*
X121551534Y-133292764D01*
X121588366Y-133365051D01*
X121741069Y-133575229D01*
X121924771Y-133758931D01*
X122134949Y-133911634D01*
X122282445Y-133986787D01*
X122366423Y-134029577D01*
X122366425Y-134029577D01*
X122366428Y-134029579D01*
X122613507Y-134109860D01*
X122745706Y-134130797D01*
X122870098Y-134150500D01*
X122870103Y-134150500D01*
X123129902Y-134150500D01*
X123243298Y-134132539D01*
X123386493Y-134109860D01*
X123633572Y-134029579D01*
X123865051Y-133911634D01*
X124075229Y-133758931D01*
X124258931Y-133575229D01*
X124411634Y-133365051D01*
X124529579Y-133133572D01*
X124609860Y-132886493D01*
X124632539Y-132743298D01*
X124650500Y-132629902D01*
X124650500Y-132370097D01*
X157349500Y-132370097D01*
X157349500Y-132629902D01*
X157390140Y-132886493D01*
X157470422Y-133133576D01*
X157551534Y-133292764D01*
X157588366Y-133365051D01*
X157741069Y-133575229D01*
X157924771Y-133758931D01*
X158134949Y-133911634D01*
X158282445Y-133986787D01*
X158366423Y-134029577D01*
X158366425Y-134029577D01*
X158366428Y-134029579D01*
X158613507Y-134109860D01*
X158745706Y-134130797D01*
X158870098Y-134150500D01*
X158870103Y-134150500D01*
X159129902Y-134150500D01*
X159243298Y-134132539D01*
X159386493Y-134109860D01*
X159633572Y-134029579D01*
X159865051Y-133911634D01*
X160075229Y-133758931D01*
X160258931Y-133575229D01*
X160411634Y-133365051D01*
X160529579Y-133133572D01*
X160609860Y-132886493D01*
X160632539Y-132743298D01*
X160650500Y-132629902D01*
X160650500Y-132370097D01*
X160628947Y-132234021D01*
X160609860Y-132113507D01*
X160529579Y-131866428D01*
X160529577Y-131866425D01*
X160529577Y-131866423D01*
X160486787Y-131782445D01*
X160411634Y-131634949D01*
X160258931Y-131424771D01*
X160075229Y-131241069D01*
X159865051Y-131088366D01*
X159792764Y-131051534D01*
X159633576Y-130970422D01*
X159386493Y-130890140D01*
X159129902Y-130849500D01*
X159129897Y-130849500D01*
X158870103Y-130849500D01*
X158870098Y-130849500D01*
X158613506Y-130890140D01*
X158366423Y-130970422D01*
X158134945Y-131088368D01*
X157924774Y-131241066D01*
X157924768Y-131241071D01*
X157741071Y-131424768D01*
X157741066Y-131424774D01*
X157588368Y-131634945D01*
X157470422Y-131866423D01*
X157390140Y-132113506D01*
X157349500Y-132370097D01*
X124650500Y-132370097D01*
X124628947Y-132234021D01*
X124609860Y-132113507D01*
X124529579Y-131866428D01*
X124529577Y-131866425D01*
X124529577Y-131866423D01*
X124486787Y-131782445D01*
X124411634Y-131634949D01*
X124258931Y-131424771D01*
X124075229Y-131241069D01*
X123865051Y-131088366D01*
X123792764Y-131051534D01*
X123633576Y-130970422D01*
X123386493Y-130890140D01*
X123129902Y-130849500D01*
X123129897Y-130849500D01*
X122870103Y-130849500D01*
X122870098Y-130849500D01*
X122613506Y-130890140D01*
X122366423Y-130970422D01*
X122134945Y-131088368D01*
X121924774Y-131241066D01*
X121924768Y-131241071D01*
X121741071Y-131424768D01*
X121741066Y-131424774D01*
X121588368Y-131634945D01*
X121470422Y-131866423D01*
X121390140Y-132113506D01*
X121349500Y-132370097D01*
X112300500Y-132370097D01*
X112300500Y-91449994D01*
X114586844Y-91449994D01*
X114586844Y-91450005D01*
X114605434Y-91674359D01*
X114605436Y-91674371D01*
X114660703Y-91892614D01*
X114751140Y-92098792D01*
X114874276Y-92287265D01*
X114874284Y-92287276D01*
X115013431Y-92438427D01*
X115026760Y-92452906D01*
X115204424Y-92591189D01*
X115204429Y-92591191D01*
X115204431Y-92591193D01*
X115240930Y-92610946D01*
X115290520Y-92660165D01*
X115305628Y-92728382D01*
X115281457Y-92793937D01*
X115240930Y-92829054D01*
X115204431Y-92848806D01*
X115204422Y-92848812D01*
X115026761Y-92987092D01*
X115026756Y-92987097D01*
X114874284Y-93152723D01*
X114874276Y-93152734D01*
X114751140Y-93341207D01*
X114660703Y-93547385D01*
X114605436Y-93765628D01*
X114605434Y-93765640D01*
X114586844Y-93989994D01*
X114586844Y-93990005D01*
X114605434Y-94214359D01*
X114605436Y-94214371D01*
X114660703Y-94432614D01*
X114751140Y-94638792D01*
X114874276Y-94827265D01*
X114874284Y-94827276D01*
X115026756Y-94992902D01*
X115026760Y-94992906D01*
X115204424Y-95131189D01*
X115204429Y-95131191D01*
X115204431Y-95131193D01*
X115240930Y-95150946D01*
X115290520Y-95200165D01*
X115305628Y-95268382D01*
X115281457Y-95333937D01*
X115240930Y-95369054D01*
X115204431Y-95388806D01*
X115204422Y-95388812D01*
X115026761Y-95527092D01*
X115026756Y-95527097D01*
X114874284Y-95692723D01*
X114874276Y-95692734D01*
X114751140Y-95881207D01*
X114660703Y-96087385D01*
X114605436Y-96305628D01*
X114605434Y-96305640D01*
X114586844Y-96529994D01*
X114586844Y-96530005D01*
X114605434Y-96754359D01*
X114605436Y-96754371D01*
X114660703Y-96972614D01*
X114751140Y-97178792D01*
X114874276Y-97367265D01*
X114874284Y-97367276D01*
X115026756Y-97532902D01*
X115026760Y-97532906D01*
X115204424Y-97671189D01*
X115204429Y-97671191D01*
X115204431Y-97671193D01*
X115240930Y-97690946D01*
X115290520Y-97740165D01*
X115305628Y-97808382D01*
X115281457Y-97873937D01*
X115240930Y-97909054D01*
X115204431Y-97928806D01*
X115204422Y-97928812D01*
X115026761Y-98067092D01*
X115026756Y-98067097D01*
X114874284Y-98232723D01*
X114874276Y-98232734D01*
X114751140Y-98421207D01*
X114660703Y-98627385D01*
X114605436Y-98845628D01*
X114605434Y-98845640D01*
X114586844Y-99069994D01*
X114586844Y-99070005D01*
X114605434Y-99294359D01*
X114605436Y-99294371D01*
X114660703Y-99512614D01*
X114751140Y-99718792D01*
X114874276Y-99907265D01*
X114874284Y-99907276D01*
X115026756Y-100072902D01*
X115026760Y-100072906D01*
X115204424Y-100211189D01*
X115204429Y-100211191D01*
X115204431Y-100211193D01*
X115240930Y-100230946D01*
X115290520Y-100280165D01*
X115305628Y-100348382D01*
X115281457Y-100413937D01*
X115240930Y-100449054D01*
X115204431Y-100468806D01*
X115204422Y-100468812D01*
X115026761Y-100607092D01*
X115026756Y-100607097D01*
X114874284Y-100772723D01*
X114874276Y-100772734D01*
X114751140Y-100961207D01*
X114660703Y-101167385D01*
X114605436Y-101385628D01*
X114605434Y-101385640D01*
X114586844Y-101609994D01*
X114586844Y-101610005D01*
X114605434Y-101834359D01*
X114605436Y-101834371D01*
X114660703Y-102052614D01*
X114751140Y-102258792D01*
X114874276Y-102447265D01*
X114874284Y-102447276D01*
X115011339Y-102596155D01*
X115026760Y-102612906D01*
X115204424Y-102751189D01*
X115204429Y-102751191D01*
X115204431Y-102751193D01*
X115240930Y-102770946D01*
X115290520Y-102820165D01*
X115305628Y-102888382D01*
X115281457Y-102953937D01*
X115240930Y-102989054D01*
X115204431Y-103008806D01*
X115204422Y-103008812D01*
X115026761Y-103147092D01*
X115026756Y-103147097D01*
X114874284Y-103312723D01*
X114874276Y-103312734D01*
X114751140Y-103501207D01*
X114660703Y-103707385D01*
X114605436Y-103925628D01*
X114605434Y-103925640D01*
X114586844Y-104149994D01*
X114586844Y-104150005D01*
X114605434Y-104374359D01*
X114605436Y-104374371D01*
X114660703Y-104592614D01*
X114751140Y-104798792D01*
X114874276Y-104987265D01*
X114874284Y-104987276D01*
X114971517Y-105092897D01*
X115026760Y-105152906D01*
X115204424Y-105291189D01*
X115204429Y-105291191D01*
X115204431Y-105291193D01*
X115240930Y-105310946D01*
X115290520Y-105360165D01*
X115305628Y-105428382D01*
X115281457Y-105493937D01*
X115240930Y-105529054D01*
X115204431Y-105548806D01*
X115204422Y-105548812D01*
X115026761Y-105687092D01*
X115026756Y-105687097D01*
X114874284Y-105852723D01*
X114874276Y-105852734D01*
X114751140Y-106041207D01*
X114660703Y-106247385D01*
X114605436Y-106465628D01*
X114605434Y-106465640D01*
X114586844Y-106689994D01*
X114586844Y-106690005D01*
X114605434Y-106914359D01*
X114605436Y-106914371D01*
X114660703Y-107132614D01*
X114751140Y-107338792D01*
X114874276Y-107527265D01*
X114874284Y-107527276D01*
X115024012Y-107689921D01*
X115026760Y-107692906D01*
X115204424Y-107831189D01*
X115204429Y-107831191D01*
X115204431Y-107831193D01*
X115240930Y-107850946D01*
X115290520Y-107900165D01*
X115305628Y-107968382D01*
X115281457Y-108033937D01*
X115240930Y-108069054D01*
X115204431Y-108088806D01*
X115204422Y-108088812D01*
X115026761Y-108227092D01*
X115026756Y-108227097D01*
X114874284Y-108392723D01*
X114874276Y-108392734D01*
X114751140Y-108581207D01*
X114660703Y-108787385D01*
X114605436Y-109005628D01*
X114605434Y-109005640D01*
X114586844Y-109229994D01*
X114586844Y-109230005D01*
X114605434Y-109454359D01*
X114605436Y-109454371D01*
X114660703Y-109672614D01*
X114751140Y-109878792D01*
X114874276Y-110067265D01*
X114874284Y-110067276D01*
X115026756Y-110232902D01*
X115026760Y-110232906D01*
X115204424Y-110371189D01*
X115204429Y-110371191D01*
X115204431Y-110371193D01*
X115240930Y-110390946D01*
X115290520Y-110440165D01*
X115305628Y-110508382D01*
X115281457Y-110573937D01*
X115240930Y-110609054D01*
X115204431Y-110628806D01*
X115204422Y-110628812D01*
X115026761Y-110767092D01*
X115026756Y-110767097D01*
X114874284Y-110932723D01*
X114874276Y-110932734D01*
X114751140Y-111121207D01*
X114660703Y-111327385D01*
X114605436Y-111545628D01*
X114605434Y-111545640D01*
X114586844Y-111769994D01*
X114586844Y-111770005D01*
X114605434Y-111994359D01*
X114605436Y-111994371D01*
X114660703Y-112212614D01*
X114751140Y-112418792D01*
X114874276Y-112607265D01*
X114874284Y-112607276D01*
X115026756Y-112772902D01*
X115026760Y-112772906D01*
X115204424Y-112911189D01*
X115204429Y-112911191D01*
X115204431Y-112911193D01*
X115240930Y-112930946D01*
X115290520Y-112980165D01*
X115305628Y-113048382D01*
X115281457Y-113113937D01*
X115240930Y-113149054D01*
X115204431Y-113168806D01*
X115204422Y-113168812D01*
X115026761Y-113307092D01*
X115026756Y-113307097D01*
X114874284Y-113472723D01*
X114874276Y-113472734D01*
X114751140Y-113661207D01*
X114660703Y-113867385D01*
X114605436Y-114085628D01*
X114605434Y-114085640D01*
X114586844Y-114309994D01*
X114586844Y-114310005D01*
X114605434Y-114534359D01*
X114605436Y-114534371D01*
X114660703Y-114752614D01*
X114751140Y-114958792D01*
X114874276Y-115147265D01*
X114874284Y-115147276D01*
X115026756Y-115312902D01*
X115026760Y-115312906D01*
X115204424Y-115451189D01*
X115204429Y-115451191D01*
X115204431Y-115451193D01*
X115240930Y-115470946D01*
X115290520Y-115520165D01*
X115305628Y-115588382D01*
X115281457Y-115653937D01*
X115240930Y-115689054D01*
X115204431Y-115708806D01*
X115204422Y-115708812D01*
X115026761Y-115847092D01*
X115026756Y-115847097D01*
X114874284Y-116012723D01*
X114874276Y-116012734D01*
X114751140Y-116201207D01*
X114660703Y-116407385D01*
X114605436Y-116625628D01*
X114605434Y-116625640D01*
X114586844Y-116849994D01*
X114586844Y-116850005D01*
X114605434Y-117074359D01*
X114605436Y-117074371D01*
X114660703Y-117292614D01*
X114751140Y-117498792D01*
X114874276Y-117687265D01*
X114874284Y-117687276D01*
X115026756Y-117852902D01*
X115026760Y-117852906D01*
X115204424Y-117991189D01*
X115204429Y-117991191D01*
X115204431Y-117991193D01*
X115240930Y-118010946D01*
X115290520Y-118060165D01*
X115305628Y-118128382D01*
X115281457Y-118193937D01*
X115240930Y-118229054D01*
X115204431Y-118248806D01*
X115204422Y-118248812D01*
X115026761Y-118387092D01*
X115026756Y-118387097D01*
X114874284Y-118552723D01*
X114874276Y-118552734D01*
X114751140Y-118741207D01*
X114660703Y-118947385D01*
X114605436Y-119165628D01*
X114605434Y-119165640D01*
X114586844Y-119389994D01*
X114586844Y-119390005D01*
X114605434Y-119614359D01*
X114605436Y-119614371D01*
X114660703Y-119832614D01*
X114751140Y-120038792D01*
X114874276Y-120227265D01*
X114874284Y-120227276D01*
X115017554Y-120382906D01*
X115026760Y-120392906D01*
X115204424Y-120531189D01*
X115204429Y-120531191D01*
X115204431Y-120531193D01*
X115240930Y-120550946D01*
X115290520Y-120600165D01*
X115305628Y-120668382D01*
X115281457Y-120733937D01*
X115240930Y-120769054D01*
X115204431Y-120788806D01*
X115204422Y-120788812D01*
X115026761Y-120927092D01*
X115026756Y-120927097D01*
X114874284Y-121092723D01*
X114874276Y-121092734D01*
X114751140Y-121281207D01*
X114660703Y-121487385D01*
X114605436Y-121705628D01*
X114605434Y-121705640D01*
X114586844Y-121929994D01*
X114586844Y-121930005D01*
X114605434Y-122154359D01*
X114605436Y-122154371D01*
X114660703Y-122372614D01*
X114751140Y-122578792D01*
X114874276Y-122767265D01*
X114874284Y-122767276D01*
X115026756Y-122932902D01*
X115026760Y-122932906D01*
X115204424Y-123071189D01*
X115204429Y-123071191D01*
X115204431Y-123071193D01*
X115240930Y-123090946D01*
X115290520Y-123140165D01*
X115305628Y-123208382D01*
X115281457Y-123273937D01*
X115240930Y-123309054D01*
X115204431Y-123328806D01*
X115204422Y-123328812D01*
X115026761Y-123467092D01*
X115026756Y-123467097D01*
X114874284Y-123632723D01*
X114874276Y-123632734D01*
X114751140Y-123821207D01*
X114660703Y-124027385D01*
X114605436Y-124245628D01*
X114605434Y-124245640D01*
X114586844Y-124469994D01*
X114586844Y-124470005D01*
X114605434Y-124694359D01*
X114605436Y-124694371D01*
X114660703Y-124912614D01*
X114751140Y-125118792D01*
X114874276Y-125307265D01*
X114874284Y-125307276D01*
X115024199Y-125470124D01*
X115026760Y-125472906D01*
X115204424Y-125611189D01*
X115204429Y-125611191D01*
X115204431Y-125611193D01*
X115240930Y-125630946D01*
X115290520Y-125680165D01*
X115305628Y-125748382D01*
X115281457Y-125813937D01*
X115240930Y-125849054D01*
X115204431Y-125868806D01*
X115204422Y-125868812D01*
X115026761Y-126007092D01*
X115026756Y-126007097D01*
X114874284Y-126172723D01*
X114874276Y-126172734D01*
X114751140Y-126361207D01*
X114660703Y-126567385D01*
X114605436Y-126785628D01*
X114605434Y-126785640D01*
X114586844Y-127009994D01*
X114586844Y-127010005D01*
X114605434Y-127234359D01*
X114605436Y-127234371D01*
X114660703Y-127452614D01*
X114751140Y-127658792D01*
X114874276Y-127847265D01*
X114874284Y-127847276D01*
X115026756Y-128012902D01*
X115026761Y-128012907D01*
X115038214Y-128021821D01*
X115204424Y-128151189D01*
X115239284Y-128170054D01*
X115247695Y-128174606D01*
X115297286Y-128223825D01*
X115312394Y-128292042D01*
X115288224Y-128357597D01*
X115259802Y-128385236D01*
X115078922Y-128511890D01*
X115078920Y-128511891D01*
X114911891Y-128678920D01*
X114911886Y-128678926D01*
X114776400Y-128872420D01*
X114776399Y-128872422D01*
X114676570Y-129086507D01*
X114676567Y-129086513D01*
X114619364Y-129299999D01*
X114619364Y-129300000D01*
X115516988Y-129300000D01*
X115484075Y-129357007D01*
X115450000Y-129484174D01*
X115450000Y-129615826D01*
X115484075Y-129742993D01*
X115516988Y-129800000D01*
X114619364Y-129800000D01*
X114676567Y-130013486D01*
X114676570Y-130013492D01*
X114776399Y-130227578D01*
X114911894Y-130421082D01*
X115078917Y-130588105D01*
X115272421Y-130723600D01*
X115486507Y-130823429D01*
X115486516Y-130823433D01*
X115700000Y-130880634D01*
X115700000Y-129983012D01*
X115757007Y-130015925D01*
X115884174Y-130050000D01*
X116015826Y-130050000D01*
X116142993Y-130015925D01*
X116200000Y-129983012D01*
X116200000Y-130880633D01*
X116413483Y-130823433D01*
X116413492Y-130823429D01*
X116627578Y-130723600D01*
X116821078Y-130588108D01*
X116943521Y-130465665D01*
X117004844Y-130432180D01*
X117074536Y-130437164D01*
X117130470Y-130479035D01*
X117147385Y-130510013D01*
X117196645Y-130642086D01*
X117196649Y-130642093D01*
X117282809Y-130757187D01*
X117282812Y-130757190D01*
X117397906Y-130843350D01*
X117397913Y-130843354D01*
X117532620Y-130893596D01*
X117532627Y-130893598D01*
X117592155Y-130899999D01*
X117592172Y-130900000D01*
X118240000Y-130900000D01*
X118240000Y-129983012D01*
X118297007Y-130015925D01*
X118424174Y-130050000D01*
X118555826Y-130050000D01*
X118682993Y-130015925D01*
X118740000Y-129983012D01*
X118740000Y-130900000D01*
X119387828Y-130900000D01*
X119387844Y-130899999D01*
X119447372Y-130893598D01*
X119447379Y-130893596D01*
X119582086Y-130843354D01*
X119582093Y-130843350D01*
X119697187Y-130757190D01*
X119697190Y-130757187D01*
X119783350Y-130642093D01*
X119783354Y-130642086D01*
X119833596Y-130507379D01*
X119833598Y-130507372D01*
X119839999Y-130447844D01*
X119840000Y-130447827D01*
X119840000Y-129800000D01*
X118923012Y-129800000D01*
X118955925Y-129742993D01*
X118990000Y-129615826D01*
X118990000Y-129484174D01*
X118955925Y-129357007D01*
X118923012Y-129300000D01*
X119840000Y-129300000D01*
X119840000Y-128842800D01*
X139757071Y-128842800D01*
X139775935Y-129022276D01*
X139817402Y-129149901D01*
X139831701Y-129193907D01*
X139921933Y-129350193D01*
X139934500Y-129364150D01*
X140042681Y-129484299D01*
X140042684Y-129484301D01*
X140042687Y-129484304D01*
X140188685Y-129590378D01*
X140353542Y-129663778D01*
X140353548Y-129663780D01*
X140530068Y-129701300D01*
X140530069Y-129701300D01*
X140710531Y-129701300D01*
X140710532Y-129701300D01*
X140887052Y-129663780D01*
X140887054Y-129663778D01*
X140887057Y-129663778D01*
X140994758Y-129615826D01*
X141051915Y-129590378D01*
X141197913Y-129484304D01*
X141213948Y-129466494D01*
X141273434Y-129429845D01*
X141343291Y-129431174D01*
X141398251Y-129466494D01*
X141414287Y-129484304D01*
X141560285Y-129590378D01*
X141725142Y-129663778D01*
X141725148Y-129663780D01*
X141901668Y-129701300D01*
X141901669Y-129701300D01*
X142082131Y-129701300D01*
X142082132Y-129701300D01*
X142258652Y-129663780D01*
X142258654Y-129663778D01*
X142258657Y-129663778D01*
X142366358Y-129615826D01*
X142423515Y-129590378D01*
X142569513Y-129484304D01*
X142569631Y-129484174D01*
X142618548Y-129429845D01*
X142690267Y-129350193D01*
X142780499Y-129193907D01*
X142836265Y-129022275D01*
X142855129Y-128842800D01*
X142836265Y-128663325D01*
X142780499Y-128491693D01*
X142690267Y-128335407D01*
X142623170Y-128260888D01*
X142569518Y-128201300D01*
X142569515Y-128201298D01*
X142569514Y-128201297D01*
X142569513Y-128201296D01*
X142423515Y-128095222D01*
X142423514Y-128095221D01*
X142258657Y-128021821D01*
X142258651Y-128021819D01*
X142119651Y-127992274D01*
X142082132Y-127984300D01*
X141901668Y-127984300D01*
X141870725Y-127990876D01*
X141725148Y-128021819D01*
X141725142Y-128021821D01*
X141560286Y-128095221D01*
X141560281Y-128095224D01*
X141414293Y-128201290D01*
X141414285Y-128201297D01*
X141398248Y-128219108D01*
X141338761Y-128255755D01*
X141268904Y-128254424D01*
X141213952Y-128219108D01*
X141197915Y-128201298D01*
X141197914Y-128201297D01*
X141197913Y-128201296D01*
X141051915Y-128095222D01*
X141051914Y-128095221D01*
X140887057Y-128021821D01*
X140887051Y-128021819D01*
X140748051Y-127992274D01*
X140710532Y-127984300D01*
X140530068Y-127984300D01*
X140499125Y-127990876D01*
X140353548Y-128021819D01*
X140353542Y-128021821D01*
X140188686Y-128095221D01*
X140188681Y-128095224D01*
X140042688Y-128201294D01*
X140042681Y-128201300D01*
X139921932Y-128335408D01*
X139831700Y-128491694D01*
X139775935Y-128663323D01*
X139757071Y-128842800D01*
X119840000Y-128842800D01*
X119840000Y-128652172D01*
X119839999Y-128652155D01*
X119833598Y-128592627D01*
X119833596Y-128592620D01*
X119783354Y-128457913D01*
X119783350Y-128457906D01*
X119697190Y-128342812D01*
X119697187Y-128342809D01*
X119582093Y-128256649D01*
X119582088Y-128256646D01*
X119462188Y-128211926D01*
X119406255Y-128170054D01*
X119381838Y-128104590D01*
X119396690Y-128036317D01*
X119414286Y-128011769D01*
X119565722Y-127847268D01*
X119688860Y-127658791D01*
X119779296Y-127452616D01*
X119834564Y-127234368D01*
X119845421Y-127103350D01*
X119853156Y-127010005D01*
X119853156Y-127009994D01*
X119834565Y-126785640D01*
X119834563Y-126785628D01*
X119817186Y-126717007D01*
X119779296Y-126567384D01*
X119688860Y-126361209D01*
X119677730Y-126344174D01*
X119565723Y-126172734D01*
X119565715Y-126172723D01*
X119555241Y-126161345D01*
X129333200Y-126161345D01*
X129333200Y-127858654D01*
X129339711Y-127919202D01*
X129339711Y-127919204D01*
X129383393Y-128036317D01*
X129390811Y-128056204D01*
X129478439Y-128173261D01*
X129595496Y-128260889D01*
X129732499Y-128311989D01*
X129759750Y-128314918D01*
X129793045Y-128318499D01*
X129793062Y-128318500D01*
X131490338Y-128318500D01*
X131490354Y-128318499D01*
X131517392Y-128315591D01*
X131550901Y-128311989D01*
X131687904Y-128260889D01*
X131804961Y-128173261D01*
X131892589Y-128056204D01*
X131943689Y-127919201D01*
X131947291Y-127885692D01*
X131950199Y-127858654D01*
X131950200Y-127858637D01*
X131950200Y-126161362D01*
X131950199Y-126161345D01*
X131946857Y-126130270D01*
X131943689Y-126100799D01*
X131892589Y-125963796D01*
X131804961Y-125846739D01*
X131687904Y-125759111D01*
X131659139Y-125748382D01*
X131550903Y-125708011D01*
X131490354Y-125701500D01*
X131487031Y-125701323D01*
X131487040Y-125701144D01*
X131487035Y-125701144D01*
X131487046Y-125701040D01*
X131487108Y-125699871D01*
X131425615Y-125681815D01*
X131379860Y-125629011D01*
X131374179Y-125596032D01*
X131289492Y-125511345D01*
X147231500Y-125511345D01*
X147231500Y-127308654D01*
X147238011Y-127369202D01*
X147238011Y-127369204D01*
X147285531Y-127496606D01*
X147289111Y-127506204D01*
X147376739Y-127623261D01*
X147493796Y-127710889D01*
X147630799Y-127761989D01*
X147658050Y-127764918D01*
X147691345Y-127768499D01*
X147691362Y-127768500D01*
X149488638Y-127768500D01*
X149488654Y-127768499D01*
X149515692Y-127765591D01*
X149549201Y-127761989D01*
X149686204Y-127710889D01*
X149803261Y-127623261D01*
X149890889Y-127506204D01*
X149936138Y-127384887D01*
X149978009Y-127328956D01*
X150043474Y-127304539D01*
X150111746Y-127319391D01*
X150143545Y-127344236D01*
X150206760Y-127412906D01*
X150384424Y-127551189D01*
X150384425Y-127551189D01*
X150384427Y-127551191D01*
X150444314Y-127583600D01*
X150582426Y-127658342D01*
X150795365Y-127731444D01*
X151017431Y-127768500D01*
X151242569Y-127768500D01*
X151464635Y-127731444D01*
X151677574Y-127658342D01*
X151875576Y-127551189D01*
X152053240Y-127412906D01*
X152174594Y-127281082D01*
X152205715Y-127247276D01*
X152205715Y-127247275D01*
X152205722Y-127247268D01*
X152299749Y-127103347D01*
X152352894Y-127057994D01*
X152422125Y-127048570D01*
X152485461Y-127078072D01*
X152505130Y-127100048D01*
X152631890Y-127281078D01*
X152798917Y-127448105D01*
X152992421Y-127583600D01*
X153206507Y-127683429D01*
X153206516Y-127683433D01*
X153420000Y-127740634D01*
X153420000Y-126843012D01*
X153477007Y-126875925D01*
X153604174Y-126910000D01*
X153735826Y-126910000D01*
X153862993Y-126875925D01*
X153920000Y-126843012D01*
X153920000Y-127740633D01*
X154133483Y-127683433D01*
X154133492Y-127683429D01*
X154347578Y-127583600D01*
X154541082Y-127448105D01*
X154708105Y-127281082D01*
X154843600Y-127087578D01*
X154943429Y-126873492D01*
X154943432Y-126873486D01*
X155000636Y-126660000D01*
X154103012Y-126660000D01*
X154135925Y-126602993D01*
X154170000Y-126475826D01*
X154170000Y-126344174D01*
X154135925Y-126217007D01*
X154103012Y-126160000D01*
X155000636Y-126160000D01*
X155000635Y-126159999D01*
X154943432Y-125946513D01*
X154943429Y-125946507D01*
X154843600Y-125732422D01*
X154843599Y-125732420D01*
X154708113Y-125538926D01*
X154708108Y-125538920D01*
X154541082Y-125371894D01*
X154347578Y-125236399D01*
X154133492Y-125136570D01*
X154133486Y-125136567D01*
X153920000Y-125079364D01*
X153920000Y-125976988D01*
X153862993Y-125944075D01*
X153735826Y-125910000D01*
X153604174Y-125910000D01*
X153477007Y-125944075D01*
X153420000Y-125976988D01*
X153420000Y-125079364D01*
X153419999Y-125079364D01*
X153206513Y-125136567D01*
X153206507Y-125136570D01*
X152992422Y-125236399D01*
X152992420Y-125236400D01*
X152798926Y-125371886D01*
X152798920Y-125371891D01*
X152631891Y-125538920D01*
X152631890Y-125538922D01*
X152505131Y-125719952D01*
X152450554Y-125763577D01*
X152381055Y-125770769D01*
X152318701Y-125739247D01*
X152299752Y-125716656D01*
X152205722Y-125572732D01*
X152205715Y-125572725D01*
X152205715Y-125572723D01*
X152053243Y-125407097D01*
X152053238Y-125407092D01*
X151875577Y-125268812D01*
X151875572Y-125268808D01*
X151677580Y-125161661D01*
X151677577Y-125161659D01*
X151677574Y-125161658D01*
X151677571Y-125161657D01*
X151677569Y-125161656D01*
X151464637Y-125088556D01*
X151242569Y-125051500D01*
X151017431Y-125051500D01*
X150795362Y-125088556D01*
X150582430Y-125161656D01*
X150582419Y-125161661D01*
X150384427Y-125268808D01*
X150384422Y-125268812D01*
X150206761Y-125407092D01*
X150143548Y-125475760D01*
X150083661Y-125511750D01*
X150013823Y-125509649D01*
X149956207Y-125470124D01*
X149936138Y-125435110D01*
X149890889Y-125313796D01*
X149857214Y-125268812D01*
X149803261Y-125196739D01*
X149686204Y-125109111D01*
X149549203Y-125058011D01*
X149488654Y-125051500D01*
X149488638Y-125051500D01*
X147691362Y-125051500D01*
X147691345Y-125051500D01*
X147630797Y-125058011D01*
X147630795Y-125058011D01*
X147493795Y-125109111D01*
X147376739Y-125196739D01*
X147289111Y-125313795D01*
X147238011Y-125450795D01*
X147238011Y-125450797D01*
X147231500Y-125511345D01*
X131289492Y-125511345D01*
X130688147Y-124910000D01*
X130694361Y-124910000D01*
X130796094Y-124882741D01*
X130887306Y-124830080D01*
X130961780Y-124755606D01*
X131014441Y-124664394D01*
X131041700Y-124562661D01*
X131041700Y-124556447D01*
X131720724Y-125235471D01*
X131771836Y-125162478D01*
X131867964Y-124956331D01*
X131867969Y-124956317D01*
X131926839Y-124736610D01*
X131926841Y-124736599D01*
X131946666Y-124510002D01*
X131946666Y-124509997D01*
X131926841Y-124283400D01*
X131926839Y-124283389D01*
X131867969Y-124063682D01*
X131867964Y-124063668D01*
X131771836Y-123857521D01*
X131771832Y-123857513D01*
X131720725Y-123784526D01*
X131041700Y-124463551D01*
X131041700Y-124457339D01*
X131014441Y-124355606D01*
X130961780Y-124264394D01*
X130887306Y-124189920D01*
X130796094Y-124137259D01*
X130694361Y-124110000D01*
X130688145Y-124110000D01*
X131367172Y-123430974D01*
X131294178Y-123379863D01*
X131088031Y-123283735D01*
X131088017Y-123283730D01*
X130868310Y-123224860D01*
X130868299Y-123224858D01*
X130641702Y-123205034D01*
X130641698Y-123205034D01*
X130415100Y-123224858D01*
X130415089Y-123224860D01*
X130195382Y-123283730D01*
X130195373Y-123283734D01*
X129989216Y-123379866D01*
X129989212Y-123379868D01*
X129916226Y-123430973D01*
X129916226Y-123430974D01*
X130595253Y-124110000D01*
X130589039Y-124110000D01*
X130487306Y-124137259D01*
X130396094Y-124189920D01*
X130321620Y-124264394D01*
X130268959Y-124355606D01*
X130241700Y-124457339D01*
X130241700Y-124463552D01*
X129562674Y-123784526D01*
X129562673Y-123784526D01*
X129511568Y-123857512D01*
X129511566Y-123857516D01*
X129415434Y-124063673D01*
X129415430Y-124063682D01*
X129356560Y-124283389D01*
X129356558Y-124283400D01*
X129336734Y-124509997D01*
X129336734Y-124510002D01*
X129356558Y-124736599D01*
X129356560Y-124736610D01*
X129415430Y-124956317D01*
X129415435Y-124956331D01*
X129511563Y-125162478D01*
X129562674Y-125235472D01*
X130241700Y-124556446D01*
X130241700Y-124562661D01*
X130268959Y-124664394D01*
X130321620Y-124755606D01*
X130396094Y-124830080D01*
X130487306Y-124882741D01*
X130589039Y-124910000D01*
X130595253Y-124910000D01*
X129908164Y-125597087D01*
X129900505Y-125635195D01*
X129851889Y-125685377D01*
X129796300Y-125700035D01*
X129796353Y-125701040D01*
X129796365Y-125701144D01*
X129796359Y-125701144D01*
X129796369Y-125701323D01*
X129793045Y-125701500D01*
X129732497Y-125708011D01*
X129732495Y-125708011D01*
X129595495Y-125759111D01*
X129478439Y-125846739D01*
X129390811Y-125963795D01*
X129339711Y-126100795D01*
X129339711Y-126100797D01*
X129333200Y-126161345D01*
X119555241Y-126161345D01*
X119413243Y-126007097D01*
X119413238Y-126007092D01*
X119235577Y-125868812D01*
X119235578Y-125868812D01*
X119235576Y-125868811D01*
X119199070Y-125849055D01*
X119149479Y-125799836D01*
X119134371Y-125731619D01*
X119158541Y-125666064D01*
X119199070Y-125630945D01*
X119202644Y-125629011D01*
X119235576Y-125611189D01*
X119413240Y-125472906D01*
X119512614Y-125364957D01*
X119565715Y-125307276D01*
X119565717Y-125307273D01*
X119565722Y-125307268D01*
X119688860Y-125118791D01*
X119779296Y-124912616D01*
X119834564Y-124694368D01*
X119845478Y-124562661D01*
X119853156Y-124470005D01*
X119853156Y-124469994D01*
X119834565Y-124245640D01*
X119834563Y-124245628D01*
X119788488Y-124063682D01*
X119779296Y-124027384D01*
X119688860Y-123821209D01*
X119672706Y-123796484D01*
X119565723Y-123632734D01*
X119565715Y-123632723D01*
X119413243Y-123467097D01*
X119413238Y-123467092D01*
X119235577Y-123328812D01*
X119235578Y-123328812D01*
X119235576Y-123328811D01*
X119199070Y-123309055D01*
X119149479Y-123259836D01*
X119134371Y-123191619D01*
X119158541Y-123126064D01*
X119199070Y-123090945D01*
X119199084Y-123090936D01*
X119235576Y-123071189D01*
X119413240Y-122932906D01*
X119565722Y-122767268D01*
X119688860Y-122578791D01*
X119779296Y-122372616D01*
X119834564Y-122154368D01*
X119842922Y-122053504D01*
X119853156Y-121930005D01*
X119853156Y-121929994D01*
X119834565Y-121705640D01*
X119834563Y-121705628D01*
X119779296Y-121487385D01*
X119746229Y-121412000D01*
X151435171Y-121412000D01*
X151454035Y-121591475D01*
X151509801Y-121763107D01*
X151600033Y-121919393D01*
X151642096Y-121966108D01*
X151720781Y-122053499D01*
X151720784Y-122053501D01*
X151720787Y-122053504D01*
X151859602Y-122154359D01*
X151866785Y-122159578D01*
X152031642Y-122232978D01*
X152031648Y-122232980D01*
X152208168Y-122270500D01*
X152208169Y-122270500D01*
X152388631Y-122270500D01*
X152388632Y-122270500D01*
X152565152Y-122232980D01*
X152565154Y-122232978D01*
X152565157Y-122232978D01*
X152620688Y-122208253D01*
X152730015Y-122159578D01*
X152876013Y-122053504D01*
X152996767Y-121919393D01*
X153086999Y-121763107D01*
X153142765Y-121591475D01*
X153161629Y-121412000D01*
X153142765Y-121232525D01*
X153086999Y-121060893D01*
X152996767Y-120904607D01*
X152949471Y-120852079D01*
X152876018Y-120770500D01*
X152876015Y-120770498D01*
X152876014Y-120770497D01*
X152876013Y-120770496D01*
X152752680Y-120680889D01*
X152730014Y-120664421D01*
X152565157Y-120591021D01*
X152565151Y-120591019D01*
X152426151Y-120561474D01*
X152388632Y-120553500D01*
X152208168Y-120553500D01*
X152177225Y-120560076D01*
X152031648Y-120591019D01*
X152031642Y-120591021D01*
X151866786Y-120664421D01*
X151866781Y-120664424D01*
X151720788Y-120770494D01*
X151720781Y-120770500D01*
X151600032Y-120904608D01*
X151509800Y-121060894D01*
X151454035Y-121232523D01*
X151454035Y-121232525D01*
X151435171Y-121412000D01*
X119746229Y-121412000D01*
X119688860Y-121281209D01*
X119672706Y-121256484D01*
X119565723Y-121092734D01*
X119565715Y-121092723D01*
X119413243Y-120927097D01*
X119413238Y-120927092D01*
X119235577Y-120788812D01*
X119235578Y-120788812D01*
X119235576Y-120788811D01*
X119199070Y-120769055D01*
X119149479Y-120719836D01*
X119134371Y-120651619D01*
X119158541Y-120586064D01*
X119199070Y-120550945D01*
X119199084Y-120550936D01*
X119235576Y-120531189D01*
X119413240Y-120392906D01*
X119529819Y-120266269D01*
X119565715Y-120227276D01*
X119565717Y-120227273D01*
X119565722Y-120227268D01*
X119688860Y-120038791D01*
X119779296Y-119832616D01*
X119834564Y-119614368D01*
X119834565Y-119614359D01*
X119844041Y-119500000D01*
X132321971Y-119500000D01*
X132340835Y-119679476D01*
X132387343Y-119822616D01*
X132396601Y-119851107D01*
X132486833Y-120007393D01*
X132528896Y-120054108D01*
X132607581Y-120141499D01*
X132607584Y-120141501D01*
X132607587Y-120141504D01*
X132711863Y-120217265D01*
X132753585Y-120247578D01*
X132918442Y-120320978D01*
X132918448Y-120320980D01*
X133094968Y-120358500D01*
X133094969Y-120358500D01*
X133275431Y-120358500D01*
X133275432Y-120358500D01*
X133451952Y-120320980D01*
X133451954Y-120320978D01*
X133451957Y-120320978D01*
X133574834Y-120266269D01*
X133616815Y-120247578D01*
X133762813Y-120141504D01*
X133883567Y-120007393D01*
X133973799Y-119851107D01*
X134029565Y-119679475D01*
X134048429Y-119500000D01*
X134029565Y-119320525D01*
X133973799Y-119148893D01*
X133883567Y-118992607D01*
X133812857Y-118914075D01*
X133762818Y-118858500D01*
X133762815Y-118858498D01*
X133762814Y-118858497D01*
X133762813Y-118858496D01*
X133616815Y-118752422D01*
X133616814Y-118752421D01*
X133451957Y-118679021D01*
X133451951Y-118679019D01*
X133312951Y-118649474D01*
X133275432Y-118641500D01*
X133094968Y-118641500D01*
X133064025Y-118648076D01*
X132918448Y-118679019D01*
X132918442Y-118679021D01*
X132753586Y-118752421D01*
X132753581Y-118752424D01*
X132607588Y-118858494D01*
X132607581Y-118858500D01*
X132486832Y-118992608D01*
X132396600Y-119148894D01*
X132340835Y-119320523D01*
X132321971Y-119500000D01*
X119844041Y-119500000D01*
X119853156Y-119390005D01*
X119853156Y-119389994D01*
X119834565Y-119165640D01*
X119834563Y-119165628D01*
X119830325Y-119148893D01*
X119779296Y-118947384D01*
X119688860Y-118741209D01*
X119682325Y-118731207D01*
X119565723Y-118552734D01*
X119565715Y-118552723D01*
X119500006Y-118481345D01*
X139411500Y-118481345D01*
X139411500Y-120278654D01*
X139418011Y-120339202D01*
X139418011Y-120339204D01*
X139469111Y-120476204D01*
X139556739Y-120593261D01*
X139673796Y-120680889D01*
X139810799Y-120731989D01*
X139838050Y-120734918D01*
X139871345Y-120738499D01*
X139871362Y-120738500D01*
X141668638Y-120738500D01*
X141668654Y-120738499D01*
X141695692Y-120735591D01*
X141729201Y-120731989D01*
X141866204Y-120680889D01*
X141983261Y-120593261D01*
X142070889Y-120476204D01*
X142119223Y-120346615D01*
X142161093Y-120290686D01*
X142226557Y-120266269D01*
X142294830Y-120281121D01*
X142323084Y-120302272D01*
X142438917Y-120418105D01*
X142632421Y-120553600D01*
X142846507Y-120653429D01*
X142846516Y-120653433D01*
X143060000Y-120710634D01*
X143060000Y-119813012D01*
X143117007Y-119845925D01*
X143244174Y-119880000D01*
X143375826Y-119880000D01*
X143502993Y-119845925D01*
X143560000Y-119813012D01*
X143560000Y-120710633D01*
X143773483Y-120653433D01*
X143773492Y-120653429D01*
X143987578Y-120553600D01*
X144181082Y-120418105D01*
X144348105Y-120251082D01*
X144474868Y-120070048D01*
X144529445Y-120026423D01*
X144598944Y-120019231D01*
X144661298Y-120050753D01*
X144680251Y-120073350D01*
X144774276Y-120217265D01*
X144774284Y-120217276D01*
X144926756Y-120382902D01*
X144926761Y-120382907D01*
X144939608Y-120392906D01*
X145104424Y-120521189D01*
X145104425Y-120521189D01*
X145104427Y-120521191D01*
X145164314Y-120553600D01*
X145302426Y-120628342D01*
X145515365Y-120701444D01*
X145737431Y-120738500D01*
X145962569Y-120738500D01*
X146184635Y-120701444D01*
X146397574Y-120628342D01*
X146595576Y-120521189D01*
X146773240Y-120382906D01*
X146894594Y-120251082D01*
X146925715Y-120217276D01*
X146925716Y-120217274D01*
X146925722Y-120217268D01*
X147048860Y-120028791D01*
X147139296Y-119822616D01*
X147194564Y-119604368D01*
X147197164Y-119572993D01*
X147213156Y-119380005D01*
X147213156Y-119379994D01*
X147194565Y-119155640D01*
X147194563Y-119155628D01*
X147173637Y-119072993D01*
X147139296Y-118937384D01*
X147048860Y-118731209D01*
X146925722Y-118542732D01*
X146925719Y-118542729D01*
X146925715Y-118542723D01*
X146773243Y-118377097D01*
X146773238Y-118377092D01*
X146595577Y-118238812D01*
X146595572Y-118238808D01*
X146397580Y-118131661D01*
X146397577Y-118131659D01*
X146397574Y-118131658D01*
X146397571Y-118131657D01*
X146397569Y-118131656D01*
X146184637Y-118058556D01*
X145962569Y-118021500D01*
X145737431Y-118021500D01*
X145515362Y-118058556D01*
X145302430Y-118131656D01*
X145302419Y-118131661D01*
X145104427Y-118238808D01*
X145104422Y-118238812D01*
X144926761Y-118377092D01*
X144926756Y-118377097D01*
X144774284Y-118542723D01*
X144774276Y-118542734D01*
X144680251Y-118686650D01*
X144627105Y-118732007D01*
X144557873Y-118741430D01*
X144494538Y-118711928D01*
X144474868Y-118689951D01*
X144348113Y-118508926D01*
X144348108Y-118508920D01*
X144181082Y-118341894D01*
X143987578Y-118206399D01*
X143773492Y-118106570D01*
X143773486Y-118106567D01*
X143560000Y-118049364D01*
X143560000Y-118946988D01*
X143502993Y-118914075D01*
X143375826Y-118880000D01*
X143244174Y-118880000D01*
X143117007Y-118914075D01*
X143060000Y-118946988D01*
X143060000Y-118049364D01*
X143059999Y-118049364D01*
X142846513Y-118106567D01*
X142846507Y-118106570D01*
X142632422Y-118206399D01*
X142632420Y-118206400D01*
X142438926Y-118341886D01*
X142323084Y-118457728D01*
X142261761Y-118491212D01*
X142192069Y-118486228D01*
X142136136Y-118444356D01*
X142119223Y-118413384D01*
X142070889Y-118283796D01*
X141983261Y-118166739D01*
X141866204Y-118079111D01*
X141729203Y-118028011D01*
X141668654Y-118021500D01*
X141668638Y-118021500D01*
X139871362Y-118021500D01*
X139871345Y-118021500D01*
X139810797Y-118028011D01*
X139810795Y-118028011D01*
X139673795Y-118079111D01*
X139556739Y-118166739D01*
X139469111Y-118283795D01*
X139418011Y-118420795D01*
X139418011Y-118420797D01*
X139411500Y-118481345D01*
X119500006Y-118481345D01*
X119413243Y-118387097D01*
X119413238Y-118387092D01*
X119280520Y-118283793D01*
X119235576Y-118248811D01*
X119199070Y-118229055D01*
X119149479Y-118179836D01*
X119134371Y-118111619D01*
X119158541Y-118046064D01*
X119199070Y-118010945D01*
X119199084Y-118010936D01*
X119235576Y-117991189D01*
X119413240Y-117852906D01*
X119565722Y-117687268D01*
X119688860Y-117498791D01*
X119732720Y-117398800D01*
X156057971Y-117398800D01*
X156076835Y-117578276D01*
X156112248Y-117687268D01*
X156132601Y-117749907D01*
X156222833Y-117906193D01*
X156264896Y-117952908D01*
X156343581Y-118040299D01*
X156343584Y-118040301D01*
X156343587Y-118040304D01*
X156489585Y-118146378D01*
X156654442Y-118219778D01*
X156654448Y-118219780D01*
X156830968Y-118257300D01*
X156830969Y-118257300D01*
X157011431Y-118257300D01*
X157011432Y-118257300D01*
X157187952Y-118219780D01*
X157187954Y-118219778D01*
X157187957Y-118219778D01*
X157277667Y-118179836D01*
X157352815Y-118146378D01*
X157498813Y-118040304D01*
X157619567Y-117906193D01*
X157709799Y-117749907D01*
X157765565Y-117578275D01*
X157784429Y-117398800D01*
X157765565Y-117219325D01*
X157709799Y-117047693D01*
X157619567Y-116891407D01*
X157572271Y-116838879D01*
X157498818Y-116757300D01*
X157498815Y-116757298D01*
X157498814Y-116757297D01*
X157498813Y-116757296D01*
X157352815Y-116651222D01*
X157352814Y-116651221D01*
X157187957Y-116577821D01*
X157187951Y-116577819D01*
X157048951Y-116548274D01*
X157011432Y-116540300D01*
X156830968Y-116540300D01*
X156800025Y-116546876D01*
X156654448Y-116577819D01*
X156654442Y-116577821D01*
X156489586Y-116651221D01*
X156489581Y-116651224D01*
X156343588Y-116757294D01*
X156343581Y-116757300D01*
X156222832Y-116891408D01*
X156132600Y-117047694D01*
X156076835Y-117219323D01*
X156057971Y-117398800D01*
X119732720Y-117398800D01*
X119779296Y-117292616D01*
X119834564Y-117074368D01*
X119834565Y-117074359D01*
X119853156Y-116850005D01*
X119853156Y-116849994D01*
X119834565Y-116625640D01*
X119834563Y-116625628D01*
X119779296Y-116407385D01*
X119688859Y-116201207D01*
X119565723Y-116012734D01*
X119565715Y-116012723D01*
X119413243Y-115847097D01*
X119413238Y-115847092D01*
X119235577Y-115708812D01*
X119235578Y-115708812D01*
X119235576Y-115708811D01*
X119199070Y-115689055D01*
X119149479Y-115639836D01*
X119134371Y-115571619D01*
X119158541Y-115506064D01*
X119199070Y-115470945D01*
X119199084Y-115470936D01*
X119235576Y-115451189D01*
X119413240Y-115312906D01*
X119565722Y-115147268D01*
X119688860Y-114958791D01*
X119779296Y-114752616D01*
X119834564Y-114534368D01*
X119853156Y-114310000D01*
X119834564Y-114085632D01*
X119779296Y-113867384D01*
X119688860Y-113661209D01*
X119672706Y-113636484D01*
X119565723Y-113472734D01*
X119565715Y-113472723D01*
X119413243Y-113307097D01*
X119413238Y-113307092D01*
X119235577Y-113168812D01*
X119235578Y-113168812D01*
X119235576Y-113168811D01*
X119199070Y-113149055D01*
X119149479Y-113099836D01*
X119134371Y-113031619D01*
X119158541Y-112966064D01*
X119199070Y-112930945D01*
X119199084Y-112930936D01*
X119235576Y-112911189D01*
X119413240Y-112772906D01*
X119565722Y-112607268D01*
X119688860Y-112418791D01*
X119779296Y-112212616D01*
X119834564Y-111994368D01*
X119838945Y-111941499D01*
X119853156Y-111770005D01*
X119853156Y-111769994D01*
X119834565Y-111545640D01*
X119834563Y-111545628D01*
X119804807Y-111428125D01*
X119779296Y-111327384D01*
X119688860Y-111121209D01*
X119680542Y-111108478D01*
X119598890Y-110983500D01*
X119565722Y-110932732D01*
X119565719Y-110932729D01*
X119565715Y-110932723D01*
X119413243Y-110767097D01*
X119413238Y-110767092D01*
X119240178Y-110632393D01*
X119235576Y-110628811D01*
X119199070Y-110609055D01*
X119149479Y-110559836D01*
X119134371Y-110491619D01*
X119144333Y-110464600D01*
X125349371Y-110464600D01*
X125368235Y-110644076D01*
X125419256Y-110801105D01*
X125424001Y-110815707D01*
X125514233Y-110971993D01*
X125556296Y-111018708D01*
X125634981Y-111106099D01*
X125634984Y-111106101D01*
X125634987Y-111106104D01*
X125760890Y-111197578D01*
X125780985Y-111212178D01*
X125945842Y-111285578D01*
X125945848Y-111285580D01*
X126122368Y-111323100D01*
X126122369Y-111323100D01*
X126302831Y-111323100D01*
X126302832Y-111323100D01*
X126479352Y-111285580D01*
X126479354Y-111285578D01*
X126479357Y-111285578D01*
X126554201Y-111252255D01*
X126644215Y-111212178D01*
X126790213Y-111106104D01*
X126803364Y-111091499D01*
X126829539Y-111062428D01*
X126910967Y-110971993D01*
X127001199Y-110815707D01*
X127056965Y-110644075D01*
X127075829Y-110464600D01*
X127074294Y-110450000D01*
X132086771Y-110450000D01*
X132105635Y-110629476D01*
X132158639Y-110792608D01*
X132161401Y-110801107D01*
X132251633Y-110957393D01*
X132264779Y-110971993D01*
X132372381Y-111091499D01*
X132372384Y-111091501D01*
X132372387Y-111091504D01*
X132518385Y-111197578D01*
X132683242Y-111270978D01*
X132683248Y-111270980D01*
X132859768Y-111308500D01*
X132859769Y-111308500D01*
X133040231Y-111308500D01*
X133040232Y-111308500D01*
X133080222Y-111300000D01*
X150895659Y-111300000D01*
X150914523Y-111479476D01*
X150968956Y-111647006D01*
X150970289Y-111651107D01*
X151060521Y-111807393D01*
X151102584Y-111854108D01*
X151181269Y-111941499D01*
X151181272Y-111941501D01*
X151181275Y-111941504D01*
X151327273Y-112047578D01*
X151492130Y-112120978D01*
X151492136Y-112120980D01*
X151668656Y-112158500D01*
X151668657Y-112158500D01*
X151849119Y-112158500D01*
X151849120Y-112158500D01*
X152025640Y-112120980D01*
X152025642Y-112120978D01*
X152025645Y-112120978D01*
X152081176Y-112096253D01*
X152190503Y-112047578D01*
X152336501Y-111941504D01*
X152457255Y-111807393D01*
X152547487Y-111651107D01*
X152547487Y-111651104D01*
X152549854Y-111647006D01*
X152591182Y-111607600D01*
X155194371Y-111607600D01*
X155213235Y-111787076D01*
X155263409Y-111941499D01*
X155269001Y-111958707D01*
X155359233Y-112114993D01*
X155364624Y-112120980D01*
X155479981Y-112249099D01*
X155479984Y-112249101D01*
X155479987Y-112249104D01*
X155625985Y-112355178D01*
X155790842Y-112428578D01*
X155790848Y-112428580D01*
X155967368Y-112466100D01*
X155967369Y-112466100D01*
X156147831Y-112466100D01*
X156147832Y-112466100D01*
X156324352Y-112428580D01*
X156324354Y-112428578D01*
X156324357Y-112428578D01*
X156379888Y-112403853D01*
X156489215Y-112355178D01*
X156635213Y-112249104D01*
X156755967Y-112114993D01*
X156846199Y-111958707D01*
X156901965Y-111787075D01*
X156920829Y-111607600D01*
X156901965Y-111428125D01*
X156846199Y-111256493D01*
X156755967Y-111100207D01*
X156684629Y-111020978D01*
X156635218Y-110966100D01*
X156635215Y-110966098D01*
X156635214Y-110966097D01*
X156635213Y-110966096D01*
X156489215Y-110860022D01*
X156489214Y-110860021D01*
X156324357Y-110786621D01*
X156324351Y-110786619D01*
X156185351Y-110757074D01*
X156147832Y-110749100D01*
X155967368Y-110749100D01*
X155936425Y-110755676D01*
X155790848Y-110786619D01*
X155790842Y-110786621D01*
X155625986Y-110860021D01*
X155625981Y-110860024D01*
X155479988Y-110966094D01*
X155479981Y-110966100D01*
X155359232Y-111100208D01*
X155269000Y-111256494D01*
X155213235Y-111428123D01*
X155194371Y-111607600D01*
X152591182Y-111607600D01*
X152600421Y-111598791D01*
X152631455Y-111587716D01*
X152734364Y-111565844D01*
X152899227Y-111492442D01*
X153045225Y-111386368D01*
X153165979Y-111252257D01*
X153256211Y-111095971D01*
X153256214Y-111095962D01*
X153267110Y-111062428D01*
X153306547Y-111004752D01*
X153359259Y-110979455D01*
X153516752Y-110945980D01*
X153516755Y-110945978D01*
X153516757Y-110945978D01*
X153572288Y-110921253D01*
X153681615Y-110872578D01*
X153827613Y-110766504D01*
X153835178Y-110758103D01*
X153853775Y-110737447D01*
X153948367Y-110632393D01*
X154038599Y-110476107D01*
X154094365Y-110304475D01*
X154113229Y-110125000D01*
X154094365Y-109945525D01*
X154038599Y-109773893D01*
X153948367Y-109617607D01*
X153895143Y-109558496D01*
X153827618Y-109483500D01*
X153827615Y-109483498D01*
X153827614Y-109483497D01*
X153827613Y-109483496D01*
X153701595Y-109391938D01*
X153681616Y-109377422D01*
X153672060Y-109373168D01*
X153667167Y-109370989D01*
X153613932Y-109325739D01*
X153593611Y-109258890D01*
X153612657Y-109191666D01*
X153644720Y-109157393D01*
X153668428Y-109140168D01*
X153752613Y-109079004D01*
X153873367Y-108944893D01*
X153963599Y-108788607D01*
X154019365Y-108616975D01*
X154038229Y-108437500D01*
X154019365Y-108258025D01*
X153963599Y-108086393D01*
X153963596Y-108086389D01*
X153963164Y-108085057D01*
X153961169Y-108015216D01*
X153997249Y-107955383D01*
X154059950Y-107924555D01*
X154129365Y-107932520D01*
X154153980Y-107946421D01*
X154206949Y-107984905D01*
X154206954Y-107984908D01*
X154335260Y-108042034D01*
X154371817Y-108058310D01*
X154489532Y-108083330D01*
X154551009Y-108116521D01*
X154571131Y-108142615D01*
X154590488Y-108176142D01*
X154656219Y-108289992D01*
X154776968Y-108424099D01*
X154776971Y-108424101D01*
X154776974Y-108424104D01*
X154922972Y-108530178D01*
X154980221Y-108555667D01*
X155033456Y-108600915D01*
X155053104Y-108655979D01*
X155055433Y-108678133D01*
X155055435Y-108678143D01*
X155108671Y-108841988D01*
X155110666Y-108911830D01*
X155074585Y-108971662D01*
X155063627Y-108980623D01*
X155022786Y-109010296D01*
X154902032Y-109144408D01*
X154811800Y-109300694D01*
X154756035Y-109472323D01*
X154737171Y-109651800D01*
X154756035Y-109831276D01*
X154809974Y-109997286D01*
X154811801Y-110002907D01*
X154902033Y-110159193D01*
X154938776Y-110200000D01*
X155022781Y-110293299D01*
X155022784Y-110293301D01*
X155022787Y-110293304D01*
X155148369Y-110384545D01*
X155168785Y-110399378D01*
X155333642Y-110472778D01*
X155333648Y-110472780D01*
X155510168Y-110510300D01*
X155510169Y-110510300D01*
X155690631Y-110510300D01*
X155690632Y-110510300D01*
X155867152Y-110472780D01*
X155867154Y-110472778D01*
X155867157Y-110472778D01*
X155972077Y-110426064D01*
X156032015Y-110399378D01*
X156178013Y-110293304D01*
X156185378Y-110285125D01*
X156228285Y-110237471D01*
X156298767Y-110159193D01*
X156388999Y-110002907D01*
X156444765Y-109831275D01*
X156463629Y-109651800D01*
X156444765Y-109472325D01*
X156391526Y-109308473D01*
X156389532Y-109238634D01*
X156425613Y-109178801D01*
X156436568Y-109169841D01*
X156477412Y-109140168D01*
X156598166Y-109006057D01*
X156688398Y-108849771D01*
X156744164Y-108678139D01*
X156763028Y-108498664D01*
X156744164Y-108319189D01*
X156688398Y-108147557D01*
X156598166Y-107991271D01*
X156550509Y-107938342D01*
X156477417Y-107857164D01*
X156477414Y-107857162D01*
X156477413Y-107857161D01*
X156477412Y-107857160D01*
X156331414Y-107751086D01*
X156331413Y-107751085D01*
X156274164Y-107725596D01*
X156220928Y-107680345D01*
X156201280Y-107625282D01*
X156198952Y-107603125D01*
X156143186Y-107431493D01*
X156052954Y-107275207D01*
X156005658Y-107222679D01*
X155932205Y-107141100D01*
X155932202Y-107141098D01*
X155932201Y-107141097D01*
X155932200Y-107141096D01*
X155786202Y-107035022D01*
X155786201Y-107035021D01*
X155621344Y-106961621D01*
X155621338Y-106961619D01*
X155520860Y-106940262D01*
X155503626Y-106936599D01*
X155442145Y-106903408D01*
X155422025Y-106877316D01*
X155336936Y-106729937D01*
X155300977Y-106690000D01*
X155216187Y-106595830D01*
X155216184Y-106595828D01*
X155216183Y-106595827D01*
X155216182Y-106595826D01*
X155070184Y-106489752D01*
X155070183Y-106489751D01*
X154905326Y-106416351D01*
X154905320Y-106416349D01*
X154766320Y-106386804D01*
X154728801Y-106378830D01*
X154548337Y-106378830D01*
X154517394Y-106385406D01*
X154371817Y-106416349D01*
X154371811Y-106416351D01*
X154206955Y-106489751D01*
X154206950Y-106489754D01*
X154060957Y-106595824D01*
X154060950Y-106595830D01*
X153940201Y-106729938D01*
X153849969Y-106886224D01*
X153794204Y-107057853D01*
X153775340Y-107237330D01*
X153794204Y-107416806D01*
X153806387Y-107454300D01*
X153832491Y-107534643D01*
X153850404Y-107589772D01*
X153852399Y-107659614D01*
X153816318Y-107719446D01*
X153753617Y-107750274D01*
X153684203Y-107742309D01*
X153659588Y-107728409D01*
X153639918Y-107714118D01*
X153606615Y-107689922D01*
X153606613Y-107689921D01*
X153606614Y-107689921D01*
X153441757Y-107616521D01*
X153441751Y-107616519D01*
X153302751Y-107586974D01*
X153265232Y-107579000D01*
X153084768Y-107579000D01*
X153053825Y-107585576D01*
X152908248Y-107616519D01*
X152908242Y-107616521D01*
X152743386Y-107689921D01*
X152743381Y-107689924D01*
X152597388Y-107795994D01*
X152597381Y-107796000D01*
X152476632Y-107930108D01*
X152386400Y-108086394D01*
X152330635Y-108258023D01*
X152311771Y-108437500D01*
X152330635Y-108616976D01*
X152386003Y-108787384D01*
X152386401Y-108788607D01*
X152476633Y-108944893D01*
X152518696Y-108991608D01*
X152597381Y-109078999D01*
X152597384Y-109079001D01*
X152597387Y-109079004D01*
X152743385Y-109185078D01*
X152757829Y-109191509D01*
X152811066Y-109236756D01*
X152831389Y-109303604D01*
X152812346Y-109370829D01*
X152780281Y-109405106D01*
X152672384Y-109483498D01*
X152672381Y-109483500D01*
X152551632Y-109617608D01*
X152461401Y-109773892D01*
X152461396Y-109773903D01*
X152450500Y-109807438D01*
X152411062Y-109865113D01*
X152358351Y-109890408D01*
X152200860Y-109923883D01*
X152200854Y-109923885D01*
X152035998Y-109997285D01*
X152035993Y-109997288D01*
X151890000Y-110103358D01*
X151889993Y-110103364D01*
X151769244Y-110237472D01*
X151676646Y-110397857D01*
X151626079Y-110446073D01*
X151595040Y-110457147D01*
X151492136Y-110479019D01*
X151492131Y-110479021D01*
X151327274Y-110552421D01*
X151327269Y-110552424D01*
X151181276Y-110658494D01*
X151181269Y-110658500D01*
X151060520Y-110792608D01*
X150970288Y-110948894D01*
X150914523Y-111120523D01*
X150895659Y-111300000D01*
X133080222Y-111300000D01*
X133216752Y-111270980D01*
X133216754Y-111270978D01*
X133216757Y-111270978D01*
X133272288Y-111246253D01*
X133381615Y-111197578D01*
X133527613Y-111091504D01*
X133545890Y-111071206D01*
X133578419Y-111035078D01*
X133648367Y-110957393D01*
X133738599Y-110801107D01*
X133794365Y-110629475D01*
X133813229Y-110450000D01*
X133794365Y-110270525D01*
X133771450Y-110200000D01*
X144405521Y-110200000D01*
X144424385Y-110379476D01*
X144476811Y-110540829D01*
X144480151Y-110551107D01*
X144570383Y-110707393D01*
X144607936Y-110749100D01*
X144691131Y-110841499D01*
X144691134Y-110841501D01*
X144691137Y-110841504D01*
X144809934Y-110927815D01*
X144837135Y-110947578D01*
X145001992Y-111020978D01*
X145001998Y-111020980D01*
X145178518Y-111058500D01*
X145178519Y-111058500D01*
X145358981Y-111058500D01*
X145358982Y-111058500D01*
X145535502Y-111020980D01*
X145535504Y-111020978D01*
X145535507Y-111020978D01*
X145565913Y-111007439D01*
X145700365Y-110947578D01*
X145700371Y-110947573D01*
X145705996Y-110944327D01*
X145707514Y-110946957D01*
X145760830Y-110927815D01*
X145828915Y-110943506D01*
X145841035Y-110951278D01*
X145869546Y-110971993D01*
X145956375Y-111035078D01*
X146121232Y-111108478D01*
X146121238Y-111108480D01*
X146297758Y-111146000D01*
X146297759Y-111146000D01*
X146478221Y-111146000D01*
X146478222Y-111146000D01*
X146654742Y-111108480D01*
X146654744Y-111108478D01*
X146654747Y-111108478D01*
X146758176Y-111062428D01*
X146819605Y-111035078D01*
X146965603Y-110929004D01*
X147086357Y-110794893D01*
X147176589Y-110638607D01*
X147232355Y-110466975D01*
X147251219Y-110287500D01*
X147232355Y-110108025D01*
X147202024Y-110014674D01*
X148165845Y-110014674D01*
X148184709Y-110194150D01*
X148220555Y-110304475D01*
X148240475Y-110365781D01*
X148330707Y-110522067D01*
X148356853Y-110551105D01*
X148451455Y-110656173D01*
X148451458Y-110656175D01*
X148451461Y-110656178D01*
X148579357Y-110749100D01*
X148597459Y-110762252D01*
X148762316Y-110835652D01*
X148762322Y-110835654D01*
X148938842Y-110873174D01*
X148938843Y-110873174D01*
X149119305Y-110873174D01*
X149119306Y-110873174D01*
X149295826Y-110835654D01*
X149295828Y-110835652D01*
X149295831Y-110835652D01*
X149333354Y-110818945D01*
X149407804Y-110785797D01*
X149477053Y-110776513D01*
X149508673Y-110785797D01*
X149543059Y-110801107D01*
X149662791Y-110854416D01*
X149662797Y-110854418D01*
X149839317Y-110891938D01*
X149839318Y-110891938D01*
X150019780Y-110891938D01*
X150019781Y-110891938D01*
X150196301Y-110854418D01*
X150196303Y-110854416D01*
X150196306Y-110854416D01*
X150283247Y-110815707D01*
X150361164Y-110781016D01*
X150507162Y-110674942D01*
X150521967Y-110658500D01*
X150545475Y-110632391D01*
X150627916Y-110540831D01*
X150718148Y-110384545D01*
X150773914Y-110212913D01*
X150792778Y-110033438D01*
X150773914Y-109853963D01*
X150718148Y-109682331D01*
X150627916Y-109526045D01*
X150579545Y-109472323D01*
X150507167Y-109391938D01*
X150507164Y-109391936D01*
X150507163Y-109391935D01*
X150507162Y-109391934D01*
X150386159Y-109304020D01*
X150361163Y-109285859D01*
X150196306Y-109212459D01*
X150196300Y-109212457D01*
X150037955Y-109178801D01*
X150019781Y-109174938D01*
X149839317Y-109174938D01*
X149821143Y-109178801D01*
X149662797Y-109212457D01*
X149662795Y-109212458D01*
X149550818Y-109262314D01*
X149481568Y-109271598D01*
X149449947Y-109262313D01*
X149295831Y-109193695D01*
X149295825Y-109193693D01*
X149156825Y-109164148D01*
X149119306Y-109156174D01*
X148938842Y-109156174D01*
X148907899Y-109162750D01*
X148762322Y-109193693D01*
X148762316Y-109193695D01*
X148597460Y-109267095D01*
X148597455Y-109267098D01*
X148451462Y-109373168D01*
X148451455Y-109373174D01*
X148330706Y-109507282D01*
X148240474Y-109663568D01*
X148184709Y-109835197D01*
X148165845Y-110014674D01*
X147202024Y-110014674D01*
X147176589Y-109936393D01*
X147086357Y-109780107D01*
X147029554Y-109717021D01*
X146965608Y-109646000D01*
X146965605Y-109645998D01*
X146965604Y-109645997D01*
X146965603Y-109645996D01*
X146846852Y-109559718D01*
X146819604Y-109539921D01*
X146654747Y-109466521D01*
X146654741Y-109466519D01*
X146515741Y-109436974D01*
X146478222Y-109429000D01*
X146297758Y-109429000D01*
X146266815Y-109435576D01*
X146121238Y-109466519D01*
X146121232Y-109466521D01*
X145956373Y-109539923D01*
X145950748Y-109543171D01*
X145949283Y-109540634D01*
X145895315Y-109559718D01*
X145827306Y-109543700D01*
X145815701Y-109536219D01*
X145801699Y-109526046D01*
X145727759Y-109472325D01*
X145700364Y-109452421D01*
X145535507Y-109379021D01*
X145535501Y-109379019D01*
X145396501Y-109349474D01*
X145358982Y-109341500D01*
X145178518Y-109341500D01*
X145147575Y-109348076D01*
X145001998Y-109379019D01*
X145001992Y-109379021D01*
X144837136Y-109452421D01*
X144837131Y-109452424D01*
X144691138Y-109558494D01*
X144691131Y-109558500D01*
X144570382Y-109692608D01*
X144480150Y-109848894D01*
X144424385Y-110020523D01*
X144405521Y-110200000D01*
X133771450Y-110200000D01*
X133738599Y-110098893D01*
X133648367Y-109942607D01*
X133586605Y-109874013D01*
X133527618Y-109808500D01*
X133527615Y-109808498D01*
X133527614Y-109808497D01*
X133527613Y-109808496D01*
X133381615Y-109702422D01*
X133381614Y-109702421D01*
X133216757Y-109629021D01*
X133216751Y-109629019D01*
X133059455Y-109595586D01*
X133040232Y-109591500D01*
X132859768Y-109591500D01*
X132840545Y-109595586D01*
X132683248Y-109629019D01*
X132683242Y-109629021D01*
X132518386Y-109702421D01*
X132518381Y-109702424D01*
X132372388Y-109808494D01*
X132372381Y-109808500D01*
X132251632Y-109942608D01*
X132161400Y-110098894D01*
X132105635Y-110270523D01*
X132086771Y-110450000D01*
X127074294Y-110450000D01*
X127056965Y-110285125D01*
X127001199Y-110113493D01*
X126910967Y-109957207D01*
X126847180Y-109886364D01*
X126790218Y-109823100D01*
X126790215Y-109823098D01*
X126790214Y-109823097D01*
X126790213Y-109823096D01*
X126644215Y-109717022D01*
X126644214Y-109717021D01*
X126479357Y-109643621D01*
X126479351Y-109643619D01*
X126340351Y-109614074D01*
X126302832Y-109606100D01*
X126122368Y-109606100D01*
X126091425Y-109612676D01*
X125945848Y-109643619D01*
X125945842Y-109643621D01*
X125780986Y-109717021D01*
X125780981Y-109717024D01*
X125634988Y-109823094D01*
X125634981Y-109823100D01*
X125514232Y-109957208D01*
X125424000Y-110113494D01*
X125368235Y-110285123D01*
X125349371Y-110464600D01*
X119144333Y-110464600D01*
X119158541Y-110426064D01*
X119199070Y-110390945D01*
X119210896Y-110384545D01*
X119235576Y-110371189D01*
X119413240Y-110232906D01*
X119523168Y-110113494D01*
X119565715Y-110067276D01*
X119565717Y-110067273D01*
X119565722Y-110067268D01*
X119688860Y-109878791D01*
X119779296Y-109672616D01*
X119834564Y-109454368D01*
X119834725Y-109452424D01*
X119853156Y-109230005D01*
X119853156Y-109229994D01*
X119834565Y-109005640D01*
X119834563Y-109005628D01*
X119810810Y-108911830D01*
X119779296Y-108787384D01*
X119688860Y-108581209D01*
X119672706Y-108556484D01*
X119586215Y-108424099D01*
X119565722Y-108392732D01*
X119565719Y-108392729D01*
X119565715Y-108392723D01*
X119413243Y-108227097D01*
X119413238Y-108227092D01*
X119235577Y-108088812D01*
X119235578Y-108088812D01*
X119235576Y-108088811D01*
X119199070Y-108069055D01*
X119149479Y-108019836D01*
X119134371Y-107951619D01*
X119158541Y-107886064D01*
X119199070Y-107850945D01*
X119199084Y-107850936D01*
X119235576Y-107831189D01*
X119413240Y-107692906D01*
X119565722Y-107527268D01*
X119688860Y-107338791D01*
X119779296Y-107132616D01*
X119834564Y-106914368D01*
X119836323Y-106893139D01*
X119853156Y-106690005D01*
X119853156Y-106689994D01*
X119834565Y-106465640D01*
X119834563Y-106465628D01*
X119821848Y-106415416D01*
X142884533Y-106415416D01*
X142903397Y-106594892D01*
X142955552Y-106755411D01*
X142959163Y-106766523D01*
X143049395Y-106922809D01*
X143091458Y-106969524D01*
X143170143Y-107056915D01*
X143170146Y-107056917D01*
X143170149Y-107056920D01*
X143316147Y-107162994D01*
X143481004Y-107236394D01*
X143481010Y-107236396D01*
X143657530Y-107273916D01*
X143657531Y-107273916D01*
X143837993Y-107273916D01*
X143837994Y-107273916D01*
X144014514Y-107236396D01*
X144014516Y-107236394D01*
X144014519Y-107236394D01*
X144070050Y-107211669D01*
X144179377Y-107162994D01*
X144325375Y-107056920D01*
X144446129Y-106922809D01*
X144536361Y-106766523D01*
X144592127Y-106594891D01*
X144610991Y-106415416D01*
X144592127Y-106235941D01*
X144536361Y-106064309D01*
X144446129Y-105908023D01*
X144387032Y-105842389D01*
X144325380Y-105773916D01*
X144325377Y-105773914D01*
X144325376Y-105773913D01*
X144325375Y-105773912D01*
X144193741Y-105678274D01*
X144179376Y-105667837D01*
X144014519Y-105594437D01*
X144014513Y-105594435D01*
X143875513Y-105564890D01*
X143837994Y-105556916D01*
X143657530Y-105556916D01*
X143631264Y-105562499D01*
X143481010Y-105594435D01*
X143481004Y-105594437D01*
X143316148Y-105667837D01*
X143316143Y-105667840D01*
X143170150Y-105773910D01*
X143170143Y-105773916D01*
X143049394Y-105908024D01*
X142959162Y-106064310D01*
X142903397Y-106235939D01*
X142884533Y-106415416D01*
X119821848Y-106415416D01*
X119779296Y-106247385D01*
X119776145Y-106240202D01*
X119688860Y-106041209D01*
X119672706Y-106016484D01*
X119604770Y-105912500D01*
X119565722Y-105852732D01*
X119565719Y-105852729D01*
X119565715Y-105852723D01*
X119413243Y-105687097D01*
X119413238Y-105687092D01*
X119235577Y-105548812D01*
X119235578Y-105548812D01*
X119235576Y-105548811D01*
X119199070Y-105529055D01*
X119149479Y-105479836D01*
X119134371Y-105411619D01*
X119158541Y-105346064D01*
X119199070Y-105310945D01*
X119199084Y-105310936D01*
X119235576Y-105291189D01*
X119413240Y-105152906D01*
X119565722Y-104987268D01*
X119688860Y-104798791D01*
X119779296Y-104592616D01*
X119834564Y-104374368D01*
X119840311Y-104305013D01*
X119853156Y-104150005D01*
X119853156Y-104149994D01*
X119834565Y-103925640D01*
X119834563Y-103925628D01*
X119824223Y-103884797D01*
X119779296Y-103707384D01*
X119710262Y-103550000D01*
X145986771Y-103550000D01*
X146005635Y-103729476D01*
X146056101Y-103884797D01*
X146061401Y-103901107D01*
X146151633Y-104057393D01*
X146183097Y-104092337D01*
X146272381Y-104191499D01*
X146272384Y-104191501D01*
X146272387Y-104191504D01*
X146406843Y-104289192D01*
X146418385Y-104297578D01*
X146583242Y-104370978D01*
X146583248Y-104370980D01*
X146759768Y-104408500D01*
X146759769Y-104408500D01*
X146940231Y-104408500D01*
X146940232Y-104408500D01*
X147116752Y-104370980D01*
X147116754Y-104370978D01*
X147116757Y-104370978D01*
X147198370Y-104334641D01*
X147244062Y-104314297D01*
X147313310Y-104305013D01*
X147376586Y-104334641D01*
X147412427Y-104389258D01*
X147419207Y-104410126D01*
X147419209Y-104410130D01*
X147471384Y-104500500D01*
X147487857Y-104568401D01*
X147471384Y-104624500D01*
X147419209Y-104714869D01*
X147419206Y-104714875D01*
X147363996Y-104884797D01*
X147363995Y-104884799D01*
X147345318Y-105062500D01*
X147363995Y-105240200D01*
X147363996Y-105240202D01*
X147419206Y-105410124D01*
X147419209Y-105410130D01*
X147471384Y-105500500D01*
X147487857Y-105568401D01*
X147471384Y-105624500D01*
X147419209Y-105714869D01*
X147419206Y-105714875D01*
X147363996Y-105884797D01*
X147363995Y-105884799D01*
X147345318Y-106062500D01*
X147363995Y-106240200D01*
X147363996Y-106240202D01*
X147419206Y-106410124D01*
X147419209Y-106410130D01*
X147508545Y-106564865D01*
X147508549Y-106564870D01*
X147512644Y-106569418D01*
X147542875Y-106632409D01*
X147534252Y-106701745D01*
X147489511Y-106755411D01*
X147470933Y-106765671D01*
X147422879Y-106787066D01*
X147422877Y-106787067D01*
X147276884Y-106893137D01*
X147276877Y-106893143D01*
X147156128Y-107027251D01*
X147065896Y-107183537D01*
X147010131Y-107355166D01*
X146991267Y-107534643D01*
X147010131Y-107714119D01*
X147056607Y-107857160D01*
X147065897Y-107885750D01*
X147156129Y-108042036D01*
X147194865Y-108085057D01*
X147276877Y-108176142D01*
X147276880Y-108176144D01*
X147276883Y-108176147D01*
X147389578Y-108258025D01*
X147422881Y-108282221D01*
X147587738Y-108355621D01*
X147587744Y-108355623D01*
X147764264Y-108393143D01*
X147764265Y-108393143D01*
X147944727Y-108393143D01*
X147944728Y-108393143D01*
X148121248Y-108355623D01*
X148121250Y-108355621D01*
X148121253Y-108355621D01*
X148292048Y-108279578D01*
X148293212Y-108282193D01*
X148348872Y-108268613D01*
X148393566Y-108279199D01*
X148487073Y-108320832D01*
X148663593Y-108358352D01*
X148844056Y-108358352D01*
X148844057Y-108358352D01*
X149020577Y-108320832D01*
X149020579Y-108320830D01*
X149020582Y-108320830D01*
X149089842Y-108289993D01*
X149185440Y-108247430D01*
X149331438Y-108141356D01*
X149338326Y-108133707D01*
X149357600Y-108112299D01*
X149452192Y-108007245D01*
X149542424Y-107850959D01*
X149598190Y-107679327D01*
X149617054Y-107499852D01*
X149598190Y-107320377D01*
X149542424Y-107148745D01*
X149469699Y-107022783D01*
X149453227Y-106954884D01*
X149476080Y-106888857D01*
X149526653Y-106847504D01*
X149627342Y-106802675D01*
X149632974Y-106799424D01*
X149633609Y-106800525D01*
X149692909Y-106779361D01*
X149760964Y-106795179D01*
X149772361Y-106802504D01*
X149772659Y-106802676D01*
X149935884Y-106875349D01*
X149935889Y-106875351D01*
X150110661Y-106912500D01*
X150289339Y-106912500D01*
X150464110Y-106875351D01*
X150464115Y-106875349D01*
X150599165Y-106815220D01*
X150599165Y-106815219D01*
X150023223Y-106239277D01*
X149816610Y-106032663D01*
X150050000Y-106032663D01*
X150050000Y-106092337D01*
X150072836Y-106147468D01*
X150115032Y-106189664D01*
X150170163Y-106212500D01*
X150229837Y-106212500D01*
X150284968Y-106189664D01*
X150327164Y-106147468D01*
X150350000Y-106092337D01*
X150350000Y-106032663D01*
X150327164Y-105977532D01*
X150284968Y-105935336D01*
X150229837Y-105912500D01*
X150170163Y-105912500D01*
X150115032Y-105935336D01*
X150072836Y-105977532D01*
X150050000Y-106032663D01*
X149816610Y-106032663D01*
X149700001Y-105916053D01*
X149699999Y-105916053D01*
X149464457Y-106151595D01*
X149403134Y-106185080D01*
X149333442Y-106180096D01*
X149309757Y-106164874D01*
X149327164Y-106147468D01*
X149350000Y-106092337D01*
X149350000Y-106032663D01*
X149327164Y-105977532D01*
X149284968Y-105935336D01*
X149229837Y-105912500D01*
X149170163Y-105912500D01*
X149115032Y-105935336D01*
X149072836Y-105977532D01*
X149050000Y-106032663D01*
X149050000Y-106092337D01*
X149072836Y-106147468D01*
X149088950Y-106163582D01*
X149049581Y-106185080D01*
X148979889Y-106180096D01*
X148935542Y-106151595D01*
X148700001Y-105916053D01*
X148699999Y-105916053D01*
X148464457Y-106151595D01*
X148403134Y-106185080D01*
X148333442Y-106180096D01*
X148309757Y-106164874D01*
X148327164Y-106147468D01*
X148350000Y-106092337D01*
X148350000Y-106032663D01*
X148327164Y-105977532D01*
X148284968Y-105935336D01*
X148229837Y-105912500D01*
X148170163Y-105912500D01*
X148115032Y-105935336D01*
X148098916Y-105951451D01*
X148077419Y-105912081D01*
X148082403Y-105842389D01*
X148110904Y-105798042D01*
X148346446Y-105562500D01*
X148346445Y-105562499D01*
X149053553Y-105562499D01*
X149200000Y-105708946D01*
X149346446Y-105562501D01*
X149346446Y-105562500D01*
X149200000Y-105416053D01*
X149053553Y-105562499D01*
X148346445Y-105562499D01*
X148110904Y-105326958D01*
X148077419Y-105265635D01*
X148082403Y-105195943D01*
X148097625Y-105172257D01*
X148115032Y-105189664D01*
X148170163Y-105212500D01*
X148229837Y-105212500D01*
X148284968Y-105189664D01*
X148327164Y-105147468D01*
X148350000Y-105092337D01*
X148350000Y-105062499D01*
X148553553Y-105062499D01*
X148700000Y-105208946D01*
X148846446Y-105062501D01*
X148846446Y-105062500D01*
X148816609Y-105032663D01*
X149050000Y-105032663D01*
X149050000Y-105092337D01*
X149072836Y-105147468D01*
X149115032Y-105189664D01*
X149170163Y-105212500D01*
X149229837Y-105212500D01*
X149284968Y-105189664D01*
X149327164Y-105147468D01*
X149350000Y-105092337D01*
X149350000Y-105062499D01*
X149553553Y-105062499D01*
X149700000Y-105208946D01*
X149846446Y-105062501D01*
X149846446Y-105062500D01*
X149816609Y-105032663D01*
X150050000Y-105032663D01*
X150050000Y-105092337D01*
X150072836Y-105147468D01*
X150115032Y-105189664D01*
X150170163Y-105212500D01*
X150229837Y-105212500D01*
X150284968Y-105189664D01*
X150301082Y-105173549D01*
X150322580Y-105212918D01*
X150317596Y-105282610D01*
X150289095Y-105326957D01*
X150053553Y-105562499D01*
X150053553Y-105562500D01*
X150376777Y-105885723D01*
X150951651Y-106460599D01*
X150951652Y-106460599D01*
X150980790Y-106410131D01*
X151036003Y-106240202D01*
X151036004Y-106240200D01*
X151054681Y-106062500D01*
X151036004Y-105884799D01*
X151036003Y-105884797D01*
X150980792Y-105714872D01*
X150928615Y-105624501D01*
X150912142Y-105556601D01*
X150928615Y-105500499D01*
X150980792Y-105410127D01*
X151036003Y-105240202D01*
X151036004Y-105240200D01*
X151054681Y-105062500D01*
X151036004Y-104884799D01*
X151036003Y-104884797D01*
X150980792Y-104714872D01*
X150928615Y-104624501D01*
X150912142Y-104556601D01*
X150928615Y-104500499D01*
X150980792Y-104410127D01*
X151036003Y-104240202D01*
X151036004Y-104240200D01*
X151054681Y-104062500D01*
X151036004Y-103884799D01*
X151036003Y-103884797D01*
X150980793Y-103714875D01*
X150980790Y-103714869D01*
X150951651Y-103664399D01*
X150376777Y-104239277D01*
X150053553Y-104562499D01*
X150053553Y-104562500D01*
X150289095Y-104798042D01*
X150322580Y-104859365D01*
X150317596Y-104929056D01*
X150302374Y-104952742D01*
X150284968Y-104935336D01*
X150229837Y-104912500D01*
X150170163Y-104912500D01*
X150115032Y-104935336D01*
X150072836Y-104977532D01*
X150050000Y-105032663D01*
X149816609Y-105032663D01*
X149700000Y-104916053D01*
X149553553Y-105062499D01*
X149350000Y-105062499D01*
X149350000Y-105032663D01*
X149327164Y-104977532D01*
X149284968Y-104935336D01*
X149229837Y-104912500D01*
X149170163Y-104912500D01*
X149115032Y-104935336D01*
X149072836Y-104977532D01*
X149050000Y-105032663D01*
X148816609Y-105032663D01*
X148700000Y-104916053D01*
X148553553Y-105062499D01*
X148350000Y-105062499D01*
X148350000Y-105032663D01*
X148327164Y-104977532D01*
X148284968Y-104935336D01*
X148229837Y-104912500D01*
X148170163Y-104912500D01*
X148115032Y-104935336D01*
X148098916Y-104951451D01*
X148077419Y-104912081D01*
X148082403Y-104842389D01*
X148110904Y-104798042D01*
X148346446Y-104562500D01*
X148346445Y-104562499D01*
X149053553Y-104562499D01*
X149200000Y-104708946D01*
X149346446Y-104562501D01*
X149346446Y-104562500D01*
X149200000Y-104416053D01*
X149053553Y-104562499D01*
X148346445Y-104562499D01*
X148110904Y-104326958D01*
X148077419Y-104265635D01*
X148082403Y-104195943D01*
X148097625Y-104172257D01*
X148115032Y-104189664D01*
X148170163Y-104212500D01*
X148229837Y-104212500D01*
X148284968Y-104189664D01*
X148327164Y-104147468D01*
X148350000Y-104092337D01*
X148350000Y-104032663D01*
X148327164Y-103977532D01*
X148311048Y-103961416D01*
X148350419Y-103939919D01*
X148420111Y-103944903D01*
X148464458Y-103973404D01*
X148700000Y-104208946D01*
X148935542Y-103973404D01*
X148996865Y-103939919D01*
X149066557Y-103944903D01*
X149090242Y-103960125D01*
X149072836Y-103977532D01*
X149050000Y-104032663D01*
X149050000Y-104092337D01*
X149072836Y-104147468D01*
X149115032Y-104189664D01*
X149170163Y-104212500D01*
X149229837Y-104212500D01*
X149284968Y-104189664D01*
X149327164Y-104147468D01*
X149350000Y-104092337D01*
X149350000Y-104032663D01*
X149327164Y-103977532D01*
X149311048Y-103961416D01*
X149350419Y-103939919D01*
X149420111Y-103944903D01*
X149464458Y-103973404D01*
X149700000Y-104208946D01*
X149876283Y-104032663D01*
X150050000Y-104032663D01*
X150050000Y-104092337D01*
X150072836Y-104147468D01*
X150115032Y-104189664D01*
X150170163Y-104212500D01*
X150229837Y-104212500D01*
X150284968Y-104189664D01*
X150327164Y-104147468D01*
X150350000Y-104092337D01*
X150350000Y-104032663D01*
X150327164Y-103977532D01*
X150284968Y-103935336D01*
X150229837Y-103912500D01*
X150170163Y-103912500D01*
X150115032Y-103935336D01*
X150072836Y-103977532D01*
X150050000Y-104032663D01*
X149876283Y-104032663D01*
X150599166Y-103309779D01*
X150464108Y-103249648D01*
X150464109Y-103249648D01*
X150289339Y-103212500D01*
X150110661Y-103212500D01*
X149935889Y-103249648D01*
X149935884Y-103249650D01*
X149772656Y-103322325D01*
X149767031Y-103325573D01*
X149766398Y-103324477D01*
X149707064Y-103345640D01*
X149639012Y-103329806D01*
X149627619Y-103322484D01*
X149627343Y-103322325D01*
X149464115Y-103249650D01*
X149464110Y-103249648D01*
X149289339Y-103212500D01*
X149110661Y-103212500D01*
X148935889Y-103249648D01*
X148935884Y-103249650D01*
X148772656Y-103322325D01*
X148767031Y-103325573D01*
X148766398Y-103324477D01*
X148707064Y-103345640D01*
X148639012Y-103329806D01*
X148627619Y-103322484D01*
X148627343Y-103322325D01*
X148464115Y-103249650D01*
X148464110Y-103249648D01*
X148289339Y-103212500D01*
X148110661Y-103212500D01*
X147935889Y-103249648D01*
X147935888Y-103249648D01*
X147816387Y-103302854D01*
X147747137Y-103312138D01*
X147683860Y-103282509D01*
X147648021Y-103227891D01*
X147638600Y-103198895D01*
X147608694Y-103147097D01*
X147548367Y-103042607D01*
X147500148Y-102989054D01*
X147427618Y-102908500D01*
X147427615Y-102908498D01*
X147427614Y-102908497D01*
X147427613Y-102908496D01*
X147281615Y-102802422D01*
X147281614Y-102802421D01*
X147116757Y-102729021D01*
X147116751Y-102729019D01*
X146977751Y-102699474D01*
X146940232Y-102691500D01*
X146759768Y-102691500D01*
X146728825Y-102698076D01*
X146583248Y-102729019D01*
X146583242Y-102729021D01*
X146418386Y-102802421D01*
X146418381Y-102802424D01*
X146272388Y-102908494D01*
X146272381Y-102908500D01*
X146151632Y-103042608D01*
X146061400Y-103198894D01*
X146005635Y-103370523D01*
X145986771Y-103550000D01*
X119710262Y-103550000D01*
X119688860Y-103501209D01*
X119672706Y-103476484D01*
X119587222Y-103345640D01*
X119565722Y-103312732D01*
X119565719Y-103312729D01*
X119565715Y-103312723D01*
X119413243Y-103147097D01*
X119413238Y-103147092D01*
X119235577Y-103008812D01*
X119235578Y-103008812D01*
X119235576Y-103008811D01*
X119199070Y-102989055D01*
X119149479Y-102939836D01*
X119134371Y-102871619D01*
X119158541Y-102806064D01*
X119199070Y-102770945D01*
X119199084Y-102770936D01*
X119235576Y-102751189D01*
X119413240Y-102612906D01*
X119565722Y-102447268D01*
X119688860Y-102258791D01*
X119779296Y-102052616D01*
X119834564Y-101834368D01*
X119835478Y-101823341D01*
X119853156Y-101610005D01*
X119853156Y-101609994D01*
X119834565Y-101385640D01*
X119834563Y-101385628D01*
X119787532Y-101199909D01*
X119779296Y-101167384D01*
X119688860Y-100961209D01*
X119672706Y-100936484D01*
X119607966Y-100837391D01*
X119565722Y-100772732D01*
X119565719Y-100772729D01*
X119565715Y-100772723D01*
X119413243Y-100607097D01*
X119413238Y-100607092D01*
X119287822Y-100509476D01*
X119235576Y-100468811D01*
X119199070Y-100449055D01*
X119149479Y-100399836D01*
X119134371Y-100331619D01*
X119134968Y-100330000D01*
X125374771Y-100330000D01*
X125393635Y-100509476D01*
X125445265Y-100668380D01*
X125449401Y-100681107D01*
X125539633Y-100837393D01*
X125581696Y-100884108D01*
X125660381Y-100971499D01*
X125660384Y-100971501D01*
X125660387Y-100971504D01*
X125790169Y-101065796D01*
X125806385Y-101077578D01*
X125971242Y-101150978D01*
X125971248Y-101150980D01*
X126147768Y-101188500D01*
X126147769Y-101188500D01*
X126328231Y-101188500D01*
X126328232Y-101188500D01*
X126504752Y-101150980D01*
X126504754Y-101150978D01*
X126504757Y-101150978D01*
X126566713Y-101123393D01*
X126669615Y-101077578D01*
X126815613Y-100971504D01*
X126820582Y-100965986D01*
X126847145Y-100936484D01*
X126936367Y-100837393D01*
X127026599Y-100681107D01*
X127082365Y-100509475D01*
X127099127Y-100350000D01*
X132136771Y-100350000D01*
X132155635Y-100529476D01*
X132204902Y-100681107D01*
X132211401Y-100701107D01*
X132301633Y-100857393D01*
X132343696Y-100904108D01*
X132422381Y-100991499D01*
X132422384Y-100991501D01*
X132422387Y-100991504D01*
X132568385Y-101097578D01*
X132733242Y-101170978D01*
X132733248Y-101170980D01*
X132909768Y-101208500D01*
X132909769Y-101208500D01*
X133090231Y-101208500D01*
X133090232Y-101208500D01*
X133266752Y-101170980D01*
X133266754Y-101170978D01*
X133266757Y-101170978D01*
X133322288Y-101146253D01*
X133431615Y-101097578D01*
X133577613Y-100991504D01*
X133600590Y-100965986D01*
X133627153Y-100936484D01*
X133637853Y-100924600D01*
X143789771Y-100924600D01*
X143808635Y-101104076D01*
X143852854Y-101240171D01*
X143864401Y-101275707D01*
X143954633Y-101431993D01*
X143996696Y-101478708D01*
X144075381Y-101566099D01*
X144075384Y-101566101D01*
X144075387Y-101566104D01*
X144144469Y-101616295D01*
X144221385Y-101672178D01*
X144386242Y-101745578D01*
X144386248Y-101745580D01*
X144562768Y-101783100D01*
X144562769Y-101783100D01*
X144743231Y-101783100D01*
X144743232Y-101783100D01*
X144919752Y-101745580D01*
X144919754Y-101745578D01*
X144919757Y-101745578D01*
X144975288Y-101720853D01*
X145084615Y-101672178D01*
X145230613Y-101566104D01*
X145231098Y-101565566D01*
X145256775Y-101537047D01*
X145351367Y-101431993D01*
X145441599Y-101275707D01*
X145497365Y-101104075D01*
X145516229Y-100924600D01*
X145497365Y-100745125D01*
X145441599Y-100573493D01*
X145432888Y-100558405D01*
X152572974Y-100558405D01*
X152591838Y-100737881D01*
X152630669Y-100857393D01*
X152647604Y-100909512D01*
X152737836Y-101065798D01*
X152748443Y-101077578D01*
X152858584Y-101199904D01*
X152858587Y-101199906D01*
X152858590Y-101199909D01*
X152914002Y-101240168D01*
X153004588Y-101305983D01*
X153169445Y-101379383D01*
X153169448Y-101379383D01*
X153169451Y-101379385D01*
X153323058Y-101412034D01*
X153384539Y-101445226D01*
X153418316Y-101506389D01*
X153413664Y-101576103D01*
X153389428Y-101616295D01*
X153280156Y-101737656D01*
X153189924Y-101893942D01*
X153134159Y-102065571D01*
X153115295Y-102245048D01*
X153134159Y-102424524D01*
X153179297Y-102563447D01*
X153189925Y-102596155D01*
X153280157Y-102752441D01*
X153296819Y-102770946D01*
X153400905Y-102886547D01*
X153400908Y-102886549D01*
X153400911Y-102886552D01*
X153541993Y-102989054D01*
X153546909Y-102992626D01*
X153711767Y-103066026D01*
X153711772Y-103066028D01*
X153725944Y-103069040D01*
X153787425Y-103102229D01*
X153821203Y-103163391D01*
X153816553Y-103233106D01*
X153807554Y-103252327D01*
X153791814Y-103279590D01*
X153736049Y-103451219D01*
X153717185Y-103630696D01*
X153736049Y-103810172D01*
X153791742Y-103981580D01*
X153791815Y-103981803D01*
X153882047Y-104138089D01*
X153941925Y-104204590D01*
X153989200Y-104257095D01*
X154019429Y-104320087D01*
X154010803Y-104389422D01*
X153992527Y-104417862D01*
X153992781Y-104418047D01*
X153989561Y-104422477D01*
X153989205Y-104423033D01*
X153988963Y-104423301D01*
X153988959Y-104423306D01*
X153898729Y-104579590D01*
X153842964Y-104751219D01*
X153824100Y-104930696D01*
X153842964Y-105110172D01*
X153893476Y-105265635D01*
X153898730Y-105281803D01*
X153988962Y-105438089D01*
X153992176Y-105441658D01*
X154109710Y-105572195D01*
X154109713Y-105572197D01*
X154109716Y-105572200D01*
X154202685Y-105639746D01*
X154255714Y-105678274D01*
X154420571Y-105751674D01*
X154420577Y-105751676D01*
X154597097Y-105789196D01*
X154597098Y-105789196D01*
X154777560Y-105789196D01*
X154777561Y-105789196D01*
X154954081Y-105751676D01*
X154954083Y-105751674D01*
X154954086Y-105751674D01*
X155036744Y-105714872D01*
X155118944Y-105678274D01*
X155264942Y-105572200D01*
X155278988Y-105556601D01*
X155303791Y-105529054D01*
X155385696Y-105438089D01*
X155475928Y-105281803D01*
X155531694Y-105110171D01*
X155550558Y-104930696D01*
X155531694Y-104751221D01*
X155475928Y-104579589D01*
X155385696Y-104423303D01*
X155384952Y-104422477D01*
X155278543Y-104304296D01*
X155248313Y-104241304D01*
X155256939Y-104171969D01*
X155275217Y-104143529D01*
X155274963Y-104143344D01*
X155278201Y-104138886D01*
X155278547Y-104138347D01*
X155278781Y-104138089D01*
X155369013Y-103981803D01*
X155424779Y-103810171D01*
X155443643Y-103630696D01*
X155424779Y-103451221D01*
X155399425Y-103373192D01*
X155397431Y-103303354D01*
X155423111Y-103255790D01*
X155422816Y-103255576D01*
X155424418Y-103253370D01*
X155425215Y-103251895D01*
X155426638Y-103250315D01*
X155516870Y-103094029D01*
X155572636Y-102922397D01*
X155591500Y-102742922D01*
X155572636Y-102563447D01*
X155516870Y-102391815D01*
X155426638Y-102235529D01*
X155355924Y-102156993D01*
X155305889Y-102101422D01*
X155305886Y-102101420D01*
X155305885Y-102101419D01*
X155305884Y-102101418D01*
X155192041Y-102018706D01*
X155159885Y-101995343D01*
X154995028Y-101921943D01*
X154995022Y-101921941D01*
X154849865Y-101891088D01*
X154818503Y-101884422D01*
X154818502Y-101884422D01*
X154812146Y-101883071D01*
X154812528Y-101881269D01*
X154756153Y-101858061D01*
X154726362Y-101823341D01*
X154716401Y-101806089D01*
X154676891Y-101737655D01*
X154629595Y-101685127D01*
X154556142Y-101603548D01*
X154556139Y-101603546D01*
X154556138Y-101603545D01*
X154556137Y-101603544D01*
X154410139Y-101497470D01*
X154410138Y-101497469D01*
X154245281Y-101424069D01*
X154245275Y-101424067D01*
X154091668Y-101391418D01*
X154030186Y-101358226D01*
X153996410Y-101297063D01*
X154001062Y-101227348D01*
X154025299Y-101187156D01*
X154039864Y-101170980D01*
X154134570Y-101065798D01*
X154224802Y-100909512D01*
X154280568Y-100737880D01*
X154290037Y-100647789D01*
X154316621Y-100583178D01*
X154373918Y-100543193D01*
X154443737Y-100540533D01*
X154486240Y-100560434D01*
X154517544Y-100583178D01*
X154533785Y-100594978D01*
X154698642Y-100668378D01*
X154698648Y-100668380D01*
X154875168Y-100705900D01*
X154875169Y-100705900D01*
X155055631Y-100705900D01*
X155055632Y-100705900D01*
X155232152Y-100668380D01*
X155232154Y-100668378D01*
X155232157Y-100668378D01*
X155369795Y-100607097D01*
X155397015Y-100594978D01*
X155543013Y-100488904D01*
X155663767Y-100354793D01*
X155753999Y-100198507D01*
X155809765Y-100026875D01*
X155828629Y-99847400D01*
X155809765Y-99667925D01*
X155753999Y-99496293D01*
X155663767Y-99340007D01*
X155616471Y-99287479D01*
X155543018Y-99205900D01*
X155543015Y-99205898D01*
X155543014Y-99205897D01*
X155543013Y-99205896D01*
X155397015Y-99099822D01*
X155397014Y-99099821D01*
X155232157Y-99026421D01*
X155232151Y-99026419D01*
X155093151Y-98996874D01*
X155055632Y-98988900D01*
X154875168Y-98988900D01*
X154844225Y-98995476D01*
X154698648Y-99026419D01*
X154698642Y-99026421D01*
X154533786Y-99099821D01*
X154533781Y-99099824D01*
X154387788Y-99205894D01*
X154387781Y-99205900D01*
X154267032Y-99340008D01*
X154176800Y-99496294D01*
X154121035Y-99667922D01*
X154111566Y-99758013D01*
X154084981Y-99822627D01*
X154027683Y-99862611D01*
X153957864Y-99865271D01*
X153915359Y-99845368D01*
X153911560Y-99842608D01*
X153867818Y-99810827D01*
X153867817Y-99810826D01*
X153702960Y-99737426D01*
X153702954Y-99737424D01*
X153563954Y-99707879D01*
X153526435Y-99699905D01*
X153345971Y-99699905D01*
X153315028Y-99706481D01*
X153169451Y-99737424D01*
X153169445Y-99737426D01*
X153004589Y-99810826D01*
X153004584Y-99810829D01*
X152858591Y-99916899D01*
X152858584Y-99916905D01*
X152737835Y-100051013D01*
X152647603Y-100207299D01*
X152591838Y-100378928D01*
X152572974Y-100558405D01*
X145432888Y-100558405D01*
X145351367Y-100417207D01*
X145304071Y-100364679D01*
X145230618Y-100283100D01*
X145230615Y-100283098D01*
X145230614Y-100283097D01*
X145230613Y-100283096D01*
X145126286Y-100207298D01*
X145084614Y-100177021D01*
X144919757Y-100103621D01*
X144919751Y-100103619D01*
X144775233Y-100072902D01*
X144743232Y-100066100D01*
X144562768Y-100066100D01*
X144531825Y-100072676D01*
X144386248Y-100103619D01*
X144386242Y-100103621D01*
X144221386Y-100177021D01*
X144221381Y-100177024D01*
X144075388Y-100283094D01*
X144075381Y-100283100D01*
X143954632Y-100417208D01*
X143864400Y-100573494D01*
X143808635Y-100745123D01*
X143789771Y-100924600D01*
X133637853Y-100924600D01*
X133698367Y-100857393D01*
X133788599Y-100701107D01*
X133844365Y-100529475D01*
X133863229Y-100350000D01*
X133844365Y-100170525D01*
X133788599Y-99998893D01*
X133698367Y-99842607D01*
X133630703Y-99767458D01*
X133577618Y-99708500D01*
X133577615Y-99708498D01*
X133577614Y-99708497D01*
X133577613Y-99708496D01*
X133431615Y-99602422D01*
X133431614Y-99602421D01*
X133266757Y-99529021D01*
X133266751Y-99529019D01*
X133112786Y-99496294D01*
X133090232Y-99491500D01*
X132909768Y-99491500D01*
X132887214Y-99496294D01*
X132733248Y-99529019D01*
X132733242Y-99529021D01*
X132568386Y-99602421D01*
X132568381Y-99602424D01*
X132422388Y-99708494D01*
X132422381Y-99708500D01*
X132301632Y-99842608D01*
X132211400Y-99998894D01*
X132155635Y-100170523D01*
X132136771Y-100350000D01*
X127099127Y-100350000D01*
X127101229Y-100330000D01*
X127082365Y-100150525D01*
X127026599Y-99978893D01*
X126936367Y-99822607D01*
X126886711Y-99767458D01*
X126815618Y-99688500D01*
X126815615Y-99688498D01*
X126815614Y-99688497D01*
X126815613Y-99688496D01*
X126669615Y-99582422D01*
X126669614Y-99582421D01*
X126504757Y-99509021D01*
X126504751Y-99509019D01*
X126362115Y-99478702D01*
X126328232Y-99471500D01*
X126147768Y-99471500D01*
X126116825Y-99478076D01*
X125971248Y-99509019D01*
X125971242Y-99509021D01*
X125806386Y-99582421D01*
X125806381Y-99582424D01*
X125660388Y-99688494D01*
X125660381Y-99688500D01*
X125539632Y-99822608D01*
X125449400Y-99978894D01*
X125393635Y-100150523D01*
X125374771Y-100330000D01*
X119134968Y-100330000D01*
X119158541Y-100266064D01*
X119199070Y-100230945D01*
X119199084Y-100230936D01*
X119235576Y-100211189D01*
X119413240Y-100072906D01*
X119512614Y-99964957D01*
X119565715Y-99907276D01*
X119565717Y-99907273D01*
X119565722Y-99907268D01*
X119688860Y-99718791D01*
X119779296Y-99512616D01*
X119834564Y-99294368D01*
X119841895Y-99205896D01*
X119853156Y-99070005D01*
X119853156Y-99069994D01*
X119834565Y-98845640D01*
X119834563Y-98845628D01*
X119797072Y-98697580D01*
X119779296Y-98627384D01*
X119688860Y-98421209D01*
X119672706Y-98396484D01*
X119627291Y-98326970D01*
X119565722Y-98232732D01*
X119565719Y-98232729D01*
X119565715Y-98232723D01*
X119413243Y-98067097D01*
X119413238Y-98067092D01*
X119235577Y-97928812D01*
X119235578Y-97928812D01*
X119235576Y-97928811D01*
X119199070Y-97909055D01*
X119166370Y-97876600D01*
X141122771Y-97876600D01*
X141141635Y-98056076D01*
X141145214Y-98067092D01*
X141197401Y-98227707D01*
X141287633Y-98383993D01*
X141325444Y-98425986D01*
X141408381Y-98518099D01*
X141408384Y-98518101D01*
X141408387Y-98518104D01*
X141503400Y-98587135D01*
X141554385Y-98624178D01*
X141719242Y-98697578D01*
X141719248Y-98697580D01*
X141895768Y-98735100D01*
X141895769Y-98735100D01*
X142076231Y-98735100D01*
X142076232Y-98735100D01*
X142252752Y-98697580D01*
X142252754Y-98697578D01*
X142252757Y-98697578D01*
X142299826Y-98676621D01*
X142417615Y-98624178D01*
X142417617Y-98624176D01*
X142418164Y-98623933D01*
X142487414Y-98614648D01*
X142519036Y-98623933D01*
X142519582Y-98624176D01*
X142519585Y-98624178D01*
X142594881Y-98657702D01*
X142684442Y-98697578D01*
X142684448Y-98697580D01*
X142860968Y-98735100D01*
X142860969Y-98735100D01*
X143041431Y-98735100D01*
X143041432Y-98735100D01*
X143217952Y-98697580D01*
X143217954Y-98697578D01*
X143217957Y-98697578D01*
X143273488Y-98672853D01*
X143382815Y-98624178D01*
X143528813Y-98518104D01*
X143649567Y-98383993D01*
X143739799Y-98227707D01*
X143795565Y-98056075D01*
X143814429Y-97876600D01*
X143795565Y-97697125D01*
X143739799Y-97525493D01*
X143649567Y-97369207D01*
X143600627Y-97314854D01*
X143528818Y-97235100D01*
X143528815Y-97235098D01*
X143528814Y-97235097D01*
X143528813Y-97235096D01*
X143386727Y-97131864D01*
X143382814Y-97129021D01*
X143217957Y-97055621D01*
X143217951Y-97055619D01*
X143078951Y-97026074D01*
X143041432Y-97018100D01*
X142860968Y-97018100D01*
X142823449Y-97026074D01*
X142684449Y-97055619D01*
X142592078Y-97096746D01*
X142519589Y-97129021D01*
X142519036Y-97129267D01*
X142449786Y-97138551D01*
X142418164Y-97129267D01*
X142417617Y-97129023D01*
X142417615Y-97129022D01*
X142252752Y-97055620D01*
X142252750Y-97055619D01*
X142252751Y-97055619D01*
X142113751Y-97026074D01*
X142076232Y-97018100D01*
X141895768Y-97018100D01*
X141864825Y-97024676D01*
X141719248Y-97055619D01*
X141719242Y-97055621D01*
X141554386Y-97129021D01*
X141554381Y-97129024D01*
X141408388Y-97235094D01*
X141408381Y-97235100D01*
X141287632Y-97369208D01*
X141197400Y-97525494D01*
X141141635Y-97697123D01*
X141122771Y-97876600D01*
X119166370Y-97876600D01*
X119149479Y-97859836D01*
X119134371Y-97791619D01*
X119158541Y-97726064D01*
X119199070Y-97690945D01*
X119199084Y-97690936D01*
X119235576Y-97671189D01*
X119413240Y-97532906D01*
X119565722Y-97367268D01*
X119688860Y-97178791D01*
X119779296Y-96972616D01*
X119834564Y-96754368D01*
X119834565Y-96754359D01*
X119853156Y-96530005D01*
X119853156Y-96529994D01*
X119834565Y-96305640D01*
X119834563Y-96305628D01*
X119779296Y-96087385D01*
X119712805Y-95935800D01*
X119688860Y-95881209D01*
X119672706Y-95856484D01*
X119627291Y-95786970D01*
X119565722Y-95692732D01*
X119565719Y-95692729D01*
X119565715Y-95692723D01*
X119413243Y-95527097D01*
X119413238Y-95527092D01*
X119235577Y-95388812D01*
X119235578Y-95388812D01*
X119235576Y-95388811D01*
X119199070Y-95369055D01*
X119149479Y-95319836D01*
X119134371Y-95251619D01*
X119158541Y-95186064D01*
X119199070Y-95150945D01*
X119199084Y-95150936D01*
X119235576Y-95131189D01*
X119413240Y-94992906D01*
X119525110Y-94871384D01*
X119565715Y-94827276D01*
X119565717Y-94827273D01*
X119565722Y-94827268D01*
X119688860Y-94638791D01*
X119699296Y-94615000D01*
X137363571Y-94615000D01*
X137382435Y-94794476D01*
X137427781Y-94934039D01*
X137438201Y-94966107D01*
X137528433Y-95122393D01*
X137570496Y-95169108D01*
X137649181Y-95256499D01*
X137649184Y-95256501D01*
X137649187Y-95256504D01*
X137736356Y-95319836D01*
X137795185Y-95362578D01*
X137960042Y-95435978D01*
X137960048Y-95435980D01*
X138136568Y-95473500D01*
X138136569Y-95473500D01*
X138317031Y-95473500D01*
X138317032Y-95473500D01*
X138493552Y-95435980D01*
X138493554Y-95435978D01*
X138493557Y-95435978D01*
X138549088Y-95411253D01*
X138658415Y-95362578D01*
X138804413Y-95256504D01*
X138808812Y-95251619D01*
X138830575Y-95227447D01*
X138925167Y-95122393D01*
X139015399Y-94966107D01*
X139071165Y-94794475D01*
X139090029Y-94615000D01*
X139071165Y-94435525D01*
X139015399Y-94263893D01*
X138925167Y-94107607D01*
X138877871Y-94055079D01*
X138804418Y-93973500D01*
X138804415Y-93973498D01*
X138804414Y-93973497D01*
X138804413Y-93973496D01*
X138658415Y-93867422D01*
X138658414Y-93867421D01*
X138493557Y-93794021D01*
X138493551Y-93794019D01*
X138354551Y-93764474D01*
X138317032Y-93756500D01*
X138136568Y-93756500D01*
X138105625Y-93763076D01*
X137960048Y-93794019D01*
X137960042Y-93794021D01*
X137795186Y-93867421D01*
X137795181Y-93867424D01*
X137649188Y-93973494D01*
X137649181Y-93973500D01*
X137528432Y-94107608D01*
X137438200Y-94263894D01*
X137382435Y-94435523D01*
X137363571Y-94615000D01*
X119699296Y-94615000D01*
X119779296Y-94432616D01*
X119834564Y-94214368D01*
X119853156Y-93990000D01*
X119851788Y-93973496D01*
X119834565Y-93765640D01*
X119834563Y-93765628D01*
X119831876Y-93755018D01*
X119779296Y-93547384D01*
X119688860Y-93341209D01*
X119686439Y-93337504D01*
X119598819Y-93203391D01*
X119565722Y-93152732D01*
X119565719Y-93152729D01*
X119565715Y-93152723D01*
X119413243Y-92987097D01*
X119413238Y-92987092D01*
X119269835Y-92875476D01*
X119235576Y-92848811D01*
X119199070Y-92829055D01*
X119194279Y-92824300D01*
X139103471Y-92824300D01*
X139122335Y-93003776D01*
X139170733Y-93152732D01*
X139178101Y-93175407D01*
X139268333Y-93331693D01*
X139310396Y-93378408D01*
X139389081Y-93465799D01*
X139389084Y-93465801D01*
X139389087Y-93465804D01*
X139511166Y-93554500D01*
X139535085Y-93571878D01*
X139699942Y-93645278D01*
X139699948Y-93645280D01*
X139876468Y-93682800D01*
X139876469Y-93682800D01*
X140056931Y-93682800D01*
X140056932Y-93682800D01*
X140233452Y-93645280D01*
X140233454Y-93645278D01*
X140233457Y-93645278D01*
X140288988Y-93620553D01*
X140398315Y-93571878D01*
X140544313Y-93465804D01*
X140665067Y-93331693D01*
X140755299Y-93175407D01*
X140811065Y-93003775D01*
X140829929Y-92824300D01*
X140816444Y-92696000D01*
X146202771Y-92696000D01*
X146221635Y-92875476D01*
X146263321Y-93003775D01*
X146277401Y-93047107D01*
X146367633Y-93203393D01*
X146409696Y-93250108D01*
X146488381Y-93337499D01*
X146488384Y-93337501D01*
X146488387Y-93337504D01*
X146634385Y-93443578D01*
X146799242Y-93516978D01*
X146799248Y-93516980D01*
X146975768Y-93554500D01*
X146975769Y-93554500D01*
X147156231Y-93554500D01*
X147156232Y-93554500D01*
X147332752Y-93516980D01*
X147332754Y-93516978D01*
X147332757Y-93516978D01*
X147388288Y-93492253D01*
X147497615Y-93443578D01*
X147643613Y-93337504D01*
X147644462Y-93336562D01*
X147685300Y-93291206D01*
X147764367Y-93203393D01*
X147854599Y-93047107D01*
X147910365Y-92875475D01*
X147929229Y-92696000D01*
X147910365Y-92516525D01*
X147854599Y-92344893D01*
X147764367Y-92188607D01*
X147705758Y-92123515D01*
X147643618Y-92054500D01*
X147643615Y-92054498D01*
X147643614Y-92054497D01*
X147643613Y-92054496D01*
X147497615Y-91948422D01*
X147497614Y-91948421D01*
X147332757Y-91875021D01*
X147332751Y-91875019D01*
X147193751Y-91845474D01*
X147156232Y-91837500D01*
X146975768Y-91837500D01*
X146944825Y-91844076D01*
X146799248Y-91875019D01*
X146799242Y-91875021D01*
X146634386Y-91948421D01*
X146634381Y-91948424D01*
X146488388Y-92054494D01*
X146488381Y-92054500D01*
X146367632Y-92188608D01*
X146277400Y-92344894D01*
X146221635Y-92516523D01*
X146202771Y-92696000D01*
X140816444Y-92696000D01*
X140811065Y-92644825D01*
X140755299Y-92473193D01*
X140665067Y-92316907D01*
X140617771Y-92264379D01*
X140544318Y-92182800D01*
X140544315Y-92182798D01*
X140544314Y-92182797D01*
X140544313Y-92182796D01*
X140398315Y-92076722D01*
X140398314Y-92076721D01*
X140233457Y-92003321D01*
X140233451Y-92003319D01*
X140094451Y-91973774D01*
X140056932Y-91965800D01*
X139876468Y-91965800D01*
X139845525Y-91972376D01*
X139699948Y-92003319D01*
X139699942Y-92003321D01*
X139535086Y-92076721D01*
X139535081Y-92076724D01*
X139389088Y-92182794D01*
X139389081Y-92182800D01*
X139268332Y-92316908D01*
X139178100Y-92473194D01*
X139122335Y-92644823D01*
X139103471Y-92824300D01*
X119194279Y-92824300D01*
X119149479Y-92779836D01*
X119134371Y-92711619D01*
X119158541Y-92646064D01*
X119199070Y-92610945D01*
X119199084Y-92610936D01*
X119235576Y-92591189D01*
X119413240Y-92452906D01*
X119565722Y-92287268D01*
X119688860Y-92098791D01*
X119779296Y-91892616D01*
X119834564Y-91674368D01*
X119834565Y-91674359D01*
X119853156Y-91450005D01*
X119853156Y-91449994D01*
X119840727Y-91300000D01*
X132321971Y-91300000D01*
X132340835Y-91479476D01*
X132359671Y-91537449D01*
X132396601Y-91651107D01*
X132486833Y-91807393D01*
X132528896Y-91854108D01*
X132607581Y-91941499D01*
X132607584Y-91941501D01*
X132607587Y-91941504D01*
X132692671Y-92003321D01*
X132753585Y-92047578D01*
X132918442Y-92120978D01*
X132918448Y-92120980D01*
X133094968Y-92158500D01*
X133094969Y-92158500D01*
X133275431Y-92158500D01*
X133275432Y-92158500D01*
X133451952Y-92120980D01*
X133451954Y-92120978D01*
X133451957Y-92120978D01*
X133551352Y-92076724D01*
X133616815Y-92047578D01*
X133762813Y-91941504D01*
X133767224Y-91936606D01*
X133806832Y-91892616D01*
X133883567Y-91807393D01*
X133973799Y-91651107D01*
X134029565Y-91479475D01*
X134048429Y-91300000D01*
X134029565Y-91120525D01*
X133994633Y-91013017D01*
X133992639Y-90943176D01*
X134028720Y-90883344D01*
X134091421Y-90852516D01*
X134112565Y-90850700D01*
X134253031Y-90850700D01*
X134253032Y-90850700D01*
X134429552Y-90813180D01*
X134429554Y-90813178D01*
X134429557Y-90813178D01*
X134511972Y-90776484D01*
X134594415Y-90739778D01*
X134740413Y-90633704D01*
X134742653Y-90631217D01*
X134766575Y-90604647D01*
X134861167Y-90499593D01*
X134951399Y-90343307D01*
X135007165Y-90171675D01*
X135022647Y-90024379D01*
X135493000Y-90024379D01*
X135493000Y-90077800D01*
X136219933Y-90077800D01*
X136218000Y-90085013D01*
X136218000Y-90570587D01*
X136219933Y-90577800D01*
X135493000Y-90577800D01*
X135493000Y-90631220D01*
X135533348Y-90834066D01*
X135533350Y-90834074D01*
X135612500Y-91025158D01*
X135612505Y-91025168D01*
X135727410Y-91197135D01*
X135727413Y-91197139D01*
X135873660Y-91343386D01*
X135873664Y-91343389D01*
X136045631Y-91458294D01*
X136045641Y-91458299D01*
X136236723Y-91537448D01*
X136236725Y-91537449D01*
X136293000Y-91548642D01*
X136293000Y-90737418D01*
X136343446Y-90787864D01*
X136417555Y-90830651D01*
X136500213Y-90852800D01*
X136585787Y-90852800D01*
X136668445Y-90830651D01*
X136742554Y-90787864D01*
X136793000Y-90737418D01*
X136793000Y-91548642D01*
X136849274Y-91537449D01*
X136849276Y-91537448D01*
X137040358Y-91458299D01*
X137040368Y-91458294D01*
X137212335Y-91343389D01*
X137212339Y-91343386D01*
X137358586Y-91197139D01*
X137358589Y-91197135D01*
X137473494Y-91025168D01*
X137473499Y-91025158D01*
X137552649Y-90834074D01*
X137552651Y-90834066D01*
X137592999Y-90631220D01*
X137593000Y-90631217D01*
X137593000Y-90577800D01*
X136866067Y-90577800D01*
X136868000Y-90570587D01*
X136868000Y-90085013D01*
X136866067Y-90077800D01*
X137593000Y-90077800D01*
X137593000Y-90024383D01*
X137592999Y-90024379D01*
X140333000Y-90024379D01*
X140333000Y-90077800D01*
X141059933Y-90077800D01*
X141058000Y-90085013D01*
X141058000Y-90570587D01*
X141059933Y-90577800D01*
X140333000Y-90577800D01*
X140333000Y-90631220D01*
X140373348Y-90834066D01*
X140373350Y-90834074D01*
X140452500Y-91025158D01*
X140452505Y-91025168D01*
X140567410Y-91197135D01*
X140567413Y-91197139D01*
X140713660Y-91343386D01*
X140713664Y-91343389D01*
X140885631Y-91458294D01*
X140885641Y-91458299D01*
X141076723Y-91537448D01*
X141076725Y-91537449D01*
X141133000Y-91548642D01*
X141133000Y-90737418D01*
X141183446Y-90787864D01*
X141257555Y-90830651D01*
X141340213Y-90852800D01*
X141425787Y-90852800D01*
X141508445Y-90830651D01*
X141582554Y-90787864D01*
X141633000Y-90737418D01*
X141633000Y-91548642D01*
X141689274Y-91537449D01*
X141689276Y-91537448D01*
X141880358Y-91458299D01*
X141880368Y-91458294D01*
X142052335Y-91343389D01*
X142052339Y-91343386D01*
X142198586Y-91197139D01*
X142198589Y-91197135D01*
X142313494Y-91025168D01*
X142313499Y-91025158D01*
X142392649Y-90834074D01*
X142392651Y-90834066D01*
X142432999Y-90631220D01*
X142433000Y-90631217D01*
X142433000Y-90577800D01*
X141706067Y-90577800D01*
X141708000Y-90570587D01*
X141708000Y-90085013D01*
X141706067Y-90077800D01*
X142433000Y-90077800D01*
X142433000Y-90024383D01*
X142432999Y-90024379D01*
X142392651Y-89821533D01*
X142392649Y-89821525D01*
X142313499Y-89630441D01*
X142313494Y-89630431D01*
X142198589Y-89458464D01*
X142198586Y-89458460D01*
X142052339Y-89312213D01*
X142052335Y-89312210D01*
X141880368Y-89197305D01*
X141880358Y-89197300D01*
X141689272Y-89118149D01*
X141689267Y-89118147D01*
X141633000Y-89106955D01*
X141633000Y-89918182D01*
X141582554Y-89867736D01*
X141508445Y-89824949D01*
X141425787Y-89802800D01*
X141340213Y-89802800D01*
X141257555Y-89824949D01*
X141183446Y-89867736D01*
X141133000Y-89918182D01*
X141133000Y-89106956D01*
X141132999Y-89106955D01*
X141076732Y-89118147D01*
X141076727Y-89118149D01*
X140885641Y-89197300D01*
X140885631Y-89197305D01*
X140713664Y-89312210D01*
X140713660Y-89312213D01*
X140567413Y-89458460D01*
X140567410Y-89458464D01*
X140452505Y-89630431D01*
X140452500Y-89630441D01*
X140373350Y-89821525D01*
X140373348Y-89821533D01*
X140333000Y-90024379D01*
X137592999Y-90024379D01*
X137552651Y-89821533D01*
X137552649Y-89821525D01*
X137473499Y-89630441D01*
X137473494Y-89630431D01*
X137358589Y-89458464D01*
X137358586Y-89458460D01*
X137212339Y-89312213D01*
X137212335Y-89312210D01*
X137040368Y-89197305D01*
X137040358Y-89197300D01*
X136849272Y-89118149D01*
X136849267Y-89118147D01*
X136793000Y-89106955D01*
X136793000Y-89918182D01*
X136742554Y-89867736D01*
X136668445Y-89824949D01*
X136585787Y-89802800D01*
X136500213Y-89802800D01*
X136417555Y-89824949D01*
X136343446Y-89867736D01*
X136293000Y-89918182D01*
X136293000Y-89106956D01*
X136292999Y-89106955D01*
X136236732Y-89118147D01*
X136236727Y-89118149D01*
X136045641Y-89197300D01*
X136045631Y-89197305D01*
X135873664Y-89312210D01*
X135873660Y-89312213D01*
X135727413Y-89458460D01*
X135727410Y-89458464D01*
X135612505Y-89630431D01*
X135612500Y-89630441D01*
X135533350Y-89821525D01*
X135533348Y-89821533D01*
X135493000Y-90024379D01*
X135022647Y-90024379D01*
X135026029Y-89992200D01*
X135007165Y-89812725D01*
X134951399Y-89641093D01*
X134861167Y-89484807D01*
X134801200Y-89418207D01*
X134740418Y-89350700D01*
X134740415Y-89350698D01*
X134740414Y-89350697D01*
X134740413Y-89350696D01*
X134594415Y-89244622D01*
X134594414Y-89244621D01*
X134429557Y-89171221D01*
X134429551Y-89171219D01*
X134290551Y-89141674D01*
X134253032Y-89133700D01*
X134072568Y-89133700D01*
X134041625Y-89140276D01*
X133896048Y-89171219D01*
X133896042Y-89171221D01*
X133731186Y-89244621D01*
X133731181Y-89244624D01*
X133585188Y-89350694D01*
X133585181Y-89350700D01*
X133464432Y-89484808D01*
X133374200Y-89641094D01*
X133318435Y-89812723D01*
X133299571Y-89992200D01*
X133318435Y-90171676D01*
X133353366Y-90279182D01*
X133355361Y-90349024D01*
X133319280Y-90408856D01*
X133256579Y-90439684D01*
X133235435Y-90441500D01*
X133094968Y-90441500D01*
X133068650Y-90447094D01*
X132918448Y-90479019D01*
X132918442Y-90479021D01*
X132753586Y-90552421D01*
X132753581Y-90552424D01*
X132607588Y-90658494D01*
X132607581Y-90658500D01*
X132486832Y-90792608D01*
X132396600Y-90948894D01*
X132340835Y-91120523D01*
X132321971Y-91300000D01*
X119840727Y-91300000D01*
X119834565Y-91225640D01*
X119834563Y-91225628D01*
X119807947Y-91120523D01*
X119779296Y-91007384D01*
X119688860Y-90801209D01*
X119680141Y-90787864D01*
X119589616Y-90649305D01*
X119565722Y-90612732D01*
X119565719Y-90612729D01*
X119565715Y-90612723D01*
X119413243Y-90447097D01*
X119413238Y-90447092D01*
X119235577Y-90308812D01*
X119235572Y-90308808D01*
X119037580Y-90201661D01*
X119037577Y-90201659D01*
X119037574Y-90201658D01*
X119037571Y-90201657D01*
X119037569Y-90201656D01*
X118824637Y-90128556D01*
X118602569Y-90091500D01*
X118377431Y-90091500D01*
X118155362Y-90128556D01*
X117942430Y-90201656D01*
X117942419Y-90201661D01*
X117744427Y-90308808D01*
X117744422Y-90308812D01*
X117566761Y-90447092D01*
X117566756Y-90447097D01*
X117414284Y-90612723D01*
X117414276Y-90612734D01*
X117323808Y-90751206D01*
X117270662Y-90796562D01*
X117201431Y-90805986D01*
X117138095Y-90776484D01*
X117116192Y-90751206D01*
X117049616Y-90649305D01*
X117025722Y-90612732D01*
X117025719Y-90612729D01*
X117025715Y-90612723D01*
X116873243Y-90447097D01*
X116873238Y-90447092D01*
X116695577Y-90308812D01*
X116695572Y-90308808D01*
X116497580Y-90201661D01*
X116497577Y-90201659D01*
X116497574Y-90201658D01*
X116497571Y-90201657D01*
X116497569Y-90201656D01*
X116284637Y-90128556D01*
X116062569Y-90091500D01*
X115837431Y-90091500D01*
X115615362Y-90128556D01*
X115402430Y-90201656D01*
X115402419Y-90201661D01*
X115204427Y-90308808D01*
X115204422Y-90308812D01*
X115026761Y-90447092D01*
X115026756Y-90447097D01*
X114874284Y-90612723D01*
X114874276Y-90612734D01*
X114751140Y-90801207D01*
X114660703Y-91007385D01*
X114605436Y-91225628D01*
X114605434Y-91225640D01*
X114586844Y-91449994D01*
X112300500Y-91449994D01*
X112300500Y-88370097D01*
X121349500Y-88370097D01*
X121349500Y-88629902D01*
X121390140Y-88886493D01*
X121470422Y-89133576D01*
X121527004Y-89244622D01*
X121588366Y-89365051D01*
X121741069Y-89575229D01*
X121924771Y-89758931D01*
X122134949Y-89911634D01*
X122282445Y-89986787D01*
X122366423Y-90029577D01*
X122366425Y-90029577D01*
X122366428Y-90029579D01*
X122613507Y-90109860D01*
X122745706Y-90130797D01*
X122870098Y-90150500D01*
X122870103Y-90150500D01*
X123129902Y-90150500D01*
X123243298Y-90132539D01*
X123386493Y-90109860D01*
X123633572Y-90029579D01*
X123865051Y-89911634D01*
X124075229Y-89758931D01*
X124258931Y-89575229D01*
X124411634Y-89365051D01*
X124529579Y-89133572D01*
X124609860Y-88886493D01*
X124637346Y-88712950D01*
X124650500Y-88629902D01*
X124650500Y-88370097D01*
X124628947Y-88234021D01*
X124609860Y-88113507D01*
X124529579Y-87866428D01*
X124529577Y-87866425D01*
X124529577Y-87866423D01*
X124484495Y-87777947D01*
X124411634Y-87634949D01*
X124258931Y-87424771D01*
X124075229Y-87241069D01*
X124075225Y-87241066D01*
X123865054Y-87088368D01*
X123865053Y-87088367D01*
X123865051Y-87088366D01*
X123792764Y-87051534D01*
X123633576Y-86970422D01*
X123386493Y-86890140D01*
X123129902Y-86849500D01*
X123129897Y-86849500D01*
X122870103Y-86849500D01*
X122870098Y-86849500D01*
X122613506Y-86890140D01*
X122366423Y-86970422D01*
X122134945Y-87088368D01*
X121924774Y-87241066D01*
X121924768Y-87241071D01*
X121741071Y-87424768D01*
X121741066Y-87424774D01*
X121588368Y-87634945D01*
X121470422Y-87866423D01*
X121390140Y-88113506D01*
X121349500Y-88370097D01*
X112300500Y-88370097D01*
X112300500Y-86756745D01*
X127516100Y-86756745D01*
X127516100Y-88554054D01*
X127522611Y-88614602D01*
X127522611Y-88614604D01*
X127569428Y-88740120D01*
X127573711Y-88751604D01*
X127661339Y-88868661D01*
X127778396Y-88956289D01*
X127915399Y-89007389D01*
X127942650Y-89010318D01*
X127975945Y-89013899D01*
X127975962Y-89013900D01*
X129773238Y-89013900D01*
X129773254Y-89013899D01*
X129800292Y-89010991D01*
X129833801Y-89007389D01*
X129970804Y-88956289D01*
X130087861Y-88868661D01*
X130175489Y-88751604D01*
X130223823Y-88622015D01*
X130265693Y-88566086D01*
X130331157Y-88541669D01*
X130399430Y-88556521D01*
X130427684Y-88577672D01*
X130543517Y-88693505D01*
X130737021Y-88829000D01*
X130951107Y-88928829D01*
X130951116Y-88928833D01*
X131164600Y-88986034D01*
X131164600Y-88088412D01*
X131221607Y-88121325D01*
X131348774Y-88155400D01*
X131480426Y-88155400D01*
X131607593Y-88121325D01*
X131664600Y-88088412D01*
X131664600Y-88986033D01*
X131878083Y-88928833D01*
X131878092Y-88928829D01*
X132092178Y-88829000D01*
X132099604Y-88823800D01*
X138125571Y-88823800D01*
X138144435Y-89003276D01*
X138199002Y-89171219D01*
X138200201Y-89174907D01*
X138290433Y-89331193D01*
X138320919Y-89365051D01*
X138411181Y-89465299D01*
X138411184Y-89465301D01*
X138411187Y-89465304D01*
X138521394Y-89545374D01*
X138557185Y-89571378D01*
X138722042Y-89644778D01*
X138722048Y-89644780D01*
X138898568Y-89682300D01*
X138898569Y-89682300D01*
X139079031Y-89682300D01*
X139079032Y-89682300D01*
X139255552Y-89644780D01*
X139255554Y-89644778D01*
X139255557Y-89644778D01*
X139311088Y-89620053D01*
X139420415Y-89571378D01*
X139566413Y-89465304D01*
X139572576Y-89458460D01*
X139637069Y-89386832D01*
X139687167Y-89331193D01*
X139777399Y-89174907D01*
X139833165Y-89003275D01*
X139852029Y-88823800D01*
X139840335Y-88712545D01*
X147231500Y-88712545D01*
X147231500Y-90509854D01*
X147238011Y-90570402D01*
X147238011Y-90570404D01*
X147289111Y-90707404D01*
X147376739Y-90824461D01*
X147493796Y-90912089D01*
X147630799Y-90963189D01*
X147658050Y-90966118D01*
X147691345Y-90969699D01*
X147691362Y-90969700D01*
X149488638Y-90969700D01*
X149488654Y-90969699D01*
X149515692Y-90966791D01*
X149549201Y-90963189D01*
X149686204Y-90912089D01*
X149803261Y-90824461D01*
X149890889Y-90707404D01*
X149936138Y-90586087D01*
X149978009Y-90530156D01*
X150043474Y-90505739D01*
X150111746Y-90520591D01*
X150143545Y-90545436D01*
X150206760Y-90614106D01*
X150384424Y-90752389D01*
X150384425Y-90752389D01*
X150384427Y-90752391D01*
X150496756Y-90813180D01*
X150582426Y-90859542D01*
X150795365Y-90932644D01*
X151017431Y-90969700D01*
X151242569Y-90969700D01*
X151464635Y-90932644D01*
X151677574Y-90859542D01*
X151875576Y-90752389D01*
X152053240Y-90614106D01*
X152174594Y-90482282D01*
X152205715Y-90448476D01*
X152205715Y-90448475D01*
X152205722Y-90448468D01*
X152299749Y-90304547D01*
X152352894Y-90259194D01*
X152422125Y-90249770D01*
X152485461Y-90279272D01*
X152505130Y-90301248D01*
X152631890Y-90482278D01*
X152798917Y-90649305D01*
X152992421Y-90784800D01*
X153206507Y-90884629D01*
X153206516Y-90884633D01*
X153420000Y-90941834D01*
X153420000Y-90044212D01*
X153477007Y-90077125D01*
X153604174Y-90111200D01*
X153735826Y-90111200D01*
X153862993Y-90077125D01*
X153920000Y-90044212D01*
X153920000Y-90941833D01*
X154133483Y-90884633D01*
X154133492Y-90884629D01*
X154347578Y-90784800D01*
X154541082Y-90649305D01*
X154708105Y-90482282D01*
X154843600Y-90288778D01*
X154943429Y-90074692D01*
X154943432Y-90074686D01*
X155000636Y-89861200D01*
X154103012Y-89861200D01*
X154135925Y-89804193D01*
X154170000Y-89677026D01*
X154170000Y-89545374D01*
X154135925Y-89418207D01*
X154103012Y-89361200D01*
X155000636Y-89361200D01*
X155000635Y-89361199D01*
X154943432Y-89147713D01*
X154943429Y-89147707D01*
X154843600Y-88933622D01*
X154843599Y-88933620D01*
X154708113Y-88740126D01*
X154708108Y-88740120D01*
X154541082Y-88573094D01*
X154347578Y-88437599D01*
X154202818Y-88370097D01*
X157349500Y-88370097D01*
X157349500Y-88629902D01*
X157390140Y-88886493D01*
X157470422Y-89133576D01*
X157527004Y-89244622D01*
X157588366Y-89365051D01*
X157741069Y-89575229D01*
X157924771Y-89758931D01*
X158134949Y-89911634D01*
X158282445Y-89986787D01*
X158366423Y-90029577D01*
X158366425Y-90029577D01*
X158366428Y-90029579D01*
X158613507Y-90109860D01*
X158745706Y-90130797D01*
X158870098Y-90150500D01*
X158870103Y-90150500D01*
X159129902Y-90150500D01*
X159243298Y-90132539D01*
X159386493Y-90109860D01*
X159633572Y-90029579D01*
X159865051Y-89911634D01*
X160075229Y-89758931D01*
X160258931Y-89575229D01*
X160411634Y-89365051D01*
X160529579Y-89133572D01*
X160609860Y-88886493D01*
X160637346Y-88712950D01*
X160650500Y-88629902D01*
X160650500Y-88370097D01*
X160628947Y-88234021D01*
X160609860Y-88113507D01*
X160529579Y-87866428D01*
X160529577Y-87866425D01*
X160529577Y-87866423D01*
X160484495Y-87777947D01*
X160411634Y-87634949D01*
X160258931Y-87424771D01*
X160075229Y-87241069D01*
X160075225Y-87241066D01*
X159865054Y-87088368D01*
X159865053Y-87088367D01*
X159865051Y-87088366D01*
X159792764Y-87051534D01*
X159633576Y-86970422D01*
X159386493Y-86890140D01*
X159129902Y-86849500D01*
X159129897Y-86849500D01*
X158870103Y-86849500D01*
X158870098Y-86849500D01*
X158613506Y-86890140D01*
X158366423Y-86970422D01*
X158134945Y-87088368D01*
X157924774Y-87241066D01*
X157924768Y-87241071D01*
X157741071Y-87424768D01*
X157741066Y-87424774D01*
X157588368Y-87634945D01*
X157470422Y-87866423D01*
X157390140Y-88113506D01*
X157349500Y-88370097D01*
X154202818Y-88370097D01*
X154133492Y-88337770D01*
X154133486Y-88337767D01*
X153920000Y-88280564D01*
X153920000Y-89178188D01*
X153862993Y-89145275D01*
X153735826Y-89111200D01*
X153604174Y-89111200D01*
X153477007Y-89145275D01*
X153420000Y-89178188D01*
X153420000Y-88280564D01*
X153419999Y-88280564D01*
X153206513Y-88337767D01*
X153206507Y-88337770D01*
X152992422Y-88437599D01*
X152992420Y-88437600D01*
X152798926Y-88573086D01*
X152798920Y-88573091D01*
X152631891Y-88740120D01*
X152631890Y-88740122D01*
X152505131Y-88921152D01*
X152450554Y-88964777D01*
X152381055Y-88971969D01*
X152318701Y-88940447D01*
X152299752Y-88917856D01*
X152205722Y-88773932D01*
X152205715Y-88773925D01*
X152205715Y-88773923D01*
X152053243Y-88608297D01*
X152053238Y-88608292D01*
X151875577Y-88470012D01*
X151875572Y-88470008D01*
X151677580Y-88362861D01*
X151677577Y-88362859D01*
X151677574Y-88362858D01*
X151677571Y-88362857D01*
X151677569Y-88362856D01*
X151464637Y-88289756D01*
X151242569Y-88252700D01*
X151017431Y-88252700D01*
X150795362Y-88289756D01*
X150582430Y-88362856D01*
X150582419Y-88362861D01*
X150384427Y-88470008D01*
X150384422Y-88470012D01*
X150206761Y-88608292D01*
X150143548Y-88676960D01*
X150083661Y-88712950D01*
X150013823Y-88710849D01*
X149956207Y-88671324D01*
X149936138Y-88636310D01*
X149890889Y-88514996D01*
X149857214Y-88470012D01*
X149803261Y-88397939D01*
X149686204Y-88310311D01*
X149549203Y-88259211D01*
X149488654Y-88252700D01*
X149488638Y-88252700D01*
X147691362Y-88252700D01*
X147691345Y-88252700D01*
X147630797Y-88259211D01*
X147630795Y-88259211D01*
X147493795Y-88310311D01*
X147376739Y-88397939D01*
X147289111Y-88514995D01*
X147238011Y-88651995D01*
X147238011Y-88651997D01*
X147231500Y-88712545D01*
X139840335Y-88712545D01*
X139833165Y-88644325D01*
X139777399Y-88472693D01*
X139687167Y-88316407D01*
X139629805Y-88252700D01*
X139566418Y-88182300D01*
X139566415Y-88182298D01*
X139566414Y-88182297D01*
X139566413Y-88182296D01*
X139420415Y-88076222D01*
X139420414Y-88076221D01*
X139255557Y-88002821D01*
X139255551Y-88002819D01*
X139116551Y-87973274D01*
X139079032Y-87965300D01*
X138898568Y-87965300D01*
X138867625Y-87971876D01*
X138722048Y-88002819D01*
X138722042Y-88002821D01*
X138557186Y-88076221D01*
X138557181Y-88076224D01*
X138411188Y-88182294D01*
X138411181Y-88182300D01*
X138290432Y-88316408D01*
X138200200Y-88472694D01*
X138144435Y-88644323D01*
X138125571Y-88823800D01*
X132099604Y-88823800D01*
X132285682Y-88693505D01*
X132452705Y-88526482D01*
X132588200Y-88332978D01*
X132688029Y-88118892D01*
X132688032Y-88118886D01*
X132745236Y-87905400D01*
X131847612Y-87905400D01*
X131880525Y-87848393D01*
X131914600Y-87721226D01*
X131914600Y-87589574D01*
X131880525Y-87462407D01*
X131847612Y-87405400D01*
X132745236Y-87405400D01*
X132745235Y-87405399D01*
X132688032Y-87191913D01*
X132688029Y-87191907D01*
X132588200Y-86977822D01*
X132588199Y-86977820D01*
X132452713Y-86784326D01*
X132452708Y-86784320D01*
X132285682Y-86617294D01*
X132092178Y-86481799D01*
X131878092Y-86381970D01*
X131878086Y-86381967D01*
X131664600Y-86324764D01*
X131664600Y-87222388D01*
X131607593Y-87189475D01*
X131480426Y-87155400D01*
X131348774Y-87155400D01*
X131221607Y-87189475D01*
X131164600Y-87222388D01*
X131164600Y-86324764D01*
X131164599Y-86324764D01*
X130951113Y-86381967D01*
X130951107Y-86381970D01*
X130737022Y-86481799D01*
X130737020Y-86481800D01*
X130543526Y-86617286D01*
X130427684Y-86733128D01*
X130366361Y-86766612D01*
X130296669Y-86761628D01*
X130240736Y-86719756D01*
X130223823Y-86688784D01*
X130175489Y-86559196D01*
X130087861Y-86442139D01*
X129970804Y-86354511D01*
X129833803Y-86303411D01*
X129773254Y-86296900D01*
X129773238Y-86296900D01*
X127975962Y-86296900D01*
X127975945Y-86296900D01*
X127915397Y-86303411D01*
X127915395Y-86303411D01*
X127778395Y-86354511D01*
X127661339Y-86442139D01*
X127573711Y-86559195D01*
X127522611Y-86696195D01*
X127522611Y-86696197D01*
X127516100Y-86756745D01*
X112300500Y-86756745D01*
X112300500Y-85924500D01*
X112320185Y-85857461D01*
X112372989Y-85811706D01*
X112424500Y-85800500D01*
X135809667Y-85800500D01*
X135876706Y-85820185D01*
G37*
G04 #@! TD.AperFunction*
M02*
